<?xml version="1.0" encoding="UTF-8" standalone="no"?>
<!DOCTYPE svg PUBLIC "-//W3C//DTD SVG 1.1//EN"
 "http://www.w3.org/Graphics/SVG/1.1/DTD/svg11.dtd">
<!-- Generated by graphviz version 2.38.0 (20140413.2041)
 -->
<!-- Title: Pipeline: Pages: 1 -->
<svg width="787pt" height="649pt"
 viewBox="0.00 0.00 787.00 648.55" xmlns="http://www.w3.org/2000/svg" xmlns:xlink="http://www.w3.org/1999/xlink">
<g id="graph0" class="graph" transform="scale(1 1) rotate(0) translate(4 644.551)">
<title>Pipeline:</title>
<polygon fill="white" stroke="none" points="-4,4 -4,-644.551 783,-644.551 783,4 -4,4"/>
<g id="clust1" class="cluster"><title>clustertasks</title>
<polygon fill="none" stroke="black" points="8,-8 8,-632.551 655,-632.551 655,-8 8,-8"/>
<text text-anchor="middle" x="331.5" y="-601.551" font-family="Times,serif" font-size="30.00" fill="#ff3232">Pipeline:</text>
</g>
<g id="clust2" class="cluster"><title>clusterkey1</title>
<polygon fill="#f6f4f4" stroke="#f6f4f4" points="663,-465.351 663,-624.951 771,-624.951 771,-465.351 663,-465.351"/>
<text text-anchor="middle" x="717" y="-602.951" font-family="Times,serif" font-size="20.00">Key:</text>
</g>
<!-- t0 -->
<g id="node1" class="node"><title>t0</title>
<polygon fill="#ebf3ff" stroke="#0044a0" points="633.171,-580.551 534.829,-580.551 530.829,-576.551 530.829,-544.551 629.171,-544.551 633.171,-548.551 633.171,-580.551"/>
<polyline fill="none" stroke="#0044a0" points="629.171,-576.551 530.829,-576.551 "/>
<polyline fill="none" stroke="#0044a0" points="629.171,-576.551 629.171,-544.551 "/>
<polyline fill="none" stroke="#0044a0" points="629.171,-576.551 633.171,-580.551 "/>
<text text-anchor="middle" x="582" y="-556.551" font-family="Times,serif" font-size="20.00" fill="#0044a0">buildBAM</text>
</g>
<!-- t1 -->
<g id="node2" class="node"><title>t1</title>
<polygon fill="#ebf3ff" stroke="#0044a0" points="626.584,-513.751 513.416,-513.751 509.416,-509.751 509.416,-477.751 622.584,-477.751 626.584,-481.751 626.584,-513.751"/>
<polyline fill="none" stroke="#0044a0" points="622.584,-509.751 509.416,-509.751 "/>
<polyline fill="none" stroke="#0044a0" points="622.584,-509.751 622.584,-477.751 "/>
<polyline fill="none" stroke="#0044a0" points="622.584,-509.751 626.584,-513.751 "/>
<text text-anchor="middle" x="568" y="-489.751" font-family="Times,serif" font-size="20.00" fill="#0044a0">sortByName</text>
</g>
<!-- t0&#45;&gt;t1 -->
<g id="edge1" class="edge"><title>t0&#45;&gt;t1</title>
<path fill="none" stroke="#0044a0" d="M578.322,-544.525C576.95,-538.176 575.357,-530.802 573.839,-523.775"/>
<polygon fill="#0044a0" stroke="#0044a0" points="577.235,-522.923 571.702,-513.887 570.393,-524.401 577.235,-522.923"/>
</g>
<!-- t10 -->
<g id="node9" class="node"><title>t10</title>
<polygon fill="#ebf3ff" stroke="#0044a0" points="625.808,-110 530.192,-110 526.192,-106 526.192,-74 621.808,-74 625.808,-78 625.808,-110"/>
<polyline fill="none" stroke="#0044a0" points="621.808,-106 526.192,-106 "/>
<polyline fill="none" stroke="#0044a0" points="621.808,-106 621.808,-74 "/>
<polyline fill="none" stroke="#0044a0" points="621.808,-106 625.808,-110 "/>
<text text-anchor="middle" x="576" y="-86" font-family="Times,serif" font-size="20.00" fill="#0044a0">mapReads</text>
</g>
<!-- t0&#45;&gt;t10 -->
<g id="edge15" class="edge"><title>t0&#45;&gt;t10</title>
<path fill="none" stroke="#0044a0" d="M611.503,-544.352C620.842,-537.414 630.226,-528.564 636,-518.151 654.189,-485.347 646,-471.859 646,-434.351 646,-434.351 646,-434.351 646,-258.351 646,-200.833 646.592,-181.908 618,-132 615.021,-126.801 611.12,-121.889 606.895,-117.419"/>
<polygon fill="#0044a0" stroke="#0044a0" points="609.202,-114.781 599.585,-110.337 604.332,-119.808 609.202,-114.781"/>
</g>
<!-- t2 -->
<g id="node3" class="node"><title>t2</title>
<polygon fill="#ebf3ff" stroke="#0044a0" points="607.35,-451.351 506.65,-451.351 502.65,-447.351 502.65,-415.351 603.35,-415.351 607.35,-419.351 607.35,-451.351"/>
<polyline fill="none" stroke="#0044a0" points="603.35,-447.351 502.65,-447.351 "/>
<polyline fill="none" stroke="#0044a0" points="603.35,-447.351 603.35,-415.351 "/>
<polyline fill="none" stroke="#0044a0" points="603.35,-447.351 607.35,-451.351 "/>
<text text-anchor="middle" x="555" y="-427.351" font-family="Times,serif" font-size="20.00" fill="#0044a0">addNHTag</text>
</g>
<!-- t1&#45;&gt;t2 -->
<g id="edge2" class="edge"><title>t1&#45;&gt;t2</title>
<path fill="none" stroke="#0044a0" d="M564.309,-477.604C563.248,-472.673 562.063,-467.168 560.904,-461.781"/>
<polygon fill="#0044a0" stroke="#0044a0" points="564.271,-460.79 558.745,-451.75 557.427,-462.263 564.271,-460.79"/>
</g>
<!-- t1&#45;&gt;t10 -->
<g id="edge14" class="edge"><title>t1&#45;&gt;t10</title>
<path fill="none" stroke="#0044a0" d="M593.171,-477.749C601.792,-470.619 610.614,-461.593 616,-451.351 631.652,-421.587 626,-409.979 626,-376.351 626,-376.351 626,-376.351 626,-258.351 626,-201.106 622.376,-185.104 601,-132 599.181,-127.482 596.824,-122.918 594.284,-118.584"/>
<polygon fill="#0044a0" stroke="#0044a0" points="597.226,-116.688 588.931,-110.098 591.306,-120.423 597.226,-116.688"/>
</g>
<!-- t3 -->
<g id="node4" class="node"><title>t3</title>
<polygon fill="#ebf3ff" stroke="#0044a0" points="587.402,-393.351 456.598,-393.351 452.598,-389.351 452.598,-357.351 583.402,-357.351 587.402,-361.351 587.402,-393.351"/>
<polyline fill="none" stroke="#0044a0" points="583.402,-389.351 452.598,-389.351 "/>
<polyline fill="none" stroke="#0044a0" points="583.402,-389.351 583.402,-357.351 "/>
<polyline fill="none" stroke="#0044a0" points="583.402,-389.351 587.402,-393.351 "/>
<text text-anchor="middle" x="520" y="-369.351" font-family="Times,serif" font-size="20.00" fill="#0044a0">sortByPosition</text>
</g>
<!-- t2&#45;&gt;t3 -->
<g id="edge3" class="edge"><title>t2&#45;&gt;t3</title>
<path fill="none" stroke="#0044a0" d="M544.309,-415.245C541.663,-411.011 538.77,-406.383 535.934,-401.845"/>
<polygon fill="#0044a0" stroke="#0044a0" points="538.894,-399.977 530.626,-393.352 532.958,-403.687 538.894,-399.977"/>
</g>
<!-- t2&#45;&gt;t10 -->
<g id="edge13" class="edge"><title>t2&#45;&gt;t10</title>
<path fill="none" stroke="#0044a0" d="M578.437,-415.148C585.164,-409.021 591.806,-401.578 596,-393.351 611.274,-363.391 606,-351.979 606,-318.351 606,-318.351 606,-318.351 606,-258.351 606,-208.857 592.827,-152.35 583.939,-119.858"/>
<polygon fill="#0044a0" stroke="#0044a0" points="587.298,-118.874 581.226,-110.192 580.558,-120.766 587.298,-118.874"/>
</g>
<!-- t4 -->
<g id="node5" class="node"><title>t4</title>
<polygon fill="#ebf3ff" stroke="#0044a0" points="530.378,-335.351 469.622,-335.351 465.622,-331.351 465.622,-299.351 526.378,-299.351 530.378,-303.351 530.378,-335.351"/>
<polyline fill="none" stroke="#0044a0" points="526.378,-331.351 465.622,-331.351 "/>
<polyline fill="none" stroke="#0044a0" points="526.378,-331.351 526.378,-299.351 "/>
<polyline fill="none" stroke="#0044a0" points="526.378,-331.351 530.378,-335.351 "/>
<text text-anchor="middle" x="498" y="-311.351" font-family="Times,serif" font-size="20.00" fill="#0044a0">dedup</text>
</g>
<!-- t3&#45;&gt;t4 -->
<g id="edge4" class="edge"><title>t3&#45;&gt;t4</title>
<path fill="none" stroke="#0044a0" d="M513.28,-357.245C511.744,-353.337 510.077,-349.093 508.427,-344.893"/>
<polygon fill="#0044a0" stroke="#0044a0" points="511.593,-343.38 504.679,-335.352 505.078,-345.939 511.593,-343.38"/>
</g>
<!-- t3&#45;&gt;t10 -->
<g id="edge12" class="edge"><title>t3&#45;&gt;t10</title>
<path fill="none" stroke="#0044a0" d="M530.0px3,-357.064C540.802,-338.108 557.387,-306.496 567,-277.351 584.601,-223.987 582.312,-157.23 579.123,-120.468"/>
<polygon fill="#0044a0" stroke="#0044a0" points="582.564,-119.69 578.125,-110.07 575.596,-120.358 582.564,-119.69"/>
</g>
<!-- t5 -->
<g id="node6" class="node"><title>t5</title>
<polygon fill="#ebf3ff" stroke="#0044a0" points="19.5461,-163.45 167,-136.114 314.454,-163.45 314.316,-207.681 19.6837,-207.681 19.5461,-163.45"/>
<polygon fill="none" stroke="#0044a0" points="15.5362,-160.119 167,-132.039 318.464,-160.119 318.303,-211.688 15.6967,-211.688 15.5362,-160.119"/>
<text text-anchor="middle" x="167" y="-169.675" font-family="Times,serif" font-size="20.00" fill="#0044a0">loadPicardDuplicateStats</text>
</g>
<!-- t4&#45;&gt;t5 -->
<g id="edge5" class="edge"><title>t4&#45;&gt;t5</title>
<path fill="none" stroke="#0044a0" d="M465.225,-304.285C445.145,-296.777 418.974,-286.786 396,-277.351 348.561,-257.868 296.162,-234.938 253.473,-215.886"/>
<polygon fill="#0044a0" stroke="#0044a0" points="254.796,-212.644 244.238,-211.758 251.939,-219.034 254.796,-212.644"/>
</g>
<!-- t6 -->
<g id="node7" class="node"><title>t6</title>
<polygon fill="#ebf3ff" stroke="#0044a0" points="546.561,-277.351 409.439,-277.351 405.439,-273.351 405.439,-241.351 542.561,-241.351 546.561,-245.351 546.561,-277.351"/>
<polyline fill="none" stroke="#0044a0" points="542.561,-273.351 405.439,-273.351 "/>
<polyline fill="none" stroke="#0044a0" points="542.561,-273.351 542.561,-241.351 "/>
<polyline fill="none" stroke="#0044a0" points="542.561,-273.351 546.561,-277.351 "/>
<text text-anchor="middle" x="476" y="-253.351" font-family="Times,serif" font-size="20.00" fill="#0044a0">buildBAMStats</text>
</g>
<!-- t4&#45;&gt;t6 -->
<g id="edge6" class="edge"><title>t4&#45;&gt;t6</title>
<path fill="none" stroke="#0044a0" d="M491.28,-299.245C489.744,-295.337 488.077,-291.093 486.427,-286.893"/>
<polygon fill="#0044a0" stroke="#0044a0" points="489.593,-285.38 482.679,-277.352 483.078,-287.939 489.593,-285.38"/>
</g>
<!-- t4&#45;&gt;t10 -->
<g id="edge11" class="edge"><title>t4&#45;&gt;t10</title>
<path fill="none" stroke="#0044a0" d="M530.59,-301.375C540.314,-295.298 549.977,-287.321 556,-277.351 571.571,-251.576 575.065,-165.026 575.817,-120.289"/>
<polygon fill="#0044a0" stroke="#0044a0" points="579.319,-120.179 575.953,-110.134 572.32,-120.086 579.319,-120.179"/>
</g>
<!-- t5&#45;&gt;t10 -->
<g id="edge10" class="edge"><title>t5&#45;&gt;t10</title>
<path fill="none" stroke="#0044a0" d="M258.137,-148.768C280.849,-142.796 305.222,-136.797 328,-132 391.841,-118.557 465.814,-107.501 516.243,-100.636"/>
<polygon fill="#0044a0" stroke="#0044a0" points="516.877,-104.082 526.32,-99.2777 515.942,-97.1453 516.877,-104.082"/>
</g>
<!-- t7 -->
<g id="node8" class="node"><title>t7</title>
<polygon fill="#ebf3ff" stroke="#0044a0" points="340.651,-163.42 432,-136.016 523.349,-163.42 523.264,-207.76 340.736,-207.76 340.651,-163.42"/>
<polygon fill="none" stroke="#0044a0" points="336.638,-160.432 432,-131.824 527.362,-160.432 527.263,-211.777 336.737,-211.777 336.638,-160.432"/>
<text text-anchor="middle" x="432" y="-169.675" font-family="Times,serif" font-size="20.00" fill="#0044a0">loadBAMStats</text>
</g>
<!-- t6&#45;&gt;t7 -->
<g id="edge7" class="edge"><title>t6&#45;&gt;t7</title>
<path fill="none" stroke="#0044a0" d="M466.669,-241.03C463.441,-235.037 459.66,-228.02 455.806,-220.865"/>
<polygon fill="#0044a0" stroke="#0044a0" points="458.743,-218.938 450.919,-211.795 452.581,-222.258 458.743,-218.938"/>
</g>
<!-- t6&#45;&gt;t10 -->
<g id="edge9" class="edge"><title>t6&#45;&gt;t10</title>
<path fill="none" stroke="#0044a0" d="M511.521,-241.166C520.587,-235.331 529.575,-228.042 536,-219.351 560.005,-186.879 548.184,-170.294 561,-132 562.309,-128.087 563.777,-123.988 565.269,-119.979"/>
<polygon fill="#0044a0" stroke="#0044a0" points="568.647,-120.944 568.948,-110.353 562.108,-118.445 568.647,-120.944"/>
</g>
<!-- t7&#45;&gt;t10 -->
<g id="edge8" class="edge"><title>t7&#45;&gt;t10</title>
<path fill="none" stroke="#0044a0" d="M481.557,-146.567C499.541,-136.367 519.602,-124.989 536.593,-115.351"/>
<polygon fill="#0044a0" stroke="#0044a0" points="538.712,-118.173 545.684,-110.195 535.259,-112.084 538.712,-118.173"/>
</g>
<!-- t11 -->
<g id="node10" class="node"><title>t11</title>
<polygon fill="#efa03b" stroke="black" points="603,-52 553,-52 549,-48 549,-16 599,-16 603,-20 603,-52"/>
<polyline fill="none" stroke="black" points="599,-48 549,-48 "/>
<polyline fill="none" stroke="black" points="599,-48 599,-16 "/>
<polyline fill="none" stroke="black" points="599,-48 603,-52 "/>
<text text-anchor="middle" x="576" y="-28" font-family="Times,serif" font-size="20.00">full</text>
</g>
<!-- t10&#45;&gt;t11 -->
<g id="edge16" class="edge"><title>t10&#45;&gt;t11</title>
<path fill="none" stroke="#0044a0" d="M576,-73.8939C576,-70.2029 576,-66.2128 576,-62.2429"/>
<polygon fill="#0044a0" stroke="#0044a0" points="579.5,-62.0013 576,-52.0014 572.5,-62.0014 579.5,-62.0013"/>
</g>
<!-- k1_1 -->
<g id="node11" class="node"><title>k1_1</title>
<polygon fill="#ebf3ff" stroke="#0044a0" points="762.763,-584.851 675.237,-584.851 671.237,-580.851 671.237,-540.25 758.763,-540.25 762.763,-544.25 762.763,-584.851"/>
<polyline fill="none" stroke="#0044a0" points="758.763,-580.851 671.237,-580.851 "/>
<polyline fill="none" stroke="#0044a0" points="758.763,-580.851 758.763,-540.25 "/>
<polyline fill="none" stroke="#0044a0" points="758.763,-580.851 762.763,-584.851 "/>
<text text-anchor="middle" x="717" y="-558.351" font-family="Times,serif" font-size="14.00" fill="#0044a0">Task to run</text>
</g>
<!-- k2_1 -->
<g id="node12" class="node"><title>k2_1</title>
<polygon fill="#efa03b" stroke="black" points="763.15,-518.051 674.85,-518.051 670.85,-514.051 670.85,-473.45 759.15,-473.45 763.15,-477.45 763.15,-518.051"/>
<polyline fill="none" stroke="black" points="759.15,-514.051 670.85,-514.051 "/>
<polyline fill="none" stroke="black" points="759.15,-514.051 759.15,-473.45 "/>
<polyline fill="none" stroke="black" points="759.15,-514.051 763.15,-518.051 "/>
<text text-anchor="middle" x="717" y="-491.551" font-family="Times,serif" font-size="14.00">Final target</text>
</g>
<!-- k1_1&#45;&gt;k2_1 -->
<g id="edge17" class="edge"><title>k1_1&#45;&gt;k2_1</title>
<path fill="none" stroke="#0044a0" d="M717,-539.973C717,-536.296 717,-532.409 717,-528.534"/>
<polygon fill="#0044a0" stroke="#0044a0" points="720.5,-528.455 717,-518.455 713.5,-528.455 720.5,-528.455"/>
</g>
</g>
</svg>
