<?xml version="1.0" encoding="UTF-8" standalone="no"?>
<!DOCTYPE svg PUBLIC "-//W3C//DTD SVG 1.1//EN"
 "http://www.w3.org/Graphics/SVG/1.1/DTD/svg11.dtd">
<!-- Generated by graphviz version 2.38.0 (20140413.2041)
 -->
<!-- Title: Pipeline: Pages: 1 -->
<svg width="1896pt" height="1183pt"
 viewBox="0.00 0.00 1896.00 1183.30" xmlns="http://www.w3.org/2000/svg" xmlns:xlink="http://www.w3.org/1999/xlink">
<g id="graph0" class="graph" transform="scale(1 1) rotate(0) translate(4 1179.3)">
<title>Pipeline:</title>
<polygon fill="white" stroke="none" points="-4,4 -4,-1179.3 1892,-1179.3 1892,4 -4,4"/>
<g id="clust1" class="cluster"><title>clustertasks</title>
<polygon fill="none" stroke="black" points="8,-8 8,-1167.3 1742,-1167.3 1742,-8 8,-8"/>
<text text-anchor="middle" x="875" y="-1136.3" font-family="Times,serif" font-size="30.00" fill="#ff3232">Pipeline:</text>
</g>
<g id="clust2" class="cluster"><title>clusterkey1</title>
<polygon fill="#f6f4f4" stroke="#f6f4f4" points="1750,-776.109 1750,-1149.7 1880,-1149.7 1880,-776.109 1750,-776.109"/>
<text text-anchor="middle" x="1815" y="-1127.7" font-family="Times,serif" font-size="20.00">Key:</text>
</g>
<!-- t91 -->
<g id="node1" class="node"><title>t91</title>
<polygon fill="#ebf3ff" stroke="#0044a0" points="1734.08,-1037.3 1475.92,-1037.3 1471.92,-1033.3 1471.92,-981.3 1730.08,-981.3 1734.08,-985.3 1734.08,-1037.3"/>
<polyline fill="none" stroke="#0044a0" points="1730.08,-1033.3 1471.92,-1033.3 "/>
<polyline fill="none" stroke="#0044a0" points="1730.08,-1033.3 1730.08,-981.3 "/>
<polyline fill="none" stroke="#0044a0" points="1730.08,-1033.3 1734.08,-1037.3 "/>
<text text-anchor="middle" x="1603" y="-1015.3" font-family="Times,serif" font-size="20.00" fill="#0044a0">mkdir(&#39;transcriptprofiles.dir&#39;) </text>
<text text-anchor="middle" x="1603" y="-991.3" font-family="Times,serif" font-size="20.00" fill="#0044a0">before buildTranscriptProfiles </text>
</g>
<!-- t77 -->
<g id="node4" class="node"><title>t77</title>
<polygon fill="none" stroke="#0044a0" stroke-dasharray="5,2" points="1733.51,-933.744 1536.49,-933.744 1532.49,-929.744 1532.49,-897.744 1729.51,-897.744 1733.51,-901.744 1733.51,-933.744"/>
<polyline fill="none" stroke="#0044a0" stroke-dasharray="5,2" points="1729.51,-929.744 1532.49,-929.744 "/>
<polyline fill="none" stroke="#0044a0" stroke-dasharray="5,2" points="1729.51,-929.744 1729.51,-897.744 "/>
<polyline fill="none" stroke="#0044a0" stroke-dasharray="5,2" points="1729.51,-929.744 1733.51,-933.744 "/>
<text text-anchor="middle" x="1633" y="-909.744" font-family="Times,serif" font-size="20.00" fill="#0044a0">buildTranscriptProfiles</text>
</g>
<!-- t91&#45;&gt;t77 -->
<g id="edge2" class="edge"><title>t91&#45;&gt;t77</title>
<path fill="none" stroke="#0044a0" d="M1612,-980.83C1615.87,-969.016 1620.38,-955.253 1624.23,-943.517"/>
<polygon fill="#0044a0" stroke="#0044a0" points="1627.62,-944.418 1627.4,-933.825 1620.96,-942.238 1627.62,-944.418"/>
</g>
<!-- t102 -->
<g id="node2" class="node"><title>t102</title>
<polygon fill="#ebf3ff" stroke="#0044a0" points="1219.9,-1115.3 1048.1,-1115.3 1044.1,-1111.3 1044.1,-1059.3 1215.9,-1059.3 1219.9,-1063.3 1219.9,-1115.3"/>
<polyline fill="none" stroke="#0044a0" points="1215.9,-1111.3 1044.1,-1111.3 "/>
<polyline fill="none" stroke="#0044a0" points="1215.9,-1111.3 1215.9,-1059.3 "/>
<polyline fill="none" stroke="#0044a0" points="1215.9,-1111.3 1219.9,-1115.3 "/>
<text text-anchor="middle" x="1132" y="-1093.3" font-family="Times,serif" font-size="20.00" fill="#0044a0">mkdir(&#39;tags.dir&#39;) </text>
<text text-anchor="middle" x="1132" y="-1069.3" font-family="Times,serif" font-size="20.00" fill="#0044a0">before prepareTags </text>
</g>
<!-- t0 -->
<g id="node3" class="node"><title>t0</title>
<polygon fill="none" stroke="#0044a0" stroke-dasharray="5,2" points="1189.32,-1027.3 1078.68,-1027.3 1074.68,-1023.3 1074.68,-991.3 1185.32,-991.3 1189.32,-995.3 1189.32,-1027.3"/>
<polyline fill="none" stroke="#0044a0" stroke-dasharray="5,2" points="1185.32,-1023.3 1074.68,-1023.3 "/>
<polyline fill="none" stroke="#0044a0" stroke-dasharray="5,2" points="1185.32,-1023.3 1185.32,-991.3 "/>
<polyline fill="none" stroke="#0044a0" stroke-dasharray="5,2" points="1185.32,-1023.3 1189.32,-1027.3 "/>
<text text-anchor="middle" x="1132" y="-1003.3" font-family="Times,serif" font-size="20.00" fill="#0044a0">prepareTags</text>
</g>
<!-- t102&#45;&gt;t0 -->
<g id="edge1" class="edge"><title>t102&#45;&gt;t0</title>
<path fill="none" stroke="#0044a0" d="M1132,-1059.29C1132,-1052.35 1132,-1044.87 1132,-1037.89"/>
<polygon fill="#0044a0" stroke="#0044a0" points="1135.5,-1037.5 1132,-1027.5 1128.5,-1037.5 1135.5,-1037.5"/>
</g>
<!-- t0&#45;&gt;t77 -->
<g id="edge3" class="edge"><title>t0&#45;&gt;t77</title>
<path fill="none" stroke="#0044a0" d="M1189.65,-1005.09C1265.75,-999.933 1403.51,-987.359 1518,-959.3 1540.31,-953.831 1564.25,-945.412 1584.47,-937.5"/>
<polygon fill="#0044a0" stroke="#0044a0" points="1585.79,-940.745 1593.78,-933.794 1583.2,-934.241 1585.79,-940.745"/>
</g>
<!-- t14 -->
<g id="node5" class="node"><title>t14</title>
<polygon fill="none" stroke="#0044a0" stroke-dasharray="5,2" points="1124.52,-933.744 957.477,-933.744 953.477,-929.744 953.477,-897.744 1120.52,-897.744 1124.52,-901.744 1124.52,-933.744"/>
<polyline fill="none" stroke="#0044a0" stroke-dasharray="5,2" points="1120.52,-929.744 953.477,-929.744 "/>
<polyline fill="none" stroke="#0044a0" stroke-dasharray="5,2" points="1120.52,-929.744 1120.52,-897.744 "/>
<polyline fill="none" stroke="#0044a0" stroke-dasharray="5,2" points="1120.52,-929.744 1124.52,-933.744 "/>
<text text-anchor="middle" x="1039" y="-909.744" font-family="Times,serif" font-size="20.00" fill="#0044a0">buildCpGCoverage</text>
</g>
<!-- t0&#45;&gt;t14 -->
<g id="edge4" class="edge"><title>t0&#45;&gt;t14</title>
<path fill="none" stroke="#0044a0" d="M1114.51,-991.079C1100.22,-977.012 1079.85,-956.955 1063.86,-941.22"/>
<polygon fill="#0044a0" stroke="#0044a0" points="1066,-938.409 1056.41,-933.887 1061.08,-943.397 1066,-938.409"/>
</g>
<!-- t8 -->
<g id="node7" class="node"><title>t8</title>
<polygon fill="none" stroke="#0044a0" stroke-dasharray="5,2" points="1308.96,-933.744 1147.04,-933.744 1143.04,-929.744 1143.04,-897.744 1304.96,-897.744 1308.96,-901.744 1308.96,-933.744"/>
<polyline fill="none" stroke="#0044a0" stroke-dasharray="5,2" points="1304.96,-929.744 1143.04,-929.744 "/>
<polyline fill="none" stroke="#0044a0" stroke-dasharray="5,2" points="1304.96,-929.744 1304.96,-897.744 "/>
<polyline fill="none" stroke="#0044a0" stroke-dasharray="5,2" points="1304.96,-929.744 1308.96,-933.744 "/>
<text text-anchor="middle" x="1226" y="-909.744" font-family="Times,serif" font-size="20.00" fill="#0044a0">buildCoverageBed</text>
</g>
<!-- t0&#45;&gt;t8 -->
<g id="edge6" class="edge"><title>t0&#45;&gt;t8</title>
<path fill="none" stroke="#0044a0" d="M1149.68,-991.079C1164.12,-977.012 1184.72,-956.955 1200.87,-941.22"/>
<polygon fill="#0044a0" stroke="#0044a0" points="1203.68,-943.372 1208.4,-933.887 1198.79,-938.358 1203.68,-943.372"/>
</g>
<!-- t3 -->
<g id="node14" class="node"><title>t3</title>
<polygon fill="#ebf3ff" stroke="#0044a0" points="1415.55,-105.343 1563,-78.0062 1710.45,-105.343 1710.32,-149.574 1415.68,-149.574 1415.55,-105.343"/>
<polygon fill="none" stroke="#0044a0" points="1411.54,-102.012 1563,-73.932 1714.46,-102.012 1714.3,-153.58 1411.7,-153.58 1411.54,-102.012"/>
<text text-anchor="middle" x="1563" y="-111.568" font-family="Times,serif" font-size="20.00" fill="#0044a0">loadPicardDuplicateStats</text>
</g>
<!-- t0&#45;&gt;t3 -->
<g id="edge14" class="edge"><title>t0&#45;&gt;t3</title>
<path fill="none" stroke="#0044a0" d="M1189.62,-995.392C1226.69,-986.533 1275.66,-973.787 1318,-959.3 1411.66,-927.249 1427.38,-897.802 1523,-872.188 1561.93,-861.761 1675.31,-879.468 1703,-850.188 1726.25,-825.596 1713,-732.058 1713,-698.213 1713,-698.213 1713,-698.213 1713,-309.487 1713,-248.107 1664.47,-194.783 1622.62,-160.21"/>
<polygon fill="#0044a0" stroke="#0044a0" points="1624.6,-157.316 1614.62,-153.762 1620.21,-162.764 1624.6,-157.316"/>
</g>
<!-- t22 -->
<g id="node20" class="node"><title>t22</title>
<polygon fill="none" stroke="#0044a0" stroke-dasharray="5,2" points="498.515,-715.213 271.485,-715.213 267.485,-711.213 267.485,-679.213 494.515,-679.213 498.515,-683.213 498.515,-715.213"/>
<polyline fill="none" stroke="#0044a0" stroke-dasharray="5,2" points="494.515,-711.213 267.485,-711.213 "/>
<polyline fill="none" stroke="#0044a0" stroke-dasharray="5,2" points="494.515,-711.213 494.515,-679.213 "/>
<polyline fill="none" stroke="#0044a0" stroke-dasharray="5,2" points="494.515,-711.213 498.515,-715.213 "/>
<text text-anchor="middle" x="383" y="-691.213" font-family="Times,serif" font-size="20.00" fill="#0044a0">countTagsWithinWindows</text>
</g>
<!-- t0&#45;&gt;t22 -->
<g id="edge21" class="edge"><title>t0&#45;&gt;t22</title>
<path fill="none" stroke="#0044a0" d="M1074.46,-1005.97C907.788,-997.894 430.599,-964.976 337,-850.188 312.464,-820.098 325.181,-799.814 337,-762.831 341.576,-748.511 350.615,-734.653 359.478,-723.467"/>
<polygon fill="#0044a0" stroke="#0044a0" points="362.429,-725.393 366.145,-715.471 357.053,-720.911 362.429,-725.393"/>
</g>
<!-- t24 -->
<g id="node24" class="node"><title>t24</title>
<polygon fill="none" stroke="#0044a0" stroke-dasharray="5,2" points="901.194,-715.213 686.806,-715.213 682.806,-711.213 682.806,-679.213 897.194,-679.213 901.194,-683.213 901.194,-715.213"/>
<polyline fill="none" stroke="#0044a0" stroke-dasharray="5,2" points="897.194,-711.213 682.806,-711.213 "/>
<polyline fill="none" stroke="#0044a0" stroke-dasharray="5,2" points="897.194,-711.213 897.194,-679.213 "/>
<polyline fill="none" stroke="#0044a0" stroke-dasharray="5,2" points="897.194,-711.213 901.194,-715.213 "/>
<text text-anchor="middle" x="792" y="-691.213" font-family="Times,serif" font-size="20.00" fill="#0044a0">countTagsWithinContext</text>
</g>
<!-- t0&#45;&gt;t24 -->
<g id="edge25" class="edge"><title>t0&#45;&gt;t24</title>
<path fill="none" stroke="#0044a0" d="M1074.54,-1003.24C1035.09,-997.507 983.017,-985.295 944,-959.3 893.294,-925.516 886.825,-905.374 861,-850.188 844.118,-814.113 857.854,-798.919 841,-762.831 834.336,-748.563 824.141,-734.427 814.773,-723.032"/>
<polygon fill="#0044a0" stroke="#0044a0" points="817.305,-720.607 808.16,-715.256 811.973,-725.142 817.305,-720.607"/>
</g>
<!-- t79 -->
<g id="node49" class="node"><title>t79</title>
<polygon fill="#efa03b" stroke="black" points="1420,-52 1370,-52 1366,-48 1366,-16 1416,-16 1420,-20 1420,-52"/>
<polyline fill="none" stroke="black" points="1416,-48 1366,-48 "/>
<polyline fill="none" stroke="black" points="1416,-48 1416,-16 "/>
<polyline fill="none" stroke="black" points="1416,-48 1420,-52 "/>
<text text-anchor="middle" x="1393" y="-28" font-family="Times,serif" font-size="20.00">full</text>
</g>
<!-- t77&#45;&gt;t79 -->
<g id="edge68" class="edge"><title>t77&#45;&gt;t79</title>
<path fill="none" stroke="#0044a0" d="M1667.25,-897.735C1685.51,-886.777 1706.52,-870.729 1718,-850.188 1751.12,-790.946 1733,-766.085 1733,-698.213 1733,-698.213 1733,-698.213 1733,-225.811 1733,-158.193 1769.56,-123.037 1723,-74 1703.12,-53.058 1512.47,-41.0175 1430.34,-36.7649"/>
<polygon fill="#0044a0" stroke="#0044a0" points="1430.35,-33.2612 1420.19,-36.2505 1430,-40.2522 1430.35,-33.2612"/>
</g>
<!-- t15 -->
<g id="node6" class="node"><title>t15</title>
<polygon fill="#ebf3ff" stroke="#0044a0" points="1119.63,-684.974 1231,-657.606 1342.37,-684.974 1342.26,-729.256 1119.74,-729.256 1119.63,-684.974"/>
<polygon fill="none" stroke="#0044a0" points="1115.63,-681.828 1231,-653.476 1346.37,-681.828 1346.25,-733.267 1115.75,-733.267 1115.63,-681.828"/>
<text text-anchor="middle" x="1231" y="-691.213" font-family="Times,serif" font-size="20.00" fill="#0044a0">loadCpGCoverage</text>
</g>
<!-- t14&#45;&gt;t15 -->
<g id="edge5" class="edge"><title>t14&#45;&gt;t15</title>
<path fill="none" stroke="#0044a0" d="M1046.04,-897.689C1051.19,-884.793 1058.1,-866.57 1063,-850.188 1074.41,-812.027 1057.58,-793.496 1083,-762.831 1090.62,-753.64 1099.8,-745.719 1109.8,-738.9"/>
<polygon fill="#0044a0" stroke="#0044a0" points="1111.84,-741.753 1118.39,-733.427 1108.08,-735.851 1111.84,-741.753"/>
</g>
<!-- t16 -->
<g id="node13" class="node"><title>t16</title>
<polygon fill="#ebf3ff" stroke="#0044a0" points="1447,-606.041 1397,-606.041 1393,-602.041 1393,-570.041 1443,-570.041 1447,-574.041 1447,-606.041"/>
<polyline fill="none" stroke="#0044a0" points="1443,-602.041 1393,-602.041 "/>
<polyline fill="none" stroke="#0044a0" points="1443,-602.041 1443,-570.041 "/>
<polyline fill="none" stroke="#0044a0" points="1443,-602.041 1447,-606.041 "/>
<text text-anchor="middle" x="1420" y="-582.041" font-family="Times,serif" font-size="20.00" fill="#0044a0">gc</text>
</g>
<!-- t15&#45;&gt;t16 -->
<g id="edge12" class="edge"><title>t15&#45;&gt;t16</title>
<path fill="none" stroke="#0044a0" d="M1307.5,-672.04C1333.2,-661.867 1361.12,-648.422 1384,-631.595 1390.69,-626.677 1396.93,-620.276 1402.29,-613.94"/>
<polygon fill="#0044a0" stroke="#0044a0" points="1405.07,-616.068 1408.55,-606.063 1399.59,-611.71 1405.07,-616.068"/>
</g>
<!-- t9 -->
<g id="node8" class="node"><title>t9</title>
<polygon fill="none" stroke="#0044a0" stroke-dasharray="5,2" points="1290.24,-824.509 1095.76,-824.509 1091.76,-820.509 1091.76,-788.509 1286.24,-788.509 1290.24,-792.509 1290.24,-824.509"/>
<polyline fill="none" stroke="#0044a0" stroke-dasharray="5,2" points="1286.24,-820.509 1091.76,-820.509 "/>
<polyline fill="none" stroke="#0044a0" stroke-dasharray="5,2" points="1286.24,-820.509 1286.24,-788.509 "/>
<polyline fill="none" stroke="#0044a0" stroke-dasharray="5,2" points="1286.24,-820.509 1290.24,-824.509 "/>
<text text-anchor="middle" x="1191" y="-800.509" font-family="Times,serif" font-size="20.00" fill="#0044a0">buildCpGComposition</text>
</g>
<!-- t8&#45;&gt;t9 -->
<g id="edge7" class="edge"><title>t8&#45;&gt;t9</title>
<path fill="none" stroke="#0044a0" d="M1220.38,-897.515C1214.81,-880.474 1206.22,-854.148 1199.76,-834.363"/>
<polygon fill="#0044a0" stroke="#0044a0" points="1203.04,-833.116 1196.61,-824.696 1196.39,-835.288 1203.04,-833.116"/>
</g>
<!-- t10 -->
<g id="node9" class="node"><title>t10</title>
<polygon fill="#ebf3ff" stroke="#0044a0" points="1312.41,-794.292 1501,-766.972 1689.59,-794.292 1689.42,-838.496 1312.58,-838.496 1312.41,-794.292"/>
<polygon fill="none" stroke="#0044a0" points="1308.4,-790.827 1501,-762.926 1693.6,-790.827 1693.4,-842.5 1308.6,-842.5 1308.4,-790.827"/>
<text text-anchor="middle" x="1501" y="-800.509" font-family="Times,serif" font-size="20.00" fill="#0044a0">buildReferenceCpGComposition</text>
</g>
<!-- t8&#45;&gt;t10 -->
<g id="edge8" class="edge"><title>t8&#45;&gt;t10</title>
<path fill="none" stroke="#0044a0" d="M1269.88,-897.634C1305.27,-883.832 1356.42,-863.886 1401.61,-846.264"/>
<polygon fill="#0044a0" stroke="#0044a0" points="1403.11,-849.436 1411.16,-842.543 1400.57,-842.915 1403.11,-849.436"/>
</g>
<!-- t17 -->
<g id="node19" class="node"><title>t17</title>
<polygon fill="#ebf3ff" stroke="#0044a0" points="349.644,-794.253 440,-766.848 530.356,-794.253 530.271,-838.597 349.729,-838.597 349.644,-794.253"/>
<polygon fill="none" stroke="#0044a0" points="345.642,-791.272 440,-762.652 534.358,-791.272 534.261,-842.613 345.739,-842.613 345.642,-791.272"/>
<text text-anchor="middle" x="440" y="-800.509" font-family="Times,serif" font-size="20.00" fill="#0044a0">buildWindows</text>
</g>
<!-- t8&#45;&gt;t17 -->
<g id="edge17" class="edge"><title>t8&#45;&gt;t17</title>
<path fill="none" stroke="#0044a0" d="M1196.84,-897.622C1179.26,-888.243 1156.08,-877.479 1134,-872.188 878.39,-810.926 799.796,-906.269 543,-850.188 537.367,-848.957 531.65,-847.436 525.945,-845.707"/>
<polygon fill="#0044a0" stroke="#0044a0" points="526.964,-842.358 516.372,-842.617 524.814,-849.019 526.964,-842.358"/>
</g>
<!-- t13 -->
<g id="node10" class="node"><title>t13</title>
<polygon fill="#ebf3ff" stroke="#0044a0" points="1555.56,-715.213 1368.44,-715.213 1364.44,-711.213 1364.44,-679.213 1551.56,-679.213 1555.56,-683.213 1555.56,-715.213"/>
<polyline fill="none" stroke="#0044a0" points="1551.56,-711.213 1364.44,-711.213 "/>
<polyline fill="none" stroke="#0044a0" points="1551.56,-711.213 1551.56,-679.213 "/>
<polyline fill="none" stroke="#0044a0" points="1551.56,-711.213 1555.56,-715.213 "/>
<text text-anchor="middle" x="1460" y="-691.213" font-family="Times,serif" font-size="20.00" fill="#0044a0">loadCpGComposition</text>
</g>
<!-- t9&#45;&gt;t13 -->
<g id="edge10" class="edge"><title>t9&#45;&gt;t13</title>
<path fill="none" stroke="#0044a0" d="M1234.09,-788.46C1253.86,-780.641 1277.62,-771.257 1299,-762.831 1323.88,-753.029 1330.17,-750.749 1355,-740.831 1372.65,-733.782 1391.93,-725.984 1409.1,-719.006"/>
<polygon fill="#0044a0" stroke="#0044a0" points="1410.46,-722.234 1418.4,-715.224 1407.82,-715.75 1410.46,-722.234"/>
</g>
<!-- t10&#45;&gt;t13 -->
<g id="edge9" class="edge"><title>t10&#45;&gt;t13</title>
<path fill="none" stroke="#0044a0" d="M1485.5,-764.945C1480.36,-751.5 1474.78,-736.887 1470.15,-724.772"/>
<polygon fill="#0044a0" stroke="#0044a0" points="1473.35,-723.356 1466.52,-715.264 1466.82,-725.855 1473.35,-723.356"/>
</g>
<!-- t13&#45;&gt;t16 -->
<g id="edge13" class="edge"><title>t13&#45;&gt;t16</title>
<path fill="none" stroke="#0044a0" d="M1453.57,-678.994C1447.19,-661.885 1437.31,-635.411 1429.92,-615.607"/>
<polygon fill="#0044a0" stroke="#0044a0" points="1433.19,-614.362 1426.41,-606.217 1426.63,-616.81 1433.19,-614.362"/>
</g>
<!-- t6 -->
<g id="node11" class="node"><title>t6</title>
<polygon fill="#b8cc6e" stroke="#006000" points="1054.38,-824.509 873.618,-824.509 869.618,-820.509 869.618,-788.509 1050.38,-788.509 1054.38,-792.509 1054.38,-824.509"/>
<polyline fill="none" stroke="#006000" points="1050.38,-820.509 869.618,-820.509 "/>
<polyline fill="none" stroke="#006000" points="1050.38,-820.509 1050.38,-788.509 "/>
<polyline fill="none" stroke="#006000" points="1050.38,-820.509 1054.38,-824.509 "/>
<text text-anchor="middle" x="962" y="-800.509" font-family="Times,serif" font-size="20.00" fill="#006000">buildCpGAnnotation</text>
</g>
<!-- t7 -->
<g id="node12" class="node"><title>t7</title>
<polygon fill="#b8cc6e" stroke="#006000" points="1097.2,-715.213 922.798,-715.213 918.798,-711.213 918.798,-679.213 1093.2,-679.213 1097.2,-683.213 1097.2,-715.213"/>
<polyline fill="none" stroke="#006000" points="1093.2,-711.213 918.798,-711.213 "/>
<polyline fill="none" stroke="#006000" points="1093.2,-711.213 1093.2,-679.213 "/>
<polyline fill="none" stroke="#006000" points="1093.2,-711.213 1097.2,-715.213 "/>
<text text-anchor="middle" x="1008" y="-691.213" font-family="Times,serif" font-size="20.00" fill="#006000">loadCpGAnnotation</text>
</g>
<!-- t6&#45;&gt;t7 -->
<g id="edge11" class="edge"><title>t6&#45;&gt;t7</title>
<path fill="none" stroke="gray" d="M969.391,-788.27C976.734,-771.142 988.097,-744.637 996.598,-724.81"/>
<polygon fill="gray" stroke="gray" points="999.904,-725.979 1000.63,-715.409 993.47,-723.221 999.904,-725.979"/>
</g>
<!-- t7&#45;&gt;t16 -->
<g id="edge73" class="edge"><title>t7&#45;&gt;t16</title>
<path fill="none" stroke="gray" d="M1040.51,-679.008C1059.39,-669.844 1083.93,-659.31 1107,-653.595 1166.94,-638.744 1329.06,-659.777 1384,-631.595 1391.75,-627.62 1398.5,-621.18 1403.99,-614.5"/>
<polygon fill="gray" stroke="gray" points="1407.1,-616.189 1410.27,-606.078 1401.49,-612.008 1407.1,-616.189"/>
</g>
<!-- t16&#45;&gt;t79 -->
<g id="edge71" class="edge"><title>t16&#45;&gt;t79</title>
<path fill="none" stroke="#0044a0" d="M1419.16,-569.914C1415.29,-490.795 1399.13,-160.37 1394.34,-62.4565"/>
<polygon fill="#0044a0" stroke="#0044a0" points="1397.83,-62.0167 1393.84,-52.1996 1390.83,-62.3587 1397.83,-62.0167"/>
</g>
<!-- t3&#45;&gt;t79 -->
<g id="edge72" class="edge"><title>t3&#45;&gt;t79</title>
<path fill="none" stroke="#0044a0" d="M1498.73,-85.7306C1475.19,-74.4361 1449.39,-62.0578 1429.17,-52.3559"/>
<polygon fill="#0044a0" stroke="#0044a0" points="1430.55,-49.1331 1420.02,-47.9627 1427.52,-55.4443 1430.55,-49.1331"/>
</g>
<!-- t92 -->
<g id="node15" class="node"><title>t92</title>
<polygon fill="#ebf3ff" stroke="#0044a0" points="308.086,-834.509 19.9137,-834.509 15.9137,-830.509 15.9137,-778.509 304.086,-778.509 308.086,-782.509 308.086,-834.509"/>
<polyline fill="none" stroke="#0044a0" points="304.086,-830.509 15.9137,-830.509 "/>
<polyline fill="none" stroke="#0044a0" points="304.086,-830.509 304.086,-778.509 "/>
<polyline fill="none" stroke="#0044a0" points="304.086,-830.509 308.086,-834.509 "/>
<text text-anchor="middle" x="162" y="-812.509" font-family="Times,serif" font-size="20.00" fill="#0044a0">mkdir(&#39;counts.dir&#39;) </text>
<text text-anchor="middle" x="162" y="-788.509" font-family="Times,serif" font-size="20.00" fill="#0044a0">before countTagsWithinWindows </text>
</g>
<!-- t92&#45;&gt;t22 -->
<g id="edge19" class="edge"><title>t92&#45;&gt;t22</title>
<path fill="none" stroke="#0044a0" d="M217.768,-778.434C255.17,-760.275 303.764,-736.682 338.556,-719.791"/>
<polygon fill="#0044a0" stroke="#0044a0" points="340.515,-722.73 347.982,-715.214 337.457,-716.433 340.515,-722.73"/>
</g>
<!-- t108 -->
<g id="node16" class="node"><title>t108</title>
<polygon fill="#ebf3ff" stroke="#0044a0" points="328.092,-1115.3 39.9077,-1115.3 35.9077,-1111.3 35.9077,-1059.3 324.092,-1059.3 328.092,-1063.3 328.092,-1115.3"/>
<polyline fill="none" stroke="#0044a0" points="324.092,-1111.3 35.9077,-1111.3 "/>
<polyline fill="none" stroke="#0044a0" points="324.092,-1111.3 324.092,-1059.3 "/>
<polyline fill="none" stroke="#0044a0" points="324.092,-1111.3 328.092,-1115.3 "/>
<text text-anchor="middle" x="182" y="-1093.3" font-family="Times,serif" font-size="20.00" fill="#0044a0">mkdir(&#39;background.dir&#39;) </text>
<text text-anchor="middle" x="182" y="-1069.3" font-family="Times,serif" font-size="20.00" fill="#0044a0">before buildBackgroundWindows </text>
</g>
<!-- t4 -->
<g id="node17" class="node"><title>t4</title>
<polygon fill="none" stroke="#0044a0" stroke-dasharray="5,2" points="297.52,-1027.3 70.4795,-1027.3 66.4795,-1023.3 66.4795,-991.3 293.52,-991.3 297.52,-995.3 297.52,-1027.3"/>
<polyline fill="none" stroke="#0044a0" stroke-dasharray="5,2" points="293.52,-1023.3 66.4795,-1023.3 "/>
<polyline fill="none" stroke="#0044a0" stroke-dasharray="5,2" points="293.52,-1023.3 293.52,-991.3 "/>
<polyline fill="none" stroke="#0044a0" stroke-dasharray="5,2" points="293.52,-1023.3 297.52,-1027.3 "/>
<text text-anchor="middle" x="182" y="-1003.3" font-family="Times,serif" font-size="20.00" fill="#0044a0">buildBackgroundWindows</text>
</g>
<!-- t108&#45;&gt;t4 -->
<g id="edge15" class="edge"><title>t108&#45;&gt;t4</title>
<path fill="none" stroke="#0044a0" d="M182,-1059.29C182,-1052.35 182,-1044.87 182,-1037.89"/>
<polygon fill="#0044a0" stroke="#0044a0" points="185.5,-1037.5 182,-1027.5 178.5,-1037.5 185.5,-1037.5"/>
</g>
<!-- t5 -->
<g id="node18" class="node"><title>t5</title>
<polygon fill="#ebf3ff" stroke="#0044a0" points="19.5132,-903.522 182,-876.193 344.487,-903.522 344.335,-947.741 19.6649,-947.741 19.5132,-903.522"/>
<polygon fill="none" stroke="#0044a0" points="15.5016,-900.135 182,-872.132 348.498,-900.135 348.321,-951.746 15.6786,-951.746 15.5016,-900.135"/>
<text text-anchor="middle" x="182" y="-909.744" font-family="Times,serif" font-size="20.00" fill="#0044a0">mergeBackgroundWindows</text>
</g>
<!-- t4&#45;&gt;t5 -->
<g id="edge16" class="edge"><title>t4&#45;&gt;t5</title>
<path fill="none" stroke="#0044a0" d="M182,-991.079C182,-982.843 182,-972.553 182,-962.28"/>
<polygon fill="#0044a0" stroke="#0044a0" points="185.5,-962.088 182,-952.088 178.5,-962.088 185.5,-962.088"/>
</g>
<!-- t5&#45;&gt;t17 -->
<g id="edge18" class="edge"><title>t5&#45;&gt;t17</title>
<path fill="none" stroke="#0044a0" d="M255.242,-884.302C283.338,-872.624 315.803,-859.13 345.606,-846.743"/>
<polygon fill="#0044a0" stroke="#0044a0" points="347.29,-849.834 355.181,-842.764 344.603,-843.37 347.29,-849.834"/>
</g>
<!-- t17&#45;&gt;t22 -->
<g id="edge20" class="edge"><title>t17&#45;&gt;t22</title>
<path fill="none" stroke="#0044a0" d="M420.384,-768.584C412.662,-754.048 403.973,-737.691 396.916,-724.409"/>
<polygon fill="#0044a0" stroke="#0044a0" points="399.886,-722.539 392.104,-715.35 393.704,-725.823 399.886,-722.539"/>
</g>
<!-- t18 -->
<g id="node28" class="node"><title>t18</title>
<polygon fill="#ebf3ff" stroke="#0044a0" points="1375.38,-606.041 1214.62,-606.041 1210.62,-602.041 1210.62,-570.041 1371.38,-570.041 1375.38,-574.041 1375.38,-606.041"/>
<polyline fill="none" stroke="#0044a0" points="1371.38,-602.041 1210.62,-602.041 "/>
<polyline fill="none" stroke="#0044a0" points="1371.38,-602.041 1371.38,-570.041 "/>
<polyline fill="none" stroke="#0044a0" points="1371.38,-602.041 1375.38,-606.041 "/>
<text text-anchor="middle" x="1293" y="-582.041" font-family="Times,serif" font-size="20.00" fill="#0044a0">buildWindowStats</text>
</g>
<!-- t17&#45;&gt;t18 -->
<g id="edge31" class="edge"><title>t17&#45;&gt;t18</title>
<path fill="none" stroke="#0044a0" d="M475.687,-773.417C519.015,-736.705 596.014,-678.467 674,-653.595 785.883,-617.912 1087.92,-659.456 1202,-631.595 1220.27,-627.133 1239.3,-618.879 1255.2,-610.82"/>
<polygon fill="#0044a0" stroke="#0044a0" points="1256.93,-613.863 1264.17,-606.127 1253.69,-607.66 1256.93,-613.863"/>
</g>
<!-- t23 -->
<g id="node21" class="node"><title>t23</title>
<polygon fill="#ebf3ff" stroke="#0044a0" points="482.483,-575.821 657,-548.497 831.517,-575.821 831.354,-620.033 482.646,-620.033 482.483,-575.821"/>
<polygon fill="none" stroke="#0044a0" points="478.47,-572.396 657,-544.443 835.53,-572.396 835.34,-624.037 478.66,-624.037 478.47,-572.396"/>
<text text-anchor="middle" x="657" y="-582.041" font-family="Times,serif" font-size="20.00" fill="#0044a0">aggregateWindowsTagCounts</text>
</g>
<!-- t22&#45;&gt;t23 -->
<g id="edge22" class="edge"><title>t22&#45;&gt;t23</title>
<path fill="none" stroke="#0044a0" d="M426.719,-679.113C461.983,-665.32 512.95,-645.384 557.975,-627.773"/>
<polygon fill="#0044a0" stroke="#0044a0" points="559.447,-630.956 567.485,-624.053 556.897,-624.437 559.447,-630.956"/>
</g>
<!-- t32 -->
<g id="node22" class="node"><title>t32</title>
<polygon fill="none" stroke="#0044a0" stroke-dasharray="5,2" points="754.166,-512.487 489.834,-512.487 485.834,-508.487 485.834,-476.487 750.166,-476.487 754.166,-480.487 754.166,-512.487"/>
<polyline fill="none" stroke="#0044a0" stroke-dasharray="5,2" points="750.166,-508.487 485.834,-508.487 "/>
<polyline fill="none" stroke="#0044a0" stroke-dasharray="5,2" points="750.166,-508.487 750.166,-476.487 "/>
<polyline fill="none" stroke="#0044a0" stroke-dasharray="5,2" points="750.166,-508.487 754.166,-512.487 "/>
<text text-anchor="middle" x="620" y="-488.487" font-family="Times,serif" font-size="20.00" fill="#0044a0">summarizeWindowsTagCounts</text>
</g>
<!-- t23&#45;&gt;t32 -->
<g id="edge23" class="edge"><title>t23&#45;&gt;t32</title>
<path fill="none" stroke="#0044a0" d="M640.771,-546.884C637.423,-538.599 633.974,-530.065 630.872,-522.389"/>
<polygon fill="#0044a0" stroke="#0044a0" points="634.024,-520.846 627.032,-512.886 627.533,-523.469 634.024,-520.846"/>
</g>
<!-- t31 -->
<g id="node26" class="node"><title>t31</title>
<polygon fill="#ebf3ff" stroke="#0044a0" points="1085.72,-512.487 796.28,-512.487 792.28,-508.487 792.28,-476.487 1081.72,-476.487 1085.72,-480.487 1085.72,-512.487"/>
<polyline fill="none" stroke="#0044a0" points="1081.72,-508.487 792.28,-508.487 "/>
<polyline fill="none" stroke="#0044a0" points="1081.72,-508.487 1081.72,-476.487 "/>
<polyline fill="none" stroke="#0044a0" points="1081.72,-508.487 1085.72,-512.487 "/>
<text text-anchor="middle" x="939" y="-488.487" font-family="Times,serif" font-size="20.00" fill="#0044a0">summarizeAllWindowsTagCounts</text>
</g>
<!-- t23&#45;&gt;t31 -->
<g id="edge28" class="edge"><title>t23&#45;&gt;t31</title>
<path fill="none" stroke="#0044a0" d="M745.839,-558.198C788.405,-544.379 838.354,-528.162 876.795,-515.682"/>
<polygon fill="#0044a0" stroke="#0044a0" points="877.878,-519.011 886.308,-512.594 875.716,-512.353 877.878,-519.011"/>
</g>
<!-- t27 -->
<g id="node30" class="node"><title>t27</title>
<polygon fill="#ebf3ff" stroke="#0044a0" points="1318.36,-512.487 1107.64,-512.487 1103.64,-508.487 1103.64,-476.487 1314.36,-476.487 1318.36,-480.487 1318.36,-512.487"/>
<polyline fill="none" stroke="#0044a0" points="1314.36,-508.487 1103.64,-508.487 "/>
<polyline fill="none" stroke="#0044a0" points="1314.36,-508.487 1314.36,-476.487 "/>
<polyline fill="none" stroke="#0044a0" points="1314.36,-508.487 1318.36,-512.487 "/>
<text text-anchor="middle" x="1211" y="-488.487" font-family="Times,serif" font-size="20.00" fill="#0044a0">loadWindowsTagCounts</text>
</g>
<!-- t23&#45;&gt;t27 -->
<g id="edge34" class="edge"><title>t23&#45;&gt;t27</title>
<path fill="none" stroke="#0044a0" d="M761.351,-560.651C788.148,-554.604 817.028,-548.717 844,-544.487 954.631,-527.134 984.413,-540.113 1095,-522.487 1108.02,-520.412 1121.75,-517.696 1135.02,-514.787"/>
<polygon fill="#0044a0" stroke="#0044a0" points="1136.08,-518.138 1145.07,-512.533 1134.54,-511.307 1136.08,-518.138"/>
</g>
<!-- t28 -->
<g id="node32" class="node"><title>t28</title>
<polygon fill="#ebf3ff" stroke="#0044a0" points="1006.19,-444.487 701.814,-444.487 697.814,-440.487 697.814,-408.487 1002.19,-408.487 1006.19,-412.487 1006.19,-444.487"/>
<polyline fill="none" stroke="#0044a0" points="1002.19,-440.487 697.814,-440.487 "/>
<polyline fill="none" stroke="#0044a0" points="1002.19,-440.487 1002.19,-408.487 "/>
<polyline fill="none" stroke="#0044a0" points="1002.19,-440.487 1006.19,-444.487 "/>
<text text-anchor="middle" x="852" y="-420.487" font-family="Times,serif" font-size="20.00" fill="#0044a0">buildWindowsFoldChangesPerInput</text>
</g>
<!-- t23&#45;&gt;t28 -->
<g id="edge37" class="edge"><title>t23&#45;&gt;t28</title>
<path fill="none" stroke="#0044a0" d="M725.184,-555.01C739.117,-546.033 752.66,-535.185 763,-522.487 779.688,-501.993 765.981,-486.706 783,-466.487 788.234,-460.269 794.725,-454.844 801.616,-450.178"/>
<polygon fill="#0044a0" stroke="#0044a0" points="803.84,-452.917 810.492,-444.67 800.149,-446.969 803.84,-452.917"/>
</g>
<!-- t41 -->
<g id="node36" class="node"><title>t41</title>
<polygon fill="none" stroke="#0044a0" stroke-dasharray="5,2" points="212.81,-512.487 107.19,-512.487 103.19,-508.487 103.19,-476.487 208.81,-476.487 212.81,-480.487 212.81,-512.487"/>
<polyline fill="none" stroke="#0044a0" stroke-dasharray="5,2" points="208.81,-508.487 103.19,-508.487 "/>
<polyline fill="none" stroke="#0044a0" stroke-dasharray="5,2" points="208.81,-508.487 208.81,-476.487 "/>
<polyline fill="none" stroke="#0044a0" stroke-dasharray="5,2" points="208.81,-508.487 212.81,-512.487 "/>
<text text-anchor="middle" x="158" y="-488.487" font-family="Times,serif" font-size="20.00" fill="#0044a0">runDESeq2</text>
</g>
<!-- t23&#45;&gt;t41 -->
<g id="edge42" class="edge"><title>t23&#45;&gt;t41</title>
<path fill="none" stroke="#0044a0" d="M552.574,-560.79C525.495,-554.703 496.275,-548.764 469,-544.487 359.681,-527.345 328.305,-549.508 221,-522.487 214.715,-520.904 208.252,-518.772 201.972,-516.397"/>
<polygon fill="#0044a0" stroke="#0044a0" points="202.889,-512.994 192.305,-512.508 200.276,-519.488 202.889,-512.994"/>
</g>
<!-- t46 -->
<g id="node39" class="node"><title>t46</title>
<polygon fill="none" stroke="#0044a0" stroke-dasharray="5,2" points="453.974,-444.487 302.026,-444.487 298.026,-440.487 298.026,-408.487 449.974,-408.487 453.974,-412.487 453.974,-444.487"/>
<polyline fill="none" stroke="#0044a0" stroke-dasharray="5,2" points="449.974,-440.487 298.026,-440.487 "/>
<polyline fill="none" stroke="#0044a0" stroke-dasharray="5,2" points="449.974,-440.487 449.974,-408.487 "/>
<polyline fill="none" stroke="#0044a0" stroke-dasharray="5,2" points="449.974,-440.487 453.974,-444.487 "/>
<text text-anchor="middle" x="376" y="-420.487" font-family="Times,serif" font-size="20.00" fill="#0044a0">runFilterAnalysis</text>
</g>
<!-- t23&#45;&gt;t46 -->
<g id="edge45" class="edge"><title>t23&#45;&gt;t46</title>
<path fill="none" stroke="#0044a0" d="M541.15,-562.47C517.633,-553.111 494.712,-540.222 477,-522.487 458.325,-503.786 474.675,-486.136 457,-466.487 451.009,-459.826 443.632,-454.192 435.793,-449.458"/>
<polygon fill="#0044a0" stroke="#0044a0" points="437.24,-446.26 426.794,-444.49 433.857,-452.388 437.24,-446.26"/>
</g>
<!-- t34 -->
<g id="node27" class="node"><title>t34</title>
<polygon fill="#ebf3ff" stroke="#0044a0" points="680.198,-444.487 475.802,-444.487 471.802,-440.487 471.802,-408.487 676.198,-408.487 680.198,-412.487 680.198,-444.487"/>
<polyline fill="none" stroke="#0044a0" points="676.198,-440.487 471.802,-440.487 "/>
<polyline fill="none" stroke="#0044a0" points="676.198,-440.487 676.198,-408.487 "/>
<polyline fill="none" stroke="#0044a0" points="676.198,-440.487 680.198,-444.487 "/>
<text text-anchor="middle" x="576" y="-420.487" font-family="Times,serif" font-size="20.00" fill="#0044a0">loadTagCountSummary</text>
</g>
<!-- t32&#45;&gt;t34 -->
<g id="edge29" class="edge"><title>t32&#45;&gt;t34</title>
<path fill="none" stroke="#0044a0" d="M608.44,-476.146C603.828,-469.228 598.419,-461.115 593.355,-453.519"/>
<polygon fill="#0044a0" stroke="#0044a0" points="596.095,-451.32 587.636,-444.941 590.271,-455.203 596.095,-451.32"/>
</g>
<!-- t100 -->
<g id="node23" class="node"><title>t100</title>
<polygon fill="#ebf3ff" stroke="#0044a0" points="831.766,-834.509 556.234,-834.509 552.234,-830.509 552.234,-778.509 827.766,-778.509 831.766,-782.509 831.766,-834.509"/>
<polyline fill="none" stroke="#0044a0" points="827.766,-830.509 552.234,-830.509 "/>
<polyline fill="none" stroke="#0044a0" points="827.766,-830.509 827.766,-778.509 "/>
<polyline fill="none" stroke="#0044a0" points="827.766,-830.509 831.766,-834.509 "/>
<text text-anchor="middle" x="692" y="-812.509" font-family="Times,serif" font-size="20.00" fill="#0044a0">mkdir(&#39;contextstats.dir&#39;) </text>
<text text-anchor="middle" x="692" y="-788.509" font-family="Times,serif" font-size="20.00" fill="#0044a0">before countTagsWithinContext </text>
</g>
<!-- t100&#45;&gt;t24 -->
<g id="edge24" class="edge"><title>t100&#45;&gt;t24</title>
<path fill="none" stroke="#0044a0" d="M717.234,-778.434C733.146,-761.362 753.534,-739.486 768.999,-722.892"/>
<polygon fill="#0044a0" stroke="#0044a0" points="771.897,-724.916 776.155,-715.214 766.776,-720.144 771.897,-724.916"/>
</g>
<!-- t25 -->
<g id="node25" class="node"><title>t25</title>
<polygon fill="#ebf3ff" stroke="#0044a0" points="857.492,-575.819 1023,-548.492 1188.51,-575.819 1188.35,-620.037 857.646,-620.037 857.492,-575.819"/>
<polygon fill="none" stroke="#0044a0" points="853.48,-572.423 1023,-544.433 1192.52,-572.423 1192.34,-624.041 853.66,-624.041 853.48,-572.423"/>
<text text-anchor="middle" x="1023" y="-582.041" font-family="Times,serif" font-size="20.00" fill="#0044a0">aggregateContextTagCounts</text>
</g>
<!-- t24&#45;&gt;t25 -->
<g id="edge26" class="edge"><title>t24&#45;&gt;t25</title>
<path fill="none" stroke="#0044a0" d="M828.858,-679.113C858.215,-665.493 900.48,-645.884 938.084,-628.437"/>
<polygon fill="#0044a0" stroke="#0044a0" points="939.935,-631.437 947.533,-624.053 936.989,-625.087 939.935,-631.437"/>
</g>
<!-- t25&#45;&gt;t31 -->
<g id="edge27" class="edge"><title>t25&#45;&gt;t31</title>
<path fill="none" stroke="#0044a0" d="M988.834,-549.802C979.7,-539.847 970.053,-529.333 961.706,-520.235"/>
<polygon fill="#0044a0" stroke="#0044a0" points="964.09,-517.656 954.75,-512.654 958.932,-522.388 964.09,-517.656"/>
</g>
<!-- t25&#45;&gt;t27 -->
<g id="edge33" class="edge"><title>t25&#45;&gt;t27</title>
<path fill="none" stroke="#0044a0" d="M1088.49,-555.148C1114.38,-542.539 1143.46,-528.377 1166.79,-517.016"/>
<polygon fill="#0044a0" stroke="#0044a0" points="1168.62,-520.016 1176.08,-512.491 1165.56,-513.723 1168.62,-520.016"/>
</g>
<!-- t31&#45;&gt;t34 -->
<g id="edge30" class="edge"><title>t31&#45;&gt;t34</title>
<path fill="none" stroke="#0044a0" d="M845.046,-476.404C794.327,-467.183 731.615,-455.78 679.498,-446.305"/>
<polygon fill="#0044a0" stroke="#0044a0" points="680.025,-442.843 669.56,-444.498 678.772,-449.73 680.025,-442.843"/>
</g>
<!-- t48 -->
<g id="node40" class="node"><title>t48</title>
<polygon fill="#ebf3ff" stroke="#0044a0" points="816.586,-328.487 693.414,-328.487 689.414,-324.487 689.414,-292.487 812.586,-292.487 816.586,-296.487 816.586,-328.487"/>
<polyline fill="none" stroke="#0044a0" points="812.586,-324.487 689.414,-324.487 "/>
<polyline fill="none" stroke="#0044a0" points="812.586,-324.487 812.586,-292.487 "/>
<polyline fill="none" stroke="#0044a0" points="812.586,-324.487 816.586,-328.487 "/>
<text text-anchor="middle" x="753" y="-304.487" font-family="Times,serif" font-size="20.00" fill="#0044a0">diff_windows</text>
</g>
<!-- t34&#45;&gt;t48 -->
<g id="edge49" class="edge"><title>t34&#45;&gt;t48</title>
<path fill="none" stroke="#0044a0" d="M602.499,-408.42C633.13,-388.691 683.674,-356.137 717.638,-334.262"/>
<polygon fill="#0044a0" stroke="#0044a0" points="719.808,-337.028 726.32,-328.67 716.018,-331.143 719.808,-337.028"/>
</g>
<!-- t19 -->
<g id="node29" class="node"><title>t19</title>
<polygon fill="#ebf3ff" stroke="#0044a0" points="1393.2,-386.487 1238.8,-386.487 1234.8,-382.487 1234.8,-350.487 1389.2,-350.487 1393.2,-354.487 1393.2,-386.487"/>
<polyline fill="none" stroke="#0044a0" points="1389.2,-382.487 1234.8,-382.487 "/>
<polyline fill="none" stroke="#0044a0" points="1389.2,-382.487 1389.2,-350.487 "/>
<polyline fill="none" stroke="#0044a0" points="1389.2,-382.487 1393.2,-386.487 "/>
<text text-anchor="middle" x="1314" y="-362.487" font-family="Times,serif" font-size="20.00" fill="#0044a0">loadWindowStats</text>
</g>
<!-- t18&#45;&gt;t19 -->
<g id="edge32" class="edge"><title>t18&#45;&gt;t19</title>
<path fill="none" stroke="#0044a0" d="M1307.05,-569.967C1326.99,-544.513 1362.57,-494.255 1376,-444.487 1380.17,-429.039 1383.74,-422.492 1376,-408.487 1372.65,-402.429 1367.93,-397.184 1362.56,-392.681"/>
<polygon fill="#0044a0" stroke="#0044a0" points="1364.45,-389.724 1354.33,-386.604 1360.29,-395.357 1364.45,-389.724"/>
</g>
<!-- t19&#45;&gt;t48 -->
<g id="edge52" class="edge"><title>t19&#45;&gt;t48</title>
<path fill="none" stroke="#0044a0" d="M1234.68,-352.453C1230.06,-351.743 1225.47,-351.081 1221,-350.487 1082.33,-332.08 919.329,-320.828 826.891,-315.408"/>
<polygon fill="#0044a0" stroke="#0044a0" points="826.983,-311.908 816.798,-314.823 826.578,-318.896 826.983,-311.908"/>
</g>
<!-- t29 -->
<g id="node31" class="node"><title>t29</title>
<polygon fill="#ebf3ff" stroke="#0044a0" points="1351.56,-444.487 1028.44,-444.487 1024.44,-440.487 1024.44,-408.487 1347.56,-408.487 1351.56,-412.487 1351.56,-444.487"/>
<polyline fill="none" stroke="#0044a0" points="1347.56,-440.487 1024.44,-440.487 "/>
<polyline fill="none" stroke="#0044a0" points="1347.56,-440.487 1347.56,-408.487 "/>
<polyline fill="none" stroke="#0044a0" points="1347.56,-440.487 1351.56,-444.487 "/>
<text text-anchor="middle" x="1188" y="-420.487" font-family="Times,serif" font-size="20.00" fill="#0044a0">buildWindowsFoldChangesPerMedian</text>
</g>
<!-- t27&#45;&gt;t29 -->
<g id="edge35" class="edge"><title>t27&#45;&gt;t29</title>
<path fill="none" stroke="#0044a0" d="M1204.96,-476.146C1202.65,-469.529 1199.96,-461.819 1197.42,-454.512"/>
<polygon fill="#0044a0" stroke="#0044a0" points="1200.68,-453.232 1194.08,-444.941 1194.07,-455.536 1200.68,-453.232"/>
</g>
<!-- t27&#45;&gt;t28 -->
<g id="edge36" class="edge"><title>t27&#45;&gt;t28</title>
<path fill="none" stroke="#0044a0" d="M1141.24,-476.421C1126.04,-472.935 1110.01,-469.435 1095,-466.487 1057.28,-459.08 1016.07,-452.062 978.467,-446.076"/>
<polygon fill="#0044a0" stroke="#0044a0" points="978.903,-442.601 968.479,-444.496 977.809,-449.515 978.903,-442.601"/>
</g>
<!-- t27&#45;&gt;t48 -->
<g id="edge51" class="edge"><title>t27&#45;&gt;t48</title>
<path fill="none" stroke="#0044a0" d="M1318.69,-476.765C1335.27,-469.47 1350.38,-459.123 1361,-444.487 1370.39,-431.535 1371.38,-420.659 1361,-408.487 1360.46,-407.851 988.82,-348.87 826.919,-323.201"/>
<polygon fill="#0044a0" stroke="#0044a0" points="826.989,-319.669 816.565,-321.56 825.893,-326.583 826.989,-319.669"/>
</g>
<!-- t30 -->
<g id="node33" class="node"><title>t30</title>
<polygon fill="#ebf3ff" stroke="#0044a0" points="968.136,-386.487 739.864,-386.487 735.864,-382.487 735.864,-350.487 964.136,-350.487 968.136,-354.487 968.136,-386.487"/>
<polyline fill="none" stroke="#0044a0" points="964.136,-382.487 735.864,-382.487 "/>
<polyline fill="none" stroke="#0044a0" points="964.136,-382.487 964.136,-350.487 "/>
<polyline fill="none" stroke="#0044a0" points="964.136,-382.487 968.136,-386.487 "/>
<text text-anchor="middle" x="852" y="-362.487" font-family="Times,serif" font-size="20.00" fill="#0044a0">loadWindowsFoldChanges</text>
</g>
<!-- t29&#45;&gt;t30 -->
<g id="edge38" class="edge"><title>t29&#45;&gt;t30</title>
<path fill="none" stroke="#0044a0" d="M1085.82,-408.457C1047.37,-402.049 1003.47,-394.731 964.16,-388.18"/>
<polygon fill="#0044a0" stroke="#0044a0" points="964.712,-384.724 954.272,-386.532 963.561,-391.628 964.712,-384.724"/>
</g>
<!-- t28&#45;&gt;t30 -->
<g id="edge39" class="edge"><title>t28&#45;&gt;t30</title>
<path fill="none" stroke="#0044a0" d="M852,-408.38C852,-404.69 852,-400.699 852,-396.73"/>
<polygon fill="#0044a0" stroke="#0044a0" points="855.5,-396.488 852,-386.488 848.5,-396.488 855.5,-396.488"/>
</g>
<!-- t30&#45;&gt;t48 -->
<g id="edge50" class="edge"><title>t30&#45;&gt;t48</title>
<path fill="none" stroke="#0044a0" d="M821.759,-350.38C812.355,-345.061 801.853,-339.12 791.942,-333.515"/>
<polygon fill="#0044a0" stroke="#0044a0" points="793.483,-330.365 783.056,-328.488 790.037,-336.458 793.483,-330.365"/>
</g>
<!-- t98 -->
<g id="node34" class="node"><title>t98</title>
<polygon fill="#ebf3ff" stroke="#0044a0" points="460.156,-616.041 285.844,-616.041 281.844,-612.041 281.844,-560.041 456.156,-560.041 460.156,-564.041 460.156,-616.041"/>
<polyline fill="none" stroke="#0044a0" points="456.156,-612.041 281.844,-612.041 "/>
<polyline fill="none" stroke="#0044a0" points="456.156,-612.041 456.156,-560.041 "/>
<polyline fill="none" stroke="#0044a0" points="456.156,-612.041 460.156,-616.041 "/>
<text text-anchor="middle" x="371" y="-594.041" font-family="Times,serif" font-size="20.00" fill="#0044a0">mkdir(&#39;deseq2.dir&#39;) </text>
<text text-anchor="middle" x="371" y="-570.041" font-family="Times,serif" font-size="20.00" fill="#0044a0">before runDESeq2 </text>
</g>
<!-- t98&#45;&gt;t41 -->
<g id="edge41" class="edge"><title>t98&#45;&gt;t41</title>
<path fill="none" stroke="#0044a0" d="M308.827,-559.939C296.942,-554.788 284.593,-549.456 273,-544.487 249.935,-534.6 244.088,-532.318 221,-522.487 216.515,-520.577 211.851,-518.586 207.182,-516.591"/>
<polygon fill="#0044a0" stroke="#0044a0" points="208.215,-513.226 197.644,-512.51 205.461,-519.662 208.215,-513.226"/>
</g>
<!-- t99 -->
<g id="node35" class="node"><title>t99</title>
<polygon fill="#ebf3ff" stroke="#0044a0" points="263.608,-616.041 20.3917,-616.041 16.3917,-612.041 16.3917,-560.041 259.608,-560.041 263.608,-564.041 263.608,-616.041"/>
<polyline fill="none" stroke="#0044a0" points="259.608,-612.041 16.3917,-612.041 "/>
<polyline fill="none" stroke="#0044a0" points="259.608,-612.041 259.608,-560.041 "/>
<polyline fill="none" stroke="#0044a0" points="259.608,-612.041 263.608,-616.041 "/>
<text text-anchor="middle" x="140" y="-594.041" font-family="Times,serif" font-size="20.00" fill="#0044a0">mkdir(&#39;deseq2.dir/plots&#39;) #2 </text>
<text text-anchor="middle" x="140" y="-570.041" font-family="Times,serif" font-size="20.00" fill="#0044a0">before runDESeq2 </text>
</g>
<!-- t99&#45;&gt;t41 -->
<g id="edge40" class="edge"><title>t99&#45;&gt;t41</title>
<path fill="none" stroke="#0044a0" d="M145.401,-559.571C147.7,-547.877 150.374,-534.273 152.666,-522.616"/>
<polygon fill="#0044a0" stroke="#0044a0" points="156.147,-523.055 154.642,-512.568 149.278,-521.705 156.147,-523.055"/>
</g>
<!-- t42 -->
<g id="node37" class="node"><title>t42</title>
<polygon fill="none" stroke="#0044a0" stroke-dasharray="5,2" points="239.588,-444.487 126.412,-444.487 122.412,-440.487 122.412,-408.487 235.588,-408.487 239.588,-412.487 239.588,-444.487"/>
<polyline fill="none" stroke="#0044a0" stroke-dasharray="5,2" points="235.588,-440.487 122.412,-440.487 "/>
<polyline fill="none" stroke="#0044a0" stroke-dasharray="5,2" points="235.588,-440.487 235.588,-408.487 "/>
<polyline fill="none" stroke="#0044a0" stroke-dasharray="5,2" points="235.588,-440.487 239.588,-444.487 "/>
<text text-anchor="middle" x="181" y="-420.487" font-family="Times,serif" font-size="20.00" fill="#0044a0">loadDESeq2</text>
</g>
<!-- t41&#45;&gt;t42 -->
<g id="edge43" class="edge"><title>t41&#45;&gt;t42</title>
<path fill="none" stroke="#0044a0" d="M164.043,-476.146C166.349,-469.529 169.036,-461.819 171.582,-454.512"/>
<polygon fill="#0044a0" stroke="#0044a0" points="174.932,-455.536 174.918,-444.941 168.322,-453.232 174.932,-455.536"/>
</g>
<!-- t41&#45;&gt;t48 -->
<g id="edge48" class="edge"><title>t41&#45;&gt;t48</title>
<path fill="none" stroke="#0044a0" d="M197.387,-476.432C227.407,-463.33 264.091,-447.05 267,-444.487 281.068,-432.089 273.513,-419.058 289,-408.487 335.23,-376.933 359.121,-401.647 413,-386.487 455.266,-374.594 462.619,-361.965 505,-350.487 562.561,-334.898 629.435,-324.832 679.225,-318.838"/>
<polygon fill="#0044a0" stroke="#0044a0" points="679.742,-322.302 689.264,-317.657 678.924,-315.35 679.742,-322.302"/>
</g>
<!-- t52 -->
<g id="node41" class="node"><title>t52</title>
<polygon fill="none" stroke="#0044a0" stroke-dasharray="5,2" points="204.178,-386.487 19.8219,-386.487 15.8219,-382.487 15.8219,-350.487 200.178,-350.487 204.178,-354.487 204.178,-386.487"/>
<polyline fill="none" stroke="#0044a0" stroke-dasharray="5,2" points="200.178,-382.487 15.8219,-382.487 "/>
<polyline fill="none" stroke="#0044a0" stroke-dasharray="5,2" points="200.178,-382.487 200.178,-350.487 "/>
<polyline fill="none" stroke="#0044a0" stroke-dasharray="5,2" points="200.178,-382.487 204.178,-386.487 "/>
<text text-anchor="middle" x="110" y="-362.487" font-family="Times,serif" font-size="20.00" fill="#0044a0">mergeDMRWindows</text>
</g>
<!-- t41&#45;&gt;t52 -->
<g id="edge55" class="edge"><title>t41&#45;&gt;t52</title>
<path fill="none" stroke="#0044a0" d="M136.46,-476.218C127.496,-467.706 118.023,-456.658 113,-444.487 106.799,-429.463 105.929,-411.275 106.666,-396.573"/>
<polygon fill="#0044a0" stroke="#0044a0" points="110.157,-396.818 107.434,-386.579 103.178,-396.281 110.157,-396.818"/>
</g>
<!-- t53 -->
<g id="node44" class="node"><title>t53</title>
<polygon fill="none" stroke="#0044a0" stroke-dasharray="5,2" points="403.559,-386.487 246.441,-386.487 242.441,-382.487 242.441,-350.487 399.559,-350.487 403.559,-354.487 403.559,-386.487"/>
<polyline fill="none" stroke="#0044a0" stroke-dasharray="5,2" points="399.559,-382.487 242.441,-382.487 "/>
<polyline fill="none" stroke="#0044a0" stroke-dasharray="5,2" points="399.559,-382.487 399.559,-350.487 "/>
<polyline fill="none" stroke="#0044a0" stroke-dasharray="5,2" points="399.559,-382.487 403.559,-386.487 "/>
<text text-anchor="middle" x="323" y="-362.487" font-family="Times,serif" font-size="20.00" fill="#0044a0">buildSpikeResults</text>
</g>
<!-- t41&#45;&gt;t53 -->
<g id="edge60" class="edge"><title>t41&#45;&gt;t53</title>
<path fill="none" stroke="#0044a0" d="M199.125,-476.457C215.748,-468.33 234.411,-457.513 249,-444.487 263.53,-431.513 260.683,-422.703 274,-408.487 279.059,-403.086 284.892,-397.8 290.729,-392.95"/>
<polygon fill="#0044a0" stroke="#0044a0" points="292.998,-395.617 298.62,-386.637 288.625,-390.152 292.998,-395.617"/>
</g>
<!-- t42&#45;&gt;t48 -->
<g id="edge47" class="edge"><title>t42&#45;&gt;t48</title>
<path fill="none" stroke="#0044a0" d="M196.355,-408.147C201.877,-401.566 207.977,-393.874 213,-386.487 223.291,-371.35 217.583,-360.353 233,-350.487 251.482,-338.659 540.278,-322.375 679.306,-315.17"/>
<polygon fill="#0044a0" stroke="#0044a0" points="679.649,-318.657 689.456,-314.647 679.289,-311.667 679.649,-318.657"/>
</g>
<!-- t42&#45;&gt;t52 -->
<g id="edge54" class="edge"><title>t42&#45;&gt;t52</title>
<path fill="none" stroke="#0044a0" d="M159.312,-408.38C153.118,-403.495 146.26,-398.086 139.677,-392.894"/>
<polygon fill="#0044a0" stroke="#0044a0" points="141.575,-389.933 131.555,-386.488 137.239,-395.429 141.575,-389.933"/>
</g>
<!-- t42&#45;&gt;t53 -->
<g id="edge59" class="edge"><title>t42&#45;&gt;t53</title>
<path fill="none" stroke="#0044a0" d="M224.376,-408.38C238.828,-402.681 255.089,-396.269 270.175,-390.319"/>
<polygon fill="#0044a0" stroke="#0044a0" points="271.871,-393.413 279.889,-386.488 269.303,-386.901 271.871,-393.413"/>
</g>
<!-- t90 -->
<g id="node38" class="node"><title>t90</title>
<polygon fill="#ebf3ff" stroke="#0044a0" points="447.546,-522.487 234.454,-522.487 230.454,-518.487 230.454,-466.487 443.546,-466.487 447.546,-470.487 447.546,-522.487"/>
<polyline fill="none" stroke="#0044a0" points="443.546,-518.487 230.454,-518.487 "/>
<polyline fill="none" stroke="#0044a0" points="443.546,-518.487 443.546,-466.487 "/>
<polyline fill="none" stroke="#0044a0" points="443.546,-518.487 447.546,-522.487 "/>
<text text-anchor="middle" x="339" y="-500.487" font-family="Times,serif" font-size="20.00" fill="#0044a0">mkdir(&#39;roi.dir&#39;) </text>
<text text-anchor="middle" x="339" y="-476.487" font-family="Times,serif" font-size="20.00" fill="#0044a0">before runFilterAnalysis </text>
</g>
<!-- t90&#45;&gt;t46 -->
<g id="edge44" class="edge"><title>t90&#45;&gt;t46</title>
<path fill="none" stroke="#0044a0" d="M354.263,-466.261C356.611,-462.073 359.03,-457.757 361.364,-453.594"/>
<polygon fill="#0044a0" stroke="#0044a0" points="364.437,-455.27 366.274,-444.835 358.331,-451.847 364.437,-455.27"/>
</g>
<!-- t46&#45;&gt;t48 -->
<g id="edge46" class="edge"><title>t46&#45;&gt;t48</title>
<path fill="none" stroke="#0044a0" d="M432.441,-408.42C500.418,-387.864 614.443,-353.385 686.589,-331.568"/>
<polygon fill="#0044a0" stroke="#0044a0" points="687.923,-334.822 696.482,-328.577 685.897,-328.121 687.923,-334.822"/>
</g>
<!-- t46&#45;&gt;t52 -->
<g id="edge53" class="edge"><title>t46&#45;&gt;t52</title>
<path fill="none" stroke="#0044a0" d="M297.989,-409.063C267.556,-402.656 232.462,-395.268 200.896,-388.623"/>
<polygon fill="#0044a0" stroke="#0044a0" points="201.289,-385.129 190.782,-386.493 199.846,-391.978 201.289,-385.129"/>
</g>
<!-- t46&#45;&gt;t53 -->
<g id="edge58" class="edge"><title>t46&#45;&gt;t53</title>
<path fill="none" stroke="#0044a0" d="M359.81,-408.38C355.495,-403.821 350.748,-398.805 346.138,-393.935"/>
<polygon fill="#0044a0" stroke="#0044a0" points="348.507,-391.345 339.091,-386.488 343.422,-396.157 348.507,-391.345"/>
</g>
<!-- t48&#45;&gt;t79 -->
<g id="edge70" class="edge"><title>t48&#45;&gt;t79</title>
<path fill="none" stroke="#0044a0" d="M793.035,-292.316C909.119,-242.53 1244.68,-98.611 1356.36,-50.7141"/>
<polygon fill="#0044a0" stroke="#0044a0" points="1358.04,-53.8033 1365.85,-46.645 1355.28,-47.37 1358.04,-53.8033"/>
</g>
<!-- t55 -->
<g id="node42" class="node"><title>t55</title>
<polygon fill="none" stroke="#0044a0" stroke-dasharray="5,2" points="374.561,-328.487 237.439,-328.487 233.439,-324.487 233.439,-292.487 370.561,-292.487 374.561,-296.487 374.561,-328.487"/>
<polyline fill="none" stroke="#0044a0" stroke-dasharray="5,2" points="370.561,-324.487 233.439,-324.487 "/>
<polyline fill="none" stroke="#0044a0" stroke-dasharray="5,2" points="370.561,-324.487 370.561,-292.487 "/>
<polyline fill="none" stroke="#0044a0" stroke-dasharray="5,2" points="370.561,-324.487 374.561,-328.487 "/>
<text text-anchor="middle" x="304" y="-304.487" font-family="Times,serif" font-size="20.00" fill="#0044a0">buildDMRStats</text>
</g>
<!-- t52&#45;&gt;t55 -->
<g id="edge56" class="edge"><title>t52&#45;&gt;t55</title>
<path fill="none" stroke="#0044a0" d="M168.997,-350.457C189.877,-344.429 213.549,-337.596 235.175,-331.354"/>
<polygon fill="#0044a0" stroke="#0044a0" points="236.313,-334.668 244.95,-328.532 234.371,-327.943 236.313,-334.668"/>
</g>
<!-- t58 -->
<g id="node46" class="node"><title>t58</title>
<polygon fill="none" stroke="#0044a0" stroke-dasharray="5,2" points="194.822,-328.487 29.1777,-328.487 25.1777,-324.487 25.1777,-292.487 190.822,-292.487 194.822,-296.487 194.822,-328.487"/>
<polyline fill="none" stroke="#0044a0" stroke-dasharray="5,2" points="190.822,-324.487 25.1777,-324.487 "/>
<polyline fill="none" stroke="#0044a0" stroke-dasharray="5,2" points="190.822,-324.487 190.822,-292.487 "/>
<polyline fill="none" stroke="#0044a0" stroke-dasharray="5,2" points="190.822,-324.487 194.822,-328.487 "/>
<text text-anchor="middle" x="110" y="-304.487" font-family="Times,serif" font-size="20.00" fill="#0044a0">outputAllWindows</text>
</g>
<!-- t52&#45;&gt;t58 -->
<g id="edge62" class="edge"><title>t52&#45;&gt;t58</title>
<path fill="none" stroke="#0044a0" d="M110,-350.38C110,-346.69 110,-342.699 110,-338.73"/>
<polygon fill="#0044a0" stroke="#0044a0" points="113.5,-338.488 110,-328.488 106.5,-338.488 113.5,-338.488"/>
</g>
<!-- t62 -->
<g id="node43" class="node"><title>t62</title>
<polygon fill="#ebf3ff" stroke="#0044a0" points="233.651,-214.556 325,-187.152 416.349,-214.556 416.264,-258.896 233.736,-258.896 233.651,-214.556"/>
<polygon fill="none" stroke="#0044a0" points="229.638,-211.568 325,-182.96 420.362,-211.568 420.263,-262.912 229.737,-262.912 229.638,-211.568"/>
<text text-anchor="middle" x="325" y="-220.811" font-family="Times,serif" font-size="20.00" fill="#0044a0">loadDMRStats</text>
</g>
<!-- t55&#45;&gt;t62 -->
<g id="edge57" class="edge"><title>t55&#45;&gt;t62</title>
<path fill="none" stroke="#0044a0" d="M308.454,-292.165C309.926,-286.439 311.639,-279.778 313.393,-272.954"/>
<polygon fill="#0044a0" stroke="#0044a0" points="316.87,-273.487 315.97,-262.93 310.09,-271.744 316.87,-273.487"/>
</g>
<!-- t67 -->
<g id="node48" class="node"><title>t67</title>
<polygon fill="#ebf3ff" stroke="#0044a0" points="352,-135.568 302,-135.568 298,-131.568 298,-99.5679 348,-99.5679 352,-103.568 352,-135.568"/>
<polyline fill="none" stroke="#0044a0" points="348,-131.568 298,-131.568 "/>
<polyline fill="none" stroke="#0044a0" points="348,-131.568 348,-99.5679 "/>
<polyline fill="none" stroke="#0044a0" points="348,-131.568 352,-135.568 "/>
<text text-anchor="middle" x="325" y="-111.568" font-family="Times,serif" font-size="20.00" fill="#0044a0">dmr</text>
</g>
<!-- t62&#45;&gt;t67 -->
<g id="edge64" class="edge"><title>t62&#45;&gt;t67</title>
<path fill="none" stroke="#0044a0" d="M325,-183.118C325,-170.546 325,-157.138 325,-145.818"/>
<polygon fill="#0044a0" stroke="#0044a0" points="328.5,-145.7 325,-135.7 321.5,-145.7 328.5,-145.7"/>
</g>
<!-- t54 -->
<g id="node45" class="node"><title>t54</title>
<polygon fill="none" stroke="#0044a0" stroke-dasharray="5,2" points="593.378,-244.811 442.622,-244.811 438.622,-240.811 438.622,-208.811 589.378,-208.811 593.378,-212.811 593.378,-244.811"/>
<polyline fill="none" stroke="#0044a0" stroke-dasharray="5,2" points="589.378,-240.811 438.622,-240.811 "/>
<polyline fill="none" stroke="#0044a0" stroke-dasharray="5,2" points="589.378,-240.811 589.378,-208.811 "/>
<polyline fill="none" stroke="#0044a0" stroke-dasharray="5,2" points="589.378,-240.811 593.378,-244.811 "/>
<text text-anchor="middle" x="516" y="-220.811" font-family="Times,serif" font-size="20.00" fill="#0044a0">loadSpikeResults</text>
</g>
<!-- t53&#45;&gt;t54 -->
<g id="edge61" class="edge"><title>t53&#45;&gt;t54</title>
<path fill="none" stroke="#0044a0" d="M350.952,-350.296C361.443,-343.668 373.39,-335.906 384,-328.487 420.019,-303.301 459.966,-272.397 486.379,-251.524"/>
<polygon fill="#0044a0" stroke="#0044a0" points="488.795,-254.075 494.457,-245.12 484.447,-248.589 488.795,-254.075"/>
</g>
<!-- t54&#45;&gt;t67 -->
<g id="edge67" class="edge"><title>t54&#45;&gt;t67</title>
<path fill="none" stroke="#0044a0" d="M485.313,-208.581C451.529,-189.612 397.256,-159.139 361.363,-138.985"/>
<polygon fill="#0044a0" stroke="#0044a0" points="362.642,-135.689 352.209,-133.845 359.215,-141.793 362.642,-135.689"/>
</g>
<!-- t59 -->
<g id="node47" class="node"><title>t59</title>
<polygon fill="none" stroke="#0044a0" stroke-dasharray="5,2" points="211.986,-244.811 40.014,-244.811 36.014,-240.811 36.014,-208.811 207.986,-208.811 211.986,-212.811 211.986,-244.811"/>
<polyline fill="none" stroke="#0044a0" stroke-dasharray="5,2" points="207.986,-240.811 36.014,-240.811 "/>
<polyline fill="none" stroke="#0044a0" stroke-dasharray="5,2" points="207.986,-240.811 207.986,-208.811 "/>
<polyline fill="none" stroke="#0044a0" stroke-dasharray="5,2" points="207.986,-240.811 211.986,-244.811 "/>
<text text-anchor="middle" x="124" y="-220.811" font-family="Times,serif" font-size="20.00" fill="#0044a0">outputTopWindows</text>
</g>
<!-- t58&#45;&gt;t59 -->
<g id="edge63" class="edge"><title>t58&#45;&gt;t59</title>
<path fill="none" stroke="#0044a0" d="M112.969,-292.165C114.819,-281.373 117.239,-267.256 119.341,-254.994"/>
<polygon fill="#0044a0" stroke="#0044a0" points="122.843,-255.275 121.083,-244.827 115.944,-254.092 122.843,-255.275"/>
</g>
<!-- t58&#45;&gt;t67 -->
<g id="edge66" class="edge"><title>t58&#45;&gt;t67</title>
<path fill="none" stroke="#0044a0" d="M51.2656,-292.304C41.6332,-286.868 32.889,-279.76 27,-270.487 6.18864,-237.713 2.62755,-213.355 27,-183.136 59.388,-142.979 215.208,-126.541 287.727,-120.983"/>
<polygon fill="#0044a0" stroke="#0044a0" points="288.082,-124.467 297.798,-120.241 287.567,-117.486 288.082,-124.467"/>
</g>
<!-- t59&#45;&gt;t67 -->
<g id="edge65" class="edge"><title>t59&#45;&gt;t67</title>
<path fill="none" stroke="#0044a0" d="M156.294,-208.581C192.509,-189.258 251.098,-157.998 288.825,-137.869"/>
<polygon fill="#0044a0" stroke="#0044a0" points="290.766,-140.801 297.941,-133.005 287.471,-134.625 290.766,-140.801"/>
</g>
<!-- t67&#45;&gt;t79 -->
<g id="edge69" class="edge"><title>t67&#45;&gt;t79</title>
<path fill="none" stroke="#0044a0" d="M352.203,-114.49C498.01,-103.354 1186.66,-50.7589 1355.54,-37.8608"/>
<polygon fill="#0044a0" stroke="#0044a0" points="1355.98,-41.338 1365.68,-37.0866 1355.44,-34.3583 1355.98,-41.338"/>
</g>
<!-- k1_1 -->
<g id="node50" class="node"><title>k1_1</title>
<polygon fill="#b8cc6e" stroke="#006000" points="1872.19,-1109.6 1761.81,-1109.6 1757.81,-1105.6 1757.81,-1065 1868.19,-1065 1872.19,-1069 1872.19,-1109.6"/>
<polyline fill="none" stroke="#006000" points="1868.19,-1105.6 1757.81,-1105.6 "/>
<polyline fill="none" stroke="#006000" points="1868.19,-1105.6 1868.19,-1065 "/>
<polyline fill="none" stroke="#006000" points="1868.19,-1105.6 1872.19,-1109.6 "/>
<text text-anchor="middle" x="1815" y="-1083.1" font-family="Times,serif" font-size="14.00" fill="#006000">Up&#45;to&#45;date task</text>
</g>
<!-- k2_1 -->
<g id="node51" class="node"><title>k2_1</title>
<polygon fill="#ebf3ff" stroke="#0044a0" points="1860.76,-1031.6 1773.24,-1031.6 1769.24,-1027.6 1769.24,-986.999 1856.76,-986.999 1860.76,-990.999 1860.76,-1031.6"/>
<polyline fill="none" stroke="#0044a0" points="1856.76,-1027.6 1769.24,-1027.6 "/>
<polyline fill="none" stroke="#0044a0" points="1856.76,-1027.6 1856.76,-986.999 "/>
<polyline fill="none" stroke="#0044a0" points="1856.76,-1027.6 1860.76,-1031.6 "/>
<text text-anchor="middle" x="1815" y="-1005.1" font-family="Times,serif" font-size="14.00" fill="#0044a0">Task to run</text>
</g>
<!-- k1_1&#45;&gt;k2_1 -->
<g id="edge74" class="edge"><title>k1_1&#45;&gt;k2_1</title>
<path fill="none" stroke="gray" d="M1815,-1064.72C1815,-1057.6 1815,-1049.53 1815,-1041.82"/>
<polygon fill="gray" stroke="gray" points="1818.5,-1041.67 1815,-1031.67 1811.5,-1041.67 1818.5,-1041.67"/>
</g>
<!-- k3_1 -->
<g id="node52" class="node"><title>k3_1</title>
<polygon fill="none" stroke="#0044a0" stroke-dasharray="5,2" points="1872.19,-946.345 1761.81,-946.345 1757.81,-942.345 1757.81,-885.142 1868.19,-885.142 1872.19,-889.142 1872.19,-946.345"/>
<polyline fill="none" stroke="#0044a0" stroke-dasharray="5,2" points="1868.19,-942.345 1757.81,-942.345 "/>
<polyline fill="none" stroke="#0044a0" stroke-dasharray="5,2" points="1868.19,-942.345 1868.19,-885.142 "/>
<polyline fill="none" stroke="#0044a0" stroke-dasharray="5,2" points="1868.19,-942.345 1872.19,-946.345 "/>
<text text-anchor="middle" x="1815" y="-919.944" font-family="Times,serif" font-size="14.00" fill="#0044a0">Up&#45;to&#45;date task</text>
<text text-anchor="middle" x="1815" y="-903.144" font-family="Times,serif" font-size="14.00" fill="#0044a0">forced to rerun</text>
</g>
<!-- k2_1&#45;&gt;k3_1 -->
<g id="edge75" class="edge"><title>k2_1&#45;&gt;k3_1</title>
<path fill="none" stroke="#0044a0" d="M1815,-986.602C1815,-977.639 1815,-966.954 1815,-956.67"/>
<polygon fill="#0044a0" stroke="#0044a0" points="1818.5,-956.598 1815,-946.598 1811.5,-956.598 1818.5,-956.598"/>
</g>
<!-- k4_1 -->
<g id="node53" class="node"><title>k4_1</title>
<polygon fill="#efa03b" stroke="black" points="1861.15,-828.81 1772.85,-828.81 1768.85,-824.81 1768.85,-784.209 1857.15,-784.209 1861.15,-788.209 1861.15,-828.81"/>
<polyline fill="none" stroke="black" points="1857.15,-824.81 1768.85,-824.81 "/>
<polyline fill="none" stroke="black" points="1857.15,-824.81 1857.15,-784.209 "/>
<polyline fill="none" stroke="black" points="1857.15,-824.81 1861.15,-828.81 "/>
<text text-anchor="middle" x="1815" y="-802.309" font-family="Times,serif" font-size="14.00">Final target</text>
</g>
<!-- k3_1&#45;&gt;k4_1 -->
<g id="edge76" class="edge"><title>k3_1&#45;&gt;k4_1</title>
<path fill="none" stroke="#0044a0" d="M1815,-884.873C1815,-870.611 1815,-853.539 1815,-839.065"/>
<polygon fill="#0044a0" stroke="#0044a0" points="1818.5,-839.063 1815,-829.063 1811.5,-839.063 1818.5,-839.063"/>
</g>
</g>
</svg>
