<?xml version="1.0" encoding="UTF-8" standalone="no"?>
<!DOCTYPE svg PUBLIC "-//W3C//DTD SVG 1.1//EN"
 "http://www.w3.org/Graphics/SVG/1.1/DTD/svg11.dtd">
<!-- Generated by graphviz version 2.38.0 (20140413.2041)
 -->
<!-- Title: Pipeline: Pages: 1 -->
<svg width="2690pt" height="1099pt"
 viewBox="0.00 0.00 2690.00 1099.08" xmlns="http://www.w3.org/2000/svg" xmlns:xlink="http://www.w3.org/1999/xlink">
<g id="graph0" class="graph" transform="scale(1 1) rotate(0) translate(4 1095.08)">
<title>Pipeline:</title>
<polygon fill="white" stroke="none" points="-4,4 -4,-1095.08 2686,-1095.08 2686,4 -4,4"/>
<g id="clust1" class="cluster"><title>clustertasks</title>
<polygon fill="none" stroke="black" points="8,-8 8,-1083.08 2536,-1083.08 2536,-8 8,-8"/>
<text text-anchor="middle" x="1272" y="-1052.08" font-family="Times,serif" font-size="30.00" fill="#ff3232">Pipeline:</text>
</g>
<g id="clust2" class="cluster"><title>clusterkey1</title>
<polygon fill="#f6f4f4" stroke="#f6f4f4" points="2544,-785.525 2544,-1065.48 2674,-1065.48 2674,-785.525 2544,-785.525"/>
<text text-anchor="middle" x="2609" y="-1043.48" font-family="Times,serif" font-size="20.00">Key:</text>
</g>
<!-- t70 -->
<g id="node1" class="node"><title>t70</title>
<polygon fill="#ebf3ff" stroke="#0044a0" points="1791.53,-750.277 1548.47,-750.277 1544.47,-746.277 1544.47,-694.277 1787.53,-694.277 1791.53,-698.277 1791.53,-750.277"/>
<polyline fill="none" stroke="#0044a0" points="1787.53,-746.277 1544.47,-746.277 "/>
<polyline fill="none" stroke="#0044a0" points="1787.53,-746.277 1787.53,-694.277 "/>
<polyline fill="none" stroke="#0044a0" points="1787.53,-746.277 1791.53,-750.277 "/>
<text text-anchor="middle" x="1668" y="-728.277" font-family="Times,serif" font-size="20.00" fill="#0044a0">mkdir(&#39;bwa.dir&#39;) </text>
<text text-anchor="middle" x="1668" y="-704.277" font-family="Times,serif" font-size="20.00" fill="#0044a0">before mapReadsWithBWA </text>
</g>
<!-- t23 -->
<g id="node2" class="node"><title>t23</title>
<polygon fill="none" stroke="#0044a0" stroke-dasharray="5,2" points="1601.96,-630.898 1420.04,-630.898 1416.04,-626.898 1416.04,-594.898 1597.96,-594.898 1601.96,-598.898 1601.96,-630.898"/>
<polyline fill="none" stroke="#0044a0" stroke-dasharray="5,2" points="1597.96,-626.898 1416.04,-626.898 "/>
<polyline fill="none" stroke="#0044a0" stroke-dasharray="5,2" points="1597.96,-626.898 1597.96,-594.898 "/>
<polyline fill="none" stroke="#0044a0" stroke-dasharray="5,2" points="1597.96,-626.898 1601.96,-630.898 "/>
<text text-anchor="middle" x="1509" y="-606.898" font-family="Times,serif" font-size="20.00" fill="#0044a0">mapReadsWithBWA</text>
</g>
<!-- t70&#45;&gt;t23 -->
<g id="edge1" class="edge"><title>t70&#45;&gt;t23</title>
<path fill="none" stroke="#0044a0" d="M1627.88,-694.181C1601.54,-676.396 1567.5,-653.404 1542.59,-636.585"/>
<polygon fill="#0044a0" stroke="#0044a0" points="1544.44,-633.609 1534.19,-630.913 1540.52,-639.41 1544.44,-633.609"/>
</g>
<!-- t27 -->
<g id="node15" class="node"><title>t27</title>
<polygon fill="#ebf3ff" stroke="#0044a0" points="1110.99,-521.521 1029.01,-521.521 1025.01,-517.521 1025.01,-485.521 1106.99,-485.521 1110.99,-489.521 1110.99,-521.521"/>
<polyline fill="none" stroke="#0044a0" points="1106.99,-517.521 1025.01,-517.521 "/>
<polyline fill="none" stroke="#0044a0" points="1106.99,-517.521 1106.99,-485.521 "/>
<polyline fill="none" stroke="#0044a0" points="1106.99,-517.521 1110.99,-521.521 "/>
<text text-anchor="middle" x="1068" y="-497.521" font-family="Times,serif" font-size="20.00" fill="#0044a0">mapping</text>
</g>
<!-- t23&#45;&gt;t27 -->
<g id="edge13" class="edge"><title>t23&#45;&gt;t27</title>
<path fill="none" stroke="#0044a0" d="M1475.92,-594.853C1456.39,-585.61 1430.89,-574.928 1407,-569.167 1282.63,-539.179 1238.72,-594.82 1120,-547.167 1109.49,-542.948 1099.48,-535.804 1091.1,-528.557"/>
<polygon fill="#0044a0" stroke="#0044a0" points="1093.33,-525.856 1083.6,-521.669 1088.6,-531.011 1093.33,-525.856"/>
</g>
<!-- t29 -->
<g id="node20" class="node"><title>t29</title>
<polygon fill="none" stroke="#0044a0" stroke-dasharray="5,2" points="1892.6,-521.521 1749.4,-521.521 1745.4,-517.521 1745.4,-485.521 1888.6,-485.521 1892.6,-489.521 1892.6,-521.521"/>
<polyline fill="none" stroke="#0044a0" stroke-dasharray="5,2" points="1888.6,-517.521 1745.4,-517.521 "/>
<polyline fill="none" stroke="#0044a0" stroke-dasharray="5,2" points="1888.6,-517.521 1888.6,-485.521 "/>
<polyline fill="none" stroke="#0044a0" stroke-dasharray="5,2" points="1888.6,-517.521 1892.6,-521.521 "/>
<text text-anchor="middle" x="1819" y="-497.521" font-family="Times,serif" font-size="20.00" fill="#0044a0">buildPicardStats</text>
</g>
<!-- t23&#45;&gt;t29 -->
<g id="edge21" class="edge"><title>t23&#45;&gt;t29</title>
<path fill="none" stroke="#0044a0" d="M1583.42,-594.838C1628.6,-583.487 1687,-567.028 1737,-547.167 1751.66,-541.343 1767.16,-533.703 1780.68,-526.501"/>
<polygon fill="#0044a0" stroke="#0044a0" points="1782.57,-529.456 1789.69,-521.612 1779.24,-523.303 1782.57,-529.456"/>
</g>
<!-- t33 -->
<g id="node22" class="node"><title>t33</title>
<polygon fill="none" stroke="#0044a0" stroke-dasharray="5,2" points="2301.56,-521.521 2164.44,-521.521 2160.44,-517.521 2160.44,-485.521 2297.56,-485.521 2301.56,-489.521 2301.56,-521.521"/>
<polyline fill="none" stroke="#0044a0" stroke-dasharray="5,2" points="2297.56,-517.521 2160.44,-517.521 "/>
<polyline fill="none" stroke="#0044a0" stroke-dasharray="5,2" points="2297.56,-517.521 2297.56,-485.521 "/>
<polyline fill="none" stroke="#0044a0" stroke-dasharray="5,2" points="2297.56,-517.521 2301.56,-521.521 "/>
<text text-anchor="middle" x="2231" y="-497.521" font-family="Times,serif" font-size="20.00" fill="#0044a0">buildBAMStats</text>
</g>
<!-- t23&#45;&gt;t33 -->
<g id="edge27" class="edge"><title>t23&#45;&gt;t33</title>
<path fill="none" stroke="#0044a0" d="M1602.04,-600.866C1679.77,-591.813 1793.53,-578.941 1893,-569.167 2007.53,-557.913 2040.64,-579.789 2151,-547.167 2166.7,-542.527 2182.84,-534.619 2196.48,-526.864"/>
<polygon fill="#0044a0" stroke="#0044a0" points="2198.65,-529.651 2205.49,-521.561 2195.1,-523.619 2198.65,-529.651"/>
</g>
<!-- t45 -->
<g id="node26" class="node"><title>t45</title>
<polygon fill="none" stroke="#0044a0" stroke-dasharray="5,2" points="1290.52,-521.521 1133.48,-521.521 1129.48,-517.521 1129.48,-485.521 1286.52,-485.521 1290.52,-489.521 1290.52,-521.521"/>
<polyline fill="none" stroke="#0044a0" stroke-dasharray="5,2" points="1286.52,-517.521 1129.48,-517.521 "/>
<polyline fill="none" stroke="#0044a0" stroke-dasharray="5,2" points="1286.52,-517.521 1286.52,-485.521 "/>
<polyline fill="none" stroke="#0044a0" stroke-dasharray="5,2" points="1286.52,-517.521 1290.52,-521.521 "/>
<text text-anchor="middle" x="1210" y="-497.521" font-family="Times,serif" font-size="20.00" fill="#0044a0">buildGeneProfiles</text>
</g>
<!-- t23&#45;&gt;t45 -->
<g id="edge34" class="edge"><title>t23&#45;&gt;t45</title>
<path fill="none" stroke="#0044a0" d="M1472.81,-594.716C1453.59,-586.112 1429.38,-576.083 1407,-569.167 1360.61,-554.831 1346.05,-562.561 1300,-547.167 1283.3,-541.583 1265.64,-533.691 1250.43,-526.212"/>
<polygon fill="#0044a0" stroke="#0044a0" points="1251.81,-522.99 1241.3,-521.633 1248.67,-529.246 1251.81,-522.99"/>
</g>
<!-- t35 -->
<g id="node27" class="node"><title>t35</title>
<polygon fill="none" stroke="#0044a0" stroke-dasharray="5,2" points="1727.84,-521.521 1572.16,-521.521 1568.16,-517.521 1568.16,-485.521 1723.84,-485.521 1727.84,-489.521 1727.84,-521.521"/>
<polyline fill="none" stroke="#0044a0" stroke-dasharray="5,2" points="1723.84,-517.521 1568.16,-517.521 "/>
<polyline fill="none" stroke="#0044a0" stroke-dasharray="5,2" points="1723.84,-517.521 1723.84,-485.521 "/>
<polyline fill="none" stroke="#0044a0" stroke-dasharray="5,2" points="1723.84,-517.521 1727.84,-521.521 "/>
<text text-anchor="middle" x="1648" y="-497.521" font-family="Times,serif" font-size="20.00" fill="#0044a0">buildContextStats</text>
</g>
<!-- t23&#45;&gt;t35 -->
<g id="edge39" class="edge"><title>t23&#45;&gt;t35</title>
<path fill="none" stroke="#0044a0" d="M1531.02,-594.884C1554.37,-576.848 1591.41,-548.235 1617.55,-528.046"/>
<polygon fill="#0044a0" stroke="#0044a0" points="1619.84,-530.695 1625.62,-521.811 1615.56,-525.155 1619.84,-530.695"/>
</g>
<!-- t37 -->
<g id="node30" class="node"><title>t37</title>
<polygon fill="none" stroke="#0044a0" stroke-dasharray="5,2" points="219.76,-521.521 40.2398,-521.521 36.2398,-517.521 36.2398,-485.521 215.76,-485.521 219.76,-489.521 219.76,-521.521"/>
<polyline fill="none" stroke="#0044a0" stroke-dasharray="5,2" points="215.76,-517.521 36.2398,-517.521 "/>
<polyline fill="none" stroke="#0044a0" stroke-dasharray="5,2" points="215.76,-517.521 215.76,-485.521 "/>
<polyline fill="none" stroke="#0044a0" stroke-dasharray="5,2" points="215.76,-517.521 219.76,-521.521 "/>
<text text-anchor="middle" x="128" y="-497.521" font-family="Times,serif" font-size="20.00" fill="#0044a0">buildExonValidation</text>
</g>
<!-- t23&#45;&gt;t37 -->
<g id="edge50" class="edge"><title>t23&#45;&gt;t37</title>
<path fill="none" stroke="#0044a0" d="M1476.94,-594.774C1457.34,-585.253 1431.42,-574.314 1407,-569.167 1150.8,-515.177 485.12,-601.516 229,-547.167 208.388,-542.793 186.716,-534.227 168.755,-525.913"/>
<polygon fill="#0044a0" stroke="#0044a0" points="170.259,-522.753 159.726,-521.612 167.248,-529.072 170.259,-522.753"/>
</g>
<!-- t39 -->
<g id="node33" class="node"><title>t39</title>
<polygon fill="none" stroke="#0044a0" stroke-dasharray="5,2" points="1007.1,-521.521 728.9,-521.521 724.9,-517.521 724.9,-485.521 1003.1,-485.521 1007.1,-489.521 1007.1,-521.521"/>
<polyline fill="none" stroke="#0044a0" stroke-dasharray="5,2" points="1003.1,-517.521 724.9,-517.521 "/>
<polyline fill="none" stroke="#0044a0" stroke-dasharray="5,2" points="1003.1,-517.521 1003.1,-485.521 "/>
<polyline fill="none" stroke="#0044a0" stroke-dasharray="5,2" points="1003.1,-517.521 1007.1,-521.521 "/>
<text text-anchor="middle" x="866" y="-497.521" font-family="Times,serif" font-size="20.00" fill="#0044a0">buildTranscriptLevelReadCounts</text>
</g>
<!-- t23&#45;&gt;t39 -->
<g id="edge57" class="edge"><title>t23&#45;&gt;t39</title>
<path fill="none" stroke="#0044a0" d="M1476.42,-594.889C1456.85,-585.535 1431.13,-574.728 1407,-569.167 1237.39,-530.086 1187.64,-576.03 1016,-547.167 985.563,-542.049 952.489,-533.032 925.162,-524.604"/>
<polygon fill="#0044a0" stroke="#0044a0" points="925.958,-521.186 915.369,-521.534 923.864,-527.865 925.958,-521.186"/>
</g>
<!-- t41 -->
<g id="node37" class="node"><title>t41</title>
<polygon fill="none" stroke="#0044a0" stroke-dasharray="5,2" points="706.79,-521.521 461.21,-521.521 457.21,-517.521 457.21,-485.521 702.79,-485.521 706.79,-489.521 706.79,-521.521"/>
<polyline fill="none" stroke="#0044a0" stroke-dasharray="5,2" points="702.79,-517.521 457.21,-517.521 "/>
<polyline fill="none" stroke="#0044a0" stroke-dasharray="5,2" points="702.79,-517.521 702.79,-485.521 "/>
<polyline fill="none" stroke="#0044a0" stroke-dasharray="5,2" points="702.79,-517.521 706.79,-521.521 "/>
<text text-anchor="middle" x="582" y="-497.521" font-family="Times,serif" font-size="20.00" fill="#0044a0">buildIntronLevelReadCounts</text>
</g>
<!-- t23&#45;&gt;t41 -->
<g id="edge65" class="edge"><title>t23&#45;&gt;t41</title>
<path fill="none" stroke="#0044a0" d="M1476.92,-594.89C1457.31,-585.411 1431.39,-574.474 1407,-569.167 1256.88,-536.499 867.419,-573.155 716,-547.167 688.492,-542.446 658.828,-533.436 634.421,-524.91"/>
<polygon fill="#0044a0" stroke="#0044a0" points="635.591,-521.612 624.997,-521.552 633.242,-528.206 635.591,-521.612"/>
</g>
<!-- t44 -->
<g id="node39" class="node"><title>t44</title>
<polygon fill="none" stroke="#0044a0" stroke-dasharray="5,2" points="439.507,-521.521 242.493,-521.521 238.493,-517.521 238.493,-485.521 435.507,-485.521 439.507,-489.521 439.507,-521.521"/>
<polyline fill="none" stroke="#0044a0" stroke-dasharray="5,2" points="435.507,-517.521 238.493,-517.521 "/>
<polyline fill="none" stroke="#0044a0" stroke-dasharray="5,2" points="435.507,-517.521 435.507,-485.521 "/>
<polyline fill="none" stroke="#0044a0" stroke-dasharray="5,2" points="435.507,-517.521 439.507,-521.521 "/>
<text text-anchor="middle" x="339" y="-497.521" font-family="Times,serif" font-size="20.00" fill="#0044a0">buildTranscriptProfiles</text>
</g>
<!-- t23&#45;&gt;t44 -->
<g id="edge71" class="edge"><title>t23&#45;&gt;t44</title>
<path fill="none" stroke="#0044a0" d="M1476.94,-594.811C1457.33,-585.304 1431.41,-574.366 1407,-569.167 1198.51,-524.766 657.005,-589.086 448,-547.167 425.742,-542.703 402.152,-534.013 382.632,-525.636"/>
<polygon fill="#0044a0" stroke="#0044a0" points="383.962,-522.398 373.4,-521.569 381.14,-528.804 383.962,-522.398"/>
</g>
<!-- t46 -->
<g id="node42" class="node"><title>t46</title>
<polygon fill="none" stroke="#0044a0" stroke-dasharray="5,2" points="2141.5,-521.521 1914.5,-521.521 1910.5,-517.521 1910.5,-485.521 2137.5,-485.521 2141.5,-489.521 2141.5,-521.521"/>
<polyline fill="none" stroke="#0044a0" stroke-dasharray="5,2" points="2137.5,-517.521 1910.5,-517.521 "/>
<polyline fill="none" stroke="#0044a0" stroke-dasharray="5,2" points="2137.5,-517.521 2137.5,-485.521 "/>
<polyline fill="none" stroke="#0044a0" stroke-dasharray="5,2" points="2137.5,-517.521 2141.5,-521.521 "/>
<text text-anchor="middle" x="2026" y="-497.521" font-family="Times,serif" font-size="20.00" fill="#0044a0">buildPicardRnaSeqMetrics</text>
</g>
<!-- t23&#45;&gt;t46 -->
<g id="edge77" class="edge"><title>t23&#45;&gt;t46</title>
<path fill="none" stroke="#0044a0" d="M1602.01,-601.059C1682.22,-590.65 1800.76,-572.721 1902,-547.167 1925.54,-541.224 1951,-532.83 1972.68,-525.059"/>
<polygon fill="#0044a0" stroke="#0044a0" points="1974.15,-528.248 1982.35,-521.544 1971.76,-521.669 1974.15,-528.248"/>
</g>
<!-- t31 -->
<g id="node48" class="node"><title>t31</title>
<polygon fill="none" stroke="#0044a0" stroke-dasharray="5,2" points="1550.52,-521.521 1313.48,-521.521 1309.48,-517.521 1309.48,-485.521 1546.52,-485.521 1550.52,-489.521 1550.52,-521.521"/>
<polyline fill="none" stroke="#0044a0" stroke-dasharray="5,2" points="1546.52,-517.521 1309.48,-517.521 "/>
<polyline fill="none" stroke="#0044a0" stroke-dasharray="5,2" points="1546.52,-517.521 1546.52,-485.521 "/>
<polyline fill="none" stroke="#0044a0" stroke-dasharray="5,2" points="1546.52,-517.521 1550.52,-521.521 "/>
<text text-anchor="middle" x="1430" y="-497.521" font-family="Times,serif" font-size="20.00" fill="#0044a0">buildPicardDuplicationStats</text>
</g>
<!-- t23&#45;&gt;t31 -->
<g id="edge95" class="edge"><title>t23&#45;&gt;t31</title>
<path fill="none" stroke="#0044a0" d="M1496.31,-594.646C1483.41,-577.113 1463.29,-549.764 1448.59,-529.789"/>
<polygon fill="#0044a0" stroke="#0044a0" points="1451.41,-527.711 1442.66,-521.73 1445.77,-531.859 1451.41,-527.711"/>
</g>
<!-- t68 -->
<g id="node3" class="node"><title>t68</title>
<polygon fill="#ebf3ff" stroke="#0044a0" points="1301.53,-750.277 1038.47,-750.277 1034.47,-746.277 1034.47,-694.277 1297.53,-694.277 1301.53,-698.277 1301.53,-750.277"/>
<polyline fill="none" stroke="#0044a0" points="1297.53,-746.277 1034.47,-746.277 "/>
<polyline fill="none" stroke="#0044a0" points="1297.53,-746.277 1297.53,-694.277 "/>
<polyline fill="none" stroke="#0044a0" points="1297.53,-746.277 1301.53,-750.277 "/>
<text text-anchor="middle" x="1168" y="-728.277" font-family="Times,serif" font-size="20.00" fill="#0044a0">mkdir(&#39;tophat2.dir&#39;) </text>
<text text-anchor="middle" x="1168" y="-704.277" font-family="Times,serif" font-size="20.00" fill="#0044a0">before mapReadsWithTophat2 </text>
</g>
<!-- t12 -->
<g id="node10" class="node"><title>t12</title>
<polygon fill="none" stroke="#0044a0" stroke-dasharray="5,2" points="1239.96,-630.898 1038.04,-630.898 1034.04,-626.898 1034.04,-594.898 1235.96,-594.898 1239.96,-598.898 1239.96,-630.898"/>
<polyline fill="none" stroke="#0044a0" stroke-dasharray="5,2" points="1235.96,-626.898 1034.04,-626.898 "/>
<polyline fill="none" stroke="#0044a0" stroke-dasharray="5,2" points="1235.96,-626.898 1235.96,-594.898 "/>
<polyline fill="none" stroke="#0044a0" stroke-dasharray="5,2" points="1235.96,-626.898 1239.96,-630.898 "/>
<text text-anchor="middle" x="1137" y="-606.898" font-family="Times,serif" font-size="20.00" fill="#0044a0">mapReadsWithTophat2</text>
</g>
<!-- t68&#45;&gt;t12 -->
<g id="edge7" class="edge"><title>t68&#45;&gt;t12</title>
<path fill="none" stroke="#0044a0" d="M1160.18,-694.181C1155.47,-677.872 1149.5,-657.183 1144.79,-640.893"/>
<polygon fill="#0044a0" stroke="#0044a0" points="1148.05,-639.549 1141.91,-630.913 1141.32,-641.491 1148.05,-639.549"/>
</g>
<!-- t81 -->
<g id="node4" class="node"><title>t81</title>
<polygon fill="#ebf3ff" stroke="#0044a0" points="1009.48,-1031.08 746.52,-1031.08 742.52,-1027.08 742.52,-975.077 1005.48,-975.077 1009.48,-979.077 1009.48,-1031.08"/>
<polyline fill="none" stroke="#0044a0" points="1005.48,-1027.08 742.52,-1027.08 "/>
<polyline fill="none" stroke="#0044a0" points="1005.48,-1027.08 1005.48,-975.077 "/>
<polyline fill="none" stroke="#0044a0" points="1005.48,-1027.08 1009.48,-1031.08 "/>
<text text-anchor="middle" x="876" y="-1009.08" font-family="Times,serif" font-size="20.00" fill="#0044a0">mkdir(&#39;geneset.dir&#39;) </text>
<text text-anchor="middle" x="876" y="-985.077" font-family="Times,serif" font-size="20.00" fill="#0044a0">before buildReferenceGeneSet </text>
</g>
<!-- t0 -->
<g id="node5" class="node"><title>t0</title>
<polygon fill="#ebf3ff" stroke="#0044a0" points="736.619,-897.274 876,-869.932 1015.38,-897.274 1015.25,-941.513 736.749,-941.513 736.619,-897.274"/>
<polygon fill="none" stroke="#0044a0" points="732.604,-893.978 876,-865.849 1019.4,-893.978 1019.24,-945.52 732.756,-945.52 732.604,-893.978"/>
<text text-anchor="middle" x="876" y="-903.501" font-family="Times,serif" font-size="20.00" fill="#0044a0">buildReferenceGeneSet</text>
</g>
<!-- t81&#45;&gt;t0 -->
<g id="edge2" class="edge"><title>t81&#45;&gt;t0</title>
<path fill="none" stroke="#0044a0" d="M876,-974.601C876,-968.655 876,-962.215 876,-955.788"/>
<polygon fill="#0044a0" stroke="#0044a0" points="879.5,-955.772 876,-945.772 872.5,-955.772 879.5,-955.772"/>
</g>
<!-- t3 -->
<g id="node7" class="node"><title>t3</title>
<polygon fill="#ebf3ff" stroke="#0044a0" points="790.76,-833.925 611.24,-833.925 607.24,-829.925 607.24,-797.925 786.76,-797.925 790.76,-801.925 790.76,-833.925"/>
<polyline fill="none" stroke="#0044a0" points="786.76,-829.925 607.24,-829.925 "/>
<polyline fill="none" stroke="#0044a0" points="786.76,-829.925 786.76,-797.925 "/>
<polyline fill="none" stroke="#0044a0" points="786.76,-829.925 790.76,-833.925 "/>
<text text-anchor="middle" x="699" y="-809.925" font-family="Times,serif" font-size="20.00" fill="#0044a0">buildCodingGeneSet</text>
</g>
<!-- t0&#45;&gt;t3 -->
<g id="edge4" class="edge"><title>t0&#45;&gt;t3</title>
<path fill="none" stroke="#0044a0" d="M816.076,-877.498C791.395,-864.728 763.392,-850.24 740.963,-838.636"/>
<polygon fill="#0044a0" stroke="#0044a0" points="742.523,-835.502 732.033,-834.016 739.306,-841.719 742.523,-835.502"/>
</g>
<!-- t1 -->
<g id="node6" class="node"><title>t1</title>
<polygon fill="#ebf3ff" stroke="#0044a0" points="714.348,-927.501 473.652,-927.501 469.652,-923.501 469.652,-891.501 710.348,-891.501 714.348,-895.501 714.348,-927.501"/>
<polyline fill="none" stroke="#0044a0" points="710.348,-923.501 469.652,-923.501 "/>
<polyline fill="none" stroke="#0044a0" points="710.348,-923.501 710.348,-891.501 "/>
<polyline fill="none" stroke="#0044a0" points="710.348,-923.501 714.348,-927.501 "/>
<text text-anchor="middle" x="592" y="-903.501" font-family="Times,serif" font-size="20.00" fill="#0044a0">identifyProteinCodingGenes</text>
</g>
<!-- t1&#45;&gt;t3 -->
<g id="edge3" class="edge"><title>t1&#45;&gt;t3</title>
<path fill="none" stroke="#0044a0" d="M611.875,-891.491C628.586,-877.189 652.657,-856.588 671.265,-840.662"/>
<polygon fill="#0044a0" stroke="#0044a0" points="673.547,-843.316 678.868,-834.155 668.995,-837.998 673.547,-843.316"/>
</g>
<!-- t4 -->
<g id="node36" class="node"><title>t4</title>
<polygon fill="#ebf3ff" stroke="#0044a0" points="589.176,-833.925 384.824,-833.925 380.824,-829.925 380.824,-797.925 585.176,-797.925 589.176,-801.925 589.176,-833.925"/>
<polyline fill="none" stroke="#0044a0" points="585.176,-829.925 380.824,-829.925 "/>
<polyline fill="none" stroke="#0044a0" points="585.176,-829.925 585.176,-797.925 "/>
<polyline fill="none" stroke="#0044a0" points="585.176,-829.925 589.176,-833.925 "/>
<text text-anchor="middle" x="485" y="-809.925" font-family="Times,serif" font-size="20.00" fill="#0044a0">buildIntronGeneModels</text>
</g>
<!-- t1&#45;&gt;t4 -->
<g id="edge64" class="edge"><title>t1&#45;&gt;t4</title>
<path fill="none" stroke="#0044a0" d="M572.125,-891.491C555.414,-877.189 531.343,-856.588 512.735,-840.662"/>
<polygon fill="#0044a0" stroke="#0044a0" points="515.005,-837.998 505.132,-834.155 510.453,-843.316 515.005,-837.998"/>
</g>
<!-- t8 -->
<g id="node8" class="node"><title>t8</title>
<polygon fill="#ebf3ff" stroke="#0044a0" points="996.166,-740.277 867.834,-740.277 863.834,-736.277 863.834,-704.277 992.166,-704.277 996.166,-708.277 996.166,-740.277"/>
<polyline fill="none" stroke="#0044a0" points="992.166,-736.277 863.834,-736.277 "/>
<polyline fill="none" stroke="#0044a0" points="992.166,-736.277 992.166,-704.277 "/>
<polyline fill="none" stroke="#0044a0" points="992.166,-736.277 996.166,-740.277 "/>
<text text-anchor="middle" x="930" y="-716.277" font-family="Times,serif" font-size="20.00" fill="#0044a0">buildJunctions</text>
</g>
<!-- t3&#45;&gt;t8 -->
<g id="edge5" class="edge"><title>t3&#45;&gt;t8</title>
<path fill="none" stroke="#0044a0" d="M749.082,-797.906C774.92,-788.867 806.843,-777.298 835,-765.925 851.242,-759.365 868.798,-751.661 884.346,-744.619"/>
<polygon fill="#0044a0" stroke="#0044a0" points="886.092,-747.67 893.738,-740.336 883.187,-741.301 886.092,-747.67"/>
</g>
<!-- t7 -->
<g id="node9" class="node"><title>t7</title>
<polygon fill="#ebf3ff" stroke="#0044a0" points="826.28,-740.277 575.72,-740.277 571.72,-736.277 571.72,-704.277 822.28,-704.277 826.28,-708.277 826.28,-740.277"/>
<polyline fill="none" stroke="#0044a0" points="822.28,-736.277 571.72,-736.277 "/>
<polyline fill="none" stroke="#0044a0" points="822.28,-736.277 822.28,-704.277 "/>
<polyline fill="none" stroke="#0044a0" points="822.28,-736.277 826.28,-740.277 "/>
<text text-anchor="middle" x="699" y="-716.277" font-family="Times,serif" font-size="20.00" fill="#0044a0">buildReferenceTranscriptome</text>
</g>
<!-- t3&#45;&gt;t7 -->
<g id="edge6" class="edge"><title>t3&#45;&gt;t7</title>
<path fill="none" stroke="#0044a0" d="M699,-797.687C699,-784.502 699,-766.06 699,-750.835"/>
<polygon fill="#0044a0" stroke="#0044a0" points="702.5,-750.438 699,-740.438 695.5,-750.438 702.5,-750.438"/>
</g>
<!-- t5 -->
<g id="node32" class="node"><title>t5</title>
<polygon fill="#ebf3ff" stroke="#0044a0" points="204.156,-630.898 19.8439,-630.898 15.8439,-626.898 15.8439,-594.898 200.156,-594.898 204.156,-598.898 204.156,-630.898"/>
<polyline fill="none" stroke="#0044a0" points="200.156,-626.898 15.8439,-626.898 "/>
<polyline fill="none" stroke="#0044a0" points="200.156,-626.898 200.156,-594.898 "/>
<polyline fill="none" stroke="#0044a0" points="200.156,-626.898 204.156,-630.898 "/>
<text text-anchor="middle" x="110" y="-606.898" font-family="Times,serif" font-size="20.00" fill="#0044a0">loadGeneInformation</text>
</g>
<!-- t3&#45;&gt;t5 -->
<g id="edge56" class="edge"><title>t3&#45;&gt;t5</title>
<path fill="none" stroke="#0044a0" d="M648.929,-797.865C632.848,-793.059 614.837,-788.37 598,-785.525 556.313,-778.481 255.055,-786.281 218,-765.925 167.681,-738.283 135.253,-675.991 120.073,-640.315"/>
<polygon fill="#0044a0" stroke="#0044a0" points="123.288,-638.928 116.249,-631.009 116.813,-641.589 123.288,-638.928"/>
</g>
<!-- t3&#45;&gt;t39 -->
<g id="edge61" class="edge"><title>t3&#45;&gt;t39</title>
<path fill="none" stroke="#0044a0" d="M642.125,-797.806C607.109,-786.695 567.978,-773.009 563,-765.925 540.695,-734.18 543.566,-712.209 563,-678.629 611.351,-595.081 716.642,-548.132 789.418,-524.56"/>
<polygon fill="#0044a0" stroke="#0044a0" points="790.537,-527.877 799.016,-521.525 788.426,-521.203 790.537,-527.877"/>
</g>
<!-- t8&#45;&gt;t12 -->
<g id="edge8" class="edge"><title>t8&#45;&gt;t12</title>
<path fill="none" stroke="#0044a0" d="M962.8,-704.263C998.578,-685.703 1055.95,-655.944 1094.99,-635.688"/>
<polygon fill="#0044a0" stroke="#0044a0" points="1096.75,-638.722 1104.01,-631.01 1093.52,-632.508 1096.75,-638.722"/>
</g>
<!-- t7&#45;&gt;t12 -->
<g id="edge9" class="edge"><title>t7&#45;&gt;t12</title>
<path fill="none" stroke="#0044a0" d="M759.224,-704.19C788.12,-696.151 823.277,-686.603 855,-678.629 919.684,-662.371 993.131,-645.564 1048.85,-633.152"/>
<polygon fill="#0044a0" stroke="#0044a0" points="1049.69,-636.551 1058.69,-630.965 1048.17,-629.718 1049.69,-636.551"/>
</g>
<!-- t12&#45;&gt;t27 -->
<g id="edge16" class="edge"><title>t12&#45;&gt;t27</title>
<path fill="none" stroke="#0044a0" d="M1125.91,-594.646C1114.75,-577.27 1097.39,-550.252 1084.58,-530.326"/>
<polygon fill="#0044a0" stroke="#0044a0" points="1087.41,-528.251 1079.06,-521.73 1081.52,-532.035 1087.41,-528.251"/>
</g>
<!-- t12&#45;&gt;t29 -->
<g id="edge24" class="edge"><title>t12&#45;&gt;t29</title>
<path fill="none" stroke="#0044a0" d="M1172.94,-594.813C1194.48,-585.434 1222.71,-574.626 1249,-569.167 1461.57,-525.02 1527.32,-603.467 1737,-547.167 1753.4,-542.764 1770.25,-534.714 1784.38,-526.785"/>
<polygon fill="#0044a0" stroke="#0044a0" points="1786.36,-529.685 1793.24,-521.631 1782.84,-523.634 1786.36,-529.685"/>
</g>
<!-- t12&#45;&gt;t33 -->
<g id="edge30" class="edge"><title>t12&#45;&gt;t33</title>
<path fill="none" stroke="#0044a0" d="M1172.4,-594.832C1193.99,-585.332 1222.45,-574.394 1249,-569.167 1445.73,-530.427 1957.08,-598.145 2151,-547.167 2167.23,-542.9 2183.82,-534.787 2197.66,-526.774"/>
<polygon fill="#0044a0" stroke="#0044a0" points="2199.55,-529.718 2206.32,-521.564 2195.95,-523.719 2199.55,-529.718"/>
</g>
<!-- t12&#45;&gt;t45 -->
<g id="edge37" class="edge"><title>t12&#45;&gt;t45</title>
<path fill="none" stroke="#0044a0" d="M1148.73,-594.646C1160.6,-577.191 1179.08,-550.008 1192.64,-530.057"/>
<polygon fill="#0044a0" stroke="#0044a0" points="1195.57,-531.968 1198.3,-521.73 1189.78,-528.032 1195.57,-531.968"/>
</g>
<!-- t12&#45;&gt;t35 -->
<g id="edge42" class="edge"><title>t12&#45;&gt;t35</title>
<path fill="none" stroke="#0044a0" d="M1173.49,-594.845C1194.99,-585.599 1222.99,-574.917 1249,-569.167 1384.3,-539.259 1426.12,-582.916 1560,-547.167 1577.39,-542.524 1595.46,-534.415 1610.68,-526.505"/>
<polygon fill="#0044a0" stroke="#0044a0" points="1612.59,-529.451 1619.75,-521.639 1609.28,-523.282 1612.59,-529.451"/>
</g>
<!-- t12&#45;&gt;t37 -->
<g id="edge53" class="edge"><title>t12&#45;&gt;t37</title>
<path fill="none" stroke="#0044a0" d="M1033.76,-605.446C804.01,-590.964 267.565,-556.414 229,-547.167 209.01,-542.374 187.911,-534.035 170.196,-525.995"/>
<polygon fill="#0044a0" stroke="#0044a0" points="171.274,-522.636 160.731,-521.583 168.317,-528.98 171.274,-522.636"/>
</g>
<!-- t12&#45;&gt;t39 -->
<g id="edge60" class="edge"><title>t12&#45;&gt;t39</title>
<path fill="none" stroke="#0044a0" d="M1094.06,-594.884C1046.53,-576.051 969.889,-545.685 918.744,-525.42"/>
<polygon fill="#0044a0" stroke="#0044a0" points="919.774,-522.063 909.188,-521.633 917.195,-528.571 919.774,-522.063"/>
</g>
<!-- t12&#45;&gt;t41 -->
<g id="edge68" class="edge"><title>t12&#45;&gt;t41</title>
<path fill="none" stroke="#0044a0" d="M1033.63,-600.557C947.873,-590.064 823.094,-572.281 716,-547.167 690.305,-541.141 662.415,-532.6 638.767,-524.742"/>
<polygon fill="#0044a0" stroke="#0044a0" points="639.845,-521.412 629.251,-521.541 637.613,-528.047 639.845,-521.412"/>
</g>
<!-- t12&#45;&gt;t44 -->
<g id="edge74" class="edge"><title>t12&#45;&gt;t44</title>
<path fill="none" stroke="#0044a0" d="M1033.99,-611.131C898.006,-608.105 651.973,-595.638 448,-547.167 426.521,-542.063 403.641,-533.61 384.418,-525.57"/>
<polygon fill="#0044a0" stroke="#0044a0" points="385.583,-522.262 375.012,-521.549 382.831,-528.698 385.583,-522.262"/>
</g>
<!-- t12&#45;&gt;t46 -->
<g id="edge80" class="edge"><title>t12&#45;&gt;t46</title>
<path fill="none" stroke="#0044a0" d="M1172.91,-594.703C1194.45,-585.285 1222.68,-574.476 1249,-569.167 1533.65,-511.738 1616.43,-599.858 1902,-547.167 1927.25,-542.507 1954.33,-533.673 1976.72,-525.249"/>
<polygon fill="#0044a0" stroke="#0044a0" points="1978.25,-528.409 1986.33,-521.551 1975.74,-521.876 1978.25,-528.409"/>
</g>
<!-- t12&#45;&gt;t31 -->
<g id="edge98" class="edge"><title>t12&#45;&gt;t31</title>
<path fill="none" stroke="#0044a0" d="M1181.07,-594.834C1201.67,-586.923 1226.55,-577.458 1249,-569.167 1289.91,-554.057 1336.23,-537.524 1371.77,-524.96"/>
<polygon fill="#0044a0" stroke="#0044a0" points="1373.24,-528.156 1381.5,-521.526 1370.9,-521.556 1373.24,-528.156"/>
</g>
<!-- t80 -->
<g id="node11" class="node"><title>t80</title>
<polygon fill="#ebf3ff" stroke="#0044a0" points="1742.99,-937.501 1495.01,-937.501 1491.01,-933.501 1491.01,-881.501 1738.99,-881.501 1742.99,-885.501 1742.99,-937.501"/>
<polyline fill="none" stroke="#0044a0" points="1738.99,-933.501 1491.01,-933.501 "/>
<polyline fill="none" stroke="#0044a0" points="1738.99,-933.501 1738.99,-881.501 "/>
<polyline fill="none" stroke="#0044a0" points="1738.99,-933.501 1742.99,-937.501 "/>
<text text-anchor="middle" x="1617" y="-915.501" font-family="Times,serif" font-size="20.00" fill="#0044a0">mkdir(&#39;star.dir&#39;) </text>
<text text-anchor="middle" x="1617" y="-891.501" font-family="Times,serif" font-size="20.00" fill="#0044a0">before mapReadsWithSTAR </text>
</g>
<!-- t17 -->
<g id="node12" class="node"><title>t17</title>
<polygon fill="none" stroke="#0044a0" stroke-dasharray="5,2" points="1712.41,-833.925 1525.59,-833.925 1521.59,-829.925 1521.59,-797.925 1708.41,-797.925 1712.41,-801.925 1712.41,-833.925"/>
<polyline fill="none" stroke="#0044a0" stroke-dasharray="5,2" points="1708.41,-829.925 1521.59,-829.925 "/>
<polyline fill="none" stroke="#0044a0" stroke-dasharray="5,2" points="1708.41,-829.925 1708.41,-797.925 "/>
<polyline fill="none" stroke="#0044a0" stroke-dasharray="5,2" points="1708.41,-829.925 1712.41,-833.925 "/>
<text text-anchor="middle" x="1617" y="-809.925" font-family="Times,serif" font-size="20.00" fill="#0044a0">mapReadsWithSTAR</text>
</g>
<!-- t80&#45;&gt;t17 -->
<g id="edge10" class="edge"><title>t80&#45;&gt;t17</title>
<path fill="none" stroke="#0044a0" d="M1617,-881.025C1617,-869.328 1617,-855.721 1617,-844.061"/>
<polygon fill="#0044a0" stroke="#0044a0" points="1620.5,-844.01 1617,-834.011 1613.5,-844.011 1620.5,-844.01"/>
</g>
<!-- t18 -->
<g id="node13" class="node"><title>t18</title>
<polygon fill="#ebf3ff" stroke="#0044a0" points="1323.6,-710.029 1423,-682.643 1522.4,-710.029 1522.31,-754.342 1323.69,-754.342 1323.6,-710.029"/>
<polygon fill="none" stroke="#0044a0" points="1319.59,-706.971 1423,-678.481 1526.41,-706.971 1526.3,-758.356 1319.7,-758.356 1319.59,-706.971"/>
<text text-anchor="middle" x="1423" y="-716.277" font-family="Times,serif" font-size="20.00" fill="#0044a0">buildSTARStats</text>
</g>
<!-- t17&#45;&gt;t18 -->
<g id="edge11" class="edge"><title>t17&#45;&gt;t18</title>
<path fill="none" stroke="#0044a0" d="M1580.96,-797.902C1559.99,-787.992 1532.62,-775.061 1506.56,-762.753"/>
<polygon fill="#0044a0" stroke="#0044a0" points="1507.95,-759.538 1497.41,-758.431 1504.96,-765.867 1507.95,-759.538"/>
</g>
<!-- t17&#45;&gt;t27 -->
<g id="edge15" class="edge"><title>t17&#45;&gt;t27</title>
<path fill="none" stroke="#0044a0" d="M1521.78,-813.954C1362.92,-811.334 1057.9,-801.656 1025,-765.925 995.385,-733.758 1012.35,-611.021 1025,-569.167 1029.29,-554.978 1037.83,-541.05 1046.17,-529.778"/>
<polygon fill="#0044a0" stroke="#0044a0" points="1049.07,-531.757 1052.44,-521.715 1043.54,-527.459 1049.07,-531.757"/>
</g>
<!-- t17&#45;&gt;t29 -->
<g id="edge23" class="edge"><title>t17&#45;&gt;t29</title>
<path fill="none" stroke="#0044a0" d="M1712.35,-807.138C1769.4,-800.278 1834.19,-787.834 1852,-765.925 1879.58,-731.998 1862.22,-611.679 1852,-569.167 1848.78,-555.767 1842.28,-542.016 1835.9,-530.661"/>
<polygon fill="#0044a0" stroke="#0044a0" points="1838.74,-528.581 1830.65,-521.747 1832.71,-532.138 1838.74,-528.581"/>
</g>
<!-- t17&#45;&gt;t33 -->
<g id="edge29" class="edge"><title>t17&#45;&gt;t33</title>
<path fill="none" stroke="#0044a0" d="M1712.43,-815.259C1831.98,-813.95 2028.4,-805.565 2088,-765.925 2172.39,-709.792 2211.37,-586.453 2225.02,-531.667"/>
<polygon fill="#0044a0" stroke="#0044a0" points="2228.49,-532.205 2227.41,-521.664 2221.68,-530.573 2228.49,-532.205"/>
</g>
<!-- t17&#45;&gt;t45 -->
<g id="edge36" class="edge"><title>t17&#45;&gt;t45</title>
<path fill="none" stroke="#0044a0" d="M1712.43,-800.422C1751.11,-792.415 1789.42,-780.996 1801,-765.925 1812.82,-750.544 1810.71,-695.425 1801,-678.629 1685.81,-479.319 1522.67,-605.583 1300,-547.167 1282.27,-542.516 1263.79,-534.405 1248.23,-526.497"/>
<polygon fill="#0044a0" stroke="#0044a0" points="1249.43,-523.174 1238.94,-521.632 1246.18,-529.374 1249.43,-523.174"/>
</g>
<!-- t17&#45;&gt;t35 -->
<g id="edge41" class="edge"><title>t17&#45;&gt;t35</title>
<path fill="none" stroke="#0044a0" d="M1712.43,-805.364C1763.94,-798.018 1820.17,-785.691 1836,-765.925 1863.33,-731.799 1863.4,-603.245 1836,-569.167 1807.49,-533.7 1778.99,-562.081 1736,-547.167 1719.66,-541.499 1702.39,-533.591 1687.52,-526.121"/>
<polygon fill="#0044a0" stroke="#0044a0" points="1689.1,-522.996 1678.6,-521.551 1685.91,-529.226 1689.1,-522.996"/>
</g>
<!-- t17&#45;&gt;t37 -->
<g id="edge52" class="edge"><title>t17&#45;&gt;t37</title>
<path fill="none" stroke="#0044a0" d="M1521.72,-811.456C1369.29,-805.916 1061.17,-794.754 800,-785.525 768.612,-784.416 258.044,-787.266 235,-765.925 170.441,-706.135 256.414,-645.705 213,-569.167 203.198,-551.887 186.709,-537.746 170.849,-527.145"/>
<polygon fill="#0044a0" stroke="#0044a0" points="172.467,-524.026 162.149,-521.622 168.715,-529.936 172.467,-524.026"/>
</g>
<!-- t17&#45;&gt;t39 -->
<g id="edge59" class="edge"><title>t17&#45;&gt;t39</title>
<path fill="none" stroke="#0044a0" d="M1521.59,-812.228C1322.12,-806.123 877.472,-789.888 855,-765.925 823.857,-732.715 848.233,-591.227 860.275,-531.401"/>
<polygon fill="#0044a0" stroke="#0044a0" points="863.715,-532.049 862.296,-521.55 856.857,-530.642 863.715,-532.049"/>
</g>
<!-- t17&#45;&gt;t41 -->
<g id="edge67" class="edge"><title>t17&#45;&gt;t41</title>
<path fill="none" stroke="#0044a0" d="M1521.53,-811.347C1263.55,-801.567 571.232,-774.548 563,-765.925 501.753,-701.764 544.798,-583.745 568.818,-531.093"/>
<polygon fill="#0044a0" stroke="#0044a0" points="572.118,-532.3 573.193,-521.76 565.78,-529.329 572.118,-532.3"/>
</g>
<!-- t17&#45;&gt;t44 -->
<g id="edge73" class="edge"><title>t17&#45;&gt;t44</title>
<path fill="none" stroke="#0044a0" d="M1521.79,-811.395C1258.19,-801.526 537.496,-773.85 528,-765.925 459.127,-708.447 539.882,-638.533 483,-569.167 476.612,-561.378 430.057,-541.209 391.583,-525.452"/>
<polygon fill="#0044a0" stroke="#0044a0" points="392.586,-522.082 382.005,-521.551 389.946,-528.565 392.586,-522.082"/>
</g>
<!-- t17&#45;&gt;t46 -->
<g id="edge79" class="edge"><title>t17&#45;&gt;t46</title>
<path fill="none" stroke="#0044a0" d="M1712.45,-811.548C1841.07,-805.998 2056.84,-792.775 2081,-765.925 2089.48,-756.502 2080.89,-579.753 2077,-569.167 2071.56,-554.375 2061.35,-540.335 2051.48,-529.142"/>
<polygon fill="#0044a0" stroke="#0044a0" points="2053.8,-526.486 2044.44,-521.525 2048.66,-531.241 2053.8,-526.486"/>
</g>
<!-- t17&#45;&gt;t31 -->
<g id="edge97" class="edge"><title>t17&#45;&gt;t31</title>
<path fill="none" stroke="#0044a0" d="M1712.21,-802.794C1756.6,-794.987 1802.59,-783.044 1816,-765.925 1829.48,-748.717 1830.78,-585.272 1816,-569.167 1796.62,-548.055 1587.08,-552.926 1559,-547.167 1533.42,-541.92 1505.85,-533.238 1482.78,-525.072"/>
<polygon fill="#0044a0" stroke="#0044a0" points="1483.79,-521.714 1473.19,-521.616 1481.42,-528.299 1483.79,-521.714"/>
</g>
<!-- t19 -->
<g id="node14" class="node"><title>t19</title>
<polygon fill="#ebf3ff" stroke="#0044a0" points="1398.44,-630.898 1261.56,-630.898 1257.56,-626.898 1257.56,-594.898 1394.44,-594.898 1398.44,-598.898 1398.44,-630.898"/>
<polyline fill="none" stroke="#0044a0" points="1394.44,-626.898 1257.56,-626.898 "/>
<polyline fill="none" stroke="#0044a0" points="1394.44,-626.898 1394.44,-594.898 "/>
<polyline fill="none" stroke="#0044a0" points="1394.44,-626.898 1398.44,-630.898 "/>
<text text-anchor="middle" x="1328" y="-606.898" font-family="Times,serif" font-size="20.00" fill="#0044a0">loadSTARStats</text>
</g>
<!-- t18&#45;&gt;t19 -->
<g id="edge12" class="edge"><title>t18&#45;&gt;t19</title>
<path fill="none" stroke="#0044a0" d="M1392.42,-686.711C1378.51,-670.985 1362.37,-652.741 1349.72,-638.449"/>
<polygon fill="#0044a0" stroke="#0044a0" points="1352.34,-636.128 1343.09,-630.957 1347.1,-640.766 1352.34,-636.128"/>
</g>
<!-- t19&#45;&gt;t27 -->
<g id="edge14" class="edge"><title>t19&#45;&gt;t27</title>
<path fill="none" stroke="#0044a0" d="M1301.59,-594.778C1286.69,-585.864 1267.42,-575.527 1249,-569.167 1194.02,-550.19 1172.92,-571.302 1120,-547.167 1109.86,-542.541 1100.05,-535.433 1091.73,-528.338"/>
<polygon fill="#0044a0" stroke="#0044a0" points="1094.03,-525.701 1084.25,-521.621 1089.35,-530.908 1094.03,-525.701"/>
</g>
<!-- t19&#45;&gt;t29 -->
<g id="edge22" class="edge"><title>t19&#45;&gt;t29</title>
<path fill="none" stroke="#0044a0" d="M1353.12,-594.687C1368.07,-585.389 1387.82,-574.706 1407,-569.167 1548.22,-528.375 1595.45,-586.809 1737,-547.167 1753.22,-542.623 1769.93,-534.632 1784,-526.787"/>
<polygon fill="#0044a0" stroke="#0044a0" points="1785.92,-529.72 1792.83,-521.69 1782.42,-523.657 1785.92,-529.72"/>
</g>
<!-- t19&#45;&gt;t33 -->
<g id="edge28" class="edge"><title>t19&#45;&gt;t33</title>
<path fill="none" stroke="#0044a0" d="M1352.35,-594.859C1367.36,-585.368 1387.42,-574.431 1407,-569.167 1566.73,-526.214 1991.14,-589.635 2151,-547.167 2167.22,-542.858 2183.81,-534.738 2197.65,-526.731"/>
<polygon fill="#0044a0" stroke="#0044a0" points="2199.54,-529.677 2206.31,-521.527 2195.93,-523.676 2199.54,-529.677"/>
</g>
<!-- t19&#45;&gt;t45 -->
<g id="edge35" class="edge"><title>t19&#45;&gt;t45</title>
<path fill="none" stroke="#0044a0" d="M1309.3,-594.884C1289.65,-577.004 1258.58,-548.73 1236.43,-528.572"/>
<polygon fill="#0044a0" stroke="#0044a0" points="1238.75,-525.953 1229,-521.811 1234.04,-531.13 1238.75,-525.953"/>
</g>
<!-- t19&#45;&gt;t35 -->
<g id="edge40" class="edge"><title>t19&#45;&gt;t35</title>
<path fill="none" stroke="#0044a0" d="M1353.99,-594.803C1368.92,-585.783 1388.35,-575.335 1407,-569.167 1472.23,-547.601 1494.31,-567.274 1560,-547.167 1576.8,-542.023 1594.41,-534.067 1609.42,-526.413"/>
<polygon fill="#0044a0" stroke="#0044a0" points="1611.16,-529.452 1618.39,-521.714 1607.91,-523.25 1611.16,-529.452"/>
</g>
<!-- t19&#45;&gt;t37 -->
<g id="edge51" class="edge"><title>t19&#45;&gt;t37</title>
<path fill="none" stroke="#0044a0" d="M1303.67,-594.802C1288.66,-585.291 1268.6,-574.353 1249,-569.167 1029.82,-511.167 450.713,-594.55 229,-547.167 208.394,-542.763 186.723,-534.193 168.761,-525.884"/>
<polygon fill="#0044a0" stroke="#0044a0" points="170.265,-522.724 159.731,-521.586 167.256,-529.044 170.265,-522.724"/>
</g>
<!-- t19&#45;&gt;t39 -->
<g id="edge58" class="edge"><title>t19&#45;&gt;t39</title>
<path fill="none" stroke="#0044a0" d="M1302.82,-594.885C1287.85,-585.652 1268.1,-574.97 1249,-569.167 1149.48,-538.927 1118.23,-566.359 1016,-547.167 986.258,-541.584 953.893,-532.746 926.865,-524.56"/>
<polygon fill="#0044a0" stroke="#0044a0" points="927.75,-521.171 917.163,-521.581 925.696,-527.863 927.75,-521.171"/>
</g>
<!-- t19&#45;&gt;t41 -->
<g id="edge66" class="edge"><title>t19&#45;&gt;t41</title>
<path fill="none" stroke="#0044a0" d="M1303.28,-594.723C1288.3,-585.313 1268.39,-574.504 1249,-569.167 1134.7,-537.714 832.741,-567.77 716,-547.167 688.741,-542.356 659.344,-533.442 635.049,-525.002"/>
<polygon fill="#0044a0" stroke="#0044a0" points="635.911,-521.595 625.316,-521.553 633.573,-528.193 635.911,-521.595"/>
</g>
<!-- t19&#45;&gt;t44 -->
<g id="edge72" class="edge"><title>t19&#45;&gt;t44</title>
<path fill="none" stroke="#0044a0" d="M1303.66,-594.844C1288.65,-585.348 1268.58,-574.41 1249,-569.167 1076.99,-523.106 622.511,-582.578 448,-547.167 425.752,-542.652 402.163,-533.956 382.641,-525.588"/>
<polygon fill="#0044a0" stroke="#0044a0" points="383.971,-522.35 373.408,-521.527 381.152,-528.757 383.971,-522.35"/>
</g>
<!-- t19&#45;&gt;t46 -->
<g id="edge78" class="edge"><title>t19&#45;&gt;t46</title>
<path fill="none" stroke="#0044a0" d="M1352.72,-594.746C1367.71,-585.343 1387.61,-574.535 1407,-569.167 1513.12,-539.785 1793.83,-567.727 1902,-547.167 1927.13,-542.39 1954.09,-533.59 1976.43,-525.219"/>
<polygon fill="#0044a0" stroke="#0044a0" points="1977.94,-528.39 1986.03,-521.545 1975.44,-521.853 1977.94,-528.39"/>
</g>
<!-- t19&#45;&gt;t31 -->
<g id="edge96" class="edge"><title>t19&#45;&gt;t31</title>
<path fill="none" stroke="#0044a0" d="M1344.39,-594.646C1361.27,-576.878 1387.72,-549.03 1406.76,-528.991"/>
<polygon fill="#0044a0" stroke="#0044a0" points="1409.3,-531.391 1413.65,-521.73 1404.23,-526.57 1409.3,-531.391"/>
</g>
<!-- t59 -->
<g id="node51" class="node"><title>t59</title>
<polygon fill="#efa03b" stroke="black" points="1286,-52 1236,-52 1232,-48 1232,-16 1282,-16 1286,-20 1286,-52"/>
<polyline fill="none" stroke="black" points="1282,-48 1232,-48 "/>
<polyline fill="none" stroke="black" points="1282,-48 1282,-16 "/>
<polyline fill="none" stroke="black" points="1282,-48 1286,-52 "/>
<text text-anchor="middle" x="1259" y="-28" font-family="Times,serif" font-size="20.00">full</text>
</g>
<!-- t27&#45;&gt;t59 -->
<g id="edge104" class="edge"><title>t27&#45;&gt;t59</title>
<path fill="none" stroke="#0044a0" d="M1085.12,-485.239C1126.4,-442.819 1228,-333.557 1228,-285.863 1228,-285.863 1228,-285.863 1228,-174.6 1228,-134.755 1240.18,-90.0004 1249.28,-62.1538"/>
<polygon fill="#0044a0" stroke="#0044a0" points="1252.7,-62.9487 1252.58,-52.3546 1246.07,-60.714 1252.7,-62.9487"/>
</g>
<!-- t83 -->
<g id="node16" class="node"><title>t83</title>
<polygon fill="#ebf3ff" stroke="#0044a0" points="2414.31,-843.925 2243.69,-843.925 2239.69,-839.925 2239.69,-787.925 2410.31,-787.925 2414.31,-791.925 2414.31,-843.925"/>
<polyline fill="none" stroke="#0044a0" points="2410.31,-839.925 2239.69,-839.925 "/>
<polyline fill="none" stroke="#0044a0" points="2410.31,-839.925 2410.31,-787.925 "/>
<polyline fill="none" stroke="#0044a0" points="2410.31,-839.925 2414.31,-843.925 "/>
<text text-anchor="middle" x="2327" y="-821.925" font-family="Times,serif" font-size="20.00" fill="#0044a0">mkdir(&#39;nreads.dir&#39;) </text>
<text text-anchor="middle" x="2327" y="-797.925" font-family="Times,serif" font-size="20.00" fill="#0044a0">before countReads </text>
</g>
<!-- t10 -->
<g id="node17" class="node"><title>t10</title>
<polygon fill="none" stroke="#0044a0" stroke-dasharray="5,2" points="2381.81,-740.277 2276.19,-740.277 2272.19,-736.277 2272.19,-704.277 2377.81,-704.277 2381.81,-708.277 2381.81,-740.277"/>
<polyline fill="none" stroke="#0044a0" stroke-dasharray="5,2" points="2377.81,-736.277 2272.19,-736.277 "/>
<polyline fill="none" stroke="#0044a0" stroke-dasharray="5,2" points="2377.81,-736.277 2377.81,-704.277 "/>
<polyline fill="none" stroke="#0044a0" stroke-dasharray="5,2" points="2377.81,-736.277 2381.81,-740.277 "/>
<text text-anchor="middle" x="2327" y="-716.277" font-family="Times,serif" font-size="20.00" fill="#0044a0">countReads</text>
</g>
<!-- t83&#45;&gt;t10 -->
<g id="edge17" class="edge"><title>t83&#45;&gt;t10</title>
<path fill="none" stroke="#0044a0" d="M2327,-787.923C2327,-776.119 2327,-762.298 2327,-750.472"/>
<polygon fill="#0044a0" stroke="#0044a0" points="2330.5,-750.287 2327,-740.287 2323.5,-750.287 2330.5,-750.287"/>
</g>
<!-- t28 -->
<g id="node18" class="node"><title>t28</title>
<polygon fill="none" stroke="#0044a0" stroke-dasharray="5,2" points="2408.74,-630.898 2249.26,-630.898 2245.26,-626.898 2245.26,-594.898 2404.74,-594.898 2408.74,-598.898 2408.74,-630.898"/>
<polyline fill="none" stroke="#0044a0" stroke-dasharray="5,2" points="2404.74,-626.898 2245.26,-626.898 "/>
<polyline fill="none" stroke="#0044a0" stroke-dasharray="5,2" points="2404.74,-626.898 2404.74,-594.898 "/>
<polyline fill="none" stroke="#0044a0" stroke-dasharray="5,2" points="2404.74,-626.898 2408.74,-630.898 "/>
<text text-anchor="middle" x="2327" y="-606.898" font-family="Times,serif" font-size="20.00" fill="#0044a0">mergeReadCounts</text>
</g>
<!-- t10&#45;&gt;t28 -->
<g id="edge18" class="edge"><title>t10&#45;&gt;t28</title>
<path fill="none" stroke="#0044a0" d="M2327,-704.025C2327,-687.118 2327,-661.083 2327,-641.334"/>
<polygon fill="#0044a0" stroke="#0044a0" points="2330.5,-641.108 2327,-631.108 2323.5,-641.108 2330.5,-641.108"/>
</g>
<!-- t43 -->
<g id="node19" class="node"><title>t43</title>
<polygon fill="#ebf3ff" stroke="#0044a0" points="2323.64,-491.274 2424,-463.889 2524.36,-491.274 2524.27,-535.584 2323.73,-535.584 2323.64,-491.274"/>
<polygon fill="none" stroke="#0044a0" points="2319.62,-488.21 2424,-459.729 2528.38,-488.21 2528.27,-539.598 2319.73,-539.598 2319.62,-488.21"/>
<text text-anchor="middle" x="2424" y="-497.521" font-family="Times,serif" font-size="20.00" fill="#0044a0">loadReadCounts</text>
</g>
<!-- t10&#45;&gt;t43 -->
<g id="edge20" class="edge"><title>t10&#45;&gt;t43</title>
<path fill="none" stroke="#0044a0" d="M2365.97,-704.033C2385.2,-693.333 2406.65,-677.59 2418,-656.629 2435.66,-624.02 2435.76,-581.461 2432.25,-549.656"/>
<polygon fill="#0044a0" stroke="#0044a0" points="2435.72,-549.218 2431,-539.734 2428.78,-550.093 2435.72,-549.218"/>
</g>
<!-- t10&#45;&gt;t33 -->
<g id="edge31" class="edge"><title>t10&#45;&gt;t33</title>
<path fill="none" stroke="#0044a0" d="M2287.97,-704.063C2268.73,-693.372 2247.28,-677.628 2236,-656.629 2214.88,-617.315 2219.45,-563.663 2225.01,-531.707"/>
<polygon fill="#0044a0" stroke="#0044a0" points="2228.47,-532.231 2226.89,-521.754 2221.59,-530.927 2228.47,-532.231"/>
</g>
<!-- t28&#45;&gt;t43 -->
<g id="edge19" class="edge"><title>t28&#45;&gt;t43</title>
<path fill="none" stroke="#0044a0" d="M2342.58,-594.646C2354.1,-581.897 2370.31,-563.956 2385.23,-547.436"/>
<polygon fill="#0044a0" stroke="#0044a0" points="2387.87,-549.735 2391.98,-539.969 2382.68,-545.043 2387.87,-549.735"/>
</g>
<!-- t28&#45;&gt;t33 -->
<g id="edge26" class="edge"><title>t28&#45;&gt;t33</title>
<path fill="none" stroke="#0044a0" d="M2311.58,-594.646C2295.76,-576.957 2271.01,-549.275 2253.11,-529.256"/>
<polygon fill="#0044a0" stroke="#0044a0" points="2255.66,-526.853 2246.39,-521.73 2250.44,-531.518 2255.66,-526.853"/>
</g>
<!-- t52 -->
<g id="node29" class="node"><title>t52</title>
<polygon fill="#ebf3ff" stroke="#0044a0" points="1706.73,-193.6 1607.27,-193.6 1603.27,-189.6 1603.27,-157.6 1702.73,-157.6 1706.73,-161.6 1706.73,-193.6"/>
<polyline fill="none" stroke="#0044a0" points="1702.73,-189.6 1603.27,-189.6 "/>
<polyline fill="none" stroke="#0044a0" points="1702.73,-189.6 1702.73,-157.6 "/>
<polyline fill="none" stroke="#0044a0" points="1702.73,-189.6 1706.73,-193.6 "/>
<text text-anchor="middle" x="1655" y="-169.6" font-family="Times,serif" font-size="20.00" fill="#0044a0">general_qc</text>
</g>
<!-- t43&#45;&gt;t52 -->
<g id="edge46" class="edge"><title>t43&#45;&gt;t52</title>
<path fill="none" stroke="#0044a0" d="M2395.51,-467.113C2367.46,-433.904 2322.09,-384.414 2275,-350.525 2184.76,-285.58 2157.43,-269.833 2050,-241.2 1912.25,-204.487 1866.5,-260.32 1730,-219.2 1715.23,-214.752 1700.21,-206.986 1687.52,-199.294"/>
<polygon fill="#0044a0" stroke="#0044a0" points="1689.06,-196.127 1678.74,-193.754 1685.33,-202.048 1689.06,-196.127"/>
</g>
<!-- t30 -->
<g id="node21" class="node"><title>t30</title>
<polygon fill="#ebf3ff" stroke="#0044a0" points="1777.16,-272.611 1872,-245.215 1966.84,-272.611 1966.76,-316.938 1777.24,-316.938 1777.16,-272.611"/>
<polygon fill="none" stroke="#0044a0" points="1773.15,-269.59 1872,-241.038 1970.85,-269.59 1970.74,-320.953 1773.26,-320.953 1773.15,-269.59"/>
<text text-anchor="middle" x="1872" y="-278.863" font-family="Times,serif" font-size="20.00" fill="#0044a0">loadPicardStats</text>
</g>
<!-- t29&#45;&gt;t30 -->
<g id="edge25" class="edge"><title>t29&#45;&gt;t30</title>
<path fill="none" stroke="#0044a0" d="M1784.75,-485.34C1766.99,-474.408 1746.97,-458.427 1737,-437.875 1720.06,-402.945 1716.31,-383.375 1737,-350.525 1742.02,-342.547 1755.05,-333.896 1771.13,-325.595"/>
<polygon fill="#0044a0" stroke="#0044a0" points="1772.94,-328.603 1780.35,-321.026 1769.83,-322.331 1772.94,-328.603"/>
</g>
<!-- t30&#45;&gt;t52 -->
<g id="edge49" class="edge"><title>t30&#45;&gt;t52</title>
<path fill="none" stroke="#0044a0" d="M1812.37,-258.13C1786.76,-246.716 1756.66,-232.808 1730,-219.2 1717.67,-212.908 1704.47,-205.605 1692.63,-198.842"/>
<polygon fill="#0044a0" stroke="#0044a0" points="1694.29,-195.76 1683.88,-193.802 1690.79,-201.826 1694.29,-195.76"/>
</g>
<!-- t57 -->
<g id="node46" class="node"><title>t57</title>
<polygon fill="#ebf3ff" stroke="#0044a0" points="1742.66,-163.366 1864,-136.009 1985.34,-163.366 1985.23,-207.63 1742.77,-207.63 1742.66,-163.366"/>
<polygon fill="none" stroke="#0044a0" points="1738.64,-160.161 1864,-131.9 1989.36,-160.161 1989.23,-211.639 1738.77,-211.639 1738.64,-160.161"/>
<text text-anchor="middle" x="1864" y="-169.6" font-family="Times,serif" font-size="20.00" fill="#0044a0">createViewMapping</text>
</g>
<!-- t30&#45;&gt;t57 -->
<g id="edge93" class="edge"><title>t30&#45;&gt;t57</title>
<path fill="none" stroke="#0044a0" d="M1868.86,-241.777C1868.38,-235.307 1867.88,-228.601 1867.39,-222.06"/>
<polygon fill="#0044a0" stroke="#0044a0" points="1870.87,-221.689 1866.64,-211.977 1863.89,-222.21 1870.87,-221.689"/>
</g>
<!-- t34 -->
<g id="node23" class="node"><title>t34</title>
<polygon fill="#ebf3ff" stroke="#0044a0" points="2079.65,-381.945 2171,-354.541 2262.35,-381.945 2262.26,-426.285 2079.74,-426.285 2079.65,-381.945"/>
<polygon fill="none" stroke="#0044a0" points="2075.64,-378.956 2171,-350.349 2266.36,-378.956 2266.26,-430.301 2075.74,-430.301 2075.64,-378.956"/>
<text text-anchor="middle" x="2171" y="-388.2" font-family="Times,serif" font-size="20.00" fill="#0044a0">loadBAMStats</text>
</g>
<!-- t33&#45;&gt;t34 -->
<g id="edge32" class="edge"><title>t33&#45;&gt;t34</title>
<path fill="none" stroke="#0044a0" d="M2221.36,-485.278C2214.43,-472.88 2204.75,-455.57 2195.73,-439.434"/>
<polygon fill="#0044a0" stroke="#0044a0" points="2198.74,-437.65 2190.81,-430.629 2192.63,-441.066 2198.74,-437.65"/>
</g>
<!-- t36 -->
<g id="node28" class="node"><title>t36</title>
<polygon fill="#ebf3ff" stroke="#0044a0" points="1544.62,-272.618 1648,-245.238 1751.38,-272.618 1751.29,-316.92 1544.71,-316.92 1544.62,-272.618"/>
<polygon fill="none" stroke="#0044a0" points="1540.6,-269.53 1648,-241.087 1755.4,-269.53 1755.29,-320.932 1540.71,-320.932 1540.6,-269.53"/>
<text text-anchor="middle" x="1648" y="-278.863" font-family="Times,serif" font-size="20.00" fill="#0044a0">loadContextStats</text>
</g>
<!-- t34&#45;&gt;t36 -->
<g id="edge44" class="edge"><title>t34&#45;&gt;t36</title>
<path fill="none" stroke="#0044a0" d="M2115.94,-366.819C2100.44,-360.443 2083.34,-354.366 2067,-350.525 1935.56,-319.62 1895.99,-356.995 1764,-328.525 1757.87,-327.203 1751.64,-325.628 1745.39,-323.875"/>
<polygon fill="#0044a0" stroke="#0044a0" points="1746.17,-320.455 1735.59,-320.983 1744.19,-327.169 1746.17,-320.455"/>
</g>
<!-- t34&#45;&gt;t52 -->
<g id="edge48" class="edge"><title>t34&#45;&gt;t52</title>
<path fill="none" stroke="#0044a0" d="M2140.69,-359.396C2105.88,-323.12 2045.13,-267.214 1980,-241.2 1876.42,-199.83 1836.49,-252.394 1730,-219.2 1715.27,-214.61 1700.26,-206.818 1687.57,-199.143"/>
<polygon fill="#0044a0" stroke="#0044a0" points="1689.11,-195.976 1678.78,-193.622 1685.38,-201.904 1689.11,-195.976"/>
</g>
<!-- t34&#45;&gt;t57 -->
<g id="edge92" class="edge"><title>t34&#45;&gt;t57</title>
<path fill="none" stroke="#0044a0" d="M2158.62,-353.844C2145.8,-319.306 2122.44,-270.189 2086,-241.2 2060.99,-221.3 2030.05,-207.529 1999.3,-198.001"/>
<polygon fill="#0044a0" stroke="#0044a0" points="1999.92,-194.532 1989.34,-195.053 1997.93,-201.245 1999.92,-194.532"/>
</g>
<!-- t76 -->
<g id="node24" class="node"><title>t76</title>
<polygon fill="#ebf3ff" stroke="#0044a0" points="471.58,-750.277 248.42,-750.277 244.42,-746.277 244.42,-694.277 467.58,-694.277 471.58,-698.277 471.58,-750.277"/>
<polyline fill="none" stroke="#0044a0" points="467.58,-746.277 244.42,-746.277 "/>
<polyline fill="none" stroke="#0044a0" points="467.58,-746.277 467.58,-694.277 "/>
<polyline fill="none" stroke="#0044a0" points="467.58,-746.277 471.58,-750.277 "/>
<text text-anchor="middle" x="358" y="-728.277" font-family="Times,serif" font-size="20.00" fill="#0044a0">mkdir(&#39;geneset.dir&#39;) </text>
<text text-anchor="middle" x="358" y="-704.277" font-family="Times,serif" font-size="20.00" fill="#0044a0">before buildCodingExons </text>
</g>
<!-- t6 -->
<g id="node25" class="node"><title>t6</title>
<polygon fill="#ebf3ff" stroke="#0044a0" points="245.566,-600.659 358,-573.292 470.434,-600.659 470.329,-644.94 245.671,-644.94 245.566,-600.659"/>
<polygon fill="none" stroke="#0044a0" points="241.551,-597.509 358,-569.165 474.449,-597.509 474.327,-648.951 241.673,-648.951 241.551,-597.509"/>
<text text-anchor="middle" x="358" y="-606.898" font-family="Times,serif" font-size="20.00" fill="#0044a0">buildCodingExons</text>
</g>
<!-- t76&#45;&gt;t6 -->
<g id="edge33" class="edge"><title>t76&#45;&gt;t6</title>
<path fill="none" stroke="#0044a0" d="M358,-694.181C358,-683.609 358,-671.197 358,-659.336"/>
<polygon fill="#0044a0" stroke="#0044a0" points="361.5,-659.114 358,-649.114 354.5,-659.114 361.5,-659.114"/>
</g>
<!-- t6&#45;&gt;t45 -->
<g id="edge38" class="edge"><title>t6&#45;&gt;t45</title>
<path fill="none" stroke="#0044a0" d="M474.336,-607.09C656.757,-598.696 1001.51,-579.147 1120,-547.167 1137.56,-542.428 1155.88,-534.386 1171.37,-526.553"/>
<polygon fill="#0044a0" stroke="#0044a0" points="1173.37,-529.459 1180.62,-521.735 1170.14,-523.251 1173.37,-529.459"/>
</g>
<!-- t6&#45;&gt;t37 -->
<g id="edge54" class="edge"><title>t6&#45;&gt;t37</title>
<path fill="none" stroke="#0044a0" d="M297.57,-583.686C258.84,-565.605 209.359,-542.504 173.859,-525.931"/>
<polygon fill="#0044a0" stroke="#0044a0" points="175.236,-522.711 164.695,-521.652 172.275,-529.054 175.236,-522.711"/>
</g>
<!-- t6&#45;&gt;t44 -->
<g id="edge75" class="edge"><title>t6&#45;&gt;t44</title>
<path fill="none" stroke="#0044a0" d="M350.708,-570.69C348.401,-557.65 345.909,-543.569 343.82,-531.762"/>
<polygon fill="#0044a0" stroke="#0044a0" points="347.221,-530.891 342.032,-521.654 340.328,-532.111 347.221,-530.891"/>
</g>
<!-- t45&#45;&gt;t52 -->
<g id="edge45" class="edge"><title>t45&#45;&gt;t52</title>
<path fill="none" stroke="#0044a0" d="M1216.45,-485.336C1221.23,-472.367 1227.8,-454.097 1233,-437.875 1245.33,-399.422 1231.42,-380.928 1258,-350.525 1346.72,-249.023 1505.7,-204.408 1593.15,-186.769"/>
<polygon fill="#0044a0" stroke="#0044a0" points="1594.05,-190.158 1603.19,-184.799 1592.7,-183.289 1594.05,-190.158"/>
</g>
<!-- t35&#45;&gt;t36 -->
<g id="edge43" class="edge"><title>t35&#45;&gt;t36</title>
<path fill="none" stroke="#0044a0" d="M1648,-485.52C1648,-452.621 1648,-379.263 1648,-331.22"/>
<polygon fill="#0044a0" stroke="#0044a0" points="1651.5,-331.079 1648,-321.079 1644.5,-331.079 1651.5,-331.079"/>
</g>
<!-- t36&#45;&gt;t52 -->
<g id="edge47" class="edge"><title>t36&#45;&gt;t52</title>
<path fill="none" stroke="#0044a0" d="M1650.75,-241.777C1651.58,-229.057 1652.47,-215.427 1653.22,-203.936"/>
<polygon fill="#0044a0" stroke="#0044a0" points="1656.73,-203.882 1653.89,-193.675 1649.74,-203.426 1656.73,-203.882"/>
</g>
<!-- t36&#45;&gt;t57 -->
<g id="edge91" class="edge"><title>t36&#45;&gt;t57</title>
<path fill="none" stroke="#0044a0" d="M1704.19,-255.961C1728.56,-243.856 1757.55,-229.46 1784.11,-216.273"/>
<polygon fill="#0044a0" stroke="#0044a0" points="1785.99,-219.248 1793.39,-211.665 1782.87,-212.978 1785.99,-219.248"/>
</g>
<!-- t54 -->
<g id="node45" class="node"><title>t54</title>
<polygon fill="#ebf3ff" stroke="#0044a0" points="1209,-110 1159,-110 1155,-106 1155,-74 1205,-74 1209,-78 1209,-110"/>
<polyline fill="none" stroke="#0044a0" points="1205,-106 1155,-106 "/>
<polyline fill="none" stroke="#0044a0" points="1205,-106 1205,-74 "/>
<polyline fill="none" stroke="#0044a0" points="1205,-106 1209,-110 "/>
<text text-anchor="middle" x="1182" y="-86" font-family="Times,serif" font-size="20.00" fill="#0044a0">qc</text>
</g>
<!-- t52&#45;&gt;t54 -->
<g id="edge90" class="edge"><title>t52&#45;&gt;t54</title>
<path fill="none" stroke="#0044a0" d="M1603.03,-165.634C1506.83,-149.038 1303.19,-113.907 1219.31,-99.4361"/>
<polygon fill="#0044a0" stroke="#0044a0" points="1219.67,-95.9469 1209.22,-97.6958 1218.48,-102.845 1219.67,-95.9469"/>
</g>
<!-- t38 -->
<g id="node31" class="node"><title>t38</title>
<polygon fill="#ebf3ff" stroke="#0044a0" points="109.096,-381.965 229,-354.607 348.904,-381.965 348.792,-426.232 109.208,-426.232 109.096,-381.965"/>
<polygon fill="none" stroke="#0044a0" points="105.081,-378.769 229,-350.494 352.919,-378.769 352.789,-430.241 105.211,-430.241 105.081,-378.769"/>
<text text-anchor="middle" x="229" y="-388.2" font-family="Times,serif" font-size="20.00" fill="#0044a0">loadExonValidation</text>
</g>
<!-- t37&#45;&gt;t38 -->
<g id="edge55" class="edge"><title>t37&#45;&gt;t38</title>
<path fill="none" stroke="#0044a0" d="M144.227,-485.278C156.22,-472.535 173.095,-454.604 188.634,-438.092"/>
<polygon fill="#0044a0" stroke="#0044a0" points="191.353,-440.31 195.658,-430.629 186.255,-435.513 191.353,-440.31"/>
</g>
<!-- t53 -->
<g id="node44" class="node"><title>t53</title>
<polygon fill="#ebf3ff" stroke="#0044a0" points="632.529,-302.863 535.471,-302.863 531.471,-298.863 531.471,-266.863 628.529,-266.863 632.529,-270.863 632.529,-302.863"/>
<polyline fill="none" stroke="#0044a0" points="628.529,-298.863 531.471,-298.863 "/>
<polyline fill="none" stroke="#0044a0" points="628.529,-298.863 628.529,-266.863 "/>
<polyline fill="none" stroke="#0044a0" points="628.529,-298.863 632.529,-302.863 "/>
<text text-anchor="middle" x="582" y="-278.863" font-family="Times,serif" font-size="20.00" fill="#0044a0">spliced_qc</text>
</g>
<!-- t38&#45;&gt;t53 -->
<g id="edge87" class="edge"><title>t38&#45;&gt;t53</title>
<path fill="none" stroke="#0044a0" d="M309.543,-368.709C373.983,-349.115 462.94,-322.065 521.434,-304.279"/>
<polygon fill="#0044a0" stroke="#0044a0" points="522.72,-307.546 531.269,-301.288 520.683,-300.849 522.72,-307.546"/>
</g>
<!-- t5&#45;&gt;t53 -->
<g id="edge88" class="edge"><title>t5&#45;&gt;t53</title>
<path fill="none" stroke="#0044a0" d="M75.3429,-594.781C57.367,-583.862 37.1025,-567.857 27,-547.167 -13.6383,-463.938 18.0267,-400.512 96,-350.525 165.228,-306.144 406.81,-291.921 521.138,-287.614"/>
<polygon fill="#0044a0" stroke="#0044a0" points="521.598,-291.1 531.464,-287.239 521.344,-284.105 521.598,-291.1"/>
</g>
<!-- t40 -->
<g id="node34" class="node"><title>t40</title>
<polygon fill="none" stroke="#0044a0" stroke-dasharray="5,2" points="1000.92,-412.2 729.08,-412.2 725.08,-408.2 725.08,-376.2 996.92,-376.2 1000.92,-380.2 1000.92,-412.2"/>
<polyline fill="none" stroke="#0044a0" stroke-dasharray="5,2" points="996.92,-408.2 725.08,-408.2 "/>
<polyline fill="none" stroke="#0044a0" stroke-dasharray="5,2" points="996.92,-408.2 996.92,-376.2 "/>
<polyline fill="none" stroke="#0044a0" stroke-dasharray="5,2" points="996.92,-408.2 1000.92,-412.2 "/>
<text text-anchor="middle" x="863" y="-388.2" font-family="Times,serif" font-size="20.00" fill="#0044a0">loadTranscriptLevelReadCounts</text>
</g>
<!-- t39&#45;&gt;t40 -->
<g id="edge62" class="edge"><title>t39&#45;&gt;t40</title>
<path fill="none" stroke="#0044a0" d="M865.518,-485.278C865.046,-468.38 864.318,-442.359 863.767,-422.621"/>
<polygon fill="#0044a0" stroke="#0044a0" points="867.259,-422.298 863.481,-412.4 860.262,-422.494 867.259,-422.298"/>
</g>
<!-- t40&#45;&gt;t53 -->
<g id="edge86" class="edge"><title>t40&#45;&gt;t53</title>
<path fill="none" stroke="#0044a0" d="M818.475,-376.192C769.087,-357.327 689.392,-326.885 636.36,-306.627"/>
<polygon fill="#0044a0" stroke="#0044a0" points="637.372,-303.267 626.781,-302.968 634.874,-309.806 637.372,-303.267"/>
</g>
<!-- t71 -->
<g id="node35" class="node"><title>t71</title>
<polygon fill="#ebf3ff" stroke="#0044a0" points="451.748,-937.501 186.252,-937.501 182.252,-933.501 182.252,-881.501 447.748,-881.501 451.748,-885.501 451.748,-937.501"/>
<polyline fill="none" stroke="#0044a0" points="447.748,-933.501 182.252,-933.501 "/>
<polyline fill="none" stroke="#0044a0" points="447.748,-933.501 447.748,-881.501 "/>
<polyline fill="none" stroke="#0044a0" points="447.748,-933.501 451.748,-937.501 "/>
<text text-anchor="middle" x="317" y="-915.501" font-family="Times,serif" font-size="20.00" fill="#0044a0">mkdir(&#39;geneset.dir&#39;) </text>
<text text-anchor="middle" x="317" y="-891.501" font-family="Times,serif" font-size="20.00" fill="#0044a0">before buildIntronGeneModels </text>
</g>
<!-- t71&#45;&gt;t4 -->
<g id="edge63" class="edge"><title>t71&#45;&gt;t4</title>
<path fill="none" stroke="#0044a0" d="M366.951,-881.273C391.798,-867.729 421.431,-851.576 444.791,-838.843"/>
<polygon fill="#0044a0" stroke="#0044a0" points="446.632,-841.826 453.737,-833.967 443.281,-835.68 446.632,-841.826"/>
</g>
<!-- t4&#45;&gt;t41 -->
<g id="edge69" class="edge"><title>t4&#45;&gt;t41</title>
<path fill="none" stroke="#0044a0" d="M485.011,-797.635C485.66,-756.193 491.072,-648.726 528,-569.167 534.853,-554.402 545.956,-540.255 556.317,-528.98"/>
<polygon fill="#0044a0" stroke="#0044a0" points="558.933,-531.309 563.311,-521.661 553.872,-526.473 558.933,-531.309"/>
</g>
<!-- t42 -->
<g id="node38" class="node"><title>t42</title>
<polygon fill="none" stroke="#0044a0" stroke-dasharray="5,2" points="703.11,-412.2 464.89,-412.2 460.89,-408.2 460.89,-376.2 699.11,-376.2 703.11,-380.2 703.11,-412.2"/>
<polyline fill="none" stroke="#0044a0" stroke-dasharray="5,2" points="699.11,-408.2 460.89,-408.2 "/>
<polyline fill="none" stroke="#0044a0" stroke-dasharray="5,2" points="699.11,-408.2 699.11,-376.2 "/>
<polyline fill="none" stroke="#0044a0" stroke-dasharray="5,2" points="699.11,-408.2 703.11,-412.2 "/>
<text text-anchor="middle" x="582" y="-388.2" font-family="Times,serif" font-size="20.00" fill="#0044a0">loadIntronLevelReadCounts</text>
</g>
<!-- t41&#45;&gt;t42 -->
<g id="edge70" class="edge"><title>t41&#45;&gt;t42</title>
<path fill="none" stroke="#0044a0" d="M582,-485.278C582,-468.38 582,-442.359 582,-422.621"/>
<polygon fill="#0044a0" stroke="#0044a0" points="585.5,-422.4 582,-412.4 578.5,-422.4 585.5,-422.4"/>
</g>
<!-- t42&#45;&gt;t53 -->
<g id="edge85" class="edge"><title>t42&#45;&gt;t53</title>
<path fill="none" stroke="#0044a0" d="M582,-375.954C582,-359.054 582,-333.029 582,-313.288"/>
<polygon fill="#0044a0" stroke="#0044a0" points="585.5,-313.065 582,-303.065 578.5,-313.065 585.5,-313.065"/>
</g>
<!-- t44&#45;&gt;t53 -->
<g id="edge84" class="edge"><title>t44&#45;&gt;t53</title>
<path fill="none" stroke="#0044a0" d="M348.104,-485.414C365.045,-454.918 404.077,-390.607 452,-350.525 473.679,-332.393 501.303,-317.74 525.508,-306.997"/>
<polygon fill="#0044a0" stroke="#0044a0" points="527.149,-310.102 534.944,-302.927 524.376,-303.674 527.149,-310.102"/>
</g>
<!-- t84 -->
<g id="node40" class="node"><title>t84</title>
<polygon fill="#ebf3ff" stroke="#0044a0" points="2072.09,-750.277 1893.91,-750.277 1889.91,-746.277 1889.91,-694.277 2068.09,-694.277 2072.09,-698.277 2072.09,-750.277"/>
<polyline fill="none" stroke="#0044a0" points="2068.09,-746.277 1889.91,-746.277 "/>
<polyline fill="none" stroke="#0044a0" points="2068.09,-746.277 2068.09,-694.277 "/>
<polyline fill="none" stroke="#0044a0" points="2068.09,-746.277 2072.09,-750.277 "/>
<text text-anchor="middle" x="1981" y="-728.277" font-family="Times,serif" font-size="20.00" fill="#0044a0">mkdir(&#39;geneset.dir&#39;) </text>
<text text-anchor="middle" x="1981" y="-704.277" font-family="Times,serif" font-size="20.00" fill="#0044a0">before buildRefFlat </text>
</g>
<!-- t2 -->
<g id="node41" class="node"><title>t2</title>
<polygon fill="#ebf3ff" stroke="#0044a0" points="1905.69,-600.627 1985,-573.188 2064.31,-600.627 2064.24,-645.024 1905.76,-645.024 1905.69,-600.627"/>
<polygon fill="none" stroke="#0044a0" points="1901.67,-597.762 1985,-568.935 2068.33,-597.762 2068.24,-649.045 1901.76,-649.045 1901.67,-597.762"/>
<text text-anchor="middle" x="1985" y="-606.898" font-family="Times,serif" font-size="20.00" fill="#0044a0">buildRefFlat</text>
</g>
<!-- t84&#45;&gt;t2 -->
<g id="edge76" class="edge"><title>t84&#45;&gt;t2</title>
<path fill="none" stroke="#0044a0" d="M1982.01,-694.181C1982.4,-683.609 1982.87,-671.197 1983.31,-659.336"/>
<polygon fill="#0044a0" stroke="#0044a0" points="1986.81,-659.237 1983.69,-649.114 1979.82,-658.976 1986.81,-659.237"/>
</g>
<!-- t2&#45;&gt;t46 -->
<g id="edge81" class="edge"><title>t2&#45;&gt;t46</title>
<path fill="none" stroke="#0044a0" d="M1999.57,-573.739C2004.95,-559.66 2010.92,-544.022 2015.82,-531.177"/>
<polygon fill="#0044a0" stroke="#0044a0" points="2019.2,-532.148 2019.49,-521.558 2012.66,-529.651 2019.2,-532.148"/>
</g>
<!-- t47 -->
<g id="node43" class="node"><title>t47</title>
<polygon fill="#ebf3ff" stroke="#0044a0" points="1750.04,-381.976 1902,-354.642 2053.96,-381.976 2053.82,-426.203 1750.18,-426.203 1750.04,-381.976"/>
<polygon fill="none" stroke="#0044a0" points="1746.03,-378.627 1902,-350.572 2057.97,-378.627 2057.81,-430.209 1746.19,-430.209 1746.03,-378.627"/>
<text text-anchor="middle" x="1902" y="-388.2" font-family="Times,serif" font-size="20.00" fill="#0044a0">loadPicardRnaSeqMetrics</text>
</g>
<!-- t46&#45;&gt;t47 -->
<g id="edge82" class="edge"><title>t46&#45;&gt;t47</title>
<path fill="none" stroke="#0044a0" d="M2006.35,-485.516C1991.28,-472.471 1969.81,-453.891 1950.26,-436.971"/>
<polygon fill="#0044a0" stroke="#0044a0" points="1952.45,-434.235 1942.6,-430.337 1947.87,-439.528 1952.45,-434.235"/>
</g>
<!-- t47&#45;&gt;t53 -->
<g id="edge83" class="edge"><title>t47&#45;&gt;t53</title>
<path fill="none" stroke="#0044a0" d="M1776.37,-373.103C1722.76,-365.105 1659.44,-356.421 1602,-350.525 1239.07,-313.265 801.15,-294.145 642.815,-288.061"/>
<polygon fill="#0044a0" stroke="#0044a0" points="642.92,-284.563 632.794,-287.679 642.653,-291.558 642.92,-284.563"/>
</g>
<!-- t53&#45;&gt;t54 -->
<g id="edge89" class="edge"><title>t53&#45;&gt;t54</title>
<path fill="none" stroke="#0044a0" d="M632.639,-267.754C750.755,-230.181 1042.27,-137.449 1145.25,-104.691"/>
<polygon fill="#0044a0" stroke="#0044a0" points="1146.43,-107.989 1154.89,-101.623 1144.3,-101.319 1146.43,-107.989"/>
</g>
<!-- t54&#45;&gt;t59 -->
<g id="edge103" class="edge"><title>t54&#45;&gt;t59</title>
<path fill="none" stroke="#0044a0" d="M1205.52,-73.8939C1212.39,-68.9002 1220.01,-63.3589 1227.29,-58.0612"/>
<polygon fill="#0044a0" stroke="#0044a0" points="1229.59,-60.7137 1235.62,-52.0014 1225.48,-55.0526 1229.59,-60.7137"/>
</g>
<!-- t58 -->
<g id="node47" class="node"><title>t58</title>
<polygon fill="#ebf3ff" stroke="#0044a0" points="1654.15,-110 1595.85,-110 1591.85,-106 1591.85,-74 1650.15,-74 1654.15,-78 1654.15,-110"/>
<polyline fill="none" stroke="#0044a0" points="1650.15,-106 1591.85,-106 "/>
<polyline fill="none" stroke="#0044a0" points="1650.15,-106 1650.15,-74 "/>
<polyline fill="none" stroke="#0044a0" points="1650.15,-106 1654.15,-110 "/>
<text text-anchor="middle" x="1623" y="-86" font-family="Times,serif" font-size="20.00" fill="#0044a0">views</text>
</g>
<!-- t57&#45;&gt;t58 -->
<g id="edge94" class="edge"><title>t57&#45;&gt;t58</title>
<path fill="none" stroke="#0044a0" d="M1788.08,-148.893C1747.01,-134.99 1697.91,-118.364 1663.99,-106.879"/>
<polygon fill="#0044a0" stroke="#0044a0" points="1665,-103.527 1654.41,-103.635 1662.76,-110.158 1665,-103.527"/>
</g>
<!-- t58&#45;&gt;t59 -->
<g id="edge101" class="edge"><title>t58&#45;&gt;t59</title>
<path fill="none" stroke="#0044a0" d="M1591.65,-86.177C1524.75,-75.8853 1368.27,-51.8107 1296.35,-40.7467"/>
<polygon fill="#0044a0" stroke="#0044a0" points="1296.79,-37.2732 1286.38,-39.2119 1295.73,-44.1918 1296.79,-37.2732"/>
</g>
<!-- t32 -->
<g id="node49" class="node"><title>t32</title>
<polygon fill="#ebf3ff" stroke="#0044a0" points="1271.49,-381.977 1430,-354.647 1588.51,-381.977 1588.36,-426.199 1271.64,-426.199 1271.49,-381.977"/>
<polygon fill="none" stroke="#0044a0" points="1267.48,-378.604 1430,-350.583 1592.52,-378.604 1592.34,-430.205 1267.66,-430.205 1267.48,-378.604"/>
<text text-anchor="middle" x="1430" y="-388.2" font-family="Times,serif" font-size="20.00" fill="#0044a0">loadPicardDuplicationStats</text>
</g>
<!-- t31&#45;&gt;t32 -->
<g id="edge99" class="edge"><title>t31&#45;&gt;t32</title>
<path fill="none" stroke="#0044a0" d="M1430,-485.278C1430,-473.224 1430,-456.528 1430,-440.781"/>
<polygon fill="#0044a0" stroke="#0044a0" points="1433.5,-440.629 1430,-430.629 1426.5,-440.629 1433.5,-440.629"/>
</g>
<!-- t55 -->
<g id="node50" class="node"><title>t55</title>
<polygon fill="#ebf3ff" stroke="#0044a0" points="1385.99,-193.6 1284.01,-193.6 1280.01,-189.6 1280.01,-157.6 1381.99,-157.6 1385.99,-161.6 1385.99,-193.6"/>
<polyline fill="none" stroke="#0044a0" points="1381.99,-189.6 1280.01,-189.6 "/>
<polyline fill="none" stroke="#0044a0" points="1381.99,-189.6 1381.99,-157.6 "/>
<polyline fill="none" stroke="#0044a0" points="1381.99,-189.6 1385.99,-193.6 "/>
<text text-anchor="middle" x="1333" y="-169.6" font-family="Times,serif" font-size="20.00" fill="#0044a0">duplication</text>
</g>
<!-- t32&#45;&gt;t55 -->
<g id="edge100" class="edge"><title>t32&#45;&gt;t55</title>
<path fill="none" stroke="#0044a0" d="M1412.21,-353.472C1392.63,-309.749 1361.7,-240.693 1344.87,-203.11"/>
<polygon fill="#0044a0" stroke="#0044a0" points="1348,-201.525 1340.72,-193.829 1341.61,-204.386 1348,-201.525"/>
</g>
<!-- t55&#45;&gt;t59 -->
<g id="edge102" class="edge"><title>t55&#45;&gt;t59</title>
<path fill="none" stroke="#0044a0" d="M1323.93,-157.482C1311.17,-133.411 1287.81,-89.353 1272.87,-61.1592"/>
<polygon fill="#0044a0" stroke="#0044a0" points="1275.92,-59.4539 1268.15,-52.2577 1269.74,-62.7324 1275.92,-59.4539"/>
</g>
<!-- k1_1 -->
<g id="node52" class="node"><title>k1_1</title>
<polygon fill="#ebf3ff" stroke="#0044a0" points="2654.76,-1025.38 2567.24,-1025.38 2563.24,-1021.38 2563.24,-980.777 2650.76,-980.777 2654.76,-984.777 2654.76,-1025.38"/>
<polyline fill="none" stroke="#0044a0" points="2650.76,-1021.38 2563.24,-1021.38 "/>
<polyline fill="none" stroke="#0044a0" points="2650.76,-1021.38 2650.76,-980.777 "/>
<polyline fill="none" stroke="#0044a0" points="2650.76,-1021.38 2654.76,-1025.38 "/>
<text text-anchor="middle" x="2609" y="-998.877" font-family="Times,serif" font-size="14.00" fill="#0044a0">Task to run</text>
</g>
<!-- k2_1 -->
<g id="node53" class="node"><title>k2_1</title>
<polygon fill="none" stroke="#0044a0" stroke-dasharray="5,2" points="2666.19,-940.102 2555.81,-940.102 2551.81,-936.102 2551.81,-878.9 2662.19,-878.9 2666.19,-882.9 2666.19,-940.102"/>
<polyline fill="none" stroke="#0044a0" stroke-dasharray="5,2" points="2662.19,-936.102 2551.81,-936.102 "/>
<polyline fill="none" stroke="#0044a0" stroke-dasharray="5,2" points="2662.19,-936.102 2662.19,-878.9 "/>
<polyline fill="none" stroke="#0044a0" stroke-dasharray="5,2" points="2662.19,-936.102 2666.19,-940.102 "/>
<text text-anchor="middle" x="2609" y="-913.701" font-family="Times,serif" font-size="14.00" fill="#0044a0">Up&#45;to&#45;date task</text>
<text text-anchor="middle" x="2609" y="-896.901" font-family="Times,serif" font-size="14.00" fill="#0044a0">forced to rerun</text>
</g>
<!-- k1_1&#45;&gt;k2_1 -->
<g id="edge105" class="edge"><title>k1_1&#45;&gt;k2_1</title>
<path fill="none" stroke="#0044a0" d="M2609,-980.375C2609,-971.41 2609,-960.723 2609,-950.436"/>
<polygon fill="#0044a0" stroke="#0044a0" points="2612.5,-950.362 2609,-940.362 2605.5,-950.362 2612.5,-950.362"/>
</g>
<!-- k3_1 -->
<g id="node54" class="node"><title>k3_1</title>
<polygon fill="#efa03b" stroke="black" points="2655.15,-838.225 2566.85,-838.225 2562.85,-834.225 2562.85,-793.625 2651.15,-793.625 2655.15,-797.625 2655.15,-838.225"/>
<polyline fill="none" stroke="black" points="2651.15,-834.225 2562.85,-834.225 "/>
<polyline fill="none" stroke="black" points="2651.15,-834.225 2651.15,-793.625 "/>
<polyline fill="none" stroke="black" points="2651.15,-834.225 2655.15,-838.225 "/>
<text text-anchor="middle" x="2609" y="-811.725" font-family="Times,serif" font-size="14.00">Final target</text>
</g>
<!-- k2_1&#45;&gt;k3_1 -->
<g id="edge106" class="edge"><title>k2_1&#45;&gt;k3_1</title>
<path fill="none" stroke="#0044a0" d="M2609,-878.769C2609,-869.104 2609,-858.346 2609,-848.548"/>
<polygon fill="#0044a0" stroke="#0044a0" points="2612.5,-848.39 2609,-838.39 2605.5,-848.39 2612.5,-848.39"/>
</g>
</g>
</svg>
