<?xml version="1.0" encoding="UTF-8" standalone="no"?>
<!DOCTYPE svg PUBLIC "-//W3C//DTD SVG 1.1//EN"
 "http://www.w3.org/Graphics/SVG/1.1/DTD/svg11.dtd">
<!-- Generated by graphviz version 2.38.0 (20140413.2041)
 -->
<!-- Title: Pipeline: Pages: 1 -->
<svg width="308pt" height="249pt"
 viewBox="0.00 0.00 308.00 249.20" xmlns="http://www.w3.org/2000/svg" xmlns:xlink="http://www.w3.org/1999/xlink">
<g id="graph0" class="graph" transform="scale(1 1) rotate(0) translate(4 245.2)">
<title>Pipeline:</title>
<polygon fill="white" stroke="none" points="-4,4 -4,-245.2 304,-245.2 304,4 -4,4"/>
<g id="clust1" class="cluster"><title>clustertasks</title>
<polygon fill="none" stroke="black" points="8,-8 8,-233.2 176,-233.2 176,-8 8,-8"/>
<text text-anchor="middle" x="92" y="-202.2" font-family="Times,serif" font-size="30.00" fill="#ff3232">Pipeline:</text>
</g>
<g id="clust2" class="cluster"><title>clusterkey1</title>
<polygon fill="#f6f4f4" stroke="#f6f4f4" points="184,-66 184,-225.6 292,-225.6 292,-66 184,-66"/>
<text text-anchor="middle" x="238" y="-203.6" font-family="Times,serif" font-size="20.00">Key:</text>
</g>
<!-- t0 -->
<g id="node1" class="node"><title>t0</title>
<polygon fill="#ebf3ff" stroke="#0044a0" points="148.75,-181.2 39.2497,-181.2 35.2497,-177.2 35.2497,-145.2 144.75,-145.2 148.75,-149.2 148.75,-181.2"/>
<polyline fill="none" stroke="#0044a0" points="144.75,-177.2 35.2497,-177.2 "/>
<polyline fill="none" stroke="#0044a0" points="144.75,-177.2 144.75,-145.2 "/>
<polyline fill="none" stroke="#0044a0" points="144.75,-177.2 148.75,-181.2 "/>
<text text-anchor="middle" x="92" y="-157.2" font-family="Times,serif" font-size="20.00" fill="#0044a0">countWords</text>
</g>
<!-- t1 -->
<g id="node2" class="node"><title>t1</title>
<polygon fill="#ebf3ff" stroke="#0044a0" points="168.146,-114.4 19.8536,-114.4 15.8536,-110.4 15.8536,-78.4 164.146,-78.4 168.146,-82.4 168.146,-114.4"/>
<polyline fill="none" stroke="#0044a0" points="164.146,-110.4 15.8536,-110.4 "/>
<polyline fill="none" stroke="#0044a0" points="164.146,-110.4 164.146,-78.4 "/>
<polyline fill="none" stroke="#0044a0" points="164.146,-110.4 168.146,-114.4 "/>
<text text-anchor="middle" x="92" y="-90.4" font-family="Times,serif" font-size="20.00" fill="#0044a0">loadWordCounts</text>
</g>
<!-- t0&#45;&gt;t1 -->
<g id="edge1" class="edge"><title>t0&#45;&gt;t1</title>
<path fill="none" stroke="#0044a0" d="M92,-145.175C92,-138.973 92,-131.794 92,-124.915"/>
<polygon fill="#0044a0" stroke="#0044a0" points="95.5001,-124.537 92,-114.537 88.5001,-124.537 95.5001,-124.537"/>
</g>
<!-- t2 -->
<g id="node3" class="node"><title>t2</title>
<polygon fill="#efa03b" stroke="black" points="119,-52 69,-52 65,-48 65,-16 115,-16 119,-20 119,-52"/>
<polyline fill="none" stroke="black" points="115,-48 65,-48 "/>
<polyline fill="none" stroke="black" points="115,-48 115,-16 "/>
<polyline fill="none" stroke="black" points="115,-48 119,-52 "/>
<text text-anchor="middle" x="92" y="-28" font-family="Times,serif" font-size="20.00">full</text>
</g>
<!-- t1&#45;&gt;t2 -->
<g id="edge2" class="edge"><title>t1&#45;&gt;t2</title>
<path fill="none" stroke="#0044a0" d="M92,-78.2533C92,-73.3226 92,-67.8171 92,-62.4301"/>
<polygon fill="#0044a0" stroke="#0044a0" points="95.5001,-62.3992 92,-52.3993 88.5001,-62.3993 95.5001,-62.3992"/>
</g>
<!-- k1_1 -->
<g id="node4" class="node"><title>k1_1</title>
<polygon fill="#ebf3ff" stroke="#0044a0" points="283.763,-185.5 196.237,-185.5 192.237,-181.5 192.237,-140.9 279.763,-140.9 283.763,-144.9 283.763,-185.5"/>
<polyline fill="none" stroke="#0044a0" points="279.763,-181.5 192.237,-181.5 "/>
<polyline fill="none" stroke="#0044a0" points="279.763,-181.5 279.763,-140.9 "/>
<polyline fill="none" stroke="#0044a0" points="279.763,-181.5 283.763,-185.5 "/>
<text text-anchor="middle" x="238" y="-159" font-family="Times,serif" font-size="14.00" fill="#0044a0">Task to run</text>
</g>
<!-- k2_1 -->
<g id="node5" class="node"><title>k2_1</title>
<polygon fill="#efa03b" stroke="black" points="284.15,-118.7 195.85,-118.7 191.85,-114.7 191.85,-74.0996 280.15,-74.0996 284.15,-78.0996 284.15,-118.7"/>
<polyline fill="none" stroke="black" points="280.15,-114.7 191.85,-114.7 "/>
<polyline fill="none" stroke="black" points="280.15,-114.7 280.15,-74.0996 "/>
<polyline fill="none" stroke="black" points="280.15,-114.7 284.15,-118.7 "/>
<text text-anchor="middle" x="238" y="-92.2" font-family="Times,serif" font-size="14.00">Final target</text>
</g>
<!-- k1_1&#45;&gt;k2_1 -->
<g id="edge3" class="edge"><title>k1_1&#45;&gt;k2_1</title>
<path fill="none" stroke="#0044a0" d="M238,-140.623C238,-136.945 238,-133.058 238,-129.183"/>
<polygon fill="#0044a0" stroke="#0044a0" points="241.5,-129.104 238,-119.104 234.5,-129.104 241.5,-129.104"/>
</g>
</g>
</svg>
