<?xml version="1.0" encoding="UTF-8" standalone="no"?>
<!DOCTYPE svg PUBLIC "-//W3C//DTD SVG 1.1//EN"
 "http://www.w3.org/Graphics/SVG/1.1/DTD/svg11.dtd">
<!-- Generated by graphviz version 2.38.0 (20140413.2041)
 -->
<!-- Title: Pipeline: Pages: 1 -->
<svg width="1507pt" height="607pt"
 viewBox="0.00 0.00 1507.00 607.14" xmlns="http://www.w3.org/2000/svg" xmlns:xlink="http://www.w3.org/1999/xlink">
<g id="graph0" class="graph" transform="scale(1 1) rotate(0) translate(4 603.135)">
<title>Pipeline:</title>
<polygon fill="white" stroke="none" points="-4,4 -4,-603.135 1503,-603.135 1503,4 -4,4"/>
<g id="clust1" class="cluster"><title>clustertasks</title>
<polygon fill="none" stroke="black" points="8,-8 8,-591.135 1353,-591.135 1353,-8 8,-8"/>
<text text-anchor="middle" x="680.5" y="-560.135" font-family="Times,serif" font-size="30.00" fill="#ff3232">Pipeline:</text>
</g>
<g id="clust2" class="cluster"><title>clusterkey1</title>
<polygon fill="#f6f4f4" stroke="#f6f4f4" points="1361,-316.727 1361,-573.535 1491,-573.535 1491,-316.727 1361,-316.727"/>
<text text-anchor="middle" x="1426" y="-551.535" font-family="Times,serif" font-size="20.00">Key:</text>
</g>
<!-- t21 -->
<g id="node1" class="node"><title>t21</title>
<polygon fill="#ebf3ff" stroke="#0044a0" points="985.688,-188 736.312,-188 732.312,-184 732.312,-132 981.688,-132 985.688,-136 985.688,-188"/>
<polyline fill="none" stroke="#0044a0" points="981.688,-184 732.312,-184 "/>
<polyline fill="none" stroke="#0044a0" points="981.688,-184 981.688,-132 "/>
<polyline fill="none" stroke="#0044a0" points="981.688,-184 985.688,-188 "/>
<text text-anchor="middle" x="859" y="-166" font-family="Times,serif" font-size="20.00" fill="#0044a0">mkdir(&#39;cytoscape.dir&#39;) </text>
<text text-anchor="middle" x="859" y="-142" font-family="Times,serif" font-size="20.00" fill="#0044a0">before makeCytoscapeInputs </text>
</g>
<!-- t10 -->
<g id="node13" class="node"><title>t10</title>
<polygon fill="none" stroke="#0044a0" stroke-dasharray="5,2" points="690.116,-110 501.884,-110 497.884,-106 497.884,-74 686.116,-74 690.116,-78 690.116,-110"/>
<polyline fill="none" stroke="#0044a0" stroke-dasharray="5,2" points="686.116,-106 497.884,-106 "/>
<polyline fill="none" stroke="#0044a0" stroke-dasharray="5,2" points="686.116,-106 686.116,-74 "/>
<polyline fill="none" stroke="#0044a0" stroke-dasharray="5,2" points="686.116,-106 690.116,-110 "/>
<text text-anchor="middle" x="594" y="-86" font-family="Times,serif" font-size="20.00" fill="#0044a0">makeCytoscapeInputs</text>
</g>
<!-- t21&#45;&gt;t10 -->
<g id="edge13" class="edge"><title>t21&#45;&gt;t10</title>
<path fill="none" stroke="#0044a0" d="M750.45,-131.965C724.319,-125.457 696.903,-118.629 672.451,-112.539"/>
<polygon fill="#0044a0" stroke="#0044a0" points="673.074,-109.087 662.524,-110.066 671.382,-115.879 673.074,-109.087"/>
</g>
<!-- t17 -->
<g id="node2" class="node"><title>t17</title>
<polygon fill="#ebf3ff" stroke="#0044a0" points="1344.95,-281.563 1047.05,-281.563 1043.05,-277.563 1043.05,-225.563 1340.95,-225.563 1344.95,-229.563 1344.95,-281.563"/>
<polyline fill="none" stroke="#0044a0" points="1340.95,-277.563 1043.05,-277.563 "/>
<polyline fill="none" stroke="#0044a0" points="1340.95,-277.563 1340.95,-225.563 "/>
<polyline fill="none" stroke="#0044a0" points="1340.95,-277.563 1344.95,-281.563 "/>
<text text-anchor="middle" x="1194" y="-259.563" font-family="Times,serif" font-size="20.00" fill="#0044a0">mkdir(&#39;results.dir&#39;) </text>
<text text-anchor="middle" x="1194" y="-235.563" font-family="Times,serif" font-size="20.00" fill="#0044a0">before foregroundsVsBackgrounds </text>
</g>
<!-- t8 -->
<g id="node12" class="node"><title>t8</title>
<polygon fill="none" stroke="#0044a0" stroke-dasharray="5,2" points="714.376,-178 477.624,-178 473.624,-174 473.624,-142 710.376,-142 714.376,-146 714.376,-178"/>
<polyline fill="none" stroke="#0044a0" stroke-dasharray="5,2" points="710.376,-174 473.624,-174 "/>
<polyline fill="none" stroke="#0044a0" stroke-dasharray="5,2" points="710.376,-174 710.376,-142 "/>
<polyline fill="none" stroke="#0044a0" stroke-dasharray="5,2" points="710.376,-174 714.376,-178 "/>
<text text-anchor="middle" x="594" y="-154" font-family="Times,serif" font-size="20.00" fill="#0044a0">foregroundsVsBackgrounds</text>
</g>
<!-- t17&#45;&gt;t8 -->
<g id="edge7" class="edge"><title>t17&#45;&gt;t8</title>
<path fill="none" stroke="#0044a0" d="M1101.26,-225.509C1077.85,-219.549 1052.65,-213.868 1029,-210 894.437,-187.992 858.035,-206.898 723,-188 707.943,-185.893 692.012,-183.061 676.675,-180.022"/>
<polygon fill="#0044a0" stroke="#0044a0" points="677.193,-176.555 666.697,-178 675.803,-183.416 677.193,-176.555"/>
</g>
<!-- t20 -->
<g id="node3" class="node"><title>t20</title>
<polygon fill="#ebf3ff" stroke="#0044a0" points="1077.55,-539.135 854.448,-539.135 850.448,-535.135 850.448,-483.135 1073.55,-483.135 1077.55,-487.135 1077.55,-539.135"/>
<polyline fill="none" stroke="#0044a0" points="1073.55,-535.135 850.448,-535.135 "/>
<polyline fill="none" stroke="#0044a0" points="1073.55,-535.135 1073.55,-483.135 "/>
<polyline fill="none" stroke="#0044a0" points="1073.55,-535.135 1077.55,-539.135 "/>
<text text-anchor="middle" x="964" y="-517.135" font-family="Times,serif" font-size="20.00" fill="#0044a0">mkdir(&#39;annotations.dir&#39;) </text>
<text text-anchor="middle" x="964" y="-493.135" font-family="Times,serif" font-size="20.00" fill="#0044a0">before getDBAnnotations </text>
</g>
<!-- t2 -->
<g id="node4" class="node"><title>t2</title>
<polygon fill="#ebf3ff" stroke="#0044a0" points="1109.16,-437.775 964,-457.104 818.843,-437.775 818.979,-406.501 1109.02,-406.501 1109.16,-437.775"/>
<polygon fill="none" stroke="#0044a0" points="1113.17,-441.276 964,-461.14 814.826,-441.276 814.994,-402.5 1113.01,-402.5 1113.17,-441.276"/>
<text text-anchor="middle" x="964" y="-423.131" font-family="Times,serif" font-size="20.00" fill="#0044a0">getDBAnnotations</text>
</g>
<!-- t20&#45;&gt;t2 -->
<g id="edge1" class="edge"><title>t20&#45;&gt;t2</title>
<path fill="none" stroke="#0044a0" d="M964,-483.05C964,-479.341 964,-475.466 964,-471.573"/>
<polygon fill="#0044a0" stroke="#0044a0" points="967.5,-471.328 964,-461.328 960.5,-471.328 967.5,-471.328"/>
</g>
<!-- t3 -->
<g id="node5" class="node"><title>t3</title>
<polygon fill="#ebf3ff" stroke="#0044a0" points="1081.96,-365.127 850.044,-365.127 846.044,-361.127 846.044,-329.127 1077.96,-329.127 1081.96,-333.127 1081.96,-365.127"/>
<polyline fill="none" stroke="#0044a0" points="1077.96,-361.127 846.044,-361.127 "/>
<polyline fill="none" stroke="#0044a0" points="1077.96,-361.127 1077.96,-329.127 "/>
<polyline fill="none" stroke="#0044a0" points="1077.96,-361.127 1081.96,-365.127 "/>
<text text-anchor="middle" x="964" y="-341.127" font-family="Times,serif" font-size="20.00" fill="#0044a0">mapUnmappedAnnotations</text>
</g>
<!-- t2&#45;&gt;t3 -->
<g id="edge2" class="edge"><title>t2&#45;&gt;t3</title>
<path fill="none" stroke="#0044a0" d="M964,-402.377C964,-393.803 964,-384.226 964,-375.532"/>
<polygon fill="#0044a0" stroke="#0044a0" points="967.5,-375.493 964,-365.493 960.5,-375.493 967.5,-375.493"/>
</g>
<!-- t7 -->
<g id="node6" class="node"><title>t7</title>
<polygon fill="#ebf3ff" stroke="#0044a0" points="695.5,-241.339 848,-214.006 1000.5,-241.339 1000.36,-285.566 695.642,-285.566 695.5,-241.339"/>
<polygon fill="none" stroke="#0044a0" points="691.495,-237.988 848,-209.937 1004.5,-237.988 1004.34,-289.572 691.661,-289.572 691.495,-237.988"/>
<text text-anchor="middle" x="848" y="-247.563" font-family="Times,serif" font-size="20.00" fill="#0044a0">buildStandardBackground</text>
</g>
<!-- t3&#45;&gt;t7 -->
<g id="edge3" class="edge"><title>t3&#45;&gt;t7</title>
<path fill="none" stroke="#0044a0" d="M942.453,-329.119C930.623,-319.781 915.389,-307.756 900.625,-296.102"/>
<polygon fill="#0044a0" stroke="#0044a0" points="902.513,-293.133 892.495,-289.685 898.176,-298.628 902.513,-293.133"/>
</g>
<!-- t3&#45;&gt;t8 -->
<g id="edge12" class="edge"><title>t3&#45;&gt;t8</title>
<path fill="none" stroke="#0044a0" d="M988.658,-328.969C998.498,-320.624 1008.73,-309.677 1014,-297.127 1029,-261.427 1040.33,-238.395 1014,-210 991.953,-186.223 755.104,-192.553 723,-188 708.04,-185.878 692.215,-183.055 676.965,-180.032"/>
<polygon fill="#0044a0" stroke="#0044a0" points="677.538,-176.577 667.043,-178.023 676.149,-183.438 677.538,-176.577"/>
</g>
<!-- t7&#45;&gt;t8 -->
<g id="edge8" class="edge"><title>t7&#45;&gt;t8</title>
<path fill="none" stroke="#0044a0" d="M768.678,-223.969C730.492,-210.203 685.579,-194.013 650.858,-181.496"/>
<polygon fill="#0044a0" stroke="#0044a0" points="651.943,-178.167 641.349,-178.069 649.57,-184.753 651.943,-178.167"/>
</g>
<!-- t19 -->
<g id="node7" class="node"><title>t19</title>
<polygon fill="#ebf3ff" stroke="#0044a0" points="768.944,-375.127 501.056,-375.127 497.056,-371.127 497.056,-319.127 764.944,-319.127 768.944,-323.127 768.944,-375.127"/>
<polyline fill="none" stroke="#0044a0" points="764.944,-371.127 497.056,-371.127 "/>
<polyline fill="none" stroke="#0044a0" points="764.944,-371.127 764.944,-319.127 "/>
<polyline fill="none" stroke="#0044a0" points="764.944,-371.127 768.944,-375.127 "/>
<text text-anchor="middle" x="633" y="-353.127" font-family="Times,serif" font-size="20.00" fill="#0044a0">mkdir(&#39;clean_foregrounds.dir&#39;) </text>
<text text-anchor="middle" x="633" y="-329.127" font-family="Times,serif" font-size="20.00" fill="#0044a0">before cleanForegrounds </text>
</g>
<!-- t4 -->
<g id="node8" class="node"><title>t4</title>
<polygon fill="none" stroke="#0044a0" stroke-dasharray="5,2" points="673.782,-271.563 518.218,-271.563 514.218,-267.563 514.218,-235.563 669.782,-235.563 673.782,-239.563 673.782,-271.563"/>
<polyline fill="none" stroke="#0044a0" stroke-dasharray="5,2" points="669.782,-267.563 514.218,-267.563 "/>
<polyline fill="none" stroke="#0044a0" stroke-dasharray="5,2" points="669.782,-267.563 669.782,-235.563 "/>
<polyline fill="none" stroke="#0044a0" stroke-dasharray="5,2" points="669.782,-267.563 673.782,-271.563 "/>
<text text-anchor="middle" x="594" y="-247.563" font-family="Times,serif" font-size="20.00" fill="#0044a0">cleanForegrounds</text>
</g>
<!-- t19&#45;&gt;t4 -->
<g id="edge4" class="edge"><title>t19&#45;&gt;t4</title>
<path fill="none" stroke="#0044a0" d="M621.299,-318.655C616.215,-306.72 610.285,-292.798 605.254,-280.984"/>
<polygon fill="#0044a0" stroke="#0044a0" points="608.415,-279.475 601.276,-271.646 601.975,-282.218 608.415,-279.475"/>
</g>
<!-- t4&#45;&gt;t8 -->
<g id="edge11" class="edge"><title>t4&#45;&gt;t8</title>
<path fill="none" stroke="#0044a0" d="M594,-235.341C594,-222.168 594,-203.743 594,-188.532"/>
<polygon fill="#0044a0" stroke="#0044a0" points="597.5,-188.145 594,-178.145 590.5,-188.145 597.5,-188.145"/>
</g>
<!-- t22 -->
<g id="node9" class="node"><title>t22</title>
<polygon fill="#ebf3ff" stroke="#0044a0" points="517.506,-457.131 244.494,-457.131 240.494,-453.131 240.494,-401.131 513.506,-401.131 517.506,-405.131 517.506,-457.131"/>
<polyline fill="none" stroke="#0044a0" points="513.506,-453.131 240.494,-453.131 "/>
<polyline fill="none" stroke="#0044a0" points="513.506,-453.131 513.506,-401.131 "/>
<polyline fill="none" stroke="#0044a0" points="513.506,-453.131 517.506,-457.131 "/>
<text text-anchor="middle" x="379" y="-435.131" font-family="Times,serif" font-size="20.00" fill="#0044a0">mkdir(&#39;clean_backgrounds.dir&#39;) </text>
<text text-anchor="middle" x="379" y="-411.131" font-family="Times,serif" font-size="20.00" fill="#0044a0">before cleanUserBackgrounds </text>
</g>
<!-- t5 -->
<g id="node10" class="node"><title>t5</title>
<polygon fill="none" stroke="#0044a0" stroke-dasharray="5,2" points="479.975,-365.127 282.025,-365.127 278.025,-361.127 278.025,-329.127 475.975,-329.127 479.975,-333.127 479.975,-365.127"/>
<polyline fill="none" stroke="#0044a0" stroke-dasharray="5,2" points="475.975,-361.127 278.025,-361.127 "/>
<polyline fill="none" stroke="#0044a0" stroke-dasharray="5,2" points="475.975,-361.127 475.975,-329.127 "/>
<polyline fill="none" stroke="#0044a0" stroke-dasharray="5,2" points="475.975,-361.127 479.975,-365.127 "/>
<text text-anchor="middle" x="379" y="-341.127" font-family="Times,serif" font-size="20.00" fill="#0044a0">cleanUserBackgrounds</text>
</g>
<!-- t22&#45;&gt;t5 -->
<g id="edge5" class="edge"><title>t22&#45;&gt;t5</title>
<path fill="none" stroke="#0044a0" d="M379,-401.045C379,-392.85 379,-383.845 379,-375.623"/>
<polygon fill="#0044a0" stroke="#0044a0" points="382.5,-375.4 379,-365.4 375.5,-375.4 382.5,-375.4"/>
</g>
<!-- t6 -->
<g id="node11" class="node"><title>t6</title>
<polygon fill="#ebf3ff" stroke="#0044a0" points="476.362,-271.563 285.638,-271.563 281.638,-267.563 281.638,-235.563 472.362,-235.563 476.362,-239.563 476.362,-271.563"/>
<polyline fill="none" stroke="#0044a0" points="472.362,-267.563 281.638,-267.563 "/>
<polyline fill="none" stroke="#0044a0" points="472.362,-267.563 472.362,-235.563 "/>
<polyline fill="none" stroke="#0044a0" points="472.362,-267.563 476.362,-271.563 "/>
<text text-anchor="middle" x="379" y="-247.563" font-family="Times,serif" font-size="20.00" fill="#0044a0">buildHPABackground</text>
</g>
<!-- t5&#45;&gt;t6 -->
<g id="edge6" class="edge"><title>t5&#45;&gt;t6</title>
<path fill="none" stroke="#0044a0" d="M379,-328.904C379,-315.732 379,-297.307 379,-282.095"/>
<polygon fill="#0044a0" stroke="#0044a0" points="382.5,-281.708 379,-271.709 375.5,-281.709 382.5,-281.708"/>
</g>
<!-- t5&#45;&gt;t8 -->
<g id="edge10" class="edge"><title>t5&#45;&gt;t8</title>
<path fill="none" stroke="#0044a0" d="M440.0px9,-329.031C456.804,-321.671 473.439,-311.374 485,-297.127 510.035,-266.277 481.064,-241.711 505,-210 513.38,-198.898 525.042,-189.986 537.17,-182.969"/>
<polygon fill="#0044a0" stroke="#0044a0" points="538.898,-186.013 546.043,-178.189 535.579,-179.85 538.898,-186.013"/>
</g>
<!-- t6&#45;&gt;t8 -->
<g id="edge9" class="edge"><title>t6&#45;&gt;t8</title>
<path fill="none" stroke="#0044a0" d="M418.936,-235.556C454.424,-220.442 506.433,-198.292 544.543,-182.063"/>
<polygon fill="#0044a0" stroke="#0044a0" points="546.085,-185.21 553.914,-178.072 543.342,-178.77 546.085,-185.21"/>
</g>
<!-- t8&#45;&gt;t10 -->
<g id="edge14" class="edge"><title>t8&#45;&gt;t10</title>
<path fill="none" stroke="#0044a0" d="M594,-141.659C594,-135.193 594,-127.682 594,-120.525"/>
<polygon fill="#0044a0" stroke="#0044a0" points="597.5,-120.454 594,-110.454 590.5,-120.454 597.5,-120.454"/>
</g>
<!-- t11 -->
<g id="node17" class="node"><title>t11</title>
<polygon fill="#efa03b" stroke="black" points="499,-52 449,-52 445,-48 445,-16 495,-16 499,-20 499,-52"/>
<polyline fill="none" stroke="black" points="495,-48 445,-48 "/>
<polyline fill="none" stroke="black" points="495,-48 495,-16 "/>
<polyline fill="none" stroke="black" points="495,-48 499,-52 "/>
<text text-anchor="middle" x="472" y="-28" font-family="Times,serif" font-size="20.00">full</text>
</g>
<!-- t10&#45;&gt;t11 -->
<g id="edge17" class="edge"><title>t10&#45;&gt;t11</title>
<path fill="none" stroke="#0044a0" d="M556.733,-73.8939C541.413,-66.8618 523.727,-58.7435 508.489,-51.7489"/>
<polygon fill="#0044a0" stroke="#0044a0" points="509.909,-48.5496 499.36,-47.5588 506.988,-54.9114 509.909,-48.5496"/>
</g>
<!-- t16 -->
<g id="node14" class="node"><title>t16</title>
<polygon fill="#ebf3ff" stroke="#0044a0" points="263.504,-281.563 20.496,-281.563 16.496,-277.563 16.496,-225.563 259.504,-225.563 263.504,-229.563 263.504,-281.563"/>
<polyline fill="none" stroke="#0044a0" points="259.504,-277.563 16.496,-277.563 "/>
<polyline fill="none" stroke="#0044a0" points="259.504,-277.563 259.504,-225.563 "/>
<polyline fill="none" stroke="#0044a0" points="259.504,-277.563 263.504,-281.563 "/>
<text text-anchor="middle" x="140" y="-259.563" font-family="Times,serif" font-size="20.00" fill="#0044a0">mkdir(&#39;gsea_processed.dir&#39;) </text>
<text text-anchor="middle" x="140" y="-235.563" font-family="Times,serif" font-size="20.00" fill="#0044a0">before preprocessGsea </text>
</g>
<!-- t0 -->
<g id="node15" class="node"><title>t0</title>
<polygon fill="none" stroke="#0044a0" stroke-dasharray="5,2" points="333.979,-178 196.021,-178 192.021,-174 192.021,-142 329.979,-142 333.979,-146 333.979,-178"/>
<polyline fill="none" stroke="#0044a0" stroke-dasharray="5,2" points="329.979,-174 192.021,-174 "/>
<polyline fill="none" stroke="#0044a0" stroke-dasharray="5,2" points="329.979,-174 329.979,-142 "/>
<polyline fill="none" stroke="#0044a0" stroke-dasharray="5,2" points="329.979,-174 333.979,-178 "/>
<text text-anchor="middle" x="263" y="-154" font-family="Times,serif" font-size="20.00" fill="#0044a0">preprocessGsea</text>
</g>
<!-- t16&#45;&gt;t0 -->
<g id="edge15" class="edge"><title>t16&#45;&gt;t0</title>
<path fill="none" stroke="#0044a0" d="M176.571,-225.339C194.059,-212.321 214.784,-196.893 231.555,-184.408"/>
<polygon fill="#0044a0" stroke="#0044a0" points="233.995,-186.955 239.927,-178.176 229.815,-181.34 233.995,-186.955"/>
</g>
<!-- t1 -->
<g id="node16" class="node"><title>t1</title>
<polygon fill="none" stroke="#0044a0" stroke-dasharray="5,2" points="391.131,-110 312.869,-110 308.869,-106 308.869,-74 387.131,-74 391.131,-78 391.131,-110"/>
<polyline fill="none" stroke="#0044a0" stroke-dasharray="5,2" points="387.131,-106 308.869,-106 "/>
<polyline fill="none" stroke="#0044a0" stroke-dasharray="5,2" points="387.131,-106 387.131,-74 "/>
<polyline fill="none" stroke="#0044a0" stroke-dasharray="5,2" points="387.131,-106 391.131,-110 "/>
<text text-anchor="middle" x="350" y="-86" font-family="Times,serif" font-size="20.00" fill="#0044a0">runGsea</text>
</g>
<!-- t0&#45;&gt;t1 -->
<g id="edge16" class="edge"><title>t0&#45;&gt;t1</title>
<path fill="none" stroke="#0044a0" d="M285.858,-141.659C296.048,-133.929 308.206,-124.706 319.183,-116.379"/>
<polygon fill="#0044a0" stroke="#0044a0" points="321.443,-119.057 327.294,-110.225 317.212,-113.48 321.443,-119.057"/>
</g>
<!-- t1&#45;&gt;t11 -->
<g id="edge18" class="edge"><title>t1&#45;&gt;t11</title>
<path fill="none" stroke="#0044a0" d="M387.267,-73.8939C402.587,-66.8618 420.273,-58.7435 435.511,-51.7489"/>
<polygon fill="#0044a0" stroke="#0044a0" points="437.012,-54.9114 444.64,-47.5588 434.091,-48.5496 437.012,-54.9114"/>
</g>
<!-- k1_1 -->
<g id="node18" class="node"><title>k1_1</title>
<polygon fill="#ebf3ff" stroke="#0044a0" points="1471.76,-533.436 1384.24,-533.436 1380.24,-529.436 1380.24,-488.835 1467.76,-488.835 1471.76,-492.835 1471.76,-533.436"/>
<polyline fill="none" stroke="#0044a0" points="1467.76,-529.436 1380.24,-529.436 "/>
<polyline fill="none" stroke="#0044a0" points="1467.76,-529.436 1467.76,-488.835 "/>
<polyline fill="none" stroke="#0044a0" points="1467.76,-529.436 1471.76,-533.436 "/>
<text text-anchor="middle" x="1426" y="-506.935" font-family="Times,serif" font-size="14.00" fill="#0044a0">Task to run</text>
</g>
<!-- k2_1 -->
<g id="node19" class="node"><title>k2_1</title>
<polygon fill="none" stroke="#0044a0" stroke-dasharray="5,2" points="1483.19,-459.732 1372.81,-459.732 1368.81,-455.732 1368.81,-398.53 1479.19,-398.53 1483.19,-402.53 1483.19,-459.732"/>
<polyline fill="none" stroke="#0044a0" stroke-dasharray="5,2" points="1479.19,-455.732 1368.81,-455.732 "/>
<polyline fill="none" stroke="#0044a0" stroke-dasharray="5,2" points="1479.19,-455.732 1479.19,-398.53 "/>
<polyline fill="none" stroke="#0044a0" stroke-dasharray="5,2" points="1479.19,-455.732 1483.19,-459.732 "/>
<text text-anchor="middle" x="1426" y="-433.331" font-family="Times,serif" font-size="14.00" fill="#0044a0">Up&#45;to&#45;date task</text>
<text text-anchor="middle" x="1426" y="-416.531" font-family="Times,serif" font-size="14.00" fill="#0044a0">forced to rerun</text>
</g>
<!-- k1_1&#45;&gt;k2_1 -->
<g id="edge19" class="edge"><title>k1_1&#45;&gt;k2_1</title>
<path fill="none" stroke="#0044a0" d="M1426,-488.696C1426,-482.864 1426,-476.355 1426,-469.857"/>
<polygon fill="#0044a0" stroke="#0044a0" points="1429.5,-469.751 1426,-459.751 1422.5,-469.751 1429.5,-469.751"/>
</g>
<!-- k3_1 -->
<g id="node20" class="node"><title>k3_1</title>
<polygon fill="#efa03b" stroke="black" points="1472.15,-369.427 1383.85,-369.427 1379.85,-365.427 1379.85,-324.826 1468.15,-324.826 1472.15,-328.826 1472.15,-369.427"/>
<polyline fill="none" stroke="black" points="1468.15,-365.427 1379.85,-365.427 "/>
<polyline fill="none" stroke="black" points="1468.15,-365.427 1468.15,-324.826 "/>
<polyline fill="none" stroke="black" points="1468.15,-365.427 1472.15,-369.427 "/>
<text text-anchor="middle" x="1426" y="-342.927" font-family="Times,serif" font-size="14.00">Final target</text>
</g>
<!-- k2_1&#45;&gt;k3_1 -->
<g id="edge20" class="edge"><title>k2_1&#45;&gt;k3_1</title>
<path fill="none" stroke="#0044a0" d="M1426,-398.34C1426,-392.193 1426,-385.701 1426,-379.499"/>
<polygon fill="#0044a0" stroke="#0044a0" points="1429.5,-379.448 1426,-369.448 1422.5,-379.448 1429.5,-379.448"/>
</g>
</g>
</svg>
