<?xml version="1.0" encoding="UTF-8" standalone="no"?>
<!DOCTYPE svg PUBLIC "-//W3C//DTD SVG 1.1//EN"
 "http://www.w3.org/Graphics/SVG/1.1/DTD/svg11.dtd">
<!-- Generated by graphviz version 2.38.0 (20140413.2041)
 -->
<!-- Title: Pipeline: Pages: 1 -->
<svg width="864pt" height="469pt"
 viewBox="0.00 0.00 864.00 468.80" xmlns="http://www.w3.org/2000/svg" xmlns:xlink="http://www.w3.org/1999/xlink">
<g id="graph0" class="graph" transform="scale(1 1) rotate(0) translate(4 464.8)">
<title>Pipeline:</title>
<polygon fill="white" stroke="none" points="-4,4 -4,-464.8 860,-464.8 860,4 -4,4"/>
<g id="clust1" class="cluster"><title>clustertasks</title>
<polygon fill="none" stroke="black" points="8,-8 8,-452.8 710,-452.8 710,-8 8,-8"/>
<text text-anchor="middle" x="359" y="-421.8" font-family="Times,serif" font-size="30.00" fill="#ff3232">Pipeline:</text>
</g>
<g id="clust2" class="cluster"><title>clusterkey1</title>
<polygon fill="#f6f4f4" stroke="#f6f4f4" points="718,-202 718,-445.2 848,-445.2 848,-202 718,-202"/>
<text text-anchor="middle" x="783" y="-423.2" font-family="Times,serif" font-size="20.00">Key:</text>
</g>
<!-- t0 -->
<g id="node1" class="node"><title>t0</title>
<polygon fill="#ebf3ff" stroke="#0044a0" points="541.742,-400.8 316.258,-400.8 312.258,-396.8 312.258,-364.8 537.742,-364.8 541.742,-368.8 541.742,-400.8"/>
<polyline fill="none" stroke="#0044a0" points="537.742,-396.8 312.258,-396.8 "/>
<polyline fill="none" stroke="#0044a0" points="537.742,-396.8 537.742,-364.8 "/>
<polyline fill="none" stroke="#0044a0" points="537.742,-396.8 541.742,-400.8 "/>
<text text-anchor="middle" x="427" y="-376.8" font-family="Times,serif" font-size="20.00" fill="#0044a0">GetAndTranslateAllGenes</text>
</g>
<!-- t3 -->
<g id="node2" class="node"><title>t3</title>
<polygon fill="#ebf3ff" stroke="#0044a0" points="310.114,-325.6 81.8857,-325.6 77.8857,-321.6 77.8857,-289.6 306.114,-289.6 310.114,-293.6 310.114,-325.6"/>
<polyline fill="none" stroke="#0044a0" points="306.114,-321.6 77.8857,-321.6 "/>
<polyline fill="none" stroke="#0044a0" points="306.114,-321.6 306.114,-289.6 "/>
<polyline fill="none" stroke="#0044a0" points="306.114,-321.6 310.114,-325.6 "/>
<text text-anchor="middle" x="194" y="-301.6" font-family="Times,serif" font-size="20.00" fill="#0044a0">AnnotateWithHomologene</text>
</g>
<!-- t0&#45;&gt;t3 -->
<g id="edge1" class="edge"><title>t0&#45;&gt;t3</title>
<path fill="none" stroke="#0044a0" d="M372.666,-364.73C338.495,-353.995 294.234,-340.09 258.315,-328.805"/>
<polygon fill="#0044a0" stroke="#0044a0" points="259.01,-325.355 248.42,-325.697 256.911,-332.033 259.01,-325.355"/>
</g>
<!-- t2 -->
<g id="node6" class="node"><title>t2</title>
<polygon fill="#ebf3ff" stroke="#0044a0" points="526.174,-325.6 331.826,-325.6 327.826,-321.6 327.826,-289.6 522.174,-289.6 526.174,-293.6 526.174,-325.6"/>
<polyline fill="none" stroke="#0044a0" points="522.174,-321.6 327.826,-321.6 "/>
<polyline fill="none" stroke="#0044a0" points="522.174,-321.6 522.174,-289.6 "/>
<polyline fill="none" stroke="#0044a0" points="522.174,-321.6 526.174,-325.6 "/>
<text text-anchor="middle" x="427" y="-301.6" font-family="Times,serif" font-size="20.00" fill="#0044a0">AnnotateWithPathway</text>
</g>
<!-- t0&#45;&gt;t2 -->
<g id="edge5" class="edge"><title>t0&#45;&gt;t2</title>
<path fill="none" stroke="#0044a0" d="M427,-364.453C427,-355.975 427,-345.57 427,-336.048"/>
<polygon fill="#0044a0" stroke="#0044a0" points="430.5,-335.823 427,-325.823 423.5,-335.823 430.5,-335.823"/>
</g>
<!-- t1 -->
<g id="node7" class="node"><title>t1</title>
<polygon fill="#ebf3ff" stroke="#0044a0" points="702.18,-325.6 547.82,-325.6 543.82,-321.6 543.82,-289.6 698.18,-289.6 702.18,-293.6 702.18,-325.6"/>
<polyline fill="none" stroke="#0044a0" points="698.18,-321.6 543.82,-321.6 "/>
<polyline fill="none" stroke="#0044a0" points="698.18,-321.6 698.18,-289.6 "/>
<polyline fill="none" stroke="#0044a0" points="698.18,-321.6 702.18,-325.6 "/>
<text text-anchor="middle" x="623" y="-301.6" font-family="Times,serif" font-size="20.00" fill="#0044a0">AnnotateWithGO</text>
</g>
<!-- t0&#45;&gt;t1 -->
<g id="edge6" class="edge"><title>t0&#45;&gt;t1</title>
<path fill="none" stroke="#0044a0" d="M472.953,-364.638C501.337,-354.038 537.925,-340.373 567.866,-329.191"/>
<polygon fill="#0044a0" stroke="#0044a0" points="569.191,-332.432 577.335,-325.655 566.742,-325.875 569.191,-332.432"/>
</g>
<!-- t6 -->
<g id="node3" class="node"><title>t6</title>
<polygon fill="#ebf3ff" stroke="#0044a0" points="185.798,-250.4 20.2017,-250.4 16.2017,-246.4 16.2017,-214.4 181.798,-214.4 185.798,-218.4 185.798,-250.4"/>
<polyline fill="none" stroke="#0044a0" points="181.798,-246.4 16.2017,-246.4 "/>
<polyline fill="none" stroke="#0044a0" points="181.798,-246.4 181.798,-214.4 "/>
<polyline fill="none" stroke="#0044a0" points="181.798,-246.4 185.798,-250.4 "/>
<text text-anchor="middle" x="101" y="-226.4" font-family="Times,serif" font-size="20.00" fill="#0044a0">AnnotateWithHPO</text>
</g>
<!-- t3&#45;&gt;t6 -->
<g id="edge2" class="edge"><title>t3&#45;&gt;t6</title>
<path fill="none" stroke="#0044a0" d="M171.96,-289.253C159.683,-279.59 144.226,-267.423 130.875,-256.915"/>
<polygon fill="#0044a0" stroke="#0044a0" points="132.904,-254.058 122.882,-250.623 128.575,-259.558 132.904,-254.058"/>
</g>
<!-- t4 -->
<g id="node4" class="node"><title>t4</title>
<polygon fill="#ebf3ff" stroke="#0044a0" points="456.108,-250.4 207.892,-250.4 203.892,-246.4 203.892,-214.4 452.108,-214.4 456.108,-218.4 456.108,-250.4"/>
<polyline fill="none" stroke="#0044a0" points="452.108,-246.4 203.892,-246.4 "/>
<polyline fill="none" stroke="#0044a0" points="452.108,-246.4 452.108,-214.4 "/>
<polyline fill="none" stroke="#0044a0" points="452.108,-246.4 456.108,-250.4 "/>
<text text-anchor="middle" x="330" y="-226.4" font-family="Times,serif" font-size="20.00" fill="#0044a0">AnnotateWithMousePathway</text>
</g>
<!-- t3&#45;&gt;t4 -->
<g id="edge3" class="edge"><title>t3&#45;&gt;t4</title>
<path fill="none" stroke="#0044a0" d="M225.886,-289.438C244.813,-279.251 268.999,-266.233 289.295,-255.309"/>
<polygon fill="#0044a0" stroke="#0044a0" points="291.167,-258.276 298.314,-250.455 287.849,-252.112 291.167,-258.276"/>
</g>
<!-- t5 -->
<g id="node5" class="node"><title>t5</title>
<polygon fill="#ebf3ff" stroke="#0044a0" points="642.178,-250.4 477.822,-250.4 473.822,-246.4 473.822,-214.4 638.178,-214.4 642.178,-218.4 642.178,-250.4"/>
<polyline fill="none" stroke="#0044a0" points="638.178,-246.4 473.822,-246.4 "/>
<polyline fill="none" stroke="#0044a0" points="638.178,-246.4 638.178,-214.4 "/>
<polyline fill="none" stroke="#0044a0" points="638.178,-246.4 642.178,-250.4 "/>
<text text-anchor="middle" x="558" y="-226.4" font-family="Times,serif" font-size="20.00" fill="#0044a0">AnnotateWithMGI</text>
</g>
<!-- t3&#45;&gt;t5 -->
<g id="edge4" class="edge"><title>t3&#45;&gt;t5</title>
<path fill="none" stroke="#0044a0" d="M260.916,-289.546C279.643,-285.074 300.056,-280.479 319,-276.8 383.418,-264.291 400.533,-267.056 465,-254.8 468.827,-254.072 472.736,-253.298 476.68,-252.491"/>
<polygon fill="#0044a0" stroke="#0044a0" points="477.456,-255.905 486.525,-250.428 476.02,-249.053 477.456,-255.905"/>
</g>
<!-- t7 -->
<g id="node8" class="node"><title>t7</title>
<polygon fill="#ebf3ff" stroke="#0044a0" points="650.75,-178 571.25,-178 567.25,-174 567.25,-142 646.75,-142 650.75,-146 650.75,-178"/>
<polyline fill="none" stroke="#0044a0" points="646.75,-174 567.25,-174 "/>
<polyline fill="none" stroke="#0044a0" points="646.75,-174 646.75,-142 "/>
<polyline fill="none" stroke="#0044a0" points="646.75,-174 650.75,-178 "/>
<text text-anchor="middle" x="609" y="-154" font-family="Times,serif" font-size="20.00" fill="#0044a0">annotate</text>
</g>
<!-- t3&#45;&gt;t7 -->
<g id="edge10" class="edge"><title>t3&#45;&gt;t7</title>
<path fill="none" stroke="#0044a0" d="M256.226,-289.592C276.142,-284.735 298.375,-279.919 319,-276.8 355.554,-271.272 625.737,-281.792 651,-254.8 667.035,-237.667 660.111,-223.626 651,-202 648.456,-195.961 644.539,-190.368 640.1,-185.379"/>
<polygon fill="#0044a0" stroke="#0044a0" points="642.351,-182.679 632.817,-178.058 637.389,-187.616 642.351,-182.679"/>
</g>
<!-- t6&#45;&gt;t7 -->
<g id="edge7" class="edge"><title>t6&#45;&gt;t7</title>
<path fill="none" stroke="#0044a0" d="M147.258,-214.263C162.28,-209.422 179.161,-204.733 195,-202 274.551,-188.276 480.043,-208.966 558,-188 563.011,-186.652 568.082,-184.745 572.984,-182.559"/>
<polygon fill="#0044a0" stroke="#0044a0" points="574.692,-185.62 582.141,-178.086 571.62,-179.33 574.692,-185.62"/>
</g>
<!-- t4&#45;&gt;t7 -->
<g id="edge9" class="edge"><title>t4&#45;&gt;t7</title>
<path fill="none" stroke="#0044a0" d="M404.097,-214.356C423.837,-210.064 445.184,-205.645 465,-202 506.109,-194.438 518.299,-201.075 558,-188 562.576,-186.493 567.233,-184.599 571.779,-182.517"/>
<polygon fill="#0044a0" stroke="#0044a0" points="573.458,-185.592 580.892,-178.043 570.373,-179.308 573.458,-185.592"/>
</g>
<!-- t5&#45;&gt;t7 -->
<g id="edge8" class="edge"><title>t5&#45;&gt;t7</title>
<path fill="none" stroke="#0044a0" d="M570.346,-214.358C576.395,-206.008 583.803,-195.781 590.51,-186.523"/>
<polygon fill="#0044a0" stroke="#0044a0" points="593.381,-188.526 596.414,-178.374 587.713,-184.419 593.381,-188.526"/>
</g>
<!-- t2&#45;&gt;t7 -->
<g id="edge11" class="edge"><title>t2&#45;&gt;t7</title>
<path fill="none" stroke="#0044a0" d="M484.456,-289.567C500.712,-285.07 518.478,-280.457 535,-276.8 563.821,-270.421 646.934,-277.335 666,-254.8 681.157,-236.885 676.703,-222.884 666,-202 662.56,-195.288 657.453,-189.425 651.686,-184.393"/>
<polygon fill="#0044a0" stroke="#0044a0" points="653.552,-181.412 643.507,-178.045 649.26,-186.942 653.552,-181.412"/>
</g>
<!-- t1&#45;&gt;t7 -->
<g id="edge12" class="edge"><title>t1&#45;&gt;t7</title>
<path fill="none" stroke="#0044a0" d="M653.945,-289.48C666.321,-280.847 679.226,-269.14 686,-254.8 696.024,-233.582 698.08,-222.118 686,-202 679.91,-191.857 670.366,-184.087 660.045,-178.185"/>
<polygon fill="#0044a0" stroke="#0044a0" points="661.336,-174.915 650.841,-173.468 658.143,-181.144 661.336,-174.915"/>
</g>
<!-- t8 -->
<g id="node10" class="node"><title>t8</title>
<polygon fill="none" stroke="#0044a0" stroke-dasharray="5,2" points="590.206,-110 465.794,-110 461.794,-106 461.794,-74 586.206,-74 590.206,-78 590.206,-110"/>
<polyline fill="none" stroke="#0044a0" stroke-dasharray="5,2" points="586.206,-106 461.794,-106 "/>
<polyline fill="none" stroke="#0044a0" stroke-dasharray="5,2" points="586.206,-106 586.206,-74 "/>
<polyline fill="none" stroke="#0044a0" stroke-dasharray="5,2" points="586.206,-106 590.206,-110 "/>
<text text-anchor="middle" x="526" y="-86" font-family="Times,serif" font-size="20.00" fill="#0044a0">MakeSubDBs</text>
</g>
<!-- t7&#45;&gt;t8 -->
<g id="edge14" class="edge"><title>t7&#45;&gt;t8</title>
<path fill="none" stroke="#0044a0" d="M587.193,-141.659C577.566,-134.005 566.1,-124.887 555.709,-116.624"/>
<polygon fill="#0044a0" stroke="#0044a0" points="557.667,-113.709 547.662,-110.225 553.31,-119.188 557.667,-113.709"/>
</g>
<!-- t10 -->
<g id="node9" class="node"><title>t10</title>
<polygon fill="#ebf3ff" stroke="#0044a0" points="549.37,-188 342.63,-188 338.63,-184 338.63,-132 545.37,-132 549.37,-136 549.37,-188"/>
<polyline fill="none" stroke="#0044a0" points="545.37,-184 338.63,-184 "/>
<polyline fill="none" stroke="#0044a0" points="545.37,-184 545.37,-132 "/>
<polyline fill="none" stroke="#0044a0" points="545.37,-184 549.37,-188 "/>
<text text-anchor="middle" x="444" y="-166" font-family="Times,serif" font-size="20.00" fill="#0044a0">mkdir(&#39;genesetdbs.dir&#39;) </text>
<text text-anchor="middle" x="444" y="-142" font-family="Times,serif" font-size="20.00" fill="#0044a0">before MakeSubDBs </text>
</g>
<!-- t10&#45;&gt;t8 -->
<g id="edge13" class="edge"><title>t10&#45;&gt;t8</title>
<path fill="none" stroke="#0044a0" d="M477.826,-131.774C484.013,-126.794 490.426,-121.633 496.476,-116.764"/>
<polygon fill="#0044a0" stroke="#0044a0" points="498.85,-119.345 504.445,-110.349 494.461,-113.892 498.85,-119.345"/>
</g>
<!-- t9 -->
<g id="node11" class="node"><title>t9</title>
<polygon fill="#efa03b" stroke="black" points="553,-52 503,-52 499,-48 499,-16 549,-16 553,-20 553,-52"/>
<polyline fill="none" stroke="black" points="549,-48 499,-48 "/>
<polyline fill="none" stroke="black" points="549,-48 549,-16 "/>
<polyline fill="none" stroke="black" points="549,-48 553,-52 "/>
<text text-anchor="middle" x="526" y="-28" font-family="Times,serif" font-size="20.00">full</text>
</g>
<!-- t8&#45;&gt;t9 -->
<g id="edge15" class="edge"><title>t8&#45;&gt;t9</title>
<path fill="none" stroke="#0044a0" d="M526,-73.8939C526,-70.2029 526,-66.2128 526,-62.2429"/>
<polygon fill="#0044a0" stroke="#0044a0" points="529.5,-62.0013 526,-52.0014 522.5,-62.0014 529.5,-62.0013"/>
</g>
<!-- k1_1 -->
<g id="node12" class="node"><title>k1_1</title>
<polygon fill="#ebf3ff" stroke="#0044a0" points="828.763,-405.1 741.237,-405.1 737.237,-401.1 737.237,-360.5 824.763,-360.5 828.763,-364.5 828.763,-405.1"/>
<polyline fill="none" stroke="#0044a0" points="824.763,-401.1 737.237,-401.1 "/>
<polyline fill="none" stroke="#0044a0" points="824.763,-401.1 824.763,-360.5 "/>
<polyline fill="none" stroke="#0044a0" points="824.763,-401.1 828.763,-405.1 "/>
<text text-anchor="middle" x="783" y="-378.6" font-family="Times,serif" font-size="14.00" fill="#0044a0">Task to run</text>
</g>
<!-- k2_1 -->
<g id="node13" class="node"><title>k2_1</title>
<polygon fill="none" stroke="#0044a0" stroke-dasharray="5,2" points="840.188,-338.201 729.812,-338.201 725.812,-334.201 725.812,-276.999 836.188,-276.999 840.188,-280.999 840.188,-338.201"/>
<polyline fill="none" stroke="#0044a0" stroke-dasharray="5,2" points="836.188,-334.201 725.812,-334.201 "/>
<polyline fill="none" stroke="#0044a0" stroke-dasharray="5,2" points="836.188,-334.201 836.188,-276.999 "/>
<polyline fill="none" stroke="#0044a0" stroke-dasharray="5,2" points="836.188,-334.201 840.188,-338.201 "/>
<text text-anchor="middle" x="783" y="-311.8" font-family="Times,serif" font-size="14.00" fill="#0044a0">Up&#45;to&#45;date task</text>
<text text-anchor="middle" x="783" y="-295" font-family="Times,serif" font-size="14.00" fill="#0044a0">forced to rerun</text>
</g>
<!-- k1_1&#45;&gt;k2_1 -->
<g id="edge16" class="edge"><title>k1_1&#45;&gt;k2_1</title>
<path fill="none" stroke="#0044a0" d="M783,-360.233C783,-356.497 783,-352.508 783,-348.465"/>
<polygon fill="#0044a0" stroke="#0044a0" points="786.5,-348.419 783,-338.419 779.5,-348.419 786.5,-348.419"/>
</g>
<!-- k3_1 -->
<g id="node14" class="node"><title>k3_1</title>
<polygon fill="#efa03b" stroke="black" points="829.15,-254.7 740.85,-254.7 736.85,-250.7 736.85,-210.1 825.15,-210.1 829.15,-214.1 829.15,-254.7"/>
<polyline fill="none" stroke="black" points="825.15,-250.7 736.85,-250.7 "/>
<polyline fill="none" stroke="black" points="825.15,-250.7 825.15,-210.1 "/>
<polyline fill="none" stroke="black" points="825.15,-250.7 829.15,-254.7 "/>
<text text-anchor="middle" x="783" y="-228.2" font-family="Times,serif" font-size="14.00">Final target</text>
</g>
<!-- k2_1&#45;&gt;k3_1 -->
<g id="edge17" class="edge"><title>k2_1&#45;&gt;k3_1</title>
<path fill="none" stroke="#0044a0" d="M783,-276.827C783,-272.958 783,-268.983 783,-265.084"/>
<polygon fill="#0044a0" stroke="#0044a0" points="786.5,-265.065 783,-255.065 779.5,-265.065 786.5,-265.065"/>
</g>
</g>
</svg>
