<?xml version="1.0" encoding="UTF-8" standalone="no"?>
<!DOCTYPE svg PUBLIC "-//W3C//DTD SVG 1.1//EN"
 "http://www.w3.org/Graphics/SVG/1.1/DTD/svg11.dtd">
<!-- Generated by graphviz version 2.38.0 (20140413.2041)
 -->
<!-- Title: Pipeline: Pages: 1 -->
<svg width="2265pt" height="1010pt"
 viewBox="0.00 0.00 2265.04 1009.62" xmlns="http://www.w3.org/2000/svg" xmlns:xlink="http://www.w3.org/1999/xlink">
<g id="graph0" class="graph" transform="scale(1 1) rotate(0) translate(4 1005.62)">
<title>Pipeline:</title>
<polygon fill="white" stroke="none" points="-4,4 -4,-1005.62 2261.04,-1005.62 2261.04,4 -4,4"/>
<g id="clust1" class="cluster"><title>clustertasks</title>
<polygon fill="none" stroke="black" points="12.0441,-8 12.0441,-993.623 2111.04,-993.623 2111.04,-8 12.0441,-8"/>
<text text-anchor="middle" x="1061.54" y="-962.623" font-family="Times,serif" font-size="30.00" fill="#ff3232">Pipeline:</text>
</g>
<g id="clust2" class="cluster"><title>clusterkey1</title>
<polygon fill="#f6f4f4" stroke="#f6f4f4" points="2119.04,-696.071 2119.04,-976.023 2249.04,-976.023 2249.04,-696.071 2119.04,-696.071"/>
<text text-anchor="middle" x="2184.04" y="-954.023" font-family="Times,serif" font-size="20.00">Key:</text>
</g>
<!-- t62 -->
<g id="node1" class="node"><title>t62</title>
<polygon fill="#ebf3ff" stroke="#0044a0" points="2103.13,-660.881 1864.96,-660.881 1860.96,-656.881 1860.96,-604.881 2099.13,-604.881 2103.13,-608.881 2103.13,-660.881"/>
<polyline fill="none" stroke="#0044a0" points="2099.13,-656.881 1860.96,-656.881 "/>
<polyline fill="none" stroke="#0044a0" points="2099.13,-656.881 2099.13,-604.881 "/>
<polyline fill="none" stroke="#0044a0" points="2099.13,-656.881 2103.13,-660.881 "/>
<text text-anchor="middle" x="1982.04" y="-638.881" font-family="Times,serif" font-size="20.00" fill="#0044a0">mkdir(&#39;hisat.dir&#39;) </text>
<text text-anchor="middle" x="1982.04" y="-614.881" font-family="Times,serif" font-size="20.00" fill="#0044a0">before mapReadsWithHisat </text>
</g>
<!-- t12 -->
<g id="node10" class="node"><title>t12</title>
<polygon fill="none" stroke="#0044a0" stroke-dasharray="5,2" points="1871.56,-541.56 1694.53,-541.56 1690.53,-537.56 1690.53,-505.56 1867.56,-505.56 1871.56,-509.56 1871.56,-541.56"/>
<polyline fill="none" stroke="#0044a0" stroke-dasharray="5,2" points="1867.56,-537.56 1690.53,-537.56 "/>
<polyline fill="none" stroke="#0044a0" stroke-dasharray="5,2" points="1867.56,-537.56 1867.56,-505.56 "/>
<polyline fill="none" stroke="#0044a0" stroke-dasharray="5,2" points="1867.56,-537.56 1871.56,-541.56 "/>
<text text-anchor="middle" x="1781.04" y="-517.56" font-family="Times,serif" font-size="20.00" fill="#0044a0">mapReadsWithHisat</text>
</g>
<!-- t62&#45;&gt;t12 -->
<g id="edge7" class="edge"><title>t62&#45;&gt;t12</title>
<path fill="none" stroke="#0044a0" d="M1931.32,-604.799C1897.45,-586.714 1853.49,-563.24 1821.87,-546.36"/>
<polygon fill="#0044a0" stroke="#0044a0" points="1823.36,-543.188 1812.89,-541.565 1820.07,-549.363 1823.36,-543.188"/>
</g>
<!-- t54 -->
<g id="node2" class="node"><title>t54</title>
<polygon fill="#ebf3ff" stroke="#0044a0" points="1873.99,-754.471 1636.1,-754.471 1632.1,-750.471 1632.1,-698.471 1869.99,-698.471 1873.99,-702.471 1873.99,-754.471"/>
<polyline fill="none" stroke="#0044a0" points="1869.99,-750.471 1632.1,-750.471 "/>
<polyline fill="none" stroke="#0044a0" points="1869.99,-750.471 1869.99,-698.471 "/>
<polyline fill="none" stroke="#0044a0" points="1869.99,-750.471 1873.99,-754.471 "/>
<text text-anchor="middle" x="1753.04" y="-732.471" font-family="Times,serif" font-size="20.00" fill="#0044a0">mkdir(&#39;fastq.dir&#39;) </text>
<text text-anchor="middle" x="1753.04" y="-708.471" font-family="Times,serif" font-size="20.00" fill="#0044a0">before subsetSequenceData </text>
</g>
<!-- t8 -->
<g id="node3" class="node"><title>t8</title>
<polygon fill="none" stroke="#0044a0" stroke-dasharray="5,2" points="1843.42,-650.881 1666.67,-650.881 1662.67,-646.881 1662.67,-614.881 1839.42,-614.881 1843.42,-618.881 1843.42,-650.881"/>
<polyline fill="none" stroke="#0044a0" stroke-dasharray="5,2" points="1839.42,-646.881 1662.67,-646.881 "/>
<polyline fill="none" stroke="#0044a0" stroke-dasharray="5,2" points="1839.42,-646.881 1839.42,-614.881 "/>
<polyline fill="none" stroke="#0044a0" stroke-dasharray="5,2" points="1839.42,-646.881 1843.42,-650.881 "/>
<text text-anchor="middle" x="1753.04" y="-626.881" font-family="Times,serif" font-size="20.00" fill="#0044a0">subsetSequenceData</text>
</g>
<!-- t54&#45;&gt;t8 -->
<g id="edge1" class="edge"><title>t54&#45;&gt;t8</title>
<path fill="none" stroke="#0044a0" d="M1753.04,-697.991C1753.04,-686.291 1753.04,-672.683 1753.04,-661.021"/>
<polygon fill="#0044a0" stroke="#0044a0" points="1756.54,-660.969 1753.04,-650.969 1749.54,-660.969 1756.54,-660.969"/>
</g>
<!-- t8&#45;&gt;t12 -->
<g id="edge8" class="edge"><title>t8&#45;&gt;t12</title>
<path fill="none" stroke="#0044a0" d="M1757.54,-614.638C1761.97,-597.662 1768.8,-571.478 1773.96,-551.707"/>
<polygon fill="#0044a0" stroke="#0044a0" points="1777.42,-552.32 1776.56,-541.76 1770.65,-550.552 1777.42,-552.32"/>
</g>
<!-- t61 -->
<g id="node4" class="node"><title>t61</title>
<polygon fill="#ebf3ff" stroke="#0044a0" points="1233.52,-941.623 970.564,-941.623 966.564,-937.623 966.564,-885.623 1229.52,-885.623 1233.52,-889.623 1233.52,-941.623"/>
<polyline fill="none" stroke="#0044a0" points="1229.52,-937.623 966.564,-937.623 "/>
<polyline fill="none" stroke="#0044a0" points="1229.52,-937.623 1229.52,-885.623 "/>
<polyline fill="none" stroke="#0044a0" points="1229.52,-937.623 1233.52,-941.623 "/>
<text text-anchor="middle" x="1100.04" y="-919.623" font-family="Times,serif" font-size="20.00" fill="#0044a0">mkdir(&#39;geneset.dir&#39;) </text>
<text text-anchor="middle" x="1100.04" y="-895.623" font-family="Times,serif" font-size="20.00" fill="#0044a0">before buildReferenceGeneSet </text>
</g>
<!-- t1 -->
<g id="node5" class="node"><title>t1</title>
<polygon fill="#ebf3ff" stroke="#0044a0" points="950.663,-807.819 1090.04,-780.478 1229.42,-807.819 1229.29,-852.059 950.794,-852.059 950.663,-807.819"/>
<polygon fill="none" stroke="#0044a0" points="946.648,-804.524 1090.04,-776.394 1233.44,-804.524 1233.29,-856.066 946.8,-856.066 946.648,-804.524"/>
<text text-anchor="middle" x="1090.04" y="-814.047" font-family="Times,serif" font-size="20.00" fill="#0044a0">buildReferenceGeneSet</text>
</g>
<!-- t61&#45;&gt;t1 -->
<g id="edge2" class="edge"><title>t61&#45;&gt;t1</title>
<path fill="none" stroke="#0044a0" d="M1097.04,-885.147C1096.39,-879.201 1095.69,-872.76 1094.99,-866.333"/>
<polygon fill="#0044a0" stroke="#0044a0" points="1098.46,-865.879 1093.9,-856.318 1091.5,-866.639 1098.46,-865.879"/>
</g>
<!-- t3 -->
<g id="node8" class="node"><title>t3</title>
<polygon fill="#ebf3ff" stroke="#0044a0" points="1037.8,-744.471 858.284,-744.471 854.284,-740.471 854.284,-708.471 1033.8,-708.471 1037.8,-712.471 1037.8,-744.471"/>
<polyline fill="none" stroke="#0044a0" points="1033.8,-740.471 854.284,-740.471 "/>
<polyline fill="none" stroke="#0044a0" points="1033.8,-740.471 1033.8,-708.471 "/>
<polyline fill="none" stroke="#0044a0" points="1033.8,-740.471 1037.8,-744.471 "/>
<text text-anchor="middle" x="946.044" y="-720.471" font-family="Times,serif" font-size="20.00" fill="#0044a0">buildCodingGeneSet</text>
</g>
<!-- t1&#45;&gt;t3 -->
<g id="edge5" class="edge"><title>t1&#45;&gt;t3</title>
<path fill="none" stroke="#0044a0" d="M1038.46,-786.245C1019.63,-774.27 998.772,-761.003 981.642,-750.109"/>
<polygon fill="#0044a0" stroke="#0044a0" points="983.371,-747.061 973.054,-744.648 979.614,-752.967 983.371,-747.061"/>
</g>
<!-- t60 -->
<g id="node6" class="node"><title>t60</title>
<polygon fill="#ebf3ff" stroke="#0044a0" points="948.964,-941.623 647.124,-941.623 643.124,-937.623 643.124,-885.623 944.964,-885.623 948.964,-889.623 948.964,-941.623"/>
<polyline fill="none" stroke="#0044a0" points="944.964,-937.623 643.124,-937.623 "/>
<polyline fill="none" stroke="#0044a0" points="944.964,-937.623 944.964,-885.623 "/>
<polyline fill="none" stroke="#0044a0" points="944.964,-937.623 948.964,-941.623 "/>
<text text-anchor="middle" x="796.044" y="-919.623" font-family="Times,serif" font-size="20.00" fill="#0044a0">mkdir(&#39;geneset.dir&#39;) </text>
<text text-anchor="middle" x="796.044" y="-895.623" font-family="Times,serif" font-size="20.00" fill="#0044a0">before identifyProteinCodingGenes </text>
</g>
<!-- t2 -->
<g id="node7" class="node"><title>t2</title>
<polygon fill="#ebf3ff" stroke="#0044a0" points="924.392,-838.047 683.696,-838.047 679.696,-834.047 679.696,-802.047 920.392,-802.047 924.392,-806.047 924.392,-838.047"/>
<polyline fill="none" stroke="#0044a0" points="920.392,-834.047 679.696,-834.047 "/>
<polyline fill="none" stroke="#0044a0" points="920.392,-834.047 920.392,-802.047 "/>
<polyline fill="none" stroke="#0044a0" points="920.392,-834.047 924.392,-838.047 "/>
<text text-anchor="middle" x="802.044" y="-814.047" font-family="Times,serif" font-size="20.00" fill="#0044a0">identifyProteinCodingGenes</text>
</g>
<!-- t60&#45;&gt;t2 -->
<g id="edge3" class="edge"><title>t60&#45;&gt;t2</title>
<path fill="none" stroke="#0044a0" d="M797.844,-885.147C798.611,-873.45 799.502,-859.843 800.266,-848.183"/>
<polygon fill="#0044a0" stroke="#0044a0" points="803.763,-848.34 800.925,-838.132 796.778,-847.882 803.763,-848.34"/>
</g>
<!-- t2&#45;&gt;t3 -->
<g id="edge4" class="edge"><title>t2&#45;&gt;t3</title>
<path fill="none" stroke="#0044a0" d="M828.792,-802.037C851.783,-787.416 885.127,-766.211 910.385,-750.148"/>
<polygon fill="#0044a0" stroke="#0044a0" points="912.391,-753.02 918.951,-744.701 908.634,-747.114 912.391,-753.02"/>
</g>
<!-- t5 -->
<g id="node9" class="node"><title>t5</title>
<polygon fill="#ebf3ff" stroke="#0044a0" points="1644.21,-650.881 1515.88,-650.881 1511.88,-646.881 1511.88,-614.881 1640.21,-614.881 1644.21,-618.881 1644.21,-650.881"/>
<polyline fill="none" stroke="#0044a0" points="1640.21,-646.881 1511.88,-646.881 "/>
<polyline fill="none" stroke="#0044a0" points="1640.21,-646.881 1640.21,-614.881 "/>
<polyline fill="none" stroke="#0044a0" points="1640.21,-646.881 1644.21,-650.881 "/>
<text text-anchor="middle" x="1578.04" y="-626.881" font-family="Times,serif" font-size="20.00" fill="#0044a0">buildJunctions</text>
</g>
<!-- t3&#45;&gt;t5 -->
<g id="edge6" class="edge"><title>t3&#45;&gt;t5</title>
<path fill="none" stroke="#0044a0" d="M1037.99,-722.049C1172.99,-716.233 1417.9,-702.439 1502.04,-676.471 1517.07,-671.832 1532.44,-663.933 1545.38,-656.189"/>
<polygon fill="#0044a0" stroke="#0044a0" points="1547.26,-659.138 1553.92,-650.894 1543.58,-653.189 1547.26,-659.138"/>
</g>
<!-- t6 -->
<g id="node21" class="node"><title>t6</title>
<polygon fill="#ebf3ff" stroke="#0044a0" points="1044.55,-650.881 867.533,-650.881 863.533,-646.881 863.533,-614.881 1040.55,-614.881 1044.55,-618.881 1044.55,-650.881"/>
<polyline fill="none" stroke="#0044a0" points="1040.55,-646.881 863.533,-646.881 "/>
<polyline fill="none" stroke="#0044a0" points="1040.55,-646.881 1040.55,-614.881 "/>
<polyline fill="none" stroke="#0044a0" points="1040.55,-646.881 1044.55,-650.881 "/>
<text text-anchor="middle" x="954.044" y="-626.881" font-family="Times,serif" font-size="20.00" fill="#0044a0">buildTranscriptFasta</text>
</g>
<!-- t3&#45;&gt;t6 -->
<g id="edge20" class="edge"><title>t3&#45;&gt;t6</title>
<path fill="none" stroke="#0044a0" d="M947.549,-708.243C948.7,-695.067 950.31,-676.636 951.639,-661.421"/>
<polygon fill="#0044a0" stroke="#0044a0" points="955.163,-661.298 952.546,-651.031 948.189,-660.688 955.163,-661.298"/>
</g>
<!-- t7 -->
<g id="node23" class="node"><title>t7</title>
<polygon fill="#ebf3ff" stroke="#0044a0" points="1188.19,-541.56 973.894,-541.56 969.894,-537.56 969.894,-505.56 1184.19,-505.56 1188.19,-509.56 1188.19,-541.56"/>
<polyline fill="none" stroke="#0044a0" points="1184.19,-537.56 969.894,-537.56 "/>
<polyline fill="none" stroke="#0044a0" points="1184.19,-537.56 1184.19,-505.56 "/>
<polyline fill="none" stroke="#0044a0" points="1184.19,-537.56 1188.19,-541.56 "/>
<text text-anchor="middle" x="1079.04" y="-517.56" font-family="Times,serif" font-size="20.00" fill="#0044a0">buildTranscriptGeneMap</text>
</g>
<!-- t3&#45;&gt;t7 -->
<g id="edge23" class="edge"><title>t3&#45;&gt;t7</title>
<path fill="none" stroke="#0044a0" d="M878.6,-708.395C863.023,-701.154 848.315,-690.914 839.044,-676.471 818.113,-643.864 814.196,-619.021 839.044,-589.291 874.378,-547.016 907.841,-581.611 961.044,-567.291 983.294,-561.302 1007.3,-552.97 1027.81,-545.251"/>
<polygon fill="#0044a0" stroke="#0044a0" points="1029.17,-548.476 1037.27,-541.642 1026.68,-541.936 1029.17,-548.476"/>
</g>
<!-- t21 -->
<g id="node24" class="node"><title>t21</title>
<polygon fill="none" stroke="#0044a0" stroke-dasharray="5,2" points="1168.81,-447.829 1069.28,-447.829 1065.28,-443.829 1065.28,-411.829 1164.81,-411.829 1168.81,-415.829 1168.81,-447.829"/>
<polyline fill="none" stroke="#0044a0" stroke-dasharray="5,2" points="1164.81,-443.829 1065.28,-443.829 "/>
<polyline fill="none" stroke="#0044a0" stroke-dasharray="5,2" points="1164.81,-443.829 1164.81,-411.829 "/>
<polyline fill="none" stroke="#0044a0" stroke-dasharray="5,2" points="1164.81,-443.829 1168.81,-447.829 "/>
<text text-anchor="middle" x="1117.04" y="-423.829" font-family="Times,serif" font-size="20.00" fill="#0044a0">runSailfish</text>
</g>
<!-- t3&#45;&gt;t21 -->
<g id="edge26" class="edge"><title>t3&#45;&gt;t21</title>
<path fill="none" stroke="#0044a0" d="M891.218,-708.239C876.596,-700.862 862.521,-690.589 854.044,-676.471 834.1,-643.251 827.537,-617.552 854.044,-589.291 906.295,-533.581 1144.79,-623.001 1197.04,-567.291 1223.64,-538.938 1216.04,-513.742 1197.04,-479.829 1190.89,-468.841 1181.15,-460.02 1170.56,-453.06"/>
<polygon fill="#0044a0" stroke="#0044a0" points="1172.31,-450.026 1161.93,-447.871 1168.7,-456.025 1172.31,-450.026"/>
</g>
<!-- t27 -->
<g id="node47" class="node"><title>t27</title>
<polygon fill="none" stroke="#0044a0" stroke-dasharray="5,2" points="1008.01,-447.829 826.074,-447.829 822.074,-443.829 822.074,-411.829 1004.01,-411.829 1008.01,-415.829 1008.01,-447.829"/>
<polyline fill="none" stroke="#0044a0" stroke-dasharray="5,2" points="1004.01,-443.829 822.074,-443.829 "/>
<polyline fill="none" stroke="#0044a0" stroke-dasharray="5,2" points="1004.01,-443.829 1004.01,-411.829 "/>
<polyline fill="none" stroke="#0044a0" stroke-dasharray="5,2" points="1004.01,-443.829 1008.01,-447.829 "/>
<text text-anchor="middle" x="915.044" y="-423.829" font-family="Times,serif" font-size="20.00" fill="#0044a0">runSailfishSaturation</text>
</g>
<!-- t3&#45;&gt;t27 -->
<g id="edge51" class="edge"><title>t3&#45;&gt;t27</title>
<path fill="none" stroke="#0044a0" d="M854.027,-726.144C759.082,-724.64 620.166,-715.551 586.044,-676.471 560.561,-647.284 560.296,-618.245 586.044,-589.291 613.849,-558.023 741.908,-595.242 773.044,-567.291 802.717,-540.653 767.148,-510.151 793.044,-479.829 803.198,-467.94 816.652,-458.905 830.913,-452.049"/>
<polygon fill="#0044a0" stroke="#0044a0" points="832.655,-455.105 840.375,-447.849 829.815,-448.707 832.655,-455.105"/>
</g>
<!-- t44 -->
<g id="node55" class="node"><title>t44</title>
<polygon fill="none" stroke="#0044a0" stroke-dasharray="5,2" points="1419.81,-447.829 1320.27,-447.829 1316.27,-443.829 1316.27,-411.829 1415.81,-411.829 1419.81,-415.829 1419.81,-447.829"/>
<polyline fill="none" stroke="#0044a0" stroke-dasharray="5,2" points="1415.81,-443.829 1316.27,-443.829 "/>
<polyline fill="none" stroke="#0044a0" stroke-dasharray="5,2" points="1415.81,-443.829 1415.81,-411.829 "/>
<polyline fill="none" stroke="#0044a0" stroke-dasharray="5,2" points="1415.81,-443.829 1419.81,-447.829 "/>
<text text-anchor="middle" x="1368.04" y="-423.829" font-family="Times,serif" font-size="20.00" fill="#0044a0">runSalmon</text>
</g>
<!-- t3&#45;&gt;t44 -->
<g id="edge64" class="edge"><title>t3&#45;&gt;t44</title>
<path fill="none" stroke="#0044a0" d="M1038.14,-723.438C1125.18,-719.558 1247.43,-708.396 1282.04,-676.471 1311.26,-649.518 1273.72,-617.188 1302.04,-589.291 1335.39,-556.441 1375.6,-603.684 1405.04,-567.291 1429.49,-537.069 1417.4,-516.686 1405.04,-479.829 1402.22,-471.402 1397.31,-463.266 1391.97,-456.127"/>
<polygon fill="#0044a0" stroke="#0044a0" points="1394.62,-453.828 1385.61,-448.245 1389.17,-458.224 1394.62,-453.828"/>
</g>
<!-- t5&#45;&gt;t12 -->
<g id="edge9" class="edge"><title>t5&#45;&gt;t12</title>
<path fill="none" stroke="#0044a0" d="M1607.85,-614.818C1621.81,-606.921 1638.71,-597.493 1654.04,-589.291 1681.62,-574.544 1712.91,-558.585 1737.54,-546.203"/>
<polygon fill="#0044a0" stroke="#0044a0" points="1739.26,-549.255 1746.63,-541.642 1736.12,-542.999 1739.26,-549.255"/>
</g>
<!-- t13 -->
<g id="node11" class="node"><title>t13</title>
<polygon fill="none" stroke="#0044a0" stroke-dasharray="5,2" points="1880.6,-447.829 1743.48,-447.829 1739.48,-443.829 1739.48,-411.829 1876.6,-411.829 1880.6,-415.829 1880.6,-447.829"/>
<polyline fill="none" stroke="#0044a0" stroke-dasharray="5,2" points="1876.6,-443.829 1739.48,-443.829 "/>
<polyline fill="none" stroke="#0044a0" stroke-dasharray="5,2" points="1876.6,-443.829 1876.6,-411.829 "/>
<polyline fill="none" stroke="#0044a0" stroke-dasharray="5,2" points="1876.6,-443.829 1880.6,-447.829 "/>
<text text-anchor="middle" x="1810.04" y="-423.829" font-family="Times,serif" font-size="20.00" fill="#0044a0">buildBAMStats</text>
</g>
<!-- t12&#45;&gt;t13 -->
<g id="edge10" class="edge"><title>t12&#45;&gt;t13</title>
<path fill="none" stroke="#0044a0" d="M1786.5,-505.306C1790.71,-491.981 1796.62,-473.291 1801.46,-457.968"/>
<polygon fill="#0044a0" stroke="#0044a0" points="1804.94,-458.595 1804.61,-448.005 1798.26,-456.485 1804.94,-458.595"/>
</g>
<!-- t15 -->
<g id="node13" class="node"><title>t15</title>
<polygon fill="none" stroke="#0044a0" stroke-dasharray="5,2" points="2082.88,-354.153 1927.21,-354.153 1923.21,-350.153 1923.21,-318.153 2078.88,-318.153 2082.88,-322.153 2082.88,-354.153"/>
<polyline fill="none" stroke="#0044a0" stroke-dasharray="5,2" points="2078.88,-350.153 1923.21,-350.153 "/>
<polyline fill="none" stroke="#0044a0" stroke-dasharray="5,2" points="2078.88,-350.153 2078.88,-318.153 "/>
<polyline fill="none" stroke="#0044a0" stroke-dasharray="5,2" points="2078.88,-350.153 2082.88,-354.153 "/>
<text text-anchor="middle" x="2003.04" y="-330.153" font-family="Times,serif" font-size="20.00" fill="#0044a0">buildContextStats</text>
</g>
<!-- t12&#45;&gt;t15 -->
<g id="edge12" class="edge"><title>t12&#45;&gt;t15</title>
<path fill="none" stroke="#0044a0" d="M1824.26,-505.48C1846.58,-494.74 1872.69,-478.895 1890.04,-457.829 1906.85,-437.428 1893.99,-422.819 1910.04,-401.829 1923.17,-384.671 1942.16,-370.329 1959.56,-359.546"/>
<polygon fill="#0044a0" stroke="#0044a0" points="1961.67,-362.36 1968.47,-354.236 1958.09,-356.346 1961.67,-362.36"/>
</g>
<!-- t30 -->
<g id="node18" class="node"><title>t30</title>
<polygon fill="none" stroke="#0044a0" stroke-dasharray="5,2" points="384.551,-447.829 187.538,-447.829 183.538,-443.829 183.538,-411.829 380.551,-411.829 384.551,-415.829 384.551,-447.829"/>
<polyline fill="none" stroke="#0044a0" stroke-dasharray="5,2" points="380.551,-443.829 183.538,-443.829 "/>
<polyline fill="none" stroke="#0044a0" stroke-dasharray="5,2" points="380.551,-443.829 380.551,-411.829 "/>
<polyline fill="none" stroke="#0044a0" stroke-dasharray="5,2" points="380.551,-443.829 384.551,-447.829 "/>
<text text-anchor="middle" x="284.044" y="-423.829" font-family="Times,serif" font-size="20.00" fill="#0044a0">buildTranscriptProfiles</text>
</g>
<!-- t12&#45;&gt;t30 -->
<g id="edge17" class="edge"><title>t12&#45;&gt;t30</title>
<path fill="none" stroke="#0044a0" d="M1733.1,-505.489C1703.99,-495.987 1665.86,-485.05 1631.04,-479.829 1391.89,-443.961 784.406,-472.823 543.044,-457.829 494.281,-454.799 440.532,-449.516 394.697,-444.421"/>
<polygon fill="#0044a0" stroke="#0044a0" points="395.068,-440.941 384.74,-443.304 394.287,-447.898 395.068,-440.941"/>
</g>
<!-- t25 -->
<g id="node36" class="node"><title>t25</title>
<polygon fill="none" stroke="#0044a0" stroke-dasharray="5,2" points="1720.55,-447.829 1493.54,-447.829 1489.54,-443.829 1489.54,-411.829 1716.55,-411.829 1720.55,-415.829 1720.55,-447.829"/>
<polyline fill="none" stroke="#0044a0" stroke-dasharray="5,2" points="1716.55,-443.829 1489.54,-443.829 "/>
<polyline fill="none" stroke="#0044a0" stroke-dasharray="5,2" points="1716.55,-443.829 1716.55,-411.829 "/>
<polyline fill="none" stroke="#0044a0" stroke-dasharray="5,2" points="1716.55,-443.829 1720.55,-447.829 "/>
<text text-anchor="middle" x="1605.04" y="-423.829" font-family="Times,serif" font-size="20.00" fill="#0044a0">buildPicardRnaSeqMetrics</text>
</g>
<!-- t12&#45;&gt;t25 -->
<g id="edge38" class="edge"><title>t12&#45;&gt;t25</title>
<path fill="none" stroke="#0044a0" d="M1748.35,-505.521C1719.79,-490.636 1678.17,-468.94 1647.13,-452.762"/>
<polygon fill="#0044a0" stroke="#0044a0" points="1648.34,-449.45 1637.86,-447.932 1645.11,-455.657 1648.34,-449.45"/>
</g>
<!-- t18 -->
<g id="node39" class="node"><title>t18</title>
<polygon fill="none" stroke="#0044a0" stroke-dasharray="5,2" points="2103.44,-447.829 1922.65,-447.829 1918.65,-443.829 1918.65,-411.829 2099.44,-411.829 2103.44,-415.829 2103.44,-447.829"/>
<polyline fill="none" stroke="#0044a0" stroke-dasharray="5,2" points="2099.44,-443.829 1918.65,-443.829 "/>
<polyline fill="none" stroke="#0044a0" stroke-dasharray="5,2" points="2099.44,-443.829 2099.44,-411.829 "/>
<polyline fill="none" stroke="#0044a0" stroke-dasharray="5,2" points="2099.44,-443.829 2103.44,-447.829 "/>
<text text-anchor="middle" x="2011.04" y="-423.829" font-family="Times,serif" font-size="20.00" fill="#0044a0">buildAltContextStats</text>
</g>
<!-- t12&#45;&gt;t18 -->
<g id="edge41" class="edge"><title>t12&#45;&gt;t18</title>
<path fill="none" stroke="#0044a0" d="M1823.77,-505.521C1861.89,-490.315 1917.84,-468.001 1958.65,-451.723"/>
<polygon fill="#0044a0" stroke="#0044a0" points="1960.17,-454.887 1968.16,-447.932 1957.58,-448.385 1960.17,-454.887"/>
</g>
<!-- t14 -->
<g id="node12" class="node"><title>t14</title>
<polygon fill="#ebf3ff" stroke="#0044a0" points="1718.7,-323.898 1810.04,-296.494 1901.39,-323.898 1901.31,-368.238 1718.78,-368.238 1718.7,-323.898"/>
<polygon fill="none" stroke="#0044a0" points="1714.68,-320.91 1810.04,-292.302 1905.41,-320.91 1905.31,-372.254 1714.78,-372.254 1714.68,-320.91"/>
<text text-anchor="middle" x="1810.04" y="-330.153" font-family="Times,serif" font-size="20.00" fill="#0044a0">loadBAMStats</text>
</g>
<!-- t13&#45;&gt;t14 -->
<g id="edge11" class="edge"><title>t13&#45;&gt;t14</title>
<path fill="none" stroke="#0044a0" d="M1810.04,-411.585C1810.04,-403.338 1810.04,-393.035 1810.04,-382.749"/>
<polygon fill="#0044a0" stroke="#0044a0" points="1813.54,-382.544 1810.04,-372.544 1806.54,-382.544 1813.54,-382.544"/>
</g>
<!-- t16 -->
<g id="node14" class="node"><title>t16</title>
<polygon fill="#ebf3ff" stroke="#0044a0" points="1872.66,-214.596 1976.04,-187.215 2079.43,-214.596 2079.33,-258.898 1872.76,-258.898 1872.66,-214.596"/>
<polygon fill="none" stroke="#0044a0" points="1868.65,-211.508 1976.04,-183.065 2083.44,-211.508 2083.33,-262.91 1868.76,-262.91 1868.65,-211.508"/>
<text text-anchor="middle" x="1976.04" y="-220.84" font-family="Times,serif" font-size="20.00" fill="#0044a0">loadContextStats</text>
</g>
<!-- t14&#45;&gt;t16 -->
<g id="edge14" class="edge"><title>t14&#45;&gt;t16</title>
<path fill="none" stroke="#0044a0" d="M1855.4,-305.83C1873.22,-294.315 1893.96,-280.904 1913.17,-268.483"/>
<polygon fill="#0044a0" stroke="#0044a0" points="1915.09,-271.412 1921.59,-263.044 1911.29,-265.533 1915.09,-271.412"/>
</g>
<!-- t48 -->
<g id="node59" class="node"><title>t48</title>
<polygon fill="#efa03b" stroke="black" points="968.044,-52 918.044,-52 914.044,-48 914.044,-16 964.044,-16 968.044,-20 968.044,-52"/>
<polyline fill="none" stroke="black" points="964.044,-48 914.044,-48 "/>
<polyline fill="none" stroke="black" points="964.044,-48 964.044,-16 "/>
<polyline fill="none" stroke="black" points="964.044,-48 968.044,-52 "/>
<text text-anchor="middle" x="941.044" y="-28" font-family="Times,serif" font-size="20.00">full</text>
</g>
<!-- t14&#45;&gt;t48 -->
<g id="edge80" class="edge"><title>t14&#45;&gt;t48</title>
<path fill="none" stroke="#0044a0" d="M1831.72,-298.466C1848.06,-265.504 1863.93,-217.196 1840.04,-183.203 1798.9,-124.638 1607.11,-88.6139 1537.04,-74 1429.49,-51.5663 1091.6,-39.5492 978.413,-36.0755"/>
<polygon fill="#0044a0" stroke="#0044a0" points="978.278,-32.5699 968.176,-35.766 978.066,-39.5667 978.278,-32.5699"/>
</g>
<!-- t15&#45;&gt;t16 -->
<g id="edge13" class="edge"><title>t15&#45;&gt;t16</title>
<path fill="none" stroke="#0044a0" d="M1998.71,-317.912C1995.64,-305.744 1991.39,-288.845 1987.4,-272.968"/>
<polygon fill="#0044a0" stroke="#0044a0" points="1990.79,-272.11 1984.96,-263.267 1984,-273.818 1990.79,-272.11"/>
</g>
<!-- t19 -->
<g id="node40" class="node"><title>t19</title>
<polygon fill="#ebf3ff" stroke="#0044a0" points="1858.6,-105.367 1979.04,-78.0093 2099.49,-105.367 2099.37,-149.632 1858.71,-149.632 1858.6,-105.367"/>
<polygon fill="none" stroke="#0044a0" points="1854.6,-102.166 1979.04,-73.8984 2103.49,-102.166 2103.36,-153.641 1854.73,-153.641 1854.6,-102.166"/>
<text text-anchor="middle" x="1979.04" y="-111.601" font-family="Times,serif" font-size="20.00" fill="#0044a0">loadAltContextStats</text>
</g>
<!-- t16&#45;&gt;t19 -->
<g id="edge43" class="edge"><title>t16&#45;&gt;t19</title>
<path fill="none" stroke="#0044a0" d="M1977.24,-183.149C1977.41,-176.937 1977.59,-170.521 1977.77,-164.254"/>
<polygon fill="#0044a0" stroke="#0044a0" points="1981.28,-164.003 1978.06,-153.909 1974.28,-163.807 1981.28,-164.003"/>
</g>
<!-- t16&#45;&gt;t48 -->
<g id="edge79" class="edge"><title>t16&#45;&gt;t48</title>
<path fill="none" stroke="#0044a0" d="M1902.95,-202.347C1882.07,-192.529 1860.96,-179.12 1846.04,-161.203 1820.25,-130.218 1852.7,-98.9719 1821.04,-74 1787.49,-47.5271 1141.26,-37.5468 978.171,-35.4441"/>
<polygon fill="#0044a0" stroke="#0044a0" points="978.183,-31.944 968.139,-35.3169 978.094,-38.9435 978.183,-31.944"/>
</g>
<!-- t52 -->
<g id="node15" class="node"><title>t52</title>
<polygon fill="#ebf3ff" stroke="#0044a0" points="282.122,-551.56 23.9658,-551.56 19.9658,-547.56 19.9658,-495.56 278.122,-495.56 282.122,-499.56 282.122,-551.56"/>
<polyline fill="none" stroke="#0044a0" points="278.122,-547.56 19.9658,-547.56 "/>
<polyline fill="none" stroke="#0044a0" points="278.122,-547.56 278.122,-495.56 "/>
<polyline fill="none" stroke="#0044a0" points="278.122,-547.56 282.122,-551.56 "/>
<text text-anchor="middle" x="151.044" y="-529.56" font-family="Times,serif" font-size="20.00" fill="#0044a0">mkdir(&#39;transcriptprofiles.dir&#39;) </text>
<text text-anchor="middle" x="151.044" y="-505.56" font-family="Times,serif" font-size="20.00" fill="#0044a0">before buildTranscriptProfiles </text>
</g>
<!-- t52&#45;&gt;t30 -->
<g id="edge16" class="edge"><title>t52&#45;&gt;t30</title>
<path fill="none" stroke="#0044a0" d="M190.229,-495.534C209.457,-482.272 232.373,-466.467 250.742,-453.797"/>
<polygon fill="#0044a0" stroke="#0044a0" points="253.114,-456.413 259.359,-447.854 249.14,-450.651 253.114,-456.413"/>
</g>
<!-- t63 -->
<g id="node16" class="node"><title>t63</title>
<polygon fill="#ebf3ff" stroke="#0044a0" points="274.624,-660.881 51.4641,-660.881 47.4641,-656.881 47.4641,-604.881 270.624,-604.881 274.624,-608.881 274.624,-660.881"/>
<polyline fill="none" stroke="#0044a0" points="270.624,-656.881 47.4641,-656.881 "/>
<polyline fill="none" stroke="#0044a0" points="270.624,-656.881 270.624,-604.881 "/>
<polyline fill="none" stroke="#0044a0" points="270.624,-656.881 274.624,-660.881 "/>
<text text-anchor="middle" x="161.044" y="-638.881" font-family="Times,serif" font-size="20.00" fill="#0044a0">mkdir(&#39;geneset.dir&#39;) </text>
<text text-anchor="middle" x="161.044" y="-614.881" font-family="Times,serif" font-size="20.00" fill="#0044a0">before buildCodingExons </text>
</g>
<!-- t4 -->
<g id="node17" class="node"><title>t4</title>
<polygon fill="#ebf3ff" stroke="#0044a0" points="304.61,-511.321 417.044,-483.954 529.478,-511.321 529.373,-555.602 304.715,-555.602 304.61,-511.321"/>
<polygon fill="none" stroke="#0044a0" points="300.595,-508.171 417.044,-479.826 533.493,-508.171 533.371,-559.612 300.717,-559.612 300.595,-508.171"/>
<text text-anchor="middle" x="417.044" y="-517.56" font-family="Times,serif" font-size="20.00" fill="#0044a0">buildCodingExons</text>
</g>
<!-- t63&#45;&gt;t4 -->
<g id="edge15" class="edge"><title>t63&#45;&gt;t4</title>
<path fill="none" stroke="#0044a0" d="M225.644,-604.799C255.303,-592.365 291.037,-577.385 323.559,-563.751"/>
<polygon fill="#0044a0" stroke="#0044a0" points="325.218,-566.851 333.087,-559.756 322.512,-560.395 325.218,-566.851"/>
</g>
<!-- t4&#45;&gt;t30 -->
<g id="edge18" class="edge"><title>t4&#45;&gt;t30</title>
<path fill="none" stroke="#0044a0" d="M370.9,-490.734C353.302,-478.596 333.599,-465.007 317.413,-453.843"/>
<polygon fill="#0044a0" stroke="#0044a0" points="319.037,-450.712 308.818,-447.915 315.063,-456.474 319.037,-450.712"/>
</g>
<!-- t31 -->
<g id="node19" class="node"><title>t31</title>
<polygon fill="#ebf3ff" stroke="#0044a0" points="31.1468,-105.371 163.044,-78.0242 294.941,-105.371 294.818,-149.62 31.2699,-149.62 31.1468,-105.371"/>
<polygon fill="none" stroke="#0044a0" points="27.1316,-102.111 163.044,-73.9312 298.957,-102.111 298.813,-153.628 27.275,-153.628 27.1316,-102.111"/>
<text text-anchor="middle" x="163.044" y="-111.601" font-family="Times,serif" font-size="20.00" fill="#0044a0">loadTranscriptProfiles</text>
</g>
<!-- t30&#45;&gt;t31 -->
<g id="edge19" class="edge"><title>t30&#45;&gt;t31</title>
<path fill="none" stroke="#0044a0" d="M183.506,-422.233C121.632,-415.841 50.5459,-403.47 31.0441,-379.829 -24.9443,-311.956 2.80606,-254.729 54.0441,-183.203 60.3212,-174.44 68.1886,-166.665 76.8077,-159.821"/>
<polygon fill="#0044a0" stroke="#0044a0" points="78.9746,-162.571 84.9105,-153.796 74.7975,-156.954 78.9746,-162.571"/>
</g>
<!-- t31&#45;&gt;t48 -->
<g id="edge74" class="edge"><title>t31&#45;&gt;t48</title>
<path fill="none" stroke="#0044a0" d="M251.592,-92.1418C279.676,-85.2344 310.982,-78.4071 340.044,-74 551.57,-41.9234 808.904,-36.2081 903.689,-35.206"/>
<polygon fill="#0044a0" stroke="#0044a0" points="903.945,-38.7039 913.911,-35.1099 903.879,-31.7042 903.945,-38.7039"/>
</g>
<!-- t55 -->
<g id="node20" class="node"><title>t55</title>
<polygon fill="#ebf3ff" stroke="#0044a0" points="805.435,-660.881 598.654,-660.881 594.654,-656.881 594.654,-604.881 801.435,-604.881 805.435,-608.881 805.435,-660.881"/>
<polyline fill="none" stroke="#0044a0" points="801.435,-656.881 594.654,-656.881 "/>
<polyline fill="none" stroke="#0044a0" points="801.435,-656.881 801.435,-604.881 "/>
<polyline fill="none" stroke="#0044a0" points="801.435,-656.881 805.435,-660.881 "/>
<text text-anchor="middle" x="700.044" y="-638.881" font-family="Times,serif" font-size="20.00" fill="#0044a0">mkdir(&#39;sailfish.dir&#39;) </text>
<text text-anchor="middle" x="700.044" y="-614.881" font-family="Times,serif" font-size="20.00" fill="#0044a0">before indexForSailfish </text>
</g>
<!-- t20 -->
<g id="node22" class="node"><title>t20</title>
<polygon fill="#ebf3ff" stroke="#0044a0" points="951.862,-541.56 806.226,-541.56 802.226,-537.56 802.226,-505.56 947.862,-505.56 951.862,-509.56 951.862,-541.56"/>
<polyline fill="none" stroke="#0044a0" points="947.862,-537.56 802.226,-537.56 "/>
<polyline fill="none" stroke="#0044a0" points="947.862,-537.56 947.862,-505.56 "/>
<polyline fill="none" stroke="#0044a0" points="947.862,-537.56 951.862,-541.56 "/>
<text text-anchor="middle" x="877.044" y="-517.56" font-family="Times,serif" font-size="20.00" fill="#0044a0">indexForSailfish</text>
</g>
<!-- t55&#45;&gt;t20 -->
<g id="edge21" class="edge"><title>t55&#45;&gt;t20</title>
<path fill="none" stroke="#0044a0" d="M744.709,-604.799C774.28,-586.869 812.587,-563.642 840.371,-546.796"/>
<polygon fill="#0044a0" stroke="#0044a0" points="842.262,-549.743 848.998,-541.565 838.632,-543.757 842.262,-549.743"/>
</g>
<!-- t6&#45;&gt;t20 -->
<g id="edge22" class="edge"><title>t6&#45;&gt;t20</title>
<path fill="none" stroke="#0044a0" d="M941.673,-614.638C929.156,-597.192 909.663,-570.023 895.356,-550.083"/>
<polygon fill="#0044a0" stroke="#0044a0" points="898.058,-547.845 889.385,-541.76 892.371,-551.925 898.058,-547.845"/>
</g>
<!-- t36 -->
<g id="node31" class="node"><title>t36</title>
<polygon fill="#ebf3ff" stroke="#0044a0" points="1656.98,-354.153 1459.1,-354.153 1455.1,-350.153 1455.1,-318.153 1652.98,-318.153 1656.98,-322.153 1656.98,-354.153"/>
<polyline fill="none" stroke="#0044a0" points="1652.98,-350.153 1455.1,-350.153 "/>
<polyline fill="none" stroke="#0044a0" points="1652.98,-350.153 1652.98,-318.153 "/>
<polyline fill="none" stroke="#0044a0" points="1652.98,-350.153 1656.98,-354.153 "/>
<text text-anchor="middle" x="1556.04" y="-330.153" font-family="Times,serif" font-size="20.00" fill="#0044a0">characteriseTranscripts</text>
</g>
<!-- t6&#45;&gt;t36 -->
<g id="edge32" class="edge"><title>t6&#45;&gt;t36</title>
<path fill="none" stroke="#0044a0" d="M987.948,-614.796C1006.94,-605.906 1031.32,-595.603 1054.04,-589.291 1087.99,-579.862 1184.34,-590.269 1211.04,-567.291 1241.78,-540.84 1217.24,-515.218 1237.04,-479.829 1259.79,-439.18 1266.11,-424.063 1307.04,-401.829 1362.39,-371.762 1386.25,-396.296 1447.04,-379.829 1467.85,-374.193 1490.13,-365.9 1509.09,-358.12"/>
<polygon fill="#0044a0" stroke="#0044a0" points="1510.51,-361.319 1518.39,-354.236 1507.81,-354.859 1510.51,-361.319"/>
</g>
<!-- t43 -->
<g id="node54" class="node"><title>t43</title>
<polygon fill="#ebf3ff" stroke="#0044a0" points="1395.87,-541.56 1250.22,-541.56 1246.22,-537.56 1246.22,-505.56 1391.87,-505.56 1395.87,-509.56 1395.87,-541.56"/>
<polyline fill="none" stroke="#0044a0" points="1391.87,-537.56 1246.22,-537.56 "/>
<polyline fill="none" stroke="#0044a0" points="1391.87,-537.56 1391.87,-505.56 "/>
<polyline fill="none" stroke="#0044a0" points="1391.87,-537.56 1395.87,-541.56 "/>
<text text-anchor="middle" x="1321.04" y="-517.56" font-family="Times,serif" font-size="20.00" fill="#0044a0">indexForSalmon</text>
</g>
<!-- t6&#45;&gt;t43 -->
<g id="edge61" class="edge"><title>t6&#45;&gt;t43</title>
<path fill="none" stroke="#0044a0" d="M987.454,-614.865C1006.5,-605.882 1031.08,-595.468 1054.04,-589.291 1131.02,-568.582 1155.55,-589.725 1232.04,-567.291 1249.21,-562.257 1267.16,-554.228 1282.42,-546.481"/>
<polygon fill="#0044a0" stroke="#0044a0" points="1284.29,-549.453 1291.53,-541.724 1281.05,-543.247 1284.29,-549.453"/>
</g>
<!-- t20&#45;&gt;t21 -->
<g id="edge24" class="edge"><title>t20&#45;&gt;t21</title>
<path fill="none" stroke="#0044a0" d="M907.585,-505.475C923.272,-497.1 942.865,-487.247 961.044,-479.829 991.506,-467.397 1026.36,-456.179 1055.39,-447.623"/>
<polygon fill="#0044a0" stroke="#0044a0" points="1056.37,-450.982 1064.99,-444.825 1054.41,-444.261 1056.37,-450.982"/>
</g>
<!-- t20&#45;&gt;t27 -->
<g id="edge48" class="edge"><title>t20&#45;&gt;t27</title>
<path fill="none" stroke="#0044a0" d="M884.192,-505.306C889.765,-491.853 897.603,-472.931 903.984,-457.527"/>
<polygon fill="#0044a0" stroke="#0044a0" points="907.335,-458.583 907.929,-448.005 900.868,-455.904 907.335,-458.583"/>
</g>
<!-- t7&#45;&gt;t21 -->
<g id="edge25" class="edge"><title>t7&#45;&gt;t21</title>
<path fill="none" stroke="#0044a0" d="M1086.19,-505.306C1091.76,-491.853 1099.6,-472.931 1105.98,-457.527"/>
<polygon fill="#0044a0" stroke="#0044a0" points="1109.33,-458.583 1109.93,-448.005 1102.87,-455.904 1109.33,-458.583"/>
</g>
<!-- t7&#45;&gt;t27 -->
<g id="edge50" class="edge"><title>t7&#45;&gt;t27</title>
<path fill="none" stroke="#0044a0" d="M1048.58,-505.521C1022.08,-490.7 983.514,-469.127 954.631,-452.971"/>
<polygon fill="#0044a0" stroke="#0044a0" points="956.058,-449.759 945.622,-447.932 952.641,-455.868 956.058,-449.759"/>
</g>
<!-- t7&#45;&gt;t44 -->
<g id="edge63" class="edge"><title>t7&#45;&gt;t44</title>
<path fill="none" stroke="#0044a0" d="M1132.73,-505.521C1181.95,-489.896 1254.83,-466.765 1306.41,-450.391"/>
<polygon fill="#0044a0" stroke="#0044a0" points="1307.64,-453.675 1316.11,-447.313 1305.52,-447.003 1307.64,-453.675"/>
</g>
<!-- t22 -->
<g id="node25" class="node"><title>t22</title>
<polygon fill="#ebf3ff" stroke="#0044a0" points="1433.64,-344.795 1271.04,-364.12 1108.45,-344.795 1108.6,-313.528 1433.49,-313.528 1433.64,-344.795"/>
<polygon fill="none" stroke="#0044a0" points="1437.66,-348.346 1271.04,-368.148 1104.43,-348.346 1104.62,-309.528 1437.47,-309.528 1437.66,-348.346"/>
<text text-anchor="middle" x="1271.04" y="-330.153" font-family="Times,serif" font-size="20.00" fill="#0044a0">mergeSailfishResults</text>
</g>
<!-- t21&#45;&gt;t22 -->
<g id="edge27" class="edge"><title>t21&#45;&gt;t22</title>
<path fill="none" stroke="#0044a0" d="M1145.65,-411.8C1166.1,-399.625 1194.21,-382.89 1218.64,-368.351"/>
<polygon fill="#0044a0" stroke="#0044a0" points="1220.65,-371.229 1227.45,-363.106 1217.06,-365.214 1220.65,-371.229"/>
</g>
<!-- t23 -->
<g id="node26" class="node"><title>t23</title>
<polygon fill="#ebf3ff" stroke="#0044a0" points="729.475,-244.84 562.614,-244.84 558.614,-240.84 558.614,-208.84 725.475,-208.84 729.475,-212.84 729.475,-244.84"/>
<polyline fill="none" stroke="#0044a0" points="725.475,-240.84 558.614,-240.84 "/>
<polyline fill="none" stroke="#0044a0" points="725.475,-240.84 725.475,-208.84 "/>
<polyline fill="none" stroke="#0044a0" points="725.475,-240.84 729.475,-244.84 "/>
<text text-anchor="middle" x="644.044" y="-220.84" font-family="Times,serif" font-size="20.00" fill="#0044a0">loadSailfishResults</text>
</g>
<!-- t22&#45;&gt;t23 -->
<g id="edge28" class="edge"><title>t22&#45;&gt;t23</title>
<path fill="none" stroke="#0044a0" d="M1179.02,-309.462C1152.44,-302.928 1123.25,-296.598 1096.04,-292.478 938.43,-268.611 892.749,-308.928 738.044,-270.478 719.436,-265.853 699.962,-257.646 683.596,-249.658"/>
<polygon fill="#0044a0" stroke="#0044a0" points="684.856,-246.374 674.349,-245.01 681.711,-252.628 684.856,-246.374"/>
</g>
<!-- t37 -->
<g id="node32" class="node"><title>t37</title>
<polygon fill="#ebf3ff" stroke="#0044a0" points="1165.24,-244.84 1030.85,-244.84 1026.85,-240.84 1026.85,-208.84 1161.24,-208.84 1165.24,-212.84 1165.24,-244.84"/>
<polyline fill="none" stroke="#0044a0" points="1161.24,-240.84 1026.85,-240.84 "/>
<polyline fill="none" stroke="#0044a0" points="1161.24,-240.84 1161.24,-208.84 "/>
<polyline fill="none" stroke="#0044a0" points="1161.24,-240.84 1165.24,-244.84 "/>
<text text-anchor="middle" x="1096.04" y="-220.84" font-family="Times,serif" font-size="20.00" fill="#0044a0">summariseBias</text>
</g>
<!-- t22&#45;&gt;t37 -->
<g id="edge34" class="edge"><title>t22&#45;&gt;t37</title>
<path fill="none" stroke="#0044a0" d="M1229.13,-309.449C1199.75,-291.433 1160.85,-267.583 1132.71,-250.323"/>
<polygon fill="#0044a0" stroke="#0044a0" points="1134.33,-247.21 1123.97,-244.966 1130.67,-253.177 1134.33,-247.21"/>
</g>
<!-- t39 -->
<g id="node50" class="node"><title>t39</title>
<polygon fill="#ebf3ff" stroke="#0044a0" points="786.039,-135.601 588.05,-135.601 584.05,-131.601 584.05,-99.6014 782.039,-99.6014 786.039,-103.601 786.039,-135.601"/>
<polyline fill="none" stroke="#0044a0" points="782.039,-131.601 584.05,-131.601 "/>
<polyline fill="none" stroke="#0044a0" points="782.039,-131.601 782.039,-99.6014 "/>
<polyline fill="none" stroke="#0044a0" points="782.039,-131.601 786.039,-135.601 "/>
<text text-anchor="middle" x="685.044" y="-111.601" font-family="Times,serif" font-size="20.00" fill="#0044a0">plotTopGenesHeatmap</text>
</g>
<!-- t23&#45;&gt;t39 -->
<g id="edge56" class="edge"><title>t23&#45;&gt;t39</title>
<path fill="none" stroke="#0044a0" d="M650.631,-208.611C657.177,-191.491 667.305,-165.001 674.881,-145.184"/>
<polygon fill="#0044a0" stroke="#0044a0" points="678.171,-146.379 678.473,-135.788 671.633,-143.879 678.171,-146.379"/>
</g>
<!-- t41 -->
<g id="node52" class="node"><title>t41</title>
<polygon fill="#ebf3ff" stroke="#0044a0" points="514.028,-135.601 382.06,-135.601 378.06,-131.601 378.06,-99.6014 510.028,-99.6014 514.028,-103.601 514.028,-135.601"/>
<polyline fill="none" stroke="#0044a0" points="510.028,-131.601 378.06,-131.601 "/>
<polyline fill="none" stroke="#0044a0" points="510.028,-131.601 510.028,-99.6014 "/>
<polyline fill="none" stroke="#0044a0" points="510.028,-131.601 514.028,-135.601 "/>
<text text-anchor="middle" x="446.044" y="-111.601" font-family="Times,serif" font-size="20.00" fill="#0044a0">plotExpression</text>
</g>
<!-- t23&#45;&gt;t41 -->
<g id="edge59" class="edge"><title>t23&#45;&gt;t41</title>
<path fill="none" stroke="#0044a0" d="M612.232,-208.611C578.069,-190.107 523.695,-160.658 486.511,-140.519"/>
<polygon fill="#0044a0" stroke="#0044a0" points="487.91,-137.296 477.45,-135.611 484.577,-143.451 487.91,-137.296"/>
</g>
<!-- t23&#45;&gt;t48 -->
<g id="edge77" class="edge"><title>t23&#45;&gt;t48</title>
<path fill="none" stroke="#0044a0" d="M680.435,-208.745C697.777,-200.75 718.875,-191.242 738.044,-183.203 763.086,-172.701 772.01,-175.584 795.044,-161.203 843.383,-131.023 845.301,-110.524 889.044,-74 895.317,-68.762 902.203,-63.3664 908.852,-58.3216"/>
<polygon fill="#0044a0" stroke="#0044a0" points="911.178,-60.9528 917.085,-52.1574 906.982,-55.3496 911.178,-60.9528"/>
</g>
<!-- t32 -->
<g id="node27" class="node"><title>t32</title>
<polygon fill="#ebf3ff" stroke="#0044a0" points="300.615,-323.923 433.044,-296.577 565.473,-323.923 565.35,-368.171 300.739,-368.171 300.615,-323.923"/>
<polygon fill="none" stroke="#0044a0" points="296.607,-320.659 433.044,-292.485 569.481,-320.659 569.338,-372.179 296.751,-372.179 296.607,-320.659"/>
<text text-anchor="middle" x="433.044" y="-330.153" font-family="Times,serif" font-size="20.00" fill="#0044a0">buildExperimentTable</text>
</g>
<!-- t35 -->
<g id="node30" class="node"><title>t35</title>
<polygon fill="#ebf3ff" stroke="#0044a0" points="250.598,-244.84 67.4901,-244.84 63.4901,-240.84 63.4901,-208.84 246.598,-208.84 250.598,-212.84 250.598,-244.84"/>
<polyline fill="none" stroke="#0044a0" points="246.598,-240.84 63.4901,-240.84 "/>
<polyline fill="none" stroke="#0044a0" points="246.598,-240.84 246.598,-208.84 "/>
<polyline fill="none" stroke="#0044a0" points="246.598,-240.84 250.598,-244.84 "/>
<text text-anchor="middle" x="157.044" y="-220.84" font-family="Times,serif" font-size="20.00" fill="#0044a0">loadMetaInformation</text>
</g>
<!-- t32&#45;&gt;t35 -->
<g id="edge31" class="edge"><title>t32&#45;&gt;t35</title>
<path fill="none" stroke="#0044a0" d="M358.318,-307.862C327.76,-296.534 292.117,-283.107 260.044,-270.478 242.733,-263.661 223.898,-255.952 207.126,-248.981"/>
<polygon fill="#0044a0" stroke="#0044a0" points="208.093,-245.592 197.516,-244.975 205.399,-252.053 208.093,-245.592"/>
</g>
<!-- t33 -->
<g id="node28" class="node"><title>t33</title>
<polygon fill="#ebf3ff" stroke="#0044a0" points="43.6499,-323.916 159.044,-296.553 274.438,-323.916 274.331,-368.191 43.7576,-368.191 43.6499,-323.916"/>
<polygon fill="none" stroke="#0044a0" points="39.6353,-320.747 159.044,-292.431 278.453,-320.747 278.328,-372.201 39.7605,-372.201 39.6353,-320.747"/>
<text text-anchor="middle" x="159.044" y="-330.153" font-family="Times,serif" font-size="20.00" fill="#0044a0">buildSamplesTable</text>
</g>
<!-- t33&#45;&gt;t35 -->
<g id="edge30" class="edge"><title>t33&#45;&gt;t35</title>
<path fill="none" stroke="#0044a0" d="M158.248,-292.432C158.013,-279.853 157.763,-266.436 157.552,-255.108"/>
<polygon fill="#0044a0" stroke="#0044a0" points="161.049,-254.916 157.364,-244.983 154.051,-255.047 161.049,-254.916"/>
</g>
<!-- t34 -->
<g id="node29" class="node"><title>t34</title>
<polygon fill="#ebf3ff" stroke="#0044a0" points="591.189,-323.909 695.044,-296.53 798.899,-323.909 798.802,-368.209 591.286,-368.209 591.189,-323.909"/>
<polygon fill="none" stroke="#0044a0" points="587.185,-320.816 695.044,-292.382 802.903,-320.816 802.791,-372.222 587.298,-372.222 587.185,-320.816"/>
<text text-anchor="middle" x="695.044" y="-330.153" font-family="Times,serif" font-size="20.00" fill="#0044a0">buildFactorTable</text>
</g>
<!-- t34&#45;&gt;t35 -->
<g id="edge29" class="edge"><title>t34&#45;&gt;t35</title>
<path fill="none" stroke="#0044a0" d="M632.542,-308.693C615.181,-302.357 596.127,-296.321 578.044,-292.478 439.468,-263.027 397.959,-302.883 260.044,-270.478 239.508,-265.653 217.787,-257.207 199.613,-249.098"/>
<polygon fill="#0044a0" stroke="#0044a0" points="201.007,-245.887 190.457,-244.909 198.095,-252.252 201.007,-245.887"/>
</g>
<!-- t35&#45;&gt;t39 -->
<g id="edge55" class="edge"><title>t35&#45;&gt;t39</title>
<path fill="none" stroke="#0044a0" d="M190.952,-208.685C210.622,-199.535 236.158,-188.997 260.044,-183.203 374.036,-155.553 407.444,-181.082 523.044,-161.203 555.36,-155.645 590.636,-146.719 619.995,-138.47"/>
<polygon fill="#0044a0" stroke="#0044a0" points="621.052,-141.808 629.712,-135.704 619.136,-135.075 621.052,-141.808"/>
</g>
<!-- t35&#45;&gt;t41 -->
<g id="edge58" class="edge"><title>t35&#45;&gt;t41</title>
<path fill="none" stroke="#0044a0" d="M194.677,-208.638C213.959,-200.242 237.971,-190.423 260.044,-183.203 299.182,-170.402 311.071,-174.495 350.044,-161.203 367.5,-155.249 386.149,-147.349 402.323,-139.971"/>
<polygon fill="#0044a0" stroke="#0044a0" points="403.929,-143.084 411.532,-135.706 400.987,-136.733 403.929,-143.084"/>
</g>
<!-- t35&#45;&gt;t48 -->
<g id="edge73" class="edge"><title>t35&#45;&gt;t48</title>
<path fill="none" stroke="#0044a0" d="M198.598,-208.713C241.698,-190.848 303.466,-164.923 308.044,-161.203 344.749,-131.373 327.863,-97.2644 369.044,-74 415.418,-47.8022 784.104,-38.149 903.718,-35.6883"/>
<polygon fill="#0044a0" stroke="#0044a0" points="903.925,-39.185 913.852,-35.4849 903.784,-32.1864 903.925,-39.185"/>
</g>
<!-- t36&#45;&gt;t37 -->
<g id="edge33" class="edge"><title>t36&#45;&gt;t37</title>
<path fill="none" stroke="#0044a0" d="M1520.06,-317.986C1499.21,-308.829 1472.19,-298.281 1447.04,-292.478 1328.43,-265.107 1290.68,-305.325 1174.04,-270.478 1158.67,-265.883 1142.91,-257.985 1129.62,-250.225"/>
<polygon fill="#0044a0" stroke="#0044a0" points="1131.22,-247.1 1120.85,-244.918 1127.59,-253.089 1131.22,-247.1"/>
</g>
<!-- t38 -->
<g id="node33" class="node"><title>t38</title>
<polygon fill="#ebf3ff" stroke="#0044a0" points="984.032,-135.601 902.056,-135.601 898.056,-131.601 898.056,-99.6014 980.032,-99.6014 984.032,-103.601 984.032,-135.601"/>
<polyline fill="none" stroke="#0044a0" points="980.032,-131.601 898.056,-131.601 "/>
<polyline fill="none" stroke="#0044a0" points="980.032,-131.601 980.032,-99.6014 "/>
<polyline fill="none" stroke="#0044a0" points="980.032,-131.601 984.032,-135.601 "/>
<text text-anchor="middle" x="941.044" y="-111.601" font-family="Times,serif" font-size="20.00" fill="#0044a0">loadBias</text>
</g>
<!-- t37&#45;&gt;t38 -->
<g id="edge35" class="edge"><title>t37&#45;&gt;t38</title>
<path fill="none" stroke="#0044a0" d="M1066.55,-208.681C1045.6,-196.171 1017.04,-178.458 993.044,-161.203 984.972,-155.399 976.515,-148.74 968.821,-142.438"/>
<polygon fill="#0044a0" stroke="#0044a0" points="970.757,-139.496 960.828,-135.798 966.283,-144.88 970.757,-139.496"/>
</g>
<!-- t38&#45;&gt;t48 -->
<g id="edge72" class="edge"><title>t38&#45;&gt;t48</title>
<path fill="none" stroke="#0044a0" d="M941.044,-99.2958C941.044,-88.5129 941.044,-74.4087 941.044,-62.1586"/>
<polygon fill="#0044a0" stroke="#0044a0" points="944.544,-62.0008 941.044,-52.0008 937.544,-62.0008 944.544,-62.0008"/>
</g>
<!-- t59 -->
<g id="node34" class="node"><title>t59</title>
<polygon fill="#ebf3ff" stroke="#0044a0" points="1493.14,-660.881 1314.95,-660.881 1310.95,-656.881 1310.95,-604.881 1489.14,-604.881 1493.14,-608.881 1493.14,-660.881"/>
<polyline fill="none" stroke="#0044a0" points="1489.14,-656.881 1310.95,-656.881 "/>
<polyline fill="none" stroke="#0044a0" points="1489.14,-656.881 1489.14,-604.881 "/>
<polyline fill="none" stroke="#0044a0" points="1489.14,-656.881 1493.14,-660.881 "/>
<text text-anchor="middle" x="1402.04" y="-638.881" font-family="Times,serif" font-size="20.00" fill="#0044a0">mkdir(&#39;geneset.dir&#39;) </text>
<text text-anchor="middle" x="1402.04" y="-614.881" font-family="Times,serif" font-size="20.00" fill="#0044a0">before buildRefFlat </text>
</g>
<!-- t24 -->
<g id="node35" class="node"><title>t24</title>
<polygon fill="#ebf3ff" stroke="#0044a0" points="1459.73,-511.289 1539.04,-483.85 1618.36,-511.289 1618.28,-555.686 1459.81,-555.686 1459.73,-511.289"/>
<polygon fill="none" stroke="#0044a0" points="1455.72,-508.423 1539.04,-479.596 1622.37,-508.423 1622.28,-559.707 1455.8,-559.707 1455.72,-508.423"/>
<text text-anchor="middle" x="1539.04" y="-517.56" font-family="Times,serif" font-size="20.00" fill="#0044a0">buildRefFlat</text>
</g>
<!-- t59&#45;&gt;t24 -->
<g id="edge36" class="edge"><title>t59&#45;&gt;t24</title>
<path fill="none" stroke="#0044a0" d="M1436.62,-604.799C1451.6,-593.059 1469.49,-579.048 1486.09,-566.045"/>
<polygon fill="#0044a0" stroke="#0044a0" points="1488.4,-568.678 1494.11,-559.756 1484.08,-563.168 1488.4,-568.678"/>
</g>
<!-- t24&#45;&gt;t25 -->
<g id="edge37" class="edge"><title>t24&#45;&gt;t25</title>
<path fill="none" stroke="#0044a0" d="M1563.81,-488.141C1571.45,-477.525 1579.71,-466.034 1586.83,-456.149"/>
<polygon fill="#0044a0" stroke="#0044a0" points="1589.74,-458.099 1592.73,-447.937 1584.05,-454.01 1589.74,-458.099"/>
</g>
<!-- t26 -->
<g id="node37" class="node"><title>t26</title>
<polygon fill="#ebf3ff" stroke="#0044a0" points="1523.08,-214.616 1675.04,-187.282 1827,-214.616 1826.86,-258.843 1523.23,-258.843 1523.08,-214.616"/>
<polygon fill="none" stroke="#0044a0" points="1519.07,-211.268 1675.04,-183.212 1831.02,-211.268 1830.85,-262.849 1519.24,-262.849 1519.07,-211.268"/>
<text text-anchor="middle" x="1675.04" y="-220.84" font-family="Times,serif" font-size="20.00" fill="#0044a0">loadPicardRnaSeqMetrics</text>
</g>
<!-- t25&#45;&gt;t26 -->
<g id="edge39" class="edge"><title>t25&#45;&gt;t26</title>
<path fill="none" stroke="#0044a0" d="M1646.94,-411.774C1660.29,-404.105 1673.53,-393.613 1681.04,-379.829 1698.78,-347.295 1695.27,-304.765 1688.48,-272.97"/>
<polygon fill="#0044a0" stroke="#0044a0" points="1691.85,-272.003 1686.18,-263.051 1685.03,-273.583 1691.85,-272.003"/>
</g>
<!-- t26&#45;&gt;t48 -->
<g id="edge76" class="edge"><title>t26&#45;&gt;t48</title>
<path fill="none" stroke="#0044a0" d="M1637.55,-189.583C1597.3,-153.188 1529.71,-99.0327 1460.04,-74 1371.24,-42.092 1081.88,-36.2894 978.326,-35.2344"/>
<polygon fill="#0044a0" stroke="#0044a0" points="978.079,-31.7321 968.047,-35.1393 978.014,-38.7318 978.079,-31.7321"/>
</g>
<!-- t17 -->
<g id="node38" class="node"><title>t17</title>
<polygon fill="#ebf3ff" stroke="#0044a0" points="2087.21,-541.56 1938.88,-541.56 1934.88,-537.56 1934.88,-505.56 2083.21,-505.56 2087.21,-509.56 2087.21,-541.56"/>
<polyline fill="none" stroke="#0044a0" points="2083.21,-537.56 1934.88,-537.56 "/>
<polyline fill="none" stroke="#0044a0" points="2083.21,-537.56 2083.21,-505.56 "/>
<polyline fill="none" stroke="#0044a0" points="2083.21,-537.56 2087.21,-541.56 "/>
<text text-anchor="middle" x="2011.04" y="-517.56" font-family="Times,serif" font-size="20.00" fill="#0044a0">buildBedContext</text>
</g>
<!-- t17&#45;&gt;t18 -->
<g id="edge40" class="edge"><title>t17&#45;&gt;t18</title>
<path fill="none" stroke="#0044a0" d="M2011.04,-505.306C2011.04,-492.109 2011.04,-473.65 2011.04,-458.411"/>
<polygon fill="#0044a0" stroke="#0044a0" points="2014.54,-458.005 2011.04,-448.005 2007.54,-458.005 2014.54,-458.005"/>
</g>
<!-- t18&#45;&gt;t19 -->
<g id="edge42" class="edge"><title>t18&#45;&gt;t19</title>
<path fill="none" stroke="#0044a0" d="M2056.91,-411.674C2070.69,-404.114 2084.21,-393.716 2092.04,-379.829 2134.96,-303.705 2135.9,-258.791 2092.04,-183.203 2086.98,-174.48 2080.25,-166.836 2072.59,-160.158"/>
<polygon fill="#0044a0" stroke="#0044a0" points="2074.64,-157.314 2064.64,-153.799 2070.26,-162.78 2074.64,-157.314"/>
</g>
<!-- t19&#45;&gt;t48 -->
<g id="edge78" class="edge"><title>t19&#45;&gt;t48</title>
<path fill="none" stroke="#0044a0" d="M1906.13,-90.2799C1885.36,-83.8317 1862.54,-77.72 1841.04,-74 1671.16,-44.5987 1126.31,-36.9127 978.399,-35.346"/>
<polygon fill="#0044a0" stroke="#0044a0" points="978.087,-31.8427 968.052,-35.2396 978.015,-38.8423 978.087,-31.8427"/>
</g>
<!-- t29 -->
<g id="node41" class="node"><title>t29</title>
<polygon fill="#ebf3ff" stroke="#0044a0" points="804.1,-457.829 555.988,-457.829 551.988,-453.829 551.988,-401.829 800.1,-401.829 804.1,-405.829 804.1,-457.829"/>
<polyline fill="none" stroke="#0044a0" points="800.1,-453.829 551.988,-453.829 "/>
<polyline fill="none" stroke="#0044a0" points="800.1,-453.829 800.1,-401.829 "/>
<polyline fill="none" stroke="#0044a0" points="800.1,-453.829 804.1,-457.829 "/>
<text text-anchor="middle" x="678.044" y="-435.829" font-family="Times,serif" font-size="20.00" fill="#0044a0">mkdir(&#39;sailfish.dir/plots.dir&#39;) </text>
<text text-anchor="middle" x="678.044" y="-411.829" font-family="Times,serif" font-size="20.00" fill="#0044a0">before plotSailfishSaturation </text>
</g>
<!-- t28 -->
<g id="node48" class="node"><title>t28</title>
<polygon fill="#ebf3ff" stroke="#0044a0" points="825.094,-323.922 954.044,-296.572 1082.99,-323.922 1082.87,-368.175 825.214,-368.175 825.094,-323.922"/>
<polygon fill="none" stroke="#0044a0" points="821.078,-320.677 954.044,-292.475 1087.01,-320.677 1086.87,-372.183 821.218,-372.183 821.078,-320.677"/>
<text text-anchor="middle" x="954.044" y="-330.153" font-family="Times,serif" font-size="20.00" fill="#0044a0">plotSailfishSaturation</text>
</g>
<!-- t29&#45;&gt;t28 -->
<g id="edge52" class="edge"><title>t29&#45;&gt;t28</title>
<path fill="none" stroke="#0044a0" d="M759.36,-401.819C784.214,-393.563 812.038,-384.322 838.7,-375.465"/>
<polygon fill="#0044a0" stroke="#0044a0" points="840.077,-378.696 848.464,-372.223 837.87,-372.053 840.077,-378.696"/>
</g>
<!-- t57 -->
<g id="node42" class="node"><title>t57</title>
<polygon fill="#ebf3ff" stroke="#0044a0" points="426.41,-754.471 179.678,-754.471 175.678,-750.471 175.678,-698.471 422.41,-698.471 426.41,-702.471 426.41,-754.471"/>
<polyline fill="none" stroke="#0044a0" points="422.41,-750.471 175.678,-750.471 "/>
<polyline fill="none" stroke="#0044a0" points="422.41,-750.471 422.41,-698.471 "/>
<polyline fill="none" stroke="#0044a0" points="422.41,-750.471 426.41,-754.471 "/>
<text text-anchor="middle" x="301.044" y="-732.471" font-family="Times,serif" font-size="20.00" fill="#0044a0">mkdir(&#39;fastq.dir&#39;) </text>
<text text-anchor="middle" x="301.044" y="-708.471" font-family="Times,serif" font-size="20.00" fill="#0044a0">before identifyHighestDepth </text>
</g>
<!-- t9 -->
<g id="node45" class="node"><title>t9</title>
<polygon fill="#ebf3ff" stroke="#0044a0" points="297.119,-620.649 425.044,-593.299 552.969,-620.649 552.85,-664.903 297.239,-664.903 297.119,-620.649"/>
<polygon fill="none" stroke="#0044a0" points="293.112,-617.408 425.044,-589.201 556.977,-617.408 556.838,-668.911 293.25,-668.911 293.112,-617.408"/>
<text text-anchor="middle" x="425.044" y="-626.881" font-family="Times,serif" font-size="20.00" fill="#0044a0">identifyHighestDepth</text>
</g>
<!-- t57&#45;&gt;t9 -->
<g id="edge45" class="edge"><title>t57&#45;&gt;t9</title>
<path fill="none" stroke="#0044a0" d="M337.912,-698.239C347.811,-690.927 358.739,-682.856 369.412,-674.972"/>
<polygon fill="#0044a0" stroke="#0044a0" points="371.539,-677.753 377.503,-668.996 367.38,-672.122 371.539,-677.753"/>
</g>
<!-- t53 -->
<g id="node43" class="node"><title>t53</title>
<polygon fill="#ebf3ff" stroke="#0044a0" points="586.358,-848.047 415.73,-848.047 411.73,-844.047 411.73,-792.047 582.358,-792.047 586.358,-796.047 586.358,-848.047"/>
<polyline fill="none" stroke="#0044a0" points="582.358,-844.047 411.73,-844.047 "/>
<polyline fill="none" stroke="#0044a0" points="582.358,-844.047 582.358,-792.047 "/>
<polyline fill="none" stroke="#0044a0" points="582.358,-844.047 586.358,-848.047 "/>
<text text-anchor="middle" x="499.044" y="-826.047" font-family="Times,serif" font-size="20.00" fill="#0044a0">mkdir(&#39;nreads.dir&#39;) </text>
<text text-anchor="middle" x="499.044" y="-802.047" font-family="Times,serif" font-size="20.00" fill="#0044a0">before countReads </text>
</g>
<!-- t0 -->
<g id="node44" class="node"><title>t0</title>
<polygon fill="none" stroke="#0044a0" stroke-dasharray="5,2" points="553.853,-744.471 448.236,-744.471 444.236,-740.471 444.236,-708.471 549.853,-708.471 553.853,-712.471 553.853,-744.471"/>
<polyline fill="none" stroke="#0044a0" stroke-dasharray="5,2" points="549.853,-740.471 444.236,-740.471 "/>
<polyline fill="none" stroke="#0044a0" stroke-dasharray="5,2" points="549.853,-740.471 549.853,-708.471 "/>
<polyline fill="none" stroke="#0044a0" stroke-dasharray="5,2" points="549.853,-740.471 553.853,-744.471 "/>
<text text-anchor="middle" x="499.044" y="-720.471" font-family="Times,serif" font-size="20.00" fill="#0044a0">countReads</text>
</g>
<!-- t53&#45;&gt;t0 -->
<g id="edge44" class="edge"><title>t53&#45;&gt;t0</title>
<path fill="none" stroke="#0044a0" d="M499.044,-791.571C499.044,-779.874 499.044,-766.267 499.044,-754.607"/>
<polygon fill="#0044a0" stroke="#0044a0" points="502.544,-754.556 499.044,-744.556 495.544,-754.556 502.544,-754.556"/>
</g>
<!-- t0&#45;&gt;t9 -->
<g id="edge46" class="edge"><title>t0&#45;&gt;t9</title>
<path fill="none" stroke="#0044a0" d="M485.125,-708.243C477.983,-699.403 468.93,-688.199 460.033,-677.187"/>
<polygon fill="#0044a0" stroke="#0044a0" points="462.619,-674.818 453.611,-669.239 457.174,-679.217 462.619,-674.818"/>
</g>
<!-- t10 -->
<g id="node46" class="node"><title>t10</title>
<polygon fill="#ebf3ff" stroke="#0044a0" points="760.234,-532.213 658.044,-551.563 555.854,-532.213 555.95,-500.904 760.139,-500.904 760.234,-532.213"/>
<polygon fill="none" stroke="#0044a0" points="764.238,-535.531 658.044,-555.639 551.85,-535.531 551.967,-496.899 764.121,-496.899 764.238,-535.531"/>
<text text-anchor="middle" x="658.044" y="-517.56" font-family="Times,serif" font-size="20.00" fill="#0044a0">subsetRange</text>
</g>
<!-- t9&#45;&gt;t10 -->
<g id="edge47" class="edge"><title>t9&#45;&gt;t10</title>
<path fill="none" stroke="#0044a0" d="M488.405,-602.697C523.51,-586.527 566.808,-566.583 600.874,-550.892"/>
<polygon fill="#0044a0" stroke="#0044a0" points="602.605,-553.949 610.224,-546.586 599.676,-547.591 602.605,-553.949"/>
</g>
<!-- t10&#45;&gt;t27 -->
<g id="edge49" class="edge"><title>t10&#45;&gt;t27</title>
<path fill="none" stroke="#0044a0" d="M729.975,-496.886C770.187,-482.532 819.634,-464.883 857.298,-451.44"/>
<polygon fill="#0044a0" stroke="#0044a0" points="858.857,-454.6 867.098,-447.942 856.504,-448.007 858.857,-454.6"/>
</g>
<!-- t27&#45;&gt;t28 -->
<g id="edge53" class="edge"><title>t27&#45;&gt;t28</title>
<path fill="none" stroke="#0044a0" d="M922.38,-411.585C925.998,-403.081 930.546,-392.389 935.057,-381.784"/>
<polygon fill="#0044a0" stroke="#0044a0" points="938.294,-383.116 938.988,-372.544 931.853,-380.376 938.294,-383.116"/>
</g>
<!-- t28&#45;&gt;t48 -->
<g id="edge75" class="edge"><title>t28&#45;&gt;t48</title>
<path fill="none" stroke="#0044a0" d="M876.645,-308.715C855.878,-302.499 833.287,-296.516 812.044,-292.478 783.345,-287.022 569.818,-291.982 550.044,-270.478 520.252,-238.079 542.128,-103.218 575.044,-74 599.326,-52.4462 815.734,-40.5347 903.907,-36.5404"/>
<polygon fill="#0044a0" stroke="#0044a0" points="904.167,-40.0323 914.002,-36.0924 903.857,-33.0392 904.167,-40.0323"/>
</g>
<!-- t40 -->
<g id="node49" class="node"><title>t40</title>
<polygon fill="#ebf3ff" stroke="#0044a0" points="1009.11,-254.84 750.978,-254.84 746.978,-250.84 746.978,-198.84 1005.11,-198.84 1009.11,-202.84 1009.11,-254.84"/>
<polyline fill="none" stroke="#0044a0" points="1005.11,-250.84 746.978,-250.84 "/>
<polyline fill="none" stroke="#0044a0" points="1005.11,-250.84 1005.11,-198.84 "/>
<polyline fill="none" stroke="#0044a0" points="1005.11,-250.84 1009.11,-254.84 "/>
<text text-anchor="middle" x="878.044" y="-232.84" font-family="Times,serif" font-size="20.00" fill="#0044a0">mkdir(&#39;sailfish.dir/plots.dir&#39;) </text>
<text text-anchor="middle" x="878.044" y="-208.84" font-family="Times,serif" font-size="20.00" fill="#0044a0">before plotTopGenesHeatmap </text>
</g>
<!-- t40&#45;&gt;t39 -->
<g id="edge54" class="edge"><title>t40&#45;&gt;t39</title>
<path fill="none" stroke="#0044a0" d="M829.342,-198.779C797.059,-180.842 755.228,-157.599 724.924,-140.76"/>
<polygon fill="#0044a0" stroke="#0044a0" points="726.354,-137.551 715.912,-135.753 722.954,-143.67 726.354,-137.551"/>
</g>
<!-- t39&#45;&gt;t48 -->
<g id="edge71" class="edge"><title>t39&#45;&gt;t48</title>
<path fill="none" stroke="#0044a0" d="M738.399,-99.5944C788.019,-83.7776 860.644,-60.6279 904.14,-46.7634"/>
<polygon fill="#0044a0" stroke="#0044a0" points="905.285,-50.0721 913.75,-43.7003 903.159,-43.4027 905.285,-50.0721"/>
</g>
<!-- t42 -->
<g id="node51" class="node"><title>t42</title>
<polygon fill="#ebf3ff" stroke="#0044a0" points="521.1,-254.84 272.988,-254.84 268.988,-250.84 268.988,-198.84 517.1,-198.84 521.1,-202.84 521.1,-254.84"/>
<polyline fill="none" stroke="#0044a0" points="517.1,-250.84 268.988,-250.84 "/>
<polyline fill="none" stroke="#0044a0" points="517.1,-250.84 517.1,-198.84 "/>
<polyline fill="none" stroke="#0044a0" points="517.1,-250.84 521.1,-254.84 "/>
<text text-anchor="middle" x="395.044" y="-232.84" font-family="Times,serif" font-size="20.00" fill="#0044a0">mkdir(&#39;sailfish.dir/plots.dir&#39;) </text>
<text text-anchor="middle" x="395.044" y="-208.84" font-family="Times,serif" font-size="20.00" fill="#0044a0">before plotExpression </text>
</g>
<!-- t42&#45;&gt;t41 -->
<g id="edge57" class="edge"><title>t42&#45;&gt;t41</title>
<path fill="none" stroke="#0044a0" d="M407.914,-198.779C415.758,-182.285 425.735,-161.305 433.516,-144.944"/>
<polygon fill="#0044a0" stroke="#0044a0" points="436.677,-146.447 437.811,-135.913 430.356,-143.441 436.677,-146.447"/>
</g>
<!-- t41&#45;&gt;t48 -->
<g id="edge70" class="edge"><title>t41&#45;&gt;t48</title>
<path fill="none" stroke="#0044a0" d="M475.098,-99.4891C492.016,-90.356 514.083,-79.8259 535.044,-74 667.048,-37.3105 831.435,-33.8027 903.85,-34.2775"/>
<polygon fill="#0044a0" stroke="#0044a0" points="903.819,-37.7772 913.852,-34.3729 903.886,-30.7775 903.819,-37.7772"/>
</g>
<!-- t64 -->
<g id="node53" class="node"><title>t64</title>
<polygon fill="#ebf3ff" stroke="#0044a0" points="1273.44,-660.881 1066.65,-660.881 1062.65,-656.881 1062.65,-604.881 1269.44,-604.881 1273.44,-608.881 1273.44,-660.881"/>
<polyline fill="none" stroke="#0044a0" points="1269.44,-656.881 1062.65,-656.881 "/>
<polyline fill="none" stroke="#0044a0" points="1269.44,-656.881 1269.44,-604.881 "/>
<polyline fill="none" stroke="#0044a0" points="1269.44,-656.881 1273.44,-660.881 "/>
<text text-anchor="middle" x="1168.04" y="-638.881" font-family="Times,serif" font-size="20.00" fill="#0044a0">mkdir(&#39;salmon.dir&#39;) </text>
<text text-anchor="middle" x="1168.04" y="-614.881" font-family="Times,serif" font-size="20.00" fill="#0044a0">before indexForSalmon </text>
</g>
<!-- t64&#45;&gt;t43 -->
<g id="edge60" class="edge"><title>t64&#45;&gt;t43</title>
<path fill="none" stroke="#0044a0" d="M1206.65,-604.799C1231.88,-587.102 1264.47,-564.245 1288.4,-547.455"/>
<polygon fill="#0044a0" stroke="#0044a0" points="1290.62,-550.173 1296.8,-541.565 1286.6,-544.442 1290.62,-550.173"/>
</g>
<!-- t43&#45;&gt;t44 -->
<g id="edge62" class="edge"><title>t43&#45;&gt;t44</title>
<path fill="none" stroke="#0044a0" d="M1329.88,-505.306C1336.84,-491.725 1346.66,-472.57 1354.59,-457.088"/>
<polygon fill="#0044a0" stroke="#0044a0" points="1357.8,-458.501 1359.24,-448.005 1351.57,-455.309 1357.8,-458.501"/>
</g>
<!-- t45 -->
<g id="node56" class="node"><title>t45</title>
<polygon fill="#ebf3ff" stroke="#0044a0" points="1187.07,-214.617 1342.04,-187.284 1497.02,-214.617 1496.87,-258.842 1187.22,-258.842 1187.07,-214.617"/>
<polygon fill="none" stroke="#0044a0" points="1183.06,-211.257 1342.04,-183.217 1501.03,-211.257 1500.86,-262.847 1183.23,-262.847 1183.06,-211.257"/>
<text text-anchor="middle" x="1342.04" y="-220.84" font-family="Times,serif" font-size="20.00" fill="#0044a0">checkStrandednessSalmon</text>
</g>
<!-- t44&#45;&gt;t45 -->
<g id="edge65" class="edge"><title>t44&#45;&gt;t45</title>
<path fill="none" stroke="#0044a0" d="M1419.91,-414.966C1438.74,-410.293 1460.26,-405.371 1480.04,-401.829 1521.01,-394.494 1638.4,-410.94 1666.04,-379.829 1691.83,-350.809 1691.51,-321.784 1666.04,-292.478 1643.08,-266.05 1544.39,-277.238 1510.04,-270.478 1501.68,-268.831 1493.11,-267.027 1484.48,-265.12"/>
<polygon fill="#0044a0" stroke="#0044a0" points="1485.24,-261.704 1474.71,-262.926 1483.7,-268.534 1485.24,-261.704"/>
</g>
<!-- t47 -->
<g id="node57" class="node"><title>t47</title>
<polygon fill="#ebf3ff" stroke="#0044a0" points="1215.8,-135.601 1006.29,-135.601 1002.29,-131.601 1002.29,-99.6014 1211.8,-99.6014 1215.8,-103.601 1215.8,-135.601"/>
<polyline fill="none" stroke="#0044a0" points="1211.8,-131.601 1002.29,-131.601 "/>
<polyline fill="none" stroke="#0044a0" points="1211.8,-131.601 1211.8,-99.6014 "/>
<polyline fill="none" stroke="#0044a0" points="1211.8,-131.601 1215.8,-135.601 "/>
<text text-anchor="middle" x="1109.04" y="-111.601" font-family="Times,serif" font-size="20.00" fill="#0044a0">plotStrandednessSalmon</text>
</g>
<!-- t45&#45;&gt;t47 -->
<g id="edge66" class="edge"><title>t45&#45;&gt;t47</title>
<path fill="none" stroke="#0044a0" d="M1274.96,-194.966C1236.62,-177.32 1189.52,-155.639 1155.31,-139.893"/>
<polygon fill="#0044a0" stroke="#0044a0" points="1156.56,-136.619 1146.02,-135.618 1153.64,-142.978 1156.56,-136.619"/>
</g>
<!-- t46 -->
<g id="node58" class="node"><title>t46</title>
<polygon fill="#ebf3ff" stroke="#0044a0" points="1450.62,-135.601 1237.47,-135.601 1233.47,-131.601 1233.47,-99.6014 1446.62,-99.6014 1450.62,-103.601 1450.62,-135.601"/>
<polyline fill="none" stroke="#0044a0" points="1446.62,-131.601 1233.47,-131.601 "/>
<polyline fill="none" stroke="#0044a0" points="1446.62,-131.601 1446.62,-99.6014 "/>
<polyline fill="none" stroke="#0044a0" points="1446.62,-131.601 1450.62,-135.601 "/>
<text text-anchor="middle" x="1342.04" y="-111.601" font-family="Times,serif" font-size="20.00" fill="#0044a0">loadStrandednessSalmon</text>
</g>
<!-- t45&#45;&gt;t46 -->
<g id="edge67" class="edge"><title>t45&#45;&gt;t46</title>
<path fill="none" stroke="#0044a0" d="M1342.04,-183.149C1342.04,-170.578 1342.04,-157.17 1342.04,-145.85"/>
<polygon fill="#0044a0" stroke="#0044a0" points="1345.54,-145.733 1342.04,-135.733 1338.54,-145.733 1345.54,-145.733"/>
</g>
<!-- t47&#45;&gt;t48 -->
<g id="edge68" class="edge"><title>t47&#45;&gt;t48</title>
<path fill="none" stroke="#0044a0" d="M1073.83,-99.4951C1045.56,-85.7649 1006.01,-66.5564 977.438,-52.6773"/>
<polygon fill="#0044a0" stroke="#0044a0" points="978.725,-49.4113 968.2,-48.1904 975.666,-55.7078 978.725,-49.4113"/>
</g>
<!-- t46&#45;&gt;t48 -->
<g id="edge69" class="edge"><title>t46&#45;&gt;t48</title>
<path fill="none" stroke="#0044a0" d="M1301.82,-99.5498C1279.55,-90.7242 1251.17,-80.4714 1225.04,-74 1138.32,-52.5157 1033.56,-41.9843 978.711,-37.6097"/>
<polygon fill="#0044a0" stroke="#0044a0" points="978.667,-34.0959 968.427,-36.8154 978.128,-41.0752 978.667,-34.0959"/>
</g>
<!-- k1_1 -->
<g id="node60" class="node"><title>k1_1</title>
<polygon fill="#ebf3ff" stroke="#0044a0" points="2229.81,-935.924 2142.28,-935.924 2138.28,-931.924 2138.28,-891.323 2225.81,-891.323 2229.81,-895.323 2229.81,-935.924"/>
<polyline fill="none" stroke="#0044a0" points="2225.81,-931.924 2138.28,-931.924 "/>
<polyline fill="none" stroke="#0044a0" points="2225.81,-931.924 2225.81,-891.323 "/>
<polyline fill="none" stroke="#0044a0" points="2225.81,-931.924 2229.81,-935.924 "/>
<text text-anchor="middle" x="2184.04" y="-909.423" font-family="Times,serif" font-size="14.00" fill="#0044a0">Task to run</text>
</g>
<!-- k2_1 -->
<g id="node61" class="node"><title>k2_1</title>
<polygon fill="none" stroke="#0044a0" stroke-dasharray="5,2" points="2241.23,-850.648 2130.86,-850.648 2126.86,-846.648 2126.86,-789.446 2237.23,-789.446 2241.23,-793.446 2241.23,-850.648"/>
<polyline fill="none" stroke="#0044a0" stroke-dasharray="5,2" points="2237.23,-846.648 2126.86,-846.648 "/>
<polyline fill="none" stroke="#0044a0" stroke-dasharray="5,2" points="2237.23,-846.648 2237.23,-789.446 "/>
<polyline fill="none" stroke="#0044a0" stroke-dasharray="5,2" points="2237.23,-846.648 2241.23,-850.648 "/>
<text text-anchor="middle" x="2184.04" y="-824.247" font-family="Times,serif" font-size="14.00" fill="#0044a0">Up&#45;to&#45;date task</text>
<text text-anchor="middle" x="2184.04" y="-807.447" font-family="Times,serif" font-size="14.00" fill="#0044a0">forced to rerun</text>
</g>
<!-- k1_1&#45;&gt;k2_1 -->
<g id="edge81" class="edge"><title>k1_1&#45;&gt;k2_1</title>
<path fill="none" stroke="#0044a0" d="M2184.04,-890.921C2184.04,-881.956 2184.04,-871.269 2184.04,-860.982"/>
<polygon fill="#0044a0" stroke="#0044a0" points="2187.54,-860.908 2184.04,-850.908 2180.54,-860.908 2187.54,-860.908"/>
</g>
<!-- k3_1 -->
<g id="node62" class="node"><title>k3_1</title>
<polygon fill="#efa03b" stroke="black" points="2230.19,-748.771 2141.89,-748.771 2137.89,-744.771 2137.89,-704.17 2226.19,-704.17 2230.19,-708.17 2230.19,-748.771"/>
<polyline fill="none" stroke="black" points="2226.19,-744.771 2137.89,-744.771 "/>
<polyline fill="none" stroke="black" points="2226.19,-744.771 2226.19,-704.17 "/>
<polyline fill="none" stroke="black" points="2226.19,-744.771 2230.19,-748.771 "/>
<text text-anchor="middle" x="2184.04" y="-722.271" font-family="Times,serif" font-size="14.00">Final target</text>
</g>
<!-- k2_1&#45;&gt;k3_1 -->
<g id="edge82" class="edge"><title>k2_1&#45;&gt;k3_1</title>
<path fill="none" stroke="#0044a0" d="M2184.04,-789.315C2184.04,-779.65 2184.04,-768.892 2184.04,-759.094"/>
<polygon fill="#0044a0" stroke="#0044a0" points="2187.54,-758.936 2184.04,-748.936 2180.54,-758.936 2187.54,-758.936"/>
</g>
</g>
</svg>
