<?xml version="1.0" encoding="UTF-8" standalone="no"?>
<!DOCTYPE svg PUBLIC "-//W3C//DTD SVG 1.1//EN"
 "http://www.w3.org/Graphics/SVG/1.1/DTD/svg11.dtd">
<!-- Generated by graphviz version 2.38.0 (20140413.2041)
 -->
<!-- Title: Pipeline: Pages: 1 -->
<svg width="1320pt" height="503pt"
 viewBox="0.00 0.00 1320.00 502.61" xmlns="http://www.w3.org/2000/svg" xmlns:xlink="http://www.w3.org/1999/xlink">
<g id="graph0" class="graph" transform="scale(1 1) rotate(0) translate(4 498.615)">
<title>Pipeline:</title>
<polygon fill="white" stroke="none" points="-4,4 -4,-498.615 1316,-498.615 1316,4 -4,4"/>
<g id="clust1" class="cluster"><title>clustertasks</title>
<polygon fill="none" stroke="black" points="8,-8 8,-486.615 1188,-486.615 1188,-8 8,-8"/>
<text text-anchor="middle" x="598" y="-455.615" font-family="Times,serif" font-size="30.00" fill="#ff3232">Pipeline:</text>
</g>
<g id="clust2" class="cluster"><title>clusterkey1</title>
<polygon fill="#f6f4f4" stroke="#f6f4f4" points="1196,-319.415 1196,-479.015 1304,-479.015 1304,-319.415 1196,-319.415"/>
<text text-anchor="middle" x="1250" y="-457.015" font-family="Times,serif" font-size="20.00">Key:</text>
</g>
<!-- t0 -->
<g id="node1" class="node"><title>t0</title>
<polygon fill="#ebf3ff" stroke="#0044a0" points="823.776,-434.615 668.224,-434.615 664.224,-430.615 664.224,-398.615 819.776,-398.615 823.776,-402.615 823.776,-434.615"/>
<polyline fill="none" stroke="#0044a0" points="819.776,-430.615 664.224,-430.615 "/>
<polyline fill="none" stroke="#0044a0" points="819.776,-430.615 819.776,-398.615 "/>
<polyline fill="none" stroke="#0044a0" points="819.776,-430.615 823.776,-434.615 "/>
<text text-anchor="middle" x="744" y="-410.615" font-family="Times,serif" font-size="20.00" fill="#0044a0">exampleOriginate</text>
</g>
<!-- t1 -->
<g id="node2" class="node"><title>t1</title>
<polygon fill="#ebf3ff" stroke="#0044a0" points="828.156,-367.815 663.844,-367.815 659.844,-363.815 659.844,-331.815 824.156,-331.815 828.156,-335.815 828.156,-367.815"/>
<polyline fill="none" stroke="#0044a0" points="824.156,-363.815 659.844,-363.815 "/>
<polyline fill="none" stroke="#0044a0" points="824.156,-363.815 824.156,-331.815 "/>
<polyline fill="none" stroke="#0044a0" points="824.156,-363.815 828.156,-367.815 "/>
<text text-anchor="middle" x="744" y="-343.815" font-family="Times,serif" font-size="20.00" fill="#0044a0">exampleTransform</text>
</g>
<!-- t0&#45;&gt;t1 -->
<g id="edge1" class="edge"><title>t0&#45;&gt;t1</title>
<path fill="none" stroke="#0044a0" d="M744,-398.589C744,-392.388 744,-385.209 744,-378.33"/>
<polygon fill="#0044a0" stroke="#0044a0" points="747.5,-377.951 744,-367.951 740.5,-377.952 747.5,-377.951"/>
</g>
<!-- t2 -->
<g id="node3" class="node"><title>t2</title>
<polygon fill="#ebf3ff" stroke="#0044a0" points="992.204,-249.487 1084,-222.085 1175.8,-249.487 1175.71,-293.825 992.289,-293.825 992.204,-249.487"/>
<polygon fill="none" stroke="#0044a0" points="988.202,-246.493 1084,-217.896 1179.8,-246.493 1179.7,-297.841 988.301,-297.841 988.202,-246.493"/>
<text text-anchor="middle" x="1084" y="-255.742" font-family="Times,serif" font-size="20.00" fill="#0044a0">exampleMerge</text>
</g>
<!-- t1&#45;&gt;t2 -->
<g id="edge2" class="edge"><title>t1&#45;&gt;t2</title>
<path fill="none" stroke="#0044a0" d="M828.272,-337.664C873.746,-330.564 930.535,-319.94 980,-305.415 984.33,-304.143 988.727,-302.753 993.143,-301.276"/>
<polygon fill="#0044a0" stroke="#0044a0" points="994.521,-304.503 1002.82,-297.917 992.226,-297.89 994.521,-304.503"/>
</g>
<!-- t3 -->
<g id="node5" class="node"><title>t3</title>
<polygon fill="#ebf3ff" stroke="#0044a0" points="725.362,-279.742 564.638,-279.742 560.638,-275.742 560.638,-243.742 721.362,-243.742 725.362,-247.742 725.362,-279.742"/>
<polyline fill="none" stroke="#0044a0" points="721.362,-275.742 560.638,-275.742 "/>
<polyline fill="none" stroke="#0044a0" points="721.362,-275.742 721.362,-243.742 "/>
<polyline fill="none" stroke="#0044a0" points="721.362,-275.742 725.362,-279.742 "/>
<text text-anchor="middle" x="643" y="-255.742" font-family="Times,serif" font-size="20.00" fill="#0044a0">exampleSubdivide</text>
</g>
<!-- t1&#45;&gt;t3 -->
<g id="edge4" class="edge"><title>t1&#45;&gt;t3</title>
<path fill="none" stroke="#0044a0" d="M724.046,-331.81C708.928,-318.926 687.96,-301.057 671.139,-286.722"/>
<polygon fill="#0044a0" stroke="#0044a0" points="673.14,-283.829 663.259,-280.007 668.6,-289.157 673.14,-283.829"/>
</g>
<!-- t9 -->
<g id="node13" class="node"><title>t9</title>
<polygon fill="#ebf3ff" stroke="#0044a0" points="882.962,-182.035 741.038,-182.035 737.038,-178.035 737.038,-146.035 878.962,-146.035 882.962,-150.035 882.962,-182.035"/>
<polyline fill="none" stroke="#0044a0" points="878.962,-178.035 737.038,-178.035 "/>
<polyline fill="none" stroke="#0044a0" points="878.962,-178.035 878.962,-146.035 "/>
<polyline fill="none" stroke="#0044a0" points="878.962,-178.035 882.962,-182.035 "/>
<text text-anchor="middle" x="810" y="-158.035" font-family="Times,serif" font-size="20.00" fill="#0044a0">exampleProduct</text>
</g>
<!-- t1&#45;&gt;t9 -->
<g id="edge15" class="edge"><title>t1&#45;&gt;t9</title>
<path fill="none" stroke="#0044a0" d="M741.558,-331.733C738.646,-305.778 736.185,-255.476 754,-218.069 759.255,-207.036 767.88,-197.129 776.805,-188.948"/>
<polygon fill="#0044a0" stroke="#0044a0" points="779.338,-191.386 784.648,-182.217 774.78,-186.073 779.338,-191.386"/>
</g>
<!-- t5 -->
<g id="node4" class="node"><title>t5</title>
<polygon fill="#ebf3ff" stroke="#0044a0" points="1170.47,-172.687 1064,-192.034 957.534,-172.687 957.634,-141.383 1170.37,-141.383 1170.47,-172.687"/>
<polygon fill="none" stroke="#0044a0" points="1174.48,-176.027 1064,-196.104 953.515,-176.027 953.638,-137.378 1174.36,-137.378 1174.48,-176.027"/>
<text text-anchor="middle" x="1064" y="-158.035" font-family="Times,serif" font-size="20.00" fill="#0044a0">exampleSplit</text>
</g>
<!-- t2&#45;&gt;t5 -->
<g id="edge3" class="edge"><title>t2&#45;&gt;t5</title>
<path fill="none" stroke="#0044a0" d="M1075.52,-220.154C1074.48,-215.193 1073.42,-210.0px5 1072.39,-205.171"/>
<polygon fill="#0044a0" stroke="#0044a0" points="1075.78,-204.303 1070.31,-195.231 1068.93,-205.735 1075.78,-204.303"/>
</g>
<!-- t6 -->
<g id="node7" class="node"><title>t6</title>
<polygon fill="#ebf3ff" stroke="#0044a0" points="841.525,-110 734.475,-110 730.475,-106 730.475,-74 837.525,-74 841.525,-78 841.525,-110"/>
<polyline fill="none" stroke="#0044a0" points="837.525,-106 730.475,-106 "/>
<polyline fill="none" stroke="#0044a0" points="837.525,-106 837.525,-74 "/>
<polyline fill="none" stroke="#0044a0" points="837.525,-106 841.525,-110 "/>
<text text-anchor="middle" x="786" y="-86" font-family="Times,serif" font-size="20.00" fill="#0044a0">basicRuffus</text>
</g>
<!-- t2&#45;&gt;t6 -->
<g id="edge8" class="edge"><title>t2&#45;&gt;t6</title>
<path fill="none" stroke="#0044a0" d="M1023.51,-235.736C992.421,-222.271 958.324,-206.359 945,-196.069 915.751,-173.482 922.16,-153.355 892,-132 879.777,-123.346 865.413,-116.384 851.273,-110.875"/>
<polygon fill="#0044a0" stroke="#0044a0" points="852.142,-107.465 841.548,-107.291 849.721,-114.033 852.142,-107.465"/>
</g>
<!-- t5&#45;&gt;t6 -->
<g id="edge6" class="edge"><title>t5&#45;&gt;t6</title>
<path fill="none" stroke="#0044a0" d="M962.062,-137.354C925.268,-128.085 884.736,-117.874 851.846,-109.588"/>
<polygon fill="#0044a0" stroke="#0044a0" points="852.449,-106.131 841.897,-107.082 850.739,-112.919 852.449,-106.131"/>
</g>
<!-- t4 -->
<g id="node6" class="node"><title>t4</title>
<polygon fill="#ebf3ff" stroke="#0044a0" points="718.519,-182.035 581.481,-182.035 577.481,-178.035 577.481,-146.035 714.519,-146.035 718.519,-150.035 718.519,-182.035"/>
<polyline fill="none" stroke="#0044a0" points="714.519,-178.035 577.481,-178.035 "/>
<polyline fill="none" stroke="#0044a0" points="714.519,-178.035 714.519,-146.035 "/>
<polyline fill="none" stroke="#0044a0" points="714.519,-178.035 718.519,-182.035 "/>
<text text-anchor="middle" x="648" y="-158.035" font-family="Times,serif" font-size="20.00" fill="#0044a0">exampleCollate</text>
</g>
<!-- t3&#45;&gt;t4 -->
<g id="edge5" class="edge"><title>t3&#45;&gt;t4</title>
<path fill="none" stroke="#0044a0" d="M643.894,-243.632C644.636,-229.429 645.705,-208.962 646.566,-192.474"/>
<polygon fill="#0044a0" stroke="#0044a0" points="650.07,-192.489 647.097,-182.32 643.08,-192.124 650.07,-192.489"/>
</g>
<!-- t7 -->
<g id="node9" class="node"><title>t7</title>
<polygon fill="#ebf3ff" stroke="#0044a0" points="351.976,-182.035 160.024,-182.035 156.024,-178.035 156.024,-146.035 347.976,-146.035 351.976,-150.035 351.976,-182.035"/>
<polyline fill="none" stroke="#0044a0" points="347.976,-178.035 156.024,-178.035 "/>
<polyline fill="none" stroke="#0044a0" points="347.976,-178.035 347.976,-146.035 "/>
<polyline fill="none" stroke="#0044a0" points="347.976,-178.035 351.976,-182.035 "/>
<text text-anchor="middle" x="254" y="-158.035" font-family="Times,serif" font-size="20.00" fill="#0044a0">exampleCombinations</text>
</g>
<!-- t3&#45;&gt;t7 -->
<g id="edge10" class="edge"><title>t3&#45;&gt;t7</title>
<path fill="none" stroke="#0044a0" d="M612.44,-243.563C594.973,-234.52 572.352,-224.089 551,-218.069 469.181,-195.003 444.335,-212.857 361,-196.069 346.364,-193.121 330.827,-189.129 316.262,-184.991"/>
<polygon fill="#0044a0" stroke="#0044a0" points="316.937,-181.543 306.357,-182.114 314.984,-188.265 316.937,-181.543"/>
</g>
<!-- t8 -->
<g id="node11" class="node"><title>t8</title>
<polygon fill="#ebf3ff" stroke="#0044a0" points="559.792,-182.035 374.208,-182.035 370.208,-178.035 370.208,-146.035 555.792,-146.035 559.792,-150.035 559.792,-182.035"/>
<polyline fill="none" stroke="#0044a0" points="555.792,-178.035 370.208,-178.035 "/>
<polyline fill="none" stroke="#0044a0" points="555.792,-178.035 555.792,-146.035 "/>
<polyline fill="none" stroke="#0044a0" points="555.792,-178.035 559.792,-182.035 "/>
<text text-anchor="middle" x="465" y="-158.035" font-family="Times,serif" font-size="20.00" fill="#0044a0">examplePermutations</text>
</g>
<!-- t3&#45;&gt;t8 -->
<g id="edge12" class="edge"><title>t3&#45;&gt;t8</title>
<path fill="none" stroke="#0044a0" d="M611.177,-243.632C581.78,-227.825 537.949,-204.258 505.951,-187.053"/>
<polygon fill="#0044a0" stroke="#0044a0" points="507.312,-183.811 496.847,-182.158 503.997,-189.977 507.312,-183.811"/>
</g>
<!-- t3&#45;&gt;t9 -->
<g id="edge14" class="edge"><title>t3&#45;&gt;t9</title>
<path fill="none" stroke="#0044a0" d="M672.856,-243.632C700.319,-227.893 741.206,-204.46 771.192,-187.275"/>
<polygon fill="#0044a0" stroke="#0044a0" points="773.185,-190.167 780.0px1,-182.158 769.705,-184.094 773.185,-190.167"/>
</g>
<!-- t4&#45;&gt;t6 -->
<g id="edge7" class="edge"><title>t4&#45;&gt;t6</title>
<path fill="none" stroke="#0044a0" d="M681.759,-145.902C700.22,-136.533 723.282,-124.829 743.017,-114.814"/>
<polygon fill="#0044a0" stroke="#0044a0" points="744.778,-117.845 752.112,-110.198 741.61,-111.603 744.778,-117.845"/>
</g>
<!-- t11 -->
<g id="node15" class="node"><title>t11</title>
<polygon fill="#efa03b" stroke="black" points="696,-52 646,-52 642,-48 642,-16 692,-16 696,-20 696,-52"/>
<polyline fill="none" stroke="black" points="692,-48 642,-48 "/>
<polyline fill="none" stroke="black" points="692,-48 692,-16 "/>
<polyline fill="none" stroke="black" points="692,-48 696,-52 "/>
<text text-anchor="middle" x="669" y="-28" font-family="Times,serif" font-size="20.00">full</text>
</g>
<!-- t6&#45;&gt;t11 -->
<g id="edge20" class="edge"><title>t6&#45;&gt;t11</title>
<path fill="none" stroke="#0044a0" d="M750.26,-73.8939C736.038,-67.0864 719.688,-59.2611 705.401,-52.4227"/>
<polygon fill="#0044a0" stroke="#0044a0" points="706.884,-49.2523 696.353,-48.092 703.862,-55.5663 706.884,-49.2523"/>
</g>
<!-- t14 -->
<g id="node8" class="node"><title>t14</title>
<polygon fill="#ebf3ff" stroke="#0044a0" points="273.548,-289.742 20.452,-289.742 16.452,-285.742 16.452,-233.742 269.548,-233.742 273.548,-237.742 273.548,-289.742"/>
<polyline fill="none" stroke="#0044a0" points="269.548,-285.742 16.452,-285.742 "/>
<polyline fill="none" stroke="#0044a0" points="269.548,-285.742 269.548,-233.742 "/>
<polyline fill="none" stroke="#0044a0" points="269.548,-285.742 273.548,-289.742 "/>
<text text-anchor="middle" x="145" y="-267.742" font-family="Times,serif" font-size="20.00" fill="#0044a0">mkdir(&#39;combinations&#39;) </text>
<text text-anchor="middle" x="145" y="-243.742" font-family="Times,serif" font-size="20.00" fill="#0044a0">before exampleCombinations </text>
</g>
<!-- t14&#45;&gt;t7 -->
<g id="edge9" class="edge"><title>t14&#45;&gt;t7</title>
<path fill="none" stroke="#0044a0" d="M175.943,-233.572C191.915,-219.548 211.23,-202.589 226.65,-189.05"/>
<polygon fill="#0044a0" stroke="#0044a0" points="229.115,-191.543 234.32,-182.315 224.496,-186.283 229.115,-191.543"/>
</g>
<!-- t10 -->
<g id="node14" class="node"><title>t10</title>
<polygon fill="#ebf3ff" stroke="#0044a0" points="624.944,-110 483.056,-110 479.056,-106 479.056,-74 620.944,-74 624.944,-78 624.944,-110"/>
<polyline fill="none" stroke="#0044a0" points="620.944,-106 479.056,-106 "/>
<polyline fill="none" stroke="#0044a0" points="620.944,-106 620.944,-74 "/>
<polyline fill="none" stroke="#0044a0" points="620.944,-106 624.944,-110 "/>
<text text-anchor="middle" x="552" y="-86" font-family="Times,serif" font-size="20.00" fill="#0044a0">advancedRuffus</text>
</g>
<!-- t7&#45;&gt;t10 -->
<g id="edge18" class="edge"><title>t7&#45;&gt;t10</title>
<path fill="none" stroke="#0044a0" d="M309.581,-145.989C326.059,-141.186 344.193,-136.146 361,-132 395.99,-123.369 434.917,-115.17 468.454,-108.538"/>
<polygon fill="#0044a0" stroke="#0044a0" points="469.539,-111.891 478.678,-106.531 468.191,-105.022 469.539,-111.891"/>
</g>
<!-- t12 -->
<g id="node10" class="node"><title>t12</title>
<polygon fill="#ebf3ff" stroke="#0044a0" points="542.364,-289.742 295.636,-289.742 291.636,-285.742 291.636,-233.742 538.364,-233.742 542.364,-237.742 542.364,-289.742"/>
<polyline fill="none" stroke="#0044a0" points="538.364,-285.742 291.636,-285.742 "/>
<polyline fill="none" stroke="#0044a0" points="538.364,-285.742 538.364,-233.742 "/>
<polyline fill="none" stroke="#0044a0" points="538.364,-285.742 542.364,-289.742 "/>
<text text-anchor="middle" x="417" y="-267.742" font-family="Times,serif" font-size="20.00" fill="#0044a0">mkdir(&#39;permutations&#39;) </text>
<text text-anchor="middle" x="417" y="-243.742" font-family="Times,serif" font-size="20.00" fill="#0044a0">before examplePermutations </text>
</g>
<!-- t12&#45;&gt;t8 -->
<g id="edge11" class="edge"><title>t12&#45;&gt;t8</title>
<path fill="none" stroke="#0044a0" d="M430.626,-233.572C437.273,-220.32 445.234,-204.447 451.819,-191.315"/>
<polygon fill="#0044a0" stroke="#0044a0" points="454.979,-192.823 456.334,-182.315 448.722,-189.684 454.979,-192.823"/>
</g>
<!-- t8&#45;&gt;t10 -->
<g id="edge17" class="edge"><title>t8&#45;&gt;t10</title>
<path fill="none" stroke="#0044a0" d="M486.506,-145.723C497.463,-136.902 510.946,-126.048 522.825,-116.486"/>
<polygon fill="#0044a0" stroke="#0044a0" points="525.147,-119.11 530.742,-110.113 520.757,-113.657 525.147,-119.11"/>
</g>
<!-- t13 -->
<g id="node12" class="node"><title>t13</title>
<polygon fill="#ebf3ff" stroke="#0044a0" points="970.534,-289.742 767.466,-289.742 763.466,-285.742 763.466,-233.742 966.534,-233.742 970.534,-237.742 970.534,-289.742"/>
<polyline fill="none" stroke="#0044a0" points="966.534,-285.742 763.466,-285.742 "/>
<polyline fill="none" stroke="#0044a0" points="966.534,-285.742 966.534,-233.742 "/>
<polyline fill="none" stroke="#0044a0" points="966.534,-285.742 970.534,-289.742 "/>
<text text-anchor="middle" x="867" y="-267.742" font-family="Times,serif" font-size="20.00" fill="#0044a0">mkdir(&#39;product&#39;) </text>
<text text-anchor="middle" x="867" y="-243.742" font-family="Times,serif" font-size="20.00" fill="#0044a0">before exampleProduct </text>
</g>
<!-- t13&#45;&gt;t9 -->
<g id="edge13" class="edge"><title>t13&#45;&gt;t9</title>
<path fill="none" stroke="#0044a0" d="M850.819,-233.572C842.849,-220.191 833.289,-204.139 825.425,-190.934"/>
<polygon fill="#0044a0" stroke="#0044a0" points="828.415,-189.115 820.291,-182.315 822.401,-192.697 828.415,-189.115"/>
</g>
<!-- t9&#45;&gt;t10 -->
<g id="edge16" class="edge"><title>t9&#45;&gt;t10</title>
<path fill="none" stroke="#0044a0" d="M768.26,-145.912C755.472,-141.026 741.274,-135.96 728,-132 697.957,-123.037 664.476,-115.116 634.849,-108.795"/>
<polygon fill="#0044a0" stroke="#0044a0" points="635.466,-105.349 624.959,-106.714 634.024,-112.199 635.466,-105.349"/>
</g>
<!-- t10&#45;&gt;t11 -->
<g id="edge19" class="edge"><title>t10&#45;&gt;t11</title>
<path fill="none" stroke="#0044a0" d="M587.74,-73.8939C601.962,-67.0864 618.312,-59.2611 632.599,-52.4227"/>
<polygon fill="#0044a0" stroke="#0044a0" points="634.138,-55.5663 641.647,-48.092 631.116,-49.2523 634.138,-55.5663"/>
</g>
<!-- k1_1 -->
<g id="node16" class="node"><title>k1_1</title>
<polygon fill="#ebf3ff" stroke="#0044a0" points="1295.76,-438.915 1208.24,-438.915 1204.24,-434.915 1204.24,-394.314 1291.76,-394.314 1295.76,-398.314 1295.76,-438.915"/>
<polyline fill="none" stroke="#0044a0" points="1291.76,-434.915 1204.24,-434.915 "/>
<polyline fill="none" stroke="#0044a0" points="1291.76,-434.915 1291.76,-394.314 "/>
<polyline fill="none" stroke="#0044a0" points="1291.76,-434.915 1295.76,-438.915 "/>
<text text-anchor="middle" x="1250" y="-412.415" font-family="Times,serif" font-size="14.00" fill="#0044a0">Task to run</text>
</g>
<!-- k2_1 -->
<g id="node17" class="node"><title>k2_1</title>
<polygon fill="#efa03b" stroke="black" points="1296.15,-372.115 1207.85,-372.115 1203.85,-368.115 1203.85,-327.514 1292.15,-327.514 1296.15,-331.514 1296.15,-372.115"/>
<polyline fill="none" stroke="black" points="1292.15,-368.115 1203.85,-368.115 "/>
<polyline fill="none" stroke="black" points="1292.15,-368.115 1292.15,-327.514 "/>
<polyline fill="none" stroke="black" points="1292.15,-368.115 1296.15,-372.115 "/>
<text text-anchor="middle" x="1250" y="-345.615" font-family="Times,serif" font-size="14.00">Final target</text>
</g>
<!-- k1_1&#45;&gt;k2_1 -->
<g id="edge21" class="edge"><title>k1_1&#45;&gt;k2_1</title>
<path fill="none" stroke="#0044a0" d="M1250,-394.037C1250,-390.36 1250,-386.473 1250,-382.598"/>
<polygon fill="#0044a0" stroke="#0044a0" points="1253.5,-382.519 1250,-372.519 1246.5,-382.519 1253.5,-382.519"/>
</g>
</g>
</svg>
