<?xml version="1.0" encoding="UTF-8" standalone="no"?>
<!DOCTYPE svg PUBLIC "-//W3C//DTD SVG 1.1//EN"
 "http://www.w3.org/Graphics/SVG/1.1/DTD/svg11.dtd">
<!-- Generated by graphviz version 2.38.0 (20140413.2041)
 -->
<!-- Title: Pipeline: Pages: 1 -->
<svg width="1998pt" height="703pt"
 viewBox="0.00 0.00 1998.00 702.72" xmlns="http://www.w3.org/2000/svg" xmlns:xlink="http://www.w3.org/1999/xlink">
<g id="graph0" class="graph" transform="scale(1 1) rotate(0) translate(4 698.72)">
<title>Pipeline:</title>
<polygon fill="white" stroke="none" points="-4,4 -4,-698.72 1994,-698.72 1994,4 -4,4"/>
<g id="clust1" class="cluster"><title>clustertasks</title>
<polygon fill="none" stroke="black" points="8,-8 8,-686.72 1844,-686.72 1844,-8 8,-8"/>
<text text-anchor="middle" x="926" y="-655.72" font-family="Times,serif" font-size="30.00" fill="#ff3232">Pipeline:</text>
</g>
<g id="clust2" class="cluster"><title>clusterkey1</title>
<polygon fill="#f6f4f4" stroke="#f6f4f4" points="1852,-414.72 1852,-669.12 1982,-669.12 1982,-414.72 1852,-414.72"/>
<text text-anchor="middle" x="1917" y="-647.12" font-family="Times,serif" font-size="20.00">Key:</text>
</g>
<!-- t33 -->
<g id="node1" class="node"><title>t33</title>
<polygon fill="#ebf3ff" stroke="#0044a0" points="1730.38,-239.12 1453.62,-239.12 1449.62,-235.12 1449.62,-183.12 1726.38,-183.12 1730.38,-187.12 1730.38,-239.12"/>
<polyline fill="none" stroke="#0044a0" points="1726.38,-235.12 1449.62,-235.12 "/>
<polyline fill="none" stroke="#0044a0" points="1726.38,-235.12 1726.38,-183.12 "/>
<polyline fill="none" stroke="#0044a0" points="1726.38,-235.12 1730.38,-239.12 "/>
<text text-anchor="middle" x="1590" y="-217.12" font-family="Times,serif" font-size="20.00" fill="#0044a0">mkdir(&#39;summary_plots&#39;) </text>
<text text-anchor="middle" x="1590" y="-193.12" font-family="Times,serif" font-size="20.00" fill="#0044a0">before expressionSummaryPlots </text>
</g>
<!-- t32 -->
<g id="node25" class="node"><title>t32</title>
<polygon fill="none" stroke="#0044a0" stroke-dasharray="5,2" points="1534.81,-135.56 1319.19,-135.56 1315.19,-131.56 1315.19,-99.5598 1530.81,-99.5598 1534.81,-103.56 1534.81,-135.56"/>
<polyline fill="none" stroke="#0044a0" stroke-dasharray="5,2" points="1530.81,-131.56 1315.19,-131.56 "/>
<polyline fill="none" stroke="#0044a0" stroke-dasharray="5,2" points="1530.81,-131.56 1530.81,-99.5598 "/>
<polyline fill="none" stroke="#0044a0" stroke-dasharray="5,2" points="1530.81,-131.56 1534.81,-135.56 "/>
<text text-anchor="middle" x="1425" y="-111.56" font-family="Times,serif" font-size="20.00" fill="#0044a0">expressionSummaryPlots</text>
</g>
<!-- t33&#45;&gt;t32 -->
<g id="edge32" class="edge"><title>t33&#45;&gt;t32</title>
<path fill="none" stroke="#0044a0" d="M1540.94,-182.897C1516.62,-169.401 1487.63,-153.316 1464.73,-140.605"/>
<polygon fill="#0044a0" stroke="#0044a0" points="1466.39,-137.527 1455.95,-135.735 1463,-143.648 1466.39,-137.527"/>
</g>
<!-- t23 -->
<g id="node2" class="node"><title>t23</title>
<polygon fill="#ebf3ff" stroke="#0044a0" points="1243.08,-317.12 984.922,-317.12 980.922,-313.12 980.922,-261.12 1239.08,-261.12 1243.08,-265.12 1243.08,-317.12"/>
<polyline fill="none" stroke="#0044a0" points="1239.08,-313.12 980.922,-313.12 "/>
<polyline fill="none" stroke="#0044a0" points="1239.08,-313.12 1239.08,-261.12 "/>
<polyline fill="none" stroke="#0044a0" points="1239.08,-313.12 1243.08,-317.12 "/>
<text text-anchor="middle" x="1112" y="-295.12" font-family="Times,serif" font-size="20.00" fill="#0044a0">mkdir(&#39;DEresults.dir/deseq2&#39;) </text>
<text text-anchor="middle" x="1112" y="-271.12" font-family="Times,serif" font-size="20.00" fill="#0044a0">before getDESeqNormExp </text>
</g>
<!-- t22 -->
<g id="node20" class="node"><title>t22</title>
<polygon fill="none" stroke="#0044a0" stroke-dasharray="5,2" points="1199.96,-229.12 1028.04,-229.12 1024.04,-225.12 1024.04,-193.12 1195.96,-193.12 1199.96,-197.12 1199.96,-229.12"/>
<polyline fill="none" stroke="#0044a0" stroke-dasharray="5,2" points="1195.96,-225.12 1024.04,-225.12 "/>
<polyline fill="none" stroke="#0044a0" stroke-dasharray="5,2" points="1195.96,-225.12 1195.96,-193.12 "/>
<polyline fill="none" stroke="#0044a0" stroke-dasharray="5,2" points="1195.96,-225.12 1199.96,-229.12 "/>
<text text-anchor="middle" x="1112" y="-205.12" font-family="Times,serif" font-size="20.00" fill="#0044a0">getDESeqNormExp</text>
</g>
<!-- t23&#45;&gt;t22 -->
<g id="edge21" class="edge"><title>t23&#45;&gt;t22</title>
<path fill="none" stroke="#0044a0" d="M1112,-261.111C1112,-254.167 1112,-246.688 1112,-239.715"/>
<polygon fill="#0044a0" stroke="#0044a0" points="1115.5,-239.324 1112,-229.324 1108.5,-239.324 1115.5,-239.324"/>
</g>
<!-- t42 -->
<g id="node3" class="node"><title>t42</title>
<polygon fill="#ebf3ff" stroke="#0044a0" points="462.344,-473.12 235.656,-473.12 231.656,-469.12 231.656,-417.12 458.344,-417.12 462.344,-421.12 462.344,-473.12"/>
<polyline fill="none" stroke="#0044a0" points="458.344,-469.12 231.656,-469.12 "/>
<polyline fill="none" stroke="#0044a0" points="458.344,-469.12 458.344,-417.12 "/>
<polyline fill="none" stroke="#0044a0" points="458.344,-469.12 462.344,-473.12 "/>
<text text-anchor="middle" x="347" y="-451.12" font-family="Times,serif" font-size="20.00" fill="#0044a0">mkdir(&#39;featurecounts.dir&#39;) </text>
<text text-anchor="middle" x="347" y="-427.12" font-family="Times,serif" font-size="20.00" fill="#0044a0">before runFeatureCounts </text>
</g>
<!-- t6 -->
<g id="node4" class="node"><title>t6</title>
<polygon fill="none" stroke="#0044a0" stroke-dasharray="5,2" points="959.8,-385.12 804.2,-385.12 800.2,-381.12 800.2,-349.12 955.8,-349.12 959.8,-353.12 959.8,-385.12"/>
<polyline fill="none" stroke="#0044a0" stroke-dasharray="5,2" points="955.8,-381.12 800.2,-381.12 "/>
<polyline fill="none" stroke="#0044a0" stroke-dasharray="5,2" points="955.8,-381.12 955.8,-349.12 "/>
<polyline fill="none" stroke="#0044a0" stroke-dasharray="5,2" points="955.8,-381.12 959.8,-385.12 "/>
<text text-anchor="middle" x="880" y="-361.12" font-family="Times,serif" font-size="20.00" fill="#0044a0">runFeatureCounts</text>
</g>
<!-- t42&#45;&gt;t6 -->
<g id="edge1" class="edge"><title>t42&#45;&gt;t6</title>
<path fill="none" stroke="#0044a0" d="M456.678,-417.061C461.505,-416.203 466.295,-415.416 471,-414.72 611.952,-393.851 650.759,-420.329 791,-395.12 800.893,-393.341 811.237,-390.831 821.228,-388.051"/>
<polygon fill="#0044a0" stroke="#0044a0" points="822.441,-391.343 831.071,-385.197 820.492,-384.62 822.441,-391.343"/>
</g>
<!-- t11 -->
<g id="node19" class="node"><title>t11</title>
<polygon fill="none" stroke="#0044a0" stroke-dasharray="5,2" points="962.147,-307.12 843.853,-307.12 839.853,-303.12 839.853,-271.12 958.147,-271.12 962.147,-275.12 962.147,-307.12"/>
<polyline fill="none" stroke="#0044a0" stroke-dasharray="5,2" points="958.147,-303.12 839.853,-303.12 "/>
<polyline fill="none" stroke="#0044a0" stroke-dasharray="5,2" points="958.147,-303.12 958.147,-271.12 "/>
<polyline fill="none" stroke="#0044a0" stroke-dasharray="5,2" points="958.147,-303.12 962.147,-307.12 "/>
<text text-anchor="middle" x="901" y="-283.12" font-family="Times,serif" font-size="20.00" fill="#0044a0">mergeCounts</text>
</g>
<!-- t6&#45;&gt;t11 -->
<g id="edge20" class="edge"><title>t6&#45;&gt;t11</title>
<path fill="none" stroke="#0044a0" d="M884.765,-348.874C887.37,-339.449 890.653,-327.565 893.585,-316.956"/>
<polygon fill="#0044a0" stroke="#0044a0" points="896.964,-317.868 896.254,-307.297 890.217,-316.004 896.964,-317.868"/>
</g>
<!-- t26 -->
<g id="node24" class="node"><title>t26</title>
<polygon fill="none" stroke="#0044a0" stroke-dasharray="5,2" points="1701.42,-307.12 1534.58,-307.12 1530.58,-303.12 1530.58,-271.12 1697.42,-271.12 1701.42,-275.12 1701.42,-307.12"/>
<polyline fill="none" stroke="#0044a0" stroke-dasharray="5,2" points="1697.42,-303.12 1530.58,-303.12 "/>
<polyline fill="none" stroke="#0044a0" stroke-dasharray="5,2" points="1697.42,-303.12 1697.42,-271.12 "/>
<polyline fill="none" stroke="#0044a0" stroke-dasharray="5,2" points="1697.42,-303.12 1701.42,-307.12 "/>
<text text-anchor="middle" x="1616" y="-283.12" font-family="Times,serif" font-size="20.00" fill="#0044a0">getSleuthNormExp</text>
</g>
<!-- t6&#45;&gt;t26 -->
<g id="edge30" class="edge"><title>t6&#45;&gt;t26</title>
<path fill="none" stroke="#0044a0" d="M928.43,-348.989C941.446,-345.059 955.626,-341.376 969,-339.12 1211.54,-298.196 1279.16,-356.243 1522,-317.12 1532.78,-315.383 1544.08,-312.815 1554.95,-309.942"/>
<polygon fill="#0044a0" stroke="#0044a0" points="1556.08,-313.263 1564.79,-307.234 1554.22,-306.514 1556.08,-313.263"/>
</g>
<!-- t43 -->
<g id="node5" class="node"><title>t43</title>
<polygon fill="#ebf3ff" stroke="#0044a0" points="213.536,-473.12 20.464,-473.12 16.464,-469.12 16.464,-417.12 209.536,-417.12 213.536,-421.12 213.536,-473.12"/>
<polyline fill="none" stroke="#0044a0" points="209.536,-469.12 16.464,-469.12 "/>
<polyline fill="none" stroke="#0044a0" points="209.536,-469.12 209.536,-417.12 "/>
<polyline fill="none" stroke="#0044a0" points="209.536,-469.12 213.536,-473.12 "/>
<text text-anchor="middle" x="115" y="-451.12" font-family="Times,serif" font-size="20.00" fill="#0044a0">mkdir(&#39;gtf2table.dir&#39;) </text>
<text text-anchor="middle" x="115" y="-427.12" font-family="Times,serif" font-size="20.00" fill="#0044a0">before runGTF2Table </text>
</g>
<!-- t7 -->
<g id="node6" class="node"><title>t7</title>
<polygon fill="none" stroke="#0044a0" stroke-dasharray="5,2" points="781.964,-385.12 650.036,-385.12 646.036,-381.12 646.036,-349.12 777.964,-349.12 781.964,-353.12 781.964,-385.12"/>
<polyline fill="none" stroke="#0044a0" stroke-dasharray="5,2" points="777.964,-381.12 646.036,-381.12 "/>
<polyline fill="none" stroke="#0044a0" stroke-dasharray="5,2" points="777.964,-381.12 777.964,-349.12 "/>
<polyline fill="none" stroke="#0044a0" stroke-dasharray="5,2" points="777.964,-381.12 781.964,-385.12 "/>
<text text-anchor="middle" x="714" y="-361.12" font-family="Times,serif" font-size="20.00" fill="#0044a0">runGTF2Table</text>
</g>
<!-- t43&#45;&gt;t7 -->
<g id="edge2" class="edge"><title>t43&#45;&gt;t7</title>
<path fill="none" stroke="#0044a0" d="M211.084,-417.068C215.097,-416.222 219.081,-415.434 223,-414.72 367.415,-388.41 538.598,-376.44 635.937,-371.403"/>
<polygon fill="#0044a0" stroke="#0044a0" points="636.179,-374.895 645.989,-370.893 635.825,-367.904 636.179,-374.895"/>
</g>
<!-- t7&#45;&gt;t11 -->
<g id="edge19" class="edge"><title>t7&#45;&gt;t11</title>
<path fill="none" stroke="#0044a0" d="M755.966,-349.064C783.659,-337.809 820.0px3,-322.99 849.56,-311.026"/>
<polygon fill="#0044a0" stroke="#0044a0" points="850.904,-314.258 858.851,-307.25 848.269,-307.773 850.904,-314.258"/>
</g>
<!-- t7&#45;&gt;t26 -->
<g id="edge29" class="edge"><title>t7&#45;&gt;t26</title>
<path fill="none" stroke="#0044a0" d="M755.324,-349.017C766.695,-345.034 779.161,-341.319 791,-339.12 1110.57,-279.755 1200.86,-367.265 1522,-317.12 1532.92,-315.415 1544.36,-312.832 1555.35,-309.928"/>
<polygon fill="#0044a0" stroke="#0044a0" points="1556.58,-313.219 1565.29,-307.186 1554.72,-306.47 1556.58,-313.219"/>
</g>
<!-- t44 -->
<g id="node7" class="node"><title>t44</title>
<polygon fill="#ebf3ff" stroke="#0044a0" points="1835.51,-473.12 1658.49,-473.12 1654.49,-469.12 1654.49,-417.12 1831.51,-417.12 1835.51,-421.12 1835.51,-473.12"/>
<polyline fill="none" stroke="#0044a0" points="1831.51,-469.12 1654.49,-469.12 "/>
<polyline fill="none" stroke="#0044a0" points="1831.51,-469.12 1831.51,-417.12 "/>
<polyline fill="none" stroke="#0044a0" points="1831.51,-469.12 1835.51,-473.12 "/>
<text text-anchor="middle" x="1745" y="-451.12" font-family="Times,serif" font-size="20.00" fill="#0044a0">mkdir(&#39;kallisto.dir&#39;) </text>
<text text-anchor="middle" x="1745" y="-427.12" font-family="Times,serif" font-size="20.00" fill="#0044a0">before runKallisto </text>
</g>
<!-- t8 -->
<g id="node12" class="node"><title>t8</title>
<polygon fill="none" stroke="#0044a0" stroke-dasharray="5,2" points="1539.98,-385.12 1438.02,-385.12 1434.02,-381.12 1434.02,-349.12 1535.98,-349.12 1539.98,-353.12 1539.98,-385.12"/>
<polyline fill="none" stroke="#0044a0" stroke-dasharray="5,2" points="1535.98,-381.12 1434.02,-381.12 "/>
<polyline fill="none" stroke="#0044a0" stroke-dasharray="5,2" points="1535.98,-381.12 1535.98,-349.12 "/>
<polyline fill="none" stroke="#0044a0" stroke-dasharray="5,2" points="1535.98,-381.12 1539.98,-385.12 "/>
<text text-anchor="middle" x="1487" y="-361.12" font-family="Times,serif" font-size="20.00" fill="#0044a0">runKallisto</text>
</g>
<!-- t44&#45;&gt;t8 -->
<g id="edge5" class="edge"><title>t44&#45;&gt;t8</title>
<path fill="none" stroke="#0044a0" d="M1654.34,-417.102C1651.19,-416.281 1648.07,-415.484 1645,-414.72 1602.74,-404.213 1590.52,-408.24 1549,-395.12 1543.41,-393.352 1537.63,-391.246 1531.97,-389.001"/>
<polygon fill="#0044a0" stroke="#0044a0" points="1533.15,-385.705 1522.58,-385.126 1530.48,-392.176 1533.15,-385.705"/>
</g>
<!-- t1 -->
<g id="node8" class="node"><title>t1</title>
<polygon fill="#ebf3ff" stroke="#0044a0" points="1099.85,-634.72 788.148,-634.72 784.148,-630.72 784.148,-578.72 1095.85,-578.72 1099.85,-582.72 1099.85,-634.72"/>
<polyline fill="none" stroke="#0044a0" points="1095.85,-630.72 784.148,-630.72 "/>
<polyline fill="none" stroke="#0044a0" points="1095.85,-630.72 1095.85,-578.72 "/>
<polyline fill="none" stroke="#0044a0" points="1095.85,-630.72 1099.85,-634.72 "/>
<text text-anchor="middle" x="942" y="-612.72" font-family="Times,serif" font-size="20.00" fill="#0044a0">mkdir(&#39;geneset.dir&#39;) </text>
<text text-anchor="middle" x="942" y="-588.72" font-family="Times,serif" font-size="20.00" fill="#0044a0">before buildReferenceTranscriptome </text>
</g>
<!-- t0 -->
<g id="node9" class="node"><title>t0</title>
<polygon fill="#ebf3ff" stroke="#0044a0" points="1069.28,-543.92 818.72,-543.92 814.72,-539.92 814.72,-507.92 1065.28,-507.92 1069.28,-511.92 1069.28,-543.92"/>
<polyline fill="none" stroke="#0044a0" points="1065.28,-539.92 814.72,-539.92 "/>
<polyline fill="none" stroke="#0044a0" points="1065.28,-539.92 1065.28,-507.92 "/>
<polyline fill="none" stroke="#0044a0" points="1065.28,-539.92 1069.28,-543.92 "/>
<text text-anchor="middle" x="942" y="-519.92" font-family="Times,serif" font-size="20.00" fill="#0044a0">buildReferenceTranscriptome</text>
</g>
<!-- t1&#45;&gt;t0 -->
<g id="edge3" class="edge"><title>t1&#45;&gt;t0</title>
<path fill="none" stroke="#0044a0" d="M942,-578.601C942,-570.766 942,-562.21 942,-554.356"/>
<polygon fill="#0044a0" stroke="#0044a0" points="945.5,-554.213 942,-544.213 938.5,-554.213 945.5,-554.213"/>
</g>
<!-- t2 -->
<g id="node10" class="node"><title>t2</title>
<polygon fill="#ebf3ff" stroke="#0044a0" points="1635.98,-463.12 1474.02,-463.12 1470.02,-459.12 1470.02,-427.12 1631.98,-427.12 1635.98,-431.12 1635.98,-463.12"/>
<polyline fill="none" stroke="#0044a0" points="1631.98,-459.12 1470.02,-459.12 "/>
<polyline fill="none" stroke="#0044a0" points="1631.98,-459.12 1631.98,-427.12 "/>
<polyline fill="none" stroke="#0044a0" points="1631.98,-459.12 1635.98,-463.12 "/>
<text text-anchor="middle" x="1553" y="-439.12" font-family="Times,serif" font-size="20.00" fill="#0044a0">buildKallistoIndex</text>
</g>
<!-- t0&#45;&gt;t2 -->
<g id="edge4" class="edge"><title>t0&#45;&gt;t2</title>
<path fill="none" stroke="#0044a0" d="M1069.34,-518.829C1175,-512.197 1328.79,-498.885 1461,-473.12 1470.8,-471.209 1481.06,-468.711 1491.03,-466.006"/>
<polygon fill="#0044a0" stroke="#0044a0" points="1492.19,-469.316 1500.87,-463.245 1490.3,-462.576 1492.19,-469.316"/>
</g>
<!-- t3 -->
<g id="node14" class="node"><title>t3</title>
<polygon fill="#ebf3ff" stroke="#0044a0" points="1023.76,-463.12 864.236,-463.12 860.236,-459.12 860.236,-427.12 1019.76,-427.12 1023.76,-431.12 1023.76,-463.12"/>
<polyline fill="none" stroke="#0044a0" points="1019.76,-459.12 860.236,-459.12 "/>
<polyline fill="none" stroke="#0044a0" points="1019.76,-459.12 1019.76,-427.12 "/>
<polyline fill="none" stroke="#0044a0" points="1019.76,-459.12 1023.76,-463.12 "/>
<text text-anchor="middle" x="942" y="-439.12" font-family="Times,serif" font-size="20.00" fill="#0044a0">buildSalmonIndex</text>
</g>
<!-- t0&#45;&gt;t3 -->
<g id="edge8" class="edge"><title>t0&#45;&gt;t3</title>
<path fill="none" stroke="#0044a0" d="M942,-507.821C942,-497.805 942,-484.921 942,-473.52"/>
<polygon fill="#0044a0" stroke="#0044a0" points="945.5,-473.185 942,-463.185 938.5,-473.185 945.5,-473.185"/>
</g>
<!-- t4 -->
<g id="node17" class="node"><title>t4</title>
<polygon fill="#ebf3ff" stroke="#0044a0" points="643.758,-463.12 484.242,-463.12 480.242,-459.12 480.242,-427.12 639.758,-427.12 643.758,-431.12 643.758,-463.12"/>
<polyline fill="none" stroke="#0044a0" points="639.758,-459.12 480.242,-459.12 "/>
<polyline fill="none" stroke="#0044a0" points="639.758,-459.12 639.758,-427.12 "/>
<polyline fill="none" stroke="#0044a0" points="639.758,-459.12 643.758,-463.12 "/>
<text text-anchor="middle" x="562" y="-439.12" font-family="Times,serif" font-size="20.00" fill="#0044a0">buildSailfishIndex</text>
</g>
<!-- t0&#45;&gt;t4 -->
<g id="edge12" class="edge"><title>t0&#45;&gt;t4</title>
<path fill="none" stroke="#0044a0" d="M830.242,-507.863C776.381,-498.887 711.029,-486.884 653,-473.12 644.169,-471.025 634.925,-468.582 625.855,-466.037"/>
<polygon fill="#0044a0" stroke="#0044a0" points="626.687,-462.634 616.11,-463.247 624.761,-469.364 626.687,-462.634"/>
</g>
<!-- t2&#45;&gt;t8 -->
<g id="edge7" class="edge"><title>t2&#45;&gt;t8</title>
<path fill="none" stroke="#0044a0" d="M1538.02,-426.874C1529.33,-416.865 1518.23,-404.086 1508.61,-393.003"/>
<polygon fill="#0044a0" stroke="#0044a0" points="1511.12,-390.552 1501.92,-385.297 1505.83,-395.142 1511.12,-390.552"/>
</g>
<!-- t5 -->
<g id="node11" class="node"><title>t5</title>
<polygon fill="#ebf3ff" stroke="#0044a0" points="1451.97,-463.12 1244.03,-463.12 1240.03,-459.12 1240.03,-427.12 1447.97,-427.12 1451.97,-431.12 1451.97,-463.12"/>
<polyline fill="none" stroke="#0044a0" points="1447.97,-459.12 1240.03,-459.12 "/>
<polyline fill="none" stroke="#0044a0" points="1447.97,-459.12 1447.97,-427.12 "/>
<polyline fill="none" stroke="#0044a0" points="1447.97,-459.12 1451.97,-463.12 "/>
<text text-anchor="middle" x="1346" y="-439.12" font-family="Times,serif" font-size="20.00" fill="#0044a0">getTranscript2GeneMap</text>
</g>
<!-- t5&#45;&gt;t8 -->
<g id="edge6" class="edge"><title>t5&#45;&gt;t8</title>
<path fill="none" stroke="#0044a0" d="M1377.64,-427.064C1397.82,-416.188 1424.17,-401.984 1445.95,-390.245"/>
<polygon fill="#0044a0" stroke="#0044a0" points="1447.83,-393.207 1454.97,-385.382 1444.51,-387.045 1447.83,-393.207"/>
</g>
<!-- t10 -->
<g id="node15" class="node"><title>t10</title>
<polygon fill="none" stroke="#0044a0" stroke-dasharray="5,2" points="1203.77,-385.12 1104.23,-385.12 1100.23,-381.12 1100.23,-349.12 1199.77,-349.12 1203.77,-353.12 1203.77,-385.12"/>
<polyline fill="none" stroke="#0044a0" stroke-dasharray="5,2" points="1199.77,-381.12 1100.23,-381.12 "/>
<polyline fill="none" stroke="#0044a0" stroke-dasharray="5,2" points="1199.77,-381.12 1199.77,-349.12 "/>
<polyline fill="none" stroke="#0044a0" stroke-dasharray="5,2" points="1199.77,-381.12 1203.77,-385.12 "/>
<text text-anchor="middle" x="1152" y="-361.12" font-family="Times,serif" font-size="20.00" fill="#0044a0">runSalmon</text>
</g>
<!-- t5&#45;&gt;t10 -->
<g id="edge10" class="edge"><title>t5&#45;&gt;t10</title>
<path fill="none" stroke="#0044a0" d="M1302.46,-427.064C1273.73,-415.809 1235.9,-400.99 1205.37,-389.026"/>
<polygon fill="#0044a0" stroke="#0044a0" points="1206.31,-385.639 1195.73,-385.25 1203.76,-392.156 1206.31,-385.639"/>
</g>
<!-- t9 -->
<g id="node18" class="node"><title>t9</title>
<polygon fill="none" stroke="#0044a0" stroke-dasharray="5,2" points="1081.76,-385.12 982.236,-385.12 978.236,-381.12 978.236,-349.12 1077.76,-349.12 1081.76,-353.12 1081.76,-385.12"/>
<polyline fill="none" stroke="#0044a0" stroke-dasharray="5,2" points="1077.76,-381.12 978.236,-381.12 "/>
<polyline fill="none" stroke="#0044a0" stroke-dasharray="5,2" points="1077.76,-381.12 1077.76,-349.12 "/>
<polyline fill="none" stroke="#0044a0" stroke-dasharray="5,2" points="1077.76,-381.12 1081.76,-385.12 "/>
<text text-anchor="middle" x="1030" y="-361.12" font-family="Times,serif" font-size="20.00" fill="#0044a0">runSailfish</text>
</g>
<!-- t5&#45;&gt;t9 -->
<g id="edge14" class="edge"><title>t5&#45;&gt;t9</title>
<path fill="none" stroke="#0044a0" d="M1284.52,-427.057C1267.29,-422.643 1248.49,-418.168 1231,-414.72 1169.36,-402.564 1151.42,-412.356 1091,-395.12 1085.29,-393.491 1079.43,-391.433 1073.69,-389.182"/>
<polygon fill="#0044a0" stroke="#0044a0" points="1074.8,-385.851 1064.22,-385.253 1072.11,-392.317 1074.8,-385.851"/>
</g>
<!-- t5&#45;&gt;t26 -->
<g id="edge31" class="edge"><title>t5&#45;&gt;t26</title>
<path fill="none" stroke="#0044a0" d="M1354.04,-426.961C1366.03,-403.327 1390.91,-361.182 1425,-339.12 1462.11,-315.101 1479.18,-328.115 1522,-317.12 1530.7,-314.887 1539.81,-312.424 1548.8,-309.922"/>
<polygon fill="#0044a0" stroke="#0044a0" points="1549.8,-313.277 1558.48,-307.201 1547.9,-306.539 1549.8,-313.277"/>
</g>
<!-- t8&#45;&gt;t11 -->
<g id="edge18" class="edge"><title>t8&#45;&gt;t11</title>
<path fill="none" stroke="#0044a0" d="M1433.97,-360.78C1378.79,-355.25 1289.85,-346.414 1213,-339.12 1105.92,-328.957 1076.79,-341.348 972,-317.12 964.757,-315.445 957.26,-313.198 949.974,-310.713"/>
<polygon fill="#0044a0" stroke="#0044a0" points="950.805,-307.293 940.211,-307.208 948.44,-313.881 950.805,-307.293"/>
</g>
<!-- t8&#45;&gt;t26 -->
<g id="edge28" class="edge"><title>t8&#45;&gt;t26</title>
<path fill="none" stroke="#0044a0" d="M1515.95,-349.064C1534.24,-338.285 1558.09,-324.238 1577.91,-312.56"/>
<polygon fill="#0044a0" stroke="#0044a0" points="1579.86,-315.473 1586.7,-307.382 1576.31,-309.442 1579.86,-315.473"/>
</g>
<!-- t39 -->
<g id="node13" class="node"><title>t39</title>
<polygon fill="#ebf3ff" stroke="#0044a0" points="1222.39,-473.12 1045.61,-473.12 1041.61,-469.12 1041.61,-417.12 1218.39,-417.12 1222.39,-421.12 1222.39,-473.12"/>
<polyline fill="none" stroke="#0044a0" points="1218.39,-469.12 1041.61,-469.12 "/>
<polyline fill="none" stroke="#0044a0" points="1218.39,-469.12 1218.39,-417.12 "/>
<polyline fill="none" stroke="#0044a0" points="1218.39,-469.12 1222.39,-473.12 "/>
<text text-anchor="middle" x="1132" y="-451.12" font-family="Times,serif" font-size="20.00" fill="#0044a0">mkdir(&#39;salmon.dir&#39;) </text>
<text text-anchor="middle" x="1132" y="-427.12" font-family="Times,serif" font-size="20.00" fill="#0044a0">before runSalmon </text>
</g>
<!-- t39&#45;&gt;t10 -->
<g id="edge9" class="edge"><title>t39&#45;&gt;t10</title>
<path fill="none" stroke="#0044a0" d="M1139.11,-417.111C1140.98,-410.002 1143,-402.331 1144.87,-395.217"/>
<polygon fill="#0044a0" stroke="#0044a0" points="1148.31,-395.885 1147.47,-385.324 1141.54,-394.104 1148.31,-395.885"/>
</g>
<!-- t3&#45;&gt;t10 -->
<g id="edge11" class="edge"><title>t3&#45;&gt;t10</title>
<path fill="none" stroke="#0044a0" d="M994.557,-427.118C1033.59,-414.442 1081.63,-398.725 1091,-395.12 1095.81,-393.27 1100.79,-391.248 1105.73,-389.169"/>
<polygon fill="#0044a0" stroke="#0044a0" points="1107.34,-392.29 1115.15,-385.132 1104.58,-385.856 1107.34,-392.29"/>
</g>
<!-- t10&#45;&gt;t11 -->
<g id="edge16" class="edge"><title>t10&#45;&gt;t11</title>
<path fill="none" stroke="#0044a0" d="M1117.06,-348.981C1108.66,-345.336 1099.63,-341.787 1091,-339.12 1039.61,-323.238 1023.79,-331.627 972,-317.12 965.43,-315.279 958.616,-313.08 951.925,-310.743"/>
<polygon fill="#0044a0" stroke="#0044a0" points="952.847,-307.354 942.252,-307.244 950.466,-313.937 952.847,-307.354"/>
</g>
<!-- t10&#45;&gt;t26 -->
<g id="edge26" class="edge"><title>t10&#45;&gt;t26</title>
<path fill="none" stroke="#0044a0" d="M1203.89,-359.454C1302.07,-346.814 1506.62,-320.329 1522,-317.12 1531.72,-315.091 1541.91,-312.58 1551.84,-309.912"/>
<polygon fill="#0044a0" stroke="#0044a0" points="1552.96,-313.236 1561.67,-307.204 1551.09,-306.488 1552.96,-313.236"/>
</g>
<!-- t38 -->
<g id="node16" class="node"><title>t38</title>
<polygon fill="#ebf3ff" stroke="#0044a0" points="842.388,-473.12 665.612,-473.12 661.612,-469.12 661.612,-417.12 838.388,-417.12 842.388,-421.12 842.388,-473.12"/>
<polyline fill="none" stroke="#0044a0" points="838.388,-469.12 661.612,-469.12 "/>
<polyline fill="none" stroke="#0044a0" points="838.388,-469.12 838.388,-417.12 "/>
<polyline fill="none" stroke="#0044a0" points="838.388,-469.12 842.388,-473.12 "/>
<text text-anchor="middle" x="752" y="-451.12" font-family="Times,serif" font-size="20.00" fill="#0044a0">mkdir(&#39;sailfish.dir&#39;) </text>
<text text-anchor="middle" x="752" y="-427.12" font-family="Times,serif" font-size="20.00" fill="#0044a0">before runSailfish </text>
</g>
<!-- t38&#45;&gt;t9 -->
<g id="edge13" class="edge"><title>t38&#45;&gt;t9</title>
<path fill="none" stroke="#0044a0" d="M841.178,-417.083C844.486,-416.256 847.768,-415.465 851,-414.72 902.803,-402.774 918.067,-410.355 969,-395.12 974.615,-393.44 980.395,-391.369 986.053,-389.128"/>
<polygon fill="#0044a0" stroke="#0044a0" points="987.525,-392.306 995.413,-385.233 984.835,-385.843 987.525,-392.306"/>
</g>
<!-- t4&#45;&gt;t9 -->
<g id="edge15" class="edge"><title>t4&#45;&gt;t9</title>
<path fill="none" stroke="#0044a0" d="M607.246,-427.036C621.672,-422.259 637.829,-417.594 653,-414.72 791.255,-388.529 832.296,-428.475 969,-395.12 975.202,-393.606 981.562,-391.493 987.723,-389.108"/>
<polygon fill="#0044a0" stroke="#0044a0" points="989.294,-392.246 997.192,-385.183 986.614,-385.779 989.294,-392.246"/>
</g>
<!-- t9&#45;&gt;t11 -->
<g id="edge17" class="edge"><title>t9&#45;&gt;t11</title>
<path fill="none" stroke="#0044a0" d="M1001.05,-349.064C982.755,-338.285 958.911,-324.238 939.09,-312.56"/>
<polygon fill="#0044a0" stroke="#0044a0" points="940.692,-309.442 930.3,-307.382 937.139,-315.473 940.692,-309.442"/>
</g>
<!-- t9&#45;&gt;t26 -->
<g id="edge27" class="edge"><title>t9&#45;&gt;t26</title>
<path fill="none" stroke="#0044a0" d="M1062.79,-348.986C1071.72,-345.056 1081.54,-341.374 1091,-339.12 1277.58,-294.674 1332.81,-348.691 1522,-317.12 1532.77,-315.322 1544.06,-312.724 1554.93,-309.841"/>
<polygon fill="#0044a0" stroke="#0044a0" points="1556.06,-313.16 1564.77,-307.127 1554.2,-306.412 1556.06,-313.16"/>
</g>
<!-- t11&#45;&gt;t22 -->
<g id="edge22" class="edge"><title>t11&#45;&gt;t22</title>
<path fill="none" stroke="#0044a0" d="M945.245,-271.085C954.091,-267.739 963.328,-264.285 972,-261.12 998.373,-251.492 1027.68,-241.177 1052.63,-232.507"/>
<polygon fill="#0044a0" stroke="#0044a0" points="1054.02,-235.73 1062.32,-229.146 1051.72,-229.116 1054.02,-235.73"/>
</g>
<!-- t24 -->
<g id="node22" class="node"><title>t24</title>
<polygon fill="none" stroke="#0044a0" stroke-dasharray="5,2" points="1391.74,-229.12 1222.26,-229.12 1218.26,-225.12 1218.26,-193.12 1387.74,-193.12 1391.74,-197.12 1391.74,-229.12"/>
<polyline fill="none" stroke="#0044a0" stroke-dasharray="5,2" points="1387.74,-225.12 1218.26,-225.12 "/>
<polyline fill="none" stroke="#0044a0" stroke-dasharray="5,2" points="1387.74,-225.12 1387.74,-193.12 "/>
<polyline fill="none" stroke="#0044a0" stroke-dasharray="5,2" points="1387.74,-225.12 1391.74,-229.12 "/>
<text text-anchor="middle" x="1305" y="-205.12" font-family="Times,serif" font-size="20.00" fill="#0044a0">getEdgeRNormExp</text>
</g>
<!-- t11&#45;&gt;t24 -->
<g id="edge24" class="edge"><title>t11&#45;&gt;t24</title>
<path fill="none" stroke="#0044a0" d="M940.214,-271.043C950.396,-267.212 961.466,-263.564 972,-261.12 1075.05,-237.211 1104.99,-258.409 1209,-239.12 1219.56,-237.162 1230.63,-234.568 1241.36,-231.762"/>
<polygon fill="#0044a0" stroke="#0044a0" points="1242.34,-235.122 1251.08,-229.136 1240.51,-228.364 1242.34,-235.122"/>
</g>
<!-- t16 -->
<g id="node27" class="node"><title>t16</title>
<polygon fill="none" stroke="#0044a0" stroke-dasharray="5,2" points="835.81,-229.12 730.19,-229.12 726.19,-225.12 726.19,-193.12 831.81,-193.12 835.81,-197.12 835.81,-229.12"/>
<polyline fill="none" stroke="#0044a0" stroke-dasharray="5,2" points="831.81,-225.12 726.19,-225.12 "/>
<polyline fill="none" stroke="#0044a0" stroke-dasharray="5,2" points="831.81,-225.12 831.81,-193.12 "/>
<polyline fill="none" stroke="#0044a0" stroke-dasharray="5,2" points="831.81,-225.12 835.81,-229.12 "/>
<text text-anchor="middle" x="781" y="-205.12" font-family="Times,serif" font-size="20.00" fill="#0044a0">runDESeq2</text>
</g>
<!-- t11&#45;&gt;t16 -->
<g id="edge37" class="edge"><title>t11&#45;&gt;t16</title>
<path fill="none" stroke="#0044a0" d="M874.07,-271.064C857.205,-260.383 835.27,-246.491 816.931,-234.876"/>
<polygon fill="#0044a0" stroke="#0044a0" points="818.577,-231.775 808.256,-229.382 814.831,-237.689 818.577,-231.775"/>
</g>
<!-- t18 -->
<g id="node29" class="node"><title>t18</title>
<polygon fill="none" stroke="#0044a0" stroke-dasharray="5,2" points="708.592,-229.12 615.408,-229.12 611.408,-225.12 611.408,-193.12 704.592,-193.12 708.592,-197.12 708.592,-229.12"/>
<polyline fill="none" stroke="#0044a0" stroke-dasharray="5,2" points="704.592,-225.12 611.408,-225.12 "/>
<polyline fill="none" stroke="#0044a0" stroke-dasharray="5,2" points="704.592,-225.12 704.592,-193.12 "/>
<polyline fill="none" stroke="#0044a0" stroke-dasharray="5,2" points="704.592,-225.12 708.592,-229.12 "/>
<text text-anchor="middle" x="660" y="-205.12" font-family="Times,serif" font-size="20.00" fill="#0044a0">runEdgeR</text>
</g>
<!-- t11&#45;&gt;t18 -->
<g id="edge39" class="edge"><title>t11&#45;&gt;t18</title>
<path fill="none" stroke="#0044a0" d="M859.729,-271.063C850.079,-267.457 839.765,-263.905 830,-261.12 780.797,-247.086 765.611,-255.085 717,-239.12 711.863,-237.433 706.588,-235.392 701.418,-233.197"/>
<polygon fill="#0044a0" stroke="#0044a0" points="702.838,-229.998 692.279,-229.122 699.987,-236.391 702.838,-229.998"/>
</g>
<!-- t20 -->
<g id="node31" class="node"><title>t20</title>
<polygon fill="none" stroke="#0044a0" stroke-dasharray="5,2" points="947.77,-229.12 858.23,-229.12 854.23,-225.12 854.23,-193.12 943.77,-193.12 947.77,-197.12 947.77,-229.12"/>
<polyline fill="none" stroke="#0044a0" stroke-dasharray="5,2" points="943.77,-225.12 854.23,-225.12 "/>
<polyline fill="none" stroke="#0044a0" stroke-dasharray="5,2" points="943.77,-225.12 943.77,-193.12 "/>
<polyline fill="none" stroke="#0044a0" stroke-dasharray="5,2" points="943.77,-225.12 947.77,-229.12 "/>
<text text-anchor="middle" x="901" y="-205.12" font-family="Times,serif" font-size="20.00" fill="#0044a0">runSleuth</text>
</g>
<!-- t11&#45;&gt;t20 -->
<g id="edge41" class="edge"><title>t11&#45;&gt;t20</title>
<path fill="none" stroke="#0044a0" d="M901,-270.874C901,-261.643 901,-250.054 901,-239.614"/>
<polygon fill="#0044a0" stroke="#0044a0" points="904.5,-239.297 901,-229.297 897.5,-239.297 904.5,-239.297"/>
</g>
<!-- t22&#45;&gt;t32 -->
<g id="edge35" class="edge"><title>t22&#45;&gt;t32</title>
<path fill="none" stroke="#0044a0" d="M1171.38,-193.099C1183.79,-189.683 1196.8,-186.2 1209,-183.12 1251.86,-172.301 1263.56,-173.474 1306,-161.12 1327.82,-154.767 1351.47,-146.587 1371.89,-139.098"/>
<polygon fill="#0044a0" stroke="#0044a0" points="1373.17,-142.357 1381.33,-135.602 1370.74,-135.793 1373.17,-142.357"/>
</g>
<!-- t31 -->
<g id="node33" class="node"><title>t31</title>
<polygon fill="#ebf3ff" stroke="#0044a0" points="978.521,-105.337 1136,-78.0055 1293.48,-105.337 1293.33,-149.56 978.668,-149.56 978.521,-105.337"/>
<polygon fill="none" stroke="#0044a0" points="974.504,-101.969 1136,-73.9401 1297.5,-101.969 1297.32,-153.565 974.675,-153.565 974.504,-101.969"/>
<text text-anchor="middle" x="1136" y="-111.56" font-family="Times,serif" font-size="20.00" fill="#0044a0">loadNormalisedExpression</text>
</g>
<!-- t22&#45;&gt;t31 -->
<g id="edge47" class="edge"><title>t22&#45;&gt;t31</title>
<path fill="none" stroke="#0044a0" d="M1116.51,-192.898C1118.7,-184.576 1121.43,-174.157 1124.15,-163.777"/>
<polygon fill="#0044a0" stroke="#0044a0" points="1127.58,-164.467 1126.73,-153.906 1120.81,-162.692 1127.58,-164.467"/>
</g>
<!-- t25 -->
<g id="node21" class="node"><title>t25</title>
<polygon fill="#ebf3ff" stroke="#0044a0" points="1512.96,-317.12 1265.04,-317.12 1261.04,-313.12 1261.04,-261.12 1508.96,-261.12 1512.96,-265.12 1512.96,-317.12"/>
<polyline fill="none" stroke="#0044a0" points="1508.96,-313.12 1261.04,-313.12 "/>
<polyline fill="none" stroke="#0044a0" points="1508.96,-313.12 1508.96,-261.12 "/>
<polyline fill="none" stroke="#0044a0" points="1508.96,-313.12 1512.96,-317.12 "/>
<text text-anchor="middle" x="1387" y="-295.12" font-family="Times,serif" font-size="20.00" fill="#0044a0">mkdir(&#39;DEresults.dir/edger&#39;) </text>
<text text-anchor="middle" x="1387" y="-271.12" font-family="Times,serif" font-size="20.00" fill="#0044a0">before getEdgeRNormExp </text>
</g>
<!-- t25&#45;&gt;t24 -->
<g id="edge23" class="edge"><title>t25&#45;&gt;t24</title>
<path fill="none" stroke="#0044a0" d="M1357.86,-261.111C1349.12,-253.01 1339.59,-244.18 1331.06,-236.275"/>
<polygon fill="#0044a0" stroke="#0044a0" points="1333.28,-233.554 1323.56,-229.324 1328.52,-238.688 1333.28,-233.554"/>
</g>
<!-- t24&#45;&gt;t32 -->
<g id="edge34" class="edge"><title>t24&#45;&gt;t32</title>
<path fill="none" stroke="#0044a0" d="M1327.29,-193.113C1346.2,-178.685 1373.51,-157.847 1394.45,-141.867"/>
<polygon fill="#0044a0" stroke="#0044a0" points="1396.6,-144.635 1402.42,-135.787 1392.35,-139.07 1396.6,-144.635"/>
</g>
<!-- t24&#45;&gt;t31 -->
<g id="edge46" class="edge"><title>t24&#45;&gt;t31</title>
<path fill="none" stroke="#0044a0" d="M1273.61,-193.113C1255.57,-183.342 1232.11,-170.632 1209.69,-158.481"/>
<polygon fill="#0044a0" stroke="#0044a0" points="1211.28,-155.366 1200.82,-153.68 1207.95,-161.521 1211.28,-155.366"/>
</g>
<!-- t27 -->
<g id="node23" class="node"><title>t27</title>
<polygon fill="#ebf3ff" stroke="#0044a0" points="1812.32,-395.12 1561.68,-395.12 1557.68,-391.12 1557.68,-339.12 1808.32,-339.12 1812.32,-343.12 1812.32,-395.12"/>
<polyline fill="none" stroke="#0044a0" points="1808.32,-391.12 1557.68,-391.12 "/>
<polyline fill="none" stroke="#0044a0" points="1808.32,-391.12 1808.32,-339.12 "/>
<polyline fill="none" stroke="#0044a0" points="1808.32,-391.12 1812.32,-395.12 "/>
<text text-anchor="middle" x="1685" y="-373.12" font-family="Times,serif" font-size="20.00" fill="#0044a0">mkdir(&#39;DEresults.dir/sleuth&#39;) </text>
<text text-anchor="middle" x="1685" y="-349.12" font-family="Times,serif" font-size="20.00" fill="#0044a0">before getSleuthNormExp </text>
</g>
<!-- t27&#45;&gt;t26 -->
<g id="edge25" class="edge"><title>t27&#45;&gt;t26</title>
<path fill="none" stroke="#0044a0" d="M1660.48,-339.111C1653.27,-331.175 1645.43,-322.54 1638.37,-314.76"/>
<polygon fill="#0044a0" stroke="#0044a0" points="1640.93,-312.375 1631.62,-307.324 1635.75,-317.08 1640.93,-312.375"/>
</g>
<!-- t26&#45;&gt;t32 -->
<g id="edge33" class="edge"><title>t26&#45;&gt;t32</title>
<path fill="none" stroke="#0044a0" d="M1557.12,-271.065C1545.49,-267.736 1533.37,-264.295 1522,-261.12 1486.07,-251.081 1465.56,-267.196 1441,-239.12 1418.66,-213.588 1418.06,-172.615 1420.71,-145.64"/>
<polygon fill="#0044a0" stroke="#0044a0" points="1424.19,-146.051 1421.9,-135.707 1417.24,-145.223 1424.19,-146.051"/>
</g>
<!-- t26&#45;&gt;t31 -->
<g id="edge45" class="edge"><title>t26&#45;&gt;t31</title>
<path fill="none" stroke="#0044a0" d="M1559.01,-271.028C1546.84,-267.581 1534.03,-264.104 1522,-261.12 1475.72,-249.642 1451.9,-271.603 1417,-239.12 1398.05,-221.485 1419.76,-200.953 1401,-183.12 1369.59,-153.261 1348.13,-171.272 1306,-161.12 1299.09,-159.454 1292.02,-157.737 1284.88,-155.993"/>
<polygon fill="#0044a0" stroke="#0044a0" points="1285.66,-152.581 1275.11,-153.6 1283.99,-159.379 1285.66,-152.581"/>
</g>
<!-- t34 -->
<g id="node34" class="node"><title>t34</title>
<polygon fill="#efa03b" stroke="black" points="1163,-52 1113,-52 1109,-48 1109,-16 1159,-16 1163,-20 1163,-52"/>
<polyline fill="none" stroke="black" points="1159,-48 1109,-48 "/>
<polyline fill="none" stroke="black" points="1159,-48 1159,-16 "/>
<polyline fill="none" stroke="black" points="1159,-48 1163,-52 "/>
<text text-anchor="middle" x="1136" y="-28" font-family="Times,serif" font-size="20.00">full</text>
</g>
<!-- t32&#45;&gt;t34 -->
<g id="edge48" class="edge"><title>t32&#45;&gt;t34</title>
<path fill="none" stroke="#0044a0" d="M1381.33,-99.5444C1359,-91.2032 1331.27,-81.3898 1306,-74 1260.83,-60.791 1207.85,-49.2458 1173.19,-42.2128"/>
<polygon fill="#0044a0" stroke="#0044a0" points="1173.54,-38.7141 1163.05,-40.1782 1172.16,-45.5773 1173.54,-38.7141"/>
</g>
<!-- t17 -->
<g id="node26" class="node"><title>t17</title>
<polygon fill="#ebf3ff" stroke="#0044a0" points="548.078,-317.12 289.922,-317.12 285.922,-313.12 285.922,-261.12 544.078,-261.12 548.078,-265.12 548.078,-317.12"/>
<polyline fill="none" stroke="#0044a0" points="544.078,-313.12 285.922,-313.12 "/>
<polyline fill="none" stroke="#0044a0" points="544.078,-313.12 544.078,-261.12 "/>
<polyline fill="none" stroke="#0044a0" points="544.078,-313.12 548.078,-317.12 "/>
<text text-anchor="middle" x="417" y="-295.12" font-family="Times,serif" font-size="20.00" fill="#0044a0">mkdir(&#39;DEresults.dir/deseq2&#39;) </text>
<text text-anchor="middle" x="417" y="-271.12" font-family="Times,serif" font-size="20.00" fill="#0044a0">before runDESeq2 </text>
</g>
<!-- t17&#45;&gt;t16 -->
<g id="edge36" class="edge"><title>t17&#45;&gt;t16</title>
<path fill="none" stroke="#0044a0" d="M548.304,-262.742C551.567,-262.187 554.803,-261.645 558,-261.12 628.83,-249.477 648.835,-258.319 718,-239.12 724.02,-237.449 730.22,-235.328 736.274,-233.011"/>
<polygon fill="#0044a0" stroke="#0044a0" points="737.651,-236.23 745.619,-229.247 735.035,-229.737 737.651,-236.23"/>
</g>
<!-- t30 -->
<g id="node32" class="node"><title>t30</title>
<polygon fill="#ebf3ff" stroke="#0044a0" points="628.556,-105.337 786,-78.0055 943.444,-105.337 943.297,-149.56 628.703,-149.56 628.556,-105.337"/>
<polygon fill="none" stroke="#0044a0" points="624.539,-101.969 786,-73.9401 947.461,-101.969 947.289,-153.565 624.711,-153.565 624.539,-101.969"/>
<text text-anchor="middle" x="786" y="-111.56" font-family="Times,serif" font-size="20.00" fill="#0044a0">loadDifferentialExpression</text>
</g>
<!-- t16&#45;&gt;t30 -->
<g id="edge44" class="edge"><title>t16&#45;&gt;t30</title>
<path fill="none" stroke="#0044a0" d="M781.94,-192.898C782.39,-184.661 782.952,-174.371 783.513,-164.098"/>
<polygon fill="#0044a0" stroke="#0044a0" points="787.019,-164.082 784.07,-153.906 780.03,-163.7 787.019,-164.082"/>
</g>
<!-- t19 -->
<g id="node28" class="node"><title>t19</title>
<polygon fill="#ebf3ff" stroke="#0044a0" points="267.958,-317.12 20.0416,-317.12 16.0416,-313.12 16.0416,-261.12 263.958,-261.12 267.958,-265.12 267.958,-317.12"/>
<polyline fill="none" stroke="#0044a0" points="263.958,-313.12 16.0416,-313.12 "/>
<polyline fill="none" stroke="#0044a0" points="263.958,-313.12 263.958,-261.12 "/>
<polyline fill="none" stroke="#0044a0" points="263.958,-313.12 267.958,-317.12 "/>
<text text-anchor="middle" x="142" y="-295.12" font-family="Times,serif" font-size="20.00" fill="#0044a0">mkdir(&#39;DEresults.dir/edger&#39;) </text>
<text text-anchor="middle" x="142" y="-271.12" font-family="Times,serif" font-size="20.00" fill="#0044a0">before runEdgeR </text>
</g>
<!-- t19&#45;&gt;t18 -->
<g id="edge38" class="edge"><title>t19&#45;&gt;t18</title>
<path fill="none" stroke="#0044a0" d="M268.063,-262.617C271.069,-262.103 274.052,-261.602 277,-261.12 391.202,-242.418 525.544,-226.657 600.933,-218.375"/>
<polygon fill="#0044a0" stroke="#0044a0" points="601.611,-221.822 611.172,-217.256 600.851,-214.863 601.611,-221.822"/>
</g>
<!-- t18&#45;&gt;t30 -->
<g id="edge43" class="edge"><title>t18&#45;&gt;t30</title>
<path fill="none" stroke="#0044a0" d="M683.404,-193.113C696.374,-183.688 713.108,-171.528 729.284,-159.773"/>
<polygon fill="#0044a0" stroke="#0044a0" points="731.637,-162.39 737.669,-153.68 727.522,-156.727 731.637,-162.39"/>
</g>
<!-- t21 -->
<g id="node30" class="node"><title>t21</title>
<polygon fill="#ebf3ff" stroke="#0044a0" points="821.316,-317.12 570.684,-317.12 566.684,-313.12 566.684,-261.12 817.316,-261.12 821.316,-265.12 821.316,-317.12"/>
<polyline fill="none" stroke="#0044a0" points="817.316,-313.12 566.684,-313.12 "/>
<polyline fill="none" stroke="#0044a0" points="817.316,-313.12 817.316,-261.12 "/>
<polyline fill="none" stroke="#0044a0" points="817.316,-313.12 821.316,-317.12 "/>
<text text-anchor="middle" x="694" y="-295.12" font-family="Times,serif" font-size="20.00" fill="#0044a0">mkdir(&#39;DEresults.dir/sleuth&#39;) </text>
<text text-anchor="middle" x="694" y="-271.12" font-family="Times,serif" font-size="20.00" fill="#0044a0">before runSleuth </text>
</g>
<!-- t21&#45;&gt;t20 -->
<g id="edge40" class="edge"><title>t21&#45;&gt;t20</title>
<path fill="none" stroke="#0044a0" d="M784.144,-261.078C804.354,-254.406 825.56,-246.919 845,-239.12 849.401,-237.354 853.941,-235.399 858.443,-233.372"/>
<polygon fill="#0044a0" stroke="#0044a0" points="859.967,-236.523 867.572,-229.147 857.027,-230.17 859.967,-236.523"/>
</g>
<!-- t20&#45;&gt;t30 -->
<g id="edge42" class="edge"><title>t20&#45;&gt;t30</title>
<path fill="none" stroke="#0044a0" d="M879.639,-193.113C867.91,-183.775 852.808,-171.751 838.171,-160.097"/>
<polygon fill="#0044a0" stroke="#0044a0" points="840.115,-157.171 830.111,-153.68 835.755,-162.647 840.115,-157.171"/>
</g>
<!-- t30&#45;&gt;t34 -->
<g id="edge50" class="edge"><title>t30&#45;&gt;t34</title>
<path fill="none" stroke="#0044a0" d="M889.722,-91.9107C914.694,-86.0108 941.293,-79.7548 966,-74 1011.7,-63.3549 1064.37,-51.3064 1098.82,-43.4544"/>
<polygon fill="#0044a0" stroke="#0044a0" points="1099.93,-46.7921 1108.9,-41.1585 1098.37,-39.967 1099.93,-46.7921"/>
</g>
<!-- t31&#45;&gt;t34 -->
<g id="edge49" class="edge"><title>t31&#45;&gt;t34</title>
<path fill="none" stroke="#0044a0" d="M1136,-73.869C1136,-69.8943 1136,-65.944 1136,-62.1693"/>
<polygon fill="#0044a0" stroke="#0044a0" points="1139.5,-62.1224 1136,-52.1225 1132.5,-62.1225 1139.5,-62.1224"/>
</g>
<!-- k1_1 -->
<g id="node35" class="node"><title>k1_1</title>
<polygon fill="#ebf3ff" stroke="#0044a0" points="1962.76,-629.02 1875.24,-629.02 1871.24,-625.02 1871.24,-584.419 1958.76,-584.419 1962.76,-588.419 1962.76,-629.02"/>
<polyline fill="none" stroke="#0044a0" points="1958.76,-625.02 1871.24,-625.02 "/>
<polyline fill="none" stroke="#0044a0" points="1958.76,-625.02 1958.76,-584.419 "/>
<polyline fill="none" stroke="#0044a0" points="1958.76,-625.02 1962.76,-629.02 "/>
<text text-anchor="middle" x="1917" y="-602.52" font-family="Times,serif" font-size="14.00" fill="#0044a0">Task to run</text>
</g>
<!-- k2_1 -->
<g id="node36" class="node"><title>k2_1</title>
<polygon fill="none" stroke="#0044a0" stroke-dasharray="5,2" points="1974.19,-556.521 1863.81,-556.521 1859.81,-552.521 1859.81,-495.318 1970.19,-495.318 1974.19,-499.318 1974.19,-556.521"/>
<polyline fill="none" stroke="#0044a0" stroke-dasharray="5,2" points="1970.19,-552.521 1859.81,-552.521 "/>
<polyline fill="none" stroke="#0044a0" stroke-dasharray="5,2" points="1970.19,-552.521 1970.19,-495.318 "/>
<polyline fill="none" stroke="#0044a0" stroke-dasharray="5,2" points="1970.19,-552.521 1974.19,-556.521 "/>
<text text-anchor="middle" x="1917" y="-530.0px" font-family="Times,serif" font-size="14.00" fill="#0044a0">Up&#45;to&#45;date task</text>
<text text-anchor="middle" x="1917" y="-513.32" font-family="Times,serif" font-size="14.00" fill="#0044a0">forced to rerun</text>
</g>
<!-- k1_1&#45;&gt;k2_1 -->
<g id="edge51" class="edge"><title>k1_1&#45;&gt;k2_1</title>
<path fill="none" stroke="#0044a0" d="M1917,-584.187C1917,-578.757 1917,-572.753 1917,-566.736"/>
<polygon fill="#0044a0" stroke="#0044a0" points="1920.5,-566.696 1917,-556.697 1913.5,-566.697 1920.5,-566.696"/>
</g>
<!-- k3_1 -->
<g id="node37" class="node"><title>k3_1</title>
<polygon fill="#efa03b" stroke="black" points="1963.15,-467.42 1874.85,-467.42 1870.85,-463.42 1870.85,-422.819 1959.15,-422.819 1963.15,-426.819 1963.15,-467.42"/>
<polyline fill="none" stroke="black" points="1959.15,-463.42 1870.85,-463.42 "/>
<polyline fill="none" stroke="black" points="1959.15,-463.42 1959.15,-422.819 "/>
<polyline fill="none" stroke="black" points="1959.15,-463.42 1963.15,-467.42 "/>
<text text-anchor="middle" x="1917" y="-440.92" font-family="Times,serif" font-size="14.00">Final target</text>
</g>
<!-- k2_1&#45;&gt;k3_1 -->
<g id="edge52" class="edge"><title>k2_1&#45;&gt;k3_1</title>
<path fill="none" stroke="#0044a0" d="M1917,-495.129C1917,-489.605 1917,-483.812 1917,-478.222"/>
<polygon fill="#0044a0" stroke="#0044a0" points="1920.5,-477.848 1917,-467.848 1913.5,-477.848 1920.5,-477.848"/>
</g>
</g>
</svg>
