<?xml version="1.0" encoding="UTF-8" standalone="no"?>
<!DOCTYPE svg PUBLIC "-//W3C//DTD SVG 1.1//EN"
 "http://www.w3.org/Graphics/SVG/1.1/DTD/svg11.dtd">
<!-- Generated by graphviz version 2.38.0 (20140413.2041)
 -->
<!-- Title: Pipeline: Pages: 1 -->
<svg width="608pt" height="405pt"
 viewBox="0.00 0.00 608.00 405.07" xmlns="http://www.w3.org/2000/svg" xmlns:xlink="http://www.w3.org/1999/xlink">
<g id="graph0" class="graph" transform="scale(1 1) rotate(0) translate(4 401.07)">
<title>Pipeline:</title>
<polygon fill="white" stroke="none" points="-4,4 -4,-401.07 604,-401.07 604,4 -4,4"/>
<g id="clust1" class="cluster"><title>clustertasks</title>
<polygon fill="none" stroke="black" points="8,-8 8,-389.07 476,-389.07 476,-8 8,-8"/>
<text text-anchor="middle" x="242" y="-358.07" font-family="Times,serif" font-size="30.00" fill="#ff3232">Pipeline:</text>
</g>
<g id="clust2" class="cluster"><title>clusterkey1</title>
<polygon fill="#f6f4f4" stroke="#f6f4f4" points="484,-175.144 484,-355.907 592,-355.907 592,-175.144 484,-175.144"/>
<text text-anchor="middle" x="538" y="-333.907" font-family="Times,serif" font-size="20.00">Key:</text>
</g>
<!-- t5 -->
<g id="node1" class="node"><title>t5</title>
<polygon fill="#ebf3ff" stroke="#0044a0" points="117.53,-281.283 271,-253.95 424.47,-281.283 424.327,-325.509 117.673,-325.509 117.53,-281.283"/>
<polygon fill="none" stroke="#0044a0" points="113.519,-277.929 271,-249.882 428.481,-277.929 428.314,-329.515 113.686,-329.515 113.519,-277.929"/>
<text text-anchor="middle" x="271" y="-287.507" font-family="Times,serif" font-size="20.00" fill="#0044a0">computeExpressionLevels</text>
</g>
<!-- t6 -->
<g id="node2" class="node"><title>t6</title>
<polygon fill="#ebf3ff" stroke="#0044a0" points="20.0397,-105.346 163,-78.0066 305.96,-105.346 305.827,-149.581 20.1731,-149.581 20.0397,-105.346"/>
<polygon fill="none" stroke="#0044a0" points="16.0301,-102.034 163,-73.9276 309.97,-102.034 309.814,-153.588 16.1856,-153.588 16.0301,-102.034"/>
<text text-anchor="middle" x="163" y="-111.572" font-family="Times,serif" font-size="20.00" fill="#0044a0">importExpressionLevels</text>
</g>
<!-- t5&#45;&gt;t6 -->
<g id="edge1" class="edge"><title>t5&#45;&gt;t6</title>
<path fill="none" stroke="#0044a0" d="M242.388,-254.802C236.126,-246.117 229.677,-236.821 224,-227.944 210.591,-206.978 196.977,-182.894 186.023,-162.673"/>
<polygon fill="#0044a0" stroke="#0044a0" points="189.005,-160.829 181.187,-153.678 182.84,-164.144 189.005,-160.829"/>
</g>
<!-- t7 -->
<g id="node3" class="node"><title>t7</title>
<polygon fill="#ebf3ff" stroke="#0044a0" points="430.548,-223.544 237.452,-223.544 233.452,-219.544 233.452,-187.544 426.548,-187.544 430.548,-191.544 430.548,-223.544"/>
<polyline fill="none" stroke="#0044a0" points="426.548,-219.544 233.452,-219.544 "/>
<polyline fill="none" stroke="#0044a0" points="426.548,-219.544 426.548,-187.544 "/>
<polyline fill="none" stroke="#0044a0" points="426.548,-219.544 430.548,-223.544 "/>
<text text-anchor="middle" x="332" y="-199.544" font-family="Times,serif" font-size="20.00" fill="#0044a0">computePresenceCalls</text>
</g>
<!-- t5&#45;&gt;t7 -->
<g id="edge2" class="edge"><title>t5&#45;&gt;t7</title>
<path fill="none" stroke="#0044a0" d="M297.933,-254.552C303.319,-246.963 308.855,-239.161 313.858,-232.111"/>
<polygon fill="#0044a0" stroke="#0044a0" points="316.924,-233.837 319.857,-223.656 311.216,-229.786 316.924,-233.837"/>
</g>
<!-- t10 -->
<g id="node5" class="node"><title>t10</title>
<polygon fill="#efa03b" stroke="black" points="307,-52 257,-52 253,-48 253,-16 303,-16 307,-20 307,-52"/>
<polyline fill="none" stroke="black" points="303,-48 253,-48 "/>
<polyline fill="none" stroke="black" points="303,-48 303,-16 "/>
<polyline fill="none" stroke="black" points="303,-48 307,-52 "/>
<text text-anchor="middle" x="280" y="-28" font-family="Times,serif" font-size="20.00">full</text>
</g>
<!-- t6&#45;&gt;t10 -->
<g id="edge5" class="edge"><title>t6&#45;&gt;t10</title>
<path fill="none" stroke="#0044a0" d="M211.264,-82.9227C223.284,-74.5424 235.899,-65.7472 246.993,-58.0123"/>
<polygon fill="#0044a0" stroke="#0044a0" points="249.323,-60.6548 255.524,-52.0645 245.319,-54.9126 249.323,-60.6548"/>
</g>
<!-- t8 -->
<g id="node4" class="node"><title>t8</title>
<polygon fill="#ebf3ff" stroke="#0044a0" points="468.399,-135.572 331.601,-135.572 327.601,-131.572 327.601,-99.5722 464.399,-99.5722 468.399,-103.572 468.399,-135.572"/>
<polyline fill="none" stroke="#0044a0" points="464.399,-131.572 327.601,-131.572 "/>
<polyline fill="none" stroke="#0044a0" points="464.399,-131.572 464.399,-99.5722 "/>
<polyline fill="none" stroke="#0044a0" points="464.399,-131.572 468.399,-135.572 "/>
<text text-anchor="middle" x="398" y="-111.572" font-family="Times,serif" font-size="20.00" fill="#0044a0">importPresence</text>
</g>
<!-- t7&#45;&gt;t8 -->
<g id="edge3" class="edge"><title>t7&#45;&gt;t8</title>
<path fill="none" stroke="#0044a0" d="M345.356,-187.147C354.901,-174.713 367.893,-157.789 378.583,-143.866"/>
<polygon fill="#0044a0" stroke="#0044a0" points="381.576,-145.714 384.889,-135.651 376.023,-141.452 381.576,-145.714"/>
</g>
<!-- t8&#45;&gt;t10 -->
<g id="edge4" class="edge"><title>t8&#45;&gt;t10</title>
<path fill="none" stroke="#0044a0" d="M373.263,-99.472C355.799,-87.3991 332.205,-71.0889 313.118,-57.8944"/>
<polygon fill="#0044a0" stroke="#0044a0" points="314.92,-54.8851 304.704,-52.0777 310.94,-60.6432 314.92,-54.8851"/>
</g>
<!-- k1_1 -->
<g id="node6" class="node"><title>k1_1</title>
<polygon fill="#ebf3ff" stroke="#0044a0" points="583.763,-315.808 496.237,-315.808 492.237,-311.808 492.237,-271.207 579.763,-271.207 583.763,-275.207 583.763,-315.808"/>
<polyline fill="none" stroke="#0044a0" points="579.763,-311.808 492.237,-311.808 "/>
<polyline fill="none" stroke="#0044a0" points="579.763,-311.808 579.763,-271.207 "/>
<polyline fill="none" stroke="#0044a0" points="579.763,-311.808 583.763,-315.808 "/>
<text text-anchor="middle" x="538" y="-289.307" font-family="Times,serif" font-size="14.00" fill="#0044a0">Task to run</text>
</g>
<!-- k2_1 -->
<g id="node7" class="node"><title>k2_1</title>
<polygon fill="#efa03b" stroke="black" points="584.15,-227.845 495.85,-227.845 491.85,-223.845 491.85,-183.244 580.15,-183.244 584.15,-187.244 584.15,-227.845"/>
<polyline fill="none" stroke="black" points="580.15,-223.845 491.85,-223.845 "/>
<polyline fill="none" stroke="black" points="580.15,-223.845 580.15,-183.244 "/>
<polyline fill="none" stroke="black" points="580.15,-223.845 584.15,-227.845 "/>
<text text-anchor="middle" x="538" y="-201.344" font-family="Times,serif" font-size="14.00">Final target</text>
</g>
<!-- k1_1&#45;&gt;k2_1 -->
<g id="edge6" class="edge"><title>k1_1&#45;&gt;k2_1</title>
<path fill="none" stroke="#0044a0" d="M538,-270.815C538,-260.865 538,-248.877 538,-237.964"/>
<polygon fill="#0044a0" stroke="#0044a0" points="541.5,-237.932 538,-227.932 534.5,-237.932 541.5,-237.932"/>
</g>
</g>
</svg>
