<?xml version="1.0" encoding="UTF-8" standalone="no"?>
<!DOCTYPE svg PUBLIC "-//W3C//DTD SVG 1.1//EN"
 "http://www.w3.org/Graphics/SVG/1.1/DTD/svg11.dtd">
<!-- Generated by graphviz version 2.38.0 (20140413.2041)
 -->
<!-- Title: Pipeline: Pages: 1 -->
<svg width="1739pt" height="950pt"
 viewBox="0.00 0.00 1739.00 950.40" xmlns="http://www.w3.org/2000/svg" xmlns:xlink="http://www.w3.org/1999/xlink">
<g id="graph0" class="graph" transform="scale(1 1) rotate(0) translate(4 946.4)">
<title>Pipeline:</title>
<polygon fill="white" stroke="none" points="-4,4 -4,-946.4 1735,-946.4 1735,4 -4,4"/>
<g id="clust1" class="cluster"><title>clustertasks</title>
<polygon fill="none" stroke="black" points="8,-8 8,-934.4 1585,-934.4 1585,-8 8,-8"/>
<text text-anchor="middle" x="796.5" y="-903.4" font-family="Times,serif" font-size="30.00" fill="#ff3232">Pipeline:</text>
</g>
<g id="clust2" class="cluster"><title>clusterkey1</title>
<polygon fill="#f6f4f4" stroke="#f6f4f4" points="1593,-595.6 1593,-916.8 1723,-916.8 1723,-595.6 1593,-595.6"/>
<text text-anchor="middle" x="1658" y="-894.8" font-family="Times,serif" font-size="20.00">Key:</text>
</g>
<!-- t21 -->
<g id="node1" class="node"><title>t21</title>
<polygon fill="#ebf3ff" stroke="#0044a0" points="1416.75,-342 1247.25,-342 1243.25,-338 1243.25,-306 1412.75,-306 1416.75,-310 1416.75,-342"/>
<polyline fill="none" stroke="#0044a0" points="1412.75,-338 1243.25,-338 "/>
<polyline fill="none" stroke="#0044a0" points="1412.75,-338 1412.75,-306 "/>
<polyline fill="none" stroke="#0044a0" points="1412.75,-338 1416.75,-342 "/>
<text text-anchor="middle" x="1330" y="-318" font-family="Times,serif" font-size="20.00" fill="#0044a0">getDuplicationStats</text>
</g>
<!-- t23 -->
<g id="node8" class="node"><title>t23</title>
<polygon fill="#ebf3ff" stroke="#0044a0" points="1107.35,-284 940.646,-284 936.646,-280 936.646,-248 1103.35,-248 1107.35,-252 1107.35,-284"/>
<polyline fill="none" stroke="#0044a0" points="1103.35,-280 936.646,-280 "/>
<polyline fill="none" stroke="#0044a0" points="1103.35,-280 1103.35,-248 "/>
<polyline fill="none" stroke="#0044a0" points="1103.35,-280 1107.35,-284 "/>
<text text-anchor="middle" x="1022" y="-260" font-family="Times,serif" font-size="20.00" fill="#0044a0">aggregateQcTables</text>
</g>
<!-- t21&#45;&gt;t23 -->
<g id="edge3" class="edge"><title>t21&#45;&gt;t23</title>
<path fill="none" stroke="#0044a0" d="M1242.97,-307.177C1203.78,-300.051 1157.4,-291.618 1117.27,-284.322"/>
<polygon fill="#0044a0" stroke="#0044a0" points="1117.68,-280.839 1107.21,-282.494 1116.43,-287.726 1117.68,-280.839"/>
</g>
<!-- t26 -->
<g id="node11" class="node"><title>t26</title>
<polygon fill="#ebf3ff" stroke="#0044a0" points="977.98,-110 816.02,-110 812.02,-106 812.02,-74 973.98,-74 977.98,-78 977.98,-110"/>
<polyline fill="none" stroke="#0044a0" points="973.98,-106 812.02,-106 "/>
<polyline fill="none" stroke="#0044a0" points="973.98,-106 973.98,-74 "/>
<polyline fill="none" stroke="#0044a0" points="973.98,-106 977.98,-110 "/>
<text text-anchor="middle" x="895" y="-86" font-family="Times,serif" font-size="20.00" fill="#0044a0">get_mapping_stats</text>
</g>
<!-- t21&#45;&gt;t26 -->
<g id="edge13" class="edge"><title>t21&#45;&gt;t26</title>
<path fill="none" stroke="#0044a0" d="M1313.74,-305.783C1276.91,-267.893 1182.7,-177.08 1085,-132 1054.93,-118.124 1019.92,-109.153 988.201,-103.367"/>
<polygon fill="#0044a0" stroke="#0044a0" points="988.482,-99.8634 978.03,-101.598 987.282,-106.76 988.482,-99.8634"/>
</g>
<!-- t19 -->
<g id="node2" class="node"><title>t19</title>
<polygon fill="#ebf3ff" stroke="#0044a0" points="1050.97,-342 879.03,-342 875.03,-338 875.03,-306 1046.97,-306 1050.97,-310 1050.97,-342"/>
<polyline fill="none" stroke="#0044a0" points="1046.97,-338 875.03,-338 "/>
<polyline fill="none" stroke="#0044a0" points="1046.97,-338 1046.97,-306 "/>
<polyline fill="none" stroke="#0044a0" points="1046.97,-338 1050.97,-342 "/>
<text text-anchor="middle" x="963" y="-318" font-family="Times,serif" font-size="20.00" fill="#0044a0">getPicardAlignStats</text>
</g>
<!-- t19&#45;&gt;t23 -->
<g id="edge5" class="edge"><title>t19&#45;&gt;t23</title>
<path fill="none" stroke="#0044a0" d="M981.023,-305.894C985.941,-301.226 991.363,-296.079 996.608,-291.101"/>
<polygon fill="#0044a0" stroke="#0044a0" points="999.244,-293.424 1004.09,-284.001 994.425,-288.347 999.244,-293.424"/>
</g>
<!-- t19&#45;&gt;t26 -->
<g id="edge15" class="edge"><title>t19&#45;&gt;t26</title>
<path fill="none" stroke="#0044a0" d="M944.92,-305.979C938.888,-299.551 932.552,-291.877 928,-284 900.856,-237.027 898.551,-221.573 890,-168 887.492,-152.288 888.507,-134.531 890.258,-120.24"/>
<polygon fill="#0044a0" stroke="#0044a0" points="893.76,-120.47 891.695,-110.078 886.829,-119.49 893.76,-120.47"/>
</g>
<!-- t20 -->
<g id="node3" class="node"><title>t20</title>
<polygon fill="#ebf3ff" stroke="#0044a0" points="856.946,-342 685.054,-342 681.054,-338 681.054,-306 852.946,-306 856.946,-310 856.946,-342"/>
<polyline fill="none" stroke="#0044a0" points="852.946,-338 681.054,-338 "/>
<polyline fill="none" stroke="#0044a0" points="852.946,-338 852.946,-306 "/>
<polyline fill="none" stroke="#0044a0" points="852.946,-338 856.946,-342 "/>
<text text-anchor="middle" x="769" y="-318" font-family="Times,serif" font-size="20.00" fill="#0044a0">getPicardInsertStats</text>
</g>
<!-- t20&#45;&gt;t23 -->
<g id="edge4" class="edge"><title>t20&#45;&gt;t23</title>
<path fill="none" stroke="#0044a0" d="M845.939,-305.97C874.029,-299.753 905.991,-292.678 934.903,-286.278"/>
<polygon fill="#0044a0" stroke="#0044a0" points="935.984,-289.624 944.991,-284.045 934.471,-282.789 935.984,-289.624"/>
</g>
<!-- t20&#45;&gt;t26 -->
<g id="edge14" class="edge"><title>t20&#45;&gt;t26</title>
<path fill="none" stroke="#0044a0" d="M778.47,-305.713C800.37,-265.738 854.62,-166.709 880.636,-119.219"/>
<polygon fill="#0044a0" stroke="#0044a0" points="883.856,-120.626 885.592,-110.174 877.717,-117.263 883.856,-120.626"/>
</g>
<!-- t18 -->
<g id="node4" class="node"><title>t18</title>
<polygon fill="#ebf3ff" stroke="#0044a0" points="663.374,-342 502.626,-342 498.626,-338 498.626,-306 659.374,-306 663.374,-310 663.374,-342"/>
<polyline fill="none" stroke="#0044a0" points="659.374,-338 498.626,-338 "/>
<polyline fill="none" stroke="#0044a0" points="659.374,-338 659.374,-306 "/>
<polyline fill="none" stroke="#0044a0" points="659.374,-338 663.374,-342 "/>
<text text-anchor="middle" x="581" y="-318" font-family="Times,serif" font-size="20.00" fill="#0044a0">getAlignmentStats</text>
</g>
<!-- t18&#45;&gt;t23 -->
<g id="edge6" class="edge"><title>t18&#45;&gt;t23</title>
<path fill="none" stroke="#0044a0" d="M663.783,-307.267C666.553,-306.826 669.298,-306.402 672,-306 757.737,-293.233 855.859,-282.645 926.351,-275.739"/>
<polygon fill="#0044a0" stroke="#0044a0" points="926.932,-279.199 936.546,-274.747 926.254,-272.232 926.932,-279.199"/>
</g>
<!-- t18&#45;&gt;t26 -->
<g id="edge16" class="edge"><title>t18&#45;&gt;t26</title>
<path fill="none" stroke="#0044a0" d="M604.345,-305.901C659.864,-265.233 799.853,-162.694 863.103,-116.364"/>
<polygon fill="#0044a0" stroke="#0044a0" points="865.503,-118.945 871.502,-110.212 861.366,-113.298 865.503,-118.945"/>
</g>
<!-- t34 -->
<g id="node5" class="node"><title>t34</title>
<polygon fill="#ebf3ff" stroke="#0044a0" points="1576.73,-420 1377.27,-420 1373.27,-416 1373.27,-364 1572.73,-364 1576.73,-368 1576.73,-420"/>
<polyline fill="none" stroke="#0044a0" points="1572.73,-416 1373.27,-416 "/>
<polyline fill="none" stroke="#0044a0" points="1572.73,-416 1572.73,-364 "/>
<polyline fill="none" stroke="#0044a0" points="1572.73,-416 1576.73,-420 "/>
<text text-anchor="middle" x="1475" y="-398" font-family="Times,serif" font-size="20.00" fill="#0044a0">mkdir(&#39;stats.dir&#39;) </text>
<text text-anchor="middle" x="1475" y="-374" font-family="Times,serif" font-size="20.00" fill="#0044a0">before getContextStats </text>
</g>
<!-- t17 -->
<g id="node6" class="node"><title>t17</title>
<polygon fill="#ebf3ff" stroke="#0044a0" points="1577.16,-342 1438.84,-342 1434.84,-338 1434.84,-306 1573.16,-306 1577.16,-310 1577.16,-342"/>
<polyline fill="none" stroke="#0044a0" points="1573.16,-338 1434.84,-338 "/>
<polyline fill="none" stroke="#0044a0" points="1573.16,-338 1573.16,-306 "/>
<polyline fill="none" stroke="#0044a0" points="1573.16,-338 1577.16,-342 "/>
<text text-anchor="middle" x="1506" y="-318" font-family="Times,serif" font-size="20.00" fill="#0044a0">getContextStats</text>
</g>
<!-- t34&#45;&gt;t17 -->
<g id="edge1" class="edge"><title>t34&#45;&gt;t17</title>
<path fill="none" stroke="#0044a0" d="M1487.79,-363.774C1489.7,-359.7 1491.67,-355.504 1493.58,-351.446"/>
<polygon fill="#0044a0" stroke="#0044a0" points="1496.77,-352.888 1497.85,-342.349 1490.43,-349.912 1496.77,-352.888"/>
</g>
<!-- t17&#45;&gt;t23 -->
<g id="edge7" class="edge"><title>t17&#45;&gt;t23</title>
<path fill="none" stroke="#0044a0" d="M1434.54,-307.397C1431.66,-306.901 1428.81,-306.432 1426,-306 1321.04,-289.834 1199.64,-279.186 1117.53,-273.161"/>
<polygon fill="#0044a0" stroke="#0044a0" points="1117.7,-269.664 1107.47,-272.431 1117.19,-276.645 1117.7,-269.664"/>
</g>
<!-- t17&#45;&gt;t26 -->
<g id="edge17" class="edge"><title>t17&#45;&gt;t26</title>
<path fill="none" stroke="#0044a0" d="M1478.69,-305.95C1417.27,-268.396 1262.5,-178.217 1121,-132 1078.34,-118.067 1029.44,-108.843 988.06,-102.882"/>
<polygon fill="#0044a0" stroke="#0044a0" points="988.374,-99.3919 977.986,-101.473 987.405,-106.324 988.374,-99.3919"/>
</g>
<!-- t22 -->
<g id="node7" class="node"><title>t22</title>
<polygon fill="#ebf3ff" stroke="#0044a0" points="1224.96,-342 1073.04,-342 1069.04,-338 1069.04,-306 1220.96,-306 1224.96,-310 1224.96,-342"/>
<polyline fill="none" stroke="#0044a0" points="1220.96,-338 1069.04,-338 "/>
<polyline fill="none" stroke="#0044a0" points="1220.96,-338 1220.96,-306 "/>
<polyline fill="none" stroke="#0044a0" points="1220.96,-338 1224.96,-342 "/>
<text text-anchor="middle" x="1147" y="-318" font-family="Times,serif" font-size="20.00" fill="#0044a0">getCoverageStats</text>
</g>
<!-- t22&#45;&gt;t23 -->
<g id="edge2" class="edge"><title>t22&#45;&gt;t23</title>
<path fill="none" stroke="#0044a0" d="M1108.82,-305.894C1096.34,-300.303 1082.33,-294.026 1069.26,-288.173"/>
<polygon fill="#0044a0" stroke="#0044a0" points="1070.51,-284.896 1059.95,-284.001 1067.64,-291.284 1070.51,-284.896"/>
</g>
<!-- t24 -->
<g id="node9" class="node"><title>t24</title>
<polygon fill="#ebf3ff" stroke="#0044a0" points="1052.54,-226 929.46,-226 925.46,-222 925.46,-190 1048.54,-190 1052.54,-194 1052.54,-226"/>
<polyline fill="none" stroke="#0044a0" points="1048.54,-222 925.46,-222 "/>
<polyline fill="none" stroke="#0044a0" points="1048.54,-222 1048.54,-190 "/>
<polyline fill="none" stroke="#0044a0" points="1048.54,-222 1052.54,-226 "/>
<text text-anchor="middle" x="989" y="-202" font-family="Times,serif" font-size="20.00" fill="#0044a0">cleanQcTable</text>
</g>
<!-- t23&#45;&gt;t24 -->
<g id="edge8" class="edge"><title>t23&#45;&gt;t24</title>
<path fill="none" stroke="#0044a0" d="M1011.92,-247.894C1009.49,-243.769 1006.84,-239.27 1004.23,-234.843"/>
<polygon fill="#0044a0" stroke="#0044a0" points="1007.11,-232.84 999.019,-226.001 1001.08,-236.394 1007.11,-232.84"/>
</g>
<!-- t23&#45;&gt;t26 -->
<g id="edge12" class="edge"><title>t23&#45;&gt;t26</title>
<path fill="none" stroke="#0044a0" d="M1044.18,-247.953C1050.87,-241.739 1057.6,-234.203 1062,-226 1081.9,-188.941 1099.37,-164.772 1073,-132 1061.71,-117.972 1025.27,-108.708 988.277,-102.746"/>
<polygon fill="#0044a0" stroke="#0044a0" points="988.778,-99.2816 978.363,-101.225 987.717,-106.201 988.778,-99.2816"/>
</g>
<!-- t25 -->
<g id="node10" class="node"><title>t25</title>
<polygon fill="#ebf3ff" stroke="#0044a0" points="1064.38,-168 917.622,-168 913.622,-164 913.622,-132 1060.38,-132 1064.38,-136 1064.38,-168"/>
<polyline fill="none" stroke="#0044a0" points="1060.38,-164 913.622,-164 "/>
<polyline fill="none" stroke="#0044a0" points="1060.38,-164 1060.38,-132 "/>
<polyline fill="none" stroke="#0044a0" points="1060.38,-164 1064.38,-168 "/>
<text text-anchor="middle" x="989" y="-144" font-family="Times,serif" font-size="20.00" fill="#0044a0">loadQcMeasures</text>
</g>
<!-- t24&#45;&gt;t25 -->
<g id="edge9" class="edge"><title>t24&#45;&gt;t25</title>
<path fill="none" stroke="#0044a0" d="M989,-189.894C989,-186.203 989,-182.213 989,-178.243"/>
<polygon fill="#0044a0" stroke="#0044a0" points="992.5,-178.001 989,-168.001 985.5,-178.001 992.5,-178.001"/>
</g>
<!-- t24&#45;&gt;t26 -->
<g id="edge11" class="edge"><title>t24&#45;&gt;t26</title>
<path fill="none" stroke="#0044a0" d="M931.829,-189.971C921.507,-184.489 911.861,-177.324 905,-168 895.006,-154.417 892.521,-135.597 892.526,-120.208"/>
<polygon fill="#0044a0" stroke="#0044a0" points="896.024,-120.322 892.867,-110.208 889.028,-120.083 896.024,-120.322"/>
</g>
<!-- t25&#45;&gt;t26 -->
<g id="edge10" class="edge"><title>t25&#45;&gt;t26</title>
<path fill="none" stroke="#0044a0" d="M960.286,-131.894C951.448,-126.629 941.589,-120.755 932.264,-115.2"/>
<polygon fill="#0044a0" stroke="#0044a0" points="933.92,-112.113 923.538,-110.001 930.338,-118.126 933.92,-112.113"/>
</g>
<!-- t28 -->
<g id="node36" class="node"><title>t28</title>
<polygon fill="#efa03b" stroke="black" points="308,-52 258,-52 254,-48 254,-16 304,-16 308,-20 308,-52"/>
<polyline fill="none" stroke="black" points="304,-48 254,-48 "/>
<polyline fill="none" stroke="black" points="304,-48 304,-16 "/>
<polyline fill="none" stroke="black" points="304,-48 308,-52 "/>
<text text-anchor="middle" x="281" y="-28" font-family="Times,serif" font-size="20.00">full</text>
</g>
<!-- t26&#45;&gt;t28 -->
<g id="edge47" class="edge"><title>t26&#45;&gt;t28</title>
<path fill="none" stroke="#0044a0" d="M811.874,-83.4185C676.88,-71.1063 415.329,-47.2515 318.359,-38.4073"/>
<polygon fill="#0044a0" stroke="#0044a0" points="318.439,-34.9002 308.162,-37.4774 317.803,-41.8713 318.439,-34.9002"/>
</g>
<!-- t32 -->
<g id="node12" class="node"><title>t32</title>
<polygon fill="#ebf3ff" stroke="#0044a0" points="256.344,-576 19.6558,-576 15.6558,-572 15.6558,-520 252.344,-520 256.344,-524 256.344,-576"/>
<polyline fill="none" stroke="#0044a0" points="252.344,-572 15.6558,-572 "/>
<polyline fill="none" stroke="#0044a0" points="252.344,-572 252.344,-520 "/>
<polyline fill="none" stroke="#0044a0" points="252.344,-572 256.344,-576 "/>
<text text-anchor="middle" x="136" y="-554" font-family="Times,serif" font-size="20.00" fill="#0044a0">mkdir(&#39;feature_counts.dir&#39;) </text>
<text text-anchor="middle" x="136" y="-530" font-family="Times,serif" font-size="20.00" fill="#0044a0">before buildFeatureCounts </text>
</g>
<!-- t12 -->
<g id="node21" class="node"><title>t12</title>
<polygon fill="none" stroke="#0044a0" stroke-dasharray="5,2" points="319.758,-488 150.242,-488 146.242,-484 146.242,-452 315.758,-452 319.758,-456 319.758,-488"/>
<polyline fill="none" stroke="#0044a0" stroke-dasharray="5,2" points="315.758,-484 146.242,-484 "/>
<polyline fill="none" stroke="#0044a0" stroke-dasharray="5,2" points="315.758,-484 315.758,-452 "/>
<polyline fill="none" stroke="#0044a0" stroke-dasharray="5,2" points="315.758,-484 319.758,-488 "/>
<text text-anchor="middle" x="233" y="-464" font-family="Times,serif" font-size="20.00" fill="#0044a0">buildFeatureCounts</text>
</g>
<!-- t32&#45;&gt;t12 -->
<g id="edge24" class="edge"><title>t32&#45;&gt;t12</title>
<path fill="none" stroke="#0044a0" d="M170.472,-519.991C181.128,-511.642 192.772,-502.519 203.093,-494.432"/>
<polygon fill="#0044a0" stroke="#0044a0" points="205.329,-497.127 211.042,-488.204 201.012,-491.616 205.329,-497.127"/>
</g>
<!-- t39 -->
<g id="node13" class="node"><title>t39</title>
<polygon fill="#ebf3ff" stroke="#0044a0" points="431.114,-654 232.886,-654 228.886,-650 228.886,-598 427.114,-598 431.114,-602 431.114,-654"/>
<polyline fill="none" stroke="#0044a0" points="427.114,-650 228.886,-650 "/>
<polyline fill="none" stroke="#0044a0" points="427.114,-650 427.114,-598 "/>
<polyline fill="none" stroke="#0044a0" points="427.114,-650 431.114,-654 "/>
<text text-anchor="middle" x="330" y="-632" font-family="Times,serif" font-size="20.00" fill="#0044a0">mkdir(&#39;dedup.dir&#39;) </text>
<text text-anchor="middle" x="330" y="-608" font-family="Times,serif" font-size="20.00" fill="#0044a0">before dedupBamFiles </text>
</g>
<!-- t11 -->
<g id="node14" class="node"><title>t11</title>
<polygon fill="none" stroke="#0044a0" stroke-dasharray="5,2" points="415.543,-566 278.457,-566 274.457,-562 274.457,-530 411.543,-530 415.543,-534 415.543,-566"/>
<polyline fill="none" stroke="#0044a0" stroke-dasharray="5,2" points="411.543,-562 274.457,-562 "/>
<polyline fill="none" stroke="#0044a0" stroke-dasharray="5,2" points="411.543,-562 411.543,-530 "/>
<polyline fill="none" stroke="#0044a0" stroke-dasharray="5,2" points="411.543,-562 415.543,-566 "/>
<text text-anchor="middle" x="345" y="-542" font-family="Times,serif" font-size="20.00" fill="#0044a0">dedupBamFiles</text>
</g>
<!-- t39&#45;&gt;t11 -->
<g id="edge18" class="edge"><title>t39&#45;&gt;t11</title>
<path fill="none" stroke="#0044a0" d="M335.331,-597.991C336.734,-590.882 338.248,-583.212 339.652,-576.098"/>
<polygon fill="#0044a0" stroke="#0044a0" points="343.102,-576.693 341.604,-566.204 336.234,-575.337 343.102,-576.693"/>
</g>
<!-- t11&#45;&gt;t12 -->
<g id="edge25" class="edge"><title>t11&#45;&gt;t12</title>
<path fill="none" stroke="#0044a0" d="M319.865,-529.944C304.267,-519.36 284.024,-505.623 267.004,-494.074"/>
<polygon fill="#0044a0" stroke="#0044a0" points="268.679,-490.981 258.439,-488.262 264.748,-496.773 268.679,-490.981"/>
</g>
<!-- t38 -->
<g id="node15" class="node"><title>t38</title>
<polygon fill="#ebf3ff" stroke="#0044a0" points="984.064,-882.4 745.936,-882.4 741.936,-878.4 741.936,-826.4 980.064,-826.4 984.064,-830.4 984.064,-882.4"/>
<polyline fill="none" stroke="#0044a0" points="980.064,-878.4 741.936,-878.4 "/>
<polyline fill="none" stroke="#0044a0" points="980.064,-878.4 980.064,-826.4 "/>
<polyline fill="none" stroke="#0044a0" points="980.064,-878.4 984.064,-882.4 "/>
<text text-anchor="middle" x="863" y="-860.4" font-family="Times,serif" font-size="20.00" fill="#0044a0">mkdir(&#39;transcripts.dir&#39;) </text>
<text text-anchor="middle" x="863" y="-836.4" font-family="Times,serif" font-size="20.00" fill="#0044a0">before makeRepTranscripts </text>
</g>
<!-- t0 -->
<g id="node16" class="node"><title>t0</title>
<polygon fill="none" stroke="#0044a0" stroke-dasharray="5,2" points="953.993,-800 776.007,-800 772.007,-796 772.007,-764 949.993,-764 953.993,-768 953.993,-800"/>
<polyline fill="none" stroke="#0044a0" stroke-dasharray="5,2" points="949.993,-796 772.007,-796 "/>
<polyline fill="none" stroke="#0044a0" stroke-dasharray="5,2" points="949.993,-796 949.993,-764 "/>
<polyline fill="none" stroke="#0044a0" stroke-dasharray="5,2" points="949.993,-796 953.993,-800 "/>
<text text-anchor="middle" x="863" y="-776" font-family="Times,serif" font-size="20.00" fill="#0044a0">makeRepTranscripts</text>
</g>
<!-- t38&#45;&gt;t0 -->
<g id="edge19" class="edge"><title>t38&#45;&gt;t0</title>
<path fill="none" stroke="#0044a0" d="M863,-826.383C863,-821.134 863,-815.627 863,-810.367"/>
<polygon fill="#0044a0" stroke="#0044a0" points="866.5,-810.076 863,-800.076 859.5,-810.076 866.5,-810.076"/>
</g>
<!-- t1 -->
<g id="node17" class="node"><title>t1</title>
<polygon fill="none" stroke="#0044a0" stroke-dasharray="5,2" points="953.515,-724.8 776.485,-724.8 772.485,-720.8 772.485,-688.8 949.515,-688.8 953.515,-692.8 953.515,-724.8"/>
<polyline fill="none" stroke="#0044a0" stroke-dasharray="5,2" points="949.515,-720.8 772.485,-720.8 "/>
<polyline fill="none" stroke="#0044a0" stroke-dasharray="5,2" points="949.515,-720.8 949.515,-688.8 "/>
<polyline fill="none" stroke="#0044a0" stroke-dasharray="5,2" points="949.515,-720.8 953.515,-724.8 "/>
<text text-anchor="middle" x="863" y="-700.8" font-family="Times,serif" font-size="20.00" fill="#0044a0">makeSplicedCatalog</text>
</g>
<!-- t0&#45;&gt;t1 -->
<g id="edge20" class="edge"><title>t0&#45;&gt;t1</title>
<path fill="none" stroke="#0044a0" d="M863,-763.653C863,-755.175 863,-744.77 863,-735.248"/>
<polygon fill="#0044a0" stroke="#0044a0" points="866.5,-735.023 863,-725.023 859.5,-735.023 866.5,-735.023"/>
</g>
<!-- t2 -->
<g id="node18" class="node"><title>t2</title>
<polygon fill="none" stroke="#0044a0" stroke-dasharray="5,2" points="916.59,-644 813.41,-644 809.41,-640 809.41,-608 912.59,-608 916.59,-612 916.59,-644"/>
<polyline fill="none" stroke="#0044a0" stroke-dasharray="5,2" points="912.59,-640 809.41,-640 "/>
<polyline fill="none" stroke="#0044a0" stroke-dasharray="5,2" points="912.59,-640 912.59,-608 "/>
<polyline fill="none" stroke="#0044a0" stroke-dasharray="5,2" points="912.59,-640 916.59,-644 "/>
<text text-anchor="middle" x="863" y="-620" font-family="Times,serif" font-size="20.00" fill="#0044a0">addSpikeIn</text>
</g>
<!-- t1&#45;&gt;t2 -->
<g id="edge21" class="edge"><title>t1&#45;&gt;t2</title>
<path fill="none" stroke="#0044a0" d="M863,-688.702C863,-678.685 863,-665.802 863,-654.4"/>
<polygon fill="#0044a0" stroke="#0044a0" points="866.5,-654.065 863,-644.065 859.5,-654.065 866.5,-654.065"/>
</g>
<!-- t3 -->
<g id="node20" class="node"><title>t3</title>
<polygon fill="none" stroke="#0044a0" stroke-dasharray="5,2" points="646.552,-566 453.448,-566 449.448,-562 449.448,-530 642.552,-530 646.552,-534 646.552,-566"/>
<polyline fill="none" stroke="#0044a0" stroke-dasharray="5,2" points="642.552,-562 449.448,-562 "/>
<polyline fill="none" stroke="#0044a0" stroke-dasharray="5,2" points="642.552,-562 642.552,-530 "/>
<polyline fill="none" stroke="#0044a0" stroke-dasharray="5,2" points="642.552,-562 646.552,-566 "/>
<text text-anchor="middle" x="548" y="-542" font-family="Times,serif" font-size="20.00" fill="#0044a0">addSpikeInTranscripts</text>
</g>
<!-- t2&#45;&gt;t3 -->
<g id="edge23" class="edge"><title>t2&#45;&gt;t3</title>
<path fill="none" stroke="#0044a0" d="M809.344,-612.493C767.53,-602.7 708.031,-588.662 656,-576 646.109,-573.593 635.717,-571.034 625.449,-568.487"/>
<polygon fill="#0044a0" stroke="#0044a0" points="626.211,-565.07 615.661,-566.054 624.522,-571.863 626.211,-565.07"/>
</g>
<!-- t4 -->
<g id="node27" class="node"><title>t4</title>
<polygon fill="none" stroke="#0044a0" stroke-dasharray="5,2" points="798.956,-488 637.044,-488 633.044,-484 633.044,-452 794.956,-452 798.956,-456 798.956,-488"/>
<polyline fill="none" stroke="#0044a0" stroke-dasharray="5,2" points="794.956,-484 633.044,-484 "/>
<polyline fill="none" stroke="#0044a0" stroke-dasharray="5,2" points="794.956,-484 794.956,-452 "/>
<polyline fill="none" stroke="#0044a0" stroke-dasharray="5,2" points="794.956,-484 798.956,-488 "/>
<text text-anchor="middle" x="716" y="-464" font-family="Times,serif" font-size="20.00" fill="#0044a0">makeSailfishIndex</text>
</g>
<!-- t2&#45;&gt;t4 -->
<g id="edge33" class="edge"><title>t2&#45;&gt;t4</title>
<path fill="none" stroke="#0044a0" d="M884.765,-607.821C893.775,-599.328 903.221,-588.269 908,-576 917.034,-552.808 923.269,-539.655 908,-520 895.2,-503.523 851.423,-491.659 808.898,-483.736"/>
<polygon fill="#0044a0" stroke="#0044a0" points="809.46,-480.281 798.999,-481.956 808.221,-487.171 809.46,-480.281"/>
</g>
<!-- t35 -->
<g id="node19" class="node"><title>t35</title>
<polygon fill="#ebf3ff" stroke="#0044a0" points="707.124,-654 452.876,-654 448.876,-650 448.876,-598 703.124,-598 707.124,-602 707.124,-654"/>
<polyline fill="none" stroke="#0044a0" points="703.124,-650 448.876,-650 "/>
<polyline fill="none" stroke="#0044a0" points="703.124,-650 703.124,-598 "/>
<polyline fill="none" stroke="#0044a0" points="703.124,-650 707.124,-654 "/>
<text text-anchor="middle" x="578" y="-632" font-family="Times,serif" font-size="20.00" fill="#0044a0">mkdir(&#39;ercc.dir&#39;) </text>
<text text-anchor="middle" x="578" y="-608" font-family="Times,serif" font-size="20.00" fill="#0044a0">before addSpikeInTranscripts </text>
</g>
<!-- t35&#45;&gt;t3 -->
<g id="edge22" class="edge"><title>t35&#45;&gt;t3</title>
<path fill="none" stroke="#0044a0" d="M567.339,-597.991C564.467,-590.717 561.364,-582.854 558.501,-575.602"/>
<polygon fill="#0044a0" stroke="#0044a0" points="561.718,-574.22 554.791,-566.204 555.207,-576.791 561.718,-574.22"/>
</g>
<!-- t3&#45;&gt;t12 -->
<g id="edge26" class="edge"><title>t3&#45;&gt;t12</title>
<path fill="none" stroke="#0044a0" d="M470.836,-529.949C413.51,-517.246 342.93,-501.515 329,-498 320.0px4,-495.761 310.819,-493.294 301.641,-490.791"/>
<polygon fill="#0044a0" stroke="#0044a0" points="302.328,-487.35 291.758,-488.068 300.469,-494.098 302.328,-487.35"/>
</g>
<!-- t3&#45;&gt;t4 -->
<g id="edge32" class="edge"><title>t3&#45;&gt;t4</title>
<path fill="none" stroke="#0044a0" d="M585.702,-529.944C610.258,-518.836 642.491,-504.254 668.753,-492.374"/>
<polygon fill="#0044a0" stroke="#0044a0" points="670.465,-495.441 678.133,-488.13 667.579,-489.063 670.465,-495.441"/>
</g>
<!-- t5 -->
<g id="node28" class="node"><title>t5</title>
<polygon fill="none" stroke="#0044a0" stroke-dasharray="5,2" points="622.752,-410 443.248,-410 439.248,-406 439.248,-374 618.752,-374 622.752,-378 622.752,-410"/>
<polyline fill="none" stroke="#0044a0" stroke-dasharray="5,2" points="618.752,-406 439.248,-406 "/>
<polyline fill="none" stroke="#0044a0" stroke-dasharray="5,2" points="618.752,-406 618.752,-374 "/>
<polyline fill="none" stroke="#0044a0" stroke-dasharray="5,2" points="618.752,-406 622.752,-410 "/>
<text text-anchor="middle" x="531" y="-386" font-family="Times,serif" font-size="20.00" fill="#0044a0">quantifyWithSailfish</text>
</g>
<!-- t3&#45;&gt;t5 -->
<g id="edge36" class="edge"><title>t3&#45;&gt;t5</title>
<path fill="none" stroke="#0044a0" d="M568.816,-529.642C577.429,-521.112 586.453,-510.075 591,-498 599.771,-474.708 601.668,-464.486 591,-442 586.233,-431.953 578.286,-423.284 569.71,-416.151"/>
<polygon fill="#0044a0" stroke="#0044a0" points="571.798,-413.341 561.731,-410.037 567.54,-418.898 571.798,-413.341"/>
</g>
<!-- t13 -->
<g id="node22" class="node"><title>t13</title>
<polygon fill="none" stroke="#0044a0" stroke-dasharray="5,2" points="266.36,-410 19.6397,-410 15.6397,-406 15.6397,-374 262.36,-374 266.36,-378 266.36,-410"/>
<polyline fill="none" stroke="#0044a0" stroke-dasharray="5,2" points="262.36,-406 15.6397,-406 "/>
<polyline fill="none" stroke="#0044a0" stroke-dasharray="5,2" points="262.36,-406 262.36,-374 "/>
<polyline fill="none" stroke="#0044a0" stroke-dasharray="5,2" points="262.36,-406 266.36,-410 "/>
<text text-anchor="middle" x="141" y="-386" font-family="Times,serif" font-size="20.00" fill="#0044a0">aggregatePlateFeatureCounts</text>
</g>
<!-- t12&#45;&gt;t13 -->
<g id="edge27" class="edge"><title>t12&#45;&gt;t13</title>
<path fill="none" stroke="#0044a0" d="M212.124,-451.754C199.538,-441.357 183.332,-427.97 169.569,-416.6"/>
<polygon fill="#0044a0" stroke="#0044a0" points="171.732,-413.848 161.794,-410.177 167.274,-419.245 171.732,-413.848"/>
</g>
<!-- t14 -->
<g id="node23" class="node"><title>t14</title>
<polygon fill="none" stroke="#0044a0" stroke-dasharray="5,2" points="251.924,-342 20.076,-342 16.076,-338 16.076,-306 247.924,-306 251.924,-310 251.924,-342"/>
<polyline fill="none" stroke="#0044a0" stroke-dasharray="5,2" points="247.924,-338 16.076,-338 "/>
<polyline fill="none" stroke="#0044a0" stroke-dasharray="5,2" points="247.924,-338 247.924,-306 "/>
<polyline fill="none" stroke="#0044a0" stroke-dasharray="5,2" points="247.924,-338 251.924,-342 "/>
<text text-anchor="middle" x="134" y="-318" font-family="Times,serif" font-size="20.00" fill="#0044a0">aggregateAllFeatureCounts</text>
</g>
<!-- t12&#45;&gt;t14 -->
<g id="edge29" class="edge"><title>t12&#45;&gt;t14</title>
<path fill="none" stroke="#0044a0" d="M253.341,-451.554C261.755,-443.007 270.568,-431.98 275,-420 283.635,-396.657 290.072,-383.807 275,-364 269.355,-356.582 255.354,-350.211 238.253,-344.897"/>
<polygon fill="#0044a0" stroke="#0044a0" points="239.047,-341.483 228.467,-342.054 237.094,-348.205 239.047,-341.483"/>
</g>
<!-- t13&#45;&gt;t14 -->
<g id="edge28" class="edge"><title>t13&#45;&gt;t14</title>
<path fill="none" stroke="#0044a0" d="M139.161,-373.659C138.475,-367.193 137.678,-359.682 136.919,-352.525"/>
<polygon fill="#0044a0" stroke="#0044a0" points="140.386,-352.029 135.851,-342.454 133.425,-352.767 140.386,-352.029"/>
</g>
<!-- t15 -->
<g id="node24" class="node"><title>t15</title>
<polygon fill="none" stroke="#0044a0" stroke-dasharray="5,2" points="251.578,-168 88.422,-168 84.422,-164 84.422,-132 247.578,-132 251.578,-136 251.578,-168"/>
<polyline fill="none" stroke="#0044a0" stroke-dasharray="5,2" points="247.578,-164 84.422,-164 "/>
<polyline fill="none" stroke="#0044a0" stroke-dasharray="5,2" points="247.578,-164 247.578,-132 "/>
<polyline fill="none" stroke="#0044a0" stroke-dasharray="5,2" points="247.578,-164 251.578,-168 "/>
<text text-anchor="middle" x="168" y="-144" font-family="Times,serif" font-size="20.00" fill="#0044a0">loadFeatureCounts</text>
</g>
<!-- t14&#45;&gt;t15 -->
<g id="edge30" class="edge"><title>t14&#45;&gt;t15</title>
<path fill="none" stroke="#0044a0" d="M137.384,-305.879C143.29,-276.001 155.524,-214.113 162.609,-178.274"/>
<polygon fill="#0044a0" stroke="#0044a0" points="166.124,-178.541 164.629,-168.052 159.256,-177.183 166.124,-178.541"/>
</g>
<!-- t16 -->
<g id="node34" class="node"><title>t16</title>
<polygon fill="#ebf3ff" stroke="#0044a0" points="370.18,-110 195.82,-110 191.82,-106 191.82,-74 366.18,-74 370.18,-78 370.18,-110"/>
<polyline fill="none" stroke="#0044a0" points="366.18,-106 191.82,-106 "/>
<polyline fill="none" stroke="#0044a0" points="366.18,-106 366.18,-74 "/>
<polyline fill="none" stroke="#0044a0" points="366.18,-106 370.18,-110 "/>
<text text-anchor="middle" x="281" y="-86" font-family="Times,serif" font-size="20.00" fill="#0044a0">quantify_expression</text>
</g>
<!-- t15&#45;&gt;t16 -->
<g id="edge43" class="edge"><title>t15&#45;&gt;t16</title>
<path fill="none" stroke="#0044a0" d="M202.518,-131.894C213.58,-126.412 225.974,-120.269 237.588,-114.514"/>
<polygon fill="#0044a0" stroke="#0044a0" points="239.288,-117.578 246.694,-110.001 236.179,-111.306 239.288,-117.578"/>
</g>
<!-- t37 -->
<g id="node25" class="node"><title>t37</title>
<polygon fill="#ebf3ff" stroke="#0044a0" points="582.324,-498 341.676,-498 337.676,-494 337.676,-442 578.324,-442 582.324,-446 582.324,-498"/>
<polyline fill="none" stroke="#0044a0" points="578.324,-494 337.676,-494 "/>
<polyline fill="none" stroke="#0044a0" points="578.324,-494 578.324,-442 "/>
<polyline fill="none" stroke="#0044a0" points="578.324,-494 582.324,-498 "/>
<text text-anchor="middle" x="460" y="-476" font-family="Times,serif" font-size="20.00" fill="#0044a0">mkdir(&#39;tpm.dir&#39;) </text>
<text text-anchor="middle" x="460" y="-452" font-family="Times,serif" font-size="20.00" fill="#0044a0">before quantifyWithSailfish </text>
</g>
<!-- t37&#45;&gt;t5 -->
<g id="edge34" class="edge"><title>t37&#45;&gt;t5</title>
<path fill="none" stroke="#0044a0" d="M485.232,-441.991C492.645,-434.056 500.713,-425.42 507.981,-417.641"/>
<polygon fill="#0044a0" stroke="#0044a0" points="510.659,-419.901 514.928,-410.204 505.544,-415.122 510.659,-419.901"/>
</g>
<!-- t36 -->
<g id="node26" class="node"><title>t36</title>
<polygon fill="#ebf3ff" stroke="#0044a0" points="899.324,-576 668.676,-576 664.676,-572 664.676,-520 895.324,-520 899.324,-524 899.324,-576"/>
<polyline fill="none" stroke="#0044a0" points="895.324,-572 664.676,-572 "/>
<polyline fill="none" stroke="#0044a0" points="895.324,-572 895.324,-520 "/>
<polyline fill="none" stroke="#0044a0" points="895.324,-572 899.324,-576 "/>
<text text-anchor="middle" x="782" y="-554" font-family="Times,serif" font-size="20.00" fill="#0044a0">mkdir(&#39;sailfish_index.dir&#39;) </text>
<text text-anchor="middle" x="782" y="-530" font-family="Times,serif" font-size="20.00" fill="#0044a0">before makeSailfishIndex </text>
</g>
<!-- t36&#45;&gt;t4 -->
<g id="edge31" class="edge"><title>t36&#45;&gt;t4</title>
<path fill="none" stroke="#0044a0" d="M758.545,-519.991C751.797,-512.221 744.466,-503.78 737.822,-496.128"/>
<polygon fill="#0044a0" stroke="#0044a0" points="740.14,-493.459 730.94,-488.204 734.855,-498.049 740.14,-493.459"/>
</g>
<!-- t4&#45;&gt;t5 -->
<g id="edge35" class="edge"><title>t4&#45;&gt;t5</title>
<path fill="none" stroke="#0044a0" d="M674.482,-451.944C647.204,-440.738 611.324,-425.998 582.269,-414.062"/>
<polygon fill="#0044a0" stroke="#0044a0" points="583.279,-410.693 572.699,-410.13 580.619,-417.168 583.279,-410.693"/>
</g>
<!-- t6 -->
<g id="node29" class="node"><title>t6</title>
<polygon fill="none" stroke="#0044a0" stroke-dasharray="5,2" points="480.406,-342 273.594,-342 269.594,-338 269.594,-306 476.406,-306 480.406,-310 480.406,-342"/>
<polyline fill="none" stroke="#0044a0" stroke-dasharray="5,2" points="476.406,-338 269.594,-338 "/>
<polyline fill="none" stroke="#0044a0" stroke-dasharray="5,2" points="476.406,-338 476.406,-306 "/>
<polyline fill="none" stroke="#0044a0" stroke-dasharray="5,2" points="476.406,-338 480.406,-342 "/>
<text text-anchor="middle" x="375" y="-318" font-family="Times,serif" font-size="20.00" fill="#0044a0">transformSailfishOutput</text>
</g>
<!-- t5&#45;&gt;t6 -->
<g id="edge37" class="edge"><title>t5&#45;&gt;t6</title>
<path fill="none" stroke="#0044a0" d="M490.42,-373.832C470.378,-365.352 446.017,-355.046 424.85,-346.091"/>
<polygon fill="#0044a0" stroke="#0044a0" points="425.95,-342.756 415.377,-342.082 423.223,-349.202 425.95,-342.756"/>
</g>
<!-- t7 -->
<g id="node30" class="node"><title>t7</title>
<polygon fill="none" stroke="#0044a0" stroke-dasharray="5,2" points="431.194,-284 266.806,-284 262.806,-280 262.806,-248 427.194,-248 431.194,-252 431.194,-284"/>
<polyline fill="none" stroke="#0044a0" stroke-dasharray="5,2" points="427.194,-280 262.806,-280 "/>
<polyline fill="none" stroke="#0044a0" stroke-dasharray="5,2" points="427.194,-280 427.194,-248 "/>
<polyline fill="none" stroke="#0044a0" stroke-dasharray="5,2" points="427.194,-280 431.194,-284 "/>
<text text-anchor="middle" x="347" y="-260" font-family="Times,serif" font-size="20.00" fill="#0044a0">mergeSailfishRuns</text>
</g>
<!-- t6&#45;&gt;t7 -->
<g id="edge38" class="edge"><title>t6&#45;&gt;t7</title>
<path fill="none" stroke="#0044a0" d="M366.447,-305.894C364.439,-301.877 362.253,-297.506 360.096,-293.193"/>
<polygon fill="#0044a0" stroke="#0044a0" points="363.103,-291.38 355.501,-284.001 356.842,-294.511 363.103,-291.38"/>
</g>
<!-- t9 -->
<g id="node31" class="node"><title>t9</title>
<polygon fill="none" stroke="#0044a0" stroke-dasharray="5,2" points="541.752,-226 362.248,-226 358.248,-222 358.248,-190 537.752,-190 541.752,-194 541.752,-226"/>
<polyline fill="none" stroke="#0044a0" stroke-dasharray="5,2" points="537.752,-222 358.248,-222 "/>
<polyline fill="none" stroke="#0044a0" stroke-dasharray="5,2" points="537.752,-222 537.752,-190 "/>
<polyline fill="none" stroke="#0044a0" stroke-dasharray="5,2" points="537.752,-222 541.752,-226 "/>
<text text-anchor="middle" x="450" y="-202" font-family="Times,serif" font-size="20.00" fill="#0044a0">mergeSailfishCounts</text>
</g>
<!-- t6&#45;&gt;t9 -->
<g id="edge40" class="edge"><title>t6&#45;&gt;t9</title>
<path fill="none" stroke="#0044a0" d="M416.051,-305.939C425.274,-300.26 434.073,-293.018 440,-284 449.115,-270.132 451.669,-251.686 451.918,-236.558"/>
<polygon fill="#0044a0" stroke="#0044a0" points="455.412,-236.184 451.752,-226.242 448.413,-236.297 455.412,-236.184"/>
</g>
<!-- t7&#45;&gt;t9 -->
<g id="edge39" class="edge"><title>t7&#45;&gt;t9</title>
<path fill="none" stroke="#0044a0" d="M378.463,-247.894C388.347,-242.52 399.397,-236.512 409.8,-230.856"/>
<polygon fill="#0044a0" stroke="#0044a0" points="411.616,-233.853 418.73,-226.001 408.272,-227.703 411.616,-233.853"/>
</g>
<!-- t8 -->
<g id="node33" class="node"><title>t8</title>
<polygon fill="none" stroke="#0044a0" stroke-dasharray="5,2" points="339.818,-226 194.182,-226 190.182,-222 190.182,-190 335.818,-190 339.818,-194 339.818,-226"/>
<polyline fill="none" stroke="#0044a0" stroke-dasharray="5,2" points="335.818,-222 190.182,-222 "/>
<polyline fill="none" stroke="#0044a0" stroke-dasharray="5,2" points="335.818,-222 335.818,-190 "/>
<polyline fill="none" stroke="#0044a0" stroke-dasharray="5,2" points="335.818,-222 339.818,-226 "/>
<text text-anchor="middle" x="265" y="-202" font-family="Times,serif" font-size="20.00" fill="#0044a0">loadSailfishTpm</text>
</g>
<!-- t7&#45;&gt;t8 -->
<g id="edge42" class="edge"><title>t7&#45;&gt;t8</title>
<path fill="none" stroke="#0044a0" d="M321.952,-247.894C314.481,-242.792 306.172,-237.118 298.263,-231.716"/>
<polygon fill="#0044a0" stroke="#0044a0" points="300.0px7,-228.751 289.895,-226.001 296.179,-234.531 300.0px7,-228.751"/>
</g>
<!-- t10 -->
<g id="node32" class="node"><title>t10</title>
<polygon fill="none" stroke="#0044a0" stroke-dasharray="5,2" points="497.216,-168 332.784,-168 328.784,-164 328.784,-132 493.216,-132 497.216,-136 497.216,-168"/>
<polyline fill="none" stroke="#0044a0" stroke-dasharray="5,2" points="493.216,-164 328.784,-164 "/>
<polyline fill="none" stroke="#0044a0" stroke-dasharray="5,2" points="493.216,-164 493.216,-132 "/>
<polyline fill="none" stroke="#0044a0" stroke-dasharray="5,2" points="493.216,-164 497.216,-168 "/>
<text text-anchor="middle" x="413" y="-144" font-family="Times,serif" font-size="20.00" fill="#0044a0">loadSailfishCounts</text>
</g>
<!-- t9&#45;&gt;t10 -->
<g id="edge41" class="edge"><title>t9&#45;&gt;t10</title>
<path fill="none" stroke="#0044a0" d="M438.698,-189.894C435.9,-185.66 432.843,-181.033 429.844,-176.494"/>
<polygon fill="#0044a0" stroke="#0044a0" points="432.666,-174.415 424.233,-168.001 426.825,-178.274 432.666,-174.415"/>
</g>
<!-- t10&#45;&gt;t16 -->
<g id="edge44" class="edge"><title>t10&#45;&gt;t16</title>
<path fill="none" stroke="#0044a0" d="M372.678,-131.894C359.372,-126.249 344.417,-119.904 330.505,-114.002"/>
<polygon fill="#0044a0" stroke="#0044a0" points="331.647,-110.685 321.075,-110.001 328.914,-117.129 331.647,-110.685"/>
</g>
<!-- t8&#45;&gt;t16 -->
<g id="edge45" class="edge"><title>t8&#45;&gt;t16</title>
<path fill="none" stroke="#0044a0" d="M267.43,-189.686C270.018,-171.249 274.149,-141.816 277.174,-120.262"/>
<polygon fill="#0044a0" stroke="#0044a0" points="280.676,-120.493 278.6,-110.104 273.744,-119.52 280.676,-120.493"/>
</g>
<!-- t16&#45;&gt;t28 -->
<g id="edge48" class="edge"><title>t16&#45;&gt;t28</title>
<path fill="none" stroke="#0044a0" d="M281,-73.8939C281,-70.2029 281,-66.2128 281,-62.2429"/>
<polygon fill="#0044a0" stroke="#0044a0" points="284.5,-62.0013 281,-52.0014 277.5,-62.0014 284.5,-62.0013"/>
</g>
<!-- t27 -->
<g id="node35" class="node"><title>t27</title>
<polygon fill="#b8cc6e" stroke="#006000" points="173.78,-110 48.2197,-110 44.2197,-106 44.2197,-74 169.78,-74 173.78,-78 173.78,-110"/>
<polyline fill="none" stroke="#006000" points="169.78,-106 44.2197,-106 "/>
<polyline fill="none" stroke="#006000" points="169.78,-106 169.78,-74 "/>
<polyline fill="none" stroke="#006000" points="169.78,-106 173.78,-110 "/>
<text text-anchor="middle" x="109" y="-86" font-family="Times,serif" font-size="20.00" fill="#006000">loadMetaData</text>
</g>
<!-- t27&#45;&gt;t28 -->
<g id="edge46" class="edge"><title>t27&#45;&gt;t28</title>
<path fill="none" stroke="gray" d="M161.54,-73.8939C188.165,-65.2254 219.859,-54.9065 243.908,-47.0763"/>
<polygon fill="gray" stroke="gray" points="245.285,-50.3089 253.71,-43.885 243.118,-43.6528 245.285,-50.3089"/>
</g>
<!-- k1_1 -->
<g id="node37" class="node"><title>k1_1</title>
<polygon fill="#b8cc6e" stroke="#006000" points="1715.19,-876.7 1604.81,-876.7 1600.81,-872.7 1600.81,-832.1 1711.19,-832.1 1715.19,-836.1 1715.19,-876.7"/>
<polyline fill="none" stroke="#006000" points="1711.19,-872.7 1600.81,-872.7 "/>
<polyline fill="none" stroke="#006000" points="1711.19,-872.7 1711.19,-832.1 "/>
<polyline fill="none" stroke="#006000" points="1711.19,-872.7 1715.19,-876.7 "/>
<text text-anchor="middle" x="1658" y="-850.2" font-family="Times,serif" font-size="14.00" fill="#006000">Up&#45;to&#45;date task</text>
</g>
<!-- k2_1 -->
<g id="node38" class="node"><title>k2_1</title>
<polygon fill="#ebf3ff" stroke="#0044a0" points="1703.76,-804.3 1616.24,-804.3 1612.24,-800.3 1612.24,-759.7 1699.76,-759.7 1703.76,-763.7 1703.76,-804.3"/>
<polyline fill="none" stroke="#0044a0" points="1699.76,-800.3 1612.24,-800.3 "/>
<polyline fill="none" stroke="#0044a0" points="1699.76,-800.3 1699.76,-759.7 "/>
<polyline fill="none" stroke="#0044a0" points="1699.76,-800.3 1703.76,-804.3 "/>
<text text-anchor="middle" x="1658" y="-777.8" font-family="Times,serif" font-size="14.00" fill="#0044a0">Task to run</text>
</g>
<!-- k1_1&#45;&gt;k2_1 -->
<g id="edge49" class="edge"><title>k1_1&#45;&gt;k2_1</title>
<path fill="none" stroke="gray" d="M1658,-831.895C1658,-826.436 1658,-820.457 1658,-814.611"/>
<polygon fill="gray" stroke="gray" points="1661.5,-814.373 1658,-804.373 1654.5,-814.373 1661.5,-814.373"/>
</g>
<!-- k3_1 -->
<g id="node39" class="node"><title>k3_1</title>
<polygon fill="none" stroke="#0044a0" stroke-dasharray="5,2" points="1715.19,-737.401 1604.81,-737.401 1600.81,-733.401 1600.81,-676.199 1711.19,-676.199 1715.19,-680.199 1715.19,-737.401"/>
<polyline fill="none" stroke="#0044a0" stroke-dasharray="5,2" points="1711.19,-733.401 1600.81,-733.401 "/>
<polyline fill="none" stroke="#0044a0" stroke-dasharray="5,2" points="1711.19,-733.401 1711.19,-676.199 "/>
<polyline fill="none" stroke="#0044a0" stroke-dasharray="5,2" points="1711.19,-733.401 1715.19,-737.401 "/>
<text text-anchor="middle" x="1658" y="-711" font-family="Times,serif" font-size="14.00" fill="#0044a0">Up&#45;to&#45;date task</text>
<text text-anchor="middle" x="1658" y="-694.2" font-family="Times,serif" font-size="14.00" fill="#0044a0">forced to rerun</text>
</g>
<!-- k2_1&#45;&gt;k3_1 -->
<g id="edge50" class="edge"><title>k2_1&#45;&gt;k3_1</title>
<path fill="none" stroke="#0044a0" d="M1658,-759.433C1658,-755.697 1658,-751.708 1658,-747.665"/>
<polygon fill="#0044a0" stroke="#0044a0" points="1661.5,-747.619 1658,-737.619 1654.5,-747.619 1661.5,-747.619"/>
</g>
<!-- k4_1 -->
<g id="node40" class="node"><title>k4_1</title>
<polygon fill="#efa03b" stroke="black" points="1704.15,-648.3 1615.85,-648.3 1611.85,-644.3 1611.85,-603.7 1700.15,-603.7 1704.15,-607.7 1704.15,-648.3"/>
<polyline fill="none" stroke="black" points="1700.15,-644.3 1611.85,-644.3 "/>
<polyline fill="none" stroke="black" points="1700.15,-644.3 1700.15,-603.7 "/>
<polyline fill="none" stroke="black" points="1700.15,-644.3 1704.15,-648.3 "/>
<text text-anchor="middle" x="1658" y="-621.8" font-family="Times,serif" font-size="14.00">Final target</text>
</g>
<!-- k3_1&#45;&gt;k4_1 -->
<g id="edge51" class="edge"><title>k3_1&#45;&gt;k4_1</title>
<path fill="none" stroke="#0044a0" d="M1658,-676.009C1658,-670.485 1658,-664.692 1658,-659.103"/>
<polygon fill="#0044a0" stroke="#0044a0" points="1661.5,-658.728 1658,-648.728 1654.5,-658.728 1661.5,-658.728"/>
</g>
</g>
</svg>
