<?xml version="1.0" encoding="UTF-8" standalone="no"?>
<!DOCTYPE svg PUBLIC "-//W3C//DTD SVG 1.1//EN"
 "http://www.w3.org/Graphics/SVG/1.1/DTD/svg11.dtd">
<!-- Generated by graphviz version 2.38.0 (20140413.2041)
 -->
<!-- Title: Pipeline: Pages: 1 -->
<svg width="2591pt" height="1186pt"
 viewBox="0.00 0.00 2591.00 1185.64" xmlns="http://www.w3.org/2000/svg" xmlns:xlink="http://www.w3.org/1999/xlink">
<g id="graph0" class="graph" transform="scale(1 1) rotate(0) translate(4 1181.64)">
<title>Pipeline:</title>
<polygon fill="white" stroke="none" points="-4,4 -4,-1181.64 2587,-1181.64 2587,4 -4,4"/>
<g id="clust1" class="cluster"><title>clustertasks</title>
<polygon fill="none" stroke="black" points="8,-8 8,-1169.64 2437,-1169.64 2437,-8 8,-8"/>
<text text-anchor="middle" x="1222.5" y="-1138.64" font-family="Times,serif" font-size="30.00" fill="#ff3232">Pipeline:</text>
</g>
<g id="clust2" class="cluster"><title>clusterkey1</title>
<polygon fill="#f6f4f4" stroke="#f6f4f4" points="2445,-897.645 2445,-1152.04 2575,-1152.04 2575,-897.645 2445,-897.645"/>
<text text-anchor="middle" x="2510" y="-1130.04" font-family="Times,serif" font-size="20.00">Key:</text>
</g>
<!-- t67 -->
<g id="node1" class="node"><title>t67</title>
<polygon fill="#ebf3ff" stroke="#0044a0" points="2176.1,-1036.84 1927.9,-1036.84 1923.9,-1032.84 1923.9,-980.845 2172.1,-980.845 2176.1,-984.845 2176.1,-1036.84"/>
<polyline fill="none" stroke="#0044a0" points="2172.1,-1032.84 1923.9,-1032.84 "/>
<polyline fill="none" stroke="#0044a0" points="2172.1,-1032.84 2172.1,-980.845 "/>
<polyline fill="none" stroke="#0044a0" points="2172.1,-1032.84 2176.1,-1036.84 "/>
<text text-anchor="middle" x="2050" y="-1014.84" font-family="Times,serif" font-size="20.00" fill="#0044a0">mkdir(&#39;methylation.dir&#39;) </text>
<text text-anchor="middle" x="2050" y="-990.845" font-family="Times,serif" font-size="20.00" fill="#0044a0">before callMethylationStatus </text>
</g>
<!-- t4 -->
<g id="node4" class="node"><title>t4</title>
<polygon fill="none" stroke="#0044a0" stroke-dasharray="5,2" points="2220.53,-946.045 2033.47,-946.045 2029.47,-942.045 2029.47,-910.045 2216.53,-910.045 2220.53,-914.045 2220.53,-946.045"/>
<polyline fill="none" stroke="#0044a0" stroke-dasharray="5,2" points="2216.53,-942.045 2029.47,-942.045 "/>
<polyline fill="none" stroke="#0044a0" stroke-dasharray="5,2" points="2216.53,-942.045 2216.53,-910.045 "/>
<polyline fill="none" stroke="#0044a0" stroke-dasharray="5,2" points="2216.53,-942.045 2220.53,-946.045 "/>
<text text-anchor="middle" x="2125" y="-922.045" font-family="Times,serif" font-size="20.00" fill="#0044a0">callMethylationStatus</text>
</g>
<!-- t67&#45;&gt;t4 -->
<g id="edge2" class="edge"><title>t67&#45;&gt;t4</title>
<path fill="none" stroke="#0044a0" d="M2075.81,-980.726C2084.12,-972 2093.27,-962.382 2101.41,-953.832"/>
<polygon fill="#0044a0" stroke="#0044a0" points="2104.18,-955.994 2108.54,-946.338 2099.11,-951.168 2104.18,-955.994"/>
</g>
<!-- t79 -->
<g id="node2" class="node"><title>t79</title>
<polygon fill="#ebf3ff" stroke="#0044a0" points="2429.14,-1117.64 2164.86,-1117.64 2160.86,-1113.64 2160.86,-1061.64 2425.14,-1061.64 2429.14,-1065.64 2429.14,-1117.64"/>
<polyline fill="none" stroke="#0044a0" points="2425.14,-1113.64 2160.86,-1113.64 "/>
<polyline fill="none" stroke="#0044a0" points="2425.14,-1113.64 2425.14,-1061.64 "/>
<polyline fill="none" stroke="#0044a0" points="2425.14,-1113.64 2429.14,-1117.64 "/>
<text text-anchor="middle" x="2295" y="-1095.64" font-family="Times,serif" font-size="20.00" fill="#0044a0">mkdir(&#39;bismark.dir&#39;) </text>
<text text-anchor="middle" x="2295" y="-1071.64" font-family="Times,serif" font-size="20.00" fill="#0044a0">before mapReadsWithBismark </text>
</g>
<!-- t3 -->
<g id="node3" class="node"><title>t3</title>
<polygon fill="none" stroke="#0044a0" stroke-dasharray="5,2" points="2401.57,-1026.84 2198.43,-1026.84 2194.43,-1022.84 2194.43,-990.845 2397.57,-990.845 2401.57,-994.845 2401.57,-1026.84"/>
<polyline fill="none" stroke="#0044a0" stroke-dasharray="5,2" points="2397.57,-1022.84 2194.43,-1022.84 "/>
<polyline fill="none" stroke="#0044a0" stroke-dasharray="5,2" points="2397.57,-1022.84 2397.57,-990.845 "/>
<polyline fill="none" stroke="#0044a0" stroke-dasharray="5,2" points="2397.57,-1022.84 2401.57,-1026.84 "/>
<text text-anchor="middle" x="2298" y="-1002.84" font-family="Times,serif" font-size="20.00" fill="#0044a0">mapReadsWithBismark</text>
</g>
<!-- t79&#45;&gt;t3 -->
<g id="edge1" class="edge"><title>t79&#45;&gt;t3</title>
<path fill="none" stroke="#0044a0" d="M2296.03,-1061.53C2296.33,-1053.69 2296.66,-1045.14 2296.96,-1037.28"/>
<polygon fill="#0044a0" stroke="#0044a0" points="2300.46,-1037.26 2297.34,-1027.14 2293.46,-1037 2300.46,-1037.26"/>
</g>
<!-- t3&#45;&gt;t4 -->
<g id="edge3" class="edge"><title>t3&#45;&gt;t4</title>
<path fill="none" stroke="#0044a0" d="M2260.46,-990.746C2234.39,-978.871 2199.47,-962.966 2171.62,-950.279"/>
<polygon fill="#0044a0" stroke="#0044a0" points="2173.02,-947.07 2162.47,-946.11 2170.11,-953.44 2173.02,-947.07"/>
</g>
<!-- t6 -->
<g id="node5" class="node"><title>t6</title>
<polygon fill="none" stroke="#0044a0" stroke-dasharray="5,2" points="2386.52,-852.388 2219.48,-852.388 2215.48,-848.388 2215.48,-816.388 2382.52,-816.388 2386.52,-820.388 2386.52,-852.388"/>
<polyline fill="none" stroke="#0044a0" stroke-dasharray="5,2" points="2382.52,-848.388 2215.48,-848.388 "/>
<polyline fill="none" stroke="#0044a0" stroke-dasharray="5,2" points="2382.52,-848.388 2382.52,-816.388 "/>
<polyline fill="none" stroke="#0044a0" stroke-dasharray="5,2" points="2382.52,-848.388 2386.52,-852.388 "/>
<text text-anchor="middle" x="2301" y="-828.388" font-family="Times,serif" font-size="20.00" fill="#0044a0">sortAndIndexBams</text>
</g>
<!-- t3&#45;&gt;t6 -->
<g id="edge5" class="edge"><title>t3&#45;&gt;t6</title>
<path fill="none" stroke="#0044a0" d="M2298.3,-990.678C2298.82,-960.721 2299.9,-898.668 2300.52,-862.734"/>
<polygon fill="#0044a0" stroke="#0044a0" points="2304.03,-862.544 2300.7,-852.484 2297.03,-862.422 2304.03,-862.544"/>
</g>
<!-- t4&#45;&gt;t6 -->
<g id="edge4" class="edge"><title>t4&#45;&gt;t6</title>
<path fill="none" stroke="#0044a0" d="M2157.69,-910.02C2186.25,-895.147 2227.88,-873.468 2258.92,-857.303"/>
<polygon fill="#0044a0" stroke="#0044a0" points="2260.93,-860.2 2268.19,-852.477 2257.7,-853.992 2260.93,-860.2"/>
</g>
<!-- t20 -->
<g id="node12" class="node"><title>t20</title>
<polygon fill="none" stroke="#0044a0" stroke-dasharray="5,2" points="2093.77,-411.905 1918.23,-411.905 1914.23,-407.905 1914.23,-375.905 2089.77,-375.905 2093.77,-379.905 2093.77,-411.905"/>
<polyline fill="none" stroke="#0044a0" stroke-dasharray="5,2" points="2089.77,-407.905 1914.23,-407.905 "/>
<polyline fill="none" stroke="#0044a0" stroke-dasharray="5,2" points="2089.77,-407.905 2089.77,-375.905 "/>
<polyline fill="none" stroke="#0044a0" stroke-dasharray="5,2" points="2089.77,-407.905 2093.77,-411.905 "/>
<text text-anchor="middle" x="2004" y="-387.905" font-family="Times,serif" font-size="20.00" fill="#0044a0">summariseCoverage</text>
</g>
<!-- t4&#45;&gt;t20 -->
<g id="edge11" class="edge"><title>t4&#45;&gt;t20</title>
<path fill="none" stroke="#0044a0" d="M2125,-909.626C2125,-878.119 2125,-809.56 2125,-751.73 2125,-751.73 2125,-751.73 2125,-588.093 2125,-518.371 2067.69,-453.119 2031.96,-419.204"/>
<polygon fill="#0044a0" stroke="#0044a0" points="2033.96,-416.293 2024.25,-412.059 2029.2,-421.425 2033.96,-416.293"/>
</g>
<!-- t23 -->
<g id="node15" class="node"><title>t23</title>
<polygon fill="#ebf3ff" stroke="#0044a0" points="2108.57,-272.506 2247,-245.164 2385.43,-272.506 2385.3,-316.746 2108.7,-316.746 2108.57,-272.506"/>
<polygon fill="none" stroke="#0044a0" points="2104.56,-269.214 2247,-241.08 2389.44,-269.214 2389.29,-320.753 2104.71,-320.753 2104.56,-269.214"/>
<text text-anchor="middle" x="2247" y="-278.734" font-family="Times,serif" font-size="20.00" fill="#0044a0">summariseCpGOverlap</text>
</g>
<!-- t4&#45;&gt;t23 -->
<g id="edge15" class="edge"><title>t4&#45;&gt;t23</title>
<path fill="none" stroke="#0044a0" d="M2130.94,-909.867C2141.17,-878.741 2161,-810.766 2161,-751.73 2161,-751.73 2161,-751.73 2161,-490.47 2161,-431.33 2191.88,-369.553 2216.63,-329.534"/>
<polygon fill="#0044a0" stroke="#0044a0" points="2219.74,-331.161 2222.13,-320.838 2213.82,-327.422 2219.74,-331.161"/>
</g>
<!-- t11 -->
<g id="node21" class="node"><title>t11</title>
<polygon fill="none" stroke="#0044a0" stroke-dasharray="5,2" points="1915.12,-193.571 1776.88,-193.571 1772.88,-189.571 1772.88,-157.571 1911.12,-157.571 1915.12,-161.571 1915.12,-193.571"/>
<polyline fill="none" stroke="#0044a0" stroke-dasharray="5,2" points="1911.12,-189.571 1772.88,-189.571 "/>
<polyline fill="none" stroke="#0044a0" stroke-dasharray="5,2" points="1911.12,-189.571 1911.12,-157.571 "/>
<polyline fill="none" stroke="#0044a0" stroke-dasharray="5,2" points="1911.12,-189.571 1915.12,-193.571 "/>
<text text-anchor="middle" x="1844" y="-169.571" font-family="Times,serif" font-size="20.00" fill="#0044a0">subsetCoverage</text>
</g>
<!-- t4&#45;&gt;t11 -->
<g id="edge20" class="edge"><title>t4&#45;&gt;t11</title>
<path fill="none" stroke="#0044a0" d="M2122.79,-909.993C2112.54,-833.665 2067.29,-524.305 1999,-459.485 1967.88,-429.947 1946.63,-447.869 1905,-437.485 1758.23,-400.877 1723.57,-383.58 1576,-350.326 1549.98,-344.462 1475.05,-348.843 1458,-328.326 1433.24,-298.521 1431.6,-269.506 1458,-241.142 1481.22,-216.189 1731.24,-228.575 1764,-219.142 1779.72,-214.613 1795.87,-206.739 1809.51,-198.984"/>
<polygon fill="#0044a0" stroke="#0044a0" points="1811.68,-201.77 1818.51,-193.676 1808.12,-195.74 1811.68,-201.77"/>
</g>
<!-- t15 -->
<g id="node25" class="node"><title>t15</title>
<polygon fill="#ebf3ff" stroke="#0044a0" points="1747.7,-822.137 1844,-794.745 1940.3,-822.137 1940.21,-866.459 1747.79,-866.459 1747.7,-822.137"/>
<polygon fill="none" stroke="#0044a0" points="1743.7,-819.103 1844,-790.572 1944.3,-819.103 1944.2,-870.474 1743.8,-870.474 1743.7,-819.103"/>
<text text-anchor="middle" x="1844" y="-828.388" font-family="Times,serif" font-size="20.00" fill="#0044a0">mergeCoverage</text>
</g>
<!-- t4&#45;&gt;t15 -->
<g id="edge24" class="edge"><title>t4&#45;&gt;t15</title>
<path fill="none" stroke="#0044a0" d="M2063.89,-909.943C2018.92,-897.307 1963.81,-881.691 1953,-878.045 1949.21,-876.766 1945.36,-875.432 1941.47,-874.058"/>
<polygon fill="#0044a0" stroke="#0044a0" points="1942.38,-870.663 1931.78,-870.572 1940.01,-877.25 1942.38,-870.663"/>
</g>
<!-- t5 -->
<g id="node31" class="node"><title>t5</title>
<polygon fill="none" stroke="#0044a0" stroke-dasharray="5,2" points="2085.76,-852.388 1966.24,-852.388 1962.24,-848.388 1962.24,-816.388 2081.76,-816.388 2085.76,-820.388 2085.76,-852.388"/>
<polyline fill="none" stroke="#0044a0" stroke-dasharray="5,2" points="2081.76,-848.388 1962.24,-848.388 "/>
<polyline fill="none" stroke="#0044a0" stroke-dasharray="5,2" points="2081.76,-848.388 2081.76,-816.388 "/>
<polyline fill="none" stroke="#0044a0" stroke-dasharray="5,2" points="2081.76,-848.388 2085.76,-852.388 "/>
<text text-anchor="middle" x="2024" y="-828.388" font-family="Times,serif" font-size="20.00" fill="#0044a0">plotReadBias</text>
</g>
<!-- t4&#45;&gt;t5 -->
<g id="edge31" class="edge"><title>t4&#45;&gt;t5</title>
<path fill="none" stroke="#0044a0" d="M2106,-909.805C2090.34,-895.594 2067.96,-875.278 2050.53,-859.462"/>
<polygon fill="#0044a0" stroke="#0044a0" points="2052.67,-856.679 2042.91,-852.55 2047.97,-861.862 2052.67,-856.679"/>
</g>
<!-- t7 -->
<g id="node6" class="node"><title>t7</title>
<polygon fill="none" stroke="#0044a0" stroke-dasharray="5,2" points="2361.45,-768.73 2244.55,-768.73 2240.55,-764.73 2240.55,-732.73 2357.45,-732.73 2361.45,-736.73 2361.45,-768.73"/>
<polyline fill="none" stroke="#0044a0" stroke-dasharray="5,2" points="2357.45,-764.73 2240.55,-764.73 "/>
<polyline fill="none" stroke="#0044a0" stroke-dasharray="5,2" points="2357.45,-764.73 2357.45,-732.73 "/>
<polyline fill="none" stroke="#0044a0" stroke-dasharray="5,2" points="2357.45,-764.73 2361.45,-768.73 "/>
<text text-anchor="middle" x="2301" y="-744.73" font-family="Times,serif" font-size="20.00" fill="#0044a0">buildBigWig</text>
</g>
<!-- t6&#45;&gt;t7 -->
<g id="edge6" class="edge"><title>t6&#45;&gt;t7</title>
<path fill="none" stroke="#0044a0" d="M2301,-816.07C2301,-805.28 2301,-791.166 2301,-778.907"/>
<polygon fill="#0044a0" stroke="#0044a0" points="2304.5,-778.743 2301,-768.743 2297.5,-778.743 2304.5,-778.743"/>
</g>
<!-- t58 -->
<g id="node62" class="node"><title>t58</title>
<polygon fill="#efa03b" stroke="black" points="1225,-52 1175,-52 1171,-48 1171,-16 1221,-16 1225,-20 1225,-52"/>
<polyline fill="none" stroke="black" points="1221,-48 1171,-48 "/>
<polyline fill="none" stroke="black" points="1221,-48 1221,-16 "/>
<polyline fill="none" stroke="black" points="1221,-48 1225,-52 "/>
<text text-anchor="middle" x="1198" y="-28" font-family="Times,serif" font-size="20.00">full</text>
</g>
<!-- t6&#45;&gt;t58 -->
<g id="edge83" class="edge"><title>t6&#45;&gt;t58</title>
<path fill="none" stroke="#0044a0" d="M2330.46,-816.248C2367.97,-791.951 2428,-743.705 2428,-683.73 2428,-683.73 2428,-683.73 2428,-174.571 2428,-128.816 2441.18,-103.261 2406,-74 2359.94,-35.6854 1434.32,-34.6951 1235.43,-34.9264"/>
<polygon fill="#0044a0" stroke="#0044a0" points="1235.2,-31.4266 1225.2,-34.9401 1235.21,-38.4266 1235.2,-31.4266"/>
</g>
<!-- t8 -->
<g id="node7" class="node"><title>t8</title>
<polygon fill="#ebf3ff" stroke="#0044a0" points="2198.62,-576.848 2302,-549.468 2405.38,-576.848 2405.29,-621.15 2198.71,-621.15 2198.62,-576.848"/>
<polygon fill="none" stroke="#0044a0" points="2194.6,-573.76 2302,-545.317 2409.4,-573.76 2409.29,-625.163 2194.71,-625.163 2194.6,-573.76"/>
<text text-anchor="middle" x="2302" y="-583.093" font-family="Times,serif" font-size="20.00" fill="#0044a0">loadBigWigStats</text>
</g>
<!-- t7&#45;&gt;t8 -->
<g id="edge7" class="edge"><title>t7&#45;&gt;t8</title>
<path fill="none" stroke="#0044a0" d="M2301.11,-732.646C2301.25,-709.639 2301.51,-667.845 2301.72,-635.437"/>
<polygon fill="#0044a0" stroke="#0044a0" points="2305.22,-635.302 2301.78,-625.28 2298.22,-635.258 2305.22,-635.302"/>
</g>
<!-- t8&#45;&gt;t58 -->
<g id="edge82" class="edge"><title>t8&#45;&gt;t58</title>
<path fill="none" stroke="#0044a0" d="M2334.67,-553.811C2365.81,-517.405 2408,-456.69 2408,-394.905 2408,-394.905 2408,-394.905 2408,-174.571 2408,-129.162 2424.34,-103.709 2390,-74 2345.31,-35.3411 1432.33,-34.6172 1235.28,-34.9132"/>
<polygon fill="#0044a0" stroke="#0044a0" points="1235.13,-31.4133 1225.14,-34.9303 1235.15,-38.4133 1235.13,-31.4133"/>
</g>
<!-- t70 -->
<g id="node8" class="node"><title>t70</title>
<polygon fill="#ebf3ff" stroke="#0044a0" points="1567.28,-421.905 1250.72,-421.905 1246.72,-417.905 1246.72,-365.905 1563.28,-365.905 1567.28,-369.905 1567.28,-421.905"/>
<polyline fill="none" stroke="#0044a0" points="1563.28,-417.905 1246.72,-417.905 "/>
<polyline fill="none" stroke="#0044a0" points="1563.28,-417.905 1563.28,-365.905 "/>
<polyline fill="none" stroke="#0044a0" points="1563.28,-417.905 1567.28,-421.905 "/>
<text text-anchor="middle" x="1407" y="-399.905" font-family="Times,serif" font-size="20.00" fill="#0044a0">mkdir(&#39;sequence_characteristics.dir&#39;) </text>
<text text-anchor="middle" x="1407" y="-375.905" font-family="Times,serif" font-size="20.00" fill="#0044a0">before summariseReadStart </text>
</g>
<!-- t0 -->
<g id="node9" class="node"><title>t0</title>
<polygon fill="none" stroke="#0044a0" stroke-dasharray="5,2" points="1428.51,-302.734 1251.49,-302.734 1247.49,-298.734 1247.49,-266.734 1424.51,-266.734 1428.51,-270.734 1428.51,-302.734"/>
<polyline fill="none" stroke="#0044a0" stroke-dasharray="5,2" points="1424.51,-298.734 1247.49,-298.734 "/>
<polyline fill="none" stroke="#0044a0" stroke-dasharray="5,2" points="1424.51,-298.734 1424.51,-266.734 "/>
<polyline fill="none" stroke="#0044a0" stroke-dasharray="5,2" points="1424.51,-298.734 1428.51,-302.734 "/>
<text text-anchor="middle" x="1338" y="-278.734" font-family="Times,serif" font-size="20.00" fill="#0044a0">summariseReadStart</text>
</g>
<!-- t70&#45;&gt;t0 -->
<g id="edge8" class="edge"><title>t70&#45;&gt;t0</title>
<path fill="none" stroke="#0044a0" d="M1389.59,-365.861C1378.88,-349.224 1365.22,-328.019 1354.66,-311.602"/>
<polygon fill="#0044a0" stroke="#0044a0" points="1357.49,-309.548 1349.14,-303.035 1351.61,-313.337 1357.49,-309.548"/>
</g>
<!-- t1 -->
<g id="node10" class="node"><title>t1</title>
<polygon fill="#ebf3ff" stroke="#0044a0" points="1251.47,-163.35 1423,-136.025 1594.53,-163.35 1594.37,-207.564 1251.63,-207.564 1251.47,-163.35"/>
<polygon fill="none" stroke="#0044a0" points="1247.46,-159.935 1423,-131.97 1598.54,-159.935 1598.35,-211.569 1247.65,-211.569 1247.46,-159.935"/>
<text text-anchor="middle" x="1423" y="-169.571" font-family="Times,serif" font-size="20.00" fill="#0044a0">combineReadStartSummaries</text>
</g>
<!-- t0&#45;&gt;t1 -->
<g id="edge9" class="edge"><title>t0&#45;&gt;t1</title>
<path fill="none" stroke="#0044a0" d="M1351.66,-266.516C1361.66,-253.907 1375.7,-236.21 1388.68,-219.846"/>
<polygon fill="#0044a0" stroke="#0044a0" points="1391.47,-221.957 1394.94,-211.948 1385.98,-217.607 1391.47,-221.957"/>
</g>
<!-- t2 -->
<g id="node11" class="node"><title>t2</title>
<polygon fill="#ebf3ff" stroke="#0044a0" points="1459.98,-110 1298.02,-110 1294.02,-106 1294.02,-74 1455.98,-74 1459.98,-78 1459.98,-110"/>
<polyline fill="none" stroke="#0044a0" points="1455.98,-106 1294.02,-106 "/>
<polyline fill="none" stroke="#0044a0" points="1455.98,-106 1455.98,-74 "/>
<polyline fill="none" stroke="#0044a0" points="1455.98,-106 1459.98,-110 "/>
<text text-anchor="middle" x="1377" y="-86" font-family="Times,serif" font-size="20.00" fill="#0044a0">loadStartSummary</text>
</g>
<!-- t1&#45;&gt;t2 -->
<g id="edge10" class="edge"><title>t1&#45;&gt;t2</title>
<path fill="none" stroke="#0044a0" d="M1400.81,-135.219C1397.71,-129.719 1394.59,-124.184 1391.67,-119.015"/>
<polygon fill="#0044a0" stroke="#0044a0" points="1394.66,-117.184 1386.7,-110.193 1388.56,-120.623 1394.66,-117.184"/>
</g>
<!-- t2&#45;&gt;t58 -->
<g id="edge85" class="edge"><title>t2&#45;&gt;t58</title>
<path fill="none" stroke="#0044a0" d="M1322.32,-73.8939C1294,-65.0344 1260.17,-54.451 1234.96,-46.5624"/>
<polygon fill="#0044a0" stroke="#0044a0" points="1235.99,-43.2193 1225.41,-43.5738 1233.9,-49.9 1235.99,-43.2193"/>
</g>
<!-- t21 -->
<g id="node13" class="node"><title>t21</title>
<polygon fill="#ebf3ff" stroke="#0044a0" points="1829.66,-272.502 1956,-245.15 2082.34,-272.502 2082.23,-316.758 1829.77,-316.758 1829.66,-272.502"/>
<polygon fill="none" stroke="#0044a0" points="1825.65,-269.268 1956,-241.049 2086.35,-269.268 2086.21,-320.766 1825.79,-320.766 1825.65,-269.268"/>
<text text-anchor="middle" x="1956" y="-278.734" font-family="Times,serif" font-size="20.00" fill="#0044a0">concatenateCoverage</text>
</g>
<!-- t20&#45;&gt;t21 -->
<g id="edge12" class="edge"><title>t20&#45;&gt;t21</title>
<path fill="none" stroke="#0044a0" d="M1996.29,-375.686C1990.79,-363.42 1983.14,-346.339 1975.98,-330.354"/>
<polygon fill="#0044a0" stroke="#0044a0" points="1979.13,-328.809 1971.85,-321.113 1972.74,-331.671 1979.13,-328.809"/>
</g>
<!-- t20&#45;&gt;t23 -->
<g id="edge14" class="edge"><title>t20&#45;&gt;t23</title>
<path fill="none" stroke="#0044a0" d="M2042.77,-375.805C2073.79,-362.126 2118.5,-342.406 2158.19,-324.903"/>
<polygon fill="#0044a0" stroke="#0044a0" points="2159.62,-328.095 2167.36,-320.857 2156.8,-321.69 2159.62,-328.095"/>
</g>
<!-- t25 -->
<g id="node17" class="node"><title>t25</title>
<polygon fill="none" stroke="#0044a0" stroke-dasharray="5,2" points="1807.37,-302.734 1470.63,-302.734 1466.63,-298.734 1466.63,-266.734 1803.37,-266.734 1807.37,-270.734 1807.37,-302.734"/>
<polyline fill="none" stroke="#0044a0" stroke-dasharray="5,2" points="1803.37,-298.734 1466.63,-298.734 "/>
<polyline fill="none" stroke="#0044a0" stroke-dasharray="5,2" points="1803.37,-298.734 1803.37,-266.734 "/>
<polyline fill="none" stroke="#0044a0" stroke-dasharray="5,2" points="1803.37,-298.734 1807.37,-302.734 "/>
<text text-anchor="middle" x="1637" y="-278.734" font-family="Times,serif" font-size="20.00" fill="#0044a0">summariseRemainingReadsbyThreshold</text>
</g>
<!-- t20&#45;&gt;t25 -->
<g id="edge17" class="edge"><title>t20&#45;&gt;t25</title>
<path fill="none" stroke="#0044a0" d="M1945.44,-375.805C1880.05,-356.71 1774.36,-325.845 1705.27,-305.669"/>
<polygon fill="#0044a0" stroke="#0044a0" points="1705.93,-302.216 1695.35,-302.773 1703.97,-308.936 1705.93,-302.216"/>
</g>
<!-- t22 -->
<g id="node14" class="node"><title>t22</title>
<polygon fill="#ebf3ff" stroke="#0044a0" points="2194.57,-110 2071.43,-110 2067.43,-106 2067.43,-74 2190.57,-74 2194.57,-78 2194.57,-110"/>
<polyline fill="none" stroke="#0044a0" points="2190.57,-106 2067.43,-106 "/>
<polyline fill="none" stroke="#0044a0" points="2190.57,-106 2190.57,-74 "/>
<polyline fill="none" stroke="#0044a0" points="2190.57,-106 2194.57,-110 "/>
<text text-anchor="middle" x="2131" y="-86" font-family="Times,serif" font-size="20.00" fill="#0044a0">loadCoverage</text>
</g>
<!-- t21&#45;&gt;t22 -->
<g id="edge13" class="edge"><title>t21&#45;&gt;t22</title>
<path fill="none" stroke="#0044a0" d="M2033.11,-257.577C2053.39,-251.446 2075.36,-245.453 2096,-241.142 2137.17,-232.541 2256.04,-250.565 2284,-219.142 2296.87,-204.675 2295.88,-147.291 2284,-132 2278.7,-125.174 2241.47,-115.606 2205.07,-107.656"/>
<polygon fill="#0044a0" stroke="#0044a0" points="2205.37,-104.139 2194.85,-105.46 2203.9,-110.983 2205.37,-104.139"/>
</g>
<!-- t22&#45;&gt;t58 -->
<g id="edge74" class="edge"><title>t22&#45;&gt;t58</title>
<path fill="none" stroke="#0044a0" d="M2067.42,-79.3158C2054.42,-77.2617 2040.8,-75.352 2028,-74 1723.34,-41.8113 1352.96,-36.1889 1235.56,-35.2074"/>
<polygon fill="#0044a0" stroke="#0044a0" points="1235.34,-31.7057 1225.31,-35.1284 1235.29,-38.7055 1235.34,-31.7057"/>
</g>
<!-- t24 -->
<g id="node16" class="node"><title>t24</title>
<polygon fill="#ebf3ff" stroke="#0044a0" points="2381.12,-110 2232.88,-110 2228.88,-106 2228.88,-74 2377.12,-74 2381.12,-78 2381.12,-110"/>
<polyline fill="none" stroke="#0044a0" points="2377.12,-106 2228.88,-106 "/>
<polyline fill="none" stroke="#0044a0" points="2377.12,-106 2377.12,-74 "/>
<polyline fill="none" stroke="#0044a0" points="2377.12,-106 2381.12,-110 "/>
<text text-anchor="middle" x="2305" y="-86" font-family="Times,serif" font-size="20.00" fill="#0044a0">loadCpGOverlap</text>
</g>
<!-- t23&#45;&gt;t24 -->
<g id="edge16" class="edge"><title>t23&#45;&gt;t24</title>
<path fill="none" stroke="#0044a0" d="M2282.22,-248.012C2288.96,-239.22 2295.12,-229.371 2299,-219.142 2311.24,-186.893 2310.7,-146.641 2308.47,-120.402"/>
<polygon fill="#0044a0" stroke="#0044a0" points="2311.95,-120.018 2307.48,-110.412 2304.98,-120.709 2311.95,-120.018"/>
</g>
<!-- t24&#45;&gt;t58 -->
<g id="edge73" class="edge"><title>t24&#45;&gt;t58</title>
<path fill="none" stroke="#0044a0" d="M2228.76,-77.1034C2220.43,-75.9017 2212.05,-74.8298 2204,-74 1827.36,-35.1628 1367.77,-34.1278 1235.33,-34.7279"/>
<polygon fill="#0044a0" stroke="#0044a0" points="1235.28,-31.228 1225.3,-34.7795 1235.32,-38.2279 1235.28,-31.228"/>
</g>
<!-- t26 -->
<g id="node18" class="node"><title>t26</title>
<polygon fill="#ebf3ff" stroke="#0044a0" points="1937.02,-163.35 2104,-136.023 2270.98,-163.35 2270.82,-207.566 1937.18,-207.566 1937.02,-163.35"/>
<polygon fill="none" stroke="#0044a0" points="1933.01,-159.948 2104,-131.965 2274.99,-159.948 2274.8,-211.571 1933.2,-211.571 1933.01,-159.948"/>
<text text-anchor="middle" x="2104" y="-169.571" font-family="Times,serif" font-size="20.00" fill="#0044a0">concatenateRemainingReads</text>
</g>
<!-- t25&#45;&gt;t26 -->
<g id="edge18" class="edge"><title>t25&#45;&gt;t26</title>
<path fill="none" stroke="#0044a0" d="M1706.98,-266.666C1740.26,-258.681 1780.63,-249.182 1817,-241.142 1864.41,-230.662 1876.59,-229.619 1924,-219.142 1931.61,-217.461 1939.39,-215.716 1947.24,-213.935"/>
<polygon fill="#0044a0" stroke="#0044a0" points="1948.25,-217.295 1957.22,-211.661 1946.69,-210.47 1948.25,-217.295"/>
</g>
<!-- t27 -->
<g id="node19" class="node"><title>t27</title>
<polygon fill="#ebf3ff" stroke="#0044a0" points="2018.58,-110 1835.42,-110 1831.42,-106 1831.42,-74 2014.58,-74 2018.58,-78 2018.58,-110"/>
<polyline fill="none" stroke="#0044a0" points="2014.58,-106 1831.42,-106 "/>
<polyline fill="none" stroke="#0044a0" points="2014.58,-106 2014.58,-74 "/>
<polyline fill="none" stroke="#0044a0" points="2014.58,-106 2018.58,-110 "/>
<text text-anchor="middle" x="1925" y="-86" font-family="Times,serif" font-size="20.00" fill="#0044a0">loadRemainingReads</text>
</g>
<!-- t26&#45;&gt;t27 -->
<g id="edge19" class="edge"><title>t26&#45;&gt;t27</title>
<path fill="none" stroke="#0044a0" d="M2035.05,-143.15C2013.81,-133.469 1990.93,-123.044 1971.57,-114.22"/>
<polygon fill="#0044a0" stroke="#0044a0" points="1972.92,-110.989 1962.37,-110.028 1970.01,-117.359 1972.92,-110.989"/>
</g>
<!-- t27&#45;&gt;t58 -->
<g id="edge72" class="edge"><title>t27&#45;&gt;t58</title>
<path fill="none" stroke="#0044a0" d="M1831.38,-76.6095C1823.82,-75.6515 1816.29,-74.7653 1809,-74 1592.23,-51.2359 1330.69,-39.917 1235.2,-36.3139"/>
<polygon fill="#0044a0" stroke="#0044a0" points="1235.29,-32.8151 1225.17,-35.941 1235.03,-39.8103 1235.29,-32.8151"/>
</g>
<!-- t14 -->
<g id="node20" class="node"><title>t14</title>
<polygon fill="#ebf3ff" stroke="#0044a0" points="1789.77,-946.045 1700.23,-946.045 1696.23,-942.045 1696.23,-910.045 1785.77,-910.045 1789.77,-914.045 1789.77,-946.045"/>
<polyline fill="none" stroke="#0044a0" points="1785.77,-942.045 1696.23,-942.045 "/>
<polyline fill="none" stroke="#0044a0" points="1785.77,-942.045 1785.77,-910.045 "/>
<polyline fill="none" stroke="#0044a0" points="1785.77,-942.045 1789.77,-946.045 "/>
<text text-anchor="middle" x="1743" y="-922.045" font-family="Times,serif" font-size="20.00" fill="#0044a0">findCpGs</text>
</g>
<!-- t14&#45;&gt;t15 -->
<g id="edge23" class="edge"><title>t14&#45;&gt;t15</title>
<path fill="none" stroke="#0044a0" d="M1762,-909.805C1772.03,-900.701 1784.82,-889.09 1797.31,-877.763"/>
<polygon fill="#0044a0" stroke="#0044a0" points="1799.96,-880.083 1805.01,-870.771 1795.25,-874.9 1799.96,-880.083"/>
</g>
<!-- t14&#45;&gt;t58 -->
<g id="edge77" class="edge"><title>t14&#45;&gt;t58</title>
<path fill="none" stroke="#0044a0" d="M1737.95,-909.718C1731.14,-883.286 1721.33,-831.653 1735,-790.73 1782.09,-649.757 1888.91,-664.429 1936,-523.455 1945.01,-496.489 1955.8,-479.884 1936,-459.485 1878.47,-400.226 1251.5,-495.789 1193,-437.485 1169.1,-413.666 1188,-319.474 1188,-285.734 1188,-285.734 1188,-285.734 1188,-174.571 1188,-135.538 1191.94,-90.5228 1194.87,-62.4096"/>
<polygon fill="#0044a0" stroke="#0044a0" points="1198.39,-62.4784 1195.98,-52.1612 1191.43,-61.7289 1198.39,-62.4784"/>
</g>
<!-- t13 -->
<g id="node54" class="node"><title>t13</title>
<polygon fill="none" stroke="#0044a0" stroke-dasharray="5,2" points="1745.21,-110 1630.79,-110 1626.79,-106 1626.79,-74 1741.21,-74 1745.21,-78 1745.21,-110"/>
<polyline fill="none" stroke="#0044a0" stroke-dasharray="5,2" points="1741.21,-106 1626.79,-106 "/>
<polyline fill="none" stroke="#0044a0" stroke-dasharray="5,2" points="1741.21,-106 1741.21,-74 "/>
<polyline fill="none" stroke="#0044a0" stroke-dasharray="5,2" points="1741.21,-106 1745.21,-110 "/>
<text text-anchor="middle" x="1686" y="-86" font-family="Times,serif" font-size="20.00" fill="#0044a0">bed2BigWig</text>
</g>
<!-- t11&#45;&gt;t13 -->
<g id="edge56" class="edge"><title>t11&#45;&gt;t13</title>
<path fill="none" stroke="#0044a0" d="M1812.18,-157.398C1797.55,-149.565 1779.94,-140.224 1764,-132 1752.96,-126.305 1740.99,-120.256 1729.81,-114.663"/>
<polygon fill="#0044a0" stroke="#0044a0" points="1731.16,-111.425 1720.65,-110.091 1728.04,-117.688 1731.16,-111.425"/>
</g>
<!-- t11&#45;&gt;t58 -->
<g id="edge79" class="edge"><title>t11&#45;&gt;t58</title>
<path fill="none" stroke="#0044a0" d="M1834.46,-157.36C1820.34,-133.8 1791.46,-92.3442 1754,-74 1707.65,-51.3001 1352.42,-39.3495 1235.31,-35.997"/>
<polygon fill="#0044a0" stroke="#0044a0" points="1235.15,-32.4912 1225.06,-35.7081 1234.95,-39.4884 1235.15,-32.4912"/>
</g>
<!-- t72 -->
<g id="node22" class="node"><title>t72</title>
<polygon fill="#ebf3ff" stroke="#0044a0" points="259.09,-1036.84 20.9097,-1036.84 16.9097,-1032.84 16.9097,-980.845 255.09,-980.845 259.09,-984.845 259.09,-1036.84"/>
<polyline fill="none" stroke="#0044a0" points="255.09,-1032.84 16.9097,-1032.84 "/>
<polyline fill="none" stroke="#0044a0" points="255.09,-1032.84 255.09,-980.845 "/>
<polyline fill="none" stroke="#0044a0" points="255.09,-1032.84 259.09,-1036.84 "/>
<text text-anchor="middle" x="138" y="-1014.84" font-family="Times,serif" font-size="20.00" fill="#0044a0">mkdir(&#39;coverage.dir&#39;) </text>
<text text-anchor="middle" x="138" y="-990.845" font-family="Times,serif" font-size="20.00" fill="#0044a0">before makeCpgIslandsBed </text>
</g>
<!-- t9 -->
<g id="node23" class="node"><title>t9</title>
<polygon fill="#ebf3ff" stroke="#0044a0" points="228.519,-946.045 51.4814,-946.045 47.4814,-942.045 47.4814,-910.045 224.519,-910.045 228.519,-914.045 228.519,-946.045"/>
<polyline fill="none" stroke="#0044a0" points="224.519,-942.045 47.4814,-942.045 "/>
<polyline fill="none" stroke="#0044a0" points="224.519,-942.045 224.519,-910.045 "/>
<polyline fill="none" stroke="#0044a0" points="224.519,-942.045 228.519,-946.045 "/>
<text text-anchor="middle" x="138" y="-922.045" font-family="Times,serif" font-size="20.00" fill="#0044a0">makeCpgIslandsBed</text>
</g>
<!-- t72&#45;&gt;t9 -->
<g id="edge21" class="edge"><title>t72&#45;&gt;t9</title>
<path fill="none" stroke="#0044a0" d="M138,-980.726C138,-972.891 138,-964.335 138,-956.481"/>
<polygon fill="#0044a0" stroke="#0044a0" points="141.5,-956.338 138,-946.338 134.5,-956.338 141.5,-956.338"/>
</g>
<!-- t10 -->
<g id="node24" class="node"><title>t10</title>
<polygon fill="#ebf3ff" stroke="#0044a0" points="240.336,-852.388 39.6639,-852.388 35.6639,-848.388 35.6639,-816.388 236.336,-816.388 240.336,-820.388 240.336,-852.388"/>
<polyline fill="none" stroke="#0044a0" points="236.336,-848.388 35.6639,-848.388 "/>
<polyline fill="none" stroke="#0044a0" points="236.336,-848.388 236.336,-816.388 "/>
<polyline fill="none" stroke="#0044a0" points="236.336,-848.388 240.336,-852.388 "/>
<text text-anchor="middle" x="138" y="-828.388" font-family="Times,serif" font-size="20.00" fill="#0044a0">make1basedCpgIslands</text>
</g>
<!-- t9&#45;&gt;t10 -->
<g id="edge22" class="edge"><title>t9&#45;&gt;t10</title>
<path fill="none" stroke="#0044a0" d="M138,-909.805C138,-896.618 138,-878.175 138,-862.948"/>
<polygon fill="#0044a0" stroke="#0044a0" points="141.5,-862.55 138,-852.55 134.5,-862.55 141.5,-862.55"/>
</g>
<!-- t9&#45;&gt;t58 -->
<g id="edge81" class="edge"><title>t9&#45;&gt;t58</title>
<path fill="none" stroke="#0044a0" d="M68.8755,-909.953C52.709,-902.713 37.2385,-892.476 27,-878.045 -5.58555,-832.114 17,-808.046 17,-751.73 17,-751.73 17,-751.73 17,-174.571 17,-162.273 52.6752,-75.6376 55,-74 101.2,-41.4556 969.437,-35.9508 1160.87,-35.1313"/>
<polygon fill="#0044a0" stroke="#0044a0" points="1161,-38.6309 1170.99,-35.0897 1160.97,-31.631 1161,-38.6309"/>
</g>
<!-- t16 -->
<g id="node26" class="node"><title>t16</title>
<polygon fill="#ebf3ff" stroke="#0044a0" points="1333.59,-768.73 1240.41,-768.73 1236.41,-764.73 1236.41,-732.73 1329.59,-732.73 1333.59,-736.73 1333.59,-768.73"/>
<polyline fill="none" stroke="#0044a0" points="1329.59,-764.73 1236.41,-764.73 "/>
<polyline fill="none" stroke="#0044a0" points="1329.59,-764.73 1329.59,-732.73 "/>
<polyline fill="none" stroke="#0044a0" points="1329.59,-764.73 1333.59,-768.73 "/>
<text text-anchor="middle" x="1285" y="-744.73" font-family="Times,serif" font-size="20.00" fill="#0044a0">addCpGIs</text>
</g>
<!-- t10&#45;&gt;t16 -->
<g id="edge26" class="edge"><title>t10&#45;&gt;t16</title>
<path fill="none" stroke="#0044a0" d="M240.545,-826.087C474.59,-809.425 1042.09,-769.024 1226.24,-755.914"/>
<polygon fill="#0044a0" stroke="#0044a0" points="1226.54,-759.401 1236.27,-755.2 1226.05,-752.419 1226.54,-759.401"/>
</g>
<!-- t10&#45;&gt;t58 -->
<g id="edge80" class="edge"><title>t10&#45;&gt;t58</title>
<path fill="none" stroke="#0044a0" d="M116.085,-816.142C86.3796,-790.651 37,-739.839 37,-683.73 37,-683.73 37,-683.73 37,-174.571 37,-35.6291 195.101,-90.9875 333,-74 651.62,-34.75 1040.6,-33.845 1160.82,-34.6239"/>
<polygon fill="#0044a0" stroke="#0044a0" points="1160.94,-38.1247 1170.97,-34.698 1160.99,-31.1249 1160.94,-38.1247"/>
</g>
<!-- t15&#45;&gt;t16 -->
<g id="edge25" class="edge"><title>t15&#45;&gt;t16</title>
<path fill="none" stroke="#0044a0" d="M1744.38,-818.836C1627.94,-801.826 1439.06,-774.235 1343.85,-760.327"/>
<polygon fill="#0044a0" stroke="#0044a0" points="1344.22,-756.844 1333.82,-758.862 1343.21,-763.771 1344.22,-756.844"/>
</g>
<!-- t15&#45;&gt;t58 -->
<g id="edge76" class="edge"><title>t15&#45;&gt;t58</title>
<path fill="none" stroke="#0044a0" d="M1892.41,-804.213C1929.37,-777.862 1974,-735.354 1974,-683.73 1974,-683.73 1974,-683.73 1974,-588.093 1974,-530.546 2001.41,-498.385 1959,-459.485 1898.71,-404.181 1282.8,-493.317 1223,-437.485 1173.46,-391.234 1208,-353.507 1208,-285.734 1208,-285.734 1208,-285.734 1208,-174.571 1208,-135.538 1204.06,-90.5228 1201.13,-62.4096"/>
<polygon fill="#0044a0" stroke="#0044a0" points="1204.57,-61.7289 1200.02,-52.1612 1197.61,-62.4784 1204.57,-61.7289"/>
</g>
<!-- t29 -->
<g id="node27" class="node"><title>t29</title>
<polygon fill="#ebf3ff" stroke="#0044a0" points="798.517,-700.73 601.483,-700.73 597.483,-696.73 597.483,-664.73 794.517,-664.73 798.517,-668.73 798.517,-700.73"/>
<polyline fill="none" stroke="#0044a0" points="794.517,-696.73 597.483,-696.73 "/>
<polyline fill="none" stroke="#0044a0" points="794.517,-696.73 794.517,-664.73 "/>
<polyline fill="none" stroke="#0044a0" points="794.517,-696.73 798.517,-700.73 "/>
<text text-anchor="middle" x="698" y="-676.73" font-family="Times,serif" font-size="20.00" fill="#0044a0">subsetCpGsToCovered</text>
</g>
<!-- t16&#45;&gt;t29 -->
<g id="edge27" class="edge"><title>t16&#45;&gt;t29</title>
<path fill="none" stroke="#0044a0" d="M1236.32,-747.003C1154.57,-742.074 984.65,-730.335 842,-710.73 825.464,-708.458 807.944,-705.576 791.031,-702.547"/>
<polygon fill="#0044a0" stroke="#0044a0" points="791.62,-699.097 781.155,-700.75 790.366,-705.984 791.62,-699.097"/>
</g>
<!-- t17 -->
<g id="node49" class="node"><title>t17</title>
<polygon fill="#ebf3ff" stroke="#0044a0" points="1686.69,-700.73 1527.31,-700.73 1523.31,-696.73 1523.31,-664.73 1682.69,-664.73 1686.69,-668.73 1686.69,-700.73"/>
<polyline fill="none" stroke="#0044a0" points="1682.69,-696.73 1523.31,-696.73 "/>
<polyline fill="none" stroke="#0044a0" points="1682.69,-696.73 1682.69,-664.73 "/>
<polyline fill="none" stroke="#0044a0" points="1682.69,-696.73 1686.69,-700.73 "/>
<text text-anchor="middle" x="1605" y="-676.73" font-family="Times,serif" font-size="20.00" fill="#0044a0">calculateCoverage</text>
</g>
<!-- t16&#45;&gt;t17 -->
<g id="edge50" class="edge"><title>t16&#45;&gt;t17</title>
<path fill="none" stroke="#0044a0" d="M1333.6,-739.706C1381.12,-729.906 1454.66,-714.738 1513.21,-702.662"/>
<polygon fill="#0044a0" stroke="#0044a0" points="1514.13,-706.047 1523.21,-700.599 1512.71,-699.191 1514.13,-706.047"/>
</g>
<!-- t34 -->
<g id="node28" class="node"><title>t34</title>
<polygon fill="#ebf3ff" stroke="#0044a0" points="667.374,-509.47 490.626,-509.47 486.626,-505.47 486.626,-473.47 663.374,-473.47 667.374,-477.47 667.374,-509.47"/>
<polyline fill="none" stroke="#0044a0" points="663.374,-505.47 486.626,-505.47 "/>
<polyline fill="none" stroke="#0044a0" points="663.374,-505.47 663.374,-473.47 "/>
<polyline fill="none" stroke="#0044a0" points="663.374,-505.47 667.374,-509.47 "/>
<text text-anchor="middle" x="577" y="-485.47" font-family="Times,serif" font-size="20.00" fill="#0044a0">addTreatmentMeans</text>
</g>
<!-- t29&#45;&gt;t34 -->
<g id="edge28" class="edge"><title>t29&#45;&gt;t34</title>
<path fill="none" stroke="#0044a0" d="M687.049,-664.601C665.775,-631.326 618.752,-557.776 593.613,-518.455"/>
<polygon fill="#0044a0" stroke="#0044a0" points="596.349,-516.237 588.014,-509.697 590.452,-520.008 596.349,-516.237"/>
</g>
<!-- t44 -->
<g id="node33" class="node"><title>t44</title>
<polygon fill="#ebf3ff" stroke="#0044a0" points="1092.99,-607.093 885.013,-607.093 881.013,-603.093 881.013,-571.093 1088.99,-571.093 1092.99,-575.093 1092.99,-607.093"/>
<polyline fill="none" stroke="#0044a0" points="1088.99,-603.093 881.013,-603.093 "/>
<polyline fill="none" stroke="#0044a0" points="1088.99,-603.093 1088.99,-571.093 "/>
<polyline fill="none" stroke="#0044a0" points="1088.99,-603.093 1092.99,-607.093 "/>
<text text-anchor="middle" x="987" y="-583.093" font-family="Times,serif" font-size="20.00" fill="#0044a0">generateClusterSpikeIns</text>
</g>
<!-- t29&#45;&gt;t44 -->
<g id="edge33" class="edge"><title>t29&#45;&gt;t44</title>
<path fill="none" stroke="#0044a0" d="M751.681,-664.709C800.294,-649.294 871.968,-626.567 923.43,-610.25"/>
<polygon fill="#0044a0" stroke="#0044a0" points="924.642,-613.537 933.117,-607.178 922.526,-606.865 924.642,-613.537"/>
</g>
<!-- t50 -->
<g id="node41" class="node"><title>t50</title>
<polygon fill="#ebf3ff" stroke="#0044a0" points="410.292,-597.734 235,-617.056 59.7075,-597.734 59.8712,-566.47 410.0px9,-566.47 410.292,-597.734"/>
<polygon fill="none" stroke="#0044a0" points="414.315,-601.314 235,-621.079 55.6852,-601.314 55.8885,-562.471 414.111,-562.471 414.315,-601.314"/>
<text text-anchor="middle" x="235" y="-583.093" font-family="Times,serif" font-size="20.00" fill="#0044a0">splitClustersDataframe</text>
</g>
<!-- t29&#45;&gt;t50 -->
<g id="edge39" class="edge"><title>t29&#45;&gt;t50</title>
<path fill="none" stroke="#0044a0" d="M597.214,-664.933C545.094,-655.953 480.513,-644.369 423,-632.73 394.244,-626.911 363.136,-620.077 334.66,-613.606"/>
<polygon fill="#0044a0" stroke="#0044a0" points="335.234,-610.147 324.706,-611.335 333.676,-616.972 335.234,-610.147"/>
</g>
<!-- t40 -->
<g id="node29" class="node"><title>t40</title>
<polygon fill="#ebf3ff" stroke="#0044a0" points="567.596,-193.571 394.404,-193.571 390.404,-189.571 390.404,-157.571 563.596,-157.571 567.596,-161.571 567.596,-193.571"/>
<polyline fill="none" stroke="#0044a0" points="563.596,-189.571 390.404,-189.571 "/>
<polyline fill="none" stroke="#0044a0" points="563.596,-189.571 563.596,-157.571 "/>
<polyline fill="none" stroke="#0044a0" points="563.596,-189.571 567.596,-193.571 "/>
<text text-anchor="middle" x="479" y="-169.571" font-family="Times,serif" font-size="20.00" fill="#0044a0">makeSummaryPlots</text>
</g>
<!-- t34&#45;&gt;t40 -->
<g id="edge29" class="edge"><title>t34&#45;&gt;t40</title>
<path fill="none" stroke="#0044a0" d="M522.813,-473.438C508.266,-468.885 492.539,-463.981 478,-459.485 446.033,-449.599 425.905,-464.381 406,-437.485 396.8,-425.053 407.901,-247.925 411,-241.142 418.395,-224.954 431.873,-210.818 444.891,-199.932"/>
<polygon fill="#0044a0" stroke="#0044a0" points="447.226,-202.547 452.878,-193.585 442.872,-197.066 447.226,-202.547"/>
</g>
<!-- t37 -->
<g id="node48" class="node"><title>t37</title>
<polygon fill="#ebf3ff" stroke="#0044a0" points="578.742,-411.905 419.258,-411.905 415.258,-407.905 415.258,-375.905 574.742,-375.905 578.742,-379.905 578.742,-411.905"/>
<polyline fill="none" stroke="#0044a0" points="574.742,-407.905 415.258,-407.905 "/>
<polyline fill="none" stroke="#0044a0" points="574.742,-407.905 574.742,-375.905 "/>
<polyline fill="none" stroke="#0044a0" points="574.742,-407.905 578.742,-411.905 "/>
<text text-anchor="middle" x="497" y="-387.905" font-family="Times,serif" font-size="20.00" fill="#0044a0">loadCoveredCpGs</text>
</g>
<!-- t34&#45;&gt;t37 -->
<g id="edge49" class="edge"><title>t34&#45;&gt;t37</title>
<path fill="none" stroke="#0044a0" d="M562.698,-473.385C550.261,-458.529 532.077,-436.807 517.991,-419.98"/>
<polygon fill="#0044a0" stroke="#0044a0" points="520.551,-417.586 511.448,-412.165 515.184,-422.079 520.551,-417.586"/>
</g>
<!-- t38 -->
<g id="node51" class="node"><title>t38</title>
<polygon fill="#ebf3ff" stroke="#0044a0" points="704.74,-302.734 439.26,-302.734 435.26,-298.734 435.26,-266.734 700.74,-266.734 704.74,-270.734 704.74,-302.734"/>
<polyline fill="none" stroke="#0044a0" points="700.74,-298.734 435.26,-298.734 "/>
<polyline fill="none" stroke="#0044a0" points="700.74,-298.734 700.74,-266.734 "/>
<polyline fill="none" stroke="#0044a0" points="700.74,-298.734 704.74,-302.734 "/>
<text text-anchor="middle" x="570" y="-278.734" font-family="Times,serif" font-size="20.00" fill="#0044a0">calculateMethylationFrequency</text>
</g>
<!-- t34&#45;&gt;t38 -->
<g id="edge53" class="edge"><title>t34&#45;&gt;t38</title>
<path fill="none" stroke="#0044a0" d="M581.464,-473.428C583.935,-463.108 586.752,-449.634 588,-437.485 591.958,-398.95 593.248,-388.706 588,-350.326 586.273,-337.698 582.731,-324.057 579.243,-312.579"/>
<polygon fill="#0044a0" stroke="#0044a0" points="582.478,-311.204 576.107,-302.738 575.808,-313.329 582.478,-311.204"/>
</g>
<!-- t35 -->
<g id="node59" class="node"><title>t35</title>
<polygon fill="#ebf3ff" stroke="#0044a0" points="640.558,-381.677 777,-354.333 913.442,-381.677 913.314,-425.92 640.686,-425.92 640.558,-381.677"/>
<polygon fill="none" stroke="#0044a0" points="636.542,-378.395 777,-350.246 917.458,-378.395 917.309,-429.927 636.691,-429.927 636.542,-378.395"/>
<text text-anchor="middle" x="777" y="-387.905" font-family="Times,serif" font-size="20.00" fill="#0044a0">mergeCpGAnnotations</text>
</g>
<!-- t34&#45;&gt;t35 -->
<g id="edge57" class="edge"><title>t34&#45;&gt;t35</title>
<path fill="none" stroke="#0044a0" d="M612.756,-473.385C635.466,-462.533 665.843,-448.019 694.293,-434.425"/>
<polygon fill="#0044a0" stroke="#0044a0" points="695.936,-437.518 703.45,-430.049 692.918,-431.202 695.936,-437.518"/>
</g>
<!-- t41 -->
<g id="node61" class="node"><title>t41</title>
<polygon fill="#ebf3ff" stroke="#0044a0" points="825.145,-110 726.855,-110 722.855,-106 722.855,-74 821.145,-74 825.145,-78 825.145,-110"/>
<polyline fill="none" stroke="#0044a0" points="821.145,-106 722.855,-106 "/>
<polyline fill="none" stroke="#0044a0" points="821.145,-106 821.145,-74 "/>
<polyline fill="none" stroke="#0044a0" points="821.145,-106 825.145,-110 "/>
<text text-anchor="middle" x="774" y="-86" font-family="Times,serif" font-size="20.00" fill="#0044a0">summarise</text>
</g>
<!-- t40&#45;&gt;t41 -->
<g id="edge63" class="edge"><title>t40&#45;&gt;t41</title>
<path fill="none" stroke="#0044a0" d="M521.992,-157.545C544.169,-149.151 571.79,-139.292 597,-132 635.103,-120.979 678.599,-111.355 712.937,-104.425"/>
<polygon fill="#0044a0" stroke="#0044a0" points="713.702,-107.842 722.824,-102.453 712.332,-100.977 713.702,-107.842"/>
</g>
<!-- t40&#45;&gt;t58 -->
<g id="edge69" class="edge"><title>t40&#45;&gt;t58</title>
<path fill="none" stroke="#0044a0" d="M490.538,-157.284C507.433,-133.635 541.35,-92.0727 582,-74 634.746,-50.5498 1035.09,-38.9461 1160.53,-35.8597"/>
<polygon fill="#0044a0" stroke="#0044a0" points="1160.87,-39.3526 1170.79,-35.6115 1160.71,-32.3547 1160.87,-39.3526"/>
</g>
<!-- t69 -->
<g id="node30" class="node"><title>t69</title>
<polygon fill="#ebf3ff" stroke="#0044a0" points="2011.33,-956.045 1830.67,-956.045 1826.67,-952.045 1826.67,-900.045 2007.33,-900.045 2011.33,-904.045 2011.33,-956.045"/>
<polyline fill="none" stroke="#0044a0" points="2007.33,-952.045 1826.67,-952.045 "/>
<polyline fill="none" stroke="#0044a0" points="2007.33,-952.045 2007.33,-900.045 "/>
<polyline fill="none" stroke="#0044a0" points="2007.33,-952.045 2011.33,-956.045 "/>
<text text-anchor="middle" x="1919" y="-934.045" font-family="Times,serif" font-size="20.00" fill="#0044a0">mkdir(&#39;plots.dir&#39;) </text>
<text text-anchor="middle" x="1919" y="-910.045" font-family="Times,serif" font-size="20.00" fill="#0044a0">before plotReadBias </text>
</g>
<!-- t69&#45;&gt;t5 -->
<g id="edge30" class="edge"><title>t69&#45;&gt;t5</title>
<path fill="none" stroke="#0044a0" d="M1949.94,-900.04C1964.84,-887.03 1982.55,-871.57 1996.91,-859.031"/>
<polygon fill="#0044a0" stroke="#0044a0" points="1999.28,-861.612 2004.51,-852.399 1994.68,-856.339 1999.28,-861.612"/>
</g>
<!-- t5&#45;&gt;t58 -->
<g id="edge84" class="edge"><title>t5&#45;&gt;t58</title>
<path fill="none" stroke="#0044a0" d="M2018.22,-816.103C2009.5,-788.47 1994,-732.489 1994,-683.73 1994,-683.73 1994,-683.73 1994,-588.093 1994,-559.235 1997.49,-478.746 1976,-459.485 1914.91,-404.73 1297.04,-494.44 1238,-437.485 1213.68,-414.022 1228,-319.529 1228,-285.734 1228,-285.734 1228,-285.734 1228,-174.571 1228,-134.793 1216.21,-90.0329 1207.41,-62.1727"/>
<polygon fill="#0044a0" stroke="#0044a0" points="1210.64,-60.7919 1204.22,-52.3681 1203.99,-62.9604 1210.64,-60.7919"/>
</g>
<!-- t68 -->
<g id="node32" class="node"><title>t68</title>
<polygon fill="#ebf3ff" stroke="#0044a0" points="1123.06,-710.73 854.942,-710.73 850.942,-706.73 850.942,-654.73 1119.06,-654.73 1123.06,-658.73 1123.06,-710.73"/>
<polyline fill="none" stroke="#0044a0" points="1119.06,-706.73 850.942,-706.73 "/>
<polyline fill="none" stroke="#0044a0" points="1119.06,-706.73 1119.06,-654.73 "/>
<polyline fill="none" stroke="#0044a0" points="1119.06,-706.73 1123.06,-710.73 "/>
<text text-anchor="middle" x="987" y="-688.73" font-family="Times,serif" font-size="20.00" fill="#0044a0">mkdir(&#39;power.dir&#39;) </text>
<text text-anchor="middle" x="987" y="-664.73" font-family="Times,serif" font-size="20.00" fill="#0044a0">before generateClusterSpikeIns </text>
</g>
<!-- t68&#45;&gt;t44 -->
<g id="edge32" class="edge"><title>t68&#45;&gt;t44</title>
<path fill="none" stroke="#0044a0" d="M987,-654.236C987,-642.531 987,-628.915 987,-617.247"/>
<polygon fill="#0044a0" stroke="#0044a0" points="990.5,-617.19 987,-607.19 983.5,-617.19 990.5,-617.19"/>
</g>
<!-- t45 -->
<g id="node34" class="node"><title>t45</title>
<polygon fill="#ebf3ff" stroke="#0044a0" points="1910.93,-500.109 1696,-519.426 1481.07,-500.109 1481.27,-468.853 1910.73,-468.853 1910.93,-500.109"/>
<polygon fill="none" stroke="#0044a0" points="1914.96,-503.762 1696,-523.44 1477.04,-503.762 1477.29,-464.855 1914.71,-464.855 1914.96,-503.762"/>
<text text-anchor="middle" x="1696" y="-485.47" font-family="Times,serif" font-size="20.00" fill="#0044a0">splitSpikeClustersDataframe</text>
</g>
<!-- t44&#45;&gt;t45 -->
<g id="edge34" class="edge"><title>t44&#45;&gt;t45</title>
<path fill="none" stroke="#0044a0" d="M1093.04,-573.889C1190.51,-560.823 1338.99,-540.889 1468,-523.455 1494.06,-519.933 1521.8,-516.173 1548.63,-512.53"/>
<polygon fill="#0044a0" stroke="#0044a0" points="1549.42,-515.955 1558.86,-511.141 1548.48,-509.019 1549.42,-515.955"/>
</g>
<!-- t46 -->
<g id="node35" class="node"><title>t46</title>
<polygon fill="none" stroke="#0044a0" stroke-dasharray="5,2" points="1142.97,-411.905 951.026,-411.905 947.026,-407.905 947.026,-375.905 1138.97,-375.905 1142.97,-379.905 1142.97,-411.905"/>
<polyline fill="none" stroke="#0044a0" stroke-dasharray="5,2" points="1138.97,-407.905 947.026,-407.905 "/>
<polyline fill="none" stroke="#0044a0" stroke-dasharray="5,2" points="1138.97,-407.905 1138.97,-375.905 "/>
<polyline fill="none" stroke="#0044a0" stroke-dasharray="5,2" points="1138.97,-407.905 1142.97,-411.905 "/>
<text text-anchor="middle" x="1045" y="-387.905" font-family="Times,serif" font-size="20.00" fill="#0044a0">runM3DSpikeClusters</text>
</g>
<!-- t45&#45;&gt;t46 -->
<g id="edge35" class="edge"><title>t45&#45;&gt;t46</title>
<path fill="none" stroke="#0044a0" d="M1515.05,-464.819C1499.15,-462.887 1483.3,-461.074 1468,-459.485 1332.82,-445.438 1295.95,-465.704 1163,-437.485 1139.44,-432.485 1114.22,-423.861 1093.17,-415.677"/>
<polygon fill="#0044a0" stroke="#0044a0" points="1094.4,-412.398 1083.81,-411.962 1091.82,-418.904 1094.4,-412.398"/>
</g>
<!-- t47 -->
<g id="node36" class="node"><title>t47</title>
<polygon fill="#ebf3ff" stroke="#0044a0" points="746.912,-272.517 946,-245.2 1145.09,-272.517 1144.9,-316.717 747.097,-316.717 746.912,-272.517"/>
<polygon fill="none" stroke="#0044a0" points="742.901,-269.027 946,-241.159 1149.1,-269.027 1148.88,-320.721 743.118,-320.721 742.901,-269.027"/>
<text text-anchor="middle" x="946" y="-278.734" font-family="Times,serif" font-size="20.00" fill="#0044a0">calculateM3DSpikeClustersPvalue</text>
</g>
<!-- t46&#45;&gt;t47 -->
<g id="edge36" class="edge"><title>t46&#45;&gt;t47</title>
<path fill="none" stroke="#0044a0" d="M1029.09,-375.686C1017.34,-362.961 1000.8,-345.055 985.567,-328.566"/>
<polygon fill="#0044a0" stroke="#0044a0" points="988.039,-326.084 978.682,-321.113 982.897,-330.834 988.039,-326.084"/>
</g>
<!-- t56 -->
<g id="node37" class="node"><title>t56</title>
<polygon fill="#ebf3ff" stroke="#0044a0" points="1118.97,-110 1057.03,-110 1053.03,-106 1053.03,-74 1114.97,-74 1118.97,-78 1118.97,-110"/>
<polyline fill="none" stroke="#0044a0" points="1114.97,-106 1053.03,-106 "/>
<polyline fill="none" stroke="#0044a0" points="1114.97,-106 1114.97,-74 "/>
<polyline fill="none" stroke="#0044a0" points="1114.97,-106 1118.97,-110 "/>
<text text-anchor="middle" x="1086" y="-86" font-family="Times,serif" font-size="20.00" fill="#0044a0">power</text>
</g>
<!-- t47&#45;&gt;t56 -->
<g id="edge37" class="edge"><title>t47&#45;&gt;t56</title>
<path fill="none" stroke="#0044a0" d="M1011.48,-250.137C1023.93,-241.399 1035.89,-231.036 1045,-219.142 1067.49,-189.766 1077.9,-147.575 1082.54,-120.227"/>
<polygon fill="#0044a0" stroke="#0044a0" points="1086.02,-120.603 1084.09,-110.185 1079.1,-119.532 1086.02,-120.603"/>
</g>
<!-- t56&#45;&gt;t58 -->
<g id="edge67" class="edge"><title>t56&#45;&gt;t58</title>
<path fill="none" stroke="#0044a0" d="M1119,-74.501C1132.42,-67.7903 1147.97,-60.0129 1161.71,-53.1429"/>
<polygon fill="#0044a0" stroke="#0044a0" points="1163.51,-56.1587 1170.89,-48.556 1160.38,-49.8977 1163.51,-56.1587"/>
</g>
<!-- t76 -->
<g id="node38" class="node"><title>t76</title>
<polygon fill="#ebf3ff" stroke="#0044a0" points="469.33,-519.47 162.67,-519.47 158.67,-515.47 158.67,-463.47 465.33,-463.47 469.33,-467.47 469.33,-519.47"/>
<polyline fill="none" stroke="#0044a0" points="465.33,-515.47 158.67,-515.47 "/>
<polyline fill="none" stroke="#0044a0" points="465.33,-515.47 465.33,-463.47 "/>
<polyline fill="none" stroke="#0044a0" points="465.33,-515.47 469.33,-519.47 "/>
<text text-anchor="middle" x="314" y="-497.47" font-family="Times,serif" font-size="20.00" fill="#0044a0">mkdir(&#39;M3D_plots.dir&#39;) </text>
<text text-anchor="middle" x="314" y="-473.47" font-family="Times,serif" font-size="20.00" fill="#0044a0">before calculateM3DClustersPvalue </text>
</g>
<!-- t52 -->
<g id="node43" class="node"><title>t52</title>
<polygon fill="none" stroke="#0044a0" stroke-dasharray="5,2" points="341.758,-411.905 96.2419,-411.905 92.2419,-407.905 92.2419,-375.905 337.758,-375.905 341.758,-379.905 341.758,-411.905"/>
<polyline fill="none" stroke="#0044a0" stroke-dasharray="5,2" points="337.758,-407.905 92.2419,-407.905 "/>
<polyline fill="none" stroke="#0044a0" stroke-dasharray="5,2" points="337.758,-407.905 337.758,-375.905 "/>
<polyline fill="none" stroke="#0044a0" stroke-dasharray="5,2" points="337.758,-407.905 341.758,-411.905 "/>
<text text-anchor="middle" x="217" y="-387.905" font-family="Times,serif" font-size="20.00" fill="#0044a0">calculateM3DClustersPvalue</text>
</g>
<!-- t76&#45;&gt;t52 -->
<g id="edge42" class="edge"><title>t76&#45;&gt;t52</title>
<path fill="none" stroke="#0044a0" d="M286.463,-463.341C272.38,-449.466 255.377,-432.714 241.718,-419.257"/>
<polygon fill="#0044a0" stroke="#0044a0" points="244.093,-416.684 234.513,-412.159 239.181,-421.671 244.093,-416.684"/>
</g>
<!-- t77 -->
<g id="node39" class="node"><title>t77</title>
<polygon fill="#ebf3ff" stroke="#0044a0" points="577.946,-617.093 436.054,-617.093 432.054,-613.093 432.054,-561.093 573.946,-561.093 577.946,-565.093 577.946,-617.093"/>
<polyline fill="none" stroke="#0044a0" points="573.946,-613.093 432.054,-613.093 "/>
<polyline fill="none" stroke="#0044a0" points="573.946,-613.093 573.946,-561.093 "/>
<polyline fill="none" stroke="#0044a0" points="573.946,-613.093 577.946,-617.093 "/>
<text text-anchor="middle" x="505" y="-595.093" font-family="Times,serif" font-size="20.00" fill="#0044a0">mkdir(&#39;M3D&#39;) </text>
<text text-anchor="middle" x="505" y="-571.093" font-family="Times,serif" font-size="20.00" fill="#0044a0">before runM3D </text>
</g>
<!-- t51 -->
<g id="node42" class="node"><title>t51</title>
<polygon fill="none" stroke="#0044a0" stroke-dasharray="5,2" points="140.374,-509.47 59.6259,-509.47 55.6259,-505.47 55.6259,-473.47 136.374,-473.47 140.374,-477.47 140.374,-509.47"/>
<polyline fill="none" stroke="#0044a0" stroke-dasharray="5,2" points="136.374,-505.47 55.6259,-505.47 "/>
<polyline fill="none" stroke="#0044a0" stroke-dasharray="5,2" points="136.374,-505.47 136.374,-473.47 "/>
<polyline fill="none" stroke="#0044a0" stroke-dasharray="5,2" points="136.374,-505.47 140.374,-509.47 "/>
<text text-anchor="middle" x="98" y="-485.47" font-family="Times,serif" font-size="20.00" fill="#0044a0">runM3D</text>
</g>
<!-- t77&#45;&gt;t51 -->
<g id="edge40" class="edge"><title>t77&#45;&gt;t51</title>
<path fill="none" stroke="#0044a0" d="M460.805,-561.036C448.919,-554.911 435.799,-549.135 423,-545.455 306.012,-511.821 265.965,-560.461 150,-523.455 143.341,-521.33 136.631,-518.218 130.348,-514.774"/>
<polygon fill="#0044a0" stroke="#0044a0" points="131.895,-511.624 121.501,-509.569 128.345,-517.657 131.895,-511.624"/>
</g>
<!-- t74 -->
<g id="node40" class="node"><title>t74</title>
<polygon fill="#ebf3ff" stroke="#0044a0" points="365.952,-710.73 108.048,-710.73 104.048,-706.73 104.048,-654.73 361.952,-654.73 365.952,-658.73 365.952,-710.73"/>
<polyline fill="none" stroke="#0044a0" points="361.952,-706.73 104.048,-706.73 "/>
<polyline fill="none" stroke="#0044a0" points="361.952,-706.73 361.952,-654.73 "/>
<polyline fill="none" stroke="#0044a0" points="361.952,-706.73 365.952,-710.73 "/>
<text text-anchor="middle" x="235" y="-688.73" font-family="Times,serif" font-size="20.00" fill="#0044a0">mkdir(&#39;subframes.dir&#39;) </text>
<text text-anchor="middle" x="235" y="-664.73" font-family="Times,serif" font-size="20.00" fill="#0044a0">before splitClustersDataframe </text>
</g>
<!-- t74&#45;&gt;t50 -->
<g id="edge38" class="edge"><title>t74&#45;&gt;t50</title>
<path fill="none" stroke="#0044a0" d="M235,-654.236C235,-646.978 235,-638.986 235,-631.178"/>
<polygon fill="#0044a0" stroke="#0044a0" points="238.5,-631.099 235,-621.099 231.5,-631.099 238.5,-631.099"/>
</g>
<!-- t50&#45;&gt;t51 -->
<g id="edge41" class="edge"><title>t50&#45;&gt;t51</title>
<path fill="none" stroke="#0044a0" d="M198.287,-562.468C177.342,-547.849 151.303,-529.675 131.008,-515.509"/>
<polygon fill="#0044a0" stroke="#0044a0" points="132.897,-512.559 122.693,-509.705 128.89,-518.299 132.897,-512.559"/>
</g>
<!-- t51&#45;&gt;t52 -->
<g id="edge43" class="edge"><title>t51&#45;&gt;t52</title>
<path fill="none" stroke="#0044a0" d="M119.275,-473.385C138.279,-458.124 166.305,-435.617 187.476,-418.615"/>
<polygon fill="#0044a0" stroke="#0044a0" points="189.903,-421.155 195.508,-412.165 185.52,-415.697 189.903,-421.155"/>
</g>
<!-- t53 -->
<g id="node44" class="node"><title>t53</title>
<polygon fill="none" stroke="#0044a0" stroke-dasharray="5,2" points="377.198,-302.734 222.802,-302.734 218.802,-298.734 218.802,-266.734 373.198,-266.734 377.198,-270.734 377.198,-302.734"/>
<polyline fill="none" stroke="#0044a0" stroke-dasharray="5,2" points="373.198,-298.734 218.802,-298.734 "/>
<polyline fill="none" stroke="#0044a0" stroke-dasharray="5,2" points="373.198,-298.734 373.198,-266.734 "/>
<polyline fill="none" stroke="#0044a0" stroke-dasharray="5,2" points="373.198,-298.734 377.198,-302.734 "/>
<text text-anchor="middle" x="298" y="-278.734" font-family="Times,serif" font-size="20.00" fill="#0044a0">loadM3DClusters</text>
</g>
<!-- t52&#45;&gt;t53 -->
<g id="edge44" class="edge"><title>t52&#45;&gt;t53</title>
<path fill="none" stroke="#0044a0" d="M230.014,-375.686C243.24,-358.187 263.871,-330.89 278.939,-310.954"/>
<polygon fill="#0044a0" stroke="#0044a0" points="281.781,-312.998 285.018,-302.91 276.196,-308.777 281.781,-312.998"/>
</g>
<!-- t54 -->
<g id="node45" class="node"><title>t54</title>
<polygon fill="none" stroke="#0044a0" stroke-dasharray="5,2" points="200.36,-302.734 59.6399,-302.734 55.6399,-298.734 55.6399,-266.734 196.36,-266.734 200.36,-270.734 200.36,-302.734"/>
<polyline fill="none" stroke="#0044a0" stroke-dasharray="5,2" points="196.36,-298.734 55.6399,-298.734 "/>
<polyline fill="none" stroke="#0044a0" stroke-dasharray="5,2" points="196.36,-298.734 196.36,-266.734 "/>
<polyline fill="none" stroke="#0044a0" stroke-dasharray="5,2" points="196.36,-298.734 200.36,-302.734 "/>
<text text-anchor="middle" x="128" y="-278.734" font-family="Times,serif" font-size="20.00" fill="#0044a0">summariseM3D</text>
</g>
<!-- t52&#45;&gt;t54 -->
<g id="edge45" class="edge"><title>t52&#45;&gt;t54</title>
<path fill="none" stroke="#0044a0" d="M202.701,-375.686C188.103,-358.109 165.297,-330.646 148.722,-310.687"/>
<polygon fill="#0044a0" stroke="#0044a0" points="151.345,-308.367 142.264,-302.91 145.96,-312.839 151.345,-308.367"/>
</g>
<!-- t57 -->
<g id="node47" class="node"><title>t57</title>
<polygon fill="#ebf3ff" stroke="#0044a0" points="400.216,-110 345.784,-110 341.784,-106 341.784,-74 396.216,-74 400.216,-78 400.216,-110"/>
<polyline fill="none" stroke="#0044a0" points="396.216,-106 341.784,-106 "/>
<polyline fill="none" stroke="#0044a0" points="396.216,-106 396.216,-74 "/>
<polyline fill="none" stroke="#0044a0" points="396.216,-106 400.216,-110 "/>
<text text-anchor="middle" x="371" y="-86" font-family="Times,serif" font-size="20.00" fill="#0044a0">M3D</text>
</g>
<!-- t53&#45;&gt;t57 -->
<g id="edge48" class="edge"><title>t53&#45;&gt;t57</title>
<path fill="none" stroke="#0044a0" d="M321.377,-266.73C335.471,-255.057 352.326,-238.256 361,-219.142 375.362,-187.493 375.792,-146.788 374.025,-120.306"/>
<polygon fill="#0044a0" stroke="#0044a0" points="377.504,-119.912 373.2,-110.231 370.528,-120.483 377.504,-119.912"/>
</g>
<!-- t55 -->
<g id="node46" class="node"><title>t55</title>
<polygon fill="#ebf3ff" stroke="#0044a0" points="59.5356,-163.345 204,-136.007 348.464,-163.345 348.33,-207.579 59.6704,-207.579 59.5356,-163.345"/>
<polygon fill="none" stroke="#0044a0" points="55.5258,-160.026 204,-131.929 352.474,-160.026 352.317,-211.585 55.683,-211.585 55.5258,-160.026"/>
<text text-anchor="middle" x="204" y="-169.571" font-family="Times,serif" font-size="20.00" fill="#0044a0">combineM3Dsummaries</text>
</g>
<!-- t54&#45;&gt;t55 -->
<g id="edge46" class="edge"><title>t54&#45;&gt;t55</title>
<path fill="none" stroke="#0044a0" d="M140.211,-266.516C149.072,-254.021 161.476,-236.531 172.993,-220.292"/>
<polygon fill="#0044a0" stroke="#0044a0" points="175.981,-222.129 178.911,-211.948 170.271,-218.08 175.981,-222.129"/>
</g>
<!-- t55&#45;&gt;t57 -->
<g id="edge47" class="edge"><title>t55&#45;&gt;t57</title>
<path fill="none" stroke="#0044a0" d="M267.136,-143.732C289.202,-132.954 313.29,-121.188 332.708,-111.704"/>
<polygon fill="#0044a0" stroke="#0044a0" points="334.387,-114.779 341.836,-107.245 331.315,-108.489 334.387,-114.779"/>
</g>
<!-- t57&#45;&gt;t58 -->
<g id="edge66" class="edge"><title>t57&#45;&gt;t58</title>
<path fill="none" stroke="#0044a0" d="M400.235,-87.1143C429.864,-83.2952 477.047,-77.5394 518,-74 762.635,-52.857 1057.81,-40.3539 1160.57,-36.3854"/>
<polygon fill="#0044a0" stroke="#0044a0" points="1160.89,-39.8759 1170.75,-35.9961 1160.63,-32.881 1160.89,-39.8759"/>
</g>
<!-- t37&#45;&gt;t38 -->
<g id="edge52" class="edge"><title>t37&#45;&gt;t38</title>
<path fill="none" stroke="#0044a0" d="M508.729,-375.686C520.595,-358.265 539.076,-331.134 552.639,-311.221"/>
<polygon fill="#0044a0" stroke="#0044a0" points="555.563,-313.145 558.3,-302.91 549.778,-309.204 555.563,-313.145"/>
</g>
<!-- t37&#45;&gt;t58 -->
<g id="edge71" class="edge"><title>t37&#45;&gt;t58</title>
<path fill="none" stroke="#0044a0" d="M468.699,-375.77C452.933,-364.48 434.761,-348.137 426,-328.326 418.164,-310.607 413.326,-255.796 426,-241.142 470.364,-189.845 527.144,-265.118 577,-219.142 606.212,-192.203 572.384,-163.193 597,-132 632.954,-86.4392 658.069,-89.4983 714,-74 798.066,-50.7057 1062.53,-39.5862 1160.78,-36.1807"/>
<polygon fill="#0044a0" stroke="#0044a0" points="1160.96,-39.6766 1170.84,-35.839 1160.72,-32.6806 1160.96,-39.6766"/>
</g>
<!-- t18 -->
<g id="node50" class="node"><title>t18</title>
<polygon fill="#ebf3ff" stroke="#0044a0" points="1785.75,-607.093 1666.25,-607.093 1662.25,-603.093 1662.25,-571.093 1781.75,-571.093 1785.75,-575.093 1785.75,-607.093"/>
<polyline fill="none" stroke="#0044a0" points="1781.75,-603.093 1662.25,-603.093 "/>
<polyline fill="none" stroke="#0044a0" points="1781.75,-603.093 1781.75,-571.093 "/>
<polyline fill="none" stroke="#0044a0" points="1781.75,-603.093 1785.75,-607.093 "/>
<text text-anchor="middle" x="1724" y="-583.093" font-family="Times,serif" font-size="20.00" fill="#0044a0">plotCoverage</text>
</g>
<!-- t17&#45;&gt;t18 -->
<g id="edge51" class="edge"><title>t17&#45;&gt;t18</title>
<path fill="none" stroke="#0044a0" d="M1627.1,-664.709C1645.77,-650.333 1672.7,-629.598 1693.43,-613.632"/>
<polygon fill="#0044a0" stroke="#0044a0" points="1695.82,-616.208 1701.61,-607.334 1691.55,-610.662 1695.82,-616.208"/>
</g>
<!-- t18&#45;&gt;t58 -->
<g id="edge75" class="edge"><title>t18&#45;&gt;t58</title>
<path fill="none" stroke="#0044a0" d="M1786.16,-586.355C1832.42,-581.395 1892.76,-566.384 1924,-523.455 1940.73,-500.467 1943.8,-479.885 1924,-459.485 1866.63,-400.383 1243.21,-493.69 1183,-437.485 1133.46,-391.239 1168,-353.507 1168,-285.734 1168,-285.734 1168,-285.734 1168,-174.571 1168,-129.378 1171.49,-117.701 1183,-74 1184.05,-70.0102 1185.38,-65.8683 1186.8,-61.8387"/>
<polygon fill="#0044a0" stroke="#0044a0" points="1190.18,-62.7956 1190.45,-52.2042 1183.63,-60.3168 1190.18,-62.7956"/>
</g>
<!-- t39 -->
<g id="node52" class="node"><title>t39</title>
<polygon fill="#ebf3ff" stroke="#0044a0" points="835.792,-193.571 610.208,-193.571 606.208,-189.571 606.208,-157.571 831.792,-157.571 835.792,-161.571 835.792,-193.571"/>
<polyline fill="none" stroke="#0044a0" points="831.792,-189.571 606.208,-189.571 "/>
<polyline fill="none" stroke="#0044a0" points="831.792,-189.571 831.792,-157.571 "/>
<polyline fill="none" stroke="#0044a0" points="831.792,-189.571 835.792,-193.571 "/>
<text text-anchor="middle" x="721" y="-169.571" font-family="Times,serif" font-size="20.00" fill="#0044a0">plotMethylationFrequency</text>
</g>
<!-- t38&#45;&gt;t39 -->
<g id="edge54" class="edge"><title>t38&#45;&gt;t39</title>
<path fill="none" stroke="#0044a0" d="M594.261,-266.516C619.797,-248.393 660.141,-219.761 688.435,-199.682"/>
<polygon fill="#0044a0" stroke="#0044a0" points="690.67,-202.387 696.799,-193.746 686.619,-196.679 690.67,-202.387"/>
</g>
<!-- t39&#45;&gt;t41 -->
<g id="edge64" class="edge"><title>t39&#45;&gt;t41</title>
<path fill="none" stroke="#0044a0" d="M732.24,-157.272C739.478,-146.133 749.019,-131.448 757.154,-118.927"/>
<polygon fill="#0044a0" stroke="#0044a0" points="760.263,-120.567 762.776,-110.274 754.393,-116.753 760.263,-120.567"/>
</g>
<!-- t39&#45;&gt;t58 -->
<g id="edge70" class="edge"><title>t39&#45;&gt;t58</title>
<path fill="none" stroke="#0044a0" d="M768.817,-157.566C791.774,-149.554 819.724,-140.017 845,-132 932.813,-104.147 955.111,-98.2008 1044,-74 1083.81,-63.1619 1129.68,-51.6735 1160.93,-43.9954"/>
<polygon fill="#0044a0" stroke="#0044a0" points="1162.06,-47.3225 1170.94,-41.5441 1160.39,-40.5235 1162.06,-47.3225"/>
</g>
<!-- t12 -->
<g id="node53" class="node"><title>t12</title>
<polygon fill="#ebf3ff" stroke="#0044a0" points="1755.2,-193.571 1620.8,-193.571 1616.8,-189.571 1616.8,-157.571 1751.2,-157.571 1755.2,-161.571 1755.2,-193.571"/>
<polyline fill="none" stroke="#0044a0" points="1751.2,-189.571 1616.8,-189.571 "/>
<polyline fill="none" stroke="#0044a0" points="1751.2,-189.571 1751.2,-157.571 "/>
<polyline fill="none" stroke="#0044a0" points="1751.2,-189.571 1755.2,-193.571 "/>
<text text-anchor="middle" x="1686" y="-169.571" font-family="Times,serif" font-size="20.00" fill="#0044a0">getChromSizes</text>
</g>
<!-- t12&#45;&gt;t13 -->
<g id="edge55" class="edge"><title>t12&#45;&gt;t13</title>
<path fill="none" stroke="#0044a0" d="M1686,-157.272C1686,-146.565 1686,-132.583 1686,-120.395"/>
<polygon fill="#0044a0" stroke="#0044a0" points="1689.5,-120.274 1686,-110.274 1682.5,-120.274 1689.5,-120.274"/>
</g>
<!-- t13&#45;&gt;t58 -->
<g id="edge78" class="edge"><title>t13&#45;&gt;t58</title>
<path fill="none" stroke="#0044a0" d="M1626.65,-84.1893C1524.71,-72.4909 1319.2,-48.9088 1235.13,-39.2611"/>
<polygon fill="#0044a0" stroke="#0044a0" points="1235.36,-35.7646 1225.03,-38.1017 1234.56,-42.719 1235.36,-35.7646"/>
</g>
<!-- t30 -->
<g id="node55" class="node"><title>t30</title>
<polygon fill="#ebf3ff" stroke="#0044a0" points="1279.55,-509.47 1066.45,-509.47 1062.45,-505.47 1062.45,-473.47 1275.55,-473.47 1279.55,-477.47 1279.55,-509.47"/>
<polyline fill="none" stroke="#0044a0" points="1275.55,-505.47 1062.45,-505.47 "/>
<polyline fill="none" stroke="#0044a0" points="1275.55,-505.47 1275.55,-473.47 "/>
<polyline fill="none" stroke="#0044a0" points="1275.55,-505.47 1279.55,-509.47 "/>
<text text-anchor="middle" x="1171" y="-485.47" font-family="Times,serif" font-size="20.00" fill="#0044a0">categorisePromoterCpGs</text>
</g>
<!-- t30&#45;&gt;t35 -->
<g id="edge61" class="edge"><title>t30&#45;&gt;t35</title>
<path fill="none" stroke="#0044a0" d="M1109.87,-473.4C1091.94,-468.63 1072.24,-463.624 1054,-459.485 1002.83,-447.872 989.175,-449.089 938,-437.485 930.924,-435.88 923.689,-434.181 916.393,-432.422"/>
<polygon fill="#0044a0" stroke="#0044a0" points="916.961,-428.958 906.416,-429.988 915.302,-435.758 916.961,-428.958"/>
</g>
<!-- t31 -->
<g id="node56" class="node"><title>t31</title>
<polygon fill="#ebf3ff" stroke="#0044a0" points="1044.99,-509.47 877.007,-509.47 873.007,-505.47 873.007,-473.47 1040.99,-473.47 1044.99,-477.47 1044.99,-509.47"/>
<polyline fill="none" stroke="#0044a0" points="1040.99,-505.47 873.007,-505.47 "/>
<polyline fill="none" stroke="#0044a0" points="1040.99,-505.47 1040.99,-473.47 "/>
<polyline fill="none" stroke="#0044a0" points="1040.99,-505.47 1044.99,-509.47 "/>
<text text-anchor="middle" x="959" y="-485.47" font-family="Times,serif" font-size="20.00" fill="#0044a0">extractRepeatCpGs</text>
</g>
<!-- t31&#45;&gt;t35 -->
<g id="edge60" class="edge"><title>t31&#45;&gt;t35</title>
<path fill="none" stroke="#0044a0" d="M926.462,-473.385C905.975,-462.627 878.631,-448.27 852.936,-434.778"/>
<polygon fill="#0044a0" stroke="#0044a0" points="854.411,-431.599 843.93,-430.049 851.157,-437.797 854.411,-431.599"/>
</g>
<!-- t32 -->
<g id="node57" class="node"><title>t32</title>
<polygon fill="#ebf3ff" stroke="#0044a0" points="855.394,-509.47 688.606,-509.47 684.606,-505.47 684.606,-473.47 851.394,-473.47 855.394,-477.47 855.394,-509.47"/>
<polyline fill="none" stroke="#0044a0" points="851.394,-505.47 684.606,-505.47 "/>
<polyline fill="none" stroke="#0044a0" points="851.394,-505.47 851.394,-473.47 "/>
<polyline fill="none" stroke="#0044a0" points="851.394,-505.47 855.394,-509.47 "/>
<text text-anchor="middle" x="770" y="-485.47" font-family="Times,serif" font-size="20.00" fill="#0044a0">extractHCNECpGs</text>
</g>
<!-- t32&#45;&gt;t35 -->
<g id="edge59" class="edge"><title>t32&#45;&gt;t35</title>
<path fill="none" stroke="#0044a0" d="M771.251,-473.385C771.933,-464.084 772.811,-452.091 773.675,-440.294"/>
<polygon fill="#0044a0" stroke="#0044a0" points="777.186,-440.278 774.426,-430.049 770.204,-439.767 777.186,-440.278"/>
</g>
<!-- t33 -->
<g id="node58" class="node"><title>t33</title>
<polygon fill="#ebf3ff" stroke="#0044a0" points="1458.52,-509.47 1301.48,-509.47 1297.48,-505.47 1297.48,-473.47 1454.52,-473.47 1458.52,-477.47 1458.52,-509.47"/>
<polyline fill="none" stroke="#0044a0" points="1454.52,-505.47 1297.48,-505.47 "/>
<polyline fill="none" stroke="#0044a0" points="1454.52,-505.47 1454.52,-473.47 "/>
<polyline fill="none" stroke="#0044a0" points="1454.52,-505.47 1458.52,-509.47 "/>
<text text-anchor="middle" x="1378" y="-485.47" font-family="Times,serif" font-size="20.00" fill="#0044a0">extractDMRCpGs</text>
</g>
<!-- t33&#45;&gt;t35 -->
<g id="edge58" class="edge"><title>t33&#45;&gt;t35</title>
<path fill="none" stroke="#0044a0" d="M1336.55,-473.412C1321.79,-468.043 1304.88,-462.684 1289,-459.485 1135.77,-428.614 1092.3,-462.476 938,-437.485 928.68,-435.975 919.118,-434.158 909.527,-432.136"/>
<polygon fill="#0044a0" stroke="#0044a0" points="910.046,-428.667 899.531,-429.959 908.557,-435.507 910.046,-428.667"/>
</g>
<!-- t36 -->
<g id="node60" class="node"><title>t36</title>
<polygon fill="#ebf3ff" stroke="#0044a0" points="1036.16,-193.571 857.84,-193.571 853.84,-189.571 853.84,-157.571 1032.16,-157.571 1036.16,-161.571 1036.16,-193.571"/>
<polyline fill="none" stroke="#0044a0" points="1032.16,-189.571 853.84,-189.571 "/>
<polyline fill="none" stroke="#0044a0" points="1032.16,-189.571 1032.16,-157.571 "/>
<polyline fill="none" stroke="#0044a0" points="1032.16,-189.571 1036.16,-193.571 "/>
<text text-anchor="middle" x="945" y="-169.571" font-family="Times,serif" font-size="20.00" fill="#0044a0">plotCpGAnnotations</text>
</g>
<!-- t35&#45;&gt;t36 -->
<g id="edge62" class="edge"><title>t35&#45;&gt;t36</title>
<path fill="none" stroke="#0044a0" d="M747.077,-355.861C741.696,-347.288 736.886,-337.867 734,-328.326 722.782,-291.237 709.408,-271.086 734,-241.142 765.919,-202.275 796.939,-233.959 845,-219.142 863.561,-213.419 883.364,-205.415 900.408,-197.891"/>
<polygon fill="#0044a0" stroke="#0044a0" points="901.88,-201.066 909.569,-193.777 899.012,-194.681 901.88,-201.066"/>
</g>
<!-- t36&#45;&gt;t41 -->
<g id="edge65" class="edge"><title>t36&#45;&gt;t41</title>
<path fill="none" stroke="#0044a0" d="M909.153,-157.471C882.932,-144.963 847.177,-127.907 819.029,-114.48"/>
<polygon fill="#0044a0" stroke="#0044a0" points="820.333,-111.224 809.8,-110.077 817.319,-117.542 820.333,-111.224"/>
</g>
<!-- t41&#45;&gt;t58 -->
<g id="edge68" class="edge"><title>t41&#45;&gt;t58</title>
<path fill="none" stroke="#0044a0" d="M825.567,-84.1893C912.198,-72.7474 1084.91,-49.937 1160.78,-39.9154"/>
<polygon fill="#0044a0" stroke="#0044a0" points="1161.37,-43.368 1170.83,-38.5887 1160.46,-36.4283 1161.37,-43.368"/>
</g>
<!-- k1_1 -->
<g id="node63" class="node"><title>k1_1</title>
<polygon fill="#ebf3ff" stroke="#0044a0" points="2555.76,-1111.95 2468.24,-1111.95 2464.24,-1107.95 2464.24,-1067.34 2551.76,-1067.34 2555.76,-1071.34 2555.76,-1111.95"/>
<polyline fill="none" stroke="#0044a0" points="2551.76,-1107.95 2464.24,-1107.95 "/>
<polyline fill="none" stroke="#0044a0" points="2551.76,-1107.95 2551.76,-1067.34 "/>
<polyline fill="none" stroke="#0044a0" points="2551.76,-1107.95 2555.76,-1111.95 "/>
<text text-anchor="middle" x="2510" y="-1085.44" font-family="Times,serif" font-size="14.00" fill="#0044a0">Task to run</text>
</g>
<!-- k2_1 -->
<g id="node64" class="node"><title>k2_1</title>
<polygon fill="none" stroke="#0044a0" stroke-dasharray="5,2" points="2567.19,-1039.45 2456.81,-1039.45 2452.81,-1035.45 2452.81,-978.243 2563.19,-978.243 2567.19,-982.243 2567.19,-1039.45"/>
<polyline fill="none" stroke="#0044a0" stroke-dasharray="5,2" points="2563.19,-1035.45 2452.81,-1035.45 "/>
<polyline fill="none" stroke="#0044a0" stroke-dasharray="5,2" points="2563.19,-1035.45 2563.19,-978.243 "/>
<polyline fill="none" stroke="#0044a0" stroke-dasharray="5,2" points="2563.19,-1035.45 2567.19,-1039.45 "/>
<text text-anchor="middle" x="2510" y="-1013.04" font-family="Times,serif" font-size="14.00" fill="#0044a0">Up&#45;to&#45;date task</text>
<text text-anchor="middle" x="2510" y="-996.245" font-family="Times,serif" font-size="14.00" fill="#0044a0">forced to rerun</text>
</g>
<!-- k1_1&#45;&gt;k2_1 -->
<g id="edge86" class="edge"><title>k1_1&#45;&gt;k2_1</title>
<path fill="none" stroke="#0044a0" d="M2510,-1067.11C2510,-1061.68 2510,-1055.68 2510,-1049.66"/>
<polygon fill="#0044a0" stroke="#0044a0" points="2513.5,-1049.62 2510,-1039.62 2506.5,-1049.62 2513.5,-1049.62"/>
</g>
<!-- k3_1 -->
<g id="node65" class="node"><title>k3_1</title>
<polygon fill="#efa03b" stroke="black" points="2556.15,-950.345 2467.85,-950.345 2463.85,-946.345 2463.85,-905.744 2552.15,-905.744 2556.15,-909.744 2556.15,-950.345"/>
<polyline fill="none" stroke="black" points="2552.15,-946.345 2463.85,-946.345 "/>
<polyline fill="none" stroke="black" points="2552.15,-946.345 2552.15,-905.744 "/>
<polyline fill="none" stroke="black" points="2552.15,-946.345 2556.15,-950.345 "/>
<text text-anchor="middle" x="2510" y="-923.845" font-family="Times,serif" font-size="14.00">Final target</text>
</g>
<!-- k2_1&#45;&gt;k3_1 -->
<g id="edge87" class="edge"><title>k2_1&#45;&gt;k3_1</title>
<path fill="none" stroke="#0044a0" d="M2510,-978.054C2510,-972.53 2510,-966.737 2510,-961.147"/>
<polygon fill="#0044a0" stroke="#0044a0" points="2513.5,-960.773 2510,-950.773 2506.5,-960.773 2513.5,-960.773"/>
</g>
</g>
</svg>
