<?xml version="1.0" encoding="UTF-8" standalone="no"?>
<!DOCTYPE svg PUBLIC "-//W3C//DTD SVG 1.1//EN"
 "http://www.w3.org/Graphics/SVG/1.1/DTD/svg11.dtd">
<!-- Generated by graphviz version 2.38.0 (20140413.2041)
 -->
<!-- Title: Pipeline: Pages: 1 -->
<svg width="1112pt" height="875pt"
 viewBox="0.00 0.00 1112.00 875.31" xmlns="http://www.w3.org/2000/svg" xmlns:xlink="http://www.w3.org/1999/xlink">
<g id="graph0" class="graph" transform="scale(1 1) rotate(0) translate(4 871.31)">
<title>Pipeline:</title>
<polygon fill="white" stroke="none" points="-4,4 -4,-871.31 1108,-871.31 1108,4 -4,4"/>
<g id="clust1" class="cluster"><title>clustertasks</title>
<polygon fill="none" stroke="black" points="8,-8 8,-859.31 958,-859.31 958,-8 8,-8"/>
<text text-anchor="middle" x="483" y="-828.31" font-family="Times,serif" font-size="30.00" fill="#ff3232">Pipeline:</text>
</g>
<g id="clust2" class="cluster"><title>clusterkey1</title>
<polygon fill="#f6f4f4" stroke="#f6f4f4" points="966,-571.455 966,-841.71 1096,-841.71 1096,-571.455 966,-571.455"/>
<text text-anchor="middle" x="1031" y="-819.71" font-family="Times,serif" font-size="20.00">Key:</text>
</g>
<!-- t22 -->
<g id="node1" class="node"><title>t22</title>
<polygon fill="#ebf3ff" stroke="#0044a0" points="505.364,-807.31 278.636,-807.31 274.636,-803.31 274.636,-751.31 501.364,-751.31 505.364,-755.31 505.364,-807.31"/>
<polyline fill="none" stroke="#0044a0" points="501.364,-803.31 274.636,-803.31 "/>
<polyline fill="none" stroke="#0044a0" points="501.364,-803.31 501.364,-751.31 "/>
<polyline fill="none" stroke="#0044a0" points="501.364,-803.31 505.364,-807.31 "/>
<text text-anchor="middle" x="390" y="-785.31" font-family="Times,serif" font-size="20.00" fill="#0044a0">mkdir(&#39;fasta.dir&#39;) </text>
<text text-anchor="middle" x="390" y="-761.31" font-family="Times,serif" font-size="20.00" fill="#0044a0">before buildIntervalsFasta </text>
</g>
<!-- t0 -->
<g id="node2" class="node"><title>t0</title>
<polygon fill="none" stroke="#0044a0" stroke-dasharray="5,2" points="474.792,-716.51 309.208,-716.51 305.208,-712.51 305.208,-680.51 470.792,-680.51 474.792,-684.51 474.792,-716.51"/>
<polyline fill="none" stroke="#0044a0" stroke-dasharray="5,2" points="470.792,-712.51 305.208,-712.51 "/>
<polyline fill="none" stroke="#0044a0" stroke-dasharray="5,2" points="470.792,-712.51 470.792,-680.51 "/>
<polyline fill="none" stroke="#0044a0" stroke-dasharray="5,2" points="470.792,-712.51 474.792,-716.51 "/>
<text text-anchor="middle" x="390" y="-692.51" font-family="Times,serif" font-size="20.00" fill="#0044a0">buildIntervalsFasta</text>
</g>
<!-- t22&#45;&gt;t0 -->
<g id="edge1" class="edge"><title>t22&#45;&gt;t0</title>
<path fill="none" stroke="#0044a0" d="M390,-751.192C390,-743.356 390,-734.801 390,-726.946"/>
<polygon fill="#0044a0" stroke="#0044a0" points="393.5,-726.803 390,-716.803 386.5,-726.803 393.5,-726.803"/>
</g>
<!-- t1 -->
<g id="node3" class="node"><title>t1</title>
<polygon fill="#ebf3ff" stroke="#0044a0" points="839.21,-168 784.79,-168 780.79,-164 780.79,-132 835.21,-132 839.21,-136 839.21,-168"/>
<polyline fill="none" stroke="#0044a0" points="835.21,-164 780.79,-164 "/>
<polyline fill="none" stroke="#0044a0" points="835.21,-164 835.21,-132 "/>
<polyline fill="none" stroke="#0044a0" points="835.21,-164 839.21,-168 "/>
<text text-anchor="middle" x="810" y="-144" font-family="Times,serif" font-size="20.00" fill="#0044a0">Fasta</text>
</g>
<!-- t0&#45;&gt;t1 -->
<g id="edge2" class="edge"><title>t0&#45;&gt;t1</title>
<path fill="none" stroke="#0044a0" d="M474.9,-688.26C631.279,-668.848 949,-617.311 949,-519 949,-519 949,-519 949,-265 949,-212.847 889.775,-180.206 848.643,-163.826"/>
<polygon fill="#0044a0" stroke="#0044a0" points="849.73,-160.495 839.139,-160.199 847.233,-167.035 849.73,-160.495"/>
</g>
<!-- t8 -->
<g id="node5" class="node"><title>t8</title>
<polygon fill="#ebf3ff" stroke="#0044a0" points="46.744,-589.689 110,-562.485 173.256,-589.689 173.197,-633.706 46.8031,-633.706 46.744,-589.689"/>
<polygon fill="none" stroke="#0044a0" points="42.7479,-587.067 110,-558.144 177.252,-587.067 177.184,-637.693 42.8158,-637.693 42.7479,-587.067"/>
<text text-anchor="middle" x="110" y="-595.855" font-family="Times,serif" font-size="20.00" fill="#0044a0">runMatch</text>
</g>
<!-- t0&#45;&gt;t8 -->
<g id="edge4" class="edge"><title>t0&#45;&gt;t8</title>
<path fill="none" stroke="#0044a0" d="M315.498,-680.472C280.047,-671.538 237.344,-659.566 200,-645.71 195.568,-644.066 191.058,-642.285 186.536,-640.415"/>
<polygon fill="#0044a0" stroke="#0044a0" points="187.832,-637.162 177.26,-636.466 185.09,-643.603 187.832,-637.162"/>
</g>
<!-- t2 -->
<g id="node12" class="node"><title>t2</title>
<polygon fill="none" stroke="#0044a0" stroke-dasharray="5,2" points="551.172,-536 376.828,-536 372.828,-532 372.828,-500 547.172,-500 551.172,-504 551.172,-536"/>
<polyline fill="none" stroke="#0044a0" stroke-dasharray="5,2" points="547.172,-532 372.828,-532 "/>
<polyline fill="none" stroke="#0044a0" stroke-dasharray="5,2" points="547.172,-532 547.172,-500 "/>
<polyline fill="none" stroke="#0044a0" stroke-dasharray="5,2" points="547.172,-532 551.172,-536 "/>
<text text-anchor="middle" x="462" y="-512" font-family="Times,serif" font-size="20.00" fill="#0044a0">calculateGCContent</text>
</g>
<!-- t0&#45;&gt;t2 -->
<g id="edge10" class="edge"><title>t0&#45;&gt;t2</title>
<path fill="none" stroke="#0044a0" d="M434.847,-680.276C449.713,-672.162 464.596,-660.861 473,-645.71 490.19,-614.719 481.502,-572.784 472.628,-545.807"/>
<polygon fill="#0044a0" stroke="#0044a0" points="475.888,-544.529 469.271,-536.255 469.284,-546.85 475.888,-544.529"/>
</g>
<!-- t5 -->
<g id="node20" class="node"><title>t5</title>
<polygon fill="none" stroke="#0044a0" stroke-dasharray="5,2" points="435.158,-342 150.842,-342 146.842,-338 146.842,-306 431.158,-306 435.158,-310 435.158,-342"/>
<polyline fill="none" stroke="#0044a0" stroke-dasharray="5,2" points="431.158,-338 146.842,-338 "/>
<polyline fill="none" stroke="#0044a0" stroke-dasharray="5,2" points="431.158,-338 431.158,-306 "/>
<polyline fill="none" stroke="#0044a0" stroke-dasharray="5,2" points="431.158,-338 435.158,-342 "/>
<text text-anchor="middle" x="291" y="-318" font-family="Times,serif" font-size="20.00" fill="#0044a0">calculateMatchedGCComposition</text>
</g>
<!-- t0&#45;&gt;t5 -->
<g id="edge22" class="edge"><title>t0&#45;&gt;t5</title>
<path fill="none" stroke="#0044a0" d="M304.995,-693.066C271.66,-686.699 236.348,-673.261 215,-645.71 195.82,-620.958 190.153,-390.396 207,-364 211.103,-357.571 216.57,-352.185 222.755,-347.677"/>
<polygon fill="#0044a0" stroke="#0044a0" points="225.02,-350.384 231.572,-342.058 221.258,-344.481 225.02,-350.384"/>
</g>
<!-- t18 -->
<g id="node23" class="node"><title>t18</title>
<polygon fill="#efa03b" stroke="black" points="422,-52 372,-52 368,-48 368,-16 418,-16 422,-20 422,-52"/>
<polyline fill="none" stroke="black" points="418,-48 368,-48 "/>
<polyline fill="none" stroke="black" points="418,-48 418,-16 "/>
<polyline fill="none" stroke="black" points="418,-48 422,-52 "/>
<text text-anchor="middle" x="395" y="-28" font-family="Times,serif" font-size="20.00">full</text>
</g>
<!-- t1&#45;&gt;t18 -->
<g id="edge28" class="edge"><title>t1&#45;&gt;t18</title>
<path fill="none" stroke="#0044a0" d="M780.818,-140.984C707.126,-120.741 513.611,-67.5824 432.071,-45.1834"/>
<polygon fill="#0044a0" stroke="#0044a0" points="432.811,-41.7571 422.241,-42.4831 430.957,-48.507 432.811,-41.7571"/>
</g>
<!-- t19 -->
<g id="node4" class="node"><title>t19</title>
<polygon fill="#ebf3ff" stroke="#0044a0" points="195.995,-726.51 28.0053,-726.51 24.0053,-722.51 24.0053,-670.51 191.995,-670.51 195.995,-674.51 195.995,-726.51"/>
<polyline fill="none" stroke="#0044a0" points="191.995,-722.51 24.0053,-722.51 "/>
<polyline fill="none" stroke="#0044a0" points="191.995,-722.51 191.995,-670.51 "/>
<polyline fill="none" stroke="#0044a0" points="191.995,-722.51 195.995,-726.51 "/>
<text text-anchor="middle" x="110" y="-704.51" font-family="Times,serif" font-size="20.00" fill="#0044a0">mkdir(&#39;match.dir&#39;) </text>
<text text-anchor="middle" x="110" y="-680.51" font-family="Times,serif" font-size="20.00" fill="#0044a0">before runMatch </text>
</g>
<!-- t19&#45;&gt;t8 -->
<g id="edge3" class="edge"><title>t19&#45;&gt;t8</title>
<path fill="none" stroke="#0044a0" d="M110,-670.386C110,-663.321 110,-655.516 110,-647.796"/>
<polygon fill="#0044a0" stroke="#0044a0" points="113.5,-647.766 110,-637.766 106.5,-647.766 113.5,-647.766"/>
</g>
<!-- t9 -->
<g id="node6" class="node"><title>t9</title>
<polygon fill="#ebf3ff" stroke="#0044a0" points="183.417,-536 26.5835,-536 22.5835,-532 22.5835,-500 179.417,-500 183.417,-504 183.417,-536"/>
<polyline fill="none" stroke="#0044a0" points="179.417,-532 22.5835,-532 "/>
<polyline fill="none" stroke="#0044a0" points="179.417,-532 179.417,-500 "/>
<polyline fill="none" stroke="#0044a0" points="179.417,-532 183.417,-536 "/>
<text text-anchor="middle" x="103" y="-512" font-family="Times,serif" font-size="20.00" fill="#0044a0">loadMatchResults</text>
</g>
<!-- t8&#45;&gt;t9 -->
<g id="edge5" class="edge"><title>t8&#45;&gt;t9</title>
<path fill="none" stroke="#0044a0" d="M106.459,-559.448C106.073,-554.937 105.688,-550.435 105.323,-546.159"/>
<polygon fill="#0044a0" stroke="#0044a0" points="108.804,-545.788 104.464,-536.122 101.829,-546.384 108.804,-545.788"/>
</g>
<!-- t10 -->
<g id="node7" class="node"><title>t10</title>
<polygon fill="#ebf3ff" stroke="#0044a0" points="185.794,-478 20.2057,-478 16.2057,-474 16.2057,-442 181.794,-442 185.794,-446 185.794,-478"/>
<polyline fill="none" stroke="#0044a0" points="181.794,-474 16.2057,-474 "/>
<polyline fill="none" stroke="#0044a0" points="181.794,-474 181.794,-442 "/>
<polyline fill="none" stroke="#0044a0" points="181.794,-474 185.794,-478 "/>
<text text-anchor="middle" x="101" y="-454" font-family="Times,serif" font-size="20.00" fill="#0044a0">buildMatchMetrics</text>
</g>
<!-- t9&#45;&gt;t10 -->
<g id="edge6" class="edge"><title>t9&#45;&gt;t10</title>
<path fill="none" stroke="#0044a0" d="M102.389,-499.894C102.257,-496.203 102.115,-492.213 101.973,-488.243"/>
<polygon fill="#0044a0" stroke="#0044a0" points="105.462,-487.87 101.607,-478.001 98.4664,-488.12 105.462,-487.87"/>
</g>
<!-- t11 -->
<g id="node8" class="node"><title>t11</title>
<polygon fill="#ebf3ff" stroke="#0044a0" points="178.114,-410 19.8855,-410 15.8855,-406 15.8855,-374 174.114,-374 178.114,-378 178.114,-410"/>
<polyline fill="none" stroke="#0044a0" points="174.114,-406 15.8855,-406 "/>
<polyline fill="none" stroke="#0044a0" points="174.114,-406 174.114,-374 "/>
<polyline fill="none" stroke="#0044a0" points="174.114,-406 178.114,-410 "/>
<text text-anchor="middle" x="97" y="-386" font-family="Times,serif" font-size="20.00" fill="#0044a0">loadMatchMetrics</text>
</g>
<!-- t10&#45;&gt;t11 -->
<g id="edge7" class="edge"><title>t10&#45;&gt;t11</title>
<path fill="none" stroke="#0044a0" d="M99.949,-441.659C99.5571,-435.193 99.1019,-427.682 98.6682,-420.525"/>
<polygon fill="#0044a0" stroke="#0044a0" points="102.156,-420.224 98.0578,-410.454 95.1693,-420.648 102.156,-420.224"/>
</g>
<!-- t12 -->
<g id="node9" class="node"><title>t12</title>
<polygon fill="#ebf3ff" stroke="#0044a0" points="229.592,-110 166.408,-110 162.408,-106 162.408,-74 225.592,-74 229.592,-78 229.592,-110"/>
<polyline fill="none" stroke="#0044a0" points="225.592,-106 162.408,-106 "/>
<polyline fill="none" stroke="#0044a0" points="225.592,-106 225.592,-74 "/>
<polyline fill="none" stroke="#0044a0" points="225.592,-106 229.592,-110 "/>
<text text-anchor="middle" x="196" y="-86" font-family="Times,serif" font-size="20.00" fill="#0044a0">Match</text>
</g>
<!-- t11&#45;&gt;t12 -->
<g id="edge8" class="edge"><title>t11&#45;&gt;t12</title>
<path fill="none" stroke="#0044a0" d="M100.404,-373.828C104.829,-349.966 112,-305.382 112,-267 112,-267 112,-267 112,-207 112,-170.335 140.51,-137.699 164.311,-116.842"/>
<polygon fill="#0044a0" stroke="#0044a0" points="166.763,-119.352 172.154,-110.231 162.252,-114 166.763,-119.352"/>
</g>
<!-- t13 -->
<g id="node15" class="node"><title>t13</title>
<polygon fill="none" stroke="#0044a0" stroke-dasharray="5,2" points="697.338,-342 456.662,-342 452.662,-338 452.662,-306 693.338,-306 697.338,-310 697.338,-342"/>
<polyline fill="none" stroke="#0044a0" stroke-dasharray="5,2" points="693.338,-338 452.662,-338 "/>
<polyline fill="none" stroke="#0044a0" stroke-dasharray="5,2" points="693.338,-338 693.338,-306 "/>
<polyline fill="none" stroke="#0044a0" stroke-dasharray="5,2" points="693.338,-338 697.338,-342 "/>
<text text-anchor="middle" x="575" y="-318" font-family="Times,serif" font-size="20.00" fill="#0044a0">estimateEnrichmentOfTFBS</text>
</g>
<!-- t11&#45;&gt;t13 -->
<g id="edge14" class="edge"><title>t11&#45;&gt;t13</title>
<path fill="none" stroke="#0044a0" d="M159.49,-373.962C174.927,-370.224 191.487,-366.609 207,-364 308.163,-346.986 337.125,-353.282 442.539,-342.12"/>
<polygon fill="#0044a0" stroke="#0044a0" points="443.076,-345.582 452.64,-341.022 442.32,-338.623 443.076,-345.582"/>
</g>
<!-- t12&#45;&gt;t18 -->
<g id="edge26" class="edge"><title>t12&#45;&gt;t18</title>
<path fill="none" stroke="#0044a0" d="M229.758,-81.5004C265.335,-71.4886 321.21,-55.765 357.974,-45.4193"/>
<polygon fill="#0044a0" stroke="#0044a0" points="359.126,-48.7312 367.804,-42.6531 357.23,-41.9929 359.126,-48.7312"/>
</g>
<!-- t21 -->
<g id="node10" class="node"><title>t21</title>
<polygon fill="#ebf3ff" stroke="#0044a0" points="929.91,-420 628.09,-420 624.09,-416 624.09,-364 925.91,-364 929.91,-368 929.91,-420"/>
<polyline fill="none" stroke="#0044a0" points="925.91,-416 624.09,-416 "/>
<polyline fill="none" stroke="#0044a0" points="925.91,-416 925.91,-364 "/>
<polyline fill="none" stroke="#0044a0" points="925.91,-416 929.91,-420 "/>
<text text-anchor="middle" x="777" y="-398" font-family="Times,serif" font-size="20.00" fill="#0044a0">mkdir(&#39;match_test.dir&#39;) </text>
<text text-anchor="middle" x="777" y="-374" font-family="Times,serif" font-size="20.00" fill="#0044a0">before estimateEnrichmentOfTFBS </text>
</g>
<!-- t21&#45;&gt;t13 -->
<g id="edge13" class="edge"><title>t21&#45;&gt;t13</title>
<path fill="none" stroke="#0044a0" d="M694.256,-363.965C675.046,-357.688 654.924,-351.114 636.797,-345.191"/>
<polygon fill="#0044a0" stroke="#0044a0" points="637.826,-341.845 627.233,-342.066 635.652,-348.499 637.826,-341.845"/>
</g>
<!-- t20 -->
<g id="node11" class="node"><title>t20</title>
<polygon fill="#ebf3ff" stroke="#0044a0" points="463.744,-629.855 228.256,-629.855 224.256,-625.855 224.256,-573.855 459.744,-573.855 463.744,-577.855 463.744,-629.855"/>
<polyline fill="none" stroke="#0044a0" points="459.744,-625.855 224.256,-625.855 "/>
<polyline fill="none" stroke="#0044a0" points="459.744,-625.855 459.744,-573.855 "/>
<polyline fill="none" stroke="#0044a0" points="459.744,-625.855 463.744,-629.855 "/>
<text text-anchor="middle" x="344" y="-607.855" font-family="Times,serif" font-size="20.00" fill="#0044a0">mkdir(&#39;GC_content.dir&#39;) </text>
<text text-anchor="middle" x="344" y="-583.855" font-family="Times,serif" font-size="20.00" fill="#0044a0">before calculateGCContent </text>
</g>
<!-- t20&#45;&gt;t2 -->
<g id="edge9" class="edge"><title>t20&#45;&gt;t2</title>
<path fill="none" stroke="#0044a0" d="M382.965,-573.826C397.752,-563.568 414.445,-551.988 428.667,-542.123"/>
<polygon fill="#0044a0" stroke="#0044a0" points="430.942,-544.805 437.163,-536.229 426.952,-539.053 430.942,-544.805"/>
</g>
<!-- t3 -->
<g id="node13" class="node"><title>t3</title>
<polygon fill="none" stroke="#0044a0" stroke-dasharray="5,2" points="491.545,-478 354.455,-478 350.455,-474 350.455,-442 487.545,-442 491.545,-446 491.545,-478"/>
<polyline fill="none" stroke="#0044a0" stroke-dasharray="5,2" points="487.545,-474 350.455,-474 "/>
<polyline fill="none" stroke="#0044a0" stroke-dasharray="5,2" points="487.545,-474 487.545,-442 "/>
<polyline fill="none" stroke="#0044a0" stroke-dasharray="5,2" points="487.545,-474 491.545,-478 "/>
<text text-anchor="middle" x="421" y="-454" font-family="Times,serif" font-size="20.00" fill="#0044a0">loadGCContent</text>
</g>
<!-- t2&#45;&gt;t3 -->
<g id="edge11" class="edge"><title>t2&#45;&gt;t3</title>
<path fill="none" stroke="#0044a0" d="M449.476,-499.894C446.297,-495.552 442.814,-490.795 439.41,-486.145"/>
<polygon fill="#0044a0" stroke="#0044a0" points="442.179,-484.002 433.447,-478.001 436.531,-488.138 442.179,-484.002"/>
</g>
<!-- t2&#45;&gt;t13 -->
<g id="edge16" class="edge"><title>t2&#45;&gt;t13</title>
<path fill="none" stroke="#0044a0" d="M502.806,-499.906C534.375,-484.233 575.832,-457.704 595,-420 606.279,-397.814 600.842,-388.194 595,-364 593.975,-359.756 592.405,-355.456 590.586,-351.337"/>
<polygon fill="#0044a0" stroke="#0044a0" points="593.614,-349.565 586.027,-342.169 587.346,-352.682 593.614,-349.565"/>
</g>
<!-- t4 -->
<g id="node14" class="node"><title>t4</title>
<polygon fill="none" stroke="#0044a0" stroke-dasharray="5,2" points="586.378,-410 219.622,-410 215.622,-406 215.622,-374 582.378,-374 586.378,-378 586.378,-410"/>
<polyline fill="none" stroke="#0044a0" stroke-dasharray="5,2" points="582.378,-406 215.622,-406 "/>
<polyline fill="none" stroke="#0044a0" stroke-dasharray="5,2" points="582.378,-406 582.378,-374 "/>
<polyline fill="none" stroke="#0044a0" stroke-dasharray="5,2" points="582.378,-406 586.378,-410 "/>
<text text-anchor="middle" x="401" y="-386" font-family="Times,serif" font-size="20.00" fill="#0044a0">matchBackgroundForSequenceComposition</text>
</g>
<!-- t3&#45;&gt;t4 -->
<g id="edge12" class="edge"><title>t3&#45;&gt;t4</title>
<path fill="none" stroke="#0044a0" d="M415.745,-441.659C413.74,-435.042 411.404,-427.332 409.19,-420.026"/>
<polygon fill="#0044a0" stroke="#0044a0" points="412.539,-419.009 406.289,-410.454 405.84,-421.039 412.539,-419.009"/>
</g>
<!-- t4&#45;&gt;t13 -->
<g id="edge15" class="edge"><title>t4&#45;&gt;t13</title>
<path fill="none" stroke="#0044a0" d="M446.262,-373.832C468.918,-365.238 496.524,-354.767 520.353,-345.728"/>
<polygon fill="#0044a0" stroke="#0044a0" points="521.856,-348.902 529.964,-342.082 519.373,-342.357 521.856,-348.902"/>
</g>
<!-- t4&#45;&gt;t5 -->
<g id="edge21" class="edge"><title>t4&#45;&gt;t5</title>
<path fill="none" stroke="#0044a0" d="M372.386,-373.832C358.891,-365.734 342.618,-355.971 328.181,-347.309"/>
<polygon fill="#0044a0" stroke="#0044a0" points="329.846,-344.226 319.471,-342.082 326.245,-350.229 329.846,-344.226"/>
</g>
<!-- t14 -->
<g id="node16" class="node"><title>t14</title>
<polygon fill="none" stroke="#0044a0" stroke-dasharray="5,2" points="673.13,-284 464.87,-284 460.87,-280 460.87,-248 669.13,-248 673.13,-252 673.13,-284"/>
<polyline fill="none" stroke="#0044a0" stroke-dasharray="5,2" points="669.13,-280 460.87,-280 "/>
<polyline fill="none" stroke="#0044a0" stroke-dasharray="5,2" points="669.13,-280 669.13,-248 "/>
<polyline fill="none" stroke="#0044a0" stroke-dasharray="5,2" points="669.13,-280 673.13,-284 "/>
<text text-anchor="middle" x="567" y="-260" font-family="Times,serif" font-size="20.00" fill="#0044a0">loadEnrichmentOfTFBS</text>
</g>
<!-- t13&#45;&gt;t14 -->
<g id="edge17" class="edge"><title>t13&#45;&gt;t14</title>
<path fill="none" stroke="#0044a0" d="M572.556,-305.894C572.029,-302.203 571.459,-298.213 570.892,-294.243"/>
<polygon fill="#0044a0" stroke="#0044a0" points="574.308,-293.406 569.429,-284.001 567.378,-294.396 574.308,-293.406"/>
</g>
<!-- t15 -->
<g id="node17" class="node"><title>t15</title>
<polygon fill="none" stroke="#0044a0" stroke-dasharray="5,2" points="629.503,-226 402.497,-226 398.497,-222 398.497,-190 625.503,-190 629.503,-194 629.503,-226"/>
<polyline fill="none" stroke="#0044a0" stroke-dasharray="5,2" points="625.503,-222 398.497,-222 "/>
<polyline fill="none" stroke="#0044a0" stroke-dasharray="5,2" points="625.503,-222 625.503,-190 "/>
<polyline fill="none" stroke="#0044a0" stroke-dasharray="5,2" points="625.503,-222 629.503,-226 "/>
<text text-anchor="middle" x="514" y="-202" font-family="Times,serif" font-size="20.00" fill="#0044a0">collateEnrichmentOfTFBS</text>
</g>
<!-- t14&#45;&gt;t15 -->
<g id="edge18" class="edge"><title>t14&#45;&gt;t15</title>
<path fill="none" stroke="#0044a0" d="M550.81,-247.894C546.495,-243.334 541.748,-238.318 537.138,-233.448"/>
<polygon fill="#0044a0" stroke="#0044a0" points="539.507,-230.858 530.091,-226.001 534.422,-235.67 539.507,-230.858"/>
</g>
<!-- t16 -->
<g id="node18" class="node"><title>t16</title>
<polygon fill="none" stroke="#0044a0" stroke-dasharray="5,2" points="646.398,-168 369.602,-168 365.602,-164 365.602,-132 642.398,-132 646.398,-136 646.398,-168"/>
<polyline fill="none" stroke="#0044a0" stroke-dasharray="5,2" points="642.398,-164 365.602,-164 "/>
<polyline fill="none" stroke="#0044a0" stroke-dasharray="5,2" points="642.398,-164 642.398,-132 "/>
<polyline fill="none" stroke="#0044a0" stroke-dasharray="5,2" points="642.398,-164 646.398,-168 "/>
<text text-anchor="middle" x="506" y="-144" font-family="Times,serif" font-size="20.00" fill="#0044a0">loadCollatedEnrichmentOfTFBS</text>
</g>
<!-- t15&#45;&gt;t16 -->
<g id="edge19" class="edge"><title>t15&#45;&gt;t16</title>
<path fill="none" stroke="#0044a0" d="M511.556,-189.894C511.029,-186.203 510.459,-182.213 509.892,-178.243"/>
<polygon fill="#0044a0" stroke="#0044a0" points="513.308,-177.406 508.429,-168.001 506.378,-178.396 513.308,-177.406"/>
</g>
<!-- t17 -->
<g id="node19" class="node"><title>t17</title>
<polygon fill="#ebf3ff" stroke="#0044a0" points="515.962,-110 404.038,-110 400.038,-106 400.038,-74 511.962,-74 515.962,-78 515.962,-110"/>
<polyline fill="none" stroke="#0044a0" points="511.962,-106 400.038,-106 "/>
<polyline fill="none" stroke="#0044a0" points="511.962,-106 511.962,-74 "/>
<polyline fill="none" stroke="#0044a0" points="511.962,-106 515.962,-110 "/>
<text text-anchor="middle" x="458" y="-86" font-family="Times,serif" font-size="20.00" fill="#0044a0">Significance</text>
</g>
<!-- t16&#45;&gt;t17 -->
<g id="edge20" class="edge"><title>t16&#45;&gt;t17</title>
<path fill="none" stroke="#0044a0" d="M491.338,-131.894C487.523,-127.443 483.335,-122.557 479.254,-117.796"/>
<polygon fill="#0044a0" stroke="#0044a0" points="481.738,-115.316 472.573,-110.001 476.423,-119.872 481.738,-115.316"/>
</g>
<!-- t17&#45;&gt;t18 -->
<g id="edge25" class="edge"><title>t17&#45;&gt;t18</title>
<path fill="none" stroke="#0044a0" d="M438.756,-73.8939C433.382,-69.1173 427.445,-63.8397 421.723,-58.7535"/>
<polygon fill="#0044a0" stroke="#0044a0" points="423.926,-56.0291 414.127,-52.0014 419.275,-61.261 423.926,-56.0291"/>
</g>
<!-- t6 -->
<g id="node21" class="node"><title>t6</title>
<polygon fill="none" stroke="#0044a0" stroke-dasharray="5,2" points="425.53,-284 178.47,-284 174.47,-280 174.47,-248 421.53,-248 425.53,-252 425.53,-284"/>
<polyline fill="none" stroke="#0044a0" stroke-dasharray="5,2" points="421.53,-280 174.47,-280 "/>
<polyline fill="none" stroke="#0044a0" stroke-dasharray="5,2" points="421.53,-280 421.53,-248 "/>
<polyline fill="none" stroke="#0044a0" stroke-dasharray="5,2" points="421.53,-280 425.53,-284 "/>
<text text-anchor="middle" x="300" y="-260" font-family="Times,serif" font-size="20.00" fill="#0044a0">loadMatchedGCComposition</text>
</g>
<!-- t5&#45;&gt;t6 -->
<g id="edge23" class="edge"><title>t5&#45;&gt;t6</title>
<path fill="none" stroke="#0044a0" d="M293.749,-305.894C294.36,-302.094 295.021,-297.978 295.678,-293.893"/>
<polygon fill="#0044a0" stroke="#0044a0" points="299.136,-294.43 297.268,-284.001 292.225,-293.319 299.136,-294.43"/>
</g>
<!-- t7 -->
<g id="node22" class="node"><title>t7</title>
<polygon fill="#ebf3ff" stroke="#0044a0" points="353,-226 303,-226 299,-222 299,-190 349,-190 353,-194 353,-226"/>
<polyline fill="none" stroke="#0044a0" points="349,-222 299,-222 "/>
<polyline fill="none" stroke="#0044a0" points="349,-222 349,-190 "/>
<polyline fill="none" stroke="#0044a0" points="349,-222 353,-226 "/>
<text text-anchor="middle" x="326" y="-202" font-family="Times,serif" font-size="20.00" fill="#0044a0">GC</text>
</g>
<!-- t6&#45;&gt;t7 -->
<g id="edge24" class="edge"><title>t6&#45;&gt;t7</title>
<path fill="none" stroke="#0044a0" d="M307.942,-247.894C309.807,-243.877 311.836,-239.506 313.839,-235.193"/>
<polygon fill="#0044a0" stroke="#0044a0" points="317.07,-236.545 318.107,-226.001 310.721,-233.598 317.07,-236.545"/>
</g>
<!-- t7&#45;&gt;t18 -->
<g id="edge27" class="edge"><title>t7&#45;&gt;t18</title>
<path fill="none" stroke="#0044a0" d="M332.868,-189.879C344.958,-159.744 370.11,-97.0435 384.428,-61.3525"/>
<polygon fill="#0044a0" stroke="#0044a0" points="387.685,-62.6358 388.16,-52.0516 381.188,-60.0295 387.685,-62.6358"/>
</g>
<!-- k1_1 -->
<g id="node24" class="node"><title>k1_1</title>
<polygon fill="#ebf3ff" stroke="#0044a0" points="1076.76,-801.611 989.237,-801.611 985.237,-797.611 985.237,-757.01 1072.76,-757.01 1076.76,-761.01 1076.76,-801.611"/>
<polyline fill="none" stroke="#0044a0" points="1072.76,-797.611 985.237,-797.611 "/>
<polyline fill="none" stroke="#0044a0" points="1072.76,-797.611 1072.76,-757.01 "/>
<polyline fill="none" stroke="#0044a0" points="1072.76,-797.611 1076.76,-801.611 "/>
<text text-anchor="middle" x="1031" y="-775.11" font-family="Times,serif" font-size="14.00" fill="#0044a0">Task to run</text>
</g>
<!-- k2_1 -->
<g id="node25" class="node"><title>k2_1</title>
<polygon fill="none" stroke="#0044a0" stroke-dasharray="5,2" points="1088.19,-729.112 977.812,-729.112 973.812,-725.112 973.812,-667.909 1084.19,-667.909 1088.19,-671.909 1088.19,-729.112"/>
<polyline fill="none" stroke="#0044a0" stroke-dasharray="5,2" points="1084.19,-725.112 973.812,-725.112 "/>
<polyline fill="none" stroke="#0044a0" stroke-dasharray="5,2" points="1084.19,-725.112 1084.19,-667.909 "/>
<polyline fill="none" stroke="#0044a0" stroke-dasharray="5,2" points="1084.19,-725.112 1088.19,-729.112 "/>
<text text-anchor="middle" x="1031" y="-702.71" font-family="Times,serif" font-size="14.00" fill="#0044a0">Up&#45;to&#45;date task</text>
<text text-anchor="middle" x="1031" y="-685.91" font-family="Times,serif" font-size="14.00" fill="#0044a0">forced to rerun</text>
</g>
<!-- k1_1&#45;&gt;k2_1 -->
<g id="edge29" class="edge"><title>k1_1&#45;&gt;k2_1</title>
<path fill="none" stroke="#0044a0" d="M1031,-756.778C1031,-751.348 1031,-745.344 1031,-739.327"/>
<polygon fill="#0044a0" stroke="#0044a0" points="1034.5,-739.287 1031,-729.287 1027.5,-739.287 1034.5,-739.287"/>
</g>
<!-- k3_1 -->
<g id="node26" class="node"><title>k3_1</title>
<polygon fill="#efa03b" stroke="black" points="1077.15,-624.156 988.85,-624.156 984.85,-620.156 984.85,-579.555 1073.15,-579.555 1077.15,-583.555 1077.15,-624.156"/>
<polyline fill="none" stroke="black" points="1073.15,-620.156 984.85,-620.156 "/>
<polyline fill="none" stroke="black" points="1073.15,-620.156 1073.15,-579.555 "/>
<polyline fill="none" stroke="black" points="1073.15,-620.156 1077.15,-624.156 "/>
<text text-anchor="middle" x="1031" y="-597.655" font-family="Times,serif" font-size="14.00">Final target</text>
</g>
<!-- k2_1&#45;&gt;k3_1 -->
<g id="edge30" class="edge"><title>k2_1&#45;&gt;k3_1</title>
<path fill="none" stroke="#0044a0" d="M1031,-667.821C1031,-657.248 1031,-645.306 1031,-634.57"/>
<polygon fill="#0044a0" stroke="#0044a0" points="1034.5,-634.332 1031,-624.332 1027.5,-634.332 1034.5,-634.332"/>
</g>
</g>
</svg>
