<?xml version="1.0" encoding="UTF-8" standalone="no"?>
<!DOCTYPE svg PUBLIC "-//W3C//DTD SVG 1.1//EN"
 "http://www.w3.org/Graphics/SVG/1.1/DTD/svg11.dtd">
<!-- Generated by graphviz version 2.38.0 (20140413.2041)
 -->
<!-- Title: Pipeline: Pages: 1 -->
<svg width="2062pt" height="1839pt"
 viewBox="0.00 0.00 2062.00 1839.47" xmlns="http://www.w3.org/2000/svg" xmlns:xlink="http://www.w3.org/1999/xlink">
<g id="graph0" class="graph" transform="scale(1 1) rotate(0) translate(4 1835.47)">
<title>Pipeline:</title>
<polygon fill="white" stroke="none" points="-4,4 -4,-1835.47 2058,-1835.47 2058,4 -4,4"/>
<g id="clust1" class="cluster"><title>clustertasks</title>
<polygon fill="none" stroke="black" points="8,-8 8,-1823.47 1908,-1823.47 1908,-8 8,-8"/>
<text text-anchor="middle" x="958" y="-1792.47" font-family="Times,serif" font-size="30.00" fill="#ff3232">Pipeline:</text>
</g>
<g id="clust2" class="cluster"><title>clusterkey1</title>
<polygon fill="#f6f4f4" stroke="#f6f4f4" points="1916,-1535.86 1916,-1805.87 2046,-1805.87 2046,-1535.86 1916,-1535.86"/>
<text text-anchor="middle" x="1981" y="-1783.87" font-family="Times,serif" font-size="20.00">Key:</text>
</g>
<!-- t67 -->
<g id="node1" class="node"><title>t67</title>
<polygon fill="#ebf3ff" stroke="#0044a0" points="845.082,-1771.47 616.918,-1771.47 612.918,-1767.47 612.918,-1715.47 841.082,-1715.47 845.082,-1719.47 845.082,-1771.47"/>
<polyline fill="none" stroke="#0044a0" points="841.082,-1767.47 612.918,-1767.47 "/>
<polyline fill="none" stroke="#0044a0" points="841.082,-1767.47 841.082,-1715.47 "/>
<polyline fill="none" stroke="#0044a0" points="841.082,-1767.47 845.082,-1771.47 "/>
<text text-anchor="middle" x="729" y="-1749.47" font-family="Times,serif" font-size="20.00" fill="#0044a0">mkdir(&#39;filtered_bams.dir&#39;) </text>
<text text-anchor="middle" x="729" y="-1725.47" font-family="Times,serif" font-size="20.00" fill="#0044a0">before filterChipBAMs </text>
</g>
<!-- t2 -->
<g id="node2" class="node"><title>t2</title>
<polygon fill="none" stroke="#0044a0" stroke-dasharray="5,2" points="802.596,-1680.67 659.404,-1680.67 655.404,-1676.67 655.404,-1644.67 798.596,-1644.67 802.596,-1648.67 802.596,-1680.67"/>
<polyline fill="none" stroke="#0044a0" stroke-dasharray="5,2" points="798.596,-1676.67 655.404,-1676.67 "/>
<polyline fill="none" stroke="#0044a0" stroke-dasharray="5,2" points="798.596,-1676.67 798.596,-1644.67 "/>
<polyline fill="none" stroke="#0044a0" stroke-dasharray="5,2" points="798.596,-1676.67 802.596,-1680.67 "/>
<text text-anchor="middle" x="729" y="-1656.67" font-family="Times,serif" font-size="20.00" fill="#0044a0">filterChipBAMs</text>
</g>
<!-- t67&#45;&gt;t2 -->
<g id="edge1" class="edge"><title>t67&#45;&gt;t2</title>
<path fill="none" stroke="#0044a0" d="M729,-1715.35C729,-1707.52 729,-1698.96 729,-1691.11"/>
<polygon fill="#0044a0" stroke="#0044a0" points="732.5,-1690.96 729,-1680.96 725.5,-1690.96 732.5,-1690.96"/>
</g>
<!-- t4 -->
<g id="node5" class="node"><title>t4</title>
<polygon fill="#ebf3ff" stroke="#0044a0" points="611.593,-1554.03 729,-1526.67 846.407,-1554.03 846.297,-1598.3 611.703,-1598.3 611.593,-1554.03"/>
<polygon fill="none" stroke="#0044a0" points="607.586,-1550.85 729,-1522.55 850.414,-1550.85 850.286,-1602.31 607.714,-1602.31 607.586,-1550.85"/>
<text text-anchor="middle" x="729" y="-1560.26" font-family="Times,serif" font-size="20.00" fill="#0044a0">mergeFilteringStats</text>
</g>
<!-- t2&#45;&gt;t4 -->
<g id="edge3" class="edge"><title>t2&#45;&gt;t4</title>
<path fill="none" stroke="#0044a0" d="M729,-1644.36C729,-1635.39 729,-1623.98 729,-1612.7"/>
<polygon fill="#0044a0" stroke="#0044a0" points="732.5,-1612.46 729,-1602.46 725.5,-1612.46 732.5,-1612.46"/>
</g>
<!-- t6 -->
<g id="node7" class="node"><title>t6</title>
<polygon fill="#ebf3ff" stroke="#0044a0" points="872.078,-1554.03 1003,-1526.69 1133.92,-1554.03 1133.8,-1598.28 872.2,-1598.28 872.078,-1554.03"/>
<polygon fill="none" stroke="#0044a0" points="868.07,-1550.78 1003,-1522.59 1137.93,-1550.78 1137.79,-1602.29 868.212,-1602.29 868.07,-1550.78"/>
<text text-anchor="middle" x="1003" y="-1560.26" font-family="Times,serif" font-size="20.00" fill="#0044a0">mergeFilteringChecks</text>
</g>
<!-- t2&#45;&gt;t6 -->
<g id="edge6" class="edge"><title>t2&#45;&gt;t6</title>
<path fill="none" stroke="#0044a0" d="M778.619,-1644.58C810.11,-1633.73 852.171,-1619.23 891.364,-1605.73"/>
<polygon fill="#0044a0" stroke="#0044a0" points="892.943,-1608.89 901.258,-1602.32 890.663,-1602.27 892.943,-1608.89"/>
</g>
<!-- t9 -->
<g id="node9" class="node"><title>t9</title>
<polygon fill="none" stroke="#0044a0" stroke-dasharray="5,2" points="118.145,-1584.26 19.8554,-1584.26 15.8554,-1580.26 15.8554,-1548.26 114.145,-1548.26 118.145,-1552.26 118.145,-1584.26"/>
<polyline fill="none" stroke="#0044a0" stroke-dasharray="5,2" points="114.145,-1580.26 15.8554,-1580.26 "/>
<polyline fill="none" stroke="#0044a0" stroke-dasharray="5,2" points="114.145,-1580.26 114.145,-1548.26 "/>
<polyline fill="none" stroke="#0044a0" stroke-dasharray="5,2" points="114.145,-1580.26 118.145,-1584.26 "/>
<text text-anchor="middle" x="67" y="-1560.26" font-family="Times,serif" font-size="20.00" fill="#0044a0">getIdxstats</text>
</g>
<!-- t2&#45;&gt;t9 -->
<g id="edge9" class="edge"><title>t2&#45;&gt;t9</title>
<path fill="none" stroke="#0044a0" d="M655.374,-1660.15C516.698,-1656.51 222.157,-1644.79 127,-1609.87 115.126,-1605.51 103.463,-1598.16 93.6229,-1590.77"/>
<polygon fill="#0044a0" stroke="#0044a0" points="95.5032,-1587.79 85.4858,-1584.34 91.1654,-1593.29 95.5032,-1587.79"/>
</g>
<!-- t11 -->
<g id="node11" class="node"><title>t11</title>
<polygon fill="none" stroke="#0044a0" stroke-dasharray="5,2" points="589.596,-1584.26 446.404,-1584.26 442.404,-1580.26 442.404,-1548.26 585.596,-1548.26 589.596,-1552.26 589.596,-1584.26"/>
<polyline fill="none" stroke="#0044a0" stroke-dasharray="5,2" points="585.596,-1580.26 442.404,-1580.26 "/>
<polyline fill="none" stroke="#0044a0" stroke-dasharray="5,2" points="585.596,-1580.26 585.596,-1548.26 "/>
<polyline fill="none" stroke="#0044a0" stroke-dasharray="5,2" points="585.596,-1580.26 589.596,-1584.26 "/>
<text text-anchor="middle" x="516" y="-1560.26" font-family="Times,serif" font-size="20.00" fill="#0044a0">buildPicardStats</text>
</g>
<!-- t2&#45;&gt;t11 -->
<g id="edge12" class="edge"><title>t2&#45;&gt;t11</title>
<path fill="none" stroke="#0044a0" d="M683.131,-1644.62C658.035,-1634.98 626.535,-1622.39 599,-1609.87 584.983,-1603.5 569.931,-1595.98 556.546,-1589.05"/>
<polygon fill="#0044a0" stroke="#0044a0" points="558.063,-1585.9 547.578,-1584.37 554.822,-1592.1 558.063,-1585.9"/>
</g>
<!-- t8 -->
<g id="node13" class="node"><title>t8</title>
<polygon fill="none" stroke="#0044a0" stroke-dasharray="5,2" points="424.18,-1584.26 139.82,-1584.26 135.82,-1580.26 135.82,-1548.26 420.18,-1548.26 424.18,-1552.26 424.18,-1584.26"/>
<polyline fill="none" stroke="#0044a0" stroke-dasharray="5,2" points="420.18,-1580.26 135.82,-1580.26 "/>
<polyline fill="none" stroke="#0044a0" stroke-dasharray="5,2" points="420.18,-1580.26 420.18,-1548.26 "/>
<polyline fill="none" stroke="#0044a0" stroke-dasharray="5,2" points="420.18,-1580.26 424.18,-1584.26 "/>
<text text-anchor="middle" x="280" y="-1560.26" font-family="Times,serif" font-size="20.00" fill="#0044a0">loadFragmentLengthDistributions</text>
</g>
<!-- t2&#45;&gt;t8 -->
<g id="edge15" class="edge"><title>t2&#45;&gt;t8</title>
<path fill="none" stroke="#0044a0" d="M655.311,-1650.84C595.179,-1641.51 508.182,-1626.87 433,-1609.87 404.137,-1603.34 372.585,-1594.8 345.671,-1587.08"/>
<polygon fill="#0044a0" stroke="#0044a0" points="346.557,-1583.69 335.979,-1584.28 344.613,-1590.42 346.557,-1583.69"/>
</g>
<!-- t17 -->
<g id="node17" class="node"><title>t17</title>
<polygon fill="none" stroke="#0044a0" stroke-dasharray="5,2" points="1318.14,-1584.26 1159.86,-1584.26 1155.86,-1580.26 1155.86,-1548.26 1314.14,-1548.26 1318.14,-1552.26 1318.14,-1584.26"/>
<polyline fill="none" stroke="#0044a0" stroke-dasharray="5,2" points="1314.14,-1580.26 1155.86,-1580.26 "/>
<polyline fill="none" stroke="#0044a0" stroke-dasharray="5,2" points="1314.14,-1580.26 1314.14,-1548.26 "/>
<polyline fill="none" stroke="#0044a0" stroke-dasharray="5,2" points="1314.14,-1580.26 1318.14,-1584.26 "/>
<text text-anchor="middle" x="1237" y="-1560.26" font-family="Times,serif" font-size="20.00" fill="#0044a0">makePseudoBams</text>
</g>
<!-- t2&#45;&gt;t17 -->
<g id="edge23" class="edge"><title>t2&#45;&gt;t17</title>
<path fill="none" stroke="#0044a0" d="M802.846,-1648.13C835.059,-1642.55 873.318,-1636.35 908,-1631.87 1013.79,-1618.21 1044.11,-1638.01 1147,-1609.87 1164.54,-1605.08 1182.86,-1597.03 1198.35,-1589.21"/>
<polygon fill="#0044a0" stroke="#0044a0" points="1200.34,-1592.12 1207.6,-1584.41 1197.12,-1585.91 1200.34,-1592.12"/>
</g>
<!-- t15 -->
<g id="node24" class="node"><title>t15</title>
<polygon fill="none" stroke="#0044a0" stroke-dasharray="5,2" points="1497.42,-1584.26 1340.58,-1584.26 1336.58,-1580.26 1336.58,-1548.26 1493.42,-1548.26 1497.42,-1552.26 1497.42,-1584.26"/>
<polyline fill="none" stroke="#0044a0" stroke-dasharray="5,2" points="1493.42,-1580.26 1336.58,-1580.26 "/>
<polyline fill="none" stroke="#0044a0" stroke-dasharray="5,2" points="1493.42,-1580.26 1493.42,-1548.26 "/>
<polyline fill="none" stroke="#0044a0" stroke-dasharray="5,2" points="1493.42,-1580.26 1497.42,-1584.26 "/>
<text text-anchor="middle" x="1417" y="-1560.26" font-family="Times,serif" font-size="20.00" fill="#0044a0">makePooledBams</text>
</g>
<!-- t2&#45;&gt;t15 -->
<g id="edge29" class="edge"><title>t2&#45;&gt;t15</title>
<path fill="none" stroke="#0044a0" d="M802.768,-1647.47C834.967,-1641.77 873.237,-1635.67 908,-1631.87 1093.38,-1611.64 1146.19,-1655.52 1327,-1609.87 1345.07,-1605.31 1363.89,-1597.03 1379.62,-1588.97"/>
<polygon fill="#0044a0" stroke="#0044a0" points="1381.28,-1592.05 1388.49,-1584.29 1378.01,-1585.86 1381.28,-1592.05"/>
</g>
<!-- t69 -->
<g id="node3" class="node"><title>t69</title>
<polygon fill="#ebf3ff" stroke="#0044a0" points="1108.08,-1771.47 879.918,-1771.47 875.918,-1767.47 875.918,-1715.47 1104.08,-1715.47 1108.08,-1719.47 1108.08,-1771.47"/>
<polyline fill="none" stroke="#0044a0" points="1104.08,-1767.47 875.918,-1767.47 "/>
<polyline fill="none" stroke="#0044a0" points="1104.08,-1767.47 1104.08,-1715.47 "/>
<polyline fill="none" stroke="#0044a0" points="1104.08,-1767.47 1108.08,-1771.47 "/>
<text text-anchor="middle" x="992" y="-1749.47" font-family="Times,serif" font-size="20.00" fill="#0044a0">mkdir(&#39;filtered_bams.dir&#39;) </text>
<text text-anchor="middle" x="992" y="-1725.47" font-family="Times,serif" font-size="20.00" fill="#0044a0">before filterInputBAMs </text>
</g>
<!-- t1 -->
<g id="node4" class="node"><title>t1</title>
<polygon fill="none" stroke="#0044a0" stroke-dasharray="5,2" points="1067.42,-1680.67 920.583,-1680.67 916.583,-1676.67 916.583,-1644.67 1063.42,-1644.67 1067.42,-1648.67 1067.42,-1680.67"/>
<polyline fill="none" stroke="#0044a0" stroke-dasharray="5,2" points="1063.42,-1676.67 916.583,-1676.67 "/>
<polyline fill="none" stroke="#0044a0" stroke-dasharray="5,2" points="1063.42,-1676.67 1063.42,-1644.67 "/>
<polyline fill="none" stroke="#0044a0" stroke-dasharray="5,2" points="1063.42,-1676.67 1067.42,-1680.67 "/>
<text text-anchor="middle" x="992" y="-1656.67" font-family="Times,serif" font-size="20.00" fill="#0044a0">filterInputBAMs</text>
</g>
<!-- t69&#45;&gt;t1 -->
<g id="edge2" class="edge"><title>t69&#45;&gt;t1</title>
<path fill="none" stroke="#0044a0" d="M992,-1715.35C992,-1707.52 992,-1698.96 992,-1691.11"/>
<polygon fill="#0044a0" stroke="#0044a0" points="995.5,-1690.96 992,-1680.96 988.5,-1690.96 995.5,-1690.96"/>
</g>
<!-- t1&#45;&gt;t4 -->
<g id="edge4" class="edge"><title>t1&#45;&gt;t4</title>
<path fill="none" stroke="#0044a0" d="M944.373,-1644.58C914.146,-1633.73 873.773,-1619.23 836.155,-1605.73"/>
<polygon fill="#0044a0" stroke="#0044a0" points="837.252,-1602.4 826.658,-1602.32 834.887,-1608.99 837.252,-1602.4"/>
</g>
<!-- t1&#45;&gt;t6 -->
<g id="edge7" class="edge"><title>t1&#45;&gt;t6</title>
<path fill="none" stroke="#0044a0" d="M994.018,-1644.36C995.062,-1635.39 996.392,-1623.98 997.706,-1612.7"/>
<polygon fill="#0044a0" stroke="#0044a0" points="1001.22,-1612.8 998.899,-1602.46 994.265,-1611.99 1001.22,-1612.8"/>
</g>
<!-- t1&#45;&gt;t9 -->
<g id="edge10" class="edge"><title>t1&#45;&gt;t9</title>
<path fill="none" stroke="#0044a0" d="M916.537,-1646.9C884.439,-1641.21 846.518,-1635.27 812,-1631.87 736.216,-1624.41 199.169,-1634.17 127,-1609.87 114.798,-1605.76 102.904,-1598.29 92.9669,-1590.73"/>
<polygon fill="#0044a0" stroke="#0044a0" points="95.1079,-1587.96 85.1164,-1584.44 90.7293,-1593.42 95.1079,-1587.96"/>
</g>
<!-- t1&#45;&gt;t11 -->
<g id="edge13" class="edge"><title>t1&#45;&gt;t11</title>
<path fill="none" stroke="#0044a0" d="M916.397,-1648.1C884.277,-1642.61 846.376,-1636.49 812,-1631.87 717.676,-1619.2 690.235,-1636.96 599,-1609.87 582.823,-1605.07 566.067,-1597.12 551.883,-1589.38"/>
<polygon fill="#0044a0" stroke="#0044a0" points="553.395,-1586.21 542.964,-1584.36 549.961,-1592.31 553.395,-1586.21"/>
</g>
<!-- t1&#45;&gt;t8 -->
<g id="edge16" class="edge"><title>t1&#45;&gt;t8</title>
<path fill="none" stroke="#0044a0" d="M916.491,-1647.34C884.385,-1641.72 846.471,-1635.71 812,-1631.87 644.311,-1613.18 599.442,-1637.55 433,-1609.87 401.978,-1604.71 368.229,-1595.69 340.341,-1587.28"/>
<polygon fill="#0044a0" stroke="#0044a0" points="341.322,-1583.92 330.735,-1584.33 339.27,-1590.61 341.322,-1583.92"/>
</g>
<!-- t18 -->
<g id="node23" class="node"><title>t18</title>
<polygon fill="none" stroke="#0044a0" stroke-dasharray="5,2" points="1899.52,-1584.26 1722.48,-1584.26 1718.48,-1580.26 1718.48,-1548.26 1895.52,-1548.26 1899.52,-1552.26 1899.52,-1584.26"/>
<polyline fill="none" stroke="#0044a0" stroke-dasharray="5,2" points="1895.52,-1580.26 1718.48,-1580.26 "/>
<polyline fill="none" stroke="#0044a0" stroke-dasharray="5,2" points="1895.52,-1580.26 1895.52,-1548.26 "/>
<polyline fill="none" stroke="#0044a0" stroke-dasharray="5,2" points="1895.52,-1580.26 1899.52,-1584.26 "/>
<text text-anchor="middle" x="1809" y="-1560.26" font-family="Times,serif" font-size="20.00" fill="#0044a0">makeIDRInputBams</text>
</g>
<!-- t1&#45;&gt;t18 -->
<g id="edge28" class="edge"><title>t1&#45;&gt;t18</title>
<path fill="none" stroke="#0044a0" d="M1041.24,-1644.61C1057.8,-1639.59 1076.52,-1634.7 1094,-1631.87 1361.82,-1588.61 1438.72,-1666.63 1704,-1609.87 1725.23,-1605.33 1747.67,-1596.79 1766.33,-1588.53"/>
<polygon fill="#0044a0" stroke="#0044a0" points="1767.78,-1591.72 1775.44,-1584.4 1764.89,-1585.35 1767.78,-1591.72"/>
</g>
<!-- t16 -->
<g id="node25" class="node"><title>t16</title>
<polygon fill="none" stroke="#0044a0" stroke-dasharray="5,2" points="1680.36,-1584.26 1519.64,-1584.26 1515.64,-1580.26 1515.64,-1548.26 1676.36,-1548.26 1680.36,-1552.26 1680.36,-1584.26"/>
<polyline fill="none" stroke="#0044a0" stroke-dasharray="5,2" points="1676.36,-1580.26 1515.64,-1580.26 "/>
<polyline fill="none" stroke="#0044a0" stroke-dasharray="5,2" points="1676.36,-1580.26 1676.36,-1548.26 "/>
<polyline fill="none" stroke="#0044a0" stroke-dasharray="5,2" points="1676.36,-1580.26 1680.36,-1584.26 "/>
<text text-anchor="middle" x="1598" y="-1560.26" font-family="Times,serif" font-size="20.00" fill="#0044a0">makePooledInputs</text>
</g>
<!-- t1&#45;&gt;t16 -->
<g id="edge30" class="edge"><title>t1&#45;&gt;t16</title>
<path fill="none" stroke="#0044a0" d="M1041.79,-1644.63C1058.22,-1639.68 1076.72,-1634.82 1094,-1631.87 1274.77,-1601.07 1328.04,-1654.09 1506,-1609.87 1524.42,-1605.29 1543.65,-1597.01 1559.73,-1588.96"/>
<polygon fill="#0044a0" stroke="#0044a0" points="1561.53,-1591.97 1568.81,-1584.28 1558.32,-1585.75 1561.53,-1591.97"/>
</g>
<!-- t19 -->
<g id="node26" class="node"><title>t19</title>
<polygon fill="#ebf3ff" stroke="#0044a0" points="1541.34,-1474.91 1360.66,-1474.91 1356.66,-1470.91 1356.66,-1438.91 1537.34,-1438.91 1541.34,-1442.91 1541.34,-1474.91"/>
<polyline fill="none" stroke="#0044a0" points="1537.34,-1470.91 1356.66,-1470.91 "/>
<polyline fill="none" stroke="#0044a0" points="1537.34,-1470.91 1537.34,-1438.91 "/>
<polyline fill="none" stroke="#0044a0" points="1537.34,-1470.91 1541.34,-1474.91 "/>
<text text-anchor="middle" x="1449" y="-1450.91" font-family="Times,serif" font-size="20.00" fill="#0044a0">makeBamInputTable</text>
</g>
<!-- t1&#45;&gt;t19 -->
<g id="edge35" class="edge"><title>t1&#45;&gt;t19</title>
<path fill="none" stroke="#0044a0" d="M1041.24,-1644.62C1057.8,-1639.6 1076.52,-1634.7 1094,-1631.87 1126.65,-1626.58 1666.05,-1633.69 1689,-1609.87 1715.9,-1581.96 1712.57,-1553.43 1689,-1522.66 1671.7,-1500.07 1608.54,-1483.57 1551.35,-1472.88"/>
<polygon fill="#0044a0" stroke="#0044a0" points="1551.97,-1469.44 1541.5,-1471.09 1550.71,-1476.32 1551.97,-1469.44"/>
</g>
<!-- t5 -->
<g id="node6" class="node"><title>t5</title>
<polygon fill="#ebf3ff" stroke="#0044a0" points="622.097,-1444.67 729,-1417.29 835.903,-1444.67 835.803,-1488.96 622.197,-1488.96 622.097,-1444.67"/>
<polygon fill="none" stroke="#0044a0" points="618.092,-1441.55 729,-1413.15 839.908,-1441.55 839.792,-1492.97 618.208,-1492.97 618.092,-1441.55"/>
<text text-anchor="middle" x="729" y="-1450.91" font-family="Times,serif" font-size="20.00" fill="#0044a0">loadFilteringStats</text>
</g>
<!-- t4&#45;&gt;t5 -->
<g id="edge5" class="edge"><title>t4&#45;&gt;t5</title>
<path fill="none" stroke="#0044a0" d="M729,-1522.53C729,-1516.31 729,-1509.89 729,-1503.61"/>
<polygon fill="#0044a0" stroke="#0044a0" points="732.5,-1503.26 729,-1493.26 725.5,-1503.26 732.5,-1503.26"/>
</g>
<!-- t13 -->
<g id="node14" class="node"><title>t13</title>
<polygon fill="#ebf3ff" stroke="#0044a0" points="682.427,-1365.52 605.573,-1365.52 601.573,-1361.52 601.573,-1329.52 678.427,-1329.52 682.427,-1333.52 682.427,-1365.52"/>
<polyline fill="none" stroke="#0044a0" points="678.427,-1361.52 601.573,-1361.52 "/>
<polyline fill="none" stroke="#0044a0" points="678.427,-1361.52 678.427,-1329.52 "/>
<polyline fill="none" stroke="#0044a0" points="678.427,-1361.52 682.427,-1365.52 "/>
<text text-anchor="middle" x="642" y="-1341.52" font-family="Times,serif" font-size="20.00" fill="#0044a0">filtering</text>
</g>
<!-- t5&#45;&gt;t13 -->
<g id="edge21" class="edge"><title>t5&#45;&gt;t13</title>
<path fill="none" stroke="#0044a0" d="M700.272,-1420.45C687.894,-1405.17 673.704,-1387.66 662.427,-1373.74"/>
<polygon fill="#0044a0" stroke="#0044a0" points="664.838,-1371.15 655.824,-1365.59 659.399,-1375.56 664.838,-1371.15"/>
</g>
<!-- t7 -->
<g id="node8" class="node"><title>t7</title>
<polygon fill="#ebf3ff" stroke="#0044a0" points="1036.19,-1474.91 861.806,-1474.91 857.806,-1470.91 857.806,-1438.91 1032.19,-1438.91 1036.19,-1442.91 1036.19,-1474.91"/>
<polyline fill="none" stroke="#0044a0" points="1032.19,-1470.91 857.806,-1470.91 "/>
<polyline fill="none" stroke="#0044a0" points="1032.19,-1470.91 1032.19,-1438.91 "/>
<polyline fill="none" stroke="#0044a0" points="1032.19,-1470.91 1036.19,-1474.91 "/>
<text text-anchor="middle" x="947" y="-1450.91" font-family="Times,serif" font-size="20.00" fill="#0044a0">loadFilteringChecks</text>
</g>
<!-- t6&#45;&gt;t7 -->
<g id="edge8" class="edge"><title>t6&#45;&gt;t7</title>
<path fill="none" stroke="#0044a0" d="M982.783,-1526.51C975.443,-1512.44 967.328,-1496.88 960.684,-1484.14"/>
<polygon fill="#0044a0" stroke="#0044a0" points="963.656,-1482.27 955.928,-1475.02 957.449,-1485.51 963.656,-1482.27"/>
</g>
<!-- t7&#45;&gt;t13 -->
<g id="edge20" class="edge"><title>t7&#45;&gt;t13</title>
<path fill="none" stroke="#0044a0" d="M913.821,-1438.73C895.22,-1429.8 871.332,-1419.46 849,-1413.16 780.761,-1393.92 755.528,-1420.54 691,-1391.16 681.301,-1386.74 672.086,-1379.78 664.319,-1372.75"/>
<polygon fill="#0044a0" stroke="#0044a0" points="666.707,-1370.19 657.07,-1365.79 661.859,-1375.24 666.707,-1370.19"/>
</g>
<!-- t10 -->
<g id="node10" class="node"><title>t10</title>
<polygon fill="#ebf3ff" stroke="#0044a0" points="66.7141,-1444.63 143,-1417.18 219.286,-1444.63 219.215,-1489.05 66.7853,-1489.05 66.7141,-1444.63"/>
<polygon fill="none" stroke="#0044a0" points="62.7022,-1441.8 143,-1412.91 223.298,-1441.8 223.216,-1493.07 62.7844,-1493.07 62.7022,-1441.8"/>
<text text-anchor="middle" x="143" y="-1450.91" font-family="Times,serif" font-size="20.00" fill="#0044a0">loadIdxstats</text>
</g>
<!-- t9&#45;&gt;t10 -->
<g id="edge11" class="edge"><title>t9&#45;&gt;t10</title>
<path fill="none" stroke="#0044a0" d="M79.2107,-1548.02C88.0721,-1535.5 100.476,-1517.98 111.993,-1501.71"/>
<polygon fill="#0044a0" stroke="#0044a0" points="114.989,-1503.53 117.911,-1493.35 109.276,-1499.49 114.989,-1503.53"/>
</g>
<!-- t10&#45;&gt;t13 -->
<g id="edge18" class="edge"><title>t10&#45;&gt;t13</title>
<path fill="none" stroke="#0044a0" d="M215.691,-1439.05C250.539,-1431.05 292.897,-1421.45 331,-1413.16 422.88,-1393.17 530.332,-1371.13 591.854,-1358.65"/>
<polygon fill="#0044a0" stroke="#0044a0" points="592.586,-1362.07 601.691,-1356.65 591.195,-1355.21 592.586,-1362.07"/>
</g>
<!-- t12 -->
<g id="node12" class="node"><title>t12</title>
<polygon fill="#ebf3ff" stroke="#0044a0" points="406.156,-1444.66 501,-1417.26 595.844,-1444.66 595.755,-1488.98 406.245,-1488.98 406.156,-1444.66"/>
<polygon fill="none" stroke="#0044a0" points="402.153,-1441.64 501,-1413.08 599.847,-1441.64 599.744,-1493 402.256,-1493 402.153,-1441.64"/>
<text text-anchor="middle" x="501" y="-1450.91" font-family="Times,serif" font-size="20.00" fill="#0044a0">loadPicardStats</text>
</g>
<!-- t11&#45;&gt;t12 -->
<g id="edge14" class="edge"><title>t11&#45;&gt;t12</title>
<path fill="none" stroke="#0044a0" d="M513.59,-1548.02C511.905,-1535.96 509.572,-1519.26 507.371,-1503.51"/>
<polygon fill="#0044a0" stroke="#0044a0" points="510.802,-1502.77 505.952,-1493.35 503.869,-1503.74 510.802,-1502.77"/>
</g>
<!-- t12&#45;&gt;t13 -->
<g id="edge17" class="edge"><title>t12&#45;&gt;t13</title>
<path fill="none" stroke="#0044a0" d="M541.783,-1424.85C563.943,-1407.97 590.898,-1387.44 611.269,-1371.93"/>
<polygon fill="#0044a0" stroke="#0044a0" points="613.45,-1374.67 619.285,-1365.82 609.209,-1369.1 613.45,-1374.67"/>
</g>
<!-- t8&#45;&gt;t13 -->
<g id="edge19" class="edge"><title>t8&#45;&gt;t13</title>
<path fill="none" stroke="#0044a0" d="M287.835,-1548.12C303.247,-1516.37 340.619,-1448.45 393,-1413.16 453.42,-1372.45 537.942,-1357.38 591.318,-1351.8"/>
<polygon fill="#0044a0" stroke="#0044a0" points="591.946,-1355.25 601.561,-1350.8 591.27,-1348.29 591.946,-1355.25"/>
</g>
<!-- t24 -->
<g id="node28" class="node"><title>t24</title>
<polygon fill="none" stroke="#0044a0" stroke-dasharray="5,2" points="1321.56,-1213.89 1198.44,-1213.89 1194.44,-1209.89 1194.44,-1177.89 1317.56,-1177.89 1321.56,-1181.89 1321.56,-1213.89"/>
<polyline fill="none" stroke="#0044a0" stroke-dasharray="5,2" points="1317.56,-1209.89 1194.44,-1209.89 "/>
<polyline fill="none" stroke="#0044a0" stroke-dasharray="5,2" points="1317.56,-1209.89 1317.56,-1177.89 "/>
<polyline fill="none" stroke="#0044a0" stroke-dasharray="5,2" points="1317.56,-1209.89 1321.56,-1213.89 "/>
<text text-anchor="middle" x="1258" y="-1189.89" font-family="Times,serif" font-size="20.00" fill="#0044a0">preprocessing</text>
</g>
<!-- t13&#45;&gt;t24 -->
<g id="edge40" class="edge"><title>t13&#45;&gt;t24</title>
<path fill="none" stroke="#0044a0" d="M656.445,-1329.22C665.343,-1319.89 677.593,-1309.23 691,-1303.89 744.098,-1282.72 1155.62,-1310.69 1205,-1281.89 1210.93,-1278.43 1229.74,-1246.85 1243.26,-1223.19"/>
<polygon fill="#0044a0" stroke="#0044a0" points="1246.43,-1224.69 1248.32,-1214.27 1240.34,-1221.24 1246.43,-1224.69"/>
</g>
<!-- t47 -->
<g id="node56" class="node"><title>t47</title>
<polygon fill="#efa03b" stroke="black" points="1062,-52 1012,-52 1008,-48 1008,-16 1058,-16 1062,-20 1062,-52"/>
<polyline fill="none" stroke="black" points="1058,-48 1008,-48 "/>
<polyline fill="none" stroke="black" points="1058,-48 1058,-16 "/>
<polyline fill="none" stroke="black" points="1058,-48 1062,-52 "/>
<text text-anchor="middle" x="1035" y="-28" font-family="Times,serif" font-size="20.00">full</text>
</g>
<!-- t13&#45;&gt;t47 -->
<g id="edge85" class="edge"><title>t13&#45;&gt;t47</title>
<path fill="none" stroke="#0044a0" d="M661.723,-1329.35C689.022,-1303.56 735,-1251.95 735,-1196.89 735,-1196.89 735,-1196.89 735,-174.963 735,-60.2816 917.266,-39.3436 997.661,-35.6862"/>
<polygon fill="#0044a0" stroke="#0044a0" points="997.991,-39.1762 1007.85,-35.2912 997.72,-32.1814 997.991,-39.1762"/>
</g>
<!-- t59 -->
<g id="node15" class="node"><title>t59</title>
<polygon fill="#ebf3ff" stroke="#0044a0" points="1880.29,-1223.89 1679.71,-1223.89 1675.71,-1219.89 1675.71,-1167.89 1876.29,-1167.89 1880.29,-1171.89 1880.29,-1223.89"/>
<polyline fill="none" stroke="#0044a0" points="1876.29,-1219.89 1675.71,-1219.89 "/>
<polyline fill="none" stroke="#0044a0" points="1876.29,-1219.89 1876.29,-1167.89 "/>
<polyline fill="none" stroke="#0044a0" points="1876.29,-1219.89 1880.29,-1223.89 "/>
<text text-anchor="middle" x="1778" y="-1201.89" font-family="Times,serif" font-size="20.00" fill="#0044a0">mkdir(&#39;macs2.dir&#39;) </text>
<text text-anchor="middle" x="1778" y="-1177.89" font-family="Times,serif" font-size="20.00" fill="#0044a0">before callMacs2peaks </text>
</g>
<!-- t25 -->
<g id="node29" class="node"><title>t25</title>
<polygon fill="none" stroke="#0044a0" stroke-dasharray="5,2" points="1561.72,-1145.89 1422.28,-1145.89 1418.28,-1141.89 1418.28,-1109.89 1557.72,-1109.89 1561.72,-1113.89 1561.72,-1145.89"/>
<polyline fill="none" stroke="#0044a0" stroke-dasharray="5,2" points="1557.72,-1141.89 1418.28,-1141.89 "/>
<polyline fill="none" stroke="#0044a0" stroke-dasharray="5,2" points="1557.72,-1141.89 1557.72,-1109.89 "/>
<polyline fill="none" stroke="#0044a0" stroke-dasharray="5,2" points="1557.72,-1141.89 1561.72,-1145.89 "/>
<text text-anchor="middle" x="1490" y="-1121.89" font-family="Times,serif" font-size="20.00" fill="#0044a0">callMacs2peaks</text>
</g>
<!-- t59&#45;&gt;t25 -->
<g id="edge42" class="edge"><title>t59&#45;&gt;t25</title>
<path fill="none" stroke="#0044a0" d="M1675.51,-1169.87C1672.64,-1169.2 1669.8,-1168.54 1667,-1167.89 1636.02,-1160.71 1601.91,-1153.12 1571.97,-1146.56"/>
<polygon fill="#0044a0" stroke="#0044a0" points="1572.51,-1143.1 1561.99,-1144.38 1571.01,-1149.93 1572.51,-1143.1"/>
</g>
<!-- t63 -->
<g id="node16" class="node"><title>t63</title>
<polygon fill="#ebf3ff" stroke="#0044a0" points="1370.52,-1690.67 1107.48,-1690.67 1103.48,-1686.67 1103.48,-1634.67 1366.52,-1634.67 1370.52,-1638.67 1370.52,-1690.67"/>
<polyline fill="none" stroke="#0044a0" points="1366.52,-1686.67 1103.48,-1686.67 "/>
<polyline fill="none" stroke="#0044a0" points="1366.52,-1686.67 1366.52,-1634.67 "/>
<polyline fill="none" stroke="#0044a0" points="1366.52,-1686.67 1370.52,-1690.67 "/>
<text text-anchor="middle" x="1237" y="-1668.67" font-family="Times,serif" font-size="20.00" fill="#0044a0">mkdir(&#39;peakcalling_bams.dir&#39;) </text>
<text text-anchor="middle" x="1237" y="-1644.67" font-family="Times,serif" font-size="20.00" fill="#0044a0">before makePseudoBams </text>
</g>
<!-- t63&#45;&gt;t17 -->
<g id="edge22" class="edge"><title>t63&#45;&gt;t17</title>
<path fill="none" stroke="#0044a0" d="M1237,-1634.62C1237,-1622.14 1237,-1607.36 1237,-1594.82"/>
<polygon fill="#0044a0" stroke="#0044a0" points="1240.5,-1594.5 1237,-1584.5 1233.5,-1594.5 1240.5,-1594.5"/>
</g>
<!-- t21 -->
<g id="node18" class="node"><title>t21</title>
<polygon fill="none" stroke="#0044a0" stroke-dasharray="5,2" points="1216.11,-1474.91 1057.89,-1474.91 1053.89,-1470.91 1053.89,-1438.91 1212.11,-1438.91 1216.11,-1442.91 1216.11,-1474.91"/>
<polyline fill="none" stroke="#0044a0" stroke-dasharray="5,2" points="1212.11,-1470.91 1053.89,-1470.91 "/>
<polyline fill="none" stroke="#0044a0" stroke-dasharray="5,2" points="1212.11,-1470.91 1212.11,-1438.91 "/>
<polyline fill="none" stroke="#0044a0" stroke-dasharray="5,2" points="1212.11,-1470.91 1216.11,-1474.91 "/>
<text text-anchor="middle" x="1135" y="-1450.91" font-family="Times,serif" font-size="20.00" fill="#0044a0">estimateInsertSize</text>
</g>
<!-- t17&#45;&gt;t21 -->
<g id="edge24" class="edge"><title>t17&#45;&gt;t21</title>
<path fill="none" stroke="#0044a0" d="M1220.61,-1548.02C1203.73,-1530.25 1177.28,-1502.41 1158.24,-1482.37"/>
<polygon fill="#0044a0" stroke="#0044a0" points="1160.77,-1479.95 1151.35,-1475.11 1155.7,-1484.78 1160.77,-1479.95"/>
</g>
<!-- t17&#45;&gt;t19 -->
<g id="edge32" class="edge"><title>t17&#45;&gt;t19</title>
<path fill="none" stroke="#0044a0" d="M1270.59,-1548.25C1307.31,-1529.66 1366.24,-1499.82 1406.23,-1479.57"/>
<polygon fill="#0044a0" stroke="#0044a0" points="1407.87,-1482.66 1415.21,-1475.02 1404.71,-1476.41 1407.87,-1482.66"/>
</g>
<!-- t17&#45;&gt;t24 -->
<g id="edge39" class="edge"><title>t17&#45;&gt;t24</title>
<path fill="none" stroke="#0044a0" d="M1236.03,-1548.18C1233.61,-1500.22 1228.61,-1360.37 1245,-1245.89 1246.04,-1238.63 1247.78,-1230.91 1249.65,-1223.79"/>
<polygon fill="#0044a0" stroke="#0044a0" points="1253.09,-1224.49 1252.43,-1213.92 1246.35,-1222.6 1253.09,-1224.49"/>
</g>
<!-- t22 -->
<g id="node19" class="node"><title>t22</title>
<polygon fill="#ebf3ff" stroke="#0044a0" points="704.18,-1335.28 808,-1307.9 911.82,-1335.28 911.723,-1379.58 704.277,-1379.58 704.18,-1335.28"/>
<polygon fill="none" stroke="#0044a0" points="700.176,-1332.19 808,-1303.75 915.824,-1332.19 915.711,-1383.59 700.289,-1383.59 700.176,-1332.19"/>
<text text-anchor="middle" x="808" y="-1341.52" font-family="Times,serif" font-size="20.00" fill="#0044a0">mergeInsertSizes</text>
</g>
<!-- t21&#45;&gt;t22 -->
<g id="edge25" class="edge"><title>t21&#45;&gt;t22</title>
<path fill="none" stroke="#0044a0" d="M1104.15,-1438.85C1087.14,-1430.07 1065.39,-1419.83 1045,-1413.16 995.542,-1396.98 980.254,-1404.67 930,-1391.16 924.719,-1389.74 919.337,-1388.2 913.922,-1386.59"/>
<polygon fill="#0044a0" stroke="#0044a0" points="914.74,-1383.18 904.153,-1383.6 912.69,-1389.87 914.74,-1383.18"/>
</g>
<!-- t23 -->
<g id="node20" class="node"><title>t23</title>
<polygon fill="#ebf3ff" stroke="#0044a0" points="1020.18,-1281.89 885.824,-1281.89 881.824,-1277.89 881.824,-1245.89 1016.18,-1245.89 1020.18,-1249.89 1020.18,-1281.89"/>
<polyline fill="none" stroke="#0044a0" points="1016.18,-1277.89 881.824,-1277.89 "/>
<polyline fill="none" stroke="#0044a0" points="1016.18,-1277.89 1016.18,-1245.89 "/>
<polyline fill="none" stroke="#0044a0" points="1016.18,-1277.89 1020.18,-1281.89 "/>
<text text-anchor="middle" x="951" y="-1257.89" font-family="Times,serif" font-size="20.00" fill="#0044a0">loadInsertSizes</text>
</g>
<!-- t22&#45;&gt;t23 -->
<g id="edge26" class="edge"><title>t22&#45;&gt;t23</title>
<path fill="none" stroke="#0044a0" d="M859.626,-1317.05C877.042,-1307.11 896.166,-1296.19 912.397,-1286.93"/>
<polygon fill="#0044a0" stroke="#0044a0" points="914.139,-1289.96 921.088,-1281.96 910.668,-1283.88 914.139,-1289.96"/>
</g>
<!-- t23&#45;&gt;t24 -->
<g id="edge37" class="edge"><title>t23&#45;&gt;t24</title>
<path fill="none" stroke="#0044a0" d="M1020.16,-1248.58C1025.18,-1247.64 1030.16,-1246.73 1035,-1245.89 1101.38,-1234.31 1119.71,-1240.55 1185,-1223.89 1192.11,-1222.07 1199.49,-1219.81 1206.7,-1217.38"/>
<polygon fill="#0044a0" stroke="#0044a0" points="1208.12,-1220.59 1216.4,-1213.98 1205.8,-1213.98 1208.12,-1220.59"/>
</g>
<!-- t0 -->
<g id="node21" class="node"><title>t0</title>
<polygon fill="#ebf3ff" stroke="#0044a0" points="1196.12,-1281.89 1047.88,-1281.89 1043.88,-1277.89 1043.88,-1245.89 1192.12,-1245.89 1196.12,-1249.89 1196.12,-1281.89"/>
<polyline fill="none" stroke="#0044a0" points="1192.12,-1277.89 1043.88,-1277.89 "/>
<polyline fill="none" stroke="#0044a0" points="1192.12,-1277.89 1192.12,-1245.89 "/>
<polyline fill="none" stroke="#0044a0" points="1192.12,-1277.89 1196.12,-1281.89 "/>
<text text-anchor="middle" x="1120" y="-1257.89" font-family="Times,serif" font-size="20.00" fill="#0044a0">loadDesignTable</text>
</g>
<!-- t0&#45;&gt;t24 -->
<g id="edge41" class="edge"><title>t0&#45;&gt;t24</title>
<path fill="none" stroke="#0044a0" d="M1155.9,-1245.72C1173.39,-1237.36 1194.6,-1227.21 1213.14,-1218.34"/>
<polygon fill="#0044a0" stroke="#0044a0" points="1214.77,-1221.44 1222.28,-1213.97 1211.75,-1215.13 1214.77,-1221.44"/>
</g>
<!-- t68 -->
<g id="node22" class="node"><title>t68</title>
<polygon fill="#ebf3ff" stroke="#0044a0" points="1900.09,-1690.67 1661.91,-1690.67 1657.91,-1686.67 1657.91,-1634.67 1896.09,-1634.67 1900.09,-1638.67 1900.09,-1690.67"/>
<polyline fill="none" stroke="#0044a0" points="1896.09,-1686.67 1657.91,-1686.67 "/>
<polyline fill="none" stroke="#0044a0" points="1896.09,-1686.67 1896.09,-1634.67 "/>
<polyline fill="none" stroke="#0044a0" points="1896.09,-1686.67 1900.09,-1690.67 "/>
<text text-anchor="middle" x="1779" y="-1668.67" font-family="Times,serif" font-size="20.00" fill="#0044a0">mkdir(&#39;IDR_inputs.dir&#39;) </text>
<text text-anchor="middle" x="1779" y="-1644.67" font-family="Times,serif" font-size="20.00" fill="#0044a0">before makeIDRInputBams </text>
</g>
<!-- t68&#45;&gt;t18 -->
<g id="edge27" class="edge"><title>t68&#45;&gt;t18</title>
<path fill="none" stroke="#0044a0" d="M1787.6,-1634.62C1791.64,-1621.89 1796.45,-1606.76 1800.48,-1594.07"/>
<polygon fill="#0044a0" stroke="#0044a0" points="1803.83,-1595.09 1803.52,-1584.5 1797.16,-1592.97 1803.83,-1595.09"/>
</g>
<!-- t18&#45;&gt;t19 -->
<g id="edge31" class="edge"><title>t18&#45;&gt;t19</title>
<path fill="none" stroke="#0044a0" d="M1770.58,-1548.2C1750.9,-1539.84 1726.43,-1530.02 1704,-1522.66 1649.49,-1504.77 1587.09,-1488.85 1537.66,-1477.27"/>
<polygon fill="#0044a0" stroke="#0044a0" points="1538.17,-1473.8 1527.63,-1474.94 1536.58,-1480.62 1538.17,-1473.8"/>
</g>
<!-- t15&#45;&gt;t19 -->
<g id="edge34" class="edge"><title>t15&#45;&gt;t19</title>
<path fill="none" stroke="#0044a0" d="M1422.14,-1548.02C1427.23,-1530.96 1435.08,-1504.6 1440.99,-1484.79"/>
<polygon fill="#0044a0" stroke="#0044a0" points="1444.37,-1485.7 1443.87,-1475.11 1437.66,-1483.7 1444.37,-1485.7"/>
</g>
<!-- t16&#45;&gt;t19 -->
<g id="edge33" class="edge"><title>t16&#45;&gt;t19</title>
<path fill="none" stroke="#0044a0" d="M1574.39,-1548.25C1549.25,-1530.14 1509.31,-1501.37 1481.28,-1481.17"/>
<polygon fill="#0044a0" stroke="#0044a0" points="1483.15,-1478.2 1472.99,-1475.2 1479.06,-1483.88 1483.15,-1478.2"/>
</g>
<!-- t20 -->
<g id="node27" class="node"><title>t20</title>
<polygon fill="#ebf3ff" stroke="#0044a0" points="1429.96,-1281.89 1258.04,-1281.89 1254.04,-1277.89 1254.04,-1245.89 1425.96,-1245.89 1429.96,-1249.89 1429.96,-1281.89"/>
<polyline fill="none" stroke="#0044a0" points="1425.96,-1277.89 1254.04,-1277.89 "/>
<polyline fill="none" stroke="#0044a0" points="1425.96,-1277.89 1425.96,-1245.89 "/>
<polyline fill="none" stroke="#0044a0" points="1425.96,-1277.89 1429.96,-1281.89 "/>
<text text-anchor="middle" x="1342" y="-1257.89" font-family="Times,serif" font-size="20.00" fill="#0044a0">loadBamInputTable</text>
</g>
<!-- t19&#45;&gt;t20 -->
<g id="edge36" class="edge"><title>t19&#45;&gt;t20</title>
<path fill="none" stroke="#0044a0" d="M1439.32,-1438.62C1420.46,-1404.95 1378.71,-1330.43 1356.52,-1290.81"/>
<polygon fill="#0044a0" stroke="#0044a0" points="1359.53,-1289.01 1351.59,-1282 1353.42,-1292.44 1359.53,-1289.01"/>
</g>
<!-- t19&#45;&gt;t25 -->
<g id="edge44" class="edge"><title>t19&#45;&gt;t25</title>
<path fill="none" stroke="#0044a0" d="M1525.22,-1438.87C1680.82,-1400.86 2010.45,-1301.79 1889,-1167.89 1868.14,-1144.89 1682.53,-1135.01 1571.96,-1131.13"/>
<polygon fill="#0044a0" stroke="#0044a0" points="1571.94,-1127.62 1561.83,-1130.78 1571.7,-1134.62 1571.94,-1127.62"/>
</g>
<!-- t26 -->
<g id="node31" class="node"><title>t26</title>
<polygon fill="none" stroke="#0044a0" stroke-dasharray="5,2" points="1145.71,-1145.89 900.286,-1145.89 896.286,-1141.89 896.286,-1109.89 1141.71,-1109.89 1145.71,-1113.89 1145.71,-1145.89"/>
<polyline fill="none" stroke="#0044a0" stroke-dasharray="5,2" points="1141.71,-1141.89 896.286,-1141.89 "/>
<polyline fill="none" stroke="#0044a0" stroke-dasharray="5,2" points="1141.71,-1141.89 1141.71,-1109.89 "/>
<polyline fill="none" stroke="#0044a0" stroke-dasharray="5,2" points="1141.71,-1141.89 1145.71,-1145.89 "/>
<text text-anchor="middle" x="1021" y="-1121.89" font-family="Times,serif" font-size="20.00" fill="#0044a0">callNarrowerPeaksWithSicer</text>
</g>
<!-- t19&#45;&gt;t26 -->
<g id="edge47" class="edge"><title>t19&#45;&gt;t26</title>
<path fill="none" stroke="#0044a0" d="M1386.73,-1438.84C1241.56,-1398.8 891.481,-1300.82 873,-1281.89 837.263,-1245.27 825.282,-1208.03 857,-1167.89 863.085,-1160.19 877.241,-1153.84 894.82,-1148.68"/>
<polygon fill="#0044a0" stroke="#0044a0" points="896.183,-1151.93 904.909,-1145.92 894.341,-1145.18 896.183,-1151.93"/>
</g>
<!-- t27 -->
<g id="node33" class="node"><title>t27</title>
<polygon fill="none" stroke="#0044a0" stroke-dasharray="5,2" points="1400.52,-1145.89 1167.48,-1145.89 1163.48,-1141.89 1163.48,-1109.89 1396.52,-1109.89 1400.52,-1113.89 1400.52,-1145.89"/>
<polyline fill="none" stroke="#0044a0" stroke-dasharray="5,2" points="1396.52,-1141.89 1163.48,-1141.89 "/>
<polyline fill="none" stroke="#0044a0" stroke-dasharray="5,2" points="1396.52,-1141.89 1396.52,-1109.89 "/>
<polyline fill="none" stroke="#0044a0" stroke-dasharray="5,2" points="1396.52,-1141.89 1400.52,-1145.89 "/>
<text text-anchor="middle" x="1282" y="-1121.89" font-family="Times,serif" font-size="20.00" fill="#0044a0">callBroaderPeaksWithSicer</text>
</g>
<!-- t19&#45;&gt;t27 -->
<g id="edge50" class="edge"><title>t19&#45;&gt;t27</title>
<path fill="none" stroke="#0044a0" d="M1454.25,-1438.85C1465.15,-1399.74 1485.52,-1302.63 1439,-1245.89 1413.44,-1214.71 1380.87,-1250.96 1351,-1223.89 1331.42,-1206.14 1346.37,-1189.39 1331,-1167.89 1327.01,-1162.3 1322,-1157.1 1316.73,-1152.43"/>
<polygon fill="#0044a0" stroke="#0044a0" points="1318.84,-1149.64 1308.89,-1145.99 1314.39,-1155.04 1318.84,-1149.64"/>
</g>
<!-- t20&#45;&gt;t24 -->
<g id="edge38" class="edge"><title>t20&#45;&gt;t24</title>
<path fill="none" stroke="#0044a0" d="M1319.93,-1245.55C1310.19,-1237.89 1298.58,-1228.78 1288.07,-1220.51"/>
<polygon fill="#0044a0" stroke="#0044a0" points="1289.95,-1217.54 1279.92,-1214.11 1285.62,-1223.04 1289.95,-1217.54"/>
</g>
<!-- t24&#45;&gt;t25 -->
<g id="edge43" class="edge"><title>t24&#45;&gt;t25</title>
<path fill="none" stroke="#0044a0" d="M1316.52,-1177.81C1327.95,-1174.5 1339.84,-1171.07 1351,-1167.89 1373.05,-1161.59 1397.09,-1154.82 1418.89,-1148.71"/>
<polygon fill="#0044a0" stroke="#0044a0" points="1420.04,-1152.02 1428.73,-1145.95 1418.15,-1145.28 1420.04,-1152.02"/>
</g>
<!-- t24&#45;&gt;t26 -->
<g id="edge46" class="edge"><title>t24&#45;&gt;t26</title>
<path fill="none" stroke="#0044a0" d="M1214.67,-1177.89C1204.98,-1174.36 1194.7,-1170.82 1185,-1167.89 1161.24,-1160.7 1135.23,-1153.99 1111.05,-1148.24"/>
<polygon fill="#0044a0" stroke="#0044a0" points="1111.71,-1144.8 1101.18,-1145.91 1110.11,-1151.61 1111.71,-1144.8"/>
</g>
<!-- t24&#45;&gt;t27 -->
<g id="edge49" class="edge"><title>t24&#45;&gt;t27</title>
<path fill="none" stroke="#0044a0" d="M1264.31,-1177.55C1266.71,-1170.93 1269.52,-1163.22 1272.17,-1155.91"/>
<polygon fill="#0044a0" stroke="#0044a0" points="1275.52,-1156.94 1275.65,-1146.34 1268.95,-1154.54 1275.52,-1156.94"/>
</g>
<!-- t29 -->
<g id="node35" class="node"><title>t29</title>
<polygon fill="#ebf3ff" stroke="#0044a0" points="1077.55,-974.079 1213,-946.735 1348.45,-974.079 1348.32,-1018.32 1077.68,-1018.32 1077.55,-974.079"/>
<polygon fill="none" stroke="#0044a0" points="1073.54,-970.801 1213,-942.647 1352.46,-970.801 1352.31,-1022.33 1073.69,-1022.33 1073.54,-970.801"/>
<text text-anchor="middle" x="1213" y="-980.308" font-family="Times,serif" font-size="20.00" fill="#0044a0">summarisePeakCalling</text>
</g>
<!-- t25&#45;&gt;t29 -->
<g id="edge54" class="edge"><title>t25&#45;&gt;t29</title>
<path fill="none" stroke="#0044a0" d="M1456.03,-1109.77C1415.41,-1089.3 1346.09,-1054.37 1291.85,-1027.04"/>
<polygon fill="#0044a0" stroke="#0044a0" points="1293.1,-1023.75 1282.6,-1022.38 1289.95,-1030 1293.1,-1023.75"/>
</g>
<!-- t32 -->
<g id="node40" class="node"><title>t32</title>
<polygon fill="none" stroke="#0044a0" stroke-dasharray="5,2" points="1275.36,-784.728 1154.64,-784.728 1150.64,-780.728 1150.64,-748.728 1271.36,-748.728 1275.36,-752.728 1275.36,-784.728"/>
<polyline fill="none" stroke="#0044a0" stroke-dasharray="5,2" points="1271.36,-780.728 1150.64,-780.728 "/>
<polyline fill="none" stroke="#0044a0" stroke-dasharray="5,2" points="1271.36,-780.728 1271.36,-748.728 "/>
<polyline fill="none" stroke="#0044a0" stroke-dasharray="5,2" points="1271.36,-780.728 1275.36,-784.728 "/>
<text text-anchor="middle" x="1213" y="-760.728" font-family="Times,serif" font-size="20.00" fill="#0044a0">getIDRInputs</text>
</g>
<!-- t25&#45;&gt;t32 -->
<g id="edge59" class="edge"><title>t25&#45;&gt;t32</title>
<path fill="none" stroke="#0044a0" d="M1483.78,-1109.52C1475,-1083.37 1460,-1032.17 1460,-987.308 1460,-987.308 1460,-987.308 1460,-901.728 1460,-849.544 1434.67,-835.289 1391,-806.728 1359.91,-786.398 1319.9,-776.513 1285.69,-771.768"/>
<polygon fill="#0044a0" stroke="#0044a0" points="1286.1,-768.292 1275.74,-770.508 1285.22,-775.237 1286.1,-768.292"/>
</g>
<!-- t61 -->
<g id="node30" class="node"><title>t61</title>
<polygon fill="#ebf3ff" stroke="#0044a0" points="1176.29,-1223.89 869.714,-1223.89 865.714,-1219.89 865.714,-1167.89 1172.29,-1167.89 1176.29,-1171.89 1176.29,-1223.89"/>
<polyline fill="none" stroke="#0044a0" points="1172.29,-1219.89 865.714,-1219.89 "/>
<polyline fill="none" stroke="#0044a0" points="1172.29,-1219.89 1172.29,-1167.89 "/>
<polyline fill="none" stroke="#0044a0" points="1172.29,-1219.89 1176.29,-1223.89 "/>
<text text-anchor="middle" x="1021" y="-1201.89" font-family="Times,serif" font-size="20.00" fill="#0044a0">mkdir(&#39;sicer_narrow.dir&#39;) </text>
<text text-anchor="middle" x="1021" y="-1177.89" font-family="Times,serif" font-size="20.00" fill="#0044a0">before callNarrowerPeaksWithSicer </text>
</g>
<!-- t61&#45;&gt;t26 -->
<g id="edge45" class="edge"><title>t61&#45;&gt;t26</title>
<path fill="none" stroke="#0044a0" d="M1021,-1167.66C1021,-1163.93 1021,-1160.09 1021,-1156.35"/>
<polygon fill="#0044a0" stroke="#0044a0" points="1024.5,-1156.24 1021,-1146.24 1017.5,-1156.24 1024.5,-1156.24"/>
</g>
<!-- t28 -->
<g id="node34" class="node"><title>t28</title>
<polygon fill="#ebf3ff" stroke="#0044a0" points="1254.75,-1087.89 1175.25,-1087.89 1171.25,-1083.89 1171.25,-1051.89 1250.75,-1051.89 1254.75,-1055.89 1254.75,-1087.89"/>
<polyline fill="none" stroke="#0044a0" points="1250.75,-1083.89 1171.25,-1083.89 "/>
<polyline fill="none" stroke="#0044a0" points="1250.75,-1083.89 1250.75,-1051.89 "/>
<polyline fill="none" stroke="#0044a0" points="1250.75,-1083.89 1254.75,-1087.89 "/>
<text text-anchor="middle" x="1213" y="-1063.89" font-family="Times,serif" font-size="20.00" fill="#0044a0">runSicer</text>
</g>
<!-- t26&#45;&gt;t28 -->
<g id="edge52" class="edge"><title>t26&#45;&gt;t28</title>
<path fill="none" stroke="#0044a0" d="M1079.39,-1109.86C1105.49,-1102.25 1136,-1093.35 1161.27,-1085.98"/>
<polygon fill="#0044a0" stroke="#0044a0" points="1162.41,-1089.29 1171.03,-1083.13 1160.45,-1082.57 1162.41,-1089.29"/>
</g>
<!-- t66 -->
<g id="node32" class="node"><title>t66</title>
<polygon fill="#ebf3ff" stroke="#0044a0" points="1658.09,-1223.89 1363.91,-1223.89 1359.91,-1219.89 1359.91,-1167.89 1654.09,-1167.89 1658.09,-1171.89 1658.09,-1223.89"/>
<polyline fill="none" stroke="#0044a0" points="1654.09,-1219.89 1359.91,-1219.89 "/>
<polyline fill="none" stroke="#0044a0" points="1654.09,-1219.89 1654.09,-1167.89 "/>
<polyline fill="none" stroke="#0044a0" points="1654.09,-1219.89 1658.09,-1223.89 "/>
<text text-anchor="middle" x="1509" y="-1201.89" font-family="Times,serif" font-size="20.00" fill="#0044a0">mkdir(&#39;sicer_broad.dir&#39;) </text>
<text text-anchor="middle" x="1509" y="-1177.89" font-family="Times,serif" font-size="20.00" fill="#0044a0">before callBroaderPeaksWithSicer </text>
</g>
<!-- t66&#45;&gt;t27 -->
<g id="edge48" class="edge"><title>t66&#45;&gt;t27</title>
<path fill="none" stroke="#0044a0" d="M1416.02,-1167.85C1394.03,-1161.46 1370.98,-1154.76 1350.32,-1148.75"/>
<polygon fill="#0044a0" stroke="#0044a0" points="1351.28,-1145.39 1340.7,-1145.95 1349.32,-1152.11 1351.28,-1145.39"/>
</g>
<!-- t27&#45;&gt;t28 -->
<g id="edge51" class="edge"><title>t27&#45;&gt;t28</title>
<path fill="none" stroke="#0044a0" d="M1260.92,-1109.78C1254.9,-1104.9 1248.24,-1099.49 1241.84,-1094.3"/>
<polygon fill="#0044a0" stroke="#0044a0" points="1243.92,-1091.47 1233.95,-1087.89 1239.51,-1096.91 1243.92,-1091.47"/>
</g>
<!-- t28&#45;&gt;t29 -->
<g id="edge53" class="edge"><title>t28&#45;&gt;t29</title>
<path fill="none" stroke="#0044a0" d="M1213,-1051.59C1213,-1045.87 1213,-1039.21 1213,-1032.4"/>
<polygon fill="#0044a0" stroke="#0044a0" points="1216.5,-1032.39 1213,-1022.39 1209.5,-1032.39 1216.5,-1032.39"/>
</g>
<!-- t30 -->
<g id="node36" class="node"><title>t30</title>
<polygon fill="#ebf3ff" stroke="#0044a0" points="1261.59,-920.728 1078.41,-920.728 1074.41,-916.728 1074.41,-884.728 1257.59,-884.728 1261.59,-888.728 1261.59,-920.728"/>
<polyline fill="none" stroke="#0044a0" points="1257.59,-916.728 1074.41,-916.728 "/>
<polyline fill="none" stroke="#0044a0" points="1257.59,-916.728 1257.59,-884.728 "/>
<polyline fill="none" stroke="#0044a0" points="1257.59,-916.728 1261.59,-920.728 "/>
<text text-anchor="middle" x="1168" y="-896.728" font-family="Times,serif" font-size="20.00" fill="#0044a0">loadPeakCallingStats</text>
</g>
<!-- t29&#45;&gt;t30 -->
<g id="edge55" class="edge"><title>t29&#45;&gt;t30</title>
<path fill="none" stroke="#0044a0" d="M1191.82,-946.907C1188.68,-941.224 1185.51,-935.48 1182.56,-930.116"/>
<polygon fill="#0044a0" stroke="#0044a0" points="1185.41,-928.035 1177.51,-920.97 1179.28,-931.416 1185.41,-928.035"/>
</g>
<!-- t31 -->
<g id="node37" class="node"><title>t31</title>
<polygon fill="#ebf3ff" stroke="#0044a0" points="1118.19,-852.728 1013.81,-852.728 1009.81,-848.728 1009.81,-816.728 1114.19,-816.728 1118.19,-820.728 1118.19,-852.728"/>
<polyline fill="none" stroke="#0044a0" points="1114.19,-848.728 1009.81,-848.728 "/>
<polyline fill="none" stroke="#0044a0" points="1114.19,-848.728 1114.19,-816.728 "/>
<polyline fill="none" stroke="#0044a0" points="1114.19,-848.728 1118.19,-852.728 "/>
<text text-anchor="middle" x="1064" y="-828.728" font-family="Times,serif" font-size="20.00" fill="#0044a0">peakcalling</text>
</g>
<!-- t30&#45;&gt;t31 -->
<g id="edge56" class="edge"><title>t30&#45;&gt;t31</title>
<path fill="none" stroke="#0044a0" d="M1140.95,-884.559C1128.31,-876.538 1113.09,-866.882 1099.54,-858.282"/>
<polygon fill="#0044a0" stroke="#0044a0" points="1101.24,-855.213 1090.92,-852.81 1097.49,-861.124 1101.24,-855.213"/>
</g>
<!-- t31&#45;&gt;t32 -->
<g id="edge58" class="edge"><title>t31&#45;&gt;t32</title>
<path fill="none" stroke="#0044a0" d="M1102.76,-816.559C1121.82,-808.118 1144.96,-797.866 1165.11,-788.939"/>
<polygon fill="#0044a0" stroke="#0044a0" points="1166.71,-792.06 1174.44,-784.81 1163.87,-785.66 1166.71,-792.06"/>
</g>
<!-- t31&#45;&gt;t47 -->
<g id="edge84" class="edge"><title>t31&#45;&gt;t47</title>
<path fill="none" stroke="#0044a0" d="M1058.41,-816.426C1049.98,-788.769 1035,-732.752 1035,-684.049 1035,-684.049 1035,-684.049 1035,-174.963 1035,-135.921 1035,-90.7535 1035,-62.5284"/>
<polygon fill="#0044a0" stroke="#0044a0" points="1038.5,-62.2378 1035,-52.2379 1031.5,-62.2379 1038.5,-62.2378"/>
</g>
<!-- t60 -->
<g id="node38" class="node"><title>t60</title>
<polygon fill="#ebf3ff" stroke="#0044a0" points="1482.73,-711.049 1313.27,-711.049 1309.27,-707.049 1309.27,-655.049 1478.73,-655.049 1482.73,-659.049 1482.73,-711.049"/>
<polyline fill="none" stroke="#0044a0" points="1478.73,-707.049 1309.27,-707.049 "/>
<polyline fill="none" stroke="#0044a0" points="1478.73,-707.049 1478.73,-655.049 "/>
<polyline fill="none" stroke="#0044a0" points="1478.73,-707.049 1482.73,-711.049 "/>
<text text-anchor="middle" x="1396" y="-689.049" font-family="Times,serif" font-size="20.00" fill="#0044a0">mkdir(&#39;IDR.dir&#39;) </text>
<text text-anchor="middle" x="1396" y="-665.049" font-family="Times,serif" font-size="20.00" fill="#0044a0">before splitForIDR </text>
</g>
<!-- t35 -->
<g id="node42" class="node"><title>t35</title>
<polygon fill="none" stroke="#0044a0" stroke-dasharray="5,2" points="1455.45,-593.981 1357,-613.334 1258.55,-593.981 1258.64,-562.666 1455.36,-562.666 1455.45,-593.981"/>
<polygon fill="none" stroke="#0044a0" stroke-dasharray="5,2" points="1459.46,-597.275 1357,-617.416 1254.54,-597.275 1254.65,-558.661 1459.35,-558.661 1459.46,-597.275"/>
<text text-anchor="middle" x="1357" y="-579.326" font-family="Times,serif" font-size="20.00" fill="#0044a0">splitForIDR</text>
</g>
<!-- t60&#45;&gt;t35 -->
<g id="edge61" class="edge"><title>t60&#45;&gt;t35</title>
<path fill="none" stroke="#0044a0" d="M1384.93,-654.875C1381.11,-645.492 1376.75,-634.796 1372.63,-624.689"/>
<polygon fill="#0044a0" stroke="#0044a0" points="1375.8,-623.181 1368.78,-615.241 1369.31,-625.822 1375.8,-623.181"/>
</g>
<!-- t57 -->
<g id="node39" class="node"><title>t57</title>
<polygon fill="#ebf3ff" stroke="#0044a0" points="1381.91,-862.728 1140.09,-862.728 1136.09,-858.728 1136.09,-806.728 1377.91,-806.728 1381.91,-810.728 1381.91,-862.728"/>
<polyline fill="none" stroke="#0044a0" points="1377.91,-858.728 1136.09,-858.728 "/>
<polyline fill="none" stroke="#0044a0" points="1377.91,-858.728 1377.91,-806.728 "/>
<polyline fill="none" stroke="#0044a0" points="1377.91,-858.728 1381.91,-862.728 "/>
<text text-anchor="middle" x="1259" y="-840.728" font-family="Times,serif" font-size="20.00" fill="#0044a0">mkdir(&#39;peaks_for_IDR.dir&#39;) </text>
<text text-anchor="middle" x="1259" y="-816.728" font-family="Times,serif" font-size="20.00" fill="#0044a0">before getIDRInputs </text>
</g>
<!-- t57&#45;&gt;t32 -->
<g id="edge57" class="edge"><title>t57&#45;&gt;t32</title>
<path fill="none" stroke="#0044a0" d="M1240.02,-806.502C1237.03,-802.201 1233.94,-797.765 1230.96,-793.498"/>
<polygon fill="#0044a0" stroke="#0044a0" points="1233.68,-791.279 1225.09,-785.077 1227.94,-795.282 1233.68,-791.279"/>
</g>
<!-- t33 -->
<g id="node41" class="node"><title>t33</title>
<polygon fill="none" stroke="#0044a0" stroke-dasharray="5,2" points="1106.68,-670.793 1197,-643.387 1287.32,-670.793 1287.23,-715.137 1106.77,-715.137 1106.68,-670.793"/>
<polygon fill="none" stroke="#0044a0" stroke-dasharray="5,2" points="1102.68,-667.812 1197,-639.192 1291.32,-667.812 1291.22,-719.153 1102.78,-719.153 1102.68,-667.812"/>
<text text-anchor="middle" x="1197" y="-677.049" font-family="Times,serif" font-size="20.00" fill="#0044a0">makeIDRPairs</text>
</g>
<!-- t32&#45;&gt;t33 -->
<g id="edge60" class="edge"><title>t32&#45;&gt;t33</title>
<path fill="none" stroke="#0044a0" d="M1209.61,-748.406C1208.49,-742.68 1207.18,-736.018 1205.84,-729.194"/>
<polygon fill="#0044a0" stroke="#0044a0" points="1209.24,-728.31 1203.88,-719.17 1202.37,-729.656 1209.24,-728.31"/>
</g>
<!-- t33&#45;&gt;t35 -->
<g id="edge62" class="edge"><title>t33&#45;&gt;t35</title>
<path fill="none" stroke="#0044a0" d="M1244.57,-653.588C1264.87,-641.443 1288.53,-627.291 1308.89,-615.11"/>
<polygon fill="#0044a0" stroke="#0044a0" points="1310.9,-617.982 1317.69,-609.844 1307.31,-611.975 1310.9,-617.982"/>
</g>
<!-- t38 -->
<g id="node46" class="node"><title>t38</title>
<polygon fill="none" stroke="#0044a0" stroke-dasharray="5,2" points="1104.18,-359.357 1197,-331.956 1289.82,-359.357 1289.73,-403.691 1104.27,-403.691 1104.18,-359.357"/>
<polygon fill="none" stroke="#0044a0" stroke-dasharray="5,2" points="1100.17,-356.355 1197,-327.77 1293.83,-356.355 1293.73,-407.707 1100.27,-407.707 1100.17,-356.355"/>
<text text-anchor="middle" x="1197" y="-365.61" font-family="Times,serif" font-size="20.00" fill="#0044a0">summariseIDR</text>
</g>
<!-- t33&#45;&gt;t38 -->
<g id="edge67" class="edge"><title>t33&#45;&gt;t38</title>
<path fill="none" stroke="#0044a0" d="M1197,-639.348C1197,-581.322 1197,-477.989 1197,-418.402"/>
<polygon fill="#0044a0" stroke="#0044a0" points="1200.5,-418.162 1197,-408.162 1193.5,-418.162 1200.5,-418.162"/>
</g>
<!-- t34 -->
<g id="node54" class="node"><title>t34</title>
<polygon fill="none" stroke="#0044a0" stroke-dasharray="5,2" points="1178.36,-531.28 1057.64,-531.28 1053.64,-527.28 1053.64,-495.28 1174.36,-495.28 1178.36,-499.28 1178.36,-531.28"/>
<polyline fill="none" stroke="#0044a0" stroke-dasharray="5,2" points="1174.36,-527.28 1053.64,-527.28 "/>
<polyline fill="none" stroke="#0044a0" stroke-dasharray="5,2" points="1174.36,-527.28 1174.36,-495.28 "/>
<polyline fill="none" stroke="#0044a0" stroke-dasharray="5,2" points="1174.36,-527.28 1178.36,-531.28 "/>
<text text-anchor="middle" x="1116" y="-507.28" font-family="Times,serif" font-size="20.00" fill="#0044a0">loadIDRPairs</text>
</g>
<!-- t33&#45;&gt;t34 -->
<g id="edge75" class="edge"><title>t33&#45;&gt;t34</title>
<path fill="none" stroke="#0044a0" d="M1178.82,-644.399C1163.55,-612.769 1142.12,-568.386 1128.66,-540.493"/>
<polygon fill="#0044a0" stroke="#0044a0" points="1131.75,-538.846 1124.25,-531.362 1125.44,-541.889 1131.75,-538.846"/>
</g>
<!-- t36 -->
<g id="node43" class="node"><title>t36</title>
<polygon fill="none" stroke="#0044a0" stroke-dasharray="5,2" points="1395.59,-531.28 1322.41,-531.28 1318.41,-527.28 1318.41,-495.28 1391.59,-495.28 1395.59,-499.28 1395.59,-531.28"/>
<polyline fill="none" stroke="#0044a0" stroke-dasharray="5,2" points="1391.59,-527.28 1318.41,-527.28 "/>
<polyline fill="none" stroke="#0044a0" stroke-dasharray="5,2" points="1391.59,-527.28 1391.59,-495.28 "/>
<polyline fill="none" stroke="#0044a0" stroke-dasharray="5,2" points="1391.59,-527.28 1395.59,-531.28 "/>
<text text-anchor="middle" x="1357" y="-507.28" font-family="Times,serif" font-size="20.00" fill="#0044a0">runIDR</text>
</g>
<!-- t35&#45;&gt;t36 -->
<g id="edge63" class="edge"><title>t35&#45;&gt;t36</title>
<path fill="none" stroke="#0044a0" d="M1357,-558.641C1357,-553.121 1357,-547.267 1357,-541.685"/>
<polygon fill="#0044a0" stroke="#0044a0" points="1360.5,-541.443 1357,-531.443 1353.5,-541.443 1360.5,-541.443"/>
</g>
<!-- t44 -->
<g id="node44" class="node"><title>t44</title>
<polygon fill="none" stroke="#0044a0" stroke-dasharray="5,2" points="1684.75,-163.767 1740,-136.496 1795.25,-163.767 1795.19,-207.893 1684.81,-207.893 1684.75,-163.767"/>
<polygon fill="none" stroke="#0044a0" stroke-dasharray="5,2" points="1680.74,-161.288 1740,-132.037 1799.26,-161.288 1799.2,-211.89 1680.8,-211.89 1680.74,-161.288"/>
<text text-anchor="middle" x="1740" y="-169.963" font-family="Times,serif" font-size="20.00" fill="#0044a0">plotIDR</text>
</g>
<!-- t36&#45;&gt;t44 -->
<g id="edge64" class="edge"><title>t36&#45;&gt;t44</title>
<path fill="none" stroke="#0044a0" d="M1395.59,-509.887C1500.74,-502.6 1788.94,-477.285 1857,-415.28 1914.92,-362.518 1931.92,-307.469 1889,-241.927 1871.07,-214.554 1838.82,-198.65 1808.89,-189.441"/>
<polygon fill="#0044a0" stroke="#0044a0" points="1809.86,-186.077 1799.28,-186.68 1807.92,-192.805 1809.86,-186.077"/>
</g>
<!-- t37 -->
<g id="node45" class="node"><title>t37</title>
<polygon fill="none" stroke="#0044a0" stroke-dasharray="5,2" points="1353.8,-473.28 1268.2,-473.28 1264.2,-469.28 1264.2,-437.28 1349.8,-437.28 1353.8,-441.28 1353.8,-473.28"/>
<polyline fill="none" stroke="#0044a0" stroke-dasharray="5,2" points="1349.8,-469.28 1264.2,-469.28 "/>
<polyline fill="none" stroke="#0044a0" stroke-dasharray="5,2" points="1349.8,-469.28 1349.8,-437.28 "/>
<polyline fill="none" stroke="#0044a0" stroke-dasharray="5,2" points="1349.8,-469.28 1353.8,-473.28 "/>
<text text-anchor="middle" x="1309" y="-449.28" font-family="Times,serif" font-size="20.00" fill="#0044a0">filterIDR</text>
</g>
<!-- t36&#45;&gt;t37 -->
<g id="edge65" class="edge"><title>t36&#45;&gt;t37</title>
<path fill="none" stroke="#0044a0" d="M1342.34,-495.174C1338.52,-490.723 1334.33,-485.837 1330.25,-481.077"/>
<polygon fill="#0044a0" stroke="#0044a0" points="1332.74,-478.597 1323.57,-473.282 1327.42,-483.152 1332.74,-478.597"/>
</g>
<!-- t45 -->
<g id="node55" class="node"><title>t45</title>
<polygon fill="none" stroke="#0044a0" stroke-dasharray="5,2" points="1254,-110 1204,-110 1200,-106 1200,-74 1250,-74 1254,-78 1254,-110"/>
<polyline fill="none" stroke="#0044a0" stroke-dasharray="5,2" points="1250,-106 1200,-106 "/>
<polyline fill="none" stroke="#0044a0" stroke-dasharray="5,2" points="1250,-106 1250,-74 "/>
<polyline fill="none" stroke="#0044a0" stroke-dasharray="5,2" points="1250,-106 1254,-110 "/>
<text text-anchor="middle" x="1227" y="-86" font-family="Times,serif" font-size="20.00" fill="#0044a0">IDR</text>
</g>
<!-- t44&#45;&gt;t45 -->
<g id="edge76" class="edge"><title>t44&#45;&gt;t45</title>
<path fill="none" stroke="#0044a0" d="M1684.69,-159.29C1650.92,-150.207 1606.74,-139.183 1567,-132 1457.84,-112.27 1327.06,-100.575 1264.26,-95.6891"/>
<polygon fill="#0044a0" stroke="#0044a0" points="1264.3,-92.1819 1254.06,-94.9093 1263.76,-99.1615 1264.3,-92.1819"/>
</g>
<!-- t37&#45;&gt;t38 -->
<g id="edge66" class="edge"><title>t37&#45;&gt;t38</title>
<path fill="none" stroke="#0044a0" d="M1285.52,-437.16C1276.13,-430.31 1264.86,-422.097 1253.57,-413.862"/>
<polygon fill="#0044a0" stroke="#0044a0" points="1255.51,-410.944 1245.37,-407.88 1251.39,-416.6 1255.51,-410.944"/>
</g>
<!-- t40 -->
<g id="node47" class="node"><title>t40</title>
<polygon fill="none" stroke="#0044a0" stroke-dasharray="5,2" points="1178.37,-291.934 1077.63,-291.934 1073.63,-287.934 1073.63,-255.934 1174.37,-255.934 1178.37,-259.934 1178.37,-291.934"/>
<polyline fill="none" stroke="#0044a0" stroke-dasharray="5,2" points="1174.37,-287.934 1073.63,-287.934 "/>
<polyline fill="none" stroke="#0044a0" stroke-dasharray="5,2" points="1174.37,-287.934 1174.37,-255.934 "/>
<polyline fill="none" stroke="#0044a0" stroke-dasharray="5,2" points="1174.37,-287.934 1178.37,-291.934 "/>
<text text-anchor="middle" x="1126" y="-267.934" font-family="Times,serif" font-size="20.00" fill="#0044a0">runIDRQC</text>
</g>
<!-- t38&#45;&gt;t40 -->
<g id="edge68" class="edge"><title>t38&#45;&gt;t40</title>
<path fill="none" stroke="#0044a0" d="M1170.76,-335.256C1162.1,-323.579 1152.64,-310.835 1144.66,-300.082"/>
<polygon fill="#0044a0" stroke="#0044a0" points="1147.39,-297.888 1138.62,-291.943 1141.77,-302.059 1147.39,-297.888"/>
</g>
<!-- t43 -->
<g id="node49" class="node"><title>t43</title>
<polygon fill="none" stroke="#0044a0" stroke-dasharray="5,2" points="1500.43,-282.578 1360,-301.909 1219.57,-282.578 1219.7,-251.301 1500.3,-251.301 1500.43,-282.578"/>
<polygon fill="none" stroke="#0044a0" stroke-dasharray="5,2" points="1504.45,-286.064 1360,-305.947 1215.55,-286.064 1215.72,-247.301 1504.28,-247.301 1504.45,-286.064"/>
<text text-anchor="middle" x="1360" y="-267.934" font-family="Times,serif" font-size="20.00" fill="#0044a0">findOptimalPeaks</text>
</g>
<!-- t38&#45;&gt;t43 -->
<g id="edge70" class="edge"><title>t38&#45;&gt;t43</title>
<path fill="none" stroke="#0044a0" d="M1245.91,-341.904C1265.59,-330.349 1288.32,-317.01 1308.28,-305.294"/>
<polygon fill="#0044a0" stroke="#0044a0" points="1310.09,-308.29 1316.94,-300.21 1306.54,-302.253 1310.09,-308.29"/>
</g>
<!-- t42 -->
<g id="node51" class="node"><title>t42</title>
<polygon fill="none" stroke="#0044a0" stroke-dasharray="5,2" points="1876.31,-282.575 1701,-301.897 1525.69,-282.575 1525.85,-251.311 1876.15,-251.311 1876.31,-282.575"/>
<polygon fill="none" stroke="#0044a0" stroke-dasharray="5,2" points="1880.34,-286.155 1701,-305.92 1521.66,-286.155 1521.87,-247.312 1880.13,-247.312 1880.34,-286.155"/>
<text text-anchor="middle" x="1701" y="-267.934" font-family="Times,serif" font-size="20.00" fill="#0044a0">findConservativePeaks</text>
</g>
<!-- t38&#45;&gt;t42 -->
<g id="edge72" class="edge"><title>t38&#45;&gt;t42</title>
<path fill="none" stroke="#0044a0" d="M1253.24,-344.358C1268.75,-338.063 1285.77,-331.996 1302,-327.941 1393.47,-305.076 1419.55,-318.507 1513,-305.941 1535.42,-302.926 1559.27,-299.309 1582.2,-295.628"/>
<polygon fill="#0044a0" stroke="#0044a0" points="1583,-299.044 1592.31,-293.991 1581.88,-292.134 1583,-299.044"/>
</g>
<!-- t39 -->
<g id="node53" class="node"><title>t39</title>
<polygon fill="none" stroke="#0044a0" stroke-dasharray="5,2" points="1383.8,-193.963 1228.2,-193.963 1224.2,-189.963 1224.2,-157.963 1379.8,-157.963 1383.8,-161.963 1383.8,-193.963"/>
<polyline fill="none" stroke="#0044a0" stroke-dasharray="5,2" points="1379.8,-189.963 1224.2,-189.963 "/>
<polyline fill="none" stroke="#0044a0" stroke-dasharray="5,2" points="1379.8,-189.963 1379.8,-157.963 "/>
<polyline fill="none" stroke="#0044a0" stroke-dasharray="5,2" points="1379.8,-189.963 1383.8,-193.963 "/>
<text text-anchor="middle" x="1304" y="-169.963" font-family="Times,serif" font-size="20.00" fill="#0044a0">loadIDRsummary</text>
</g>
<!-- t38&#45;&gt;t39 -->
<g id="edge74" class="edge"><title>t38&#45;&gt;t39</title>
<path fill="none" stroke="#0044a0" d="M1191.37,-329.339C1189.77,-302.654 1191.67,-268.138 1207,-241.927 1217.63,-223.75 1235.61,-209.627 1253.22,-199.262"/>
<polygon fill="#0044a0" stroke="#0044a0" points="1255.31,-202.101 1262.35,-194.182 1251.91,-195.983 1255.31,-202.101"/>
</g>
<!-- t41 -->
<g id="node52" class="node"><title>t41</title>
<polygon fill="none" stroke="#0044a0" stroke-dasharray="5,2" points="1206.15,-193.963 1097.85,-193.963 1093.85,-189.963 1093.85,-157.963 1202.15,-157.963 1206.15,-161.963 1206.15,-193.963"/>
<polyline fill="none" stroke="#0044a0" stroke-dasharray="5,2" points="1202.15,-189.963 1093.85,-189.963 "/>
<polyline fill="none" stroke="#0044a0" stroke-dasharray="5,2" points="1202.15,-189.963 1202.15,-157.963 "/>
<polyline fill="none" stroke="#0044a0" stroke-dasharray="5,2" points="1202.15,-189.963 1206.15,-193.963 "/>
<text text-anchor="middle" x="1150" y="-169.963" font-family="Times,serif" font-size="20.00" fill="#0044a0">loadIDRQC</text>
</g>
<!-- t40&#45;&gt;t41 -->
<g id="edge73" class="edge"><title>t40&#45;&gt;t41</title>
<path fill="none" stroke="#0044a0" d="M1130.29,-255.776C1133.91,-241.31 1139.15,-220.362 1143.31,-203.698"/>
<polygon fill="#0044a0" stroke="#0044a0" points="1146.72,-204.523 1145.75,-193.972 1139.92,-202.825 1146.72,-204.523"/>
</g>
<!-- t40&#45;&gt;t45 -->
<g id="edge80" class="edge"><title>t40&#45;&gt;t45</title>
<path fill="none" stroke="#0044a0" d="M1107.83,-255.608C1099.12,-246.027 1089.59,-233.358 1085,-219.927 1072.37,-182.947 1061.31,-163.077 1085,-132 1097.68,-115.367 1152.16,-104.065 1189.82,-98.0729"/>
<polygon fill="#0044a0" stroke="#0044a0" points="1190.6,-101.495 1199.95,-96.5238 1189.54,-94.5759 1190.6,-101.495"/>
</g>
<!-- t72 -->
<g id="node48" class="node"><title>t72</title>
<polygon fill="#ebf3ff" stroke="#0044a0" points="1550.77,-399.61 1315.23,-399.61 1311.23,-395.61 1311.23,-343.61 1546.77,-343.61 1550.77,-347.61 1550.77,-399.61"/>
<polyline fill="none" stroke="#0044a0" points="1546.77,-395.61 1311.23,-395.61 "/>
<polyline fill="none" stroke="#0044a0" points="1546.77,-395.61 1546.77,-343.61 "/>
<polyline fill="none" stroke="#0044a0" points="1546.77,-395.61 1550.77,-399.61 "/>
<text text-anchor="middle" x="1431" y="-377.61" font-family="Times,serif" font-size="20.00" fill="#0044a0">mkdir(&#39;optimal_peaks.dir&#39;) </text>
<text text-anchor="middle" x="1431" y="-353.61" font-family="Times,serif" font-size="20.00" fill="#0044a0">before findOptimalPeaks </text>
</g>
<!-- t72&#45;&gt;t43 -->
<g id="edge69" class="edge"><title>t72&#45;&gt;t43</title>
<path fill="none" stroke="#0044a0" d="M1410.84,-343.449C1403.47,-333.51 1395,-322.096 1387.11,-311.471"/>
<polygon fill="#0044a0" stroke="#0044a0" points="1389.72,-309.107 1380.95,-303.163 1384.1,-313.279 1389.72,-309.107"/>
</g>
<!-- t43&#45;&gt;t45 -->
<g id="edge77" class="edge"><title>t43&#45;&gt;t45</title>
<path fill="none" stroke="#0044a0" d="M1380.08,-247.079C1385.34,-238.851 1390.29,-229.412 1393,-219.927 1403.74,-182.353 1417.27,-162.63 1393,-132 1377.26,-112.129 1308.28,-101.39 1264.34,-96.4586"/>
<polygon fill="#0044a0" stroke="#0044a0" points="1264.62,-92.9678 1254.3,-95.3827 1263.87,-99.928 1264.62,-92.9678"/>
</g>
<!-- t71 -->
<g id="node50" class="node"><title>t71</title>
<polygon fill="#ebf3ff" stroke="#0044a0" points="1847.72,-399.61 1572.28,-399.61 1568.28,-395.61 1568.28,-343.61 1843.72,-343.61 1847.72,-347.61 1847.72,-399.61"/>
<polyline fill="none" stroke="#0044a0" points="1843.72,-395.61 1568.28,-395.61 "/>
<polyline fill="none" stroke="#0044a0" points="1843.72,-395.61 1843.72,-343.61 "/>
<polyline fill="none" stroke="#0044a0" points="1843.72,-395.61 1847.72,-399.61 "/>
<text text-anchor="middle" x="1708" y="-377.61" font-family="Times,serif" font-size="20.00" fill="#0044a0">mkdir(&#39;conservative_peaks.dir&#39;) </text>
<text text-anchor="middle" x="1708" y="-353.61" font-family="Times,serif" font-size="20.00" fill="#0044a0">before findConservativePeaks </text>
</g>
<!-- t71&#45;&gt;t42 -->
<g id="edge71" class="edge"><title>t71&#45;&gt;t42</title>
<path fill="none" stroke="#0044a0" d="M1706.01,-343.449C1705.39,-334.94 1704.69,-325.349 1704.01,-316.098"/>
<polygon fill="#0044a0" stroke="#0044a0" points="1707.48,-315.591 1703.26,-305.873 1700.5,-316.102 1707.48,-315.591"/>
</g>
<!-- t42&#45;&gt;t45 -->
<g id="edge78" class="edge"><title>t42&#45;&gt;t45</title>
<path fill="none" stroke="#0044a0" d="M1655.22,-247.071C1598.21,-215.827 1497.07,-163.541 1405,-132 1357.6,-115.764 1300.73,-104.691 1264.24,-98.6062"/>
<polygon fill="#0044a0" stroke="#0044a0" points="1264.49,-95.1012 1254.06,-96.95 1263.37,-102.01 1264.49,-95.1012"/>
</g>
<!-- t41&#45;&gt;t45 -->
<g id="edge79" class="edge"><title>t41&#45;&gt;t45</title>
<path fill="none" stroke="#0044a0" d="M1166.33,-157.581C1177.22,-145.984 1191.71,-130.563 1203.8,-117.699"/>
<polygon fill="#0044a0" stroke="#0044a0" points="1206.66,-119.761 1210.96,-110.076 1201.56,-114.968 1206.66,-119.761"/>
</g>
<!-- t39&#45;&gt;t45 -->
<g id="edge81" class="edge"><title>t39&#45;&gt;t45</title>
<path fill="none" stroke="#0044a0" d="M1287.67,-157.581C1276.78,-145.984 1262.29,-130.563 1250.2,-117.699"/>
<polygon fill="#0044a0" stroke="#0044a0" points="1252.44,-114.968 1243.04,-110.076 1247.34,-119.761 1252.44,-114.968"/>
</g>
<!-- t34&#45;&gt;t45 -->
<g id="edge82" class="edge"><title>t34&#45;&gt;t45</title>
<path fill="none" stroke="#0044a0" d="M1103.06,-495.253C1085.16,-469.94 1055,-420.238 1055,-372.61 1055,-372.61 1055,-372.61 1055,-272.934 1055,-210.031 1026.94,-179.657 1068,-132 1083.65,-113.836 1147.72,-102.675 1189.6,-97.1757"/>
<polygon fill="#0044a0" stroke="#0044a0" points="1190.24,-100.622 1199.73,-95.8987 1189.37,-93.6775 1190.24,-100.622"/>
</g>
<!-- t45&#45;&gt;t47 -->
<g id="edge83" class="edge"><title>t45&#45;&gt;t47</title>
<path fill="none" stroke="#0044a0" d="M1199.9,-83.0953C1166.54,-73.3672 1109.74,-56.7991 1072.29,-45.8758"/>
<polygon fill="#0044a0" stroke="#0044a0" points="1072.85,-42.395 1062.27,-42.9549 1070.89,-49.115 1072.85,-42.395"/>
</g>
<!-- k1_1 -->
<g id="node57" class="node"><title>k1_1</title>
<polygon fill="#ebf3ff" stroke="#0044a0" points="2026.76,-1765.77 1939.24,-1765.77 1935.24,-1761.77 1935.24,-1721.17 2022.76,-1721.17 2026.76,-1725.17 2026.76,-1765.77"/>
<polyline fill="none" stroke="#0044a0" points="2022.76,-1761.77 1935.24,-1761.77 "/>
<polyline fill="none" stroke="#0044a0" points="2022.76,-1761.77 2022.76,-1721.17 "/>
<polyline fill="none" stroke="#0044a0" points="2022.76,-1761.77 2026.76,-1765.77 "/>
<text text-anchor="middle" x="1981" y="-1739.27" font-family="Times,serif" font-size="14.00" fill="#0044a0">Task to run</text>
</g>
<!-- k2_1 -->
<g id="node58" class="node"><title>k2_1</title>
<polygon fill="none" stroke="#0044a0" stroke-dasharray="5,2" points="2038.19,-1693.27 1927.81,-1693.27 1923.81,-1689.27 1923.81,-1632.07 2034.19,-1632.07 2038.19,-1636.07 2038.19,-1693.27"/>
<polyline fill="none" stroke="#0044a0" stroke-dasharray="5,2" points="2034.19,-1689.27 1923.81,-1689.27 "/>
<polyline fill="none" stroke="#0044a0" stroke-dasharray="5,2" points="2034.19,-1689.27 2034.19,-1632.07 "/>
<polyline fill="none" stroke="#0044a0" stroke-dasharray="5,2" points="2034.19,-1689.27 2038.19,-1693.27 "/>
<text text-anchor="middle" x="1981" y="-1666.87" font-family="Times,serif" font-size="14.00" fill="#0044a0">Up&#45;to&#45;date task</text>
<text text-anchor="middle" x="1981" y="-1650.07" font-family="Times,serif" font-size="14.00" fill="#0044a0">forced to rerun</text>
</g>
<!-- k1_1&#45;&gt;k2_1 -->
<g id="edge86" class="edge"><title>k1_1&#45;&gt;k2_1</title>
<path fill="none" stroke="#0044a0" d="M1981,-1720.94C1981,-1715.51 1981,-1709.51 1981,-1703.49"/>
<polygon fill="#0044a0" stroke="#0044a0" points="1984.5,-1703.45 1981,-1693.45 1977.5,-1703.45 1984.5,-1703.45"/>
</g>
<!-- k3_1 -->
<g id="node59" class="node"><title>k3_1</title>
<polygon fill="#efa03b" stroke="black" points="2027.15,-1588.57 1938.85,-1588.57 1934.85,-1584.57 1934.85,-1543.96 2023.15,-1543.96 2027.15,-1547.96 2027.15,-1588.57"/>
<polyline fill="none" stroke="black" points="2023.15,-1584.57 1934.85,-1584.57 "/>
<polyline fill="none" stroke="black" points="2023.15,-1584.57 2023.15,-1543.96 "/>
<polyline fill="none" stroke="black" points="2023.15,-1584.57 2027.15,-1588.57 "/>
<text text-anchor="middle" x="1981" y="-1562.06" font-family="Times,serif" font-size="14.00">Final target</text>
</g>
<!-- k2_1&#45;&gt;k3_1 -->
<g id="edge87" class="edge"><title>k2_1&#45;&gt;k3_1</title>
<path fill="none" stroke="#0044a0" d="M1981,-1632.06C1981,-1621.52 1981,-1609.6 1981,-1598.9"/>
<polygon fill="#0044a0" stroke="#0044a0" points="1984.5,-1598.69 1981,-1588.69 1977.5,-1598.69 1984.5,-1598.69"/>
</g>
</g>
</svg>
