<?xml version="1.0" encoding="UTF-8" standalone="no"?>
<!DOCTYPE svg PUBLIC "-//W3C//DTD SVG 1.1//EN"
 "http://www.w3.org/Graphics/SVG/1.1/DTD/svg11.dtd">
<!-- Generated by graphviz version 2.38.0 (20140413.2041)
 -->
<!-- Title: Pipeline: Pages: 1 -->
<svg width="3922pt" height="463pt"
 viewBox="0.00 0.00 3922.00 463.17" xmlns="http://www.w3.org/2000/svg" xmlns:xlink="http://www.w3.org/1999/xlink">
<g id="graph0" class="graph" transform="scale(1 1) rotate(0) translate(4 459.172)">
<title>Pipeline:</title>
<polygon fill="white" stroke="none" points="-4,4 -4,-459.172 3918,-459.172 3918,4 -4,4"/>
<g id="clust1" class="cluster"><title>clustertasks</title>
<polygon fill="none" stroke="black" points="8,-8 8,-447.172 3790,-447.172 3790,-8 8,-8"/>
<text text-anchor="middle" x="1899" y="-416.172" font-family="Times,serif" font-size="30.00" fill="#ff3232">Pipeline:</text>
</g>
<g id="clust2" class="cluster"><title>clusterkey1</title>
<polygon fill="#f6f4f4" stroke="#f6f4f4" points="3798,-258.772 3798,-429.572 3906,-429.572 3906,-258.772 3798,-258.772"/>
<text text-anchor="middle" x="3852" y="-407.572" font-family="Times,serif" font-size="20.00">Key:</text>
</g>
<!-- t25 -->
<g id="node1" class="node"><title>t25</title>
<polygon fill="#ebf3ff" stroke="#0044a0" points="3058.17,-395.172 2823.83,-395.172 2819.83,-391.172 2819.83,-339.172 3054.17,-339.172 3058.17,-343.172 3058.17,-395.172"/>
<polyline fill="none" stroke="#0044a0" points="3054.17,-391.172 2819.83,-391.172 "/>
<polyline fill="none" stroke="#0044a0" points="3054.17,-391.172 3054.17,-339.172 "/>
<polyline fill="none" stroke="#0044a0" points="3054.17,-391.172 3058.17,-395.172 "/>
<text text-anchor="middle" x="2939" y="-373.172" font-family="Times,serif" font-size="20.00" fill="#0044a0">mkdir(&#39;ensembl.dir&#39;) </text>
<text text-anchor="middle" x="2939" y="-349.172" font-family="Times,serif" font-size="20.00" fill="#0044a0">before buildUCSCGeneSet </text>
</g>
<!-- t0 -->
<g id="node2" class="node"><title>t0</title>
<polygon fill="#ebf3ff" stroke="#0044a0" points="3027.6,-307.172 2854.4,-307.172 2850.4,-303.172 2850.4,-271.172 3023.6,-271.172 3027.6,-275.172 3027.6,-307.172"/>
<polyline fill="none" stroke="#0044a0" points="3023.6,-303.172 2850.4,-303.172 "/>
<polyline fill="none" stroke="#0044a0" points="3023.6,-303.172 3023.6,-271.172 "/>
<polyline fill="none" stroke="#0044a0" points="3023.6,-303.172 3027.6,-307.172 "/>
<text text-anchor="middle" x="2939" y="-283.172" font-family="Times,serif" font-size="20.00" fill="#0044a0">buildUCSCGeneSet</text>
</g>
<!-- t25&#45;&gt;t0 -->
<g id="edge1" class="edge"><title>t25&#45;&gt;t0</title>
<path fill="none" stroke="#0044a0" d="M2939,-339.163C2939,-332.219 2939,-324.74 2939,-317.767"/>
<polygon fill="#0044a0" stroke="#0044a0" points="2942.5,-317.376 2939,-307.376 2935.5,-317.376 2942.5,-317.376"/>
</g>
<!-- t1 -->
<g id="node3" class="node"><title>t1</title>
<polygon fill="#ebf3ff" stroke="#0044a0" points="2913.42,-229.172 2746.58,-229.172 2742.58,-225.172 2742.58,-193.172 2909.42,-193.172 2913.42,-197.172 2913.42,-229.172"/>
<polyline fill="none" stroke="#0044a0" points="2909.42,-225.172 2742.58,-225.172 "/>
<polyline fill="none" stroke="#0044a0" points="2909.42,-225.172 2909.42,-193.172 "/>
<polyline fill="none" stroke="#0044a0" points="2909.42,-225.172 2913.42,-229.172 "/>
<text text-anchor="middle" x="2828" y="-205.172" font-family="Times,serif" font-size="20.00" fill="#0044a0">buildCdsTranscript</text>
</g>
<!-- t0&#45;&gt;t1 -->
<g id="edge2" class="edge"><title>t0&#45;&gt;t1</title>
<path fill="none" stroke="#0044a0" d="M2914.09,-271.116C2898.63,-260.532 2878.57,-246.795 2861.7,-235.246"/>
<polygon fill="#0044a0" stroke="#0044a0" points="2863.44,-232.195 2853.21,-229.434 2859.49,-237.971 2863.44,-232.195"/>
</g>
<!-- t2 -->
<g id="node4" class="node"><title>t2</title>
<polygon fill="#ebf3ff" stroke="#0044a0" points="2724.52,-229.172 2547.48,-229.172 2543.48,-225.172 2543.48,-193.172 2720.52,-193.172 2724.52,-197.172 2724.52,-229.172"/>
<polyline fill="none" stroke="#0044a0" points="2720.52,-225.172 2543.48,-225.172 "/>
<polyline fill="none" stroke="#0044a0" points="2720.52,-225.172 2720.52,-193.172 "/>
<polyline fill="none" stroke="#0044a0" points="2720.52,-225.172 2724.52,-229.172 "/>
<text text-anchor="middle" x="2634" y="-205.172" font-family="Times,serif" font-size="20.00" fill="#0044a0">buildExonTranscript</text>
</g>
<!-- t0&#45;&gt;t2 -->
<g id="edge3" class="edge"><title>t0&#45;&gt;t2</title>
<path fill="none" stroke="#0044a0" d="M2865.34,-271.112C2826.25,-261.921 2777.44,-250.226 2734,-239.172 2724.88,-236.852 2715.31,-234.352 2705.86,-231.843"/>
<polygon fill="#0044a0" stroke="#0044a0" points="2706.64,-228.428 2696.07,-229.232 2704.83,-235.191 2706.64,-228.428"/>
</g>
<!-- t3 -->
<g id="node5" class="node"><title>t3</title>
<polygon fill="#ebf3ff" stroke="#0044a0" points="3171.41,-229.172 2934.59,-229.172 2930.59,-225.172 2930.59,-193.172 3167.41,-193.172 3171.41,-197.172 3171.41,-229.172"/>
<polyline fill="none" stroke="#0044a0" points="3167.41,-225.172 2930.59,-225.172 "/>
<polyline fill="none" stroke="#0044a0" points="3167.41,-225.172 3167.41,-193.172 "/>
<polyline fill="none" stroke="#0044a0" points="3167.41,-225.172 3171.41,-229.172 "/>
<text text-anchor="middle" x="3051" y="-205.172" font-family="Times,serif" font-size="20.00" fill="#0044a0">buildCodingExonTranscript</text>
</g>
<!-- t0&#45;&gt;t3 -->
<g id="edge4" class="edge"><title>t0&#45;&gt;t3</title>
<path fill="none" stroke="#0044a0" d="M2964.13,-271.116C2979.73,-260.532 2999.98,-246.795 3017,-235.246"/>
<polygon fill="#0044a0" stroke="#0044a0" points="3019.25,-237.945 3025.56,-229.434 3015.32,-232.153 3019.25,-237.945"/>
</g>
<!-- t5 -->
<g id="node6" class="node"><title>t5</title>
<polygon fill="#ebf3ff" stroke="#0044a0" points="3483.35,-229.172 3212.65,-229.172 3208.65,-225.172 3208.65,-193.172 3479.35,-193.172 3483.35,-197.172 3483.35,-229.172"/>
<polyline fill="none" stroke="#0044a0" points="3479.35,-225.172 3208.65,-225.172 "/>
<polyline fill="none" stroke="#0044a0" points="3479.35,-225.172 3479.35,-193.172 "/>
<polyline fill="none" stroke="#0044a0" points="3479.35,-225.172 3483.35,-229.172 "/>
<text text-anchor="middle" x="3346" y="-205.172" font-family="Times,serif" font-size="20.00" fill="#0044a0">buildNonCodingExonTranscript</text>
</g>
<!-- t0&#45;&gt;t5 -->
<g id="edge5" class="edge"><title>t0&#45;&gt;t5</title>
<path fill="none" stroke="#0044a0" d="M3027.56,-271.634C3091.51,-259.693 3177.99,-243.545 3244.69,-231.09"/>
<polygon fill="#0044a0" stroke="#0044a0" points="3245.61,-234.478 3254.8,-229.202 3244.33,-227.597 3245.61,-234.478"/>
</g>
<!-- t4 -->
<g id="node7" class="node"><title>t4</title>
<polygon fill="#ebf3ff" stroke="#0044a0" points="3762.39,-229.172 3505.61,-229.172 3501.61,-225.172 3501.61,-193.172 3758.39,-193.172 3762.39,-197.172 3762.39,-229.172"/>
<polyline fill="none" stroke="#0044a0" points="3758.39,-225.172 3501.61,-225.172 "/>
<polyline fill="none" stroke="#0044a0" points="3758.39,-225.172 3758.39,-193.172 "/>
<polyline fill="none" stroke="#0044a0" points="3758.39,-225.172 3762.39,-229.172 "/>
<text text-anchor="middle" x="3632" y="-205.172" font-family="Times,serif" font-size="20.00" fill="#0044a0">buildLincRNAExonTranscript</text>
</g>
<!-- t0&#45;&gt;t4 -->
<g id="edge6" class="edge"><title>t0&#45;&gt;t4</title>
<path fill="none" stroke="#0044a0" d="M3027.91,-283.1C3137.44,-276.206 3329.02,-262.047 3492,-239.172 3507.94,-236.935 3524.81,-234.093 3541.11,-231.098"/>
<polygon fill="#0044a0" stroke="#0044a0" points="3541.98,-234.495 3551.17,-229.217 3540.7,-227.614 3541.98,-234.495"/>
</g>
<!-- t7 -->
<g id="node9" class="node"><title>t7</title>
<polygon fill="#ebf3ff" stroke="#0044a0" points="2524.98,-229.172 2373.02,-229.172 2369.02,-225.172 2369.02,-193.172 2520.98,-193.172 2524.98,-197.172 2524.98,-229.172"/>
<polyline fill="none" stroke="#0044a0" points="2520.98,-225.172 2369.02,-225.172 "/>
<polyline fill="none" stroke="#0044a0" points="2520.98,-225.172 2520.98,-193.172 "/>
<polyline fill="none" stroke="#0044a0" points="2520.98,-225.172 2524.98,-229.172 "/>
<text text-anchor="middle" x="2447" y="-205.172" font-family="Times,serif" font-size="20.00" fill="#0044a0">buildFlatGeneSet</text>
</g>
<!-- t0&#45;&gt;t7 -->
<g id="edge7" class="edge"><title>t0&#45;&gt;t7</title>
<path fill="none" stroke="#0044a0" d="M2850.15,-282.061C2767.58,-275.291 2641.53,-262.164 2534,-239.172 2525.03,-237.253 2515.65,-234.818 2506.52,-232.198"/>
<polygon fill="#0044a0" stroke="#0044a0" points="2507.32,-228.784 2496.74,-229.298 2505.33,-235.495 2507.32,-228.784"/>
</g>
<!-- t6 -->
<g id="node12" class="node"><title>t6</title>
<polygon fill="#ebf3ff" stroke="#0044a0" points="3121.4,-135.586 2984.6,-135.586 2980.6,-131.586 2980.6,-99.5859 3117.4,-99.5859 3121.4,-103.586 3121.4,-135.586"/>
<polyline fill="none" stroke="#0044a0" points="3117.4,-131.586 2980.6,-131.586 "/>
<polyline fill="none" stroke="#0044a0" points="3117.4,-131.586 3117.4,-99.5859 "/>
<polyline fill="none" stroke="#0044a0" points="3117.4,-131.586 3121.4,-135.586 "/>
<text text-anchor="middle" x="3051" y="-111.586" font-family="Times,serif" font-size="20.00" fill="#0044a0">loadTranscripts</text>
</g>
<!-- t0&#45;&gt;t6 -->
<g id="edge17" class="edge"><title>t0&#45;&gt;t6</title>
<path fill="none" stroke="#0044a0" d="M3027.76,-281.709C3088.26,-275.243 3160.75,-262.729 3180,-239.172 3195.75,-219.899 3193.08,-204.347 3180,-183.172 3167.79,-163.403 3147.49,-149.481 3126.56,-139.763"/>
<polygon fill="#0044a0" stroke="#0044a0" points="3127.82,-136.495 3117.26,-135.72 3125.03,-142.915 3127.82,-136.495"/>
</g>
<!-- t18 -->
<g id="node19" class="node"><title>t18</title>
<polygon fill="#ebf3ff" stroke="#0044a0" points="1523.04,-105.356 1654,-78.0079 1784.96,-105.356 1784.84,-149.605 1523.16,-149.605 1523.04,-105.356"/>
<polygon fill="none" stroke="#0044a0" points="1519.03,-102.099 1654,-73.9139 1788.97,-102.099 1788.83,-153.613 1519.17,-153.613 1519.03,-102.099"/>
<text text-anchor="middle" x="1654" y="-111.586" font-family="Times,serif" font-size="20.00" fill="#0044a0">buildGenomicContext</text>
</g>
<!-- t0&#45;&gt;t18 -->
<g id="edge25" class="edge"><title>t0&#45;&gt;t18</title>
<path fill="none" stroke="#0044a0" d="M2850.01,-287.003C2590.73,-283.243 1851.62,-269.872 1810,-239.172 1788.73,-223.483 1807.73,-202.773 1790,-183.172 1781.7,-173.994 1771.82,-166.001 1761.22,-159.07"/>
<polygon fill="#0044a0" stroke="#0044a0" points="1762.94,-156.015 1752.59,-153.737 1759.26,-161.97 1762.94,-156.015"/>
</g>
<!-- t8 -->
<g id="node27" class="node"><title>t8</title>
<polygon fill="#ebf3ff" stroke="#0044a0" points="946.602,-229.172 833.398,-229.172 829.398,-225.172 829.398,-193.172 942.602,-193.172 946.602,-197.172 946.602,-229.172"/>
<polyline fill="none" stroke="#0044a0" points="942.602,-225.172 829.398,-225.172 "/>
<polyline fill="none" stroke="#0044a0" points="942.602,-225.172 942.602,-193.172 "/>
<polyline fill="none" stroke="#0044a0" points="942.602,-225.172 946.602,-229.172 "/>
<text text-anchor="middle" x="888" y="-205.172" font-family="Times,serif" font-size="20.00" fill="#0044a0">buildRefFlat</text>
</g>
<!-- t0&#45;&gt;t8 -->
<g id="edge31" class="edge"><title>t0&#45;&gt;t8</title>
<path fill="none" stroke="#0044a0" d="M2850.41,-286.196C2468.2,-277.644 978.527,-244.036 955,-239.172 947.739,-237.671 940.258,-235.422 933.046,-232.853"/>
<polygon fill="#0044a0" stroke="#0044a0" points="934.015,-229.477 923.424,-229.189 931.524,-236.018 934.015,-229.477"/>
</g>
<!-- t19 -->
<g id="node28" class="node"><title>t19</title>
<polygon fill="#efa03b" stroke="black" points="2623,-52 2573,-52 2569,-48 2569,-16 2619,-16 2623,-20 2623,-52"/>
<polyline fill="none" stroke="black" points="2619,-48 2569,-48 "/>
<polyline fill="none" stroke="black" points="2619,-48 2619,-16 "/>
<polyline fill="none" stroke="black" points="2619,-48 2623,-52 "/>
<text text-anchor="middle" x="2596" y="-28" font-family="Times,serif" font-size="20.00">full</text>
</g>
<!-- t0&#45;&gt;t19 -->
<g id="edge45" class="edge"><title>t0&#45;&gt;t19</title>
<path fill="none" stroke="#0044a0" d="M3027.59,-286.185C3236.78,-281.063 3745.8,-265.903 3771,-239.172 3788.07,-221.063 3786.15,-202.915 3771,-183.172 3656.7,-34.2692 3548.43,-103.188 3363,-74 3219.86,-51.4677 2766.84,-39.0824 2633.36,-35.8572"/>
<polygon fill="#0044a0" stroke="#0044a0" points="2633.31,-32.3551 2623.23,-35.6153 2633.14,-39.3531 2633.31,-32.3551"/>
</g>
<!-- t1&#45;&gt;t6 -->
<g id="edge16" class="edge"><title>t1&#45;&gt;t6</title>
<path fill="none" stroke="#0044a0" d="M2869.42,-193.16C2906.31,-178.01 2960.4,-155.794 2999.95,-139.551"/>
<polygon fill="#0044a0" stroke="#0044a0" points="3001.5,-142.699 3009.42,-135.662 2998.84,-136.223 3001.5,-142.699"/>
</g>
<!-- t1&#45;&gt;t19 -->
<g id="edge44" class="edge"><title>t1&#45;&gt;t19</title>
<path fill="none" stroke="#0044a0" d="M2805.33,-193.057C2763.49,-161.465 2674.09,-93.9642 2626.8,-58.2577"/>
<polygon fill="#0044a0" stroke="#0044a0" points="2628.85,-55.4172 2618.76,-52.1846 2624.63,-61.0037 2628.85,-55.4172"/>
</g>
<!-- t11 -->
<g id="node11" class="node"><title>t11</title>
<polygon fill="#ebf3ff" stroke="#0044a0" points="2551.18,-135.586 2346.82,-135.586 2342.82,-131.586 2342.82,-99.5859 2547.18,-99.5859 2551.18,-103.586 2551.18,-135.586"/>
<polyline fill="none" stroke="#0044a0" points="2547.18,-131.586 2342.82,-131.586 "/>
<polyline fill="none" stroke="#0044a0" points="2547.18,-131.586 2547.18,-99.5859 "/>
<polyline fill="none" stroke="#0044a0" points="2547.18,-131.586 2551.18,-135.586 "/>
<text text-anchor="middle" x="2447" y="-111.586" font-family="Times,serif" font-size="20.00" fill="#0044a0">buildIntronGeneModels</text>
</g>
<!-- t2&#45;&gt;t11 -->
<g id="edge11" class="edge"><title>t2&#45;&gt;t11</title>
<path fill="none" stroke="#0044a0" d="M2599.26,-193.16C2568.66,-178.171 2523.93,-156.263 2490.86,-140.068"/>
<polygon fill="#0044a0" stroke="#0044a0" points="2492.39,-136.917 2481.87,-135.662 2489.31,-143.204 2492.39,-136.917"/>
</g>
<!-- t2&#45;&gt;t6 -->
<g id="edge15" class="edge"><title>t2&#45;&gt;t6</title>
<path fill="none" stroke="#0044a0" d="M2694.66,-193.14C2707.6,-189.689 2721.23,-186.195 2734,-183.172 2814.03,-164.236 2906.21,-145.833 2970.46,-133.548"/>
<polygon fill="#0044a0" stroke="#0044a0" points="2971.36,-136.94 2980.53,-131.63 2970.05,-130.064 2971.36,-136.94"/>
</g>
<!-- t2&#45;&gt;t19 -->
<g id="edge43" class="edge"><title>t2&#45;&gt;t19</title>
<path fill="none" stroke="#0044a0" d="M2630.29,-193.057C2623.68,-162.577 2609.81,-98.6713 2601.89,-62.1432"/>
<polygon fill="#0044a0" stroke="#0044a0" points="2605.27,-61.2153 2599.73,-52.1846 2598.43,-62.6994 2605.27,-61.2153"/>
</g>
<!-- t3&#45;&gt;t6 -->
<g id="edge14" class="edge"><title>t3&#45;&gt;t6</title>
<path fill="none" stroke="#0044a0" d="M3051,-192.945C3051,-179.769 3051,-161.34 3051,-146.125"/>
<polygon fill="#0044a0" stroke="#0044a0" points="3054.5,-145.735 3051,-135.735 3047.5,-145.735 3054.5,-145.735"/>
</g>
<!-- t3&#45;&gt;t19 -->
<g id="edge42" class="edge"><title>t3&#45;&gt;t19</title>
<path fill="none" stroke="#0044a0" d="M3010.45,-193.107C2946.99,-166.586 2820.15,-114.332 2711,-74 2684.99,-64.3885 2655.35,-54.3579 2632.67,-46.8764"/>
<polygon fill="#0044a0" stroke="#0044a0" points="2633.69,-43.5271 2623.1,-43.7321 2631.51,-50.1776 2633.69,-43.5271"/>
</g>
<!-- t5&#45;&gt;t6 -->
<g id="edge12" class="edge"><title>t5&#45;&gt;t6</title>
<path fill="none" stroke="#0044a0" d="M3291.2,-193.16C3241.48,-177.722 3168.12,-154.946 3115.56,-138.63"/>
<polygon fill="#0044a0" stroke="#0044a0" points="3116.59,-135.284 3106,-135.662 3114.51,-141.97 3116.59,-135.284"/>
</g>
<!-- t5&#45;&gt;t19 -->
<g id="edge40" class="edge"><title>t5&#45;&gt;t19</title>
<path fill="none" stroke="#0044a0" d="M3326.57,-193.171C3290.66,-162.904 3210.22,-100.38 3130,-74 3037.48,-43.5756 2738.62,-36.828 2633.22,-35.381"/>
<polygon fill="#0044a0" stroke="#0044a0" points="2633.1,-31.8794 2623.06,-35.25 2633.01,-38.8788 2633.1,-31.8794"/>
</g>
<!-- t4&#45;&gt;t6 -->
<g id="edge13" class="edge"><title>t4&#45;&gt;t6</title>
<path fill="none" stroke="#0044a0" d="M3546.97,-193.137C3528.85,-189.686 3509.82,-186.193 3492,-183.172 3366.38,-161.872 3219.92,-141.253 3131.39,-129.251"/>
<polygon fill="#0044a0" stroke="#0044a0" points="3131.8,-125.774 3121.42,-127.902 3130.86,-132.711 3131.8,-125.774"/>
</g>
<!-- t4&#45;&gt;t19 -->
<g id="edge41" class="edge"><title>t4&#45;&gt;t19</title>
<path fill="none" stroke="#0044a0" d="M3591.17,-193.124C3517.12,-163.072 3355.06,-101.273 3212,-74 3100.1,-52.6676 2749.18,-39.8684 2633.44,-36.1427"/>
<polygon fill="#0044a0" stroke="#0044a0" points="2633.41,-32.6401 2623.3,-35.8204 2633.19,-39.6365 2633.41,-32.6401"/>
</g>
<!-- t23 -->
<g id="node8" class="node"><title>t23</title>
<polygon fill="#ebf3ff" stroke="#0044a0" points="2350.75,-239.172 2085.25,-239.172 2081.25,-235.172 2081.25,-183.172 2346.75,-183.172 2350.75,-187.172 2350.75,-239.172"/>
<polyline fill="none" stroke="#0044a0" points="2346.75,-235.172 2081.25,-235.172 "/>
<polyline fill="none" stroke="#0044a0" points="2346.75,-235.172 2346.75,-183.172 "/>
<polyline fill="none" stroke="#0044a0" points="2346.75,-235.172 2350.75,-239.172 "/>
<text text-anchor="middle" x="2216" y="-217.172" font-family="Times,serif" font-size="20.00" fill="#0044a0">mkdir(&#39;geneset.dir&#39;) </text>
<text text-anchor="middle" x="2216" y="-193.172" font-family="Times,serif" font-size="20.00" fill="#0044a0">before buildIntronGeneModels </text>
</g>
<!-- t23&#45;&gt;t11 -->
<g id="edge8" class="edge"><title>t23&#45;&gt;t11</title>
<path fill="none" stroke="#0044a0" d="M2284.37,-183.065C2319.61,-169.094 2361.91,-152.323 2394.53,-139.388"/>
<polygon fill="#0044a0" stroke="#0044a0" points="2395.89,-142.615 2403.9,-135.676 2393.31,-136.108 2395.89,-142.615"/>
</g>
<!-- t7&#45;&gt;t11 -->
<g id="edge10" class="edge"><title>t7&#45;&gt;t11</title>
<path fill="none" stroke="#0044a0" d="M2447,-192.945C2447,-179.769 2447,-161.34 2447,-146.125"/>
<polygon fill="#0044a0" stroke="#0044a0" points="2450.5,-145.735 2447,-135.735 2443.5,-145.735 2450.5,-145.735"/>
</g>
<!-- t7&#45;&gt;t19 -->
<g id="edge38" class="edge"><title>t7&#45;&gt;t19</title>
<path fill="none" stroke="#0044a0" d="M2512.51,-193.09C2529.97,-185.765 2547.45,-175.482 2560,-161.172 2584.26,-133.5 2592.24,-90.5056 2594.82,-62.5485"/>
<polygon fill="#0044a0" stroke="#0044a0" points="2598.33,-62.5147 2595.59,-52.2811 2591.35,-61.9915 2598.33,-62.5147"/>
</g>
<!-- t10 -->
<g id="node10" class="node"><title>t10</title>
<polygon fill="#ebf3ff" stroke="#0044a0" points="2063.35,-229.172 1822.65,-229.172 1818.65,-225.172 1818.65,-193.172 2059.35,-193.172 2063.35,-197.172 2063.35,-229.172"/>
<polyline fill="none" stroke="#0044a0" points="2059.35,-225.172 1818.65,-225.172 "/>
<polyline fill="none" stroke="#0044a0" points="2059.35,-225.172 2059.35,-193.172 "/>
<polyline fill="none" stroke="#0044a0" points="2059.35,-225.172 2063.35,-229.172 "/>
<text text-anchor="middle" x="1941" y="-205.172" font-family="Times,serif" font-size="20.00" fill="#0044a0">identifyProteinCodingGenes</text>
</g>
<!-- t10&#45;&gt;t11 -->
<g id="edge9" class="edge"><title>t10&#45;&gt;t11</title>
<path fill="none" stroke="#0044a0" d="M2021.63,-193.121C2038.27,-189.725 2055.69,-186.257 2072,-183.172 2159.28,-166.665 2258.33,-149.681 2332.71,-137.274"/>
<polygon fill="#0044a0" stroke="#0044a0" points="2333.28,-140.726 2342.57,-135.631 2332.13,-133.821 2333.28,-140.726"/>
</g>
<!-- t11&#45;&gt;t19 -->
<g id="edge35" class="edge"><title>t11&#45;&gt;t19</title>
<path fill="none" stroke="#0044a0" d="M2478.24,-99.4828C2502.1,-86.4157 2535.03,-68.3855 2560,-54.7123"/>
<polygon fill="#0044a0" stroke="#0044a0" points="2561.72,-57.7619 2568.81,-49.8892 2558.36,-51.6221 2561.72,-57.7619"/>
</g>
<!-- t6&#45;&gt;t19 -->
<g id="edge39" class="edge"><title>t6&#45;&gt;t19</title>
<path fill="none" stroke="#0044a0" d="M3001.94,-99.5288C2975.07,-90.7582 2941.02,-80.5617 2910,-74 2811.14,-53.0886 2692.22,-42.0924 2633.12,-37.5593"/>
<polygon fill="#0044a0" stroke="#0044a0" points="2633.37,-34.0685 2623.14,-36.812 2632.85,-41.049 2633.37,-34.0685"/>
</g>
<!-- t22 -->
<g id="node13" class="node"><title>t22</title>
<polygon fill="#ebf3ff" stroke="#0044a0" points="1599.78,-317.172 1314.22,-317.172 1310.22,-313.172 1310.22,-261.172 1595.78,-261.172 1599.78,-265.172 1599.78,-317.172"/>
<polyline fill="none" stroke="#0044a0" points="1595.78,-313.172 1310.22,-313.172 "/>
<polyline fill="none" stroke="#0044a0" points="1595.78,-313.172 1595.78,-261.172 "/>
<polyline fill="none" stroke="#0044a0" points="1595.78,-313.172 1599.78,-317.172 "/>
<text text-anchor="middle" x="1455" y="-295.172" font-family="Times,serif" font-size="20.00" fill="#0044a0">mkdir(&#39;ucsc.dir&#39;) </text>
<text text-anchor="middle" x="1455" y="-271.172" font-family="Times,serif" font-size="20.00" fill="#0044a0">before importRepeatsFromUCSC </text>
</g>
<!-- t13 -->
<g id="node14" class="node"><title>t13</title>
<polygon fill="#ebf3ff" stroke="#0044a0" points="1508.21,-229.172 1283.79,-229.172 1279.79,-225.172 1279.79,-193.172 1504.21,-193.172 1508.21,-197.172 1508.21,-229.172"/>
<polyline fill="none" stroke="#0044a0" points="1504.21,-225.172 1279.79,-225.172 "/>
<polyline fill="none" stroke="#0044a0" points="1504.21,-225.172 1504.21,-193.172 "/>
<polyline fill="none" stroke="#0044a0" points="1504.21,-225.172 1508.21,-229.172 "/>
<text text-anchor="middle" x="1394" y="-205.172" font-family="Times,serif" font-size="20.00" fill="#0044a0">importRepeatsFromUCSC</text>
</g>
<!-- t22&#45;&gt;t13 -->
<g id="edge18" class="edge"><title>t22&#45;&gt;t13</title>
<path fill="none" stroke="#0044a0" d="M1433.32,-261.163C1427.09,-253.393 1420.31,-244.951 1414.17,-237.3"/>
<polygon fill="#0044a0" stroke="#0044a0" points="1416.8,-234.984 1407.81,-229.376 1411.34,-239.365 1416.8,-234.984"/>
</g>
<!-- t14 -->
<g id="node17" class="node"><title>t14</title>
<polygon fill="#ebf3ff" stroke="#0044a0" points="1450.74,-135.586 1341.26,-135.586 1337.26,-131.586 1337.26,-99.5859 1446.74,-99.5859 1450.74,-103.586 1450.74,-135.586"/>
<polyline fill="none" stroke="#0044a0" points="1446.74,-131.586 1337.26,-131.586 "/>
<polyline fill="none" stroke="#0044a0" points="1446.74,-131.586 1446.74,-99.5859 "/>
<polyline fill="none" stroke="#0044a0" points="1446.74,-131.586 1450.74,-135.586 "/>
<text text-anchor="middle" x="1394" y="-111.586" font-family="Times,serif" font-size="20.00" fill="#0044a0">loadRepeats</text>
</g>
<!-- t13&#45;&gt;t14 -->
<g id="edge20" class="edge"><title>t13&#45;&gt;t14</title>
<path fill="none" stroke="#0044a0" d="M1394,-192.945C1394,-179.769 1394,-161.34 1394,-146.125"/>
<polygon fill="#0044a0" stroke="#0044a0" points="1397.5,-145.735 1394,-135.735 1390.5,-145.735 1397.5,-145.735"/>
</g>
<!-- t13&#45;&gt;t18 -->
<g id="edge23" class="edge"><title>t13&#45;&gt;t18</title>
<path fill="none" stroke="#0044a0" d="M1442.29,-193.16C1471.21,-182.974 1509.2,-169.593 1545,-156.981"/>
<polygon fill="#0044a0" stroke="#0044a0" points="1546.27,-160.245 1554.54,-153.621 1543.94,-153.643 1546.27,-160.245"/>
</g>
<!-- t27 -->
<g id="node15" class="node"><title>t27</title>
<polygon fill="#ebf3ff" stroke="#0044a0" points="1292.17,-317.172 937.826,-317.172 933.826,-313.172 933.826,-261.172 1288.17,-261.172 1292.17,-265.172 1292.17,-317.172"/>
<polyline fill="none" stroke="#0044a0" points="1288.17,-313.172 933.826,-313.172 "/>
<polyline fill="none" stroke="#0044a0" points="1288.17,-313.172 1288.17,-261.172 "/>
<polyline fill="none" stroke="#0044a0" points="1288.17,-313.172 1292.17,-317.172 "/>
<text text-anchor="middle" x="1113" y="-295.172" font-family="Times,serif" font-size="20.00" fill="#0044a0">mkdir(&#39;ucsc.dir&#39;) </text>
<text text-anchor="middle" x="1113" y="-271.172" font-family="Times,serif" font-size="20.00" fill="#0044a0">before importRNAAnnotationFromUCSC </text>
</g>
<!-- t12 -->
<g id="node16" class="node"><title>t12</title>
<polygon fill="#ebf3ff" stroke="#0044a0" points="1261.6,-229.172 968.398,-229.172 964.398,-225.172 964.398,-193.172 1257.6,-193.172 1261.6,-197.172 1261.6,-229.172"/>
<polyline fill="none" stroke="#0044a0" points="1257.6,-225.172 964.398,-225.172 "/>
<polyline fill="none" stroke="#0044a0" points="1257.6,-225.172 1257.6,-193.172 "/>
<polyline fill="none" stroke="#0044a0" points="1257.6,-225.172 1261.6,-229.172 "/>
<text text-anchor="middle" x="1113" y="-205.172" font-family="Times,serif" font-size="20.00" fill="#0044a0">importRNAAnnotationFromUCSC</text>
</g>
<!-- t27&#45;&gt;t12 -->
<g id="edge19" class="edge"><title>t27&#45;&gt;t12</title>
<path fill="none" stroke="#0044a0" d="M1113,-261.163C1113,-254.219 1113,-246.74 1113,-239.767"/>
<polygon fill="#0044a0" stroke="#0044a0" points="1116.5,-239.376 1113,-229.376 1109.5,-239.376 1116.5,-239.376"/>
</g>
<!-- t12&#45;&gt;t14 -->
<g id="edge21" class="edge"><title>t12&#45;&gt;t14</title>
<path fill="none" stroke="#0044a0" d="M1165.2,-193.16C1212.36,-177.786 1281.86,-155.135 1331.88,-138.833"/>
<polygon fill="#0044a0" stroke="#0044a0" points="1333.18,-142.089 1341.61,-135.662 1331.02,-135.433 1333.18,-142.089"/>
</g>
<!-- t12&#45;&gt;t18 -->
<g id="edge24" class="edge"><title>t12&#45;&gt;t18</title>
<path fill="none" stroke="#0044a0" d="M1207.7,-193.143C1228.52,-189.635 1250.48,-186.118 1271,-183.172 1354.71,-171.156 1376.6,-175.144 1460,-161.172 1475.84,-158.518 1492.34,-155.42 1508.74,-152.127"/>
<polygon fill="#0044a0" stroke="#0044a0" points="1509.82,-155.478 1518.92,-150.054 1508.43,-148.618 1509.82,-155.478"/>
</g>
<!-- t14&#45;&gt;t19 -->
<g id="edge34" class="edge"><title>t14&#45;&gt;t19</title>
<path fill="none" stroke="#0044a0" d="M1431.27,-99.479C1453.6,-90.1036 1482.84,-79.3317 1510,-74 1717.19,-33.3207 2392.31,-33.9624 2558.69,-34.7658"/>
<polygon fill="#0044a0" stroke="#0044a0" points="2558.88,-38.2667 2568.9,-34.8185 2558.92,-31.2668 2558.88,-38.2667"/>
</g>
<!-- t21 -->
<g id="node18" class="node"><title>t21</title>
<polygon fill="#ebf3ff" stroke="#0044a0" points="1781.33,-239.172 1530.67,-239.172 1526.67,-235.172 1526.67,-183.172 1777.33,-183.172 1781.33,-187.172 1781.33,-239.172"/>
<polyline fill="none" stroke="#0044a0" points="1777.33,-235.172 1526.67,-235.172 "/>
<polyline fill="none" stroke="#0044a0" points="1777.33,-235.172 1777.33,-183.172 "/>
<polyline fill="none" stroke="#0044a0" points="1777.33,-235.172 1781.33,-239.172 "/>
<text text-anchor="middle" x="1654" y="-217.172" font-family="Times,serif" font-size="20.00" fill="#0044a0">mkdir(&#39;bed.dir&#39;) </text>
<text text-anchor="middle" x="1654" y="-193.172" font-family="Times,serif" font-size="20.00" fill="#0044a0">before buildGenomicContext </text>
</g>
<!-- t21&#45;&gt;t18 -->
<g id="edge22" class="edge"><title>t21&#45;&gt;t18</title>
<path fill="none" stroke="#0044a0" d="M1654,-182.693C1654,-176.746 1654,-170.305 1654,-163.877"/>
<polygon fill="#0044a0" stroke="#0044a0" points="1657.5,-163.86 1654,-153.86 1650.5,-163.86 1657.5,-163.86"/>
</g>
<!-- t18&#45;&gt;t19 -->
<g id="edge32" class="edge"><title>t18&#45;&gt;t19</title>
<path fill="none" stroke="#0044a0" d="M1788.97,-104.897C2008.42,-85.8899 2430.96,-49.2944 2558.59,-38.24"/>
<polygon fill="#0044a0" stroke="#0044a0" points="2558.98,-41.7192 2568.64,-37.3693 2558.38,-34.7453 2558.98,-41.7192"/>
</g>
<!-- t20 -->
<g id="node20" class="node"><title>t20</title>
<polygon fill="#ebf3ff" stroke="#0044a0" points="315.754,-317.172 20.2459,-317.172 16.2459,-313.172 16.2459,-261.172 311.754,-261.172 315.754,-265.172 315.754,-317.172"/>
<polyline fill="none" stroke="#0044a0" points="311.754,-313.172 16.2459,-313.172 "/>
<polyline fill="none" stroke="#0044a0" points="311.754,-313.172 311.754,-261.172 "/>
<polyline fill="none" stroke="#0044a0" points="311.754,-313.172 315.754,-317.172 "/>
<text text-anchor="middle" x="166" y="-295.172" font-family="Times,serif" font-size="20.00" fill="#0044a0">mkdir(&#39;mirbase.dir&#39;) </text>
<text text-anchor="middle" x="166" y="-271.172" font-family="Times,serif" font-size="20.00" fill="#0044a0">before buildmiRPrimaryTranscript </text>
</g>
<!-- t15 -->
<g id="node21" class="node"><title>t15</title>
<polygon fill="#ebf3ff" stroke="#0044a0" points="254.182,-229.172 19.8179,-229.172 15.8179,-225.172 15.8179,-193.172 250.182,-193.172 254.182,-197.172 254.182,-229.172"/>
<polyline fill="none" stroke="#0044a0" points="250.182,-225.172 15.8179,-225.172 "/>
<polyline fill="none" stroke="#0044a0" points="250.182,-225.172 250.182,-193.172 "/>
<polyline fill="none" stroke="#0044a0" points="250.182,-225.172 254.182,-229.172 "/>
<text text-anchor="middle" x="135" y="-205.172" font-family="Times,serif" font-size="20.00" fill="#0044a0">buildmiRPrimaryTranscript</text>
</g>
<!-- t20&#45;&gt;t15 -->
<g id="edge26" class="edge"><title>t20&#45;&gt;t15</title>
<path fill="none" stroke="#0044a0" d="M154.983,-261.163C152.016,-253.889 148.809,-246.026 145.851,-238.774"/>
<polygon fill="#0044a0" stroke="#0044a0" points="149.035,-237.313 142.017,-229.376 142.554,-239.957 149.035,-237.313"/>
</g>
<!-- t17 -->
<g id="node23" class="node"><title>t17</title>
<polygon fill="#ebf3ff" stroke="#0044a0" points="509.728,-135.586 310.272,-135.586 306.272,-131.586 306.272,-99.5859 505.728,-99.5859 509.728,-103.586 509.728,-135.586"/>
<polyline fill="none" stroke="#0044a0" points="505.728,-131.586 306.272,-131.586 "/>
<polyline fill="none" stroke="#0044a0" points="505.728,-131.586 505.728,-99.5859 "/>
<polyline fill="none" stroke="#0044a0" points="505.728,-131.586 509.728,-135.586 "/>
<text text-anchor="middle" x="408" y="-111.586" font-family="Times,serif" font-size="20.00" fill="#0044a0">loadmiRNATranscripts</text>
</g>
<!-- t15&#45;&gt;t17 -->
<g id="edge28" class="edge"><title>t15&#45;&gt;t17</title>
<path fill="none" stroke="#0044a0" d="M185.709,-193.16C231.44,-177.818 298.774,-155.229 347.342,-138.935"/>
<polygon fill="#0044a0" stroke="#0044a0" points="348.732,-142.161 357.1,-135.662 346.506,-135.524 348.732,-142.161"/>
</g>
<!-- t16 -->
<g id="node22" class="node"><title>t16</title>
<polygon fill="#ebf3ff" stroke="#0044a0" points="544.12,-229.172 275.88,-229.172 271.88,-225.172 271.88,-193.172 540.0px,-193.172 544.12,-197.172 544.12,-229.172"/>
<polyline fill="none" stroke="#0044a0" points="540.0px,-225.172 271.88,-225.172 "/>
<polyline fill="none" stroke="#0044a0" points="540.0px,-225.172 540.0px,-193.172 "/>
<polyline fill="none" stroke="#0044a0" points="540.0px,-225.172 544.12,-229.172 "/>
<text text-anchor="middle" x="408" y="-205.172" font-family="Times,serif" font-size="20.00" fill="#0044a0">buildmiRNonPrimaryTranscript</text>
</g>
<!-- t16&#45;&gt;t17 -->
<g id="edge27" class="edge"><title>t16&#45;&gt;t17</title>
<path fill="none" stroke="#0044a0" d="M408,-192.945C408,-179.769 408,-161.34 408,-146.125"/>
<polygon fill="#0044a0" stroke="#0044a0" points="411.5,-145.735 408,-135.735 404.5,-145.735 411.5,-145.735"/>
</g>
<!-- t17&#45;&gt;t19 -->
<g id="edge33" class="edge"><title>t17&#45;&gt;t19</title>
<path fill="none" stroke="#0044a0" d="M510.018,-100.452C574.608,-90.954 659.986,-79.7147 736,-74 1108.93,-45.9635 2329.16,-36.7371 2558.62,-35.2317"/>
<polygon fill="#0044a0" stroke="#0044a0" points="2558.81,-38.7306 2568.79,-35.1658 2558.77,-31.7307 2558.81,-38.7306"/>
</g>
<!-- t24 -->
<g id="node24" class="node"><title>t24</title>
<polygon fill="#ebf3ff" stroke="#0044a0" points="811.728,-239.172 566.272,-239.172 562.272,-235.172 562.272,-183.172 807.728,-183.172 811.728,-187.172 811.728,-239.172"/>
<polyline fill="none" stroke="#0044a0" points="807.728,-235.172 562.272,-235.172 "/>
<polyline fill="none" stroke="#0044a0" points="807.728,-235.172 807.728,-183.172 "/>
<polyline fill="none" stroke="#0044a0" points="807.728,-235.172 811.728,-239.172 "/>
<text text-anchor="middle" x="687" y="-217.172" font-family="Times,serif" font-size="20.00" fill="#0044a0">mkdir(&#39;ensembl.dir&#39;) </text>
<text text-anchor="middle" x="687" y="-193.172" font-family="Times,serif" font-size="20.00" fill="#0044a0">before loadGeneInformation </text>
</g>
<!-- t9 -->
<g id="node25" class="node"><title>t9</title>
<polygon fill="#ebf3ff" stroke="#0044a0" points="933.156,-135.586 748.844,-135.586 744.844,-131.586 744.844,-99.5859 929.156,-99.5859 933.156,-103.586 933.156,-135.586"/>
<polyline fill="none" stroke="#0044a0" points="929.156,-131.586 744.844,-131.586 "/>
<polyline fill="none" stroke="#0044a0" points="929.156,-131.586 929.156,-99.5859 "/>
<polyline fill="none" stroke="#0044a0" points="929.156,-131.586 933.156,-135.586 "/>
<text text-anchor="middle" x="839" y="-111.586" font-family="Times,serif" font-size="20.00" fill="#0044a0">loadGeneInformation</text>
</g>
<!-- t24&#45;&gt;t9 -->
<g id="edge29" class="edge"><title>t24&#45;&gt;t9</title>
<path fill="none" stroke="#0044a0" d="M732.193,-182.941C754.399,-169.561 780.829,-153.636 801.841,-140.976"/>
<polygon fill="#0044a0" stroke="#0044a0" points="803.728,-143.925 810.487,-135.766 800.115,-137.929 803.728,-143.925"/>
</g>
<!-- t9&#45;&gt;t19 -->
<g id="edge36" class="edge"><title>t9&#45;&gt;t19</title>
<path fill="none" stroke="#0044a0" d="M924.067,-99.5835C974.423,-90.2751 1039.59,-79.5359 1098,-74 1394.27,-45.9197 2357.39,-36.8811 2558.85,-35.2766"/>
<polygon fill="#0044a0" stroke="#0044a0" points="2558.95,-38.776 2568.92,-35.1975 2558.89,-31.7762 2558.95,-38.776"/>
</g>
<!-- t26 -->
<g id="node26" class="node"><title>t26</title>
<polygon fill="#ebf3ff" stroke="#0044a0" points="916.092,-317.172 737.908,-317.172 733.908,-313.172 733.908,-261.172 912.092,-261.172 916.092,-265.172 916.092,-317.172"/>
<polyline fill="none" stroke="#0044a0" points="912.092,-313.172 733.908,-313.172 "/>
<polyline fill="none" stroke="#0044a0" points="912.092,-313.172 912.092,-261.172 "/>
<polyline fill="none" stroke="#0044a0" points="912.092,-313.172 916.092,-317.172 "/>
<text text-anchor="middle" x="825" y="-295.172" font-family="Times,serif" font-size="20.00" fill="#0044a0">mkdir(&#39;geneset.dir&#39;) </text>
<text text-anchor="middle" x="825" y="-271.172" font-family="Times,serif" font-size="20.00" fill="#0044a0">before buildRefFlat </text>
</g>
<!-- t26&#45;&gt;t8 -->
<g id="edge30" class="edge"><title>t26&#45;&gt;t8</title>
<path fill="none" stroke="#0044a0" d="M847.389,-261.163C853.83,-253.393 860.827,-244.951 867.17,-237.3"/>
<polygon fill="#0044a0" stroke="#0044a0" points="870.051,-239.308 873.739,-229.376 864.662,-234.841 870.051,-239.308"/>
</g>
<!-- t8&#45;&gt;t19 -->
<g id="edge37" class="edge"><title>t8&#45;&gt;t19</title>
<path fill="none" stroke="#0044a0" d="M929.22,-193.055C1006.03,-162.152 1176.97,-98.0233 1328,-74 1574.05,-34.863 2375.55,-34.4412 2558.56,-34.8719"/>
<polygon fill="#0044a0" stroke="#0044a0" points="2558.74,-38.3723 2568.75,-34.8984 2558.76,-31.3724 2558.74,-38.3723"/>
</g>
<!-- k1_1 -->
<g id="node29" class="node"><title>k1_1</title>
<polygon fill="#ebf3ff" stroke="#0044a0" points="3897.76,-389.472 3810.24,-389.472 3806.24,-385.472 3806.24,-344.871 3893.76,-344.871 3897.76,-348.871 3897.76,-389.472"/>
<polyline fill="none" stroke="#0044a0" points="3893.76,-385.472 3806.24,-385.472 "/>
<polyline fill="none" stroke="#0044a0" points="3893.76,-385.472 3893.76,-344.871 "/>
<polyline fill="none" stroke="#0044a0" points="3893.76,-385.472 3897.76,-389.472 "/>
<text text-anchor="middle" x="3852" y="-362.972" font-family="Times,serif" font-size="14.00" fill="#0044a0">Task to run</text>
</g>
<!-- k2_1 -->
<g id="node30" class="node"><title>k2_1</title>
<polygon fill="#efa03b" stroke="black" points="3898.15,-311.472 3809.85,-311.472 3805.85,-307.472 3805.85,-266.871 3894.15,-266.871 3898.15,-270.871 3898.15,-311.472"/>
<polyline fill="none" stroke="black" points="3894.15,-307.472 3805.85,-307.472 "/>
<polyline fill="none" stroke="black" points="3894.15,-307.472 3894.15,-266.871 "/>
<polyline fill="none" stroke="black" points="3894.15,-307.472 3898.15,-311.472 "/>
<text text-anchor="middle" x="3852" y="-284.972" font-family="Times,serif" font-size="14.00">Final target</text>
</g>
<!-- k1_1&#45;&gt;k2_1 -->
<g id="edge46" class="edge"><title>k1_1&#45;&gt;k2_1</title>
<path fill="none" stroke="#0044a0" d="M3852,-344.597C3852,-337.476 3852,-329.403 3852,-321.697"/>
<polygon fill="#0044a0" stroke="#0044a0" points="3855.5,-321.538 3852,-311.538 3848.5,-321.538 3855.5,-321.538"/>
</g>
</g>
</svg>
