<?xml version="1.0" encoding="UTF-8" standalone="no"?>
<!DOCTYPE svg PUBLIC "-//W3C//DTD SVG 1.1//EN"
 "http://www.w3.org/Graphics/SVG/1.1/DTD/svg11.dtd">
<!-- Generated by graphviz version 2.38.0 (20140413.2041)
 -->
<!-- Title: Pipeline: Pages: 1 -->
<svg width="1449pt" height="730pt"
 viewBox="0.00 0.00 1449.00 729.51" xmlns="http://www.w3.org/2000/svg" xmlns:xlink="http://www.w3.org/1999/xlink">
<g id="graph0" class="graph" transform="scale(1 1) rotate(0) translate(4 725.508)">
<title>Pipeline:</title>
<polygon fill="white" stroke="none" points="-4,4 -4,-725.508 1445,-725.508 1445,4 -4,4"/>
<g id="clust1" class="cluster"><title>clustertasks</title>
<polygon fill="none" stroke="black" points="8,-8 8,-713.508 1295,-713.508 1295,-8 8,-8"/>
<text text-anchor="middle" x="651.5" y="-682.508" font-family="Times,serif" font-size="30.00" fill="#ff3232">Pipeline:</text>
</g>
<g id="clust2" class="cluster"><title>clusterkey1</title>
<polygon fill="#f6f4f4" stroke="#f6f4f4" points="1303,-369.108 1303,-695.908 1433,-695.908 1433,-369.108 1303,-369.108"/>
<text text-anchor="middle" x="1368" y="-673.908" font-family="Times,serif" font-size="20.00">Key:</text>
</g>
<!-- t21 -->
<g id="node1" class="node"><title>t21</title>
<polygon fill="#ebf3ff" stroke="#0044a0" points="1286.94,-502.708 1135.06,-502.708 1131.06,-498.708 1131.06,-446.708 1282.94,-446.708 1286.94,-450.708 1286.94,-502.708"/>
<polyline fill="none" stroke="#0044a0" points="1282.94,-498.708 1131.06,-498.708 "/>
<polyline fill="none" stroke="#0044a0" points="1282.94,-498.708 1282.94,-446.708 "/>
<polyline fill="none" stroke="#0044a0" points="1282.94,-498.708 1286.94,-502.708 "/>
<text text-anchor="middle" x="1209" y="-480.708" font-family="Times,serif" font-size="20.00" fill="#0044a0">mkdir(&#39;export&#39;) </text>
<text text-anchor="middle" x="1209" y="-456.708" font-family="Times,serif" font-size="20.00" fill="#0044a0">before runFastqc </text>
</g>
<!-- t3 -->
<g id="node8" class="node"><title>t3</title>
<polygon fill="none" stroke="#0044a0" stroke-dasharray="5,2" points="796.368,-417.508 705.632,-417.508 701.632,-413.508 701.632,-381.508 792.368,-381.508 796.368,-385.508 796.368,-417.508"/>
<polyline fill="none" stroke="#0044a0" stroke-dasharray="5,2" points="792.368,-413.508 701.632,-413.508 "/>
<polyline fill="none" stroke="#0044a0" stroke-dasharray="5,2" points="792.368,-413.508 792.368,-381.508 "/>
<polyline fill="none" stroke="#0044a0" stroke-dasharray="5,2" points="792.368,-413.508 796.368,-417.508 "/>
<text text-anchor="middle" x="749" y="-393.508" font-family="Times,serif" font-size="20.00" fill="#0044a0">runFastqc</text>
</g>
<!-- t21&#45;&gt;t3 -->
<g id="edge5" class="edge"><title>t21&#45;&gt;t3</title>
<path fill="none" stroke="#0044a0" d="M1132.88,-446.604C1129.22,-445.626 1125.58,-444.72 1122,-443.908 1012.09,-418.993 880.533,-407.937 806.683,-403.383"/>
<polygon fill="#0044a0" stroke="#0044a0" points="806.845,-399.887 796.653,-402.783 806.426,-406.874 806.845,-399.887"/>
</g>
<!-- t22 -->
<g id="node2" class="node"><title>t22</title>
<polygon fill="#ebf3ff" stroke="#0044a0" points="1113.31,-502.708 892.692,-502.708 888.692,-498.708 888.692,-446.708 1109.31,-446.708 1113.31,-450.708 1113.31,-502.708"/>
<polyline fill="none" stroke="#0044a0" points="1109.31,-498.708 888.692,-498.708 "/>
<polyline fill="none" stroke="#0044a0" points="1109.31,-498.708 1109.31,-446.708 "/>
<polyline fill="none" stroke="#0044a0" points="1109.31,-498.708 1113.31,-502.708 "/>
<text text-anchor="middle" x="1001" y="-480.708" font-family="Times,serif" font-size="20.00" fill="#0044a0">mkdir(&#39;export/fastqc&#39;) #2 </text>
<text text-anchor="middle" x="1001" y="-456.708" font-family="Times,serif" font-size="20.00" fill="#0044a0">before runFastqc </text>
</g>
<!-- t22&#45;&gt;t3 -->
<g id="edge4" class="edge"><title>t22&#45;&gt;t3</title>
<path fill="none" stroke="#0044a0" d="M907.88,-446.659C873.87,-436.78 836.422,-425.902 806.429,-417.19"/>
<polygon fill="#0044a0" stroke="#0044a0" points="807.138,-413.751 796.559,-414.323 805.186,-420.473 807.138,-413.751"/>
</g>
<!-- t17 -->
<g id="node3" class="node"><title>t17</title>
<polygon fill="#ebf3ff" stroke="#0044a0" points="951.908,-583.508 750.092,-583.508 746.092,-579.508 746.092,-527.508 947.908,-527.508 951.908,-531.508 951.908,-583.508"/>
<polyline fill="none" stroke="#0044a0" points="947.908,-579.508 746.092,-579.508 "/>
<polyline fill="none" stroke="#0044a0" points="947.908,-579.508 947.908,-527.508 "/>
<polyline fill="none" stroke="#0044a0" points="947.908,-579.508 951.908,-583.508 "/>
<text text-anchor="middle" x="849" y="-561.508" font-family="Times,serif" font-size="20.00" fill="#0044a0">mkdir(&#39;reconciled.dir&#39;) </text>
<text text-anchor="middle" x="849" y="-537.508" font-family="Times,serif" font-size="20.00" fill="#0044a0">before reconcileReads </text>
</g>
<!-- t2 -->
<g id="node6" class="node"><title>t2</title>
<polygon fill="none" stroke="#0044a0" stroke-dasharray="5,2" points="871.158,-492.708 736.842,-492.708 732.842,-488.708 732.842,-456.708 867.158,-456.708 871.158,-460.708 871.158,-492.708"/>
<polyline fill="none" stroke="#0044a0" stroke-dasharray="5,2" points="867.158,-488.708 732.842,-488.708 "/>
<polyline fill="none" stroke="#0044a0" stroke-dasharray="5,2" points="867.158,-488.708 867.158,-456.708 "/>
<polyline fill="none" stroke="#0044a0" stroke-dasharray="5,2" points="867.158,-488.708 871.158,-492.708 "/>
<text text-anchor="middle" x="802" y="-468.708" font-family="Times,serif" font-size="20.00" fill="#0044a0">reconcileReads</text>
</g>
<!-- t17&#45;&gt;t2 -->
<g id="edge2" class="edge"><title>t17&#45;&gt;t2</title>
<path fill="none" stroke="#0044a0" d="M832.825,-527.39C827.886,-519.109 822.468,-510.024 817.57,-501.812"/>
<polygon fill="#0044a0" stroke="#0044a0" points="820.443,-499.796 812.314,-493.001 814.431,-503.382 820.443,-499.796"/>
</g>
<!-- t16 -->
<g id="node4" class="node"><title>t16</title>
<polygon fill="#ebf3ff" stroke="#0044a0" points="766.971,-661.508 569.029,-661.508 565.029,-657.508 565.029,-605.508 762.971,-605.508 766.971,-609.508 766.971,-661.508"/>
<polyline fill="none" stroke="#0044a0" points="762.971,-657.508 565.029,-657.508 "/>
<polyline fill="none" stroke="#0044a0" points="762.971,-657.508 762.971,-605.508 "/>
<polyline fill="none" stroke="#0044a0" points="762.971,-657.508 766.971,-661.508 "/>
<text text-anchor="middle" x="666" y="-639.508" font-family="Times,serif" font-size="20.00" fill="#0044a0">mkdir(&#39;processed.dir&#39;) </text>
<text text-anchor="middle" x="666" y="-615.508" font-family="Times,serif" font-size="20.00" fill="#0044a0">before processReads </text>
</g>
<!-- t1 -->
<g id="node5" class="node"><title>t1</title>
<polygon fill="#ebf3ff" stroke="#0044a0" points="728.342,-573.508 607.658,-573.508 603.658,-569.508 603.658,-537.508 724.342,-537.508 728.342,-541.508 728.342,-573.508"/>
<polyline fill="none" stroke="#0044a0" points="724.342,-569.508 603.658,-569.508 "/>
<polyline fill="none" stroke="#0044a0" points="724.342,-569.508 724.342,-537.508 "/>
<polyline fill="none" stroke="#0044a0" points="724.342,-569.508 728.342,-573.508 "/>
<text text-anchor="middle" x="666" y="-549.508" font-family="Times,serif" font-size="20.00" fill="#0044a0">processReads</text>
</g>
<!-- t16&#45;&gt;t1 -->
<g id="edge1" class="edge"><title>t16&#45;&gt;t1</title>
<path fill="none" stroke="#0044a0" d="M666,-605.499C666,-598.556 666,-591.076 666,-584.103"/>
<polygon fill="#0044a0" stroke="#0044a0" points="669.5,-583.712 666,-573.712 662.5,-583.712 669.5,-583.712"/>
</g>
<!-- t1&#45;&gt;t2 -->
<g id="edge3" class="edge"><title>t1&#45;&gt;t2</title>
<path fill="none" stroke="#0044a0" d="M695.51,-537.41C715.47,-525.844 742.028,-510.457 763.628,-497.941"/>
<polygon fill="#0044a0" stroke="#0044a0" points="765.65,-500.815 772.548,-492.773 762.14,-494.758 765.65,-500.815"/>
</g>
<!-- t1&#45;&gt;t3 -->
<g id="edge7" class="edge"><title>t1&#45;&gt;t3</title>
<path fill="none" stroke="#0044a0" d="M681.662,-537.381C689.23,-528.406 697.957,-516.926 704,-505.508 717.465,-480.067 712.308,-470.211 724,-443.908 726.534,-438.207 729.612,-432.292 732.729,-426.732"/>
<polygon fill="#0044a0" stroke="#0044a0" points="735.917,-428.211 737.923,-417.808 729.868,-424.69 735.917,-428.211"/>
</g>
<!-- t5 -->
<g id="node19" class="node"><title>t5</title>
<polygon fill="none" stroke="#0044a0" stroke-dasharray="5,2" points="245.401,-417.508 108.599,-417.508 104.599,-413.508 104.599,-381.508 241.401,-381.508 245.401,-385.508 245.401,-417.508"/>
<polyline fill="none" stroke="#0044a0" stroke-dasharray="5,2" points="241.401,-413.508 104.599,-413.508 "/>
<polyline fill="none" stroke="#0044a0" stroke-dasharray="5,2" points="241.401,-413.508 241.401,-381.508 "/>
<polyline fill="none" stroke="#0044a0" stroke-dasharray="5,2" points="241.401,-413.508 245.401,-417.508 "/>
<text text-anchor="middle" x="175" y="-393.508" font-family="Times,serif" font-size="20.00" fill="#0044a0">runFastqScreen</text>
</g>
<!-- t1&#45;&gt;t5 -->
<g id="edge21" class="edge"><title>t1&#45;&gt;t5</title>
<path fill="none" stroke="#0044a0" d="M603.517,-554.423C450.315,-553.567 65.6543,-547.24 27,-505.508 8.39578,-485.423 10.5892,-465.822 27,-443.908 43.0111,-422.528 69.0169,-411.22 94.797,-405.381"/>
<polygon fill="#0044a0" stroke="#0044a0" points="95.531,-408.804 104.645,-403.402 94.1515,-401.941 95.531,-408.804"/>
</g>
<!-- t2&#45;&gt;t3 -->
<g id="edge6" class="edge"><title>t2&#45;&gt;t3</title>
<path fill="none" stroke="#0044a0" d="M789.44,-456.361C782.905,-447.336 774.79,-436.127 767.548,-426.125"/>
<polygon fill="#0044a0" stroke="#0044a0" points="770.17,-423.778 761.47,-417.731 764.5,-427.883 770.17,-423.778"/>
</g>
<!-- t0 -->
<g id="node7" class="node"><title>t0</title>
<polygon fill="#b8cc6e" stroke="#006000" points="695.342,-492.708 554.658,-492.708 550.658,-488.708 550.658,-456.708 691.342,-456.708 695.342,-460.708 695.342,-492.708"/>
<polyline fill="none" stroke="#006000" points="691.342,-488.708 550.658,-488.708 "/>
<polyline fill="none" stroke="#006000" points="691.342,-488.708 691.342,-456.708 "/>
<polyline fill="none" stroke="#006000" points="691.342,-488.708 695.342,-492.708 "/>
<text text-anchor="middle" x="623" y="-468.708" font-family="Times,serif" font-size="20.00" fill="#006000">unprocessReads</text>
</g>
<!-- t0&#45;&gt;t3 -->
<g id="edge26" class="edge"><title>t0&#45;&gt;t3</title>
<path fill="none" stroke="gray" d="M652.541,-456.546C669.919,-446.45 692.081,-433.575 710.779,-422.713"/>
<polygon fill="gray" stroke="gray" points="712.755,-425.612 719.644,-417.563 709.239,-419.56 712.755,-425.612"/>
</g>
<!-- t0&#45;&gt;t5 -->
<g id="edge27" class="edge"><title>t0&#45;&gt;t5</title>
<path fill="none" stroke="gray" d="M582.37,-456.642C569.638,-451.871 555.406,-447.119 542,-443.908 445.164,-420.711 330.855,-409.689 255.85,-404.606"/>
<polygon fill="gray" stroke="gray" points="255.741,-401.091 245.533,-403.927 255.282,-408.076 255.741,-401.091"/>
</g>
<!-- t4 -->
<g id="node9" class="node"><title>t4</title>
<polygon fill="none" stroke="#0044a0" stroke-dasharray="5,2" points="730.147,-345.108 631.853,-345.108 627.853,-341.108 627.853,-309.108 726.147,-309.108 730.147,-313.108 730.147,-345.108"/>
<polyline fill="none" stroke="#0044a0" stroke-dasharray="5,2" points="726.147,-341.108 627.853,-341.108 "/>
<polyline fill="none" stroke="#0044a0" stroke-dasharray="5,2" points="726.147,-341.108 726.147,-309.108 "/>
<polyline fill="none" stroke="#0044a0" stroke-dasharray="5,2" points="726.147,-341.108 730.147,-345.108 "/>
<text text-anchor="middle" x="679" y="-321.108" font-family="Times,serif" font-size="20.00" fill="#0044a0">loadFastqc</text>
</g>
<!-- t3&#45;&gt;t4 -->
<g id="edge8" class="edge"><title>t3&#45;&gt;t4</title>
<path fill="none" stroke="#0044a0" d="M732.055,-381.466C723.498,-372.861 712.959,-362.261 703.535,-352.783"/>
<polygon fill="#0044a0" stroke="#0044a0" points="705.808,-350.105 696.275,-345.482 700.844,-355.041 705.808,-350.105"/>
</g>
<!-- t6 -->
<g id="node10" class="node"><title>t6</title>
<polygon fill="#ebf3ff" stroke="#0044a0" points="951.419,-221.333 1117,-194.005 1282.58,-221.333 1282.43,-265.55 951.574,-265.55 951.419,-221.333"/>
<polygon fill="none" stroke="#0044a0" points="947.406,-217.936 1117,-189.946 1286.59,-217.936 1286.41,-269.555 947.587,-269.555 947.406,-217.936"/>
<text text-anchor="middle" x="1117" y="-227.554" font-family="Times,serif" font-size="20.00" fill="#0044a0">buildFastQCSummaryStatus</text>
</g>
<!-- t3&#45;&gt;t6 -->
<g id="edge9" class="edge"><title>t3&#45;&gt;t6</title>
<path fill="none" stroke="#0044a0" d="M787.341,-381.426C844.126,-356.127 952.142,-308.003 1029.05,-273.738"/>
<polygon fill="#0044a0" stroke="#0044a0" points="1030.56,-276.898 1038.27,-269.631 1027.71,-270.503 1030.56,-276.898"/>
</g>
<!-- t7 -->
<g id="node11" class="node"><title>t7</title>
<polygon fill="#ebf3ff" stroke="#0044a0" points="502.804,-221.339 714,-194.024 925.196,-221.339 924.999,-265.535 503.001,-265.535 502.804,-221.339"/>
<polygon fill="none" stroke="#0044a0" points="498.791,-217.821 714,-189.988 929.209,-217.821 928.978,-269.538 499.022,-269.538 498.791,-217.821"/>
<text text-anchor="middle" x="714" y="-227.554" font-family="Times,serif" font-size="20.00" fill="#0044a0">buildFastQCSummaryBasicStatistics</text>
</g>
<!-- t3&#45;&gt;t7 -->
<g id="edge11" class="edge"><title>t3&#45;&gt;t7</title>
<path fill="none" stroke="#0044a0" d="M748.671,-381.392C747.969,-361.398 745.781,-327.446 739,-299.108 737.44,-292.59 735.374,-285.848 733.095,-279.29"/>
<polygon fill="#0044a0" stroke="#0044a0" points="736.367,-278.045 729.64,-269.86 729.794,-280.453 736.367,-278.045"/>
</g>
<!-- t8 -->
<g id="node14" class="node"><title>t8</title>
<polygon fill="none" stroke="#0044a0" stroke-dasharray="5,2" points="450.538,-251.554 157.462,-251.554 153.462,-247.554 153.462,-215.554 446.538,-215.554 450.538,-219.554 450.538,-251.554"/>
<polyline fill="none" stroke="#0044a0" stroke-dasharray="5,2" points="446.538,-247.554 153.462,-247.554 "/>
<polyline fill="none" stroke="#0044a0" stroke-dasharray="5,2" points="446.538,-247.554 446.538,-215.554 "/>
<polyline fill="none" stroke="#0044a0" stroke-dasharray="5,2" points="446.538,-247.554 450.538,-251.554 "/>
<text text-anchor="middle" x="302" y="-227.554" font-family="Times,serif" font-size="20.00" fill="#0044a0">buildExperimentLevelReadQuality</text>
</g>
<!-- t3&#45;&gt;t8 -->
<g id="edge16" class="edge"><title>t3&#45;&gt;t8</title>
<path fill="none" stroke="#0044a0" d="M701.273,-398.003C581.142,-396.24 273.631,-388.479 243,-355.108 226.17,-336.772 233.994,-322.31 243,-299.108 249.039,-283.549 260.77,-269.45 272.191,-258.426"/>
<polygon fill="#0044a0" stroke="#0044a0" points="274.585,-260.979 279.588,-251.641 269.853,-255.821 274.585,-260.979"/>
</g>
<!-- t4&#45;&gt;t7 -->
<g id="edge10" class="edge"><title>t4&#45;&gt;t7</title>
<path fill="none" stroke="#0044a0" d="M685.583,-308.887C688.797,-300.48 692.829,-289.932 696.838,-279.447"/>
<polygon fill="#0044a0" stroke="#0044a0" points="700.187,-280.489 700.488,-269.898 693.648,-277.989 700.187,-280.489"/>
</g>
<!-- t4&#45;&gt;t8 -->
<g id="edge15" class="edge"><title>t4&#45;&gt;t8</title>
<path fill="none" stroke="#0044a0" d="M645.343,-309.041C636.91,-305.304 627.764,-301.697 619,-299.108 556.91,-280.767 538.498,-289.742 475,-277.108 442.016,-270.545 405.841,-261.881 375.137,-254.084"/>
<polygon fill="#0044a0" stroke="#0044a0" points="375.927,-250.673 365.371,-251.586 374.192,-257.455 375.927,-250.673"/>
</g>
<!-- t12 -->
<g id="node20" class="node"><title>t12</title>
<polygon fill="#efa03b" stroke="black" points="417,-52 367,-52 363,-48 363,-16 413,-16 417,-20 417,-52"/>
<polyline fill="none" stroke="black" points="413,-48 363,-48 "/>
<polyline fill="none" stroke="black" points="413,-48 413,-16 "/>
<polyline fill="none" stroke="black" points="413,-48 417,-52 "/>
<text text-anchor="middle" x="390" y="-28" font-family="Times,serif" font-size="20.00">full</text>
</g>
<!-- t4&#45;&gt;t12 -->
<g id="edge25" class="edge"><title>t4&#45;&gt;t12</title>
<path fill="none" stroke="#0044a0" d="M644.994,-309.008C636.65,-305.318 627.632,-301.739 619,-299.108 563.366,-282.149 530.464,-318.886 490,-277.108 426.56,-211.608 513.328,-148.676 461,-74 452.557,-61.9518 439.159,-53.2379 426.265,-47.1452"/>
<polygon fill="#0044a0" stroke="#0044a0" points="427.611,-43.9142 417.043,-43.1618 424.835,-50.3403 427.611,-43.9142"/>
</g>
<!-- t11 -->
<g id="node12" class="node"><title>t11</title>
<polygon fill="#ebf3ff" stroke="#0044a0" points="804.416,-168 627.584,-168 623.584,-164 623.584,-132 800.416,-132 804.416,-136 804.416,-168"/>
<polyline fill="none" stroke="#0044a0" points="800.416,-164 623.584,-164 "/>
<polyline fill="none" stroke="#0044a0" points="800.416,-164 800.416,-132 "/>
<polyline fill="none" stroke="#0044a0" points="800.416,-164 804.416,-168 "/>
<text text-anchor="middle" x="714" y="-144" font-family="Times,serif" font-size="20.00" fill="#0044a0">loadFastqcSummary</text>
</g>
<!-- t6&#45;&gt;t11 -->
<g id="edge13" class="edge"><title>t6&#45;&gt;t11</title>
<path fill="none" stroke="#0044a0" d="M1013.59,-206.837C988.89,-201.008 962.561,-195.053 938,-190 897.805,-181.731 853.315,-173.746 814.648,-167.179"/>
<polygon fill="#0044a0" stroke="#0044a0" points="814.872,-163.667 804.428,-165.453 813.706,-170.569 814.872,-163.667"/>
</g>
<!-- t7&#45;&gt;t11 -->
<g id="edge12" class="edge"><title>t7&#45;&gt;t11</title>
<path fill="none" stroke="#0044a0" d="M714,-189.866C714,-185.892 714,-181.942 714,-178.167"/>
<polygon fill="#0044a0" stroke="#0044a0" points="717.5,-178.121 714,-168.121 710.5,-178.121 717.5,-178.121"/>
</g>
<!-- t11&#45;&gt;t12 -->
<g id="edge22" class="edge"><title>t11&#45;&gt;t12</title>
<path fill="none" stroke="#0044a0" d="M665.494,-131.933C600.244,-108.975 485.629,-68.6472 426.928,-47.9932"/>
<polygon fill="#0044a0" stroke="#0044a0" points="427.917,-44.6308 417.322,-44.6133 425.593,-51.234 427.917,-44.6308"/>
</g>
<!-- t20 -->
<g id="node13" class="node"><title>t20</title>
<polygon fill="#ebf3ff" stroke="#0044a0" points="610.11,-355.108 255.89,-355.108 251.89,-351.108 251.89,-299.108 606.11,-299.108 610.11,-303.108 610.11,-355.108"/>
<polyline fill="none" stroke="#0044a0" points="606.11,-351.108 251.89,-351.108 "/>
<polyline fill="none" stroke="#0044a0" points="606.11,-351.108 606.11,-299.108 "/>
<polyline fill="none" stroke="#0044a0" points="606.11,-351.108 610.11,-355.108 "/>
<text text-anchor="middle" x="431" y="-333.108" font-family="Times,serif" font-size="20.00" fill="#0044a0">mkdir(&#39;experiment.dir&#39;) </text>
<text text-anchor="middle" x="431" y="-309.108" font-family="Times,serif" font-size="20.00" fill="#0044a0">before buildExperimentLevelReadQuality </text>
</g>
<!-- t20&#45;&gt;t8 -->
<g id="edge14" class="edge"><title>t20&#45;&gt;t8</title>
<path fill="none" stroke="#0044a0" d="M392.645,-298.887C374.136,-285.75 352.169,-270.16 334.496,-257.617"/>
<polygon fill="#0044a0" stroke="#0044a0" points="336.379,-254.662 326.199,-251.728 332.328,-260.37 336.379,-254.662"/>
</g>
<!-- t9 -->
<g id="node15" class="node"><title>t9</title>
<polygon fill="none" stroke="#0044a0" stroke-dasharray="5,2" points="460.508,-168 127.492,-168 123.492,-164 123.492,-132 456.508,-132 460.508,-136 460.508,-168"/>
<polyline fill="none" stroke="#0044a0" stroke-dasharray="5,2" points="456.508,-164 123.492,-164 "/>
<polyline fill="none" stroke="#0044a0" stroke-dasharray="5,2" points="456.508,-164 456.508,-132 "/>
<polyline fill="none" stroke="#0044a0" stroke-dasharray="5,2" points="456.508,-164 460.508,-168 "/>
<text text-anchor="middle" x="292" y="-144" font-family="Times,serif" font-size="20.00" fill="#0044a0">combineExperimentLevelReadQualities</text>
</g>
<!-- t8&#45;&gt;t9 -->
<g id="edge17" class="edge"><title>t8&#45;&gt;t9</title>
<path fill="none" stroke="#0044a0" d="M299.879,-215.259C298.567,-204.554 296.853,-190.575 295.358,-178.39"/>
<polygon fill="#0044a0" stroke="#0044a0" points="298.809,-177.77 294.118,-168.271 291.861,-178.622 298.809,-177.77"/>
</g>
<!-- t10 -->
<g id="node16" class="node"><title>t10</title>
<polygon fill="none" stroke="#0044a0" stroke-dasharray="5,2" points="452.072,-110 153.928,-110 149.928,-106 149.928,-74 448.072,-74 452.072,-78 452.072,-110"/>
<polyline fill="none" stroke="#0044a0" stroke-dasharray="5,2" points="448.072,-106 149.928,-106 "/>
<polyline fill="none" stroke="#0044a0" stroke-dasharray="5,2" points="448.072,-106 448.072,-74 "/>
<polyline fill="none" stroke="#0044a0" stroke-dasharray="5,2" points="448.072,-106 452.072,-110 "/>
<text text-anchor="middle" x="301" y="-86" font-family="Times,serif" font-size="20.00" fill="#0044a0">loadExperimentLevelReadQualities</text>
</g>
<!-- t9&#45;&gt;t10 -->
<g id="edge18" class="edge"><title>t9&#45;&gt;t10</title>
<path fill="none" stroke="#0044a0" d="M294.749,-131.894C295.36,-128.094 296.021,-123.978 296.678,-119.893"/>
<polygon fill="#0044a0" stroke="#0044a0" points="300.136,-120.43 298.268,-110.001 293.225,-119.319 300.136,-120.43"/>
</g>
<!-- t10&#45;&gt;t12 -->
<g id="edge23" class="edge"><title>t10&#45;&gt;t12</title>
<path fill="none" stroke="#0044a0" d="M328.187,-73.8939C336.468,-68.6831 345.697,-62.876 354.445,-57.3716"/>
<polygon fill="#0044a0" stroke="#0044a0" points="356.38,-60.2894 362.98,-52.0014 352.652,-54.3647 356.38,-60.2894"/>
</g>
<!-- t23 -->
<g id="node17" class="node"><title>t23</title>
<polygon fill="#ebf3ff" stroke="#0044a0" points="532.973,-502.708 335.027,-502.708 331.027,-498.708 331.027,-446.708 528.973,-446.708 532.973,-450.708 532.973,-502.708"/>
<polyline fill="none" stroke="#0044a0" points="528.973,-498.708 331.027,-498.708 "/>
<polyline fill="none" stroke="#0044a0" points="528.973,-498.708 528.973,-446.708 "/>
<polyline fill="none" stroke="#0044a0" points="528.973,-498.708 532.973,-502.708 "/>
<text text-anchor="middle" x="432" y="-480.708" font-family="Times,serif" font-size="20.00" fill="#0044a0">mkdir(&#39;export&#39;) </text>
<text text-anchor="middle" x="432" y="-456.708" font-family="Times,serif" font-size="20.00" fill="#0044a0">before runFastqScreen </text>
</g>
<!-- t23&#45;&gt;t5 -->
<g id="edge20" class="edge"><title>t23&#45;&gt;t5</title>
<path fill="none" stroke="#0044a0" d="M337.033,-446.659C306.463,-437.952 273.171,-428.47 244.76,-420.377"/>
<polygon fill="#0044a0" stroke="#0044a0" points="245.503,-416.95 234.927,-417.577 243.586,-423.682 245.503,-416.95"/>
</g>
<!-- t24 -->
<g id="node18" class="node"><title>t24</title>
<polygon fill="#ebf3ff" stroke="#0044a0" points="313.5,-502.708 40.5,-502.708 36.5,-498.708 36.5,-446.708 309.5,-446.708 313.5,-450.708 313.5,-502.708"/>
<polyline fill="none" stroke="#0044a0" points="309.5,-498.708 36.5,-498.708 "/>
<polyline fill="none" stroke="#0044a0" points="309.5,-498.708 309.5,-446.708 "/>
<polyline fill="none" stroke="#0044a0" points="309.5,-498.708 313.5,-502.708 "/>
<text text-anchor="middle" x="175" y="-480.708" font-family="Times,serif" font-size="20.00" fill="#0044a0">mkdir(&#39;export/fastq_screen&#39;) #2 </text>
<text text-anchor="middle" x="175" y="-456.708" font-family="Times,serif" font-size="20.00" fill="#0044a0">before runFastqScreen </text>
</g>
<!-- t24&#45;&gt;t5 -->
<g id="edge19" class="edge"><title>t24&#45;&gt;t5</title>
<path fill="none" stroke="#0044a0" d="M175,-446.451C175,-440.455 175,-434.101 175,-428.093"/>
<polygon fill="#0044a0" stroke="#0044a0" points="178.5,-427.803 175,-417.803 171.5,-427.803 178.5,-427.803"/>
</g>
<!-- t5&#45;&gt;t12 -->
<g id="edge24" class="edge"><title>t5&#45;&gt;t12</title>
<path fill="none" stroke="#0044a0" d="M161.978,-381.377C141.48,-352.656 104,-292.249 104,-234.554 104,-234.554 104,-234.554 104,-149 104,-111.831 111.053,-96.0158 141,-74 173.993,-49.7449 291.848,-40.1095 352.836,-36.6816"/>
<polygon fill="#0044a0" stroke="#0044a0" points="353.024,-40.1767 362.822,-36.1474 352.65,-33.1867 353.024,-40.1767"/>
</g>
<!-- k1_1 -->
<g id="node21" class="node"><title>k1_1</title>
<polygon fill="#b8cc6e" stroke="#006000" points="1425.19,-655.808 1314.81,-655.808 1310.81,-651.808 1310.81,-611.208 1421.19,-611.208 1425.19,-615.208 1425.19,-655.808"/>
<polyline fill="none" stroke="#006000" points="1421.19,-651.808 1310.81,-651.808 "/>
<polyline fill="none" stroke="#006000" points="1421.19,-651.808 1421.19,-611.208 "/>
<polyline fill="none" stroke="#006000" points="1421.19,-651.808 1425.19,-655.808 "/>
<text text-anchor="middle" x="1368" y="-629.308" font-family="Times,serif" font-size="14.00" fill="#006000">Up&#45;to&#45;date task</text>
</g>
<!-- k2_1 -->
<g id="node22" class="node"><title>k2_1</title>
<polygon fill="#ebf3ff" stroke="#0044a0" points="1413.76,-577.808 1326.24,-577.808 1322.24,-573.808 1322.24,-533.208 1409.76,-533.208 1413.76,-537.208 1413.76,-577.808"/>
<polyline fill="none" stroke="#0044a0" points="1409.76,-573.808 1322.24,-573.808 "/>
<polyline fill="none" stroke="#0044a0" points="1409.76,-573.808 1409.76,-533.208 "/>
<polyline fill="none" stroke="#0044a0" points="1409.76,-573.808 1413.76,-577.808 "/>
<text text-anchor="middle" x="1368" y="-551.308" font-family="Times,serif" font-size="14.00" fill="#0044a0">Task to run</text>
</g>
<!-- k1_1&#45;&gt;k2_1 -->
<g id="edge28" class="edge"><title>k1_1&#45;&gt;k2_1</title>
<path fill="none" stroke="gray" d="M1368,-610.933C1368,-603.812 1368,-595.74 1368,-588.033"/>
<polygon fill="gray" stroke="gray" points="1371.5,-587.874 1368,-577.874 1364.5,-587.874 1371.5,-587.874"/>
</g>
<!-- k3_1 -->
<g id="node23" class="node"><title>k3_1</title>
<polygon fill="none" stroke="#0044a0" stroke-dasharray="5,2" points="1425.19,-505.309 1314.81,-505.309 1310.81,-501.309 1310.81,-444.107 1421.19,-444.107 1425.19,-448.107 1425.19,-505.309"/>
<polyline fill="none" stroke="#0044a0" stroke-dasharray="5,2" points="1421.19,-501.309 1310.81,-501.309 "/>
<polyline fill="none" stroke="#0044a0" stroke-dasharray="5,2" points="1421.19,-501.309 1421.19,-444.107 "/>
<polyline fill="none" stroke="#0044a0" stroke-dasharray="5,2" points="1421.19,-501.309 1425.19,-505.309 "/>
<text text-anchor="middle" x="1368" y="-478.908" font-family="Times,serif" font-size="14.00" fill="#0044a0">Up&#45;to&#45;date task</text>
<text text-anchor="middle" x="1368" y="-462.108" font-family="Times,serif" font-size="14.00" fill="#0044a0">forced to rerun</text>
</g>
<!-- k2_1&#45;&gt;k3_1 -->
<g id="edge29" class="edge"><title>k2_1&#45;&gt;k3_1</title>
<path fill="none" stroke="#0044a0" d="M1368,-532.976C1368,-527.546 1368,-521.542 1368,-515.524"/>
<polygon fill="#0044a0" stroke="#0044a0" points="1371.5,-515.485 1368,-505.485 1364.5,-515.485 1371.5,-515.485"/>
</g>
<!-- k4_1 -->
<g id="node24" class="node"><title>k4_1</title>
<polygon fill="#efa03b" stroke="black" points="1414.15,-421.808 1325.85,-421.808 1321.85,-417.808 1321.85,-377.208 1410.15,-377.208 1414.15,-381.208 1414.15,-421.808"/>
<polyline fill="none" stroke="black" points="1410.15,-417.808 1321.85,-417.808 "/>
<polyline fill="none" stroke="black" points="1410.15,-417.808 1410.15,-377.208 "/>
<polyline fill="none" stroke="black" points="1410.15,-417.808 1414.15,-421.808 "/>
<text text-anchor="middle" x="1368" y="-395.308" font-family="Times,serif" font-size="14.00">Final target</text>
</g>
<!-- k3_1&#45;&gt;k4_1 -->
<g id="edge30" class="edge"><title>k3_1&#45;&gt;k4_1</title>
<path fill="none" stroke="#0044a0" d="M1368,-443.935C1368,-440.066 1368,-436.091 1368,-432.192"/>
<polygon fill="#0044a0" stroke="#0044a0" points="1371.5,-432.173 1368,-422.173 1364.5,-432.173 1371.5,-432.173"/>
</g>
</g>
</svg>
