<?xml version="1.0" encoding="UTF-8" standalone="no"?>
<!DOCTYPE svg PUBLIC "-//W3C//DTD SVG 1.1//EN"
 "http://www.w3.org/Graphics/SVG/1.1/DTD/svg11.dtd">
<!-- Generated by graphviz version 2.38.0 (20140413.2041)
 -->
<!-- Title: Pipeline: Pages: 1 -->
<svg width="920pt" height="524pt"
 viewBox="0.00 0.00 920.00 524.34" xmlns="http://www.w3.org/2000/svg" xmlns:xlink="http://www.w3.org/1999/xlink">
<g id="graph0" class="graph" transform="scale(1 1) rotate(0) translate(4 520.336)">
<title>Pipeline:</title>
<polygon fill="white" stroke="none" points="-4,4 -4,-520.336 916,-520.336 916,4 -4,4"/>
<g id="clust2" class="cluster"><title>clusterkey1</title>
<polygon fill="#f6f4f4" stroke="#f6f4f4" points="774,-175.136 774,-490.736 904,-490.736 904,-175.136 774,-175.136"/>
<text text-anchor="middle" x="839" y="-468.736" font-family="Times,serif" font-size="20.00">Key:</text>
</g>
<g id="clust1" class="cluster"><title>clustertasks</title>
<polygon fill="none" stroke="black" points="8,-8 8,-508.336 766,-508.336 766,-8 8,-8"/>
<text text-anchor="middle" x="387" y="-477.336" font-family="Times,serif" font-size="30.00" fill="#ff3232">Pipeline:</text>
</g>
<!-- t32 -->
<g id="node1" class="node"><title>t32</title>
<polygon fill="#ebf3ff" stroke="#0044a0" points="678.93,-308.736 477.07,-308.736 473.07,-304.736 473.07,-252.736 674.93,-252.736 678.93,-256.736 678.93,-308.736"/>
<polyline fill="none" stroke="#0044a0" points="674.93,-304.736 473.07,-304.736 "/>
<polyline fill="none" stroke="#0044a0" points="674.93,-304.736 674.93,-252.736 "/>
<polyline fill="none" stroke="#0044a0" points="674.93,-304.736 678.93,-308.736 "/>
<text text-anchor="middle" x="576" y="-286.736" font-family="Times,serif" font-size="20.00" fill="#0044a0">mkdir(&#39;memechip.dir&#39;) </text>
<text text-anchor="middle" x="576" y="-262.736" font-family="Times,serif" font-size="20.00" fill="#0044a0">before runMemeChip </text>
</g>
<!-- t13 -->
<g id="node8" class="node"><title>t13</title>
<polygon fill="none" stroke="#0044a0" stroke-dasharray="5,2" points="556.146,-223.536 427.854,-223.536 423.854,-219.536 423.854,-187.536 552.146,-187.536 556.146,-191.536 556.146,-223.536"/>
<polyline fill="none" stroke="#0044a0" stroke-dasharray="5,2" points="552.146,-219.536 423.854,-219.536 "/>
<polyline fill="none" stroke="#0044a0" stroke-dasharray="5,2" points="552.146,-219.536 552.146,-187.536 "/>
<polyline fill="none" stroke="#0044a0" stroke-dasharray="5,2" points="552.146,-219.536 556.146,-223.536 "/>
<text text-anchor="middle" x="490" y="-199.536" font-family="Times,serif" font-size="20.00" fill="#0044a0">runMemeChip</text>
</g>
<!-- t32&#45;&gt;t13 -->
<g id="edge4" class="edge"><title>t32&#45;&gt;t13</title>
<path fill="none" stroke="#0044a0" d="M543.977,-252.479C535.364,-245.148 526.121,-237.28 517.76,-230.164"/>
<polygon fill="#0044a0" stroke="#0044a0" points="519.948,-227.431 510.065,-223.614 515.411,-232.761 519.948,-227.431"/>
</g>
<!-- t0 -->
<g id="node2" class="node"><title>t0</title>
<polygon fill="#b8cc6e" stroke="#006000" points="758.403,-446.336 641.597,-446.336 637.597,-442.336 637.597,-410.336 754.403,-410.336 758.403,-414.336 758.403,-446.336"/>
<polyline fill="none" stroke="#006000" points="754.403,-442.336 637.597,-442.336 "/>
<polyline fill="none" stroke="#006000" points="754.403,-442.336 754.403,-410.336 "/>
<polyline fill="none" stroke="#006000" points="754.403,-442.336 758.403,-446.336 "/>
<text text-anchor="middle" x="698" y="-422.336" font-family="Times,serif" font-size="20.00" fill="#006000">loadIntervals</text>
</g>
<!-- t8 -->
<g id="node4" class="node"><title>t8</title>
<polygon fill="none" stroke="#0044a0" stroke-dasharray="5,2" points="630.712,-373.936 411.288,-373.936 407.288,-369.936 407.288,-337.936 626.712,-337.936 630.712,-341.936 630.712,-373.936"/>
<polyline fill="none" stroke="#0044a0" stroke-dasharray="5,2" points="626.712,-369.936 407.288,-369.936 "/>
<polyline fill="none" stroke="#0044a0" stroke-dasharray="5,2" points="626.712,-369.936 626.712,-337.936 "/>
<polyline fill="none" stroke="#0044a0" stroke-dasharray="5,2" points="626.712,-369.936 630.712,-373.936 "/>
<text text-anchor="middle" x="519" y="-349.936" font-family="Times,serif" font-size="20.00" fill="#0044a0">buildDiscoverySequences</text>
</g>
<!-- t0&#45;&gt;t8 -->
<g id="edge9" class="edge"><title>t0&#45;&gt;t8</title>
<path fill="none" stroke="gray" d="M654.669,-410.294C629.696,-400.472 598.119,-388.053 571.714,-377.668"/>
<polygon fill="gray" stroke="gray" points="572.829,-374.346 562.242,-373.943 570.267,-380.86 572.829,-374.346"/>
</g>
<!-- t9 -->
<g id="node6" class="node"><title>t9</title>
<polygon fill="none" stroke="#0044a0" stroke-dasharray="5,2" points="389.776,-373.936 154.224,-373.936 150.224,-369.936 150.224,-337.936 385.776,-337.936 389.776,-341.936 389.776,-373.936"/>
<polyline fill="none" stroke="#0044a0" stroke-dasharray="5,2" points="385.776,-369.936 150.224,-369.936 "/>
<polyline fill="none" stroke="#0044a0" stroke-dasharray="5,2" points="385.776,-369.936 385.776,-337.936 "/>
<polyline fill="none" stroke="#0044a0" stroke-dasharray="5,2" points="385.776,-369.936 389.776,-373.936 "/>
<text text-anchor="middle" x="270" y="-349.936" font-family="Times,serif" font-size="20.00" fill="#0044a0">buildBackgroundSequences</text>
</g>
<!-- t0&#45;&gt;t9 -->
<g id="edge10" class="edge"><title>t0&#45;&gt;t9</title>
<path fill="none" stroke="gray" d="M659.352,-410.272C649.313,-406.441 638.395,-402.789 628,-400.336 528.056,-376.751 499.816,-391.7 398,-378.336 391.321,-377.459 384.456,-376.495 377.54,-375.477"/>
<polygon fill="gray" stroke="gray" points="377.795,-371.976 367.386,-373.949 376.754,-378.898 377.795,-371.976"/>
</g>
<!-- t22 -->
<g id="node10" class="node"><title>t22</title>
<polygon fill="#efa03b" stroke="black" points="630,-52 580,-52 576,-48 576,-16 626,-16 630,-20 630,-52"/>
<polyline fill="none" stroke="black" points="626,-48 576,-48 "/>
<polyline fill="none" stroke="black" points="626,-48 626,-16 "/>
<polyline fill="none" stroke="black" points="626,-48 630,-52 "/>
<text text-anchor="middle" x="603" y="-28" font-family="Times,serif" font-size="20.00">full</text>
</g>
<!-- t0&#45;&gt;t22 -->
<g id="edge11" class="edge"><title>t0&#45;&gt;t22</title>
<path fill="none" stroke="gray" d="M698,-410.3C698,-383.116 698,-328.247 698,-281.736 698,-281.736 698,-281.736 698,-204.536 698,-145.105 703.91,-122.097 669,-74 661.487,-63.6496 650.315,-55.5745 639.29,-49.5249"/>
<polygon fill="gray" stroke="gray" points="640.651,-46.2916 630.146,-44.9142 637.499,-52.5419 640.651,-46.2916"/>
</g>
<!-- t35 -->
<g id="node3" class="node"><title>t35</title>
<polygon fill="#ebf3ff" stroke="#0044a0" points="619.284,-456.336 338.716,-456.336 334.716,-452.336 334.716,-400.336 615.284,-400.336 619.284,-404.336 619.284,-456.336"/>
<polyline fill="none" stroke="#0044a0" points="615.284,-452.336 334.716,-452.336 "/>
<polyline fill="none" stroke="#0044a0" points="615.284,-452.336 615.284,-400.336 "/>
<polyline fill="none" stroke="#0044a0" points="615.284,-452.336 619.284,-456.336 "/>
<text text-anchor="middle" x="477" y="-434.336" font-family="Times,serif" font-size="20.00" fill="#0044a0">mkdir(&#39;discovery.dir&#39;) </text>
<text text-anchor="middle" x="477" y="-410.336" font-family="Times,serif" font-size="20.00" fill="#0044a0">before buildDiscoverySequences </text>
</g>
<!-- t35&#45;&gt;t8 -->
<g id="edge1" class="edge"><title>t35&#45;&gt;t8</title>
<path fill="none" stroke="#0044a0" d="M493.118,-400.319C496.579,-394.517 500.228,-388.401 503.659,-382.65"/>
<polygon fill="#0044a0" stroke="#0044a0" points="506.695,-384.392 508.813,-374.011 500.684,-380.806 506.695,-384.392"/>
</g>
<!-- t8&#45;&gt;t13 -->
<g id="edge6" class="edge"><title>t8&#45;&gt;t13</title>
<path fill="none" stroke="#0044a0" d="M487.661,-337.793C478.289,-330.955 469.146,-322.153 464,-311.536 452.058,-286.9 456.701,-276.323 464,-249.936 465.65,-243.97 468.362,-238.001 471.426,-232.481"/>
<polygon fill="#0044a0" stroke="#0044a0" points="474.565,-234.055 476.789,-223.697 468.591,-230.408 474.565,-234.055"/>
</g>
<!-- t38 -->
<g id="node5" class="node"><title>t38</title>
<polygon fill="#ebf3ff" stroke="#0044a0" points="316.348,-456.336 19.6518,-456.336 15.6518,-452.336 15.6518,-400.336 312.348,-400.336 316.348,-404.336 316.348,-456.336"/>
<polyline fill="none" stroke="#0044a0" points="312.348,-452.336 15.6518,-452.336 "/>
<polyline fill="none" stroke="#0044a0" points="312.348,-452.336 312.348,-400.336 "/>
<polyline fill="none" stroke="#0044a0" points="312.348,-452.336 316.348,-456.336 "/>
<text text-anchor="middle" x="166" y="-434.336" font-family="Times,serif" font-size="20.00" fill="#0044a0">mkdir(&#39;discovery.dir&#39;) </text>
<text text-anchor="middle" x="166" y="-410.336" font-family="Times,serif" font-size="20.00" fill="#0044a0">before buildBackgroundSequences </text>
</g>
<!-- t38&#45;&gt;t9 -->
<g id="edge2" class="edge"><title>t38&#45;&gt;t9</title>
<path fill="none" stroke="#0044a0" d="M205.912,-400.319C215.911,-393.55 226.542,-386.354 236.211,-379.808"/>
<polygon fill="#0044a0" stroke="#0044a0" points="238.456,-382.515 244.775,-374.011 234.532,-376.719 238.456,-382.515"/>
</g>
<!-- t10 -->
<g id="node7" class="node"><title>t10</title>
<polygon fill="none" stroke="#0044a0" stroke-dasharray="5,2" points="414.35,-298.736 173.65,-298.736 169.65,-294.736 169.65,-262.736 410.35,-262.736 414.35,-266.736 414.35,-298.736"/>
<polyline fill="none" stroke="#0044a0" stroke-dasharray="5,2" points="410.35,-294.736 169.65,-294.736 "/>
<polyline fill="none" stroke="#0044a0" stroke-dasharray="5,2" points="410.35,-294.736 410.35,-262.736 "/>
<polyline fill="none" stroke="#0044a0" stroke-dasharray="5,2" points="410.35,-294.736 414.35,-298.736 "/>
<text text-anchor="middle" x="292" y="-274.736" font-family="Times,serif" font-size="20.00" fill="#0044a0">buildMemeBackgroundFiles</text>
</g>
<!-- t9&#45;&gt;t10 -->
<g id="edge3" class="edge"><title>t9&#45;&gt;t10</title>
<path fill="none" stroke="#0044a0" d="M275.214,-337.588C277.817,-328.928 281.024,-318.257 283.935,-308.571"/>
<polygon fill="#0044a0" stroke="#0044a0" points="287.297,-309.543 286.824,-298.959 280.593,-307.528 287.297,-309.543"/>
</g>
<!-- t10&#45;&gt;t13 -->
<g id="edge5" class="edge"><title>t10&#45;&gt;t13</title>
<path fill="none" stroke="#0044a0" d="M338.172,-262.666C366.838,-252.069 403.86,-238.382 434.169,-227.176"/>
<polygon fill="#0044a0" stroke="#0044a0" points="435.589,-230.383 443.755,-223.633 433.161,-223.817 435.589,-230.383"/>
</g>
<!-- t14 -->
<g id="node9" class="node"><title>t14</title>
<polygon fill="#ebf3ff" stroke="#0044a0" points="360.503,-105.343 508,-78.0062 655.497,-105.343 655.359,-149.574 360.641,-149.574 360.503,-105.343"/>
<polygon fill="none" stroke="#0044a0" points="356.493,-102.012 508,-73.932 659.507,-102.012 659.347,-153.58 356.653,-153.58 356.493,-102.012"/>
<text text-anchor="middle" x="508" y="-111.568" font-family="Times,serif" font-size="20.00" fill="#0044a0">loadMemeChipSummary</text>
</g>
<!-- t13&#45;&gt;t14 -->
<g id="edge7" class="edge"><title>t13&#45;&gt;t14</title>
<path fill="none" stroke="#0044a0" d="M493.643,-187.139C495.09,-180.227 496.827,-171.928 498.586,-163.528"/>
<polygon fill="#0044a0" stroke="#0044a0" points="502.021,-164.202 500.645,-153.697 495.169,-162.768 502.021,-164.202"/>
</g>
<!-- t14&#45;&gt;t22 -->
<g id="edge8" class="edge"><title>t14&#45;&gt;t22</title>
<path fill="none" stroke="#0044a0" d="M549.116,-81.2654C557.917,-73.7091 567.015,-65.8971 575.173,-58.8925"/>
<polygon fill="#0044a0" stroke="#0044a0" points="577.665,-61.3663 582.972,-52.1965 573.105,-56.0553 577.665,-61.3663"/>
</g>
<!-- k1_1 -->
<g id="node11" class="node"><title>k1_1</title>
<polygon fill="#b8cc6e" stroke="#006000" points="896.188,-450.636 785.812,-450.636 781.812,-446.636 781.812,-406.035 892.188,-406.035 896.188,-410.035 896.188,-450.636"/>
<polyline fill="none" stroke="#006000" points="892.188,-446.636 781.812,-446.636 "/>
<polyline fill="none" stroke="#006000" points="892.188,-446.636 892.188,-406.035 "/>
<polyline fill="none" stroke="#006000" points="892.188,-446.636 896.188,-450.636 "/>
<text text-anchor="middle" x="839" y="-424.136" font-family="Times,serif" font-size="14.00" fill="#006000">Up&#45;to&#45;date task</text>
</g>
<!-- k2_1 -->
<g id="node12" class="node"><title>k2_1</title>
<polygon fill="#ebf3ff" stroke="#0044a0" points="884.763,-378.236 797.237,-378.236 793.237,-374.236 793.237,-333.635 880.763,-333.635 884.763,-337.635 884.763,-378.236"/>
<polyline fill="none" stroke="#0044a0" points="880.763,-374.236 793.237,-374.236 "/>
<polyline fill="none" stroke="#0044a0" points="880.763,-374.236 880.763,-333.635 "/>
<polyline fill="none" stroke="#0044a0" points="880.763,-374.236 884.763,-378.236 "/>
<text text-anchor="middle" x="839" y="-351.736" font-family="Times,serif" font-size="14.00" fill="#0044a0">Task to run</text>
</g>
<!-- k1_1&#45;&gt;k2_1 -->
<g id="edge12" class="edge"><title>k1_1&#45;&gt;k2_1</title>
<path fill="none" stroke="gray" d="M839,-405.831C839,-400.372 839,-394.393 839,-388.547"/>
<polygon fill="gray" stroke="gray" points="842.5,-388.309 839,-378.309 835.5,-388.309 842.5,-388.309"/>
</g>
<!-- k3_1 -->
<g id="node13" class="node"><title>k3_1</title>
<polygon fill="none" stroke="#0044a0" stroke-dasharray="5,2" points="896.188,-311.337 785.812,-311.337 781.812,-307.337 781.812,-250.135 892.188,-250.135 896.188,-254.135 896.188,-311.337"/>
<polyline fill="none" stroke="#0044a0" stroke-dasharray="5,2" points="892.188,-307.337 781.812,-307.337 "/>
<polyline fill="none" stroke="#0044a0" stroke-dasharray="5,2" points="892.188,-307.337 892.188,-250.135 "/>
<polyline fill="none" stroke="#0044a0" stroke-dasharray="5,2" points="892.188,-307.337 896.188,-311.337 "/>
<text text-anchor="middle" x="839" y="-284.936" font-family="Times,serif" font-size="14.00" fill="#0044a0">Up&#45;to&#45;date task</text>
<text text-anchor="middle" x="839" y="-268.136" font-family="Times,serif" font-size="14.00" fill="#0044a0">forced to rerun</text>
</g>
<!-- k2_1&#45;&gt;k3_1 -->
<g id="edge13" class="edge"><title>k2_1&#45;&gt;k3_1</title>
<path fill="none" stroke="#0044a0" d="M839,-333.369C839,-329.633 839,-325.644 839,-321.601"/>
<polygon fill="#0044a0" stroke="#0044a0" points="842.5,-321.555 839,-311.555 835.5,-321.555 842.5,-321.555"/>
</g>
<!-- k4_1 -->
<g id="node14" class="node"><title>k4_1</title>
<polygon fill="#efa03b" stroke="black" points="885.15,-227.836 796.85,-227.836 792.85,-223.836 792.85,-183.235 881.15,-183.235 885.15,-187.235 885.15,-227.836"/>
<polyline fill="none" stroke="black" points="881.15,-223.836 792.85,-223.836 "/>
<polyline fill="none" stroke="black" points="881.15,-223.836 881.15,-183.235 "/>
<polyline fill="none" stroke="black" points="881.15,-223.836 885.15,-227.836 "/>
<text text-anchor="middle" x="839" y="-201.336" font-family="Times,serif" font-size="14.00">Final target</text>
</g>
<!-- k3_1&#45;&gt;k4_1 -->
<g id="edge14" class="edge"><title>k3_1&#45;&gt;k4_1</title>
<path fill="none" stroke="#0044a0" d="M839,-249.963C839,-246.093 839,-242.119 839,-238.22"/>
<polygon fill="#0044a0" stroke="#0044a0" points="842.5,-238.201 839,-228.201 835.5,-238.201 842.5,-238.201"/>
</g>
</g>
</svg>
