<?xml version="1.0" encoding="UTF-8" standalone="no"?>
<!DOCTYPE svg PUBLIC "-//W3C//DTD SVG 1.1//EN"
 "http://www.w3.org/Graphics/SVG/1.1/DTD/svg11.dtd">
<!-- Generated by graphviz version 2.38.0 (20140413.2041)
 -->
<!-- Title: Pipeline: Pages: 1 -->
<svg width="928pt" height="1050pt"
 viewBox="0.00 0.00 928.00 1049.62" xmlns="http://www.w3.org/2000/svg" xmlns:xlink="http://www.w3.org/1999/xlink">
<g id="graph0" class="graph" transform="scale(1 1) rotate(0) translate(4 1045.62)">
<title>Pipeline:</title>
<polygon fill="white" stroke="none" points="-4,4 -4,-1045.62 924,-1045.62 924,4 -4,4"/>
<g id="clust1" class="cluster"><title>clustertasks</title>
<polygon fill="none" stroke="black" points="8,-8 8,-1033.62 796,-1033.62 796,-8 8,-8"/>
<text text-anchor="middle" x="402" y="-1002.62" font-family="Times,serif" font-size="30.00" fill="#ff3232">Pipeline:</text>
</g>
<g id="clust2" class="cluster"><title>clusterkey1</title>
<polygon fill="#f6f4f4" stroke="#f6f4f4" points="804,-845.215 804,-1016.02 912,-1016.02 912,-845.215 804,-845.215"/>
<text text-anchor="middle" x="858" y="-994.015" font-family="Times,serif" font-size="20.00">Key:</text>
</g>
<!-- t48 -->
<g id="node1" class="node"><title>t48</title>
<polygon fill="#ebf3ff" stroke="#0044a0" points="405.332,-522.451 164.668,-522.451 160.668,-518.451 160.668,-466.451 401.332,-466.451 405.332,-470.451 405.332,-522.451"/>
<polyline fill="none" stroke="#0044a0" points="401.332,-518.451 160.668,-518.451 "/>
<polyline fill="none" stroke="#0044a0" points="401.332,-518.451 401.332,-466.451 "/>
<polyline fill="none" stroke="#0044a0" points="401.332,-518.451 405.332,-522.451 "/>
<text text-anchor="middle" x="283" y="-500.451" font-family="Times,serif" font-size="20.00" fill="#0044a0">mkdir(&#39;gtfs&#39;) </text>
<text text-anchor="middle" x="283" y="-476.451" font-family="Times,serif" font-size="20.00" fill="#0044a0">before buildCodingGeneSet </text>
</g>
<!-- t0 -->
<g id="node2" class="node"><title>t0</title>
<polygon fill="#ebf3ff" stroke="#0044a0" points="158.565,-388.622 283,-361.269 407.435,-388.622 407.319,-432.882 158.681,-432.882 158.565,-388.622"/>
<polygon fill="none" stroke="#0044a0" points="154.549,-385.401 283,-357.164 411.451,-385.401 411.316,-436.89 154.684,-436.89 154.549,-385.401"/>
<text text-anchor="middle" x="283" y="-394.855" font-family="Times,serif" font-size="20.00" fill="#0044a0">buildCodingGeneSet</text>
</g>
<!-- t48&#45;&gt;t0 -->
<g id="edge1" class="edge"><title>t48&#45;&gt;t0</title>
<path fill="none" stroke="#0044a0" d="M283,-465.969C283,-460.021 283,-453.58 283,-447.151"/>
<polygon fill="#0044a0" stroke="#0044a0" points="286.5,-447.133 283,-437.134 279.5,-447.134 286.5,-447.133"/>
</g>
<!-- t1 -->
<g id="node15" class="node"><title>t1</title>
<polygon fill="#ebf3ff" stroke="#0044a0" points="254.174,-335.26 49.8259,-335.26 45.8259,-331.26 45.8259,-299.26 250.174,-299.26 254.174,-303.26 254.174,-335.26"/>
<polyline fill="none" stroke="#0044a0" points="250.174,-331.26 45.8259,-331.26 "/>
<polyline fill="none" stroke="#0044a0" points="250.174,-331.26 250.174,-299.26 "/>
<polyline fill="none" stroke="#0044a0" points="250.174,-331.26 254.174,-335.26 "/>
<text text-anchor="middle" x="150" y="-311.26" font-family="Times,serif" font-size="20.00" fill="#0044a0">buildRefcodingGeneSet</text>
</g>
<!-- t0&#45;&gt;t1 -->
<g id="edge14" class="edge"><title>t0&#45;&gt;t1</title>
<path fill="none" stroke="#0044a0" d="M231.579,-368.309C216.588,-359.112 200.518,-349.253 186.638,-340.738"/>
<polygon fill="#0044a0" stroke="#0044a0" points="188.221,-337.603 177.867,-335.357 184.561,-343.569 188.221,-337.603"/>
</g>
<!-- t17 -->
<g id="node20" class="node"><title>t17</title>
<polygon fill="#ebf3ff" stroke="#0044a0" points="325.612,-163.387 432,-136.012 538.388,-163.387 538.289,-207.682 325.711,-207.682 325.612,-163.387"/>
<polygon fill="none" stroke="#0044a0" points="321.598,-160.278 432,-131.87 542.402,-160.278 542.287,-211.694 321.713,-211.694 321.598,-160.278"/>
<text text-anchor="middle" x="432" y="-169.63" font-family="Times,serif" font-size="20.00" fill="#0044a0">buildFullGeneSet</text>
</g>
<!-- t0&#45;&gt;t17 -->
<g id="edge21" class="edge"><title>t0&#45;&gt;t17</title>
<path fill="none" stroke="#0044a0" d="M344.755,-370.669C387.866,-350.398 446.807,-322.893 499,-299.26 521.117,-289.246 535.733,-297.592 549,-277.26 563.93,-254.38 548.402,-233.76 524.311,-217.231"/>
<polygon fill="#0044a0" stroke="#0044a0" points="526.149,-214.252 515.845,-211.785 522.362,-220.139 526.149,-214.252"/>
</g>
<!-- t36 -->
<g id="node21" class="node"><title>t36</title>
<polygon fill="#ebf3ff" stroke="#0044a0" points="623.527,-110 536.473,-110 532.473,-106 532.473,-74 619.527,-74 623.527,-78 623.527,-110"/>
<polyline fill="none" stroke="#0044a0" points="619.527,-106 532.473,-106 "/>
<polyline fill="none" stroke="#0044a0" points="619.527,-106 619.527,-74 "/>
<polyline fill="none" stroke="#0044a0" points="619.527,-106 623.527,-110 "/>
<text text-anchor="middle" x="578" y="-86" font-family="Times,serif" font-size="20.00" fill="#0044a0">GeneSets</text>
</g>
<!-- t0&#45;&gt;t36 -->
<g id="edge27" class="edge"><title>t0&#45;&gt;t36</title>
<path fill="none" stroke="#0044a0" d="M293.097,-359.374C299.365,-323.729 301.544,-272.729 273,-241.26 231.863,-195.907 176.689,-265.885 137,-219.26 111.862,-189.728 110.813,-160.606 137,-132 162.51,-104.134 408.959,-96.0669 521.931,-93.8238"/>
<polygon fill="#0044a0" stroke="#0044a0" points="522.178,-97.3198 532.11,-93.6303 522.045,-90.3211 522.178,-97.3198"/>
</g>
<!-- t55 -->
<g id="node3" class="node"><title>t55</title>
<polygon fill="#ebf3ff" stroke="#0044a0" points="787.746,-981.615 492.254,-981.615 488.254,-977.615 488.254,-925.615 783.746,-925.615 787.746,-929.615 787.746,-981.615"/>
<polyline fill="none" stroke="#0044a0" points="783.746,-977.615 488.254,-977.615 "/>
<polyline fill="none" stroke="#0044a0" points="783.746,-977.615 783.746,-925.615 "/>
<polyline fill="none" stroke="#0044a0" points="783.746,-977.615 787.746,-981.615 "/>
<text text-anchor="middle" x="638" y="-959.615" font-family="Times,serif" font-size="20.00" fill="#0044a0">mkdir(&#39;gtfs&#39;) </text>
<text text-anchor="middle" x="638" y="-935.615" font-family="Times,serif" font-size="20.00" fill="#0044a0">before buildRefnoncodingGeneSet </text>
</g>
<!-- t2 -->
<g id="node4" class="node"><title>t2</title>
<polygon fill="#ebf3ff" stroke="#0044a0" points="765.174,-893.615 530.826,-893.615 526.826,-889.615 526.826,-857.615 761.174,-857.615 765.174,-861.615 765.174,-893.615"/>
<polyline fill="none" stroke="#0044a0" points="761.174,-889.615 526.826,-889.615 "/>
<polyline fill="none" stroke="#0044a0" points="761.174,-889.615 761.174,-857.615 "/>
<polyline fill="none" stroke="#0044a0" points="761.174,-889.615 765.174,-893.615 "/>
<text text-anchor="middle" x="646" y="-869.615" font-family="Times,serif" font-size="20.00" fill="#0044a0">buildRefnoncodingGeneSet</text>
</g>
<!-- t55&#45;&gt;t2 -->
<g id="edge2" class="edge"><title>t55&#45;&gt;t2</title>
<path fill="none" stroke="#0044a0" d="M640.843,-925.606C641.574,-918.663 642.361,-911.183 643.095,-904.21"/>
<polygon fill="#0044a0" stroke="#0044a0" points="646.623,-904.131 644.189,-893.819 639.661,-903.398 646.623,-904.131"/>
</g>
<!-- t3 -->
<g id="node7" class="node"><title>t3</title>
<polygon fill="#ebf3ff" stroke="#0044a0" points="252.069,-769.804 386,-742.458 519.931,-769.804 519.805,-814.05 252.195,-814.05 252.069,-769.804"/>
<polygon fill="none" stroke="#0044a0" points="248.061,-766.532 386,-738.369 523.939,-766.532 523.793,-818.057 248.207,-818.057 248.061,-766.532"/>
<text text-anchor="middle" x="386" y="-776.033" font-family="Times,serif" font-size="20.00" fill="#0044a0">buildLncRNAGeneSet</text>
</g>
<!-- t2&#45;&gt;t3 -->
<g id="edge4" class="edge"><title>t2&#45;&gt;t3</title>
<path fill="none" stroke="#0044a0" d="M597.705,-857.604C568.789,-847.418 530.802,-834.038 494.999,-821.427"/>
<polygon fill="#0044a0" stroke="#0044a0" points="496.056,-818.088 485.461,-818.067 493.73,-824.691 496.056,-818.088"/>
</g>
<!-- t2&#45;&gt;t36 -->
<g id="edge26" class="edge"><title>t2&#45;&gt;t36</title>
<path fill="none" stroke="#0044a0" d="M673.857,-857.436C714.949,-829.704 787,-770.892 787,-699.451 787,-699.451 787,-699.451 787,-316.26 787,-232.732 809.425,-190.699 750,-132 714.489,-96.923 687.562,-119.77 633.79,-109.763"/>
<polygon fill="#0044a0" stroke="#0044a0" points="634.323,-106.297 623.806,-107.586 632.831,-113.137 634.323,-106.297"/>
</g>
<!-- t43 -->
<g id="node5" class="node"><title>t43</title>
<polygon fill="#ebf3ff" stroke="#0044a0" points="767.708,-658.451 538.292,-658.451 534.292,-654.451 534.292,-602.451 763.708,-602.451 767.708,-606.451 767.708,-658.451"/>
<polyline fill="none" stroke="#0044a0" points="763.708,-654.451 534.292,-654.451 "/>
<polyline fill="none" stroke="#0044a0" points="763.708,-654.451 763.708,-602.451 "/>
<polyline fill="none" stroke="#0044a0" points="763.708,-654.451 767.708,-658.451 "/>
<text text-anchor="middle" x="651" y="-636.451" font-family="Times,serif" font-size="20.00" fill="#0044a0">mkdir(&#39;fasta&#39;) </text>
<text text-anchor="middle" x="651" y="-612.451" font-family="Times,serif" font-size="20.00" fill="#0044a0">before buildLncRNAFasta </text>
</g>
<!-- t8 -->
<g id="node10" class="node"><title>t8</title>
<polygon fill="#ebf3ff" stroke="#0044a0" points="726.136,-580.451 557.864,-580.451 553.864,-576.451 553.864,-544.451 722.136,-544.451 726.136,-548.451 726.136,-580.451"/>
<polyline fill="none" stroke="#0044a0" points="722.136,-576.451 553.864,-576.451 "/>
<polyline fill="none" stroke="#0044a0" points="722.136,-576.451 722.136,-544.451 "/>
<polyline fill="none" stroke="#0044a0" points="722.136,-576.451 726.136,-580.451 "/>
<text text-anchor="middle" x="640" y="-556.451" font-family="Times,serif" font-size="20.00" fill="#0044a0">buildLncRNAFasta</text>
</g>
<!-- t43&#45;&gt;t8 -->
<g id="edge7" class="edge"><title>t43&#45;&gt;t8</title>
<path fill="none" stroke="#0044a0" d="M646.462,-602.225C645.84,-598.49 645.2,-594.653 644.577,-590.914"/>
<polygon fill="#0044a0" stroke="#0044a0" points="647.988,-590.088 642.891,-580.8 641.083,-591.239 647.988,-590.088"/>
</g>
<!-- t46 -->
<g id="node6" class="node"><title>t46</title>
<polygon fill="#ebf3ff" stroke="#0044a0" points="508.746,-903.615 253.254,-903.615 249.254,-899.615 249.254,-847.615 504.746,-847.615 508.746,-851.615 508.746,-903.615"/>
<polyline fill="none" stroke="#0044a0" points="504.746,-899.615 249.254,-899.615 "/>
<polyline fill="none" stroke="#0044a0" points="504.746,-899.615 504.746,-847.615 "/>
<polyline fill="none" stroke="#0044a0" points="504.746,-899.615 508.746,-903.615 "/>
<text text-anchor="middle" x="379" y="-881.615" font-family="Times,serif" font-size="20.00" fill="#0044a0">mkdir(&#39;gtfs&#39;) </text>
<text text-anchor="middle" x="379" y="-857.615" font-family="Times,serif" font-size="20.00" fill="#0044a0">before buildLncRNAGeneSet </text>
</g>
<!-- t46&#45;&gt;t3 -->
<g id="edge3" class="edge"><title>t46&#45;&gt;t3</title>
<path fill="none" stroke="#0044a0" d="M381.1,-847.138C381.555,-841.19 382.047,-834.75 382.538,-828.322"/>
<polygon fill="#0044a0" stroke="#0044a0" points="386.032,-828.544 383.304,-818.306 379.052,-828.01 386.032,-828.544"/>
</g>
<!-- t4 -->
<g id="node8" class="node"><title>t4</title>
<polygon fill="#ebf3ff" stroke="#0044a0" points="455.202,-716.451 320.798,-716.451 316.798,-712.451 316.798,-680.451 451.202,-680.451 455.202,-684.451 455.202,-716.451"/>
<polyline fill="none" stroke="#0044a0" points="451.202,-712.451 316.798,-712.451 "/>
<polyline fill="none" stroke="#0044a0" points="451.202,-712.451 451.202,-680.451 "/>
<polyline fill="none" stroke="#0044a0" points="451.202,-712.451 455.202,-716.451 "/>
<text text-anchor="middle" x="386" y="-692.451" font-family="Times,serif" font-size="20.00" fill="#0044a0">flagExonStatus</text>
</g>
<!-- t3&#45;&gt;t4 -->
<g id="edge5" class="edge"><title>t3&#45;&gt;t4</title>
<path fill="none" stroke="#0044a0" d="M386,-738.33C386,-734.355 386,-730.403 386,-726.628"/>
<polygon fill="#0044a0" stroke="#0044a0" points="389.5,-726.578 386,-716.578 382.5,-726.578 389.5,-726.578"/>
</g>
<!-- t6 -->
<g id="node9" class="node"><title>t6</title>
<polygon fill="#ebf3ff" stroke="#0044a0" points="516.38,-648.451 259.62,-648.451 255.62,-644.451 255.62,-612.451 512.38,-612.451 516.38,-616.451 516.38,-648.451"/>
<polyline fill="none" stroke="#0044a0" points="512.38,-644.451 255.62,-644.451 "/>
<polyline fill="none" stroke="#0044a0" points="512.38,-644.451 512.38,-612.451 "/>
<polyline fill="none" stroke="#0044a0" points="512.38,-644.451 516.38,-648.451 "/>
<text text-anchor="middle" x="386" y="-624.451" font-family="Times,serif" font-size="20.00" fill="#0044a0">buildFilteredLncRNAGeneSet</text>
</g>
<!-- t4&#45;&gt;t6 -->
<g id="edge6" class="edge"><title>t4&#45;&gt;t6</title>
<path fill="none" stroke="#0044a0" d="M386,-680.11C386,-673.644 386,-666.133 386,-658.975"/>
<polygon fill="#0044a0" stroke="#0044a0" points="389.5,-658.905 386,-648.905 382.5,-658.905 389.5,-658.905"/>
</g>
<!-- t6&#45;&gt;t8 -->
<g id="edge8" class="edge"><title>t6&#45;&gt;t8</title>
<path fill="none" stroke="#0044a0" d="M451.742,-612.368C486.272,-603.396 528.747,-592.359 564.607,-583.041"/>
<polygon fill="#0044a0" stroke="#0044a0" points="565.736,-586.364 574.534,-580.462 563.975,-579.589 565.736,-586.364"/>
</g>
<!-- t11 -->
<g id="node13" class="node"><title>t11</title>
<polygon fill="#ebf3ff" stroke="#0044a0" points="747.786,-335.26 512.214,-335.26 508.214,-331.26 508.214,-299.26 743.786,-299.26 747.786,-303.26 747.786,-335.26"/>
<polyline fill="none" stroke="#0044a0" points="743.786,-331.26 508.214,-331.26 "/>
<polyline fill="none" stroke="#0044a0" points="743.786,-331.26 743.786,-299.26 "/>
<polyline fill="none" stroke="#0044a0" points="743.786,-331.26 747.786,-335.26 "/>
<text text-anchor="middle" x="628" y="-311.26" font-family="Times,serif" font-size="20.00" fill="#0044a0">buildFinalLncRNAGeneSet</text>
</g>
<!-- t6&#45;&gt;t11 -->
<g id="edge12" class="edge"><title>t6&#45;&gt;t11</title>
<path fill="none" stroke="#0044a0" d="M393.016,-612.399C412.734,-566.189 472.753,-436.708 557,-357.26 563.687,-350.954 571.588,-345.325 579.646,-340.44"/>
<polygon fill="#0044a0" stroke="#0044a0" points="581.459,-343.435 588.403,-335.433 577.984,-337.358 581.459,-343.435"/>
</g>
<!-- t9 -->
<g id="node11" class="node"><title>t9</title>
<polygon fill="#ebf3ff" stroke="#0044a0" points="680.453,-512.451 603.547,-512.451 599.547,-508.451 599.547,-476.451 676.453,-476.451 680.453,-480.451 680.453,-512.451"/>
<polyline fill="none" stroke="#0044a0" points="676.453,-508.451 599.547,-508.451 "/>
<polyline fill="none" stroke="#0044a0" points="676.453,-508.451 676.453,-476.451 "/>
<polyline fill="none" stroke="#0044a0" points="676.453,-508.451 680.453,-512.451 "/>
<text text-anchor="middle" x="640" y="-488.451" font-family="Times,serif" font-size="20.00" fill="#0044a0">runCPC</text>
</g>
<!-- t8&#45;&gt;t9 -->
<g id="edge9" class="edge"><title>t8&#45;&gt;t9</title>
<path fill="none" stroke="#0044a0" d="M640,-544.11C640,-537.644 640,-530.133 640,-522.975"/>
<polygon fill="#0044a0" stroke="#0044a0" points="643.5,-522.905 640,-512.905 636.5,-522.905 643.5,-522.905"/>
</g>
<!-- t10 -->
<g id="node12" class="node"><title>t10</title>
<polygon fill="#ebf3ff" stroke="#0044a0" points="713.618,-418.855 570.382,-418.855 566.382,-414.855 566.382,-382.855 709.618,-382.855 713.618,-386.855 713.618,-418.855"/>
<polyline fill="none" stroke="#0044a0" points="709.618,-414.855 566.382,-414.855 "/>
<polyline fill="none" stroke="#0044a0" points="709.618,-414.855 709.618,-382.855 "/>
<polyline fill="none" stroke="#0044a0" points="709.618,-414.855 713.618,-418.855 "/>
<text text-anchor="middle" x="640" y="-394.855" font-family="Times,serif" font-size="20.00" fill="#0044a0">loadCPCResults</text>
</g>
<!-- t9&#45;&gt;t10 -->
<g id="edge10" class="edge"><title>t9&#45;&gt;t10</title>
<path fill="none" stroke="#0044a0" d="M640,-476.222C640,-463.045 640,-444.614 640,-429.397"/>
<polygon fill="#0044a0" stroke="#0044a0" points="643.5,-429.007 640,-419.007 636.5,-429.007 643.5,-429.007"/>
</g>
<!-- t10&#45;&gt;t11 -->
<g id="edge11" class="edge"><title>t10&#45;&gt;t11</title>
<path fill="none" stroke="#0044a0" d="M637.455,-382.551C635.88,-371.841 633.823,-357.855 632.03,-345.664"/>
<polygon fill="#0044a0" stroke="#0044a0" points="635.459,-344.924 630.541,-335.539 628.534,-345.942 635.459,-344.924"/>
</g>
<!-- t38 -->
<g id="node22" class="node"><title>t38</title>
<polygon fill="#ebf3ff" stroke="#0044a0" points="788.002,-110 645.998,-110 641.998,-106 641.998,-74 784.002,-74 788.002,-78 788.002,-110"/>
<polyline fill="none" stroke="#0044a0" points="784.002,-106 641.998,-106 "/>
<polyline fill="none" stroke="#0044a0" points="784.002,-106 784.002,-74 "/>
<polyline fill="none" stroke="#0044a0" points="784.002,-106 788.002,-110 "/>
<text text-anchor="middle" x="715" y="-86" font-family="Times,serif" font-size="20.00" fill="#0044a0">CodingPotential</text>
</g>
<!-- t10&#45;&gt;t38 -->
<g id="edge28" class="edge"><title>t10&#45;&gt;t38</title>
<path fill="none" stroke="#0044a0" d="M696.874,-382.777C719.746,-372.801 743.792,-357.64 757,-335.26 775.38,-304.118 825.467,-317.378 750,-132 747.993,-127.071 745.076,-122.358 741.769,-118.02"/>
<polygon fill="#0044a0" stroke="#0044a0" points="744.226,-115.507 735.067,-110.181 738.905,-120.056 744.226,-115.507"/>
</g>
<!-- t12 -->
<g id="node14" class="node"><title>t12</title>
<polygon fill="#ebf3ff" stroke="#0044a0" points="539.564,-277.26 306.436,-277.26 302.436,-273.26 302.436,-241.26 535.564,-241.26 539.564,-245.26 539.564,-277.26"/>
<polyline fill="none" stroke="#0044a0" points="535.564,-273.26 302.436,-273.26 "/>
<polyline fill="none" stroke="#0044a0" points="535.564,-273.26 535.564,-241.26 "/>
<polyline fill="none" stroke="#0044a0" points="535.564,-273.26 539.564,-277.26 "/>
<text text-anchor="middle" x="421" y="-253.26" font-family="Times,serif" font-size="20.00" fill="#0044a0">buildLncRNAGeneSetStats</text>
</g>
<!-- t11&#45;&gt;t12 -->
<g id="edge13" class="edge"><title>t11&#45;&gt;t12</title>
<path fill="none" stroke="#0044a0" d="M565.05,-299.23C542.569,-293.148 517.057,-286.246 493.814,-279.958"/>
<polygon fill="#0044a0" stroke="#0044a0" points="494.574,-276.538 484.007,-277.305 492.746,-283.295 494.574,-276.538"/>
</g>
<!-- t15 -->
<g id="node18" class="node"><title>t15</title>
<polygon fill="#ebf3ff" stroke="#0044a0" points="728.397,-277.26 581.603,-277.26 577.603,-273.26 577.603,-241.26 724.397,-241.26 728.397,-245.26 728.397,-277.26"/>
<polyline fill="none" stroke="#0044a0" points="724.397,-273.26 577.603,-273.26 "/>
<polyline fill="none" stroke="#0044a0" points="724.397,-273.26 724.397,-241.26 "/>
<polyline fill="none" stroke="#0044a0" points="724.397,-273.26 728.397,-277.26 "/>
<text text-anchor="middle" x="653" y="-253.26" font-family="Times,serif" font-size="20.00" fill="#0044a0">classifyLncRNA</text>
</g>
<!-- t11&#45;&gt;t15 -->
<g id="edge18" class="edge"><title>t11&#45;&gt;t15</title>
<path fill="none" stroke="#0044a0" d="M635.637,-299.154C637.43,-295.137 639.381,-290.766 641.307,-286.453"/>
<polygon fill="#0044a0" stroke="#0044a0" points="644.53,-287.82 645.41,-277.261 638.138,-284.966 644.53,-287.82"/>
</g>
<!-- t11&#45;&gt;t36 -->
<g id="edge25" class="edge"><title>t11&#45;&gt;t36</title>
<path fill="none" stroke="#0044a0" d="M711.237,-299.179C721.341,-293.755 730.403,-286.626 737,-277.26 755.587,-250.868 757.327,-157.076 737,-132 709.109,-97.592 682.298,-118.802 633.818,-109.747"/>
<polygon fill="#0044a0" stroke="#0044a0" points="634.35,-106.28 623.826,-107.508 632.819,-113.11 634.35,-106.28"/>
</g>
<!-- t14 -->
<g id="node17" class="node"><title>t14</title>
<polygon fill="#ebf3ff" stroke="#0044a0" points="303.574,-193.63 150.426,-193.63 146.426,-189.63 146.426,-157.63 299.574,-157.63 303.574,-161.63 303.574,-193.63"/>
<polyline fill="none" stroke="#0044a0" points="299.574,-189.63 146.426,-189.63 "/>
<polyline fill="none" stroke="#0044a0" points="299.574,-189.63 299.574,-157.63 "/>
<polyline fill="none" stroke="#0044a0" points="299.574,-189.63 303.574,-193.63 "/>
<text text-anchor="middle" x="225" y="-169.63" font-family="Times,serif" font-size="20.00" fill="#0044a0">loadGeneSetStats</text>
</g>
<!-- t12&#45;&gt;t14 -->
<g id="edge17" class="edge"><title>t12&#45;&gt;t14</title>
<path fill="none" stroke="#0044a0" d="M370.301,-241.184C352.074,-234.722 331.462,-227.04 313,-219.26 297.857,-212.879 281.585,-205.228 267.201,-198.181"/>
<polygon fill="#0044a0" stroke="#0044a0" points="268.569,-194.952 258.053,-193.656 265.465,-201.227 268.569,-194.952"/>
</g>
<!-- t13 -->
<g id="node16" class="node"><title>t13</title>
<polygon fill="#ebf3ff" stroke="#0044a0" points="263.564,-277.26 20.436,-277.26 16.436,-273.26 16.436,-241.26 259.564,-241.26 263.564,-245.26 263.564,-277.26"/>
<polyline fill="none" stroke="#0044a0" points="259.564,-273.26 16.436,-273.26 "/>
<polyline fill="none" stroke="#0044a0" points="259.564,-273.26 259.564,-241.26 "/>
<polyline fill="none" stroke="#0044a0" points="259.564,-273.26 263.564,-277.26 "/>
<text text-anchor="middle" x="140" y="-253.26" font-family="Times,serif" font-size="20.00" fill="#0044a0">buildRefcodingGeneSetStats</text>
</g>
<!-- t1&#45;&gt;t13 -->
<g id="edge15" class="edge"><title>t1&#45;&gt;t13</title>
<path fill="none" stroke="#0044a0" d="M146.945,-299.154C146.267,-295.354 145.532,-291.238 144.802,-287.153"/>
<polygon fill="#0044a0" stroke="#0044a0" points="148.239,-286.49 143.036,-277.261 141.348,-287.721 148.239,-286.49"/>
</g>
<!-- t13&#45;&gt;t14 -->
<g id="edge16" class="edge"><title>t13&#45;&gt;t14</title>
<path fill="none" stroke="#0044a0" d="M158.026,-240.948C170.166,-229.29 186.347,-213.751 199.763,-200.866"/>
<polygon fill="#0044a0" stroke="#0044a0" points="202.503,-203.088 207.291,-193.637 197.654,-198.039 202.503,-203.088"/>
</g>
<!-- t14&#45;&gt;t36 -->
<g id="edge24" class="edge"><title>t14&#45;&gt;t36</title>
<path fill="none" stroke="#0044a0" d="M254.615,-157.47C271.263,-148.553 292.719,-138.243 313,-132 383.146,-110.407 467.524,-100.616 521.924,-96.281"/>
<polygon fill="#0044a0" stroke="#0044a0" points="522.351,-99.7587 532.056,-95.5092 521.819,-92.7789 522.351,-99.7587"/>
</g>
<!-- t16 -->
<g id="node19" class="node"><title>t16</title>
<polygon fill="#ebf3ff" stroke="#0044a0" points="727.576,-193.63 564.424,-193.63 560.424,-189.63 560.424,-157.63 723.576,-157.63 727.576,-161.63 727.576,-193.63"/>
<polyline fill="none" stroke="#0044a0" points="723.576,-189.63 560.424,-189.63 "/>
<polyline fill="none" stroke="#0044a0" points="723.576,-189.63 723.576,-157.63 "/>
<polyline fill="none" stroke="#0044a0" points="723.576,-189.63 727.576,-193.63 "/>
<text text-anchor="middle" x="644" y="-169.63" font-family="Times,serif" font-size="20.00" fill="#0044a0">loadLncRNAClass</text>
</g>
<!-- t15&#45;&gt;t16 -->
<g id="edge19" class="edge"><title>t15&#45;&gt;t16</title>
<path fill="none" stroke="#0044a0" d="M651.091,-240.948C649.902,-230.162 648.346,-216.053 646.995,-203.798"/>
<polygon fill="#0044a0" stroke="#0044a0" points="650.45,-203.193 645.875,-193.637 643.492,-203.96 650.45,-203.193"/>
</g>
<!-- t15&#45;&gt;t17 -->
<g id="edge20" class="edge"><title>t15&#45;&gt;t17</title>
<path fill="none" stroke="#0044a0" d="M606.94,-241.247C586.413,-233.665 561.325,-224.398 536.629,-215.277"/>
<polygon fill="#0044a0" stroke="#0044a0" points="537.787,-211.973 527.194,-211.791 535.362,-218.54 537.787,-211.973"/>
</g>
<!-- t16&#45;&gt;t36 -->
<g id="edge23" class="edge"><title>t16&#45;&gt;t36</title>
<path fill="none" stroke="#0044a0" d="M630.003,-157.318C620.753,-145.878 608.482,-130.7 598.182,-117.962"/>
<polygon fill="#0044a0" stroke="#0044a0" points="600.759,-115.582 591.75,-110.007 595.316,-119.984 600.759,-115.582"/>
</g>
<!-- t17&#45;&gt;t36 -->
<g id="edge22" class="edge"><title>t17&#45;&gt;t36</title>
<path fill="none" stroke="#0044a0" d="M484.709,-145.16C502.49,-135.218 522.015,-124.302 538.587,-115.036"/>
<polygon fill="#0044a0" stroke="#0044a0" points="540.44,-118.01 547.46,-110.075 537.024,-111.9 540.44,-118.01"/>
</g>
<!-- t39 -->
<g id="node23" class="node"><title>t39</title>
<polygon fill="#efa03b" stroke="black" points="673,-52 623,-52 619,-48 619,-16 669,-16 673,-20 673,-52"/>
<polyline fill="none" stroke="black" points="669,-48 619,-48 "/>
<polyline fill="none" stroke="black" points="669,-48 669,-16 "/>
<polyline fill="none" stroke="black" points="669,-48 673,-52 "/>
<text text-anchor="middle" x="646" y="-28" font-family="Times,serif" font-size="20.00">full</text>
</g>
<!-- t36&#45;&gt;t39 -->
<g id="edge30" class="edge"><title>t36&#45;&gt;t39</title>
<path fill="none" stroke="#0044a0" d="M598.772,-73.8939C604.704,-69.0088 611.272,-63.5996 617.577,-58.407"/>
<polygon fill="#0044a0" stroke="#0044a0" points="619.861,-61.0603 625.355,-52.0014 615.411,-55.6567 619.861,-61.0603"/>
</g>
<!-- t38&#45;&gt;t39 -->
<g id="edge29" class="edge"><title>t38&#45;&gt;t39</title>
<path fill="none" stroke="#0044a0" d="M693.923,-73.8939C687.904,-69.0088 681.239,-63.5996 674.841,-58.407"/>
<polygon fill="#0044a0" stroke="#0044a0" points="676.918,-55.5855 666.948,-52.0014 672.507,-61.0207 676.918,-55.5855"/>
</g>
<!-- k1_1 -->
<g id="node24" class="node"><title>k1_1</title>
<polygon fill="#ebf3ff" stroke="#0044a0" points="903.763,-975.916 816.237,-975.916 812.237,-971.916 812.237,-931.315 899.763,-931.315 903.763,-935.315 903.763,-975.916"/>
<polyline fill="none" stroke="#0044a0" points="899.763,-971.916 812.237,-971.916 "/>
<polyline fill="none" stroke="#0044a0" points="899.763,-971.916 899.763,-931.315 "/>
<polyline fill="none" stroke="#0044a0" points="899.763,-971.916 903.763,-975.916 "/>
<text text-anchor="middle" x="858" y="-949.415" font-family="Times,serif" font-size="14.00" fill="#0044a0">Task to run</text>
</g>
<!-- k2_1 -->
<g id="node25" class="node"><title>k2_1</title>
<polygon fill="#efa03b" stroke="black" points="904.15,-897.916 815.85,-897.916 811.85,-893.916 811.85,-853.315 900.15,-853.315 904.15,-857.315 904.15,-897.916"/>
<polyline fill="none" stroke="black" points="900.15,-893.916 811.85,-893.916 "/>
<polyline fill="none" stroke="black" points="900.15,-893.916 900.15,-853.315 "/>
<polyline fill="none" stroke="black" points="900.15,-893.916 904.15,-897.916 "/>
<text text-anchor="middle" x="858" y="-871.415" font-family="Times,serif" font-size="14.00">Final target</text>
</g>
<!-- k1_1&#45;&gt;k2_1 -->
<g id="edge31" class="edge"><title>k1_1&#45;&gt;k2_1</title>
<path fill="none" stroke="#0044a0" d="M858,-931.04C858,-923.92 858,-915.847 858,-908.14"/>
<polygon fill="#0044a0" stroke="#0044a0" points="861.5,-907.981 858,-897.981 854.5,-907.981 861.5,-907.981"/>
</g>
</g>
</svg>
