<?xml version="1.0" encoding="UTF-8" standalone="no"?>
<!DOCTYPE svg PUBLIC "-//W3C//DTD SVG 1.1//EN"
 "http://www.w3.org/Graphics/SVG/1.1/DTD/svg11.dtd">
<!-- Generated by graphviz version 2.38.0 (20140413.2041)
 -->
<!-- Title: Pipeline: Pages: 1 -->
<svg width="577pt" height="571pt"
 viewBox="0.00 0.00 577.00 571.41" xmlns="http://www.w3.org/2000/svg" xmlns:xlink="http://www.w3.org/1999/xlink">
<g id="graph0" class="graph" transform="scale(1 1) rotate(0) translate(4 567.407)">
<title>Pipeline:</title>
<polygon fill="white" stroke="none" points="-4,4 -4,-567.407 573,-567.407 573,4 -4,4"/>
<g id="clust1" class="cluster"><title>clustertasks</title>
<polygon fill="none" stroke="black" points="8,-8 8,-555.407 421,-555.407 421,-8 8,-8"/>
<text text-anchor="middle" x="214.5" y="-524.407" font-family="Times,serif" font-size="30.00" fill="#ff3232">Pipeline:</text>
</g>
<g id="clust2" class="cluster"><title>clusterkey1</title>
<polygon fill="#f6f4f4" stroke="#f6f4f4" points="429,-291.407 429,-537.407 561,-537.407 561,-291.407 429,-291.407"/>
<text text-anchor="middle" x="495" y="-515.407" font-family="Times,serif" font-size="20.00">Key:</text>
</g>
<!-- t3 -->
<g id="node1" class="node"><title>t3</title>
<polygon fill="#ebf3ff" stroke="#0044a0" points="412.5,-251.704 215.5,-251.704 211.5,-247.704 211.5,-215.704 408.5,-215.704 412.5,-219.704 412.5,-251.704"/>
<polyline fill="none" stroke="#0044a0" points="408.5,-247.704 211.5,-247.704 "/>
<polyline fill="none" stroke="#0044a0" points="408.5,-247.704 408.5,-215.704 "/>
<polyline fill="none" stroke="#0044a0" points="408.5,-247.704 412.5,-251.704 "/>
<text text-anchor="middle" x="312" y="-227.704" font-family="Times,serif" font-size="20.00" fill="#0044a0">characteriseTranscripts</text>
</g>
<!-- t4 -->
<g id="node7" class="node"><title>t4</title>
<polygon fill="#ebf3ff" stroke="#0044a0" points="277,-168 143,-168 139,-164 139,-132 273,-132 277,-136 277,-168"/>
<polyline fill="none" stroke="#0044a0" points="273,-164 139,-164 "/>
<polyline fill="none" stroke="#0044a0" points="273,-164 273,-132 "/>
<polyline fill="none" stroke="#0044a0" points="273,-164 277,-168 "/>
<text text-anchor="middle" x="208" y="-144" font-family="Times,serif" font-size="20.00" fill="#0044a0">summariseBias</text>
</g>
<!-- t3&#45;&gt;t4 -->
<g id="edge5" class="edge"><title>t3&#45;&gt;t4</title>
<path fill="none" stroke="#0044a0" d="M290.198,-215.576C274.945,-203.592 254.386,-187.441 237.645,-174.289"/>
<polygon fill="#0044a0" stroke="#0044a0" points="239.799,-171.531 229.773,-168.105 235.474,-177.035 239.799,-171.531"/>
</g>
<!-- t14 -->
<g id="node2" class="node"><title>t14</title>
<polygon fill="#ebf3ff" stroke="#0044a0" points="384.5,-503.407 175.5,-503.407 171.5,-499.407 171.5,-447.407 380.5,-447.407 384.5,-451.407 384.5,-503.407"/>
<polyline fill="none" stroke="#0044a0" points="380.5,-499.407 171.5,-499.407 "/>
<polyline fill="none" stroke="#0044a0" points="380.5,-499.407 380.5,-447.407 "/>
<polyline fill="none" stroke="#0044a0" points="380.5,-499.407 384.5,-503.407 "/>
<text text-anchor="middle" x="278" y="-481.407" font-family="Times,serif" font-size="20.00" fill="#0044a0">mkdir(&#39;index.dir&#39;) </text>
<text text-anchor="middle" x="278" y="-457.407" font-family="Times,serif" font-size="20.00" fill="#0044a0">before indexForSailfish </text>
</g>
<!-- t0 -->
<g id="node3" class="node"><title>t0</title>
<polygon fill="#ebf3ff" stroke="#0044a0" points="353,-413.407 207,-413.407 203,-409.407 203,-377.407 349,-377.407 353,-381.407 353,-413.407"/>
<polyline fill="none" stroke="#0044a0" points="349,-409.407 203,-409.407 "/>
<polyline fill="none" stroke="#0044a0" points="349,-409.407 349,-377.407 "/>
<polyline fill="none" stroke="#0044a0" points="349,-409.407 353,-413.407 "/>
<text text-anchor="middle" x="278" y="-389.407" font-family="Times,serif" font-size="20.00" fill="#0044a0">indexForSailfish</text>
</g>
<!-- t14&#45;&gt;t0 -->
<g id="edge1" class="edge"><title>t14&#45;&gt;t0</title>
<path fill="none" stroke="#0044a0" d="M278,-447.126C278,-439.602 278,-431.435 278,-423.899"/>
<polygon fill="#0044a0" stroke="#0044a0" points="281.5,-423.796 278,-413.796 274.5,-423.796 281.5,-423.796"/>
</g>
<!-- t1 -->
<g id="node5" class="node"><title>t1</title>
<polygon fill="none" stroke="#0044a0" stroke-dasharray="5,2" points="157.5,-339.407 56.5,-339.407 52.5,-335.407 52.5,-303.407 153.5,-303.407 157.5,-307.407 157.5,-339.407"/>
<polyline fill="none" stroke="#0044a0" stroke-dasharray="5,2" points="153.5,-335.407 52.5,-335.407 "/>
<polyline fill="none" stroke="#0044a0" stroke-dasharray="5,2" points="153.5,-335.407 153.5,-303.407 "/>
<polyline fill="none" stroke="#0044a0" stroke-dasharray="5,2" points="153.5,-335.407 157.5,-339.407 "/>
<text text-anchor="middle" x="105" y="-315.407" font-family="Times,serif" font-size="20.00" fill="#0044a0">runSailfish</text>
</g>
<!-- t0&#45;&gt;t1 -->
<g id="edge3" class="edge"><title>t0&#45;&gt;t1</title>
<path fill="none" stroke="#0044a0" d="M237.001,-377.344C212.529,-367.159 181.264,-354.147 155.305,-343.343"/>
<polygon fill="#0044a0" stroke="#0044a0" points="156.581,-340.083 146.004,-339.472 153.891,-346.546 156.581,-340.083"/>
</g>
<!-- t12 -->
<g id="node4" class="node"><title>t12</title>
<polygon fill="#ebf3ff" stroke="#0044a0" points="185.5,-423.407 22.5,-423.407 18.5,-419.407 18.5,-367.407 181.5,-367.407 185.5,-371.407 185.5,-423.407"/>
<polyline fill="none" stroke="#0044a0" points="181.5,-419.407 18.5,-419.407 "/>
<polyline fill="none" stroke="#0044a0" points="181.5,-419.407 181.5,-367.407 "/>
<polyline fill="none" stroke="#0044a0" points="181.5,-419.407 185.5,-423.407 "/>
<text text-anchor="middle" x="102" y="-401.407" font-family="Times,serif" font-size="20.00" fill="#0044a0">mkdir(&#39;quant.dir&#39;) </text>
<text text-anchor="middle" x="102" y="-377.407" font-family="Times,serif" font-size="20.00" fill="#0044a0">before runSailfish </text>
</g>
<!-- t12&#45;&gt;t1 -->
<g id="edge2" class="edge"><title>t12&#45;&gt;t1</title>
<path fill="none" stroke="#0044a0" d="M103.134,-367.187C103.369,-361.557 103.616,-355.622 103.851,-349.98"/>
<polygon fill="#0044a0" stroke="#0044a0" points="107.362,-349.784 104.282,-339.647 100.368,-349.493 107.362,-349.784"/>
</g>
<!-- t2 -->
<g id="node6" class="node"><title>t2</title>
<polygon fill="#ebf3ff" stroke="#0044a0" points="20.5018,-221.44 105,-194.019 189.498,-221.44 189.419,-265.809 20.5806,-265.809 20.5018,-221.44"/>
<polygon fill="none" stroke="#0044a0" points="16.4965,-218.517 105,-189.796 193.504,-218.517 193.412,-269.828 16.5877,-269.828 16.4965,-218.517"/>
<text text-anchor="middle" x="105" y="-227.704" font-family="Times,serif" font-size="20.00" fill="#0044a0">mergeResults</text>
</g>
<!-- t1&#45;&gt;t2 -->
<g id="edge4" class="edge"><title>t1&#45;&gt;t2</title>
<path fill="none" stroke="#0044a0" d="M105,-303.064C105,-296.392 105,-288.423 105,-280.321"/>
<polygon fill="#0044a0" stroke="#0044a0" points="108.5,-280.077 105,-270.077 101.5,-280.077 108.5,-280.077"/>
</g>
<!-- t2&#45;&gt;t4 -->
<g id="edge6" class="edge"><title>t2&#45;&gt;t4</title>
<path fill="none" stroke="#0044a0" d="M143.646,-202.048C155.2,-192.883 167.677,-182.986 178.54,-174.369"/>
<polygon fill="#0044a0" stroke="#0044a0" points="180.832,-177.018 186.491,-168.062 176.482,-171.534 180.832,-177.018"/>
</g>
<!-- t5 -->
<g id="node8" class="node"><title>t5</title>
<polygon fill="#ebf3ff" stroke="#0044a0" points="290,-110 130,-110 126,-106 126,-74 286,-74 290,-78 290,-110"/>
<polyline fill="none" stroke="#0044a0" points="286,-106 126,-106 "/>
<polyline fill="none" stroke="#0044a0" points="286,-106 286,-74 "/>
<polyline fill="none" stroke="#0044a0" points="286,-106 290,-110 "/>
<text text-anchor="middle" x="208" y="-86" font-family="Times,serif" font-size="20.00" fill="#0044a0">loadBiasSummary</text>
</g>
<!-- t4&#45;&gt;t5 -->
<g id="edge7" class="edge"><title>t4&#45;&gt;t5</title>
<path fill="none" stroke="#0044a0" d="M208,-131.894C208,-128.203 208,-124.213 208,-120.243"/>
<polygon fill="#0044a0" stroke="#0044a0" points="211.5,-120.001 208,-110.001 204.5,-120.001 211.5,-120.001"/>
</g>
<!-- t6 -->
<g id="node9" class="node"><title>t6</title>
<polygon fill="#efa03b" stroke="black" points="235,-52 185,-52 181,-48 181,-16 231,-16 235,-20 235,-52"/>
<polyline fill="none" stroke="black" points="231,-48 181,-48 "/>
<polyline fill="none" stroke="black" points="231,-48 231,-16 "/>
<polyline fill="none" stroke="black" points="231,-48 235,-52 "/>
<text text-anchor="middle" x="208" y="-28" font-family="Times,serif" font-size="20.00">full</text>
</g>
<!-- t5&#45;&gt;t6 -->
<g id="edge8" class="edge"><title>t5&#45;&gt;t6</title>
<path fill="none" stroke="#0044a0" d="M208,-73.8939C208,-70.2029 208,-66.2128 208,-62.2429"/>
<polygon fill="#0044a0" stroke="#0044a0" points="211.5,-62.0013 208,-52.0014 204.5,-62.0014 211.5,-62.0013"/>
</g>
<!-- k1_1 -->
<g id="node10" class="node"><title>k1_1</title>
<polygon fill="#ebf3ff" stroke="#0044a0" points="541,-497.407 453,-497.407 449,-493.407 449,-453.407 537,-453.407 541,-457.407 541,-497.407"/>
<polyline fill="none" stroke="#0044a0" points="537,-493.407 449,-493.407 "/>
<polyline fill="none" stroke="#0044a0" points="537,-493.407 537,-453.407 "/>
<polyline fill="none" stroke="#0044a0" points="537,-493.407 541,-497.407 "/>
<text text-anchor="middle" x="495" y="-470.807" font-family="Times,serif" font-size="14.00" fill="#0044a0">Task to run</text>
</g>
<!-- k2_1 -->
<g id="node11" class="node"><title>k2_1</title>
<polygon fill="none" stroke="#0044a0" stroke-dasharray="5,2" points="553,-425.407 441,-425.407 437,-421.407 437,-365.407 549,-365.407 553,-369.407 553,-425.407"/>
<polyline fill="none" stroke="#0044a0" stroke-dasharray="5,2" points="549,-421.407 437,-421.407 "/>
<polyline fill="none" stroke="#0044a0" stroke-dasharray="5,2" points="549,-421.407 549,-365.407 "/>
<polyline fill="none" stroke="#0044a0" stroke-dasharray="5,2" points="549,-421.407 553,-425.407 "/>
<text text-anchor="middle" x="495" y="-398.807" font-family="Times,serif" font-size="14.00" fill="#0044a0">Up&#45;to&#45;date task</text>
<text text-anchor="middle" x="495" y="-382.807" font-family="Times,serif" font-size="14.00" fill="#0044a0">forced to rerun</text>
</g>
<!-- k1_1&#45;&gt;k2_1 -->
<g id="edge9" class="edge"><title>k1_1&#45;&gt;k2_1</title>
<path fill="none" stroke="#0044a0" d="M495,-453.093C495,-447.661 495,-441.647 495,-435.627"/>
<polygon fill="#0044a0" stroke="#0044a0" points="498.5,-435.59 495,-425.59 491.5,-435.59 498.5,-435.59"/>
</g>
<!-- k3_1 -->
<g id="node12" class="node"><title>k3_1</title>
<polygon fill="#efa03b" stroke="black" points="541.5,-343.407 452.5,-343.407 448.5,-339.407 448.5,-299.407 537.5,-299.407 541.5,-303.407 541.5,-343.407"/>
<polyline fill="none" stroke="black" points="537.5,-339.407 448.5,-339.407 "/>
<polyline fill="none" stroke="black" points="537.5,-339.407 537.5,-299.407 "/>
<polyline fill="none" stroke="black" points="537.5,-339.407 541.5,-343.407 "/>
<text text-anchor="middle" x="495" y="-316.807" font-family="Times,serif" font-size="14.00">Final target</text>
</g>
<!-- k2_1&#45;&gt;k3_1 -->
<g id="edge10" class="edge"><title>k2_1&#45;&gt;k3_1</title>
<path fill="none" stroke="#0044a0" d="M495,-365.122C495,-361.428 495,-357.637 495,-353.91"/>
<polygon fill="#0044a0" stroke="#0044a0" points="498.5,-353.717 495,-343.717 491.5,-353.717 498.5,-353.717"/>
</g>
</g>
</svg>
